<?xml version="1.0" encoding="UTF-8" standalone="no"?>
<!-- Created with Inkscape (http://www.inkscape.org/) -->

<svg
   xmlns:dc="http://purl.org/dc/elements/1.1/"
   xmlns:cc="http://creativecommons.org/ns#"
   xmlns:rdf="http://www.w3.org/1999/02/22-rdf-syntax-ns#"
   xmlns:svg="http://www.w3.org/2000/svg"
   xmlns="http://www.w3.org/2000/svg"
   xmlns:sodipodi="http://sodipodi.sourceforge.net/DTD/sodipodi-0.dtd"
   xmlns:inkscape="http://www.inkscape.org/namespaces/inkscape"
   width="173.29443pt"
   height="45.043365pt"
   viewBox="0 0 61.134427 15.890298"
   version="1.1"
   id="svg6038"
   inkscape:version="0.92.1 r15371"
   sodipodi:docname="pp_mast.svg">
  <defs
     id="defs6032" />
  <sodipodi:namedview
     id="base"
     pagecolor="#ffffff"
     bordercolor="#666666"
     borderopacity="1.0"
     inkscape:pageopacity="0.0"
     inkscape:pageshadow="2"
     inkscape:zoom="1.4"
     inkscape:cx="74.215796"
     inkscape:cy="-106.19463"
     inkscape:document-units="mm"
     inkscape:current-layer="layer1"
     showgrid="false"
     fit-margin-top="0"
     fit-margin-left="0"
     fit-margin-right="0"
     fit-margin-bottom="0"
     inkscape:window-width="1858"
     inkscape:window-height="1178"
     inkscape:window-x="1912"
     inkscape:window-y="-8"
     inkscape:window-maximized="1"
     units="pt" />
  <metadata
     id="metadata6035">
    <rdf:RDF>
      <cc:Work
         rdf:about="">
        <dc:format>image/svg+xml</dc:format>
        <dc:type
           rdf:resource="http://purl.org/dc/dcmitype/StillImage" />
        <dc:title></dc:title>
      </cc:Work>
    </rdf:RDF>
  </metadata>
  <g
     inkscape:label="Ebene 1"
     inkscape:groupmode="layer"
     id="layer1"
     transform="translate(-147.046,-280.13491)">
    <g
       id="g22"
       transform="matrix(0.10382762,0,0,-0.10382762,158.60167,281.21815)">
      <path
         d="m 0,0 c -22.666,4.827 -45.037,-4.133 -58.456,-21.197 0,0 8.343,3.01 21.82,1.276 -1.748,-0.027 -6.118,-0.836 -16.668,-5.458 l 6.544,-6.026 c 3.083,7.026 7.143,9.724 9.441,10.736 0.974,0.199 2.002,0.37 3.136,0.488 -4.626,-5.55 -6.847,-14.054 -5.445,-16.008 0.549,-0.767 1.451,-1.017 2.603,-0.928 2.503,0.189 6.178,1.995 9.943,3.664 4.005,1.775 10.385,-1.184 9.407,7.523 -0.195,1.717 -0.535,3.283 -1.003,4.659 -0.962,2.824 -2.489,4.825 -4.501,5.676 3.037,-0.072 5.283,-2.353 6.561,-6.038 5.705,-1.016 10.907,-2.208 15.504,-3.867 0.442,-0.178 1.347,-0.541 2.415,-0.98 0.378,-0.153 0.775,-0.321 1.179,-0.49 1.758,-0.744 3.648,-1.581 4.589,-2.141 2.03,-1.208 5.101,-3.372 5.101,-3.372 0,0 7.67,4.419 -0.566,15.217 -0.059,0.073 -0.112,0.133 -0.169,0.202 0.731,-0.467 1.49,-1.17 2.276,-2.202 8.237,-10.801 -0.19,-15.781 -0.19,-15.781 0,0 -0.112,0.103 -0.294,0.271 1.124,-1.316 2.141,-2.758 3.032,-4.361 6.911,-12.376 5.527,-17.077 5.334,-22.588 l -0.002,-0.009 c -0.406,4.403 -0.49,8.226 -1.831,6.647 -1.347,-1.579 -1.349,-4.29 -0.562,-8.521 0.872,0.029 1.764,-1.274 2.024,-3.01 0.215,-1.438 -0.072,-2.708 -0.646,-3.24 1.058,-4.431 1.488,-5.485 2.635,-5.731 0.032,-0.006 0.051,0.011 0.077,0.009 1.233,-4.704 2.665,-7.857 2.665,-7.857 0,0 0.031,-0.043 0.073,-0.127 -0.231,0.135 -0.683,0.064 -1.463,-0.379 -2.77,-1.558 -2.898,-0.839 -5.629,0 -2.731,0.842 -5.74,1.563 -6.13,-0.496 -0.614,-3.216 2.848,-3.183 4.877,-4.382 2.024,-1.21 -1.245,-3.603 -1.245,-3.603 L 12.06,-94.32 c -4.373,-1.905 -10.444,3.504 -10.444,3.504 0,0 0.54,-2.17 4.374,-5.044 3.833,-2.876 11.032,0.997 11.032,0.997 0,0 1.357,-1.013 2.55,-0.544 0.714,0.28 2.151,1.083 2.151,1.083 0,0 -1.996,0.426 -2.39,0.511 -0.396,0.085 1.392,3.823 1.392,3.823 0,0 1.49,0.591 3.518,2.732 1.029,1.088 1.801,2.323 1.955,3.078 0.17,-1.223 -0.196,-4.138 -4.475,-10.144 -8.774,-12.292 -19.639,-6.833 -22.102,-4.891 0,0 2.476,-6.968 2.026,-15.426 21.254,5.187 38.761,22.074 43.621,44.898 C 52.032,-37.983 31.762,-6.762 0,0"
         style="fill:#110f0d;fill-opacity:1;fill-rule:nonzero;stroke:none"
         id="path24"
         inkscape:connector-curvature="0" />
    </g>
    <g
       id="g26"
       transform="matrix(0.10382762,0,0,-0.10382762,158.69699,288.44724)">
      <path
         d="M 0,0 C -1.367,0.292 -2.166,1.97 -1.786,3.753 -1.41,5.528 0.007,6.735 1.372,6.441 2.745,6.151 3.546,4.477 3.167,2.696 2.787,0.917 1.37,-0.289 0,0 m 6.101,7.268 c -1.959,6.852 -11.112,6.076 -12.9,0.946 -2.768,-7.906 -1.634,-13.1 0.037,-15.449 2.884,-4.068 6.998,-2.524 8.542,0.495 1.542,3.019 6.283,7.154 4.321,14.008"
         style="fill:#110f0d;fill-opacity:1;fill-rule:nonzero;stroke:none"
         id="path28"
         inkscape:connector-curvature="0" />
    </g>
    <g
       id="g30"
       transform="matrix(0.10382762,0,0,-0.10382762,154.09309,287.93309)">
      <path
         d="m 0,0 c 5.642,3.016 22.923,6.029 22.923,6.029 -19.778,21.989 -65.497,55.867 -90.796,69.078 0,0 34.803,-33.148 50.386,-54.971 -19.303,-3.849 -29.751,-7.76 -29.751,-7.76 19.278,-14.487 42.242,-35.441 59.518,-53.349 12.959,-13.438 32.175,-36.965 32.175,-36.965 -2.16,5.982 -5.52,15.603 -10.28,25.718 2.046,0.05 2.914,0.231 5.732,0.633 1.146,4.681 1.299,12.826 1.205,16.214 l 1.502,1.234 c 0,0 -5.67,-0.188 -11.535,2.025 -0.474,0.179 -1.416,-0.63 -4.236,-0.065 1.308,-2.998 3.741,-11.986 4.371,-14.339 C 24.064,-33.592 9.07,-11.613 0,0"
         style="fill:#110f0d;fill-opacity:1;fill-rule:nonzero;stroke:none"
         id="path32"
         inkscape:connector-curvature="0" />
    </g>
    <g
       id="g34"
       transform="matrix(0.10382762,0,0,-0.10382762,166.159,288.45333)">
      <path
         d="m 0,0 c 0,-5.275 1.047,-9.239 3.146,-11.891 2.096,-2.648 5.241,-3.975 9.435,-3.975 4.009,0 7.101,1.456 9.276,4.371 2.177,2.913 3.264,7.051 3.264,12.403 0,4.826 -1.127,8.626 -3.382,11.396 -2.256,2.768 -5.336,4.152 -9.237,4.152 -4.011,0 -7.095,-1.425 -9.259,-4.27 C 1.08,9.336 0,5.273 0,0 m -6.728,-37.821 v 59.3 h 6.964 v -5.973 c 1.769,2.532 3.753,4.39 5.955,5.579 2.203,1.188 4.82,1.779 7.855,1.779 5.641,0 10.145,-2.03 13.507,-6.092 3.363,-4.062 5.046,-9.508 5.046,-16.339 0,-6.909 -1.703,-12.41 -5.105,-16.497 -3.402,-4.088 -7.91,-6.132 -13.53,-6.132 -2.98,0 -5.595,0.536 -7.851,1.603 -2.258,1.067 -4.215,2.696 -5.877,4.885 v -22.113 z"
         style="fill:#110f0d;fill-opacity:1;fill-rule:nonzero;stroke:none"
         id="path36"
         inkscape:connector-curvature="0" />
    </g>
    <g
       id="g38"
       transform="matrix(0.10382762,0,0,-0.10382762,172.67204,288.38367)">
      <path
         d="m 0,0 c -1.899,-1.027 -5.159,-1.836 -9.772,-2.415 -1.634,-0.21 -2.863,-0.381 -3.68,-0.514 -2.585,-0.42 -4.443,-1.184 -5.578,-2.295 -1.133,-1.107 -1.699,-2.712 -1.699,-4.826 0,-2.107 0.658,-3.731 1.974,-4.866 1.32,-1.134 3.207,-1.701 5.66,-1.701 3.823,0 6.962,0.965 9.413,2.888 C -1.228,-11.802 0,-9.337 0,-6.331 Z m 0.671,-15.901 c -2.215,-2.325 -4.567,-4.067 -7.064,-5.224 -2.49,-1.162 -5.135,-1.742 -7.93,-1.742 -4.323,0 -7.7,1.13 -10.127,3.386 -2.426,2.252 -3.637,5.369 -3.637,9.352 0,3.854 1.191,6.869 3.578,9.063 2.387,2.183 6.019,3.596 10.901,4.23 1.236,0.131 2.911,0.318 5.021,0.555 3.615,0.37 5.83,0.724 6.648,1.067 0.819,0.319 1.359,0.734 1.624,1.244 0.261,0.518 0.393,1.633 0.393,3.347 0,2.16 -0.792,3.783 -2.376,4.863 -1.582,1.081 -3.969,1.625 -7.157,1.625 -3.298,0 -5.783,-0.66 -7.46,-1.977 -1.673,-1.322 -2.513,-3.273 -2.513,-5.858 h -6.723 v 0.319 c 0,4.272 1.504,7.645 4.51,10.126 3.006,2.481 7.147,3.718 12.423,3.718 5.67,0 9.845,-1.059 12.521,-3.183 2.676,-2.125 4.016,-5.442 4.016,-9.948 v -21.208 c 0,-1.82 0.198,-2.994 0.589,-3.522 0.401,-0.524 1.111,-0.786 2.138,-0.786 0.213,0 0.471,0.016 0.775,0.055 0.301,0.039 0.662,0.1 1.085,0.179 v -5.501 c -0.869,-0.235 -1.629,-0.397 -2.274,-0.493 -0.648,-0.091 -1.257,-0.14 -1.842,-0.14 -2.37,0 -4.15,0.517 -5.337,1.544 -1.188,1.029 -1.782,2.584 -1.782,4.668 z"
         style="fill:#110f0d;fill-opacity:1;fill-rule:nonzero;stroke:none"
         id="path40"
         inkscape:connector-curvature="0" />
    </g>
    <g
       id="g42"
       transform="matrix(0.10382762,0,0,-0.10382762,177.09831,290.62255)">
      <path
         d="m 0,0 v 26.076 c 0,4.167 -0.643,7.046 -1.92,8.642 -1.278,1.595 -3.474,2.395 -6.589,2.395 -3.98,0 -7.072,-1.131 -9.275,-3.386 -2.201,-2.252 -3.304,-5.453 -3.304,-9.595 V 0 h -7.122 v 42.371 h 6.809 V 36.2 c 1.632,2.453 3.572,4.273 5.815,5.461 2.239,1.186 4.837,1.778 7.792,1.778 3.193,0 5.882,-0.479 8.073,-1.443 2.189,-0.961 3.873,-2.407 5.061,-4.331 0.659,-1.029 1.135,-2.235 1.426,-3.622 0.29,-1.383 0.433,-3.58 0.433,-6.584 V 25.441 L 7.199,0 Z"
         style="fill:#110f0d;fill-opacity:1;fill-rule:nonzero;stroke:none"
         id="path44"
         inkscape:connector-curvature="0" />
    </g>
    <g
       id="g46"
       transform="matrix(0.10382762,0,0,-0.10382762,181.68893,288.39199)">
      <path
         d="m 0,0 c 0,5.246 -1.064,9.206 -3.187,11.868 -2.122,2.664 -5.266,3.997 -9.434,3.997 -4.007,0 -7.107,-1.457 -9.295,-4.373 -2.189,-2.913 -3.282,-7.046 -3.282,-12.399 0,-4.83 1.126,-8.626 3.38,-11.399 2.254,-2.764 5.345,-4.151 9.277,-4.151 3.982,0 7.066,1.423 9.258,4.273 C -1.094,-9.337 0,-5.277 0,0 m 6.646,36.793 v -58.276 h -6.883 v 5.343 c -1.821,-2.214 -3.878,-3.877 -6.173,-4.985 -2.294,-1.109 -4.824,-1.662 -7.594,-1.662 -5.647,0 -10.147,2.024 -13.512,6.074 -3.364,4.048 -5.042,9.475 -5.042,16.279 0,6.938 1.687,12.454 5.063,16.557 3.373,4.103 7.872,6.15 13.491,6.15 2.953,0 5.571,-0.545 7.854,-1.64 2.279,-1.097 4.25,-2.737 5.913,-4.925 v 21.085 z"
         style="fill:#110f0d;fill-opacity:1;fill-rule:nonzero;stroke:none"
         id="path48"
         inkscape:connector-curvature="0" />
    </g>
    <g
       id="g50"
       transform="matrix(0.10382762,0,0,-0.10382762,185.76193,288.38367)">
      <path
         d="m 0,0 c -1.898,-1.027 -5.157,-1.836 -9.772,-2.415 -1.634,-0.21 -2.863,-0.381 -3.68,-0.514 -2.585,-0.42 -4.443,-1.184 -5.578,-2.295 -1.131,-1.107 -1.699,-2.712 -1.699,-4.826 0,-2.107 0.658,-3.731 1.976,-4.866 1.32,-1.134 3.207,-1.701 5.66,-1.701 3.822,0 6.962,0.965 9.413,2.888 2.453,1.927 3.68,4.392 3.68,7.398 z m 0.673,-15.901 c -2.215,-2.325 -4.572,-4.067 -7.062,-5.224 -2.493,-1.162 -5.135,-1.742 -7.932,-1.742 -4.325,0 -7.701,1.13 -10.126,3.386 -2.429,2.252 -3.64,5.369 -3.64,9.352 0,3.854 1.191,6.869 3.575,9.063 2.392,2.183 6.024,3.596 10.905,4.23 1.239,0.131 2.912,0.318 5.023,0.555 3.615,0.37 5.826,0.724 6.645,1.067 0.817,0.319 1.361,0.734 1.624,1.244 0.261,0.518 0.395,1.633 0.395,3.347 0,2.16 -0.789,3.783 -2.374,4.863 -1.581,1.081 -3.973,1.625 -7.159,1.625 -3.3,0 -5.783,-0.66 -7.46,-1.977 -1.674,-1.322 -2.511,-3.273 -2.511,-5.858 h -6.725 v 0.319 c 0,4.272 1.503,7.645 4.51,10.126 3.004,2.481 7.147,3.718 12.422,3.718 5.67,0 9.842,-1.059 12.52,-3.183 2.676,-2.125 4.016,-5.442 4.016,-9.948 v -21.208 c 0,-1.82 0.198,-2.994 0.593,-3.522 0.397,-0.524 1.108,-0.786 2.136,-0.786 0.213,0 0.47,0.016 0.771,0.055 0.304,0.039 0.667,0.1 1.091,0.179 v -5.501 c -0.873,-0.235 -1.629,-0.397 -2.278,-0.493 -0.646,-0.091 -1.257,-0.14 -1.837,-0.14 -2.377,0 -4.155,0.517 -5.345,1.544 -1.183,1.029 -1.777,2.584 -1.777,4.668 z"
         style="fill:#110f0d;fill-opacity:1;fill-rule:nonzero;stroke:none"
         id="path52"
         inkscape:connector-curvature="0" />
    </g>
    <g
       id="g54"
       transform="matrix(0.10382762,0,0,-0.10382762,190.79372,288.41642)">
      <path
         d="m 0,0 c 0,4.324 -0.815,7.625 -2.452,9.908 -1.637,2.282 -4.009,3.424 -7.123,3.424 -3.058,0 -5.384,-1.134 -6.982,-3.402 -1.593,-2.271 -2.392,-5.579 -2.392,-9.93 0,-4.064 0.839,-7.199 2.512,-9.416 1.675,-2.217 4.041,-3.325 7.102,-3.325 2.902,0 5.182,1.136 6.842,3.403 C -0.831,-7.071 0,-3.956 0,0 m -30.145,-38.496 v 60.254 h 10.959 v -5.815 c 1.663,2.531 3.513,4.375 5.558,5.537 2.043,1.162 4.449,1.743 7.219,1.743 5.303,0 9.6,-2.092 12.897,-6.271 3.298,-4.182 4.947,-9.675 4.947,-16.477 0,-6.884 -1.649,-12.47 -4.947,-16.754 -3.297,-4.288 -7.541,-6.43 -12.738,-6.43 -2.742,0 -5.188,0.581 -7.338,1.741 -2.151,1.16 -3.935,2.849 -5.361,5.064 v -22.592 z"
         style="fill:#110f0d;fill-opacity:1;fill-rule:nonzero;stroke:none"
         id="path56"
         inkscape:connector-curvature="0" />
    </g>
    <g
       id="g58"
       transform="matrix(0.10382762,0,0,-0.10382762,192.93872,288.38367)">
      <path
         d="m 0,0 c 0,-4.271 0.879,-7.57 2.631,-9.891 1.753,-2.322 4.253,-3.481 7.497,-3.481 3.188,0 5.663,1.159 7.417,3.481 1.754,2.321 2.633,5.62 2.633,9.891 0,4.246 -0.869,7.524 -2.612,9.832 -1.738,2.306 -4.221,3.461 -7.438,3.461 -3.244,0 -5.744,-1.155 -7.497,-3.461 C 0.879,7.524 0,4.246 0,0 m -11.669,0 c 0,7.146 1.936,12.764 5.815,16.853 3.874,4.087 9.203,6.133 15.982,6.133 6.753,0 12.074,-2.046 15.965,-6.133 3.89,-4.089 5.833,-9.707 5.833,-16.853 0,-7.174 -1.943,-12.804 -5.833,-16.893 -3.891,-4.087 -9.212,-6.131 -15.965,-6.131 -6.779,0 -12.108,2.044 -15.982,6.131 -3.879,4.089 -5.815,9.719 -5.815,16.893"
         style="fill:#110f0d;fill-opacity:1;fill-rule:nonzero;stroke:none"
         id="path60"
         inkscape:connector-curvature="0" />
    </g>
    <g
       id="g62"
       transform="matrix(0.10382762,0,0,-0.10382762,196.85852,290.62255)">
      <path
         d="m 0,0 -12.184,43.006 h 11.665 l 7.046,-29.789 5.936,29.789 h 11.746 l 6.252,-29.789 7.045,29.789 H 48.662 L 36.595,0 H 25.079 L 18.2,30.781 11.553,0 Z"
         style="fill:#110f0d;fill-opacity:1;fill-rule:nonzero;stroke:none"
         id="path64"
         inkscape:connector-curvature="0" />
    </g>
    <g
       id="g66"
       transform="matrix(0.10382762,0,0,-0.10382762,202.66312,287.9197)">
      <path
         d="M 0,0 H 16.935 C 16.826,2.904 16.055,5.111 14.621,6.628 13.18,8.144 11.119,8.903 8.426,8.903 5.922,8.903 3.951,8.139 2.516,6.607 1.076,5.08 0.238,2.875 0,0 m 16.776,-12.977 h 11.471 c -1.162,-4.537 -3.5,-8.086 -7.021,-10.661 -3.523,-2.568 -7.814,-3.855 -12.875,-3.855 -6.226,0 -11.16,2.091 -14.799,6.27 -3.638,4.181 -5.458,9.843 -5.458,16.992 0,7.042 1.792,12.595 5.38,16.656 3.587,4.062 8.492,6.093 14.716,6.093 6.593,0 11.686,-1.999 15.271,-5.993 3.588,-3.997 5.379,-9.69 5.379,-17.074 0,-0.815 -0.006,-1.43 -0.018,-1.837 -0.013,-0.412 -0.047,-0.799 -0.1,-1.165 L 0,-7.551 c 0.159,-3.38 0.982,-5.924 2.473,-7.638 1.49,-1.714 3.635,-2.573 6.43,-2.573 1.977,0 3.601,0.389 4.866,1.169 1.266,0.777 2.266,1.983 3.007,3.616"
         style="fill:#110f0d;fill-opacity:1;fill-rule:nonzero;stroke:none"
         id="path68"
         inkscape:connector-curvature="0" />
    </g>
    <g
       id="g70"
       transform="matrix(0.10382762,0,0,-0.10382762,205.60498,290.62255)">
      <path
         d="m 0,0 v 43.006 h 10.682 v -7.36 c 1.504,2.956 3.256,5.125 5.26,6.509 2.007,1.387 4.392,2.078 7.163,2.078 0.448,0 0.797,-0.004 1.046,-0.02 0.253,-0.015 0.458,-0.033 0.616,-0.06 l 0.038,-11.671 h -3.837 c -3.14,0 -5.499,-0.819 -7.082,-2.453 -1.583,-1.636 -2.374,-4.061 -2.374,-7.276 L 11.512,0 Z"
         style="fill:#110f0d;fill-opacity:1;fill-rule:nonzero;stroke:none"
         id="path72"
         inkscape:connector-curvature="0" />
    </g>
  </g>
</svg>
