<?xml version="1.0" encoding="utf-8" standalone="no"?>
<!DOCTYPE svg PUBLIC "-//W3C//DTD SVG 1.1//EN"
  "http://www.w3.org/Graphics/SVG/1.1/DTD/svg11.dtd">
<!-- Created with matplotlib (https://matplotlib.org/) -->
<svg height="288pt" version="1.1" viewBox="0 0 432 288" width="432pt" xmlns="http://www.w3.org/2000/svg" xmlns:xlink="http://www.w3.org/1999/xlink">
 <defs>
  <style type="text/css">
*{stroke-linecap:butt;stroke-linejoin:round;}
  </style>
 </defs>
 <g id="figure_1">
  <g id="patch_1">
   <path d="M 0 288 
L 432 288 
L 432 0 
L 0 0 
z
" style="fill:#ffffff;"/>
  </g>
  <g id="axes_1">
   <g id="patch_2">
    <path d="M 54 252 
L 388.8 252 
L 388.8 34.56 
L 54 34.56 
z
" style="fill:#ffffff;"/>
   </g>
   <g id="matplotlib.axis_1">
    <g id="xtick_1">
     <g id="line2d_1">
      <defs>
       <path d="M 0 0 
L 0 3.5 
" id="m3e7515e3dd" style="stroke:#000000;stroke-width:0.8;"/>
      </defs>
      <g>
       <use style="stroke:#000000;stroke-width:0.8;" x="69.218182" xlink:href="#m3e7515e3dd" y="252"/>
      </g>
     </g>
    </g>
    <g id="xtick_2">
     <g id="line2d_2">
      <g>
       <use style="stroke:#000000;stroke-width:0.8;" x="136.406623" xlink:href="#m3e7515e3dd" y="252"/>
      </g>
     </g>
    </g>
    <g id="xtick_3">
     <g id="line2d_3">
      <g>
       <use style="stroke:#000000;stroke-width:0.8;" x="203.595063" xlink:href="#m3e7515e3dd" y="252"/>
      </g>
     </g>
    </g>
    <g id="xtick_4">
     <g id="line2d_4">
      <g>
       <use style="stroke:#000000;stroke-width:0.8;" x="270.783504" xlink:href="#m3e7515e3dd" y="252"/>
      </g>
     </g>
    </g>
    <g id="xtick_5">
     <g id="line2d_5">
      <g>
       <use style="stroke:#000000;stroke-width:0.8;" x="337.971945" xlink:href="#m3e7515e3dd" y="252"/>
      </g>
     </g>
    </g>
    <g id="text_1">
     <!-- Bus -->
     <defs>
      <path d="M 19.671875 34.8125 
L 19.671875 8.109375 
L 35.5 8.109375 
Q 43.453125 8.109375 47.28125 11.40625 
Q 51.125 14.703125 51.125 21.484375 
Q 51.125 28.328125 47.28125 31.5625 
Q 43.453125 34.8125 35.5 34.8125 
z
M 19.671875 64.796875 
L 19.671875 42.828125 
L 34.28125 42.828125 
Q 41.5 42.828125 45.03125 45.53125 
Q 48.578125 48.25 48.578125 53.8125 
Q 48.578125 59.328125 45.03125 62.0625 
Q 41.5 64.796875 34.28125 64.796875 
z
M 9.8125 72.90625 
L 35.015625 72.90625 
Q 46.296875 72.90625 52.390625 68.21875 
Q 58.5 63.53125 58.5 54.890625 
Q 58.5 48.1875 55.375 44.234375 
Q 52.25 40.28125 46.1875 39.3125 
Q 53.46875 37.75 57.5 32.78125 
Q 61.53125 27.828125 61.53125 20.40625 
Q 61.53125 10.640625 54.890625 5.3125 
Q 48.25 0 35.984375 0 
L 9.8125 0 
z
" id="DejaVuSans-66"/>
      <path d="M 8.5 21.578125 
L 8.5 54.6875 
L 17.484375 54.6875 
L 17.484375 21.921875 
Q 17.484375 14.15625 20.5 10.265625 
Q 23.53125 6.390625 29.59375 6.390625 
Q 36.859375 6.390625 41.078125 11.03125 
Q 45.3125 15.671875 45.3125 23.6875 
L 45.3125 54.6875 
L 54.296875 54.6875 
L 54.296875 0 
L 45.3125 0 
L 45.3125 8.40625 
Q 42.046875 3.421875 37.71875 1 
Q 33.40625 -1.421875 27.6875 -1.421875 
Q 18.265625 -1.421875 13.375 4.4375 
Q 8.5 10.296875 8.5 21.578125 
z
M 31.109375 56 
z
" id="DejaVuSans-117"/>
      <path d="M 44.28125 53.078125 
L 44.28125 44.578125 
Q 40.484375 46.53125 36.375 47.5 
Q 32.28125 48.484375 27.875 48.484375 
Q 21.1875 48.484375 17.84375 46.4375 
Q 14.5 44.390625 14.5 40.28125 
Q 14.5 37.15625 16.890625 35.375 
Q 19.28125 33.59375 26.515625 31.984375 
L 29.59375 31.296875 
Q 39.15625 29.25 43.1875 25.515625 
Q 47.21875 21.78125 47.21875 15.09375 
Q 47.21875 7.46875 41.1875 3.015625 
Q 35.15625 -1.421875 24.609375 -1.421875 
Q 20.21875 -1.421875 15.453125 -0.5625 
Q 10.6875 0.296875 5.421875 2 
L 5.421875 11.28125 
Q 10.40625 8.6875 15.234375 7.390625 
Q 20.0625 6.109375 24.8125 6.109375 
Q 31.15625 6.109375 34.5625 8.28125 
Q 37.984375 10.453125 37.984375 14.40625 
Q 37.984375 18.0625 35.515625 20.015625 
Q 33.0625 21.96875 24.703125 23.78125 
L 21.578125 24.515625 
Q 13.234375 26.265625 9.515625 29.90625 
Q 5.8125 33.546875 5.8125 39.890625 
Q 5.8125 47.609375 11.28125 51.796875 
Q 16.75 56 26.8125 56 
Q 31.78125 56 36.171875 55.265625 
Q 40.578125 54.546875 44.28125 53.078125 
z
" id="DejaVuSans-115"/>
     </defs>
     <g transform="translate(212.196094 270.598437)scale(0.1 -0.1)">
      <use xlink:href="#DejaVuSans-66"/>
      <use x="68.603516" xlink:href="#DejaVuSans-117"/>
      <use x="131.982422" xlink:href="#DejaVuSans-115"/>
     </g>
    </g>
   </g>
   <g id="matplotlib.axis_2">
    <g id="ytick_1">
     <g id="line2d_6">
      <defs>
       <path d="M 0 0 
L -3.5 0 
" id="m0f9440379c" style="stroke:#000000;stroke-width:0.8;"/>
      </defs>
      <g>
       <use style="stroke:#000000;stroke-width:0.8;" x="54" xlink:href="#m0f9440379c" y="242.925074"/>
      </g>
     </g>
     <g id="text_2">
      <!-- 0.000 -->
      <defs>
       <path d="M 31.78125 66.40625 
Q 24.171875 66.40625 20.328125 58.90625 
Q 16.5 51.421875 16.5 36.375 
Q 16.5 21.390625 20.328125 13.890625 
Q 24.171875 6.390625 31.78125 6.390625 
Q 39.453125 6.390625 43.28125 13.890625 
Q 47.125 21.390625 47.125 36.375 
Q 47.125 51.421875 43.28125 58.90625 
Q 39.453125 66.40625 31.78125 66.40625 
z
M 31.78125 74.21875 
Q 44.046875 74.21875 50.515625 64.515625 
Q 56.984375 54.828125 56.984375 36.375 
Q 56.984375 17.96875 50.515625 8.265625 
Q 44.046875 -1.421875 31.78125 -1.421875 
Q 19.53125 -1.421875 13.0625 8.265625 
Q 6.59375 17.96875 6.59375 36.375 
Q 6.59375 54.828125 13.0625 64.515625 
Q 19.53125 74.21875 31.78125 74.21875 
z
" id="DejaVuSans-48"/>
       <path d="M 10.6875 12.40625 
L 21 12.40625 
L 21 0 
L 10.6875 0 
z
" id="DejaVuSans-46"/>
      </defs>
      <g transform="translate(18.371875 246.724292)scale(0.1 -0.1)">
       <use xlink:href="#DejaVuSans-48"/>
       <use x="63.623047" xlink:href="#DejaVuSans-46"/>
       <use x="95.410156" xlink:href="#DejaVuSans-48"/>
       <use x="159.033203" xlink:href="#DejaVuSans-48"/>
       <use x="222.65625" xlink:href="#DejaVuSans-48"/>
      </g>
     </g>
    </g>
    <g id="ytick_2">
     <g id="line2d_7">
      <g>
       <use style="stroke:#000000;stroke-width:0.8;" x="54" xlink:href="#m0f9440379c" y="202.422519"/>
      </g>
     </g>
     <g id="text_3">
      <!-- 0.001 -->
      <defs>
       <path d="M 12.40625 8.296875 
L 28.515625 8.296875 
L 28.515625 63.921875 
L 10.984375 60.40625 
L 10.984375 69.390625 
L 28.421875 72.90625 
L 38.28125 72.90625 
L 38.28125 8.296875 
L 54.390625 8.296875 
L 54.390625 0 
L 12.40625 0 
z
" id="DejaVuSans-49"/>
      </defs>
      <g transform="translate(18.371875 206.221738)scale(0.1 -0.1)">
       <use xlink:href="#DejaVuSans-48"/>
       <use x="63.623047" xlink:href="#DejaVuSans-46"/>
       <use x="95.410156" xlink:href="#DejaVuSans-48"/>
       <use x="159.033203" xlink:href="#DejaVuSans-48"/>
       <use x="222.65625" xlink:href="#DejaVuSans-49"/>
      </g>
     </g>
    </g>
    <g id="ytick_3">
     <g id="line2d_8">
      <g>
       <use style="stroke:#000000;stroke-width:0.8;" x="54" xlink:href="#m0f9440379c" y="161.919964"/>
      </g>
     </g>
     <g id="text_4">
      <!-- 0.002 -->
      <defs>
       <path d="M 19.1875 8.296875 
L 53.609375 8.296875 
L 53.609375 0 
L 7.328125 0 
L 7.328125 8.296875 
Q 12.9375 14.109375 22.625 23.890625 
Q 32.328125 33.6875 34.8125 36.53125 
Q 39.546875 41.84375 41.421875 45.53125 
Q 43.3125 49.21875 43.3125 52.78125 
Q 43.3125 58.59375 39.234375 62.25 
Q 35.15625 65.921875 28.609375 65.921875 
Q 23.96875 65.921875 18.8125 64.3125 
Q 13.671875 62.703125 7.8125 59.421875 
L 7.8125 69.390625 
Q 13.765625 71.78125 18.9375 73 
Q 24.125 74.21875 28.421875 74.21875 
Q 39.75 74.21875 46.484375 68.546875 
Q 53.21875 62.890625 53.21875 53.421875 
Q 53.21875 48.921875 51.53125 44.890625 
Q 49.859375 40.875 45.40625 35.40625 
Q 44.1875 33.984375 37.640625 27.21875 
Q 31.109375 20.453125 19.1875 8.296875 
z
" id="DejaVuSans-50"/>
      </defs>
      <g transform="translate(18.371875 165.719183)scale(0.1 -0.1)">
       <use xlink:href="#DejaVuSans-48"/>
       <use x="63.623047" xlink:href="#DejaVuSans-46"/>
       <use x="95.410156" xlink:href="#DejaVuSans-48"/>
       <use x="159.033203" xlink:href="#DejaVuSans-48"/>
       <use x="222.65625" xlink:href="#DejaVuSans-50"/>
      </g>
     </g>
    </g>
    <g id="ytick_4">
     <g id="line2d_9">
      <g>
       <use style="stroke:#000000;stroke-width:0.8;" x="54" xlink:href="#m0f9440379c" y="121.41741"/>
      </g>
     </g>
     <g id="text_5">
      <!-- 0.003 -->
      <defs>
       <path d="M 40.578125 39.3125 
Q 47.65625 37.796875 51.625 33 
Q 55.609375 28.21875 55.609375 21.1875 
Q 55.609375 10.40625 48.1875 4.484375 
Q 40.765625 -1.421875 27.09375 -1.421875 
Q 22.515625 -1.421875 17.65625 -0.515625 
Q 12.796875 0.390625 7.625 2.203125 
L 7.625 11.71875 
Q 11.71875 9.328125 16.59375 8.109375 
Q 21.484375 6.890625 26.8125 6.890625 
Q 36.078125 6.890625 40.9375 10.546875 
Q 45.796875 14.203125 45.796875 21.1875 
Q 45.796875 27.640625 41.28125 31.265625 
Q 36.765625 34.90625 28.71875 34.90625 
L 20.21875 34.90625 
L 20.21875 43.015625 
L 29.109375 43.015625 
Q 36.375 43.015625 40.234375 45.921875 
Q 44.09375 48.828125 44.09375 54.296875 
Q 44.09375 59.90625 40.109375 62.90625 
Q 36.140625 65.921875 28.71875 65.921875 
Q 24.65625 65.921875 20.015625 65.03125 
Q 15.375 64.15625 9.8125 62.3125 
L 9.8125 71.09375 
Q 15.4375 72.65625 20.34375 73.4375 
Q 25.25 74.21875 29.59375 74.21875 
Q 40.828125 74.21875 47.359375 69.109375 
Q 53.90625 64.015625 53.90625 55.328125 
Q 53.90625 49.265625 50.4375 45.09375 
Q 46.96875 40.921875 40.578125 39.3125 
z
" id="DejaVuSans-51"/>
      </defs>
      <g transform="translate(18.371875 125.216629)scale(0.1 -0.1)">
       <use xlink:href="#DejaVuSans-48"/>
       <use x="63.623047" xlink:href="#DejaVuSans-46"/>
       <use x="95.410156" xlink:href="#DejaVuSans-48"/>
       <use x="159.033203" xlink:href="#DejaVuSans-48"/>
       <use x="222.65625" xlink:href="#DejaVuSans-51"/>
      </g>
     </g>
    </g>
    <g id="ytick_5">
     <g id="line2d_10">
      <g>
       <use style="stroke:#000000;stroke-width:0.8;" x="54" xlink:href="#m0f9440379c" y="80.914855"/>
      </g>
     </g>
     <g id="text_6">
      <!-- 0.004 -->
      <defs>
       <path d="M 37.796875 64.3125 
L 12.890625 25.390625 
L 37.796875 25.390625 
z
M 35.203125 72.90625 
L 47.609375 72.90625 
L 47.609375 25.390625 
L 58.015625 25.390625 
L 58.015625 17.1875 
L 47.609375 17.1875 
L 47.609375 0 
L 37.796875 0 
L 37.796875 17.1875 
L 4.890625 17.1875 
L 4.890625 26.703125 
z
" id="DejaVuSans-52"/>
      </defs>
      <g transform="translate(18.371875 84.714074)scale(0.1 -0.1)">
       <use xlink:href="#DejaVuSans-48"/>
       <use x="63.623047" xlink:href="#DejaVuSans-46"/>
       <use x="95.410156" xlink:href="#DejaVuSans-48"/>
       <use x="159.033203" xlink:href="#DejaVuSans-48"/>
       <use x="222.65625" xlink:href="#DejaVuSans-52"/>
      </g>
     </g>
    </g>
    <g id="ytick_6">
     <g id="line2d_11">
      <g>
       <use style="stroke:#000000;stroke-width:0.8;" x="54" xlink:href="#m0f9440379c" y="40.412301"/>
      </g>
     </g>
     <g id="text_7">
      <!-- 0.005 -->
      <defs>
       <path d="M 10.796875 72.90625 
L 49.515625 72.90625 
L 49.515625 64.59375 
L 19.828125 64.59375 
L 19.828125 46.734375 
Q 21.96875 47.46875 24.109375 47.828125 
Q 26.265625 48.1875 28.421875 48.1875 
Q 40.625 48.1875 47.75 41.5 
Q 54.890625 34.8125 54.890625 23.390625 
Q 54.890625 11.625 47.5625 5.09375 
Q 40.234375 -1.421875 26.90625 -1.421875 
Q 22.3125 -1.421875 17.546875 -0.640625 
Q 12.796875 0.140625 7.71875 1.703125 
L 7.71875 11.625 
Q 12.109375 9.234375 16.796875 8.0625 
Q 21.484375 6.890625 26.703125 6.890625 
Q 35.15625 6.890625 40.078125 11.328125 
Q 45.015625 15.765625 45.015625 23.390625 
Q 45.015625 31 40.078125 35.4375 
Q 35.15625 39.890625 26.703125 39.890625 
Q 22.75 39.890625 18.8125 39.015625 
Q 14.890625 38.140625 10.796875 36.28125 
z
" id="DejaVuSans-53"/>
      </defs>
      <g transform="translate(18.371875 44.211519)scale(0.1 -0.1)">
       <use xlink:href="#DejaVuSans-48"/>
       <use x="63.623047" xlink:href="#DejaVuSans-46"/>
       <use x="95.410156" xlink:href="#DejaVuSans-48"/>
       <use x="159.033203" xlink:href="#DejaVuSans-48"/>
       <use x="222.65625" xlink:href="#DejaVuSans-53"/>
      </g>
     </g>
    </g>
   </g>
   <g id="line2d_12">
    <path clip-path="url(#p28f5063582)" d="M 69.218182 203.420316 
L 69.554124 238.725474 
L 69.890066 237.832462 
L 71.233835 235.738795 
L 71.569777 222.765923 
L 72.241662 219.044687 
L 72.577604 217.56138 
L 72.913546 220.504848 
L 73.249488 219.465878 
L 73.58543 218.827021 
L 73.921373 217.236604 
L 74.257315 212.455997 
L 74.593257 212.455997 
L 74.929199 208.992414 
L 75.265141 212.455997 
L 75.601084 207.918302 
L 75.937026 212.455997 
L 76.272968 206.712238 
L 76.60891 212.455997 
L 76.944852 208.798864 
L 77.280795 212.455997 
L 77.616737 205.226823 
L 77.952679 212.455997 
L 78.288621 206.095909 
L 78.624564 192.525206 
L 78.960506 212.455997 
L 79.296448 205.364845 
L 79.63239 205.954452 
L 79.968332 185.655994 
L 80.304275 212.455997 
L 80.640217 207.740915 
L 80.976159 205.949662 
L 81.312101 185.670845 
L 81.648043 176.531118 
L 81.983986 212.455997 
L 82.319928 205.942774 
L 82.65587 185.671779 
L 82.991812 185.671315 
L 83.327754 169.557416 
L 83.663697 176.531118 
L 83.999639 212.455997 
L 84.335581 205.933941 
L 84.671523 185.672199 
L 85.007465 185.672444 
L 85.343408 160.157207 
L 85.67935 176.531118 
L 86.015292 212.455997 
L 86.351234 205.912428 
L 87.023119 161.685024 
L 87.359061 160.157207 
L 87.695003 176.531118 
L 88.030945 212.455997 
L 88.366887 205.89401 
L 88.70283 185.67307 
L 89.038772 158.362116 
L 89.374714 160.157207 
L 89.710656 176.531118 
L 90.046598 212.455997 
L 90.382541 205.805717 
L 90.718483 185.673324 
L 91.054425 156.12024 
L 91.390367 156.636404 
L 91.726309 160.157207 
L 92.062252 176.531118 
L 92.398194 212.455997 
L 92.734136 205.493633 
L 93.070078 185.673824 
L 93.40602 145.847556 
L 93.741963 155.903876 
L 94.077905 156.525417 
L 94.413847 160.157207 
L 94.749789 176.531118 
L 95.085731 212.455997 
L 95.421674 185.676353 
L 95.757616 144.725753 
L 96.4295 176.531118 
L 96.765443 212.455997 
L 97.101385 185.685883 
L 97.437327 142.713536 
L 98.109211 176.531118 
L 98.445154 212.455997 
L 98.781096 138.633513 
L 99.45298 176.531118 
L 99.788922 212.455997 
L 100.124865 138.83665 
L 100.796749 212.455997 
L 101.132691 136.600798 
L 101.804576 212.455997 
L 102.140518 139.174536 
L 102.812402 212.455997 
L 103.148344 137.136003 
L 103.820229 212.455997 
L 104.156171 137.178114 
L 104.492113 135.565593 
L 104.828055 176.531118 
L 105.163998 137.229062 
L 105.49994 134.675122 
L 105.835882 176.531118 
L 106.171824 137.288114 
L 106.507766 123.85755 
L 106.843709 176.531118 
L 107.179651 137.378151 
L 107.515593 124.391414 
L 107.851535 176.531118 
L 108.187477 137.493906 
L 108.52342 124.514737 
L 108.859362 120.821536 
L 109.195304 176.531118 
L 109.531246 137.577008 
L 109.867188 124.514737 
L 110.203131 124.574783 
L 110.539073 115.980925 
L 110.875015 176.531118 
L 111.210957 137.694429 
L 111.546899 124.514737 
L 111.882842 124.85686 
L 112.218784 114.620867 
L 112.554726 176.531118 
L 112.890668 137.82147 
L 113.22661 124.514737 
L 113.562553 124.22505 
L 113.898495 121.775887 
L 114.234437 111.80631 
L 114.570379 176.531118 
L 114.906321 137.94128 
L 115.242264 124.514737 
L 115.578206 124.170639 
L 115.914148 122.49701 
L 116.25009 112.679608 
L 116.586033 176.531118 
L 116.921975 138.138267 
L 117.257917 124.514737 
L 117.593859 124.117251 
L 117.929801 122.97994 
L 118.265744 113.742111 
L 118.601686 176.531118 
L 118.937628 135.024642 
L 119.27357 124.514737 
L 119.609512 124.074142 
L 119.945455 123.033636 
L 120.281397 123.122447 
L 120.617339 110.25612 
L 120.953281 176.531118 
L 121.289223 135.228682 
L 121.625166 124.514737 
L 121.961108 124.00944 
L 122.29705 123.176043 
L 122.632992 123.131121 
L 122.968934 109.253073 
L 123.304877 176.531118 
L 123.640819 135.232598 
L 123.976761 135.992719 
L 124.312703 124.514737 
L 124.984588 123.225509 
L 125.32053 123.139045 
L 125.656472 111.655357 
L 125.992414 176.531118 
L 126.328356 135.233338 
L 126.664299 137.007059 
L 127.000241 124.514737 
L 127.672125 123.225509 
L 128.34401 123.142337 
L 128.679952 108.437149 
L 129.015894 135.234864 
L 129.351836 137.078058 
L 129.687778 137.04882 
L 130.023721 124.514737 
L 130.695605 123.225509 
L 131.367489 123.149432 
L 131.703432 110.098526 
L 132.039374 137.357465 
L 132.375316 137.221662 
L 132.711258 124.514737 
L 133.383143 123.225509 
L 134.390969 123.167504 
L 134.726911 107.950876 
L 135.062854 137.856353 
L 135.398796 137.252349 
L 135.734738 137.22345 
L 136.07068 124.514737 
L 136.406623 123.671199 
L 136.742565 123.225509 
L 137.750391 123.178107 
L 138.086334 109.333222 
L 138.422276 137.521762 
L 138.758218 138.016027 
L 139.09416 137.329935 
L 139.430102 137.223703 
L 139.766045 124.514737 
L 140.101987 123.565734 
L 140.437929 123.225509 
L 141.109813 123.185533 
L 141.445756 108.460536 
L 141.781698 136.426599 
L 142.11764 138.304215 
L 142.453582 137.223906 
L 142.789524 124.514737 
L 143.125467 123.277723 
L 144.133293 123.199818 
L 144.469235 104.168767 
L 144.805178 135.954492 
L 145.14112 134.35686 
L 145.477062 137.224069 
L 145.813004 123.253166 
L 146.820831 123.206928 
L 147.156773 105.299695 
L 147.492715 134.562527 
L 147.828657 134.35686 
L 148.1646 137.224318 
L 148.500542 123.241823 
L 149.508368 123.211977 
L 149.844311 103.382007 
L 150.180253 134.592394 
L 150.516195 137.22461 
L 150.852137 123.229691 
L 151.859964 123.269731 
L 152.195906 103.305232 
L 152.531848 134.682495 
L 152.86779 134.593972 
L 153.203733 137.225057 
L 153.539675 123.218098 
L 154.547502 123.286762 
L 154.883444 103.143263 
L 155.219386 104.636339 
L 155.555328 137.226695 
L 155.89127 123.205183 
L 156.899097 123.290572 
L 157.235039 103.120874 
L 157.570981 102.541296 
L 157.906924 137.234669 
L 158.242866 123.178525 
L 159.586635 123.292264 
L 159.922577 103.11058 
L 160.258519 102.551904 
L 160.594461 99.079358 
L 160.930403 123.150761 
L 161.93823 123.383651 
L 162.274172 123.294248 
L 162.610114 103.098355 
L 162.946057 102.552675 
L 163.281999 98.681948 
L 163.617941 123.045182 
L 163.953883 123.225509 
L 164.625768 123.296041 
L 164.96171 103.079492 
L 165.297652 102.55331 
L 165.633594 95.227901 
L 165.969536 95.279637 
L 166.305479 122.484651 
L 166.641421 123.225509 
L 167.649247 123.297856 
L 167.98519 103.062684 
L 168.321132 102.554213 
L 168.993016 93.945969 
L 169.328958 123.260998 
L 170.000843 123.299808 
L 170.336785 103.049616 
L 170.672727 102.558268 
L 171.008669 95.669681 
L 171.344612 94.545861 
L 171.680554 123.262907 
L 172.352438 123.311129 
L 172.68838 103.03335 
L 173.024323 102.559048 
L 173.360265 93.074711 
L 173.696207 94.745211 
L 174.032149 123.266571 
L 174.704034 123.359014 
L 175.039976 103.016526 
L 175.375918 102.559626 
L 175.71186 97.07109 
L 176.047803 94.577457 
L 176.383745 90.799006 
L 176.719687 123.277358 
L 177.055629 123.257705 
L 177.391571 102.996682 
L 177.727514 98.510036 
L 178.063456 96.793609 
L 178.399398 92.225506 
L 178.73534 90.888079 
L 179.071282 123.258292 
L 179.407225 102.985373 
L 179.743167 98.510697 
L 180.079109 96.696735 
L 180.415051 92.245949 
L 180.750993 92.884309 
L 181.086936 90.989386 
L 181.422878 102.934284 
L 181.75882 98.516498 
L 182.094762 96.485895 
L 182.430704 92.254045 
L 182.766647 92.894319 
L 183.102589 88.917557 
L 183.438531 91.069199 
L 183.774473 102.914401 
L 184.110415 98.528358 
L 184.446358 96.40195 
L 184.7823 96.444074 
L 185.454184 90.149856 
L 185.790126 91.136116 
L 186.126069 102.907494 
L 186.462011 96.276342 
L 186.797953 96.438251 
L 187.469837 89.368972 
L 187.80578 91.196497 
L 188.141722 102.90229 
L 188.477664 96.431927 
L 188.813606 92.900014 
L 189.149548 91.365247 
L 189.485491 91.246471 
L 189.821433 102.898483 
L 190.157375 96.426387 
L 190.493317 92.900151 
L 190.829259 91.590644 
L 191.165202 91.304444 
L 191.501144 102.89655 
L 191.837086 96.420501 
L 192.50897 89.767425 
L 192.844913 91.368162 
L 193.180855 102.893707 
L 193.516797 96.412101 
L 193.852739 92.900455 
L 194.188682 87.962526 
L 194.524624 91.715545 
L 194.860566 102.888943 
L 195.196508 96.401889 
L 195.868393 89.493381 
L 196.204335 90.263033 
L 196.540277 91.716121 
L 196.876219 102.867689 
L 197.212161 96.33859 
L 197.884046 88.789611 
L 198.219988 88.702352 
L 198.55593 91.719657 
L 198.891872 91.716121 
L 199.227815 102.789563 
L 199.563757 96.121999 
L 199.899699 92.900996 
L 200.235641 87.173511 
L 200.571583 84.76296 
L 200.907526 91.720949 
L 201.243468 91.716121 
L 201.57941 92.901249 
L 201.915352 87.052245 
L 202.587237 82.705111 
L 202.923179 91.721081 
L 203.259121 91.716121 
L 203.595063 92.902131 
L 204.266948 84.767364 
L 204.60289 83.666697 
L 204.938832 91.721173 
L 205.274774 91.716121 
L 205.610716 92.907524 
L 205.946659 87.227566 
L 206.618543 82.518833 
L 206.954485 83.666697 
L 207.290427 91.721268 
L 207.62637 91.716121 
L 207.962312 89.573326 
L 208.634196 78.55576 
L 208.970138 83.666697 
L 209.306081 91.721667 
L 209.642023 91.716121 
L 209.977965 86.702636 
L 210.313907 84.76795 
L 210.649849 75.371864 
L 211.321734 91.721764 
L 211.657676 91.716121 
L 211.993618 87.262124 
L 212.329561 86.702636 
L 212.665503 84.768723 
L 213.001445 75.593326 
L 213.673329 91.721858 
L 214.009272 91.716121 
L 214.345214 84.618171 
L 214.681156 87.262124 
L 215.017098 84.769583 
L 215.35304 75.709352 
L 216.024925 91.72195 
L 216.360867 91.716121 
L 216.696809 86.024855 
L 217.032751 84.618171 
L 217.368694 84.770068 
L 217.704636 75.805539 
L 218.37652 91.722056 
L 218.712462 91.716121 
L 219.048405 82.798988 
L 219.384347 86.024855 
L 219.720289 84.770522 
L 220.056231 75.883494 
L 220.728116 91.722423 
L 221.064058 91.716121 
L 221.4 82.911494 
L 221.735942 82.798988 
L 222.071884 84.770956 
L 222.407827 76.002658 
L 223.079711 91.724208 
L 223.415653 91.716121 
L 223.751595 79.865552 
L 224.087538 82.911494 
L 224.42348 82.741009 
L 224.759422 84.771668 
L 225.095364 76.110085 
L 225.767249 91.716121 
L 226.103191 80.984145 
L 226.439133 79.865552 
L 226.775075 79.865552 
L 227.44696 84.772164 
L 227.782902 76.212332 
L 228.454786 91.716121 
L 228.790728 78.702808 
L 229.462613 82.702536 
L 229.798555 84.772513 
L 230.134497 76.327523 
L 230.806382 91.716121 
L 231.142324 77.288177 
L 231.814208 80.395732 
L 232.486093 84.77268 
L 232.822035 76.449205 
L 233.493919 91.716121 
L 233.829862 75.128928 
L 234.165804 77.288177 
L 234.501746 80.37125 
L 234.837688 79.634063 
L 235.509573 84.772785 
L 235.845515 72.665017 
L 236.517399 91.716121 
L 236.853341 73.395684 
L 237.189284 75.128928 
L 237.525226 80.360903 
L 237.861168 79.146682 
L 238.19711 82.658171 
L 238.533052 84.772856 
L 238.868995 66.553587 
L 239.204937 83.666697 
L 239.540879 91.716121 
L 239.876821 77.012763 
L 240.212763 73.395684 
L 240.548706 80.354822 
L 241.22059 84.772956 
L 241.556532 66.996913 
L 241.892474 66.047616 
L 242.228417 83.666697 
L 242.564359 74.795049 
L 242.900301 77.012763 
L 243.236243 77.082872 
L 243.908128 82.632855 
L 244.24407 84.773032 
L 244.580012 67.387877 
L 244.915954 69.824919 
L 245.251896 83.666697 
L 245.587839 72.093875 
L 247.26755 84.773574 
L 247.603492 69.784156 
L 247.939434 83.666697 
L 248.275376 73.930807 
L 248.611318 72.093875 
L 248.947261 78.333621 
L 249.955087 84.773866 
L 250.29103 84.778274 
L 250.626972 69.75304 
L 250.962914 83.666697 
L 251.298856 71.180577 
L 252.978567 84.774189 
L 253.314509 69.723938 
L 253.650452 83.666697 
L 253.986394 70.766373 
L 254.322336 71.180577 
L 254.658278 76.516206 
L 254.99422 77.53323 
L 255.666105 82.377637 
L 256.002047 84.775064 
L 256.337989 69.692905 
L 256.673931 83.666697 
L 257.009874 69.349412 
L 257.345816 70.766373 
L 257.681758 76.321776 
L 258.0177 77.692185 
L 258.689585 82.369362 
L 259.025527 69.665444 
L 259.361469 83.666697 
L 259.697411 69.832965 
L 260.033353 69.349412 
L 260.369296 69.379145 
L 261.04118 82.360008 
L 261.377122 69.637357 
L 261.713064 69.947463 
L 262.049007 69.832965 
L 262.384949 69.382904 
L 263.056833 82.351683 
L 263.392775 69.492391 
L 263.728718 69.001459 
L 264.06466 69.947463 
L 264.400602 69.947463 
L 264.736544 69.385677 
L 265.408429 82.3421 
L 265.744371 69.542216 
L 266.080313 69.06246 
L 266.416255 67.127 
L 266.752197 69.001459 
L 267.08814 69.947463 
L 267.424082 69.388376 
L 268.095966 82.332274 
L 268.431908 69.545087 
L 268.767851 67.00797 
L 269.103793 63.183609 
L 269.775677 69.947463 
L 270.11162 69.413728 
L 270.447562 78.30505 
L 270.783504 82.320464 
L 271.119446 69.546529 
L 271.455388 67.037946 
L 271.791331 68.430933 
L 272.127273 62.841516 
L 272.463215 63.183609 
L 272.799157 63.183609 
L 273.135099 67.170248 
L 273.471042 67.151102 
L 273.806984 69.947463 
L 274.142926 69.425527 
L 274.478868 77.497283 
L 274.81481 82.31306 
L 275.150753 69.547738 
L 275.486695 67.053765 
L 275.822637 65.914524 
L 276.158579 62.842069 
L 276.830464 62.841516 
L 277.166406 67.174754 
L 277.502348 69.947463 
L 277.83829 69.431065 
L 278.174232 82.281239 
L 278.510175 69.548724 
L 278.846117 65.918544 
L 279.182059 65.165 
L 279.518001 62.842823 
L 279.853943 69.947463 
L 280.189886 69.434759 
L 280.525828 82.147085 
L 280.86177 69.550272 
L 281.197712 65.919529 
L 281.533654 64.992558 
L 281.869597 62.843044 
L 282.205539 69.947463 
L 282.541481 69.440406 
L 282.877423 69.553963 
L 283.213365 65.920206 
L 283.549308 64.906984 
L 283.88525 62.843776 
L 284.221192 69.947463 
L 284.557134 69.451434 
L 284.893076 69.556517 
L 285.229019 65.921144 
L 285.564961 64.812945 
L 285.900903 69.947463 
L 286.236845 69.454483 
L 286.572787 69.559764 
L 286.90873 65.923368 
L 287.244672 64.704438 
L 287.580614 69.947463 
L 287.916556 69.455368 
L 288.252498 69.561736 
L 288.588441 65.925059 
L 288.924383 64.594745 
L 289.260325 69.947463 
L 289.596267 69.456038 
L 290.268152 69.563517 
L 290.604094 65.926246 
L 290.940036 64.473136 
L 291.275978 69.947463 
L 291.611921 69.456664 
L 292.283805 69.56652 
L 292.619747 65.92749 
L 292.955689 64.296292 
L 293.291632 69.947463 
L 293.627574 69.45731 
L 294.299458 69.569472 
L 294.6354 65.928511 
L 294.971343 67.495584 
L 295.307285 64.429488 
L 295.643227 69.947463 
L 295.979169 69.461977 
L 296.315111 69.460654 
L 296.651054 69.570869 
L 296.986996 65.930201 
L 297.322938 66.984581 
L 297.65888 65.27299 
L 297.994822 69.947463 
L 298.330765 69.495963 
L 298.666707 69.572404 
L 299.002649 65.935664 
L 299.338591 66.510552 
L 299.674533 65.876847 
L 300.010476 69.573877 
L 300.346418 65.948429 
L 300.68236 66.048027 
L 301.018302 65.895025 
L 301.354244 63.227168 
L 301.690187 69.575653 
L 302.026129 65.701101 
L 302.362071 65.896527 
L 302.698013 65.895575 
L 303.033955 63.252639 
L 303.369898 63.439456 
L 303.70584 69.578486 
L 304.041782 65.149987 
L 304.377724 65.896997 
L 304.713666 65.896695 
L 305.049609 63.267395 
L 305.385551 63.781023 
L 305.721493 69.586239 
L 306.057435 64.220788 
L 306.393377 65.8973 
L 306.72932 60.632137 
L 307.065262 63.781023 
L 307.401204 69.596558 
L 307.737146 65.358868 
L 308.073089 65.897482 
L 308.409031 58.920709 
L 308.744973 59.704387 
L 309.080915 63.781023 
L 309.416857 69.597541 
L 310.088742 65.897666 
L 310.424684 57.285211 
L 310.760626 59.605069 
L 311.096568 63.781023 
L 311.432511 69.598318 
L 311.768453 65.937919 
L 312.104395 65.897831 
L 312.440337 58.194199 
L 312.776279 57.29924 
L 313.112222 59.567148 
L 313.448164 63.781023 
L 313.784106 69.599073 
L 314.120048 68.340686 
L 314.45599 65.898016 
L 314.791933 55.379323 
L 315.463817 59.527035 
L 315.799759 63.781023 
L 316.135701 69.599882 
L 316.807586 65.898165 
L 317.143528 52.775752 
L 317.47947 57.30211 
L 317.815412 59.493745 
L 318.151355 63.781023 
L 318.487297 69.600629 
L 318.823239 66.726733 
L 319.159181 65.898343 
L 319.495123 53.937618 
L 319.831066 57.303643 
L 320.167008 57.302244 
L 320.50295 59.454321 
L 320.838892 63.781023 
L 321.174834 69.601334 
L 321.510777 66.115641 
L 321.846719 65.898535 
L 322.182661 54.351123 
L 322.518603 53.94064 
L 322.854545 57.304889 
L 323.190488 57.30234 
L 323.52643 59.415873 
L 323.862372 63.781023 
L 324.198314 69.602314 
L 324.534256 65.39852 
L 324.870199 65.898886 
L 325.206141 50.871021 
L 326.54991 63.781023 
L 326.885852 69.603515 
L 327.221794 64.743257 
L 327.557736 65.901508 
L 327.893679 52.273864 
L 328.229621 53.944132 
L 328.565563 53.943197 
L 328.901505 57.302558 
L 329.237447 59.290302 
L 329.909332 69.609206 
L 330.581216 65.909542 
L 330.917158 49.360893 
L 331.253101 53.94508 
L 331.589043 53.943227 
L 331.924985 57.30275 
L 332.260927 59.21335 
L 332.932812 69.657871 
L 333.268754 65.724616 
L 333.604696 50.249696 
L 334.27658 57.302893 
L 334.612523 59.162233 
L 334.948465 63.781023 
L 335.284407 65.124941 
L 335.620349 65.644825 
L 335.956291 47.002869 
L 336.292234 53.943289 
L 336.628176 57.303129 
L 336.964118 59.110208 
L 337.30006 63.781023 
L 337.971945 65.517147 
L 338.307887 46.946111 
L 338.643829 47.547405 
L 338.979771 53.943321 
L 339.315713 57.304769 
L 339.651656 59.085333 
L 340.32354 68.2197 
L 340.659482 65.408059 
L 340.995424 46.889205 
L 341.331367 48.983165 
L 341.667309 47.547405 
L 342.003251 53.943341 
L 342.339193 57.30839 
L 342.675135 59.045766 
L 343.34702 67.883349 
L 343.682962 65.34632 
L 344.018904 46.832188 
L 344.354846 46.136845 
L 344.690789 48.983165 
L 346.034557 67.54126 
L 346.3705 46.775516 
L 346.706442 47.431147 
L 347.042384 46.136845 
L 347.378326 53.943634 
L 348.050211 63.781023 
L 348.386153 67.244387 
L 348.722095 50.768884 
L 349.058037 44.443636 
L 349.39398 47.431147 
L 350.401806 67.031168 
L 350.737748 50.712036 
L 351.073691 45.584689 
L 351.409633 44.443636 
L 351.745575 62.221495 
L 352.081517 66.783621 
L 352.417459 50.655151 
L 352.753402 45.585026 
L 353.425286 45.584689 
L 353.761228 62.107709 
L 354.09717 66.410688 
L 354.433113 50.627384 
L 354.769055 45.585076 
L 355.440939 45.584689 
L 355.776881 62.08253 
L 356.112824 65.801391 
L 356.448766 50.003315 
L 356.784708 45.585215 
L 357.456592 45.584689 
L 357.792535 62.062701 
L 358.128477 65.082696 
L 358.464419 65.481138 
L 358.800361 49.597494 
L 359.136303 45.585378 
L 359.808188 45.584689 
L 360.14413 62.041455 
L 360.480072 49.242564 
L 360.816014 45.585399 
L 361.487899 45.584689 
L 361.823841 62.024457 
L 362.159783 48.870265 
L 362.495725 45.585423 
L 363.503552 45.584689 
L 363.839494 62.007952 
L 364.175436 48.234571 
L 364.511379 45.585446 
L 365.519205 45.584689 
L 365.855148 61.991489 
L 366.19109 48.078649 
L 366.527032 45.58548 
L 366.862974 45.585447 
L 367.198916 61.975219 
L 367.534859 48.05162 
L 367.870801 47.554598 
L 368.206743 45.585523 
L 368.542685 61.684274 
L 368.878627 48.007241 
L 369.21457 47.110133 
L 369.550512 45.585691 
L 369.886454 60.557991 
L 370.222396 61.547974 
L 370.558338 47.998466 
L 370.894281 50.413333 
L 371.230223 45.585995 
L 371.566165 59.810011 
L 371.902107 47.991052 
L 373.245876 47.936461 
L 373.581818 47.727552 
L 373.581818 47.727552 
" style="fill:none;stroke:#ff0000;stroke-linecap:square;stroke-width:1.5;"/>
   </g>
   <g id="line2d_13">
    <path clip-path="url(#p28f5063582)" d="M 69.218182 212.76602 
L 69.554124 169.429143 
L 69.890066 172.188346 
L 70.226008 170.35457 
L 70.561951 172.686869 
L 70.897893 171.189061 
L 71.233835 172.879687 
L 71.569777 186.378551 
L 71.905719 187.284081 
L 72.241662 185.345874 
L 72.577604 188.191072 
L 72.913546 188.319895 
L 73.249488 188.688909 
L 73.58543 186.425292 
L 74.257315 191.843977 
L 74.593257 191.843977 
L 74.929199 197.243837 
L 75.265141 191.843977 
L 75.601084 197.485558 
L 75.937026 191.843977 
L 76.272968 197.259299 
L 76.60891 191.843977 
L 76.944852 198.396833 
L 77.280795 191.843977 
L 77.616737 197.880432 
L 77.952679 191.843977 
L 78.288621 197.903984 
L 78.624564 212.466424 
L 78.960506 191.843977 
L 79.296448 197.909397 
L 79.63239 197.905031 
L 79.968332 214.543398 
L 80.304275 191.843977 
L 80.640217 197.921792 
L 80.976159 197.905067 
L 81.312101 216.597022 
L 81.648043 225.746556 
L 81.983986 191.843977 
L 82.319928 197.905118 
L 82.65587 216.471522 
L 82.991812 216.533902 
L 83.327754 235.178865 
L 83.663697 225.746556 
L 83.999639 191.843977 
L 84.335581 197.905183 
L 84.671523 216.414955 
L 85.007465 216.382022 
L 85.343408 237.713204 
L 85.67935 225.746556 
L 86.015292 191.843977 
L 86.351234 197.905342 
L 87.023119 240.302453 
L 87.359061 237.713204 
L 87.695003 225.746556 
L 88.030945 191.843977 
L 88.366887 197.905479 
L 89.038772 240.254217 
L 89.374714 237.713204 
L 89.710656 225.746556 
L 90.046598 191.843977 
L 90.382541 197.906133 
L 90.718483 216.263713 
L 91.054425 240.976945 
L 91.390367 240.241303 
L 91.726309 237.713204 
L 92.062252 225.746556 
L 92.398194 191.843977 
L 92.734136 197.908443 
L 93.40602 231.805354 
L 93.741963 240.235821 
L 94.077905 240.240473 
L 94.413847 237.713204 
L 94.749789 225.746556 
L 95.085731 191.843977 
L 95.421674 215.856614 
L 96.093558 237.713204 
L 96.4295 225.746556 
L 96.765443 191.843977 
L 97.101385 214.575379 
L 97.773269 237.713204 
L 98.109211 225.746556 
L 98.445154 191.843977 
L 98.781096 227.336997 
L 99.117038 237.713204 
L 99.45298 225.746556 
L 99.788922 191.843977 
L 100.124865 226.29703 
L 100.460807 225.746556 
L 100.796749 191.843977 
L 101.132691 227.00855 
L 101.468633 225.746556 
L 101.804576 191.843977 
L 102.140518 224.727671 
L 102.47646 225.746556 
L 102.812402 191.843977 
L 103.148344 224.662374 
L 103.484287 225.746556 
L 103.820229 191.843977 
L 104.156171 224.736624 
L 104.492113 225.500086 
L 104.828055 225.746556 
L 105.49994 224.221529 
L 105.835882 225.746556 
L 106.171824 224.930577 
L 106.507766 212.065343 
L 106.843709 225.746556 
L 107.179651 225.089332 
L 107.515593 210.867883 
L 107.851535 225.746556 
L 108.187477 225.293432 
L 108.52342 211.423727 
L 108.859362 206.181003 
L 109.195304 225.746556 
L 109.531246 225.439957 
L 109.867188 211.423727 
L 110.203131 211.694364 
L 110.539073 199.450222 
L 110.875015 225.746556 
L 111.210957 225.646995 
L 111.546899 211.423727 
L 111.882842 208.915465 
L 112.218784 197.618115 
L 112.554726 225.746556 
L 112.890668 225.870995 
L 113.22661 211.423727 
L 113.562553 208.910703 
L 113.898495 208.517645 
L 114.234437 196.202477 
L 114.570379 225.746556 
L 114.906321 226.082245 
L 115.242264 211.423727 
L 115.578206 208.910293 
L 115.914148 211.234831 
L 116.25009 195.647646 
L 116.586033 225.746556 
L 116.921975 222.379319 
L 117.257917 211.423727 
L 117.593859 208.909891 
L 117.929801 209.004194 
L 118.265744 194.643496 
L 118.601686 225.746556 
L 118.937628 224.030793 
L 119.27357 211.423727 
L 119.609512 208.909566 
L 119.945455 208.959102 
L 120.281397 207.593232 
L 120.617339 190.772567 
L 120.953281 225.746556 
L 121.289223 224.390558 
L 121.625166 211.423727 
L 121.961108 208.909078 
L 122.632992 208.739973 
L 122.968934 193.154995 
L 123.304877 225.746556 
L 123.640819 224.910266 
L 123.976761 225.717926 
L 124.312703 211.423727 
L 124.648645 208.90849 
L 124.984588 208.797976 
L 125.32053 209.787582 
L 125.656472 190.488488 
L 125.992414 225.746556 
L 126.328356 225.008448 
L 126.664299 223.429891 
L 127.000241 211.423727 
L 127.336183 208.908046 
L 128.008067 208.785604 
L 128.34401 210.222773 
L 128.679952 190.032019 
L 129.015894 225.211016 
L 129.351836 223.810456 
L 129.687778 223.389898 
L 130.023721 211.423727 
L 130.359663 208.907532 
L 131.031547 208.784268 
L 131.367489 207.110566 
L 131.703432 187.605736 
L 132.039374 225.308074 
L 132.375316 223.224373 
L 132.711258 211.423727 
L 133.0472 208.907048 
L 133.719085 208.797976 
L 134.055027 208.782976 
L 134.390969 209.499765 
L 134.726911 188.656763 
L 135.062854 223.931716 
L 135.398796 223.194984 
L 135.734738 223.222661 
L 136.07068 211.423727 
L 136.406623 208.906528 
L 137.078507 208.797976 
L 137.414449 208.781942 
L 137.750391 210.901495 
L 138.086334 186.893342 
L 138.422276 223.929201 
L 138.758218 224.627962 
L 139.09416 223.120682 
L 139.430102 223.222418 
L 139.766045 211.423727 
L 140.101987 208.905733 
L 140.773871 208.781119 
L 141.109813 207.833016 
L 141.445756 186.436187 
L 141.781698 223.92097 
L 142.11764 221.834307 
L 142.453582 223.222223 
L 142.789524 211.423727 
L 143.125467 208.903563 
L 143.797351 208.779378 
L 144.133293 209.721559 
L 144.469235 184.479935 
L 144.805178 223.917422 
L 145.14112 222.282982 
L 145.477062 223.222067 
L 145.813004 208.903378 
L 146.484889 208.778007 
L 146.820831 210.661553 
L 147.156773 183.313965 
L 147.492715 221.217668 
L 148.1646 223.221829 
L 148.500542 208.903292 
L 149.172426 208.777056 
L 149.508368 207.278751 
L 149.844311 179.768745 
L 150.180253 221.129997 
L 150.516195 223.22155 
L 150.852137 208.903201 
L 151.524022 208.776107 
L 151.859964 206.813619 
L 152.195906 181.471705 
L 152.531848 220.932968 
L 152.86779 221.339278 
L 153.203733 223.221121 
L 153.539675 208.903113 
L 154.211559 208.774719 
L 154.547502 209.065166 
L 154.883444 181.470478 
L 155.219386 179.86473 
L 155.555328 223.219553 
L 155.89127 208.903016 
L 156.563155 208.769498 
L 156.899097 209.568903 
L 157.235039 181.470308 
L 157.570981 175.861209 
L 157.906924 223.211917 
L 158.242866 208.902815 
L 158.91475 208.76828 
L 159.250692 207.648691 
L 159.586635 209.792578 
L 159.922577 181.47023 
L 160.258519 175.851004 
L 160.594461 175.97383 
L 160.930403 208.902606 
L 161.602288 208.767722 
L 161.93823 209.723322 
L 162.274172 210.054822 
L 162.610114 181.470137 
L 163.281999 169.291728 
L 163.617941 208.90181 
L 164.289825 208.767355 
L 164.625768 210.291817 
L 164.96171 181.469994 
L 165.633594 169.149972 
L 165.969536 170.993686 
L 166.305479 208.897585 
L 166.977363 208.764998 
L 167.313305 208.767327 
L 167.649247 210.531846 
L 167.98519 181.469867 
L 168.321132 175.848783 
L 168.657074 166.89848 
L 168.993016 166.748903 
L 169.328958 208.763916 
L 169.664901 208.767308 
L 170.000843 206.739671 
L 170.336785 181.469768 
L 170.672727 175.844882 
L 171.008669 162.444542 
L 171.344612 168.019938 
L 171.680554 208.762084 
L 172.016496 208.767286 
L 172.352438 208.23639 
L 172.68838 181.469645 
L 173.024323 175.844131 
L 173.360265 163.321701 
L 173.696207 169.78809 
L 174.032149 208.758568 
L 174.368092 208.767242 
L 174.704034 206.466434 
L 175.039976 181.469517 
L 175.375918 175.843575 
L 175.71186 163.321292 
L 176.047803 155.184563 
L 176.383745 166.660684 
L 176.719687 208.748215 
L 177.055629 208.767077 
L 177.391571 181.469367 
L 177.727514 175.842934 
L 178.399398 150.786957 
L 178.73534 167.450672 
L 179.071282 208.766513 
L 179.407225 181.469281 
L 179.743167 175.842299 
L 180.750993 141.727227 
L 181.086936 168.34914 
L 181.422878 181.468894 
L 181.75882 175.836718 
L 182.430704 150.759604 
L 182.766647 143.034695 
L 183.102589 140.278585 
L 183.438531 169.056978 
L 183.774473 181.468743 
L 184.110415 175.825308 
L 184.446358 163.316205 
L 184.7823 163.316525 
L 185.118242 143.69203 
L 185.454184 138.456874 
L 185.790126 165.600169 
L 186.126069 181.468691 
L 186.462011 163.31525 
L 186.797953 163.316481 
L 187.133895 143.753201 
L 187.469837 140.024296 
L 187.80578 166.135646 
L 188.141722 181.468651 
L 188.813606 143.778464 
L 189.149548 137.954331 
L 189.485491 166.578825 
L 189.821433 181.468622 
L 190.493317 143.79629 
L 190.829259 139.195062 
L 191.165202 167.092939 
L 191.501144 181.468608 
L 192.173028 143.814523 
L 192.50897 137.049929 
L 192.844913 167.657986 
L 193.180855 181.468586 
L 193.852739 143.836037 
L 194.188682 134.898673 
L 194.524624 166.688161 
L 194.860566 181.46855 
L 195.868393 132.978934 
L 196.204335 165.619097 
L 196.540277 166.687606 
L 196.876219 181.468389 
L 197.548104 143.887479 
L 197.884046 134.520505 
L 198.219988 163.568547 
L 198.55593 166.684197 
L 198.891872 166.687606 
L 199.227815 181.467797 
L 200.235641 132.307502 
L 200.571583 164.559088 
L 200.907526 166.682951 
L 201.243468 166.687606 
L 201.57941 143.939717 
L 201.915352 130.922765 
L 202.251294 164.555191 
L 202.587237 162.498267 
L 202.923179 166.682825 
L 203.259121 166.687606 
L 203.931005 128.84843 
L 204.266948 164.554834 
L 204.60289 163.17352 
L 204.938832 166.682736 
L 205.274774 166.687606 
L 205.610716 140.709097 
L 205.946659 130.754333 
L 206.282601 164.554631 
L 206.618543 161.296436 
L 206.954485 163.17352 
L 207.290427 166.682644 
L 207.62637 166.687606 
L 207.962312 128.569201 
L 208.298254 164.554493 
L 208.634196 158.499361 
L 209.306081 166.682259 
L 209.642023 166.687606 
L 209.977965 126.761802 
L 210.313907 164.554268 
L 210.649849 158.289004 
L 211.321734 166.682165 
L 211.657676 166.687606 
L 211.993618 126.46734 
L 212.329561 126.761802 
L 212.665503 164.553522 
L 213.001445 156.255372 
L 213.337387 163.17352 
L 213.673329 166.682076 
L 214.009272 166.687606 
L 214.345214 118.878729 
L 214.681156 126.46734 
L 215.017098 164.55269 
L 215.35304 157.31185 
L 215.688983 163.17352 
L 216.024925 166.681987 
L 216.360867 166.687606 
L 216.696809 108.422881 
L 217.032751 118.878729 
L 217.368694 164.552223 
L 217.704636 158.187657 
L 218.37652 166.681884 
L 218.712462 166.687606 
L 219.048405 105.053036 
L 219.384347 108.422881 
L 219.720289 164.551784 
L 220.056231 158.89745 
L 220.728116 166.681531 
L 221.064058 166.687606 
L 221.4 100.843816 
L 221.735942 105.053036 
L 222.071884 164.551365 
L 222.407827 155.932161 
L 222.743769 163.17352 
L 223.079711 166.679809 
L 223.415653 166.687606 
L 223.751595 96.198143 
L 224.087538 100.843816 
L 224.42348 100.842511 
L 224.759422 164.550677 
L 225.095364 156.91024 
L 225.431306 163.17352 
L 225.767249 166.687606 
L 226.103191 88.777399 
L 226.439133 96.198143 
L 226.775075 96.198143 
L 227.111017 100.84232 
L 227.44696 164.550198 
L 227.782902 157.84113 
L 228.118844 163.17352 
L 228.454786 166.687606 
L 228.790728 86.591591 
L 229.126671 88.777399 
L 229.462613 100.842216 
L 229.798555 164.549861 
L 230.134497 158.889833 
L 230.806382 166.687606 
L 231.142324 81.325886 
L 231.478266 86.591591 
L 231.814208 86.573505 
L 232.150151 100.842145 
L 232.486093 164.5497 
L 232.822035 155.947345 
L 233.157977 163.17352 
L 233.493919 166.687606 
L 233.829862 74.362921 
L 234.501746 86.573317 
L 234.837688 86.567661 
L 235.17363 100.842039 
L 235.509573 164.549598 
L 235.845515 158.369444 
L 236.517399 166.687606 
L 236.853341 69.843082 
L 237.189284 74.362921 
L 237.525226 86.573238 
L 237.861168 86.563922 
L 238.19711 100.841876 
L 238.533052 164.549529 
L 238.868995 152.953268 
L 239.204937 163.17352 
L 239.540879 166.687606 
L 239.876821 69.340949 
L 240.212763 69.843082 
L 240.884648 100.841761 
L 241.22059 164.549433 
L 241.556532 151.591434 
L 241.892474 152.991697 
L 242.228417 163.17352 
L 242.564359 69.138728 
L 242.900301 69.340949 
L 243.236243 68.968015 
L 243.908128 100.841682 
L 244.24407 164.54936 
L 244.580012 150.289742 
L 244.915954 152.703321 
L 245.251896 163.17352 
L 245.587839 68.984301 
L 245.923781 69.138728 
L 246.259723 68.747636 
L 246.931607 100.84162 
L 247.26755 164.548837 
L 247.603492 152.49718 
L 247.939434 163.17352 
L 248.275376 68.393729 
L 248.611318 68.984301 
L 248.947261 68.573018 
L 249.619145 100.841421 
L 249.955087 164.548554 
L 250.29103 164.544297 
L 250.626972 152.648996 
L 250.962914 163.17352 
L 251.298856 68.442849 
L 251.634798 68.393729 
L 251.970741 68.905889 
L 252.642625 100.839808 
L 252.978567 164.548242 
L 253.314509 152.790984 
L 253.650452 163.17352 
L 253.986394 67.913962 
L 254.658278 68.901828 
L 254.99422 68.660655 
L 255.666105 100.839728 
L 256.002047 164.547397 
L 256.337989 152.53737 
L 256.673931 163.17352 
L 257.009874 67.73986 
L 257.345816 67.913962 
L 257.681758 68.900334 
L 258.0177 68.475132 
L 258.689585 100.839664 
L 259.025527 152.671351 
L 259.361469 163.17352 
L 259.697411 67.670481 
L 260.033353 67.73986 
L 260.369296 67.527556 
L 260.705238 68.898108 
L 261.04118 100.839593 
L 261.377122 152.403364 
L 261.713064 67.72854 
L 262.384949 67.607715 
L 262.720891 68.896769 
L 263.056833 100.839529 
L 263.392775 152.705634 
L 263.728718 67.321773 
L 264.06466 67.72854 
L 264.400602 67.72854 
L 264.736544 67.560723 
L 265.072486 68.895152 
L 265.408429 100.839456 
L 265.744371 152.314724 
L 266.080313 152.527879 
L 266.416255 66.80423 
L 267.08814 67.72854 
L 267.424082 67.504067 
L 267.760024 68.893733 
L 268.095966 100.83938 
L 268.431908 152.283959 
L 268.767851 151.814516 
L 269.103793 66.388291 
L 269.439735 66.782605 
L 269.775677 67.72854 
L 270.11162 67.536323 
L 270.447562 68.884448 
L 270.783504 100.83929 
L 271.119446 152.471926 
L 271.791331 150.95671 
L 272.127273 65.665055 
L 272.463215 66.388291 
L 272.799157 66.388291 
L 273.135099 66.764498 
L 273.471042 66.782605 
L 273.806984 67.72854 
L 274.142926 67.439252 
L 274.478868 68.815981 
L 274.81481 100.839233 
L 275.150753 152.224522 
L 275.486695 151.770001 
L 275.822637 149.844533 
L 276.158579 65.172027 
L 276.494521 65.665055 
L 276.830464 65.665055 
L 277.502348 67.72854 
L 277.83829 67.344022 
L 278.174232 100.838989 
L 278.510175 152.353056 
L 278.846117 149.963173 
L 279.182059 149.675941 
L 279.518001 64.39879 
L 279.853943 67.72854 
L 280.189886 67.415792 
L 280.525828 100.837962 
L 280.86177 152.149792 
L 281.197712 150.091577 
L 281.533654 149.604863 
L 281.869597 64.435991 
L 282.205539 67.72854 
L 282.541481 67.334674 
L 282.877423 152.225878 
L 283.213365 150.179748 
L 283.549308 149.770583 
L 283.88525 63.703035 
L 284.221192 67.72854 
L 284.557134 67.138168 
L 284.893076 152.153704 
L 285.229019 149.896947 
L 285.564961 149.547671 
L 285.900903 67.72854 
L 286.236845 67.126661 
L 286.572787 152.171897 
L 286.90873 149.781753 
L 287.244672 149.757802 
L 287.580614 67.72854 
L 287.916556 67.240906 
L 288.252498 152.428999 
L 288.588441 150.002073 
L 288.924383 149.565205 
L 289.260325 67.72854 
L 289.596267 67.327328 
L 289.93221 67.308265 
L 290.268152 152.256081 
L 290.604094 150.156734 
L 290.940036 149.395684 
L 291.275978 67.72854 
L 291.611921 67.408211 
L 291.947863 67.39715 
L 292.283805 152.242514 
L 292.619747 149.91373 
L 292.955689 149.33313 
L 293.291632 67.72854 
L 293.627574 67.086506 
L 293.963516 67.361394 
L 294.299458 152.222344 
L 294.6354 150.04675 
L 294.971343 149.326631 
L 295.307285 149.617465 
L 295.643227 67.72854 
L 295.979169 67.283906 
L 296.315111 67.113188 
L 296.651054 152.404437 
L 296.986996 149.861971 
L 297.65888 148.851862 
L 297.994822 67.72854 
L 298.330765 67.215553 
L 298.666707 152.199416 
L 299.002649 149.763689 
L 299.338591 149.319107 
L 299.674533 148.546903 
L 300.010476 152.391378 
L 300.346418 149.806724 
L 301.018302 148.934248 
L 301.354244 147.656956 
L 301.690187 152.217856 
L 302.026129 149.312925 
L 302.362071 148.932786 
L 302.698013 148.933713 
L 303.033955 147.732981 
L 303.369898 147.510001 
L 303.70584 152.182109 
L 304.041782 149.308716 
L 304.377724 148.932329 
L 304.713666 148.932623 
L 305.049609 147.629033 
L 305.385551 147.172678 
L 305.721493 152.382731 
L 306.057435 149.301619 
L 306.393377 148.932035 
L 306.72932 146.401005 
L 307.065262 147.172678 
L 307.401204 152.107648 
L 307.737146 149.653468 
L 308.073089 148.931858 
L 308.409031 145.912144 
L 308.744973 146.393911 
L 309.080915 147.172678 
L 309.416857 152.235757 
L 309.7528 149.609843 
L 310.088742 148.931678 
L 310.424684 145.117643 
L 310.760626 146.393152 
L 311.096568 147.172678 
L 311.432511 152.337073 
L 311.768453 149.596022 
L 312.104395 148.931518 
L 312.440337 144.588755 
L 312.776279 144.917003 
L 313.112222 146.392862 
L 313.448164 147.172678 
L 313.784106 152.030449 
L 314.120048 149.583439 
L 314.45599 148.931338 
L 314.791933 144.315724 
L 315.127875 145.161745 
L 315.463817 146.392555 
L 315.799759 147.172678 
L 316.135701 152.135848 
L 316.471644 149.576585 
L 316.807586 148.931193 
L 317.143528 143.897833 
L 317.47947 144.885301 
L 317.815412 146.392301 
L 318.151355 147.172678 
L 318.487297 152.233297 
L 318.823239 149.571112 
L 319.159181 148.93102 
L 319.495123 143.512418 
L 319.831066 145.084598 
L 320.167008 144.902613 
L 320.50295 146.391999 
L 320.838892 147.172678 
L 321.174834 152.325133 
L 321.510777 149.566445 
L 321.846719 148.930833 
L 322.182661 143.30429 
L 322.518603 143.509467 
L 322.854545 144.841575 
L 323.190488 144.915132 
L 323.52643 146.391705 
L 323.862372 147.172678 
L 324.198314 152.047833 
L 324.534256 149.560967 
L 324.870199 148.930492 
L 325.206141 143.029356 
L 325.542083 143.507001 
L 326.213967 146.391301 
L 326.54991 147.172678 
L 326.885852 152.204356 
L 327.221794 149.555963 
L 327.557736 148.927942 
L 327.893679 142.78244 
L 328.229621 143.506056 
L 328.565563 143.50697 
L 329.237447 146.390745 
L 329.57339 147.172678 
L 329.909332 152.136182 
L 330.245274 149.548198 
L 330.581216 148.920127 
L 330.917158 142.20697 
L 331.253101 143.505131 
L 331.589043 143.50694 
L 332.260927 146.390157 
L 332.596869 147.172678 
L 332.932812 151.999032 
L 333.268754 149.532523 
L 333.604696 141.834312 
L 334.612523 146.389766 
L 334.948465 147.172678 
L 335.284407 149.527943 
L 335.620349 149.531914 
L 335.956291 141.645202 
L 336.628176 145.017795 
L 336.964118 146.389368 
L 337.30006 147.172678 
L 337.636002 149.523949 
L 337.971945 149.530939 
L 338.307887 141.644768 
L 338.643829 141.648134 
L 339.315713 144.825984 
L 339.651656 146.389178 
L 339.987598 147.172678 
L 340.32354 149.520645 
L 340.659482 149.530105 
L 340.995424 141.644332 
L 341.331367 141.356487 
L 341.667309 141.648134 
L 342.339193 144.891923 
L 342.675135 146.388876 
L 343.011078 147.172678 
L 343.34702 149.518076 
L 343.682962 149.529634 
L 344.018904 141.643895 
L 344.354846 141.280217 
L 344.690789 141.356487 
L 345.026731 143.506798 
L 345.362673 146.388592 
L 345.698615 147.172678 
L 346.034557 149.515464 
L 346.3705 141.643461 
L 346.706442 140.782938 
L 347.042384 141.280217 
L 347.714269 146.388186 
L 348.050211 147.172678 
L 348.386153 149.513196 
L 348.722095 141.643025 
L 349.058037 140.907473 
L 349.39398 140.782938 
L 350.401806 149.511568 
L 350.737748 141.64259 
L 351.073691 140.559073 
L 351.409633 140.907473 
L 351.745575 146.382189 
L 352.081517 149.509677 
L 352.417459 141.642154 
L 352.753402 140.062928 
L 353.089344 140.559073 
L 353.425286 140.559073 
L 353.761228 146.381319 
L 354.09717 149.506829 
L 354.433113 141.641941 
L 354.769055 140.157698 
L 355.104997 140.559073 
L 355.440939 140.559073 
L 355.776881 146.381127 
L 356.112824 149.502175 
L 356.448766 141.637161 
L 356.784708 140.054544 
L 357.12065 140.559073 
L 357.456592 140.559073 
L 357.792535 146.380975 
L 358.128477 149.465751 
L 358.464419 149.499729 
L 358.800361 141.634052 
L 359.136303 139.776973 
L 359.472246 140.559073 
L 359.808188 140.559073 
L 360.14413 146.380813 
L 360.480072 141.631333 
L 360.816014 139.876645 
L 361.151957 140.559073 
L 361.487899 140.559073 
L 361.823841 146.380683 
L 362.159783 141.628481 
L 362.495725 139.70074 
L 362.831668 139.703661 
L 363.16761 140.559073 
L 363.503552 140.559073 
L 363.839494 146.380556 
L 364.175436 141.623612 
L 364.511379 139.852262 
L 364.847321 139.841677 
L 365.183263 140.559073 
L 365.519205 140.559073 
L 365.855148 146.380431 
L 366.19109 141.622417 
L 366.527032 139.694317 
L 366.862974 139.914855 
L 367.198916 146.380306 
L 367.534859 141.62221 
L 367.870801 141.634597 
L 368.206743 139.516955 
L 368.542685 146.378082 
L 368.878627 141.62187 
L 369.21457 141.644927 
L 369.550512 139.419807 
L 369.886454 146.36947 
L 370.222396 146.37704 
L 370.558338 141.621803 
L 370.894281 141.66229 
L 371.230223 139.121073 
L 371.566165 146.363751 
L 371.902107 141.621746 
L 373.581818 141.619728 
L 373.581818 141.619728 
" style="fill:none;stroke:#ffff00;stroke-linecap:square;stroke-width:1.5;"/>
   </g>
   <g id="line2d_14">
    <path clip-path="url(#p28f5063582)" d="M 69.218182 242.116364 
L 69.554124 240.231569 
L 69.890066 239.158272 
L 71.233835 240.419386 
L 71.569777 234.262972 
L 72.241662 232.015256 
L 72.577604 235.169425 
L 73.249488 233.873006 
L 73.58543 233.486992 
L 73.921373 232.525958 
L 74.257315 228.789357 
L 74.593257 228.789357 
L 74.929199 227.442964 
L 75.265141 228.789357 
L 75.601084 226.792798 
L 75.937026 228.789357 
L 76.272968 226.062712 
L 76.60891 228.789357 
L 76.944852 224.873929 
L 77.280795 228.789357 
L 77.616737 222.711067 
L 77.952679 228.789357 
L 78.288621 222.688045 
L 78.624564 212.594826 
L 78.960506 228.789357 
L 79.296448 222.682754 
L 79.63239 222.687021 
L 79.968332 209.632485 
L 80.304275 228.789357 
L 80.640217 222.670638 
L 80.976159 222.686987 
L 81.312101 209.61894 
L 81.648043 200.973478 
L 81.983986 228.789357 
L 82.319928 222.686937 
L 82.65587 209.618088 
L 82.991812 209.618511 
L 83.327754 194.619346 
L 83.663697 200.973478 
L 83.999639 228.789357 
L 84.335581 222.686873 
L 84.671523 209.617704 
L 85.007465 209.617481 
L 85.343408 191.78948 
L 85.67935 200.973478 
L 86.015292 228.789357 
L 86.351234 222.686717 
L 86.687176 209.617298 
L 87.023119 190.212999 
L 87.359061 191.78948 
L 87.695003 200.973478 
L 88.030945 228.789357 
L 88.366887 222.686584 
L 88.70283 209.61691 
L 89.038772 187.120504 
L 89.374714 191.78948 
L 89.710656 200.973478 
L 90.046598 228.789357 
L 90.382541 222.685945 
L 90.718483 209.616678 
L 91.054425 185.685385 
L 91.390367 187.108174 
L 91.726309 191.78948 
L 92.062252 200.973478 
L 92.398194 228.789357 
L 92.734136 222.683686 
L 93.070078 209.616223 
L 93.40602 180.871756 
L 93.741963 187.10294 
L 94.077905 187.107381 
L 94.413847 191.78948 
L 94.749789 200.973478 
L 95.085731 228.789357 
L 95.421674 209.613917 
L 95.757616 179.004765 
L 96.4295 200.973478 
L 96.765443 228.789357 
L 97.101385 209.605224 
L 97.437327 177.71316 
L 97.773269 191.78948 
L 98.109211 200.973478 
L 98.445154 228.789357 
L 98.781096 175.093696 
L 99.117038 191.78948 
L 99.45298 200.973478 
L 99.788922 228.789357 
L 100.124865 176.673314 
L 100.796749 228.789357 
L 101.132691 175.237126 
L 101.804576 228.789357 
L 102.140518 174.288567 
L 102.812402 228.789357 
L 103.148344 172.978785 
L 103.820229 228.789357 
L 104.156171 173.054942 
L 104.492113 171.67498 
L 104.828055 200.973478 
L 105.163998 173.14708 
L 105.49994 174.985901 
L 105.835882 200.973478 
L 106.171824 173.253875 
L 106.507766 166.057705 
L 106.843709 200.973478 
L 107.179651 173.416705 
L 107.515593 167.18403 
L 107.851535 200.973478 
L 108.187477 173.626043 
L 108.52342 167.111196 
L 108.859362 166.657595 
L 109.195304 200.973478 
L 109.531246 173.776328 
L 109.867188 167.111196 
L 110.203131 167.075733 
L 110.539073 163.248879 
L 110.875015 200.973478 
L 111.210957 173.988678 
L 111.546899 167.111196 
L 111.882842 166.909136 
L 112.218784 160.301241 
L 112.554726 200.973478 
L 112.890668 174.218424 
L 113.22661 167.111196 
L 113.562553 166.904659 
L 113.898495 166.472394 
L 114.234437 162.269335 
L 114.570379 200.973478 
L 114.906321 174.435092 
L 115.242264 167.111196 
L 115.578206 166.904273 
L 115.914148 166.147438 
L 116.25009 159.918934 
L 116.586033 200.973478 
L 116.921975 174.791326 
L 117.257917 167.111196 
L 117.593859 166.903895 
L 117.929801 165.929803 
L 118.265744 161.75863 
L 118.601686 200.973478 
L 118.937628 172.434842 
L 119.27357 167.111196 
L 119.609512 166.903589 
L 119.945455 166.149739 
L 120.281397 165.80177 
L 120.617339 159.179266 
L 120.953281 200.973478 
L 121.289223 172.803812 
L 121.625166 167.111196 
L 122.29705 166.733021 
L 122.632992 165.793977 
L 122.968934 158.437055 
L 123.304877 200.973478 
L 123.640819 172.800279 
L 124.312703 167.111196 
L 124.648645 166.902578 
L 124.984588 162.885371 
L 125.32053 165.786858 
L 125.656472 158.270584 
L 125.992414 200.973478 
L 126.328356 172.799611 
L 126.664299 172.019505 
L 127.000241 167.111196 
L 127.336183 166.90216 
L 127.672125 162.885371 
L 128.008067 164.708614 
L 128.34401 165.7839 
L 128.679952 159.939128 
L 129.015894 172.798234 
L 129.351836 171.925322 
L 130.023721 167.111196 
L 130.359663 166.901677 
L 130.695605 162.885371 
L 131.031547 164.905526 
L 131.367489 165.777525 
L 131.703432 158.171081 
L 132.039374 171.554683 
L 132.375316 169.875296 
L 132.711258 167.111196 
L 133.0472 166.901223 
L 133.383143 162.885371 
L 133.719085 162.885371 
L 134.055027 165.095994 
L 134.390969 165.761289 
L 134.726911 156.581498 
L 135.062854 170.892906 
L 135.398796 170.151787 
L 135.734738 170.127398 
L 136.07068 167.111196 
L 136.406623 166.900734 
L 136.742565 162.885371 
L 137.078507 162.885371 
L 137.414449 165.24835 
L 137.750391 165.751763 
L 138.086334 158.657004 
L 138.422276 170.890528 
L 138.758218 170.729315 
L 139.09416 168.940095 
L 139.430102 170.163033 
L 139.766045 167.111196 
L 140.101987 166.899987 
L 140.437929 162.885371 
L 140.773871 165.369713 
L 141.109813 165.745091 
L 141.445756 159.063085 
L 141.781698 170.882746 
L 142.11764 170.434057 
L 142.453582 170.191772 
L 142.789524 167.111196 
L 143.125467 166.897946 
L 143.461409 162.885371 
L 143.797351 165.626294 
L 144.133293 165.732257 
L 144.469235 155.885833 
L 144.805178 170.879392 
L 145.14112 170.328632 
L 145.477062 170.214738 
L 146.148946 162.885371 
L 146.484889 165.828357 
L 146.820831 165.725869 
L 147.156773 157.774716 
L 147.492715 170.14314 
L 147.828657 170.328632 
L 148.1646 170.249797 
L 148.836484 162.885371 
L 149.172426 165.968519 
L 149.508368 165.721333 
L 149.844311 156.354853 
L 150.180253 170.116202 
L 150.516195 170.290892 
L 151.188079 162.885371 
L 151.524022 166.108346 
L 151.859964 165.669445 
L 152.195906 157.349253 
L 152.531848 170.03494 
L 152.86779 170.114779 
L 153.203733 170.354012 
L 153.875617 162.885371 
L 154.211559 166.312908 
L 154.547502 165.654144 
L 154.883444 157.348111 
L 155.219386 155.328919 
L 155.555328 170.584989 
L 156.227213 162.885371 
L 156.563155 163.032017 
L 156.899097 165.65072 
L 157.235039 157.347953 
L 157.570981 155.853098 
L 157.906924 171.709153 
L 158.578808 162.885371 
L 158.91475 163.211588 
L 159.250692 165.60872 
L 159.586635 165.6492 
L 159.922577 157.347881 
L 160.258519 153.31116 
L 160.594461 153.143298 
L 160.930403 166.897046 
L 161.266346 162.885371 
L 161.602288 163.293854 
L 161.93823 165.567096 
L 162.274172 165.647418 
L 162.610114 157.347794 
L 162.946057 153.420798 
L 163.281999 151.420244 
L 163.617941 166.896298 
L 163.953883 162.885371 
L 164.289825 163.347938 
L 164.625768 165.645807 
L 164.96171 157.347661 
L 165.297652 153.511165 
L 165.969536 150.31854 
L 166.305479 166.892326 
L 166.641421 162.885371 
L 166.977363 163.695203 
L 167.313305 163.351969 
L 167.649247 165.644176 
L 167.98519 157.347543 
L 168.321132 153.639524 
L 168.657074 154.143779 
L 168.993016 149.750451 
L 169.328958 163.854722 
L 169.664901 163.354822 
L 170.000843 165.642422 
L 170.336785 157.347451 
L 170.672727 154.216058 
L 171.008669 155.222045 
L 171.344612 148.730753 
L 171.680554 164.124705 
L 172.016496 163.358142 
L 172.352438 165.632251 
L 172.68838 157.347336 
L 173.024323 154.327046 
L 173.360265 154.394973 
L 173.696207 148.391909 
L 174.032149 164.64292 
L 174.368092 163.364492 
L 174.704034 165.589229 
L 175.039976 157.347217 
L 175.375918 154.409224 
L 175.71186 154.394594 
L 176.047803 159.587335 
L 176.383745 148.215052 
L 176.719687 166.168633 
L 177.055629 163.388845 
L 177.391571 157.347077 
L 177.727514 154.503885 
L 178.063456 154.39264 
L 178.399398 160.460357 
L 178.73534 148.063654 
L 179.071282 163.471954 
L 179.407225 157.346998 
L 179.743167 154.597786 
L 180.079109 154.391957 
L 180.750993 165.254679 
L 181.086936 147.891465 
L 181.422878 157.346637 
L 181.75882 155.422721 
L 182.094762 154.390473 
L 182.766647 165.24585 
L 183.102589 162.480778 
L 183.438531 147.755807 
L 183.774473 157.346497 
L 184.110415 153.058744 
L 184.446358 154.389881 
L 184.7823 154.390178 
L 185.118242 165.241412 
L 185.454184 164.154563 
L 185.790126 147.642071 
L 186.126069 157.346448 
L 186.462011 154.388997 
L 186.797953 154.390137 
L 187.133895 165.240999 
L 187.469837 166.533164 
L 187.80578 147.539445 
L 188.141722 157.346412 
L 188.477664 154.390093 
L 188.813606 165.240828 
L 189.149548 164.420961 
L 189.485491 147.454507 
L 189.821433 157.346385 
L 190.157375 154.390054 
L 190.493317 165.240708 
L 190.829259 167.147709 
L 191.165202 147.355973 
L 191.501144 157.346371 
L 191.837086 154.390012 
L 192.173028 165.240585 
L 192.50897 165.115292 
L 192.844913 147.247676 
L 193.180855 157.346351 
L 193.516797 154.389953 
L 193.852739 165.24044 
L 194.188682 167.139431 
L 194.524624 146.657262 
L 194.860566 157.346318 
L 195.196508 154.389881 
L 195.53245 165.240256 
L 195.868393 168.916281 
L 196.204335 146.165129 
L 196.540277 146.739334 
L 196.876219 157.346168 
L 197.212161 154.389435 
L 197.548104 165.240092 
L 197.884046 167.271138 
L 198.219988 141.812954 
L 198.55593 147.243263 
L 198.891872 146.739334 
L 199.227815 157.345617 
L 199.563757 154.38791 
L 199.899699 165.239962 
L 200.235641 169.360505 
L 200.571583 141.619171 
L 200.907526 147.427437 
L 201.243468 146.739334 
L 201.57941 165.23974 
L 201.915352 166.515228 
L 202.251294 142.195081 
L 202.587237 141.941635 
L 202.923179 147.446183 
L 203.259121 146.739334 
L 203.595063 165.238962 
L 203.931005 168.456015 
L 204.266948 142.247849 
L 204.60289 140.142817 
L 204.938832 147.459266 
L 205.274774 146.739334 
L 205.610716 165.234205 
L 205.946659 170.471314 
L 206.282601 142.277847 
L 206.618543 138.764859 
L 206.954485 140.142817 
L 207.290427 147.472818 
L 207.62637 146.739334 
L 207.962312 168.479672 
L 208.298254 142.298216 
L 208.634196 135.080214 
L 208.970138 140.142817 
L 209.306081 147.52973 
L 209.642023 146.739334 
L 209.977965 170.134634 
L 210.313907 142.331412 
L 210.649849 133.461034 
L 211.321734 147.543627 
L 211.657676 146.739334 
L 211.993618 170.173106 
L 212.329561 170.134634 
L 212.665503 142.441759 
L 213.001445 133.047159 
L 213.673329 147.556883 
L 214.009272 146.739334 
L 214.345214 172.841694 
L 214.681156 170.173106 
L 215.017098 142.564609 
L 215.35304 132.830331 
L 216.024925 147.570067 
L 216.360867 146.739334 
L 216.696809 178.0004 
L 217.032751 172.841694 
L 217.368694 142.633699 
L 217.704636 132.65058 
L 218.37652 147.58519 
L 218.712462 146.739334 
L 219.048405 180.463474 
L 219.384347 178.0004 
L 219.720289 142.698602 
L 220.056231 132.5049 
L 220.728116 147.637418 
L 221.064058 146.739334 
L 221.4 180.34533 
L 221.735942 180.463474 
L 222.071884 142.760525 
L 222.407827 132.282216 
L 223.079711 147.891935 
L 223.415653 146.739334 
L 223.751595 184.24714 
L 224.087538 180.34533 
L 224.42348 180.344129 
L 224.759422 142.862194 
L 225.095364 132.081466 
L 225.767249 146.739334 
L 226.103191 186.78171 
L 226.439133 184.24714 
L 226.775075 184.24714 
L 227.111017 180.343953 
L 227.44696 142.933008 
L 227.782902 131.890399 
L 228.454786 146.739334 
L 228.790728 185.823526 
L 229.126671 186.78171 
L 229.462613 180.343858 
L 229.798555 142.982763 
L 230.134497 131.675147 
L 230.806382 146.739334 
L 231.142324 187.540613 
L 231.478266 185.823526 
L 231.814208 185.80691 
L 232.150151 180.343793 
L 232.486093 143.006536 
L 232.822035 131.447768 
L 233.493919 146.739334 
L 233.829862 192.836522 
L 234.165804 187.540613 
L 234.501746 185.806738 
L 234.837688 185.801542 
L 235.17363 180.343695 
L 235.509573 143.021596 
L 235.845515 130.950597 
L 236.517399 146.739334 
L 236.853341 195.859695 
L 237.189284 192.836522 
L 237.525226 185.806665 
L 237.861168 185.798106 
L 238.19711 180.343545 
L 238.533052 143.031778 
L 238.868995 127.770176 
L 239.204937 140.142817 
L 239.540879 146.739334 
L 239.876821 194.287766 
L 240.212763 195.859695 
L 240.548706 185.806622 
L 240.884648 180.343439 
L 241.22059 143.045981 
L 241.556532 127.377406 
L 241.892474 127.344846 
L 242.228417 140.142817 
L 242.564359 193.012249 
L 242.900301 194.287766 
L 243.236243 193.945514 
L 243.908128 180.343367 
L 244.24407 143.056821 
L 244.580012 127.031026 
L 244.915954 127.115387 
L 245.251896 140.142817 
L 245.587839 192.073185 
L 246.259723 193.743267 
L 246.931607 180.343309 
L 247.26755 143.134177 
L 247.603492 127.081119 
L 247.939434 140.142817 
L 248.275376 190.794471 
L 248.947261 193.583014 
L 249.619145 180.343126 
L 249.955087 143.175906 
L 250.29103 143.80502 
L 250.626972 127.05496 
L 250.962914 140.142817 
L 251.298856 189.889457 
L 251.634798 190.794471 
L 251.970741 193.516796 
L 252.642625 180.341642 
L 252.978567 143.221983 
L 253.314509 127.030495 
L 253.650452 140.142817 
L 253.986394 191.408255 
L 254.322336 189.889457 
L 254.658278 193.51307 
L 254.99422 193.291726 
L 255.666105 180.341568 
L 256.002047 143.34688 
L 256.337989 127.004406 
L 256.673931 140.142817 
L 257.009874 189.574731 
L 257.681758 193.511699 
L 258.0177 193.121457 
L 258.689585 180.34151 
L 259.025527 126.98132 
L 259.361469 140.142817 
L 259.697411 189.258988 
L 260.033353 189.574731 
L 260.369296 189.549116 
L 260.705238 193.509657 
L 261.04118 180.341444 
L 261.377122 126.957708 
L 261.713064 189.184223 
L 262.049007 189.258988 
L 262.384949 189.545878 
L 262.720891 193.508428 
L 263.056833 180.341385 
L 263.392775 126.835837 
L 263.728718 187.157095 
L 264.06466 189.184223 
L 264.400602 189.184223 
L 264.736544 189.543489 
L 265.072486 193.506945 
L 265.408429 180.341318 
L 265.744371 126.791676 
L 266.080313 126.680002 
L 266.416255 185.736111 
L 266.752197 187.157095 
L 267.08814 189.184223 
L 267.424082 189.541164 
L 267.760024 193.505643 
L 268.095966 180.341248 
L 268.431908 126.789131 
L 268.767851 125.935296 
L 269.103793 186.027521 
L 269.439735 185.844185 
L 269.775677 189.184223 
L 270.11162 189.519324 
L 270.447562 193.497123 
L 270.783504 180.341165 
L 271.119446 126.787853 
L 271.455388 126.187764 
L 271.791331 124.121392 
L 272.127273 182.674505 
L 272.463215 186.027521 
L 272.799157 186.027521 
L 273.135099 184.520548 
L 273.471042 185.844185 
L 273.806984 189.184223 
L 274.142926 189.509159 
L 274.478868 193.434303 
L 274.81481 180.341113 
L 275.150753 126.786781 
L 275.486695 124.408067 
L 275.822637 126.434215 
L 276.158579 182.673943 
L 276.830464 182.674505 
L 277.166406 185.162312 
L 277.502348 189.184223 
L 277.83829 189.504388 
L 278.174232 180.340889 
L 278.510175 126.785907 
L 279.182059 125.983248 
L 279.518001 182.673177 
L 279.853943 189.184223 
L 280.189886 189.501206 
L 280.525828 180.339943 
L 280.86177 126.784535 
L 281.197712 126.429781 
L 281.533654 125.879494 
L 281.869597 182.672953 
L 282.205539 189.184223 
L 282.541481 189.496341 
L 282.877423 126.781264 
L 283.213365 126.429182 
L 283.549308 125.828006 
L 283.88525 182.67221 
L 284.221192 189.184223 
L 284.557134 189.48684 
L 284.893076 126.779001 
L 285.229019 126.428351 
L 285.564961 125.771425 
L 285.900903 189.184223 
L 286.236845 189.484214 
L 286.572787 126.776123 
L 286.90873 126.42638 
L 287.244672 125.706139 
L 287.580614 189.184223 
L 287.916556 189.483451 
L 288.252498 126.774375 
L 288.588441 126.424882 
L 288.924383 125.640139 
L 289.260325 189.184223 
L 289.596267 189.482874 
L 289.93221 189.483002 
L 290.268152 126.772797 
L 290.604094 126.423831 
L 290.940036 125.56697 
L 291.275978 189.184223 
L 291.611921 189.482335 
L 291.947863 189.482408 
L 292.283805 126.770135 
L 292.619747 126.422729 
L 292.955689 125.460566 
L 293.291632 189.184223 
L 293.627574 189.481779 
L 293.963516 189.479944 
L 294.299458 126.767518 
L 294.6354 126.421825 
L 294.971343 125.454625 
L 295.307285 125.3036 
L 295.643227 189.184223 
L 295.979169 189.477758 
L 296.315111 189.478897 
L 296.651054 126.76628 
L 296.986996 126.420327 
L 297.65888 124.309565 
L 297.994822 189.184223 
L 298.330765 189.44848 
L 298.666707 126.76492 
L 299.002649 126.415488 
L 299.338591 125.447748 
L 299.674533 123.597938 
L 300.010476 126.763614 
L 300.346418 126.40418 
L 300.68236 125.444519 
L 301.018302 122.158805 
L 301.354244 120.10846 
L 301.690187 126.76204 
L 302.026129 125.442097 
L 302.362071 122.374656 
L 302.698013 122.237831 
L 303.033955 120.085907 
L 303.70584 126.759529 
L 304.041782 125.438249 
L 304.377724 122.442198 
L 304.713666 122.398819 
L 305.049609 120.072842 
L 305.385551 122.335742 
L 305.721493 126.752657 
L 306.057435 125.431762 
L 306.72932 119.251957 
L 307.065262 122.335742 
L 307.401204 126.743511 
L 307.737146 125.383154 
L 308.409031 119.913839 
L 308.744973 119.24549 
L 309.080915 122.335742 
L 309.416857 126.74264 
L 309.7528 125.343277 
L 310.088742 122.538294 
L 310.424684 116.415876 
L 311.096568 122.335742 
L 311.432511 126.741951 
L 311.768453 125.330642 
L 312.104395 122.561941 
L 312.440337 115.044282 
L 312.776279 116.403461 
L 313.448164 122.335742 
L 313.784106 126.741282 
L 314.120048 125.31914 
L 314.45599 122.588583 
L 314.791933 117.230559 
L 315.127875 116.401796 
L 315.799759 122.335742 
L 316.135701 126.740565 
L 316.471644 125.312875 
L 316.807586 122.609929 
L 317.143528 115.047928 
L 317.47947 116.400921 
L 318.151355 122.335742 
L 318.487297 126.739903 
L 318.823239 125.307872 
L 319.159181 122.635534 
L 319.495123 113.295139 
L 319.831066 116.399565 
L 320.167008 116.400803 
L 320.838892 122.335742 
L 321.174834 126.739278 
L 321.510777 125.303606 
L 321.846719 122.663126 
L 322.182661 112.562522 
L 322.518603 113.730594 
L 322.854545 116.398462 
L 323.190488 116.400718 
L 323.862372 122.335742 
L 324.198314 126.73841 
L 324.534256 125.298599 
L 324.870199 122.713466 
L 325.206141 111.552413 
L 326.54991 122.335742 
L 326.885852 126.737346 
L 327.221794 125.294024 
L 327.557736 123.090087 
L 327.893679 113.117547 
L 328.229621 114.233912 
L 328.565563 114.099119 
L 329.237447 119.242604 
L 329.57339 122.335742 
L 329.909332 126.732301 
L 330.581216 124.244242 
L 330.917158 111.103092 
L 331.253101 114.370445 
L 331.589043 114.10346 
L 332.260927 119.242067 
L 332.596869 122.335742 
L 332.932812 126.689169 
L 333.268754 125.272599 
L 333.604696 109.528912 
L 333.940638 114.108141 
L 334.612523 119.241711 
L 335.284407 125.268412 
L 335.620349 125.272041 
L 335.956291 108.106051 
L 336.292234 114.11232 
L 336.964118 119.241348 
L 337.636002 125.264761 
L 337.971945 125.27115 
L 338.307887 108.105657 
L 338.643829 107.555798 
L 338.979771 114.116935 
L 339.651656 119.241175 
L 340.32354 125.261741 
L 340.659482 125.270388 
L 340.995424 108.105261 
L 341.331367 110.273658 
L 341.667309 107.555798 
L 342.003251 114.119911 
L 342.675135 119.240899 
L 343.34702 125.259393 
L 343.682962 125.269957 
L 344.018904 108.104865 
L 344.690789 110.273658 
L 346.034557 125.257004 
L 346.3705 108.104471 
L 346.706442 107.955246 
L 347.042384 109.156388 
L 347.714269 119.24027 
L 348.386153 125.254932 
L 348.722095 108.104076 
L 349.058037 106.968985 
L 349.39398 107.955246 
L 350.401806 125.253443 
L 350.737748 108.103681 
L 351.073691 105.910045 
L 351.409633 106.968985 
L 351.745575 119.234803 
L 352.081517 125.251715 
L 352.417459 108.103286 
L 352.753402 105.909696 
L 353.425286 105.910045 
L 353.761228 119.23401 
L 354.09717 125.249111 
L 354.433113 108.103093 
L 354.769055 105.909645 
L 355.440939 105.910045 
L 355.776881 119.233834 
L 356.112824 125.244857 
L 356.448766 108.098757 
L 356.784708 105.909501 
L 357.456592 105.910045 
L 357.792535 119.233696 
L 358.128477 125.211562 
L 358.464419 125.242621 
L 358.800361 108.095937 
L 359.136303 105.909332 
L 359.808188 105.910045 
L 360.14413 119.233548 
L 360.480072 108.093471 
L 360.816014 105.90931 
L 361.487899 105.910045 
L 361.823841 119.23343 
L 362.159783 108.090884 
L 362.495725 105.909285 
L 363.503552 105.910045 
L 363.839494 119.233315 
L 364.175436 108.086467 
L 364.511379 105.909262 
L 365.519205 105.910045 
L 365.855148 119.2332 
L 366.19109 108.085384 
L 366.527032 105.909227 
L 366.862974 105.909261 
L 367.198916 119.233086 
L 367.534859 108.085196 
L 367.870801 108.096431 
L 368.206743 105.909182 
L 368.542685 119.231058 
L 368.878627 108.084888 
L 369.21457 108.1058 
L 369.550512 105.909009 
L 369.886454 119.223207 
L 370.222396 119.230108 
L 370.558338 108.084827 
L 370.894281 108.121547 
L 371.230223 105.908693 
L 371.566165 119.217993 
L 371.902107 108.084775 
L 373.581818 108.082945 
L 373.581818 108.082945 
" style="fill:none;stroke:#0000ff;stroke-linecap:square;stroke-width:1.5;"/>
   </g>
   <g id="patch_3">
    <path d="M 54 252 
L 54 34.56 
" style="fill:none;stroke:#000000;stroke-linecap:square;stroke-linejoin:miter;stroke-width:0.8;"/>
   </g>
   <g id="patch_4">
    <path d="M 388.8 252 
L 388.8 34.56 
" style="fill:none;stroke:#000000;stroke-linecap:square;stroke-linejoin:miter;stroke-width:0.8;"/>
   </g>
   <g id="patch_5">
    <path d="M 54 252 
L 388.8 252 
" style="fill:none;stroke:#000000;stroke-linecap:square;stroke-linejoin:miter;stroke-width:0.8;"/>
   </g>
   <g id="patch_6">
    <path d="M 54 34.56 
L 388.8 34.56 
" style="fill:none;stroke:#000000;stroke-linecap:square;stroke-linejoin:miter;stroke-width:0.8;"/>
   </g>
   <g id="legend_1">
    <g id="patch_7">
     <path d="M 152.328125 247 
L 381.8 247 
Q 383.8 247 383.8 245 
L 383.8 201.13125 
Q 383.8 199.13125 381.8 199.13125 
L 152.328125 199.13125 
Q 150.328125 199.13125 150.328125 201.13125 
L 150.328125 245 
Q 150.328125 247 152.328125 247 
z
" style="fill:#ffffff;opacity:0.8;stroke:#cccccc;stroke-linejoin:miter;"/>
    </g>
    <g id="line2d_15">
     <path d="M 154.328125 207.229688 
L 174.328125 207.229688 
" style="fill:none;stroke:#ff0000;stroke-linecap:square;stroke-width:1.5;"/>
    </g>
    <g id="line2d_16"/>
    <g id="text_8">
     <!-- on_midOpenDSS_pandapower_Phase_A -->
     <defs>
      <path d="M 30.609375 48.390625 
Q 23.390625 48.390625 19.1875 42.75 
Q 14.984375 37.109375 14.984375 27.296875 
Q 14.984375 17.484375 19.15625 11.84375 
Q 23.34375 6.203125 30.609375 6.203125 
Q 37.796875 6.203125 41.984375 11.859375 
Q 46.1875 17.53125 46.1875 27.296875 
Q 46.1875 37.015625 41.984375 42.703125 
Q 37.796875 48.390625 30.609375 48.390625 
z
M 30.609375 56 
Q 42.328125 56 49.015625 48.375 
Q 55.71875 40.765625 55.71875 27.296875 
Q 55.71875 13.875 49.015625 6.21875 
Q 42.328125 -1.421875 30.609375 -1.421875 
Q 18.84375 -1.421875 12.171875 6.21875 
Q 5.515625 13.875 5.515625 27.296875 
Q 5.515625 40.765625 12.171875 48.375 
Q 18.84375 56 30.609375 56 
z
" id="DejaVuSans-111"/>
      <path d="M 54.890625 33.015625 
L 54.890625 0 
L 45.90625 0 
L 45.90625 32.71875 
Q 45.90625 40.484375 42.875 44.328125 
Q 39.84375 48.1875 33.796875 48.1875 
Q 26.515625 48.1875 22.3125 43.546875 
Q 18.109375 38.921875 18.109375 30.90625 
L 18.109375 0 
L 9.078125 0 
L 9.078125 54.6875 
L 18.109375 54.6875 
L 18.109375 46.1875 
Q 21.34375 51.125 25.703125 53.5625 
Q 30.078125 56 35.796875 56 
Q 45.21875 56 50.046875 50.171875 
Q 54.890625 44.34375 54.890625 33.015625 
z
" id="DejaVuSans-110"/>
      <path d="M 50.984375 -16.609375 
L 50.984375 -23.578125 
L -0.984375 -23.578125 
L -0.984375 -16.609375 
z
" id="DejaVuSans-95"/>
      <path d="M 52 44.1875 
Q 55.375 50.25 60.0625 53.125 
Q 64.75 56 71.09375 56 
Q 79.640625 56 84.28125 50.015625 
Q 88.921875 44.046875 88.921875 33.015625 
L 88.921875 0 
L 79.890625 0 
L 79.890625 32.71875 
Q 79.890625 40.578125 77.09375 44.375 
Q 74.3125 48.1875 68.609375 48.1875 
Q 61.625 48.1875 57.5625 43.546875 
Q 53.515625 38.921875 53.515625 30.90625 
L 53.515625 0 
L 44.484375 0 
L 44.484375 32.71875 
Q 44.484375 40.625 41.703125 44.40625 
Q 38.921875 48.1875 33.109375 48.1875 
Q 26.21875 48.1875 22.15625 43.53125 
Q 18.109375 38.875 18.109375 30.90625 
L 18.109375 0 
L 9.078125 0 
L 9.078125 54.6875 
L 18.109375 54.6875 
L 18.109375 46.1875 
Q 21.1875 51.21875 25.484375 53.609375 
Q 29.78125 56 35.6875 56 
Q 41.65625 56 45.828125 52.96875 
Q 50 49.953125 52 44.1875 
z
" id="DejaVuSans-109"/>
      <path d="M 9.421875 54.6875 
L 18.40625 54.6875 
L 18.40625 0 
L 9.421875 0 
z
M 9.421875 75.984375 
L 18.40625 75.984375 
L 18.40625 64.59375 
L 9.421875 64.59375 
z
" id="DejaVuSans-105"/>
      <path d="M 45.40625 46.390625 
L 45.40625 75.984375 
L 54.390625 75.984375 
L 54.390625 0 
L 45.40625 0 
L 45.40625 8.203125 
Q 42.578125 3.328125 38.25 0.953125 
Q 33.9375 -1.421875 27.875 -1.421875 
Q 17.96875 -1.421875 11.734375 6.484375 
Q 5.515625 14.40625 5.515625 27.296875 
Q 5.515625 40.1875 11.734375 48.09375 
Q 17.96875 56 27.875 56 
Q 33.9375 56 38.25 53.625 
Q 42.578125 51.265625 45.40625 46.390625 
z
M 14.796875 27.296875 
Q 14.796875 17.390625 18.875 11.75 
Q 22.953125 6.109375 30.078125 6.109375 
Q 37.203125 6.109375 41.296875 11.75 
Q 45.40625 17.390625 45.40625 27.296875 
Q 45.40625 37.203125 41.296875 42.84375 
Q 37.203125 48.484375 30.078125 48.484375 
Q 22.953125 48.484375 18.875 42.84375 
Q 14.796875 37.203125 14.796875 27.296875 
z
" id="DejaVuSans-100"/>
      <path d="M 39.40625 66.21875 
Q 28.65625 66.21875 22.328125 58.203125 
Q 16.015625 50.203125 16.015625 36.375 
Q 16.015625 22.609375 22.328125 14.59375 
Q 28.65625 6.59375 39.40625 6.59375 
Q 50.140625 6.59375 56.421875 14.59375 
Q 62.703125 22.609375 62.703125 36.375 
Q 62.703125 50.203125 56.421875 58.203125 
Q 50.140625 66.21875 39.40625 66.21875 
z
M 39.40625 74.21875 
Q 54.734375 74.21875 63.90625 63.9375 
Q 73.09375 53.65625 73.09375 36.375 
Q 73.09375 19.140625 63.90625 8.859375 
Q 54.734375 -1.421875 39.40625 -1.421875 
Q 24.03125 -1.421875 14.8125 8.828125 
Q 5.609375 19.09375 5.609375 36.375 
Q 5.609375 53.65625 14.8125 63.9375 
Q 24.03125 74.21875 39.40625 74.21875 
z
" id="DejaVuSans-79"/>
      <path d="M 18.109375 8.203125 
L 18.109375 -20.796875 
L 9.078125 -20.796875 
L 9.078125 54.6875 
L 18.109375 54.6875 
L 18.109375 46.390625 
Q 20.953125 51.265625 25.265625 53.625 
Q 29.59375 56 35.59375 56 
Q 45.5625 56 51.78125 48.09375 
Q 58.015625 40.1875 58.015625 27.296875 
Q 58.015625 14.40625 51.78125 6.484375 
Q 45.5625 -1.421875 35.59375 -1.421875 
Q 29.59375 -1.421875 25.265625 0.953125 
Q 20.953125 3.328125 18.109375 8.203125 
z
M 48.6875 27.296875 
Q 48.6875 37.203125 44.609375 42.84375 
Q 40.53125 48.484375 33.40625 48.484375 
Q 26.265625 48.484375 22.1875 42.84375 
Q 18.109375 37.203125 18.109375 27.296875 
Q 18.109375 17.390625 22.1875 11.75 
Q 26.265625 6.109375 33.40625 6.109375 
Q 40.53125 6.109375 44.609375 11.75 
Q 48.6875 17.390625 48.6875 27.296875 
z
" id="DejaVuSans-112"/>
      <path d="M 56.203125 29.59375 
L 56.203125 25.203125 
L 14.890625 25.203125 
Q 15.484375 15.921875 20.484375 11.0625 
Q 25.484375 6.203125 34.421875 6.203125 
Q 39.59375 6.203125 44.453125 7.46875 
Q 49.3125 8.734375 54.109375 11.28125 
L 54.109375 2.78125 
Q 49.265625 0.734375 44.1875 -0.34375 
Q 39.109375 -1.421875 33.890625 -1.421875 
Q 20.796875 -1.421875 13.15625 6.1875 
Q 5.515625 13.8125 5.515625 26.8125 
Q 5.515625 40.234375 12.765625 48.109375 
Q 20.015625 56 32.328125 56 
Q 43.359375 56 49.78125 48.890625 
Q 56.203125 41.796875 56.203125 29.59375 
z
M 47.21875 32.234375 
Q 47.125 39.59375 43.09375 43.984375 
Q 39.0625 48.390625 32.421875 48.390625 
Q 24.90625 48.390625 20.390625 44.140625 
Q 15.875 39.890625 15.1875 32.171875 
z
" id="DejaVuSans-101"/>
      <path d="M 19.671875 64.796875 
L 19.671875 8.109375 
L 31.59375 8.109375 
Q 46.6875 8.109375 53.6875 14.9375 
Q 60.6875 21.78125 60.6875 36.53125 
Q 60.6875 51.171875 53.6875 57.984375 
Q 46.6875 64.796875 31.59375 64.796875 
z
M 9.8125 72.90625 
L 30.078125 72.90625 
Q 51.265625 72.90625 61.171875 64.09375 
Q 71.09375 55.28125 71.09375 36.53125 
Q 71.09375 17.671875 61.125 8.828125 
Q 51.171875 0 30.078125 0 
L 9.8125 0 
z
" id="DejaVuSans-68"/>
      <path d="M 53.515625 70.515625 
L 53.515625 60.890625 
Q 47.90625 63.578125 42.921875 64.890625 
Q 37.9375 66.21875 33.296875 66.21875 
Q 25.25 66.21875 20.875 63.09375 
Q 16.5 59.96875 16.5 54.203125 
Q 16.5 49.359375 19.40625 46.890625 
Q 22.3125 44.4375 30.421875 42.921875 
L 36.375 41.703125 
Q 47.40625 39.59375 52.65625 34.296875 
Q 57.90625 29 57.90625 20.125 
Q 57.90625 9.515625 50.796875 4.046875 
Q 43.703125 -1.421875 29.984375 -1.421875 
Q 24.8125 -1.421875 18.96875 -0.25 
Q 13.140625 0.921875 6.890625 3.21875 
L 6.890625 13.375 
Q 12.890625 10.015625 18.65625 8.296875 
Q 24.421875 6.59375 29.984375 6.59375 
Q 38.421875 6.59375 43.015625 9.90625 
Q 47.609375 13.234375 47.609375 19.390625 
Q 47.609375 24.75 44.3125 27.78125 
Q 41.015625 30.8125 33.5 32.328125 
L 27.484375 33.5 
Q 16.453125 35.6875 11.515625 40.375 
Q 6.59375 45.0625 6.59375 53.421875 
Q 6.59375 63.09375 13.40625 68.65625 
Q 20.21875 74.21875 32.171875 74.21875 
Q 37.3125 74.21875 42.625 73.28125 
Q 47.953125 72.359375 53.515625 70.515625 
z
" id="DejaVuSans-83"/>
      <path d="M 34.28125 27.484375 
Q 23.390625 27.484375 19.1875 25 
Q 14.984375 22.515625 14.984375 16.5 
Q 14.984375 11.71875 18.140625 8.90625 
Q 21.296875 6.109375 26.703125 6.109375 
Q 34.1875 6.109375 38.703125 11.40625 
Q 43.21875 16.703125 43.21875 25.484375 
L 43.21875 27.484375 
z
M 52.203125 31.203125 
L 52.203125 0 
L 43.21875 0 
L 43.21875 8.296875 
Q 40.140625 3.328125 35.546875 0.953125 
Q 30.953125 -1.421875 24.3125 -1.421875 
Q 15.921875 -1.421875 10.953125 3.296875 
Q 6 8.015625 6 15.921875 
Q 6 25.140625 12.171875 29.828125 
Q 18.359375 34.515625 30.609375 34.515625 
L 43.21875 34.515625 
L 43.21875 35.40625 
Q 43.21875 41.609375 39.140625 45 
Q 35.0625 48.390625 27.6875 48.390625 
Q 23 48.390625 18.546875 47.265625 
Q 14.109375 46.140625 10.015625 43.890625 
L 10.015625 52.203125 
Q 14.9375 54.109375 19.578125 55.046875 
Q 24.21875 56 28.609375 56 
Q 40.484375 56 46.34375 49.84375 
Q 52.203125 43.703125 52.203125 31.203125 
z
" id="DejaVuSans-97"/>
      <path d="M 4.203125 54.6875 
L 13.1875 54.6875 
L 24.421875 12.015625 
L 35.59375 54.6875 
L 46.1875 54.6875 
L 57.421875 12.015625 
L 68.609375 54.6875 
L 77.59375 54.6875 
L 63.28125 0 
L 52.6875 0 
L 40.921875 44.828125 
L 29.109375 0 
L 18.5 0 
z
" id="DejaVuSans-119"/>
      <path d="M 41.109375 46.296875 
Q 39.59375 47.171875 37.8125 47.578125 
Q 36.03125 48 33.890625 48 
Q 26.265625 48 22.1875 43.046875 
Q 18.109375 38.09375 18.109375 28.8125 
L 18.109375 0 
L 9.078125 0 
L 9.078125 54.6875 
L 18.109375 54.6875 
L 18.109375 46.1875 
Q 20.953125 51.171875 25.484375 53.578125 
Q 30.03125 56 36.53125 56 
Q 37.453125 56 38.578125 55.875 
Q 39.703125 55.765625 41.0625 55.515625 
z
" id="DejaVuSans-114"/>
      <path d="M 19.671875 64.796875 
L 19.671875 37.40625 
L 32.078125 37.40625 
Q 38.96875 37.40625 42.71875 40.96875 
Q 46.484375 44.53125 46.484375 51.125 
Q 46.484375 57.671875 42.71875 61.234375 
Q 38.96875 64.796875 32.078125 64.796875 
z
M 9.8125 72.90625 
L 32.078125 72.90625 
Q 44.34375 72.90625 50.609375 67.359375 
Q 56.890625 61.8125 56.890625 51.125 
Q 56.890625 40.328125 50.609375 34.8125 
Q 44.34375 29.296875 32.078125 29.296875 
L 19.671875 29.296875 
L 19.671875 0 
L 9.8125 0 
z
" id="DejaVuSans-80"/>
      <path d="M 54.890625 33.015625 
L 54.890625 0 
L 45.90625 0 
L 45.90625 32.71875 
Q 45.90625 40.484375 42.875 44.328125 
Q 39.84375 48.1875 33.796875 48.1875 
Q 26.515625 48.1875 22.3125 43.546875 
Q 18.109375 38.921875 18.109375 30.90625 
L 18.109375 0 
L 9.078125 0 
L 9.078125 75.984375 
L 18.109375 75.984375 
L 18.109375 46.1875 
Q 21.34375 51.125 25.703125 53.5625 
Q 30.078125 56 35.796875 56 
Q 45.21875 56 50.046875 50.171875 
Q 54.890625 44.34375 54.890625 33.015625 
z
" id="DejaVuSans-104"/>
      <path d="M 34.1875 63.1875 
L 20.796875 26.90625 
L 47.609375 26.90625 
z
M 28.609375 72.90625 
L 39.796875 72.90625 
L 67.578125 0 
L 57.328125 0 
L 50.6875 18.703125 
L 17.828125 18.703125 
L 11.1875 0 
L 0.78125 0 
z
" id="DejaVuSans-65"/>
     </defs>
     <g transform="translate(182.328125 210.729688)scale(0.1 -0.1)">
      <use xlink:href="#DejaVuSans-111"/>
      <use x="61.181641" xlink:href="#DejaVuSans-110"/>
      <use x="124.560547" xlink:href="#DejaVuSans-95"/>
      <use x="174.560547" xlink:href="#DejaVuSans-109"/>
      <use x="271.972656" xlink:href="#DejaVuSans-105"/>
      <use x="299.755859" xlink:href="#DejaVuSans-100"/>
      <use x="363.232422" xlink:href="#DejaVuSans-79"/>
      <use x="441.943359" xlink:href="#DejaVuSans-112"/>
      <use x="505.419922" xlink:href="#DejaVuSans-101"/>
      <use x="566.943359" xlink:href="#DejaVuSans-110"/>
      <use x="630.322266" xlink:href="#DejaVuSans-68"/>
      <use x="707.324219" xlink:href="#DejaVuSans-83"/>
      <use x="770.800781" xlink:href="#DejaVuSans-83"/>
      <use x="834.277344" xlink:href="#DejaVuSans-95"/>
      <use x="884.277344" xlink:href="#DejaVuSans-112"/>
      <use x="947.753906" xlink:href="#DejaVuSans-97"/>
      <use x="1009.033203" xlink:href="#DejaVuSans-110"/>
      <use x="1072.412109" xlink:href="#DejaVuSans-100"/>
      <use x="1135.888672" xlink:href="#DejaVuSans-97"/>
      <use x="1197.167969" xlink:href="#DejaVuSans-112"/>
      <use x="1260.644531" xlink:href="#DejaVuSans-111"/>
      <use x="1321.826172" xlink:href="#DejaVuSans-119"/>
      <use x="1403.613281" xlink:href="#DejaVuSans-101"/>
      <use x="1465.136719" xlink:href="#DejaVuSans-114"/>
      <use x="1506.25" xlink:href="#DejaVuSans-95"/>
      <use x="1556.25" xlink:href="#DejaVuSans-80"/>
      <use x="1616.552734" xlink:href="#DejaVuSans-104"/>
      <use x="1679.931641" xlink:href="#DejaVuSans-97"/>
      <use x="1741.210938" xlink:href="#DejaVuSans-115"/>
      <use x="1793.310547" xlink:href="#DejaVuSans-101"/>
      <use x="1854.833984" xlink:href="#DejaVuSans-95"/>
      <use x="1904.833984" xlink:href="#DejaVuSans-65"/>
     </g>
    </g>
    <g id="line2d_17">
     <path d="M 154.328125 222.185937 
L 174.328125 222.185937 
" style="fill:none;stroke:#ffff00;stroke-linecap:square;stroke-width:1.5;"/>
    </g>
    <g id="line2d_18"/>
    <g id="text_9">
     <!-- on_midOpenDSS_pandapower_Phase_B -->
     <g transform="translate(182.328125 225.685937)scale(0.1 -0.1)">
      <use xlink:href="#DejaVuSans-111"/>
      <use x="61.181641" xlink:href="#DejaVuSans-110"/>
      <use x="124.560547" xlink:href="#DejaVuSans-95"/>
      <use x="174.560547" xlink:href="#DejaVuSans-109"/>
      <use x="271.972656" xlink:href="#DejaVuSans-105"/>
      <use x="299.755859" xlink:href="#DejaVuSans-100"/>
      <use x="363.232422" xlink:href="#DejaVuSans-79"/>
      <use x="441.943359" xlink:href="#DejaVuSans-112"/>
      <use x="505.419922" xlink:href="#DejaVuSans-101"/>
      <use x="566.943359" xlink:href="#DejaVuSans-110"/>
      <use x="630.322266" xlink:href="#DejaVuSans-68"/>
      <use x="707.324219" xlink:href="#DejaVuSans-83"/>
      <use x="770.800781" xlink:href="#DejaVuSans-83"/>
      <use x="834.277344" xlink:href="#DejaVuSans-95"/>
      <use x="884.277344" xlink:href="#DejaVuSans-112"/>
      <use x="947.753906" xlink:href="#DejaVuSans-97"/>
      <use x="1009.033203" xlink:href="#DejaVuSans-110"/>
      <use x="1072.412109" xlink:href="#DejaVuSans-100"/>
      <use x="1135.888672" xlink:href="#DejaVuSans-97"/>
      <use x="1197.167969" xlink:href="#DejaVuSans-112"/>
      <use x="1260.644531" xlink:href="#DejaVuSans-111"/>
      <use x="1321.826172" xlink:href="#DejaVuSans-119"/>
      <use x="1403.613281" xlink:href="#DejaVuSans-101"/>
      <use x="1465.136719" xlink:href="#DejaVuSans-114"/>
      <use x="1506.25" xlink:href="#DejaVuSans-95"/>
      <use x="1556.25" xlink:href="#DejaVuSans-80"/>
      <use x="1616.552734" xlink:href="#DejaVuSans-104"/>
      <use x="1679.931641" xlink:href="#DejaVuSans-97"/>
      <use x="1741.210938" xlink:href="#DejaVuSans-115"/>
      <use x="1793.310547" xlink:href="#DejaVuSans-101"/>
      <use x="1854.833984" xlink:href="#DejaVuSans-95"/>
      <use x="1904.833984" xlink:href="#DejaVuSans-66"/>
     </g>
    </g>
    <g id="line2d_19">
     <path d="M 154.328125 237.142188 
L 174.328125 237.142188 
" style="fill:none;stroke:#0000ff;stroke-linecap:square;stroke-width:1.5;"/>
    </g>
    <g id="line2d_20"/>
    <g id="text_10">
     <!-- on_midOpenDSS_pandapower_Phase_C -->
     <defs>
      <path d="M 64.40625 67.28125 
L 64.40625 56.890625 
Q 59.421875 61.53125 53.78125 63.8125 
Q 48.140625 66.109375 41.796875 66.109375 
Q 29.296875 66.109375 22.65625 58.46875 
Q 16.015625 50.828125 16.015625 36.375 
Q 16.015625 21.96875 22.65625 14.328125 
Q 29.296875 6.6875 41.796875 6.6875 
Q 48.140625 6.6875 53.78125 8.984375 
Q 59.421875 11.28125 64.40625 15.921875 
L 64.40625 5.609375 
Q 59.234375 2.09375 53.4375 0.328125 
Q 47.65625 -1.421875 41.21875 -1.421875 
Q 24.65625 -1.421875 15.125 8.703125 
Q 5.609375 18.84375 5.609375 36.375 
Q 5.609375 53.953125 15.125 64.078125 
Q 24.65625 74.21875 41.21875 74.21875 
Q 47.75 74.21875 53.53125 72.484375 
Q 59.328125 70.75 64.40625 67.28125 
z
" id="DejaVuSans-67"/>
     </defs>
     <g transform="translate(182.328125 240.642188)scale(0.1 -0.1)">
      <use xlink:href="#DejaVuSans-111"/>
      <use x="61.181641" xlink:href="#DejaVuSans-110"/>
      <use x="124.560547" xlink:href="#DejaVuSans-95"/>
      <use x="174.560547" xlink:href="#DejaVuSans-109"/>
      <use x="271.972656" xlink:href="#DejaVuSans-105"/>
      <use x="299.755859" xlink:href="#DejaVuSans-100"/>
      <use x="363.232422" xlink:href="#DejaVuSans-79"/>
      <use x="441.943359" xlink:href="#DejaVuSans-112"/>
      <use x="505.419922" xlink:href="#DejaVuSans-101"/>
      <use x="566.943359" xlink:href="#DejaVuSans-110"/>
      <use x="630.322266" xlink:href="#DejaVuSans-68"/>
      <use x="707.324219" xlink:href="#DejaVuSans-83"/>
      <use x="770.800781" xlink:href="#DejaVuSans-83"/>
      <use x="834.277344" xlink:href="#DejaVuSans-95"/>
      <use x="884.277344" xlink:href="#DejaVuSans-112"/>
      <use x="947.753906" xlink:href="#DejaVuSans-97"/>
      <use x="1009.033203" xlink:href="#DejaVuSans-110"/>
      <use x="1072.412109" xlink:href="#DejaVuSans-100"/>
      <use x="1135.888672" xlink:href="#DejaVuSans-97"/>
      <use x="1197.167969" xlink:href="#DejaVuSans-112"/>
      <use x="1260.644531" xlink:href="#DejaVuSans-111"/>
      <use x="1321.826172" xlink:href="#DejaVuSans-119"/>
      <use x="1403.613281" xlink:href="#DejaVuSans-101"/>
      <use x="1465.136719" xlink:href="#DejaVuSans-114"/>
      <use x="1506.25" xlink:href="#DejaVuSans-95"/>
      <use x="1556.25" xlink:href="#DejaVuSans-80"/>
      <use x="1616.552734" xlink:href="#DejaVuSans-104"/>
      <use x="1679.931641" xlink:href="#DejaVuSans-97"/>
      <use x="1741.210938" xlink:href="#DejaVuSans-115"/>
      <use x="1793.310547" xlink:href="#DejaVuSans-101"/>
      <use x="1854.833984" xlink:href="#DejaVuSans-95"/>
      <use x="1904.833984" xlink:href="#DejaVuSans-67"/>
     </g>
    </g>
   </g>
  </g>
 </g>
 <defs>
  <clipPath id="p28f5063582">
   <rect height="217.44" width="334.8" x="54" y="34.56"/>
  </clipPath>
 </defs>
</svg>
