<?xml version="1.0" encoding="utf-8" standalone="no"?>
<!DOCTYPE svg PUBLIC "-//W3C//DTD SVG 1.1//EN"
  "http://www.w3.org/Graphics/SVG/1.1/DTD/svg11.dtd">
<!-- Created with matplotlib (https://matplotlib.org/) -->
<svg height="288pt" version="1.1" viewBox="0 0 432 288" width="432pt" xmlns="http://www.w3.org/2000/svg" xmlns:xlink="http://www.w3.org/1999/xlink">
 <defs>
  <style type="text/css">
*{stroke-linecap:butt;stroke-linejoin:round;}
  </style>
 </defs>
 <g id="figure_1">
  <g id="patch_1">
   <path d="M 0 288 
L 432 288 
L 432 0 
L 0 0 
z
" style="fill:#ffffff;"/>
  </g>
  <g id="axes_1">
   <g id="patch_2">
    <path d="M 54 252 
L 388.8 252 
L 388.8 34.56 
L 54 34.56 
z
" style="fill:#ffffff;"/>
   </g>
   <g id="matplotlib.axis_1">
    <g id="xtick_1">
     <g id="line2d_1">
      <defs>
       <path d="M 0 0 
L 0 3.5 
" id="mf354aa432d" style="stroke:#000000;stroke-width:0.8;"/>
      </defs>
      <g>
       <use style="stroke:#000000;stroke-width:0.8;" x="69.218182" xlink:href="#mf354aa432d" y="252"/>
      </g>
     </g>
    </g>
    <g id="xtick_2">
     <g id="line2d_2">
      <g>
       <use style="stroke:#000000;stroke-width:0.8;" x="136.406623" xlink:href="#mf354aa432d" y="252"/>
      </g>
     </g>
    </g>
    <g id="xtick_3">
     <g id="line2d_3">
      <g>
       <use style="stroke:#000000;stroke-width:0.8;" x="203.595063" xlink:href="#mf354aa432d" y="252"/>
      </g>
     </g>
    </g>
    <g id="xtick_4">
     <g id="line2d_4">
      <g>
       <use style="stroke:#000000;stroke-width:0.8;" x="270.783504" xlink:href="#mf354aa432d" y="252"/>
      </g>
     </g>
    </g>
    <g id="xtick_5">
     <g id="line2d_5">
      <g>
       <use style="stroke:#000000;stroke-width:0.8;" x="337.971945" xlink:href="#mf354aa432d" y="252"/>
      </g>
     </g>
    </g>
    <g id="text_1">
     <!-- Bus -->
     <defs>
      <path d="M 19.671875 34.8125 
L 19.671875 8.109375 
L 35.5 8.109375 
Q 43.453125 8.109375 47.28125 11.40625 
Q 51.125 14.703125 51.125 21.484375 
Q 51.125 28.328125 47.28125 31.5625 
Q 43.453125 34.8125 35.5 34.8125 
z
M 19.671875 64.796875 
L 19.671875 42.828125 
L 34.28125 42.828125 
Q 41.5 42.828125 45.03125 45.53125 
Q 48.578125 48.25 48.578125 53.8125 
Q 48.578125 59.328125 45.03125 62.0625 
Q 41.5 64.796875 34.28125 64.796875 
z
M 9.8125 72.90625 
L 35.015625 72.90625 
Q 46.296875 72.90625 52.390625 68.21875 
Q 58.5 63.53125 58.5 54.890625 
Q 58.5 48.1875 55.375 44.234375 
Q 52.25 40.28125 46.1875 39.3125 
Q 53.46875 37.75 57.5 32.78125 
Q 61.53125 27.828125 61.53125 20.40625 
Q 61.53125 10.640625 54.890625 5.3125 
Q 48.25 0 35.984375 0 
L 9.8125 0 
z
" id="DejaVuSans-66"/>
      <path d="M 8.5 21.578125 
L 8.5 54.6875 
L 17.484375 54.6875 
L 17.484375 21.921875 
Q 17.484375 14.15625 20.5 10.265625 
Q 23.53125 6.390625 29.59375 6.390625 
Q 36.859375 6.390625 41.078125 11.03125 
Q 45.3125 15.671875 45.3125 23.6875 
L 45.3125 54.6875 
L 54.296875 54.6875 
L 54.296875 0 
L 45.3125 0 
L 45.3125 8.40625 
Q 42.046875 3.421875 37.71875 1 
Q 33.40625 -1.421875 27.6875 -1.421875 
Q 18.265625 -1.421875 13.375 4.4375 
Q 8.5 10.296875 8.5 21.578125 
z
M 31.109375 56 
z
" id="DejaVuSans-117"/>
      <path d="M 44.28125 53.078125 
L 44.28125 44.578125 
Q 40.484375 46.53125 36.375 47.5 
Q 32.28125 48.484375 27.875 48.484375 
Q 21.1875 48.484375 17.84375 46.4375 
Q 14.5 44.390625 14.5 40.28125 
Q 14.5 37.15625 16.890625 35.375 
Q 19.28125 33.59375 26.515625 31.984375 
L 29.59375 31.296875 
Q 39.15625 29.25 43.1875 25.515625 
Q 47.21875 21.78125 47.21875 15.09375 
Q 47.21875 7.46875 41.1875 3.015625 
Q 35.15625 -1.421875 24.609375 -1.421875 
Q 20.21875 -1.421875 15.453125 -0.5625 
Q 10.6875 0.296875 5.421875 2 
L 5.421875 11.28125 
Q 10.40625 8.6875 15.234375 7.390625 
Q 20.0625 6.109375 24.8125 6.109375 
Q 31.15625 6.109375 34.5625 8.28125 
Q 37.984375 10.453125 37.984375 14.40625 
Q 37.984375 18.0625 35.515625 20.015625 
Q 33.0625 21.96875 24.703125 23.78125 
L 21.578125 24.515625 
Q 13.234375 26.265625 9.515625 29.90625 
Q 5.8125 33.546875 5.8125 39.890625 
Q 5.8125 47.609375 11.28125 51.796875 
Q 16.75 56 26.8125 56 
Q 31.78125 56 36.171875 55.265625 
Q 40.578125 54.546875 44.28125 53.078125 
z
" id="DejaVuSans-115"/>
     </defs>
     <g transform="translate(212.196094 270.598437)scale(0.1 -0.1)">
      <use xlink:href="#DejaVuSans-66"/>
      <use x="68.603516" xlink:href="#DejaVuSans-117"/>
      <use x="131.982422" xlink:href="#DejaVuSans-115"/>
     </g>
    </g>
   </g>
   <g id="matplotlib.axis_2">
    <g id="ytick_1">
     <g id="line2d_6">
      <defs>
       <path d="M 0 0 
L -3.5 0 
" id="m08d60c8e4f" style="stroke:#000000;stroke-width:0.8;"/>
      </defs>
      <g>
       <use style="stroke:#000000;stroke-width:0.8;" x="54" xlink:href="#m08d60c8e4f" y="242.130895"/>
      </g>
     </g>
     <g id="text_2">
      <!-- 0.00000 -->
      <defs>
       <path d="M 31.78125 66.40625 
Q 24.171875 66.40625 20.328125 58.90625 
Q 16.5 51.421875 16.5 36.375 
Q 16.5 21.390625 20.328125 13.890625 
Q 24.171875 6.390625 31.78125 6.390625 
Q 39.453125 6.390625 43.28125 13.890625 
Q 47.125 21.390625 47.125 36.375 
Q 47.125 51.421875 43.28125 58.90625 
Q 39.453125 66.40625 31.78125 66.40625 
z
M 31.78125 74.21875 
Q 44.046875 74.21875 50.515625 64.515625 
Q 56.984375 54.828125 56.984375 36.375 
Q 56.984375 17.96875 50.515625 8.265625 
Q 44.046875 -1.421875 31.78125 -1.421875 
Q 19.53125 -1.421875 13.0625 8.265625 
Q 6.59375 17.96875 6.59375 36.375 
Q 6.59375 54.828125 13.0625 64.515625 
Q 19.53125 74.21875 31.78125 74.21875 
z
" id="DejaVuSans-48"/>
       <path d="M 10.6875 12.40625 
L 21 12.40625 
L 21 0 
L 10.6875 0 
z
" id="DejaVuSans-46"/>
      </defs>
      <g transform="translate(5.646875 245.930114)scale(0.1 -0.1)">
       <use xlink:href="#DejaVuSans-48"/>
       <use x="63.623047" xlink:href="#DejaVuSans-46"/>
       <use x="95.410156" xlink:href="#DejaVuSans-48"/>
       <use x="159.033203" xlink:href="#DejaVuSans-48"/>
       <use x="222.65625" xlink:href="#DejaVuSans-48"/>
       <use x="286.279297" xlink:href="#DejaVuSans-48"/>
       <use x="349.902344" xlink:href="#DejaVuSans-48"/>
      </g>
     </g>
    </g>
    <g id="ytick_2">
     <g id="line2d_7">
      <g>
       <use style="stroke:#000000;stroke-width:0.8;" x="54" xlink:href="#m08d60c8e4f" y="212.648047"/>
      </g>
     </g>
     <g id="text_3">
      <!-- 0.00005 -->
      <defs>
       <path d="M 10.796875 72.90625 
L 49.515625 72.90625 
L 49.515625 64.59375 
L 19.828125 64.59375 
L 19.828125 46.734375 
Q 21.96875 47.46875 24.109375 47.828125 
Q 26.265625 48.1875 28.421875 48.1875 
Q 40.625 48.1875 47.75 41.5 
Q 54.890625 34.8125 54.890625 23.390625 
Q 54.890625 11.625 47.5625 5.09375 
Q 40.234375 -1.421875 26.90625 -1.421875 
Q 22.3125 -1.421875 17.546875 -0.640625 
Q 12.796875 0.140625 7.71875 1.703125 
L 7.71875 11.625 
Q 12.109375 9.234375 16.796875 8.0625 
Q 21.484375 6.890625 26.703125 6.890625 
Q 35.15625 6.890625 40.078125 11.328125 
Q 45.015625 15.765625 45.015625 23.390625 
Q 45.015625 31 40.078125 35.4375 
Q 35.15625 39.890625 26.703125 39.890625 
Q 22.75 39.890625 18.8125 39.015625 
Q 14.890625 38.140625 10.796875 36.28125 
z
" id="DejaVuSans-53"/>
      </defs>
      <g transform="translate(5.646875 216.447266)scale(0.1 -0.1)">
       <use xlink:href="#DejaVuSans-48"/>
       <use x="63.623047" xlink:href="#DejaVuSans-46"/>
       <use x="95.410156" xlink:href="#DejaVuSans-48"/>
       <use x="159.033203" xlink:href="#DejaVuSans-48"/>
       <use x="222.65625" xlink:href="#DejaVuSans-48"/>
       <use x="286.279297" xlink:href="#DejaVuSans-48"/>
       <use x="349.902344" xlink:href="#DejaVuSans-53"/>
      </g>
     </g>
    </g>
    <g id="ytick_3">
     <g id="line2d_8">
      <g>
       <use style="stroke:#000000;stroke-width:0.8;" x="54" xlink:href="#m08d60c8e4f" y="183.165199"/>
      </g>
     </g>
     <g id="text_4">
      <!-- 0.00010 -->
      <defs>
       <path d="M 12.40625 8.296875 
L 28.515625 8.296875 
L 28.515625 63.921875 
L 10.984375 60.40625 
L 10.984375 69.390625 
L 28.421875 72.90625 
L 38.28125 72.90625 
L 38.28125 8.296875 
L 54.390625 8.296875 
L 54.390625 0 
L 12.40625 0 
z
" id="DejaVuSans-49"/>
      </defs>
      <g transform="translate(5.646875 186.964418)scale(0.1 -0.1)">
       <use xlink:href="#DejaVuSans-48"/>
       <use x="63.623047" xlink:href="#DejaVuSans-46"/>
       <use x="95.410156" xlink:href="#DejaVuSans-48"/>
       <use x="159.033203" xlink:href="#DejaVuSans-48"/>
       <use x="222.65625" xlink:href="#DejaVuSans-48"/>
       <use x="286.279297" xlink:href="#DejaVuSans-49"/>
       <use x="349.902344" xlink:href="#DejaVuSans-48"/>
      </g>
     </g>
    </g>
    <g id="ytick_4">
     <g id="line2d_9">
      <g>
       <use style="stroke:#000000;stroke-width:0.8;" x="54" xlink:href="#m08d60c8e4f" y="153.682352"/>
      </g>
     </g>
     <g id="text_5">
      <!-- 0.00015 -->
      <g transform="translate(5.646875 157.48157)scale(0.1 -0.1)">
       <use xlink:href="#DejaVuSans-48"/>
       <use x="63.623047" xlink:href="#DejaVuSans-46"/>
       <use x="95.410156" xlink:href="#DejaVuSans-48"/>
       <use x="159.033203" xlink:href="#DejaVuSans-48"/>
       <use x="222.65625" xlink:href="#DejaVuSans-48"/>
       <use x="286.279297" xlink:href="#DejaVuSans-49"/>
       <use x="349.902344" xlink:href="#DejaVuSans-53"/>
      </g>
     </g>
    </g>
    <g id="ytick_5">
     <g id="line2d_10">
      <g>
       <use style="stroke:#000000;stroke-width:0.8;" x="54" xlink:href="#m08d60c8e4f" y="124.199504"/>
      </g>
     </g>
     <g id="text_6">
      <!-- 0.00020 -->
      <defs>
       <path d="M 19.1875 8.296875 
L 53.609375 8.296875 
L 53.609375 0 
L 7.328125 0 
L 7.328125 8.296875 
Q 12.9375 14.109375 22.625 23.890625 
Q 32.328125 33.6875 34.8125 36.53125 
Q 39.546875 41.84375 41.421875 45.53125 
Q 43.3125 49.21875 43.3125 52.78125 
Q 43.3125 58.59375 39.234375 62.25 
Q 35.15625 65.921875 28.609375 65.921875 
Q 23.96875 65.921875 18.8125 64.3125 
Q 13.671875 62.703125 7.8125 59.421875 
L 7.8125 69.390625 
Q 13.765625 71.78125 18.9375 73 
Q 24.125 74.21875 28.421875 74.21875 
Q 39.75 74.21875 46.484375 68.546875 
Q 53.21875 62.890625 53.21875 53.421875 
Q 53.21875 48.921875 51.53125 44.890625 
Q 49.859375 40.875 45.40625 35.40625 
Q 44.1875 33.984375 37.640625 27.21875 
Q 31.109375 20.453125 19.1875 8.296875 
z
" id="DejaVuSans-50"/>
      </defs>
      <g transform="translate(5.646875 127.998723)scale(0.1 -0.1)">
       <use xlink:href="#DejaVuSans-48"/>
       <use x="63.623047" xlink:href="#DejaVuSans-46"/>
       <use x="95.410156" xlink:href="#DejaVuSans-48"/>
       <use x="159.033203" xlink:href="#DejaVuSans-48"/>
       <use x="222.65625" xlink:href="#DejaVuSans-48"/>
       <use x="286.279297" xlink:href="#DejaVuSans-50"/>
       <use x="349.902344" xlink:href="#DejaVuSans-48"/>
      </g>
     </g>
    </g>
    <g id="ytick_6">
     <g id="line2d_11">
      <g>
       <use style="stroke:#000000;stroke-width:0.8;" x="54" xlink:href="#m08d60c8e4f" y="94.716656"/>
      </g>
     </g>
     <g id="text_7">
      <!-- 0.00025 -->
      <g transform="translate(5.646875 98.515875)scale(0.1 -0.1)">
       <use xlink:href="#DejaVuSans-48"/>
       <use x="63.623047" xlink:href="#DejaVuSans-46"/>
       <use x="95.410156" xlink:href="#DejaVuSans-48"/>
       <use x="159.033203" xlink:href="#DejaVuSans-48"/>
       <use x="222.65625" xlink:href="#DejaVuSans-48"/>
       <use x="286.279297" xlink:href="#DejaVuSans-50"/>
       <use x="349.902344" xlink:href="#DejaVuSans-53"/>
      </g>
     </g>
    </g>
    <g id="ytick_7">
     <g id="line2d_12">
      <g>
       <use style="stroke:#000000;stroke-width:0.8;" x="54" xlink:href="#m08d60c8e4f" y="65.233808"/>
      </g>
     </g>
     <g id="text_8">
      <!-- 0.00030 -->
      <defs>
       <path d="M 40.578125 39.3125 
Q 47.65625 37.796875 51.625 33 
Q 55.609375 28.21875 55.609375 21.1875 
Q 55.609375 10.40625 48.1875 4.484375 
Q 40.765625 -1.421875 27.09375 -1.421875 
Q 22.515625 -1.421875 17.65625 -0.515625 
Q 12.796875 0.390625 7.625 2.203125 
L 7.625 11.71875 
Q 11.71875 9.328125 16.59375 8.109375 
Q 21.484375 6.890625 26.8125 6.890625 
Q 36.078125 6.890625 40.9375 10.546875 
Q 45.796875 14.203125 45.796875 21.1875 
Q 45.796875 27.640625 41.28125 31.265625 
Q 36.765625 34.90625 28.71875 34.90625 
L 20.21875 34.90625 
L 20.21875 43.015625 
L 29.109375 43.015625 
Q 36.375 43.015625 40.234375 45.921875 
Q 44.09375 48.828125 44.09375 54.296875 
Q 44.09375 59.90625 40.109375 62.90625 
Q 36.140625 65.921875 28.71875 65.921875 
Q 24.65625 65.921875 20.015625 65.03125 
Q 15.375 64.15625 9.8125 62.3125 
L 9.8125 71.09375 
Q 15.4375 72.65625 20.34375 73.4375 
Q 25.25 74.21875 29.59375 74.21875 
Q 40.828125 74.21875 47.359375 69.109375 
Q 53.90625 64.015625 53.90625 55.328125 
Q 53.90625 49.265625 50.4375 45.09375 
Q 46.96875 40.921875 40.578125 39.3125 
z
" id="DejaVuSans-51"/>
      </defs>
      <g transform="translate(5.646875 69.033027)scale(0.1 -0.1)">
       <use xlink:href="#DejaVuSans-48"/>
       <use x="63.623047" xlink:href="#DejaVuSans-46"/>
       <use x="95.410156" xlink:href="#DejaVuSans-48"/>
       <use x="159.033203" xlink:href="#DejaVuSans-48"/>
       <use x="222.65625" xlink:href="#DejaVuSans-48"/>
       <use x="286.279297" xlink:href="#DejaVuSans-51"/>
       <use x="349.902344" xlink:href="#DejaVuSans-48"/>
      </g>
     </g>
    </g>
    <g id="ytick_8">
     <g id="line2d_13">
      <g>
       <use style="stroke:#000000;stroke-width:0.8;" x="54" xlink:href="#m08d60c8e4f" y="35.750961"/>
      </g>
     </g>
     <g id="text_9">
      <!-- 0.00035 -->
      <g transform="translate(5.646875 39.550179)scale(0.1 -0.1)">
       <use xlink:href="#DejaVuSans-48"/>
       <use x="63.623047" xlink:href="#DejaVuSans-46"/>
       <use x="95.410156" xlink:href="#DejaVuSans-48"/>
       <use x="159.033203" xlink:href="#DejaVuSans-48"/>
       <use x="222.65625" xlink:href="#DejaVuSans-48"/>
       <use x="286.279297" xlink:href="#DejaVuSans-51"/>
       <use x="349.902344" xlink:href="#DejaVuSans-53"/>
      </g>
     </g>
    </g>
   </g>
   <g id="line2d_14">
    <path clip-path="url(#p104b888654)" d="M 69.218182 171.649651 
L 69.890066 127.082179 
L 70.561951 122.92459 
L 70.897893 180.136974 
L 71.233835 177.374821 
L 71.905719 157.757713 
L 72.577604 144.592753 
L 73.249488 135.690924 
L 73.58543 133.040478 
L 73.921373 126.442055 
L 74.257315 131.955022 
L 74.593257 131.955022 
L 74.929199 126.100179 
L 75.265141 131.955022 
L 75.601084 121.640132 
L 75.937026 131.955022 
L 76.272968 116.63202 
L 76.60891 131.955022 
L 76.944852 167.443496 
L 77.280795 131.955022 
L 77.616737 152.608998 
L 78.288621 116.351457 
L 78.624564 126.567752 
L 78.960506 131.955022 
L 79.296448 115.685679 
L 79.63239 166.235374 
L 80.304275 131.955022 
L 80.640217 173.126697 
L 80.976159 165.927819 
L 81.648043 134.403098 
L 81.983986 131.955022 
L 82.319928 165.48561 
L 82.65587 147.730024 
L 82.991812 147.885321 
L 83.327754 161.613919 
L 83.663697 134.403098 
L 83.999639 131.955022 
L 84.335581 164.918507 
L 84.671523 147.730803 
L 85.007465 148.263157 
L 85.343408 152.026063 
L 85.67935 134.403098 
L 86.015292 131.955022 
L 86.351234 163.537357 
L 86.687176 147.731629 
L 87.023119 142.142028 
L 87.359061 152.026063 
L 87.695003 134.403098 
L 88.030945 131.955022 
L 88.366887 162.35484 
L 88.70283 147.732416 
L 89.038772 156.335672 
L 89.374714 152.026063 
L 89.710656 134.403098 
L 90.046598 131.955022 
L 90.382541 156.68628 
L 90.718483 147.732887 
L 91.054425 148.953618 
L 91.390367 119.215011 
L 91.726309 152.026063 
L 92.062252 134.403098 
L 92.398194 131.955022 
L 92.734136 136.649863 
L 93.070078 147.733811 
L 93.40602 120.703097 
L 93.741963 175.975862 
L 94.749789 134.403098 
L 95.085731 131.955022 
L 95.421674 147.738496 
L 95.757616 149.26748 
L 96.093558 152.026063 
L 96.4295 134.403098 
L 96.765443 131.955022 
L 97.101385 147.756148 
L 97.437327 142.632919 
L 97.773269 152.026063 
L 98.109211 134.403098 
L 98.781096 129.179076 
L 99.117038 152.026063 
L 99.45298 134.403098 
L 99.788922 131.955022 
L 100.124865 175.457173 
L 100.460807 134.403098 
L 100.796749 131.955022 
L 101.132691 168.082667 
L 101.468633 134.403098 
L 101.804576 131.955022 
L 102.140518 163.212356 
L 102.47646 134.403098 
L 102.812402 131.955022 
L 103.148344 156.487817 
L 103.484287 134.403098 
L 103.820229 131.955022 
L 104.156171 156.491281 
L 104.492113 152.084642 
L 104.828055 134.403098 
L 105.163998 156.495472 
L 105.49994 149.587824 
L 105.835882 134.403098 
L 106.171824 156.50033 
L 106.507766 169.001547 
L 106.843709 134.403098 
L 107.179651 156.507737 
L 107.515593 159.132233 
L 107.851535 134.403098 
L 108.187477 156.51726 
L 108.52342 158.843099 
L 108.859362 132.368715 
L 109.195304 134.403098 
L 109.531246 156.524097 
L 109.867188 158.843099 
L 110.203131 158.702322 
L 110.539073 143.069891 
L 110.875015 134.403098 
L 111.210957 156.533759 
L 111.546899 158.843099 
L 111.882842 158.040997 
L 112.218784 121.365358 
L 112.554726 134.403098 
L 112.890668 156.544212 
L 113.22661 158.843099 
L 113.562553 148.905535 
L 113.898495 158.601086 
L 114.234437 173.873359 
L 114.570379 134.403098 
L 114.906321 156.554072 
L 115.242264 158.843099 
L 115.578206 148.118793 
L 116.25009 166.5839 
L 116.586033 134.403098 
L 116.921975 156.570283 
L 117.257917 158.843099 
L 117.593859 147.34685 
L 117.929801 159.2968 
L 118.265744 159.728296 
L 118.601686 134.403098 
L 118.937628 156.647387 
L 119.27357 158.843099 
L 119.609512 146.723539 
L 119.945455 159.43881 
L 120.281397 159.34324 
L 120.617339 151.729117 
L 120.953281 134.403098 
L 121.289223 156.664188 
L 121.625166 158.843099 
L 121.961108 145.787998 
L 122.29705 159.815428 
L 122.632992 159.346067 
L 122.968934 149.427394 
L 123.304877 134.403098 
L 123.640819 156.717603 
L 123.976761 156.625777 
L 124.312703 158.843099 
L 124.648645 144.660099 
L 124.984588 159.946248 
L 125.32053 159.348649 
L 125.656472 136.350941 
L 125.992414 134.403098 
L 126.328356 156.727694 
L 126.664299 156.574824 
L 127.000241 158.843099 
L 127.336183 143.807995 
L 127.672125 159.946248 
L 128.008067 159.979058 
L 128.34401 159.349722 
L 128.679952 128.965282 
L 129.015894 156.748514 
L 129.351836 156.081906 
L 129.687778 156.77291 
L 130.023721 158.843099 
L 130.359663 142.821962 
L 130.695605 159.946248 
L 131.031547 159.982601 
L 131.367489 159.352034 
L 131.703432 123.482705 
L 132.039374 154.142142 
L 132.375316 157.592745 
L 132.711258 158.843099 
L 133.0472 141.894836 
L 133.383143 159.946248 
L 134.055027 159.986029 
L 134.390969 159.357923 
L 134.726911 118.553612 
L 135.062854 150.678788 
L 135.398796 157.680018 
L 135.734738 157.634913 
L 136.07068 158.843099 
L 136.406623 140.897304 
L 136.742565 159.946248 
L 137.414449 159.98877 
L 137.750391 159.361379 
L 138.086334 171.395976 
L 138.422276 140.291273 
L 139.09416 157.900667 
L 139.430102 157.640873 
L 139.766045 158.843099 
L 140.101987 139.372376 
L 140.437929 159.946248 
L 140.773871 159.990954 
L 141.109813 159.363799 
L 141.445756 160.096389 
L 141.781698 165.257256 
L 142.11764 150.901698 
L 142.453582 157.64568 
L 142.789524 158.843099 
L 143.125467 135.207962 
L 143.461409 159.946248 
L 143.797351 159.995571 
L 144.133293 159.368454 
L 144.469235 150.244941 
L 145.14112 150.952913 
L 145.477062 157.649522 
L 145.813004 134.85289 
L 146.148946 159.946248 
L 146.484889 159.999207 
L 146.820831 159.370771 
L 147.156773 143.543527 
L 147.492715 151.057167 
L 147.828657 150.952913 
L 148.1646 157.655386 
L 148.500542 134.688886 
L 148.836484 159.946248 
L 149.172426 160.00173 
L 149.508368 159.372416 
L 149.844311 139.141272 
L 150.180253 151.072307 
L 150.516195 157.66226 
L 150.852137 134.513464 
L 151.188079 159.946248 
L 151.524022 160.004246 
L 151.859964 159.391237 
L 152.195906 129.666869 
L 152.531848 151.097296 
L 152.86779 151.093788 
L 153.203733 157.672817 
L 153.539675 134.34584 
L 153.875617 159.946248 
L 154.211559 160.007927 
L 154.547502 159.396787 
L 154.883444 127.329229 
L 155.219386 123.583249 
L 155.555328 157.711452 
L 155.89127 134.1591 
L 156.227213 159.946248 
L 156.563155 160.021772 
L 156.899097 159.398028 
L 157.235039 127.006086 
L 157.570981 159.736257 
L 157.906924 157.899484 
L 158.242866 133.773643 
L 158.578808 159.946248 
L 158.91475 160.025003 
L 159.250692 159.414106 
L 159.586635 159.398551 
L 159.922577 126.857525 
L 160.258519 159.75364 
L 160.594461 152.008696 
L 160.930403 133.372191 
L 161.266346 159.946248 
L 161.602288 160.026483 
L 161.93823 159.43004 
L 162.274172 159.399163 
L 162.610114 126.681077 
L 162.946057 159.754904 
L 163.281999 123.996291 
L 163.617941 131.845614 
L 163.953883 159.946248 
L 164.289825 160.027457 
L 164.625768 159.399717 
L 164.96171 126.408839 
L 165.297652 159.755945 
L 165.633594 166.25439 
L 165.969536 122.626235 
L 166.305479 123.740798 
L 166.641421 159.946248 
L 167.313305 160.027861 
L 167.649247 159.400277 
L 167.98519 126.166256 
L 168.321132 159.757425 
L 168.657074 158.564248 
L 168.993016 116.884394 
L 169.328958 160.032645 
L 169.664901 160.028148 
L 170.000843 159.40088 
L 170.336785 125.977653 
L 170.672727 159.764069 
L 171.008669 167.292869 
L 171.344612 115.616947 
L 171.680554 160.03541 
L 172.016496 160.028481 
L 172.352438 159.404375 
L 172.68838 125.74289 
L 173.024323 159.765349 
L 173.360265 163.540566 
L 173.696207 115.1958 
L 174.032149 160.040715 
L 174.368092 160.029119 
L 174.704034 159.41916 
L 175.039976 125.500076 
L 175.375918 159.766296 
L 175.71186 162.764366 
L 176.047803 159.987783 
L 176.383745 114.975991 
L 176.719687 160.056337 
L 177.055629 160.031564 
L 177.391571 125.213664 
L 177.727514 159.767387 
L 178.063456 158.766704 
L 178.399398 129.985191 
L 178.73534 114.787828 
L 179.071282 160.039909 
L 179.407225 125.050448 
L 179.743167 159.768469 
L 180.079109 157.371045 
L 180.415051 130.019351 
L 180.750993 130.534689 
L 181.086936 114.573826 
L 181.422878 124.313101 
L 181.75882 159.777976 
L 182.094762 154.333482 
L 182.430704 130.03288 
L 182.766647 130.880319 
L 183.102589 118.619764 
L 183.438531 114.405229 
L 183.774473 124.02614 
L 184.110415 159.797411 
L 184.446358 153.124083 
L 184.7823 153.730974 
L 185.118242 131.054086 
L 185.454184 167.377862 
L 185.790126 114.263879 
L 186.126069 123.926451 
L 186.462011 151.314457 
L 186.797953 153.647081 
L 187.133895 131.070256 
L 187.469837 160.197771 
L 187.80578 114.136336 
L 188.141722 123.851348 
L 188.477664 153.555967 
L 188.813606 131.076935 
L 189.149548 151.125579 
L 189.485491 114.030777 
L 189.821433 123.796399 
L 190.157375 153.476157 
L 190.493317 131.081647 
L 190.829259 145.441019 
L 191.165202 113.908322 
L 191.501144 123.768496 
L 191.837086 153.39136 
L 192.173028 131.086467 
L 192.50897 136.711768 
L 192.844913 113.773736 
L 193.180855 123.727472 
L 193.516797 153.270335 
L 193.852739 131.092154 
L 194.188682 128.009731 
L 194.524624 113.04002 
L 194.860566 123.658703 
L 195.196508 153.123208 
L 195.53245 131.099328 
L 195.868393 118.245777 
L 196.204335 166.251834 
L 196.540277 113.045881 
L 196.876219 123.351962 
L 197.212161 152.211267 
L 197.548104 131.105753 
L 197.884046 170.145933 
L 198.219988 160.740938 
L 198.55593 113.08187 
L 198.891872 113.045881 
L 199.227815 122.224394 
L 199.563757 149.090848 
L 199.899699 131.110837 
L 200.235641 161.724461 
L 200.571583 160.495609 
L 200.907526 113.095024 
L 201.243468 113.045881 
L 201.915352 149.505039 
L 202.251294 160.552748 
L 202.587237 155.404186 
L 202.923179 113.096362 
L 203.259121 113.045881 
L 203.595063 131.15002 
L 203.931005 140.445832 
L 204.266948 160.557983 
L 204.60289 152.947869 
L 204.938832 113.097297 
L 205.274774 113.045881 
L 205.610716 131.336233 
L 205.946659 131.706774 
L 206.282601 160.56096 
L 206.618543 145.537564 
L 206.954485 152.947869 
L 207.290427 113.098265 
L 207.62637 113.045881 
L 207.962312 123.153874 
L 208.298254 160.56298 
L 208.634196 134.983517 
L 208.970138 152.947869 
L 209.306081 113.102329 
L 209.642023 113.045881 
L 209.977965 171.833418 
L 210.313907 160.566274 
L 210.649849 132.774968 
L 210.985792 152.947869 
L 211.321734 113.103321 
L 211.657676 113.045881 
L 211.993618 154.606015 
L 212.329561 171.833418 
L 212.665503 160.577222 
L 213.001445 132.210489 
L 213.337387 152.947869 
L 213.673329 113.104268 
L 214.009272 113.045881 
L 214.345214 155.465017 
L 214.681156 154.606015 
L 215.017098 160.589411 
L 215.35304 131.914767 
L 215.688983 152.947869 
L 216.024925 113.10521 
L 216.360867 113.045881 
L 217.032751 155.465017 
L 217.368694 160.596265 
L 217.704636 131.669616 
L 218.040578 152.947869 
L 218.37652 113.10629 
L 218.712462 113.045881 
L 219.048405 132.237772 
L 219.384347 132.244952 
L 219.720289 160.602705 
L 220.056231 131.470936 
L 220.392173 152.947869 
L 220.728116 113.11002 
L 221.064058 113.045881 
L 221.4 173.31113 
L 221.735942 132.237772 
L 222.071884 160.608848 
L 222.407827 131.167239 
L 222.743769 152.947869 
L 223.079711 113.128197 
L 223.415653 113.045881 
L 223.751595 187.107963 
L 224.087538 173.31113 
L 224.759422 160.618935 
L 225.095364 130.893461 
L 225.431306 152.947869 
L 225.767249 113.045881 
L 226.103191 136.923306 
L 226.439133 187.107963 
L 226.775075 187.107963 
L 227.111017 164.837377 
L 227.44696 160.625961 
L 227.782902 130.632892 
L 228.118844 152.947869 
L 228.454786 113.045881 
L 228.790728 177.498901 
L 229.126671 136.923306 
L 229.462613 164.248592 
L 229.798555 160.630898 
L 230.134497 130.339345 
L 230.470439 152.947869 
L 230.806382 113.045881 
L 231.478266 177.498901 
L 231.814208 165.432641 
L 232.150151 163.849737 
L 232.486093 160.633256 
L 232.822035 130.029264 
L 233.157977 152.947869 
L 233.493919 113.045881 
L 233.829862 151.344356 
L 234.165804 142.516546 
L 234.501746 165.083463 
L 234.837688 163.111427 
L 235.17363 163.243902 
L 235.509573 160.63475 
L 235.845515 129.351283 
L 236.181457 152.947869 
L 236.517399 113.045881 
L 236.853341 179.712632 
L 237.189284 151.344356 
L 237.525226 164.935874 
L 237.861168 161.626114 
L 238.19711 162.324486 
L 238.533052 160.635761 
L 238.868995 113.974513 
L 239.204937 152.947869 
L 239.540879 113.045881 
L 239.876821 174.443449 
L 240.212763 179.712632 
L 240.548706 164.849153 
L 240.884648 161.672192 
L 241.22059 160.63717 
L 241.556532 113.990496 
L 241.892474 111.5605 
L 242.228417 152.947869 
L 242.564359 175.794105 
L 242.900301 174.443449 
L 243.236243 179.183484 
L 243.572185 164.769344 
L 243.908128 161.226536 
L 244.24407 160.638245 
L 244.580012 114.004591 
L 244.915954 110.258209 
L 245.251896 152.947869 
L 245.587839 176.788349 
L 245.923781 175.794105 
L 246.259723 147.140436 
L 246.595665 164.698241 
L 246.931607 160.874381 
L 247.26755 160.64592 
L 247.603492 110.06372 
L 247.939434 152.947869 
L 248.275376 178.142014 
L 248.611318 176.788349 
L 248.947261 180.71695 
L 249.283203 164.624479 
L 249.619145 159.745277 
L 249.955087 160.650059 
L 250.29103 160.712481 
L 250.626972 109.915259 
L 250.962914 152.947869 
L 251.298856 179.099944 
L 251.634798 178.142014 
L 252.306683 164.401806 
L 252.642625 150.61251 
L 252.978567 160.654629 
L 253.314509 109.77641 
L 253.650452 152.947869 
L 253.986394 181.778841 
L 254.322336 179.099944 
L 254.658278 169.628184 
L 254.99422 193.631807 
L 255.330163 164.177404 
L 255.666105 150.157707 
L 256.002047 160.667017 
L 256.337989 109.628344 
L 257.009874 183.718628 
L 257.345816 181.778841 
L 257.681758 169.408224 
L 258.0177 166.730595 
L 258.353642 162.080681 
L 258.689585 149.798852 
L 259.025527 109.497324 
L 259.697411 184.042583 
L 260.033353 183.718628 
L 260.369296 183.750228 
L 260.705238 169.080577 
L 261.04118 149.393156 
L 261.377122 109.363314 
L 261.713064 184.119289 
L 262.049007 184.042583 
L 262.384949 183.754223 
L 262.720891 168.883425 
L 263.056833 149.032074 
L 263.392775 108.67165 
L 263.728718 186.19878 
L 264.06466 184.119289 
L 264.400602 184.119289 
L 264.736544 183.75717 
L 265.408429 148.616469 
L 265.744371 108.683252 
L 266.080313 107.153352 
L 266.416255 187.656123 
L 266.752197 186.19878 
L 267.08814 184.119289 
L 267.424082 183.760039 
L 268.095966 148.190332 
L 268.431908 108.68392 
L 268.767851 99.897886 
L 269.103793 188.06806 
L 269.439735 187.953695 
L 269.775677 184.119289 
L 270.11162 183.786983 
L 270.783504 147.678117 
L 271.119446 108.684256 
L 271.455388 99.937054 
L 272.127273 188.435421 
L 272.463215 188.06806 
L 273.135099 188.173101 
L 273.471042 187.953695 
L 273.806984 184.119289 
L 274.142926 183.799523 
L 274.478868 156.991803 
L 274.81481 147.356995 
L 275.150753 108.684538 
L 275.486695 99.957723 
L 276.158579 188.435503 
L 276.830464 188.435421 
L 277.166406 188.224742 
L 277.502348 184.119289 
L 277.83829 183.805408 
L 278.510175 108.684767 
L 278.846117 141.618344 
L 279.182059 138.894206 
L 279.518001 188.435615 
L 279.853943 184.119289 
L 280.189886 183.809334 
L 280.86177 108.685128 
L 281.197712 141.626098 
L 281.533654 138.274741 
L 281.869597 188.435647 
L 282.205539 184.119289 
L 282.541481 183.815336 
L 282.877423 108.685987 
L 283.213365 141.631423 
L 283.549308 137.967333 
L 283.88525 188.435756 
L 284.221192 184.119289 
L 284.557134 183.827057 
L 284.893076 108.686582 
L 285.229019 141.638804 
L 285.564961 137.629515 
L 285.900903 184.119289 
L 286.236845 183.830297 
L 286.572787 108.687338 
L 286.90873 141.656306 
L 287.244672 137.239723 
L 287.580614 184.119289 
L 287.916556 183.831238 
L 288.252498 108.687797 
L 288.588441 141.669611 
L 288.924383 136.845671 
L 289.260325 184.119289 
L 289.596267 183.831605 
L 289.93221 183.833621 
L 290.268152 108.688211 
L 290.604094 141.678951 
L 290.940036 136.408813 
L 291.275978 184.119289 
L 291.611921 183.831948 
L 291.947863 183.836767 
L 292.283805 108.688911 
L 292.619747 141.688735 
L 292.955689 135.77353 
L 293.291632 184.119289 
L 293.627574 183.832302 
L 293.963516 183.849835 
L 294.299458 108.689598 
L 294.6354 141.696768 
L 294.971343 134.958655 
L 295.307285 134.620049 
L 295.643227 184.119289 
L 295.979169 183.834862 
L 296.315111 183.855385 
L 296.651054 108.689923 
L 296.986996 141.710068 
L 297.65888 127.315962 
L 297.994822 184.119289 
L 298.330765 183.853501 
L 298.666707 108.690281 
L 299.002649 141.753051 
L 299.338591 134.015396 
L 300.010476 108.690624 
L 300.346418 141.853485 
L 300.68236 133.572485 
L 301.018302 122.1509 
L 301.354244 105.916609 
L 301.690187 108.691037 
L 302.026129 133.240272 
L 302.362071 122.154028 
L 302.698013 122.15866 
L 303.033955 105.951369 
L 303.369898 102.447012 
L 303.70584 108.691697 
L 304.041782 132.71253 
L 304.377724 122.155006 
L 304.713666 122.174468 
L 305.049609 105.971506 
L 305.385551 95.847527 
L 305.721493 108.693502 
L 306.057435 131.822736 
L 306.393377 122.155635 
L 306.72932 137.40504 
L 307.065262 95.847527 
L 307.737146 125.155563 
L 308.073089 122.156015 
L 308.409031 122.988735 
L 308.744973 132.866063 
L 309.080915 95.847527 
L 309.7528 119.686007 
L 310.088742 122.156398 
L 310.424684 108.109892 
L 310.760626 132.380155 
L 311.096568 95.847527 
L 311.768453 117.953061 
L 312.104395 122.156741 
L 312.440337 96.93513 
L 312.776279 108.80072 
L 313.112222 132.194628 
L 313.448164 95.847527 
L 313.784106 108.696491 
L 314.45599 122.157127 
L 314.791933 81.750384 
L 315.463817 131.998378 
L 315.799759 95.847527 
L 316.135701 108.696679 
L 316.807586 122.157436 
L 317.143528 122.937826 
L 317.47947 108.942077 
L 317.815412 131.835507 
L 318.151355 95.847527 
L 318.487297 108.696853 
L 319.159181 122.157807 
L 319.495123 108.662621 
L 319.831066 109.005496 
L 320.167008 108.949025 
L 320.50295 131.642628 
L 320.838892 95.847527 
L 321.174834 108.697017 
L 321.510777 114.244745 
L 321.846719 122.158207 
L 322.182661 102.056355 
L 322.518603 108.867436 
L 322.854545 109.057049 
L 323.190488 108.95405 
L 323.52643 131.454525 
L 323.862372 95.847527 
L 324.198314 108.697245 
L 324.534256 113.558034 
L 324.870199 122.158936 
L 325.206141 92.948238 
L 325.542083 109.038634 
L 325.878025 108.95829 
L 326.213967 131.195922 
L 326.54991 95.847527 
L 326.885852 108.697525 
L 327.221794 112.930558 
L 327.893679 129.507696 
L 328.229621 109.052242 
L 328.901505 108.965452 
L 329.237447 130.840172 
L 329.57339 95.847527 
L 329.909332 108.69885 
L 330.245274 111.957104 
L 330.581216 122.181114 
L 330.917158 111.347131 
L 331.253101 109.065576 
L 331.924985 108.975482 
L 332.260927 130.463689 
L 332.596869 95.847527 
L 332.932812 108.710181 
L 333.268754 109.991799 
L 333.604696 97.157005 
L 333.940638 109.05063 
L 334.27658 108.982924 
L 334.612523 130.213601 
L 334.948465 95.847527 
L 335.284407 109.597797 
L 335.620349 108.840846 
L 335.956291 84.33188 
L 336.292234 109.054326 
L 336.628176 108.995253 
L 336.964118 129.959072 
L 337.30006 95.847527 
L 337.636002 109.25419 
L 337.971945 106.999154 
L 338.307887 82.928674 
L 338.643829 85.068078 
L 338.979771 109.058408 
L 339.315713 109.080826 
L 339.651656 129.83737 
L 339.987598 95.847527 
L 340.32354 108.970011 
L 340.659482 105.425609 
L 340.995424 81.521782 
L 341.331367 87.015785 
L 341.667309 85.068078 
L 342.003251 109.06104 
L 342.339193 109.269846 
L 342.675135 129.643789 
L 343.011078 95.847527 
L 343.34702 108.74902 
L 343.682962 104.535044 
L 344.018904 80.112159 
L 344.354846 88.648887 
L 344.690789 87.015785 
L 345.362673 129.46206 
L 345.698615 95.847527 
L 346.034557 108.524259 
L 346.3705 78.711069 
L 346.706442 90.404446 
L 347.042384 88.648887 
L 347.714269 129.202399 
L 348.050211 95.847527 
L 348.386153 108.329206 
L 348.722095 77.304655 
L 349.058037 91.845834 
L 349.39398 90.404446 
L 350.065864 126.4615 
L 350.401806 108.189116 
L 350.737748 75.899196 
L 351.073691 93.393334 
L 351.409633 91.845834 
L 351.745575 125.36521 
L 352.081517 108.026471 
L 352.417459 74.49285 
L 352.753402 93.402225 
L 353.425286 93.393334 
L 353.761228 124.808515 
L 354.09717 107.781444 
L 354.433113 73.806368 
L 354.769055 93.403526 
L 355.440939 93.393334 
L 355.776881 124.68533 
L 356.112824 107.38112 
L 356.448766 117.343285 
L 356.784708 93.40719 
L 357.456592 93.393334 
L 357.792535 124.588315 
L 358.128477 105.903445 
L 358.464419 102.762042 
L 358.800361 107.310246 
L 359.136303 93.411493 
L 359.808188 93.393334 
L 360.14413 124.48437 
L 360.480072 98.535348 
L 360.816014 93.412051 
L 361.487899 93.393334 
L 361.823841 124.401206 
L 362.159783 89.331058 
L 362.495725 93.412142 
L 363.503552 93.393334 
L 363.839494 124.320458 
L 364.175436 73.614886 
L 364.511379 93.412226 
L 365.519205 93.393334 
L 365.855148 124.239914 
L 366.19109 128.725744 
L 366.527032 93.412353 
L 366.862974 93.424137 
L 367.198916 124.160313 
L 367.534859 128.335301 
L 367.870801 114.765782 
L 368.206743 93.412515 
L 368.542685 122.736878 
L 368.878627 127.694226 
L 369.21457 102.925859 
L 369.550512 93.413143 
L 369.886454 119.551637 
L 370.222396 120.769304 
L 370.558338 127.567471 
L 370.894281 83.025385 
L 371.230223 93.414283 
L 371.566165 117.436272 
L 371.902107 127.460366 
L 372.573992 127.2527 
L 372.909934 127.040207 
L 373.245876 126.671783 
L 373.581818 123.654003 
L 373.581818 123.654003 
" style="fill:none;stroke:#ff0000;stroke-linecap:square;stroke-width:1.5;"/>
   </g>
   <g id="line2d_15">
    <path clip-path="url(#p104b888654)" d="M 69.218182 196.839571 
L 69.554124 120.152767 
L 69.890066 159.283361 
L 71.233835 150.881631 
L 71.569777 145.576529 
L 71.905719 196.381836 
L 72.577604 183.629259 
L 73.249488 175.006292 
L 73.58543 172.438879 
L 73.921373 166.047175 
L 74.257315 173.235054 
L 74.593257 173.235054 
L 74.929199 169.412082 
L 75.265141 173.235054 
L 75.601084 165.091871 
L 75.937026 173.235054 
L 76.272968 160.240782 
L 76.60891 173.235054 
L 76.944852 211.307935 
L 77.280795 173.235054 
L 77.616737 196.938609 
L 77.952679 173.235054 
L 78.288621 197.201168 
L 78.960506 173.235054 
L 79.296448 197.20598 
L 79.63239 197.266942 
L 79.968332 192.84628 
L 80.304275 173.235054 
L 80.640217 197.217002 
L 80.976159 197.269169 
L 81.312101 239.509832 
L 81.648043 226.63371 
L 81.983986 173.235054 
L 82.319928 197.272372 
L 82.65587 239.273209 
L 82.991812 218.098371 
L 83.327754 227.210199 
L 83.663697 226.63371 
L 83.999639 173.235054 
L 84.335581 197.276479 
L 84.671523 239.166556 
L 85.007465 225.544056 
L 85.343408 242.054287 
L 85.67935 226.63371 
L 86.015292 173.235054 
L 86.351234 197.286482 
L 86.687176 239.053527 
L 87.023119 235.692883 
L 87.359061 242.054287 
L 87.695003 226.63371 
L 88.030945 173.235054 
L 88.366887 197.295046 
L 88.70283 238.945874 
L 89.038772 218.418555 
L 89.374714 242.054287 
L 89.710656 226.63371 
L 90.046598 173.235054 
L 90.382541 197.3361 
L 90.718483 238.881401 
L 91.054425 224.664243 
L 91.390367 218.147692 
L 91.726309 242.054287 
L 92.062252 226.63371 
L 92.398194 173.235054 
L 92.734136 197.481212 
L 93.070078 238.754909 
L 93.40602 239.488704 
L 93.741963 218.131614 
L 94.077905 218.031375 
L 94.413847 242.054287 
L 94.749789 226.63371 
L 95.085731 173.235054 
L 95.421674 238.113844 
L 95.757616 206.244208 
L 96.093558 242.054287 
L 96.4295 226.63371 
L 96.765443 173.235054 
L 97.101385 235.698169 
L 97.437327 211.857407 
L 97.773269 242.054287 
L 98.109211 226.63371 
L 98.445154 173.235054 
L 98.781096 223.240076 
L 99.117038 242.054287 
L 99.45298 226.63371 
L 99.788922 173.235054 
L 100.124865 233.974449 
L 100.460807 226.63371 
L 100.796749 173.235054 
L 101.132691 240.213662 
L 101.468633 226.63371 
L 101.804576 173.235054 
L 102.140518 239.927596 
L 102.47646 226.63371 
L 102.812402 173.235054 
L 103.148344 234.238294 
L 103.484287 226.63371 
L 103.820229 173.235054 
L 104.156171 234.299058 
L 104.828055 226.63371 
L 105.163998 234.372574 
L 105.49994 227.840354 
L 105.835882 226.63371 
L 106.171824 234.457785 
L 106.843709 226.63371 
L 107.179651 234.587706 
L 107.515593 238.989165 
L 107.851535 226.63371 
L 108.187477 234.754737 
L 108.52342 239.052966 
L 108.859362 206.850085 
L 109.195304 226.63371 
L 109.531246 234.87465 
L 109.867188 239.052966 
L 110.203131 239.08403 
L 110.539073 196.261949 
L 110.875015 226.63371 
L 111.210957 235.044085 
L 111.546899 239.052966 
L 111.882842 239.229958 
L 112.218784 218.017003 
L 112.890668 235.227403 
L 113.22661 239.052966 
L 113.562553 239.163023 
L 113.898495 240.244778 
L 114.234437 224.489691 
L 114.570379 226.63371 
L 114.906321 235.400286 
L 115.242264 239.052966 
L 115.578206 239.157258 
L 115.914148 240.99975 
L 116.25009 172.83036 
L 116.586033 226.63371 
L 116.921975 235.684534 
L 117.257917 239.052966 
L 117.593859 239.151602 
L 117.929801 241.505337 
L 118.265744 179.701841 
L 118.601686 226.63371 
L 118.937628 237.036076 
L 119.27357 239.052966 
L 119.609512 239.147035 
L 119.945455 241.380966 
L 120.281397 188.906342 
L 120.617339 187.719524 
L 120.953281 226.63371 
L 121.289223 237.330504 
L 121.625166 239.052966 
L 121.961108 239.14018 
L 122.29705 241.051128 
L 122.632992 189.29386 
L 122.968934 190.026565 
L 123.304877 226.63371 
L 123.640819 229.98045 
L 123.976761 238.913742 
L 124.648645 239.131916 
L 124.984588 240.936557 
L 125.32053 189.647879 
L 125.656472 203.133195 
L 125.992414 226.63371 
L 126.328356 228.5919 
L 126.664299 241.01567 
L 127.000241 239.052966 
L 127.336183 239.125673 
L 127.672125 240.936557 
L 128.008067 240.903891 
L 128.34401 189.794943 
L 129.015894 225.727043 
L 129.351836 240.94546 
L 129.687778 241.212949 
L 130.023721 239.052966 
L 130.359663 239.118448 
L 130.695605 240.936557 
L 131.031547 240.900363 
L 131.367489 190.111938 
L 132.039374 240.669163 
L 132.375316 242.029446 
L 132.711258 239.052966 
L 133.0472 239.111655 
L 133.383143 240.936557 
L 134.055027 240.89695 
L 134.390969 190.91932 
L 134.726911 162.005787 
L 135.062854 240.175854 
L 135.398796 242.116364 
L 135.734738 242.071442 
L 136.07068 239.052966 
L 136.406623 239.104346 
L 136.742565 240.936557 
L 137.414449 240.894221 
L 137.750391 191.393007 
L 138.086334 168.14318 
L 138.422276 240.251802 
L 138.758218 239.809719 
L 139.09416 241.925676 
L 139.430102 242.077378 
L 139.766045 239.052966 
L 140.101987 239.093173 
L 140.437929 240.936557 
L 140.773871 240.892046 
L 141.109813 191.72478 
L 141.445756 179.468676 
L 141.781698 240.500391 
L 142.11764 239.148909 
L 142.453582 242.082165 
L 142.789524 239.052966 
L 143.125467 239.06266 
L 143.461409 240.936557 
L 143.797351 240.887449 
L 144.133293 192.362976 
L 144.469235 189.342668 
L 144.805178 240.607554 
L 145.14112 238.912962 
L 145.477062 242.085991 
L 145.813004 239.060059 
L 146.148946 240.936557 
L 146.484889 240.883829 
L 146.820831 192.680628 
L 147.156773 196.059396 
L 147.492715 224.563013 
L 147.828657 238.912962 
L 148.1646 242.091831 
L 148.500542 239.058857 
L 148.836484 240.936557 
L 149.172426 240.881318 
L 149.508368 192.906181 
L 149.844311 200.4717 
L 150.180253 202.817008 
L 150.516195 242.098677 
L 150.852137 239.057572 
L 151.188079 240.936557 
L 151.524022 240.878813 
L 152.195906 151.002008 
L 152.531848 206.256662 
L 152.86779 205.773901 
L 153.203733 242.109192 
L 153.539675 239.056344 
L 153.875617 240.936557 
L 154.211559 240.875148 
L 154.883444 150.984823 
L 155.219386 157.332649 
L 155.555328 242.114121 
L 155.89127 239.054975 
L 156.227213 240.936557 
L 156.563155 240.861363 
L 157.235039 150.982448 
L 157.570981 181.071492 
L 157.906924 241.926854 
L 158.242866 239.052151 
L 158.578808 240.936557 
L 158.91475 240.858146 
L 159.250692 198.621652 
L 159.586635 196.489123 
L 159.922577 150.981356 
L 160.258519 181.054189 
L 160.594461 189.107899 
L 160.930403 239.04921 
L 161.266346 240.936557 
L 161.602288 240.856672 
L 161.93823 200.806037 
L 162.274172 196.57309 
L 162.610114 150.980059 
L 162.946057 181.052931 
L 163.281999 159.273959 
L 163.617941 239.038024 
L 163.953883 240.936557 
L 164.289825 240.855703 
L 164.96171 150.978058 
L 165.297652 181.051894 
L 165.633594 164.563128 
L 165.969536 164.465499 
L 166.305479 238.97864 
L 166.641421 240.936557 
L 167.313305 240.8553 
L 167.98519 150.976274 
L 168.321132 181.050422 
L 168.657074 166.997591 
L 168.993016 186.22303 
L 169.328958 240.850537 
L 169.664901 240.855015 
L 170.336785 150.974888 
L 170.672727 181.043808 
L 171.008669 182.9007 
L 171.344612 191.025763 
L 171.680554 240.847784 
L 172.016496 240.854683 
L 172.68838 150.973162 
L 173.024323 181.042535 
L 173.360265 184.088505 
L 173.696207 192.621613 
L 174.032149 240.842502 
L 174.368092 240.854048 
L 175.039976 150.971377 
L 175.375918 181.041592 
L 175.71186 184.082769 
L 176.047803 148.286731 
L 176.719687 240.826948 
L 177.055629 240.851613 
L 177.391571 150.969272 
L 177.727514 181.040506 
L 178.063456 184.053221 
L 178.399398 159.402693 
L 178.73534 194.167541 
L 179.071282 240.843305 
L 179.407225 150.968072 
L 179.743167 181.039429 
L 180.079109 184.042906 
L 180.415051 159.368706 
L 180.750993 122.428373 
L 181.086936 194.978458 
L 181.422878 150.962651 
L 181.75882 181.029965 
L 182.094762 184.020455 
L 182.430704 159.355245 
L 182.766647 110.290825 
L 183.102589 120.419427 
L 183.438531 195.617321 
L 183.774473 150.960542 
L 184.110415 181.01062 
L 184.446358 184.011517 
L 184.7823 184.016002 
L 185.118242 133.833887 
L 185.454184 118.698328 
L 186.126069 150.959809 
L 186.462011 183.998143 
L 186.797953 184.015382 
L 187.133895 136.024799 
L 187.469837 117.487683 
L 187.80578 137.670543 
L 188.141722 150.959257 
L 188.477664 184.014708 
L 188.813606 136.929619 
L 189.149548 115.957995 
L 189.485491 138.070537 
L 189.821433 150.958853 
L 190.157375 184.014118 
L 190.493317 137.568063 
L 190.829259 114.999497 
L 191.165202 138.534555 
L 191.501144 150.958648 
L 191.837086 184.013491 
L 192.173028 138.221092 
L 192.50897 113.527609 
L 192.844913 139.044542 
L 193.180855 150.958346 
L 193.516797 184.012597 
L 193.852739 138.991619 
L 194.188682 112.060295 
L 194.524624 141.824812 
L 194.860566 150.957841 
L 195.196508 184.011509 
L 195.868393 110.413907 
L 196.204335 162.993208 
L 196.540277 141.818977 
L 196.876219 150.955586 
L 197.212161 184.004769 
L 197.884046 109.222512 
L 198.219988 183.267687 
L 198.55593 141.783152 
L 198.891872 141.818977 
L 199.227815 150.947297 
L 199.563757 183.981704 
L 200.235641 107.802466 
L 200.571583 184.170248 
L 200.907526 141.770058 
L 201.243468 141.818977 
L 201.57941 142.705012 
L 201.915352 105.741977 
L 202.251294 184.113365 
L 202.587237 142.32059 
L 202.923179 141.768726 
L 203.259121 141.818977 
L 203.595063 146.831737 
L 203.931005 104.214359 
L 204.266948 184.108153 
L 204.60289 150.578101 
L 204.938832 141.767796 
L 205.274774 141.818977 
L 205.610716 113.095311 
L 205.946659 102.740711 
L 206.282601 184.10519 
L 206.618543 175.489692 
L 206.954485 150.578101 
L 207.290427 141.766832 
L 207.62637 141.818977 
L 207.962312 101.298441 
L 208.298254 184.103178 
L 208.634196 152.004182 
L 208.970138 150.578101 
L 209.306081 141.762786 
L 209.642023 141.818977 
L 209.977965 99.563875 
L 210.313907 184.099899 
L 210.649849 159.428811 
L 211.321734 141.761798 
L 211.657676 141.818977 
L 211.993618 96.658753 
L 212.329561 99.563875 
L 212.665503 184.089 
L 213.001445 161.32646 
L 213.673329 141.760856 
L 214.009272 141.818977 
L 214.345214 86.859587 
L 214.681156 96.658753 
L 215.017098 184.076866 
L 215.35304 162.320611 
L 216.024925 141.759919 
L 216.360867 141.818977 
L 216.696809 131.964307 
L 217.032751 86.859587 
L 217.368694 184.070041 
L 217.704636 163.14475 
L 218.37652 141.758843 
L 218.712462 141.818977 
L 219.048405 122.017494 
L 219.384347 131.964307 
L 219.720289 184.063631 
L 220.056231 163.812669 
L 220.392173 150.578101 
L 220.728116 141.75513 
L 221.064058 141.818977 
L 221.4 118.999506 
L 221.735942 122.017494 
L 222.071884 184.057515 
L 222.743769 150.578101 
L 223.079711 141.737036 
L 223.415653 141.818977 
L 223.751595 111.833088 
L 224.087538 118.999506 
L 224.42348 118.943269 
L 224.759422 184.047473 
L 225.431306 150.578101 
L 225.767249 141.818977 
L 226.103191 103.870436 
L 226.439133 111.833088 
L 226.775075 111.833088 
L 227.111017 118.935056 
L 227.44696 184.040478 
L 228.118844 150.578101 
L 228.454786 141.818977 
L 228.790728 100.952419 
L 229.126671 103.870436 
L 229.462613 118.930578 
L 229.798555 184.035564 
L 230.470439 150.578101 
L 230.806382 141.818977 
L 231.142324 95.669135 
L 231.478266 100.952419 
L 231.814208 100.860155 
L 232.150151 118.927544 
L 232.486093 184.033216 
L 233.493919 141.818977 
L 233.829862 88.096579 
L 234.501746 100.857485 
L 234.837688 100.842405 
L 235.17363 118.922936 
L 235.509573 184.031728 
L 235.845515 170.938461 
L 236.181457 150.578101 
L 236.517399 141.818977 
L 236.853341 83.475092 
L 237.189284 88.096579 
L 237.525226 100.856356 
L 237.861168 100.831048 
L 238.19711 118.915943 
L 238.533052 184.030722 
L 238.868995 163.666137 
L 239.540879 141.818977 
L 239.876821 82.679209 
L 240.212763 83.475092 
L 240.884648 118.910982 
L 241.22059 184.029319 
L 241.556532 165.821333 
L 241.892474 171.390262 
L 242.228417 150.578101 
L 242.564359 84.064199 
L 242.900301 82.679209 
L 243.236243 82.258611 
L 243.908128 118.907592 
L 244.24407 184.028249 
L 244.580012 167.721923 
L 244.915954 175.557207 
L 245.251896 150.578101 
L 245.587839 85.083714 
L 245.923781 84.064199 
L 246.259723 82.01007 
L 246.931607 118.904914 
L 247.26755 184.020608 
L 247.603492 176.179515 
L 247.939434 150.578101 
L 248.275376 86.471784 
L 248.611318 85.083714 
L 248.947261 81.81314 
L 249.619145 118.896326 
L 249.955087 184.016488 
L 250.29103 183.954344 
L 250.626972 176.654547 
L 250.962914 150.578101 
L 251.298856 87.454059 
L 251.634798 86.471784 
L 251.970741 81.731767 
L 252.642625 118.826864 
L 252.978567 184.011938 
L 253.314509 177.098823 
L 253.650452 150.578101 
L 253.986394 90.201029 
L 254.322336 87.454059 
L 254.658278 81.72714 
L 254.99422 81.455829 
L 255.666105 118.823405 
L 256.002047 183.999606 
L 256.337989 118.606894 
L 256.673931 150.578101 
L 257.009874 92.190099 
L 257.345816 90.201029 
L 257.681758 81.725437 
L 258.0177 81.247079 
L 258.689585 118.820675 
L 259.025527 119.026118 
L 259.361469 150.578101 
L 259.697411 92.138921 
L 260.033353 92.190099 
L 260.369296 96.572666 
L 260.705238 81.722901 
L 261.04118 118.81759 
L 261.377122 119.454911 
L 261.713064 92.126803 
L 262.049007 92.138921 
L 262.384949 97.1267 
L 262.720891 81.721374 
L 263.056833 118.814843 
L 263.392775 121.668032 
L 263.728718 91.798279 
L 264.06466 92.126803 
L 264.400602 92.126803 
L 264.736544 97.535539 
L 265.072486 81.719533 
L 265.408429 118.811682 
L 266.080313 126.324148 
L 266.416255 91.568037 
L 267.08814 92.126803 
L 267.424082 97.933344 
L 267.760024 81.717916 
L 268.095966 118.808441 
L 268.431908 123.321234 
L 268.767851 148.574266 
L 269.103793 93.476275 
L 269.439735 91.286894 
L 269.775677 92.126803 
L 270.11162 101.670176 
L 270.447562 81.707335 
L 270.783504 118.804545 
L 271.119446 123.366474 
L 271.455388 148.535262 
L 271.791331 116.05384 
L 272.127273 95.178013 
L 272.463215 93.476275 
L 272.799157 93.476275 
L 273.135099 91.069111 
L 273.471042 91.286894 
L 273.806984 92.126803 
L 274.142926 44.443636 
L 274.81481 118.802103 
L 275.150753 123.404411 
L 275.486695 148.514679 
L 275.822637 141.383655 
L 276.158579 97.251628 
L 276.494521 95.178013 
L 276.830464 95.178013 
L 277.166406 91.017851 
L 277.502348 92.126803 
L 277.83829 45.259893 
L 278.174232 118.791606 
L 278.510175 123.435347 
L 278.846117 145.623408 
L 279.182059 147.11101 
L 279.518001 100.076369 
L 279.853943 92.126803 
L 280.189886 45.804348 
L 280.525828 118.747354 
L 280.86177 123.483908 
L 281.197712 146.663007 
L 281.533654 148.4287 
L 281.869597 100.904897 
L 282.205539 92.126803 
L 282.541481 46.636719 
L 282.877423 123.599703 
L 283.213365 147.376871 
L 283.549308 149.0826 
L 283.88525 103.64717 
L 284.221192 92.126803 
L 284.557134 48.26233 
L 284.893076 123.679815 
L 285.229019 148.366441 
L 285.564961 149.801185 
L 286.236845 48.711691 
L 286.572787 123.781677 
L 286.90873 150.713007 
L 287.244672 150.630326 
L 287.916556 48.842147 
L 288.252498 123.843557 
L 288.588441 152.496783 
L 288.924383 151.46853 
L 289.596267 48.893072 
L 289.93221 49.172754 
L 290.268152 123.899421 
L 290.604094 153.748967 
L 290.940036 152.397788 
L 291.611921 48.940733 
L 291.947863 49.609011 
L 292.283805 123.993639 
L 292.619747 155.06074 
L 292.955689 153.749123 
L 293.627574 48.989831 
L 293.963516 51.421423 
L 294.299458 124.086267 
L 294.6354 156.137718 
L 294.971343 153.743144 
L 295.307285 157.601656 
L 295.643227 92.126803 
L 295.979169 49.344816 
L 296.315111 52.191112 
L 296.651054 124.130094 
L 296.986996 157.920897 
L 297.322938 153.739553 
L 298.330765 51.929854 
L 298.666707 124.178232 
L 299.002649 163.683604 
L 299.338591 153.736222 
L 300.346418 118.183185 
L 300.68236 153.732972 
L 301.018302 140.430041 
L 301.690187 124.280153 
L 302.026129 153.730534 
L 302.362071 140.426926 
L 302.698013 140.422312 
L 303.033955 137.30578 
L 303.369898 142.84055 
L 303.70584 124.369032 
L 304.041782 153.726662 
L 304.377724 140.425951 
L 304.713666 140.406568 
L 305.049609 139.997057 
L 305.385551 102.656118 
L 306.057435 153.720133 
L 306.393377 140.425325 
L 306.72932 152.19783 
L 307.065262 102.656118 
L 307.737146 153.67121 
L 308.073089 140.424947 
L 308.409031 94.385498 
L 308.744973 152.164607 
L 309.080915 102.656118 
L 309.7528 153.631075 
L 310.088742 140.424565 
L 310.424684 97.469065 
L 310.760626 152.16105 
L 311.096568 102.656118 
L 311.768453 153.618359 
L 312.104395 140.424224 
L 312.440337 100.767234 
L 313.112222 152.159692 
L 313.448164 102.656118 
L 314.120048 153.606782 
L 314.45599 140.423839 
L 314.791933 105.248919 
L 315.127875 141.586708 
L 315.463817 152.158256 
L 315.799759 102.656118 
L 316.471644 153.600477 
L 316.807586 140.423531 
L 317.47947 89.026597 
L 317.815412 152.157064 
L 318.151355 102.656118 
L 318.823239 153.595441 
L 319.159181 140.423162 
L 319.831066 97.379558 
L 320.167008 89.94045 
L 320.50295 152.155652 
L 320.838892 102.656118 
L 321.510777 153.591147 
L 321.846719 140.422764 
L 322.182661 117.51113 
L 322.518603 114.505215 
L 323.190488 90.601296 
L 323.52643 152.154275 
L 323.862372 102.656118 
L 324.534256 153.586108 
L 324.870199 140.422037 
L 325.206141 121.374052 
L 325.542083 114.334651 
L 325.878025 91.158992 
L 326.213967 152.152382 
L 326.54991 102.656118 
L 327.221794 153.581504 
L 328.229621 114.321094 
L 328.565563 114.33065 
L 328.901505 92.101004 
L 329.237447 152.149778 
L 329.57339 102.656118 
L 330.245274 153.574361 
L 330.581216 140.399949 
L 330.917158 79.613102 
L 331.253101 114.30781 
L 331.589043 114.326825 
L 331.924985 93.420181 
L 332.260927 152.147023 
L 332.596869 102.656118 
L 333.268754 153.55994 
L 333.604696 85.631111 
L 333.940638 114.3227 
L 334.27658 94.399041 
L 334.612523 152.145192 
L 334.948465 102.656118 
L 335.284407 153.557049 
L 335.620349 153.551494 
L 335.956291 91.070158 
L 336.292234 114.319018 
L 336.628176 96.020563 
L 336.964118 152.143329 
L 337.30006 102.656118 
L 337.636002 153.554527 
L 337.971945 153.53798 
L 338.307887 91.059794 
L 338.643829 95.790349 
L 338.979771 114.314951 
L 339.315713 107.27558 
L 339.651656 152.142438 
L 339.987598 102.656118 
L 340.32354 153.552442 
L 340.659482 153.526434 
L 340.995424 91.049403 
L 341.331367 104.798362 
L 341.667309 95.790349 
L 342.675135 152.141021 
L 343.011078 102.656118 
L 343.34702 153.55082 
L 343.682962 153.519899 
L 344.018904 91.038992 
L 344.354846 112.351276 
L 344.690789 104.798362 
L 345.026731 114.308302 
L 345.362673 152.139691 
L 345.698615 102.656118 
L 346.034557 153.549171 
L 346.3705 91.028643 
L 346.706442 120.470466 
L 347.042384 112.351276 
L 347.378326 114.275177 
L 347.714269 152.137791 
L 348.050211 102.656118 
L 348.386153 153.54774 
L 348.722095 91.018256 
L 349.058037 127.13661 
L 349.729922 114.161015 
L 350.065864 152.117729 
L 350.401806 153.546712 
L 350.737748 91.007875 
L 351.073691 75.327753 
L 351.409633 127.13661 
L 351.745575 152.109705 
L 352.081517 153.545518 
L 352.417459 90.997488 
L 352.753402 96.41511 
L 353.089344 75.327753 
L 353.425286 75.327753 
L 353.761228 152.10563 
L 354.09717 153.54372 
L 354.433113 90.992418 
L 354.769055 99.500252 
L 355.104997 75.327753 
L 355.440939 75.327753 
L 355.776881 152.104728 
L 356.112824 153.540783 
L 356.448766 90.878464 
L 356.784708 108.191792 
L 357.12065 75.327753 
L 357.456592 75.327753 
L 357.792535 152.104018 
L 358.128477 153.529941 
L 358.464419 153.506886 
L 358.800361 90.804362 
L 359.136303 118.397839 
L 359.472246 75.327753 
L 359.808188 75.327753 
L 360.14413 152.103257 
L 360.480072 90.739552 
L 360.816014 119.721784 
L 361.151957 75.327753 
L 361.487899 75.327753 
L 361.823841 152.102649 
L 362.159783 90.671571 
L 362.495725 119.940864 
L 362.831668 122.936832 
L 363.16761 75.327753 
L 363.503552 75.327753 
L 363.839494 152.102058 
L 364.175436 90.555494 
L 364.511379 120.143584 
L 364.847321 71.495215 
L 365.183263 75.327753 
L 365.519205 75.327753 
L 365.855148 152.101468 
L 366.19109 90.527023 
L 366.527032 120.451838 
L 366.862974 89.344578 
L 367.198916 152.100885 
L 367.534859 90.524145 
L 367.870801 90.826296 
L 368.542685 152.090467 
L 368.878627 90.519418 
L 369.21457 91.08012 
L 369.886454 152.06715 
L 370.222396 152.076066 
L 370.558338 90.518484 
L 370.894281 91.506745 
L 371.566165 152.051666 
L 371.902107 90.517694 
L 373.581818 90.489632 
L 373.581818 90.489632 
" style="fill:none;stroke:#ffff00;stroke-linecap:square;stroke-width:1.5;"/>
   </g>
   <g id="line2d_16">
    <path clip-path="url(#p104b888654)" d="M 69.218182 181.090466 
L 69.554124 160.798378 
L 69.890066 154.767227 
L 71.233835 152.212553 
L 71.569777 155.775904 
L 72.241662 151.229228 
L 72.577604 208.38246 
L 73.249488 205.760412 
L 73.58543 204.979719 
L 73.921373 203.036144 
L 74.257315 187.291573 
L 74.593257 187.291573 
L 74.929199 168.198624 
L 75.265141 187.291573 
L 75.601084 166.884914 
L 75.937026 187.291573 
L 76.272968 165.409772 
L 76.60891 187.291573 
L 76.944852 163.007942 
L 77.280795 187.291573 
L 77.616737 158.638433 
L 77.952679 187.291573 
L 78.288621 158.901763 
L 78.624564 212.707647 
L 79.296448 158.90659 
L 79.63239 158.967731 
L 79.968332 195.70677 
L 80.304275 187.291573 
L 80.640217 158.917644 
L 80.976159 158.969965 
L 81.312101 196.226999 
L 81.648043 187.900907 
L 81.983986 187.291573 
L 82.319928 158.973177 
L 82.65587 196.228721 
L 82.991812 196.383322 
L 83.327754 200.531584 
L 83.663697 187.900907 
L 83.999639 187.291573 
L 84.335581 158.977296 
L 84.671523 196.229497 
L 85.007465 196.759465 
L 85.343408 165.518207 
L 85.67935 187.900907 
L 86.015292 187.291573 
L 86.351234 158.987328 
L 86.687176 196.230319 
L 87.023119 219.435679 
L 87.359061 165.518207 
L 87.695003 187.900907 
L 88.030945 187.291573 
L 88.366887 158.995918 
L 88.70283 196.231102 
L 89.038772 196.568562 
L 89.374714 165.518207 
L 89.710656 187.900907 
L 90.046598 187.291573 
L 90.382541 159.037093 
L 90.718483 196.231571 
L 91.054425 191.546056 
L 91.390367 196.840087 
L 91.726309 165.518207 
L 92.062252 187.900907 
L 92.398194 187.291573 
L 92.734136 159.182631 
L 93.070078 196.232491 
L 93.40602 191.172717 
L 93.741963 196.856205 
L 94.077905 196.95669 
L 94.413847 165.518207 
L 94.749789 187.900907 
L 95.085731 187.291573 
L 95.421674 196.237155 
L 95.757616 170.488666 
L 96.093558 165.518207 
L 96.4295 187.900907 
L 96.765443 187.291573 
L 97.101385 196.254728 
L 97.437327 224.940424 
L 97.773269 165.518207 
L 98.109211 187.900907 
L 98.445154 187.291573 
L 98.781096 215.786873 
L 99.117038 165.518207 
L 99.45298 187.900907 
L 99.788922 187.291573 
L 100.124865 207.154649 
L 100.460807 187.900907 
L 100.796749 187.291573 
L 101.132691 202.137278 
L 101.468633 187.900907 
L 101.804576 187.291573 
L 102.140518 198.823679 
L 102.47646 187.900907 
L 102.812402 187.291573 
L 103.148344 194.248523 
L 103.484287 187.900907 
L 103.820229 187.291573 
L 104.156171 193.815486 
L 104.492113 193.669601 
L 104.828055 187.900907 
L 105.163998 193.291572 
L 105.49994 193.341324 
L 105.835882 187.900907 
L 106.171824 192.684317 
L 106.507766 180.388395 
L 106.843709 187.900907 
L 107.179651 191.758435 
L 107.515593 179.090796 
L 107.851535 187.900907 
L 108.187477 190.568088 
L 108.52342 179.041622 
L 108.859362 176.187124 
L 109.195304 187.900907 
L 109.531246 189.713533 
L 109.867188 179.041622 
L 110.203131 179.017679 
L 110.539073 229.916464 
L 110.875015 187.900907 
L 111.210957 188.506053 
L 111.546899 179.041622 
L 111.882842 178.905205 
L 112.218784 227.561694 
L 112.554726 187.900907 
L 112.890668 187.199647 
L 113.22661 179.041622 
L 113.562553 178.972285 
L 113.898495 178.056252 
L 114.234437 226.861087 
L 114.570379 187.900907 
L 114.906321 185.967602 
L 115.242264 179.041622 
L 115.578206 178.978062 
L 115.914148 177.424677 
L 116.25009 226.070241 
L 116.586033 187.900907 
L 117.257917 179.041622 
L 117.593859 178.98373 
L 117.929801 177.001728 
L 118.265744 225.326467 
L 118.601686 187.900907 
L 118.937628 174.310282 
L 119.27357 179.041622 
L 119.609512 178.988307 
L 119.945455 176.42485 
L 120.281397 177.047921 
L 120.617339 224.458625 
L 120.953281 187.900907 
L 121.289223 231.177778 
L 121.625166 179.041622 
L 121.961108 178.995177 
L 122.29705 174.894935 
L 122.632992 177.050732 
L 122.968934 224.208908 
L 123.304877 187.900907 
L 123.640819 231.230928 
L 123.976761 223.127337 
L 124.312703 179.041622 
L 124.648645 179.003458 
L 124.984588 174.363512 
L 125.32053 177.053301 
L 125.656472 222.79023 
L 125.992414 187.900907 
L 126.328356 231.240969 
L 126.664299 212.439549 
L 127.000241 179.041622 
L 127.336183 179.009715 
L 127.672125 174.363512 
L 128.008067 228.546834 
L 128.34401 177.054368 
L 128.679952 221.988954 
L 129.015894 231.261686 
L 129.351836 212.605949 
L 129.687778 184.053386 
L 130.023721 179.041622 
L 130.359663 179.016956 
L 130.695605 174.363512 
L 131.031547 228.030333 
L 131.367489 177.056668 
L 131.703432 221.394145 
L 132.039374 213.260779 
L 132.375316 184.500543 
L 132.711258 179.041622 
L 133.0472 179.023763 
L 133.383143 174.363512 
L 133.719085 174.363512 
L 134.055027 227.530734 
L 134.390969 177.062526 
L 134.726911 220.859385 
L 135.062854 214.429946 
L 135.398796 230.95987 
L 135.734738 178.457801 
L 136.07068 179.041622 
L 136.406623 179.031088 
L 136.742565 174.363512 
L 137.078507 174.363512 
L 137.414449 227.131106 
L 137.750391 177.065962 
L 138.086334 220.195062 
L 138.422276 214.506084 
L 138.758218 214.51985 
L 139.09416 199.340685 
L 139.430102 236.569349 
L 139.766045 179.041622 
L 140.101987 179.042285 
L 140.437929 174.363512 
L 140.773871 226.81277 
L 141.109813 177.068369 
L 141.445756 218.969166 
L 141.781698 214.755292 
L 142.11764 214.68211 
L 142.453582 235.880503 
L 142.789524 179.041622 
L 143.125467 179.072864 
L 143.461409 174.363512 
L 143.797351 226.139757 
L 144.133293 177.073 
L 144.469235 217.900382 
L 144.805178 214.862722 
L 145.14112 214.740046 
L 145.477062 235.330013 
L 145.813004 179.075471 
L 146.148946 174.363512 
L 146.484889 225.609743 
L 146.820831 177.075305 
L 147.156773 217.173346 
L 147.492715 214.843788 
L 147.828657 214.740046 
L 148.1646 234.489685 
L 148.500542 179.076675 
L 148.836484 174.363512 
L 149.172426 225.242099 
L 149.508368 177.076941 
L 149.844311 216.695747 
L 150.180253 214.858854 
L 150.516195 233.504652 
L 150.852137 179.077964 
L 151.188079 174.363512 
L 151.524022 224.875331 
L 151.859964 177.095662 
L 152.195906 215.667872 
L 152.531848 214.883721 
L 152.86779 214.88023 
L 153.203733 231.991698 
L 153.539675 179.079194 
L 153.875617 174.363512 
L 154.211559 224.338766 
L 154.547502 177.101182 
L 154.883444 215.685086 
L 155.219386 214.944902 
L 155.555328 226.45532 
L 155.89127 179.080566 
L 156.227213 174.363512 
L 156.563155 222.320717 
L 156.899097 177.102417 
L 157.235039 215.687466 
L 157.570981 212.233876 
L 157.906924 199.509767 
L 158.242866 179.083396 
L 158.578808 174.363512 
L 158.91475 221.849702 
L 159.250692 177.11841 
L 159.586635 177.102937 
L 159.922577 215.68856 
L 160.258519 209.668708 
L 160.594461 211.603351 
L 160.930403 179.086344 
L 161.266346 174.363512 
L 161.602288 221.633918 
L 161.93823 177.134259 
L 162.274172 177.103546 
L 162.610114 215.689859 
L 162.946057 209.482249 
L 163.281999 209.317707 
L 163.617941 179.097553 
L 163.953883 174.363512 
L 164.289825 221.492057 
L 164.625768 177.104096 
L 164.96171 215.691864 
L 165.297652 209.328563 
L 165.633594 211.768805 
L 165.969536 207.952368 
L 166.305479 179.157065 
L 166.641421 174.363512 
L 166.977363 220.973822 
L 167.313305 221.433054 
L 167.649247 177.104654 
L 167.98519 215.69365 
L 168.321132 209.110264 
L 168.657074 212.896997 
L 168.993016 202.230338 
L 169.328958 220.735767 
L 169.664901 221.391295 
L 170.000843 177.105253 
L 170.336785 215.695039 
L 170.672727 208.129764 
L 171.008669 220.267181 
L 171.344612 200.967275 
L 171.680554 220.332863 
L 172.016496 221.3427 
L 172.352438 177.10873 
L 172.68838 215.696768 
L 173.024323 207.941008 
L 173.360265 220.817681 
L 173.696207 200.547586 
L 174.032149 219.559516 
L 174.368092 221.249754 
L 174.704034 177.123436 
L 175.039976 215.698556 
L 175.375918 207.801249 
L 176.047803 229.559759 
L 176.383745 200.328538 
L 176.719687 217.28265 
L 177.055629 220.89329 
L 177.391571 215.700665 
L 177.727514 207.640262 
L 178.063456 220.853018 
L 178.399398 174.789452 
L 179.071282 219.676811 
L 179.407225 215.701867 
L 179.743167 207.480565 
L 180.079109 220.863348 
L 180.415051 228.664197 
L 180.750993 185.550059 
L 181.422878 215.707296 
L 181.75882 206.077612 
L 182.094762 220.885833 
L 182.430704 226.647928 
L 182.766647 185.893358 
L 183.102589 186.152141 
L 183.774473 215.709409 
L 184.110415 203.209787 
L 184.446358 220.894785 
L 184.7823 220.890293 
L 185.118242 186.065953 
L 185.454184 186.667971 
L 186.126069 215.710143 
L 186.462011 220.908179 
L 186.797953 220.890914 
L 187.133895 186.082015 
L 187.469837 187.030821 
L 188.477664 220.891589 
L 188.813606 186.088648 
L 189.149548 187.489304 
L 189.485491 199.386596 
L 189.821433 215.711101 
L 190.157375 220.892179 
L 190.493317 186.093329 
L 190.829259 187.776594 
L 191.165202 199.264566 
L 191.501144 215.711307 
L 191.837086 220.892807 
L 192.173028 186.098116 
L 192.50897 188.217772 
L 192.844913 199.130446 
L 193.180855 215.711609 
L 193.516797 220.893703 
L 193.852739 186.103765 
L 194.188682 188.657589 
L 194.524624 198.399272 
L 194.860566 215.712115 
L 195.196508 220.894792 
L 195.53245 186.110891 
L 195.868393 189.151094 
L 196.540277 197.532182 
L 196.876219 215.714374 
L 197.212161 220.901543 
L 197.548104 186.117272 
L 197.884046 189.508224 
L 198.219988 235.775888 
L 198.55593 192.20813 
L 198.891872 197.532182 
L 199.227815 215.722677 
L 199.563757 220.924642 
L 199.899699 186.122322 
L 200.235641 189.933903 
L 200.571583 235.969258 
L 200.907526 190.262321 
L 201.243468 197.532182 
L 201.57941 186.130988 
L 201.915352 190.551581 
L 202.251294 239.839813 
L 202.587237 236.932325 
L 202.923179 190.064263 
L 203.259121 197.532182 
L 203.595063 186.161241 
L 203.931005 191.009533 
L 204.266948 239.065325 
L 204.60289 237.396935 
L 204.938832 189.926045 
L 205.274774 197.532182 
L 205.610716 186.346199 
L 205.946659 191.451316 
L 206.282601 238.625045 
L 206.618543 238.798533 
L 206.954485 237.396935 
L 207.290427 189.782863 
L 207.62637 197.532182 
L 207.962312 191.883703 
L 208.298254 238.326085 
L 208.634196 240.794604 
L 208.970138 237.396935 
L 209.306081 189.181582 
L 209.642023 197.532182 
L 209.977965 192.403733 
L 210.313907 237.838858 
L 210.649849 241.212282 
L 210.985792 237.396935 
L 211.321734 189.034763 
L 211.657676 197.532182 
L 211.993618 193.274733 
L 212.329561 192.403733 
L 212.665503 236.219286 
L 213.001445 241.319034 
L 213.337387 237.396935 
L 213.673329 188.894714 
L 214.009272 197.532182 
L 214.345214 196.212983 
L 214.681156 193.274733 
L 215.017098 234.416194 
L 215.35304 241.37496 
L 215.688983 237.396935 
L 216.024925 188.755427 
L 216.360867 197.532182 
L 216.696809 141.404267 
L 217.368694 233.402143 
L 217.704636 241.421322 
L 218.040578 237.396935 
L 218.37652 188.595646 
L 218.712462 197.532182 
L 219.048405 144.387955 
L 219.384347 141.404267 
L 219.720289 232.449549 
L 220.056231 241.458896 
L 220.392173 237.396935 
L 220.728116 188.043854 
L 221.064058 197.532182 
L 221.4 145.29334 
L 221.735942 144.387955 
L 222.071884 231.540696 
L 222.407827 241.516329 
L 222.743769 237.396935 
L 223.079711 239.941234 
L 223.751595 146.290095 
L 224.087538 145.29334 
L 224.42348 145.349667 
L 224.759422 230.048495 
L 225.095364 241.568105 
L 225.431306 237.396935 
L 226.103191 147.397988 
L 226.439133 146.290095 
L 226.775075 146.290095 
L 227.111017 145.357893 
L 227.44696 229.009148 
L 227.782902 241.617382 
L 228.118844 237.396935 
L 228.790728 147.804093 
L 229.126671 147.397988 
L 229.462613 145.362379 
L 229.798555 228.278881 
L 230.134497 241.672896 
L 230.470439 237.396935 
L 231.142324 147.814669 
L 231.814208 147.896513 
L 232.150151 145.365417 
L 232.486093 227.929954 
L 232.822035 241.731536 
L 233.157977 237.396935 
L 233.829862 147.830218 
L 234.501746 147.899187 
L 234.837688 147.914292 
L 235.17363 145.370033 
L 235.509573 227.708919 
L 235.845515 241.859751 
L 236.181457 237.396935 
L 236.853341 147.839933 
L 237.525226 147.900318 
L 237.861168 147.925669 
L 238.19711 145.377037 
L 238.533052 227.559472 
L 238.868995 239.49428 
L 239.204937 237.396935 
L 239.876821 147.841623 
L 240.548706 147.900982 
L 240.884648 145.382006 
L 241.22059 227.351011 
L 241.556532 239.510164 
L 241.892474 238.996003 
L 242.228417 237.396935 
L 242.564359 144.479538 
L 242.900301 147.841623 
L 243.236243 148.26299 
L 243.572185 147.901593 
L 243.908128 145.385401 
L 244.24407 227.191913 
L 244.580012 239.524172 
L 244.915954 238.727199 
L 245.251896 237.396935 
L 245.587839 142.004643 
L 245.923781 144.479538 
L 246.259723 148.511985 
L 246.595665 147.902138 
L 246.931607 145.388084 
L 247.26755 226.056549 
L 247.603492 238.687055 
L 247.939434 237.396935 
L 248.275376 138.635073 
L 248.611318 142.004643 
L 248.947261 148.709275 
L 249.283203 147.902703 
L 249.619145 145.396685 
L 249.955087 225.444093 
L 250.29103 216.210479 
L 250.626972 238.656412 
L 250.962914 237.396935 
L 251.298856 136.250576 
L 251.634798 138.635073 
L 251.970741 148.790796 
L 252.306683 147.904408 
L 252.642625 145.466259 
L 252.978567 224.767802 
L 253.314509 238.627753 
L 253.650452 237.396935 
L 253.986394 129.582229 
L 254.322336 136.250576 
L 254.658278 148.795432 
L 254.99422 149.06724 
L 255.330163 147.906127 
L 255.666105 145.469724 
L 256.002047 222.93467 
L 256.337989 238.597191 
L 256.673931 237.396935 
L 257.009874 124.753696 
L 257.345816 129.582229 
L 257.681758 148.797138 
L 258.0177 149.276371 
L 258.353642 147.922186 
L 258.689585 145.472458 
L 259.025527 238.570148 
L 259.361469 237.396935 
L 259.697411 123.571918 
L 260.033353 124.753696 
L 260.369296 124.785033 
L 260.705238 148.799679 
L 261.04118 145.475549 
L 261.377122 238.542487 
L 261.713064 123.292095 
L 262.049007 123.571918 
L 262.384949 124.788995 
L 262.720891 148.801208 
L 263.056833 145.478299 
L 263.392775 238.399724 
L 263.728718 115.706193 
L 264.06466 123.292095 
L 264.400602 123.292095 
L 264.736544 124.791918 
L 265.072486 148.803053 
L 265.408429 145.481465 
L 265.744371 238.411253 
L 266.080313 238.064753 
L 266.416255 110.389885 
L 266.752197 115.706193 
L 267.08814 123.292095 
L 267.424082 124.794762 
L 267.760024 148.804673 
L 268.095966 145.484712 
L 268.431908 238.411917 
L 268.767851 236.464074 
L 269.103793 110.819353 
L 269.439735 109.075112 
L 269.775677 123.292095 
L 270.11162 124.821482 
L 270.447562 148.815273 
L 270.783504 145.488614 
L 271.119446 238.412251 
L 271.455388 230.623831 
L 271.791331 235.855396 
L 272.127273 111.202346 
L 272.463215 110.819353 
L 272.799157 110.819353 
L 273.135099 134.863369 
L 273.471042 109.075112 
L 273.806984 123.292095 
L 274.142926 124.833918 
L 274.478868 148.893431 
L 274.81481 145.49106 
L 275.150753 238.412531 
L 275.486695 227.541918 
L 275.822637 235.272476 
L 276.158579 111.202427 
L 276.830464 111.202346 
L 277.166406 127.054404 
L 277.502348 123.292095 
L 277.83829 124.839754 
L 278.174232 145.501574 
L 278.510175 238.412759 
L 278.846117 235.3039 
L 279.182059 234.786536 
L 279.518001 111.202536 
L 279.853943 123.292095 
L 280.189886 124.843647 
L 280.525828 145.545897 
L 280.86177 238.413117 
L 281.197712 235.311605 
L 281.533654 234.674736 
L 281.869597 111.202569 
L 282.205539 123.292095 
L 282.541481 124.849599 
L 282.877423 238.413971 
L 283.213365 235.316896 
L 283.549308 234.619256 
L 283.88525 111.202675 
L 284.221192 123.292095 
L 284.557134 124.861223 
L 284.893076 238.414562 
L 285.229019 235.32423 
L 285.564961 234.558288 
L 285.900903 123.292095 
L 286.236845 124.864436 
L 286.572787 238.415314 
L 286.90873 235.341622 
L 287.244672 234.487939 
L 287.580614 123.292095 
L 287.916556 124.865368 
L 288.252498 238.41577 
L 288.588441 235.354843 
L 288.924383 234.416822 
L 289.260325 123.292095 
L 289.596267 124.865733 
L 289.93221 124.867732 
L 290.268152 238.416182 
L 290.604094 235.364124 
L 290.940036 234.337979 
L 291.275978 123.292095 
L 291.611921 124.866073 
L 291.947863 124.870852 
L 292.283805 238.416877 
L 292.619747 235.373847 
L 292.955689 234.223326 
L 293.291632 123.292095 
L 293.627574 124.866424 
L 293.963516 124.883811 
L 294.299458 238.41756 
L 294.6354 235.381829 
L 294.971343 234.229309 
L 295.307285 233.774982 
L 295.643227 123.292095 
L 295.979169 124.868963 
L 296.315111 124.889315 
L 296.651054 238.417883 
L 296.986996 235.395045 
L 297.322938 234.232903 
L 297.65888 230.936023 
L 297.994822 123.292095 
L 298.330765 124.887446 
L 298.666707 238.418238 
L 299.002649 235.437757 
L 299.338591 234.236236 
L 299.674533 228.903958 
L 300.010476 238.418579 
L 300.346418 235.537558 
L 300.68236 234.239488 
L 301.018302 205.843659 
L 301.354244 228.348521 
L 301.690187 238.41899 
L 302.026129 234.241927 
L 302.362071 206.311546 
L 302.698013 207.004738 
L 303.033955 228.383058 
L 303.369898 228.126619 
L 303.70584 238.419646 
L 304.041782 234.245802 
L 304.377724 206.457951 
L 304.713666 209.370039 
L 305.049609 228.403066 
L 305.385551 197.801002 
L 305.721493 238.42144 
L 306.057435 234.252336 
L 306.393377 206.552085 
L 306.72932 199.466701 
L 307.065262 197.801002 
L 307.401204 238.423828 
L 307.737146 234.301293 
L 308.073089 206.608864 
L 308.744973 199.433471 
L 309.080915 197.801002 
L 309.416857 238.424055 
L 309.7528 234.341455 
L 310.088742 206.666251 
L 310.424684 206.200573 
L 310.760626 199.429913 
L 311.096568 197.801002 
L 311.432511 238.424235 
L 311.768453 234.35418 
L 312.104395 206.71751 
L 312.440337 212.776373 
L 313.112222 199.428555 
L 313.448164 197.801002 
L 313.784106 238.42441 
L 314.120048 234.365765 
L 314.45599 206.775261 
L 314.791933 221.711856 
L 315.127875 205.422213 
L 315.463817 199.427118 
L 315.799759 197.801002 
L 316.135701 238.424597 
L 316.471644 234.372074 
L 316.807586 206.821531 
L 317.143528 232.173499 
L 317.47947 205.373846 
L 317.815412 199.425926 
L 318.151355 197.801002 
L 318.487297 238.42477 
L 318.823239 234.377113 
L 319.159181 206.877032 
L 319.495123 240.573772 
L 319.831066 205.310842 
L 320.167008 205.366944 
L 320.50295 199.424514 
L 320.838892 197.801002 
L 321.174834 238.424933 
L 321.510777 234.38141 
L 321.846719 206.936841 
L 322.182661 237.917591 
L 322.518603 212.408962 
L 322.854545 205.259628 
L 323.190488 205.361952 
L 323.52643 199.423137 
L 323.862372 197.801002 
L 324.198314 238.425159 
L 324.534256 234.386452 
L 324.870199 207.04596 
L 325.206141 234.255487 
L 325.542083 238.154455 
L 325.878025 205.35774 
L 326.213967 199.421243 
L 326.54991 197.801002 
L 326.885852 238.425437 
L 327.221794 234.39106 
L 327.557736 207.862337 
L 328.229621 240.203129 
L 328.565563 238.758312 
L 328.901505 205.350624 
L 329.237447 199.418639 
L 329.57339 197.801002 
L 329.909332 238.426754 
L 330.245274 234.398208 
L 330.581216 210.36412 
L 330.917158 217.944704 
L 331.253101 183.244915 
L 331.589043 239.335676 
L 331.924985 205.34066 
L 332.260927 199.415883 
L 332.596869 197.801002 
L 332.932812 238.438015 
L 333.268754 234.412639 
L 333.604696 212.239223 
L 333.940638 239.958105 
L 334.27658 205.333267 
L 334.612523 199.414052 
L 334.948465 197.801002 
L 335.284407 234.415532 
L 335.620349 234.42109 
L 335.956291 207.082561 
L 336.292234 240.513887 
L 336.628176 205.321019 
L 336.964118 199.412188 
L 337.30006 197.801002 
L 337.636002 234.418055 
L 337.971945 234.434614 
L 338.307887 207.072198 
L 338.643829 206.244786 
L 338.979771 241.127655 
L 339.315713 205.236007 
L 339.651656 199.411297 
L 339.987598 197.801002 
L 340.32354 234.420142 
L 340.659482 234.446168 
L 340.995424 207.061809 
L 341.331367 204.21248 
L 341.667309 206.244786 
L 342.003251 241.523372 
L 342.339193 205.048227 
L 342.675135 199.40988 
L 343.011078 197.801002 
L 343.34702 234.421765 
L 343.682962 234.452707 
L 344.018904 207.051399 
L 344.354846 202.508446 
L 344.690789 204.21248 
L 345.026731 183.16547 
L 345.362673 199.40855 
L 345.698615 197.801002 
L 346.034557 234.423415 
L 346.3705 207.041052 
L 346.706442 200.676638 
L 347.042384 202.508446 
L 347.378326 188.164724 
L 347.714269 199.406649 
L 348.050211 197.801002 
L 348.386153 234.424847 
L 348.722095 207.030666 
L 349.058037 199.172647 
L 349.39398 200.676638 
L 349.729922 205.394414 
L 350.065864 199.386582 
L 350.401806 234.425876 
L 350.737748 207.020287 
L 351.073691 197.557934 
L 351.409633 199.172647 
L 351.745575 199.378556 
L 352.081517 234.42707 
L 352.417459 207.009901 
L 352.753402 197.549048 
L 353.425286 197.557934 
L 353.761228 199.374481 
L 354.09717 234.42887 
L 354.433113 207.004831 
L 354.769055 197.547748 
L 355.440939 197.557934 
L 355.776881 199.373579 
L 356.112824 234.431809 
L 356.448766 206.890892 
L 356.784708 197.544086 
L 357.456592 197.557934 
L 357.792535 199.372869 
L 358.128477 234.442659 
L 358.464419 234.46573 
L 358.800361 206.816799 
L 359.136303 197.539785 
L 359.808188 197.557934 
L 360.14413 199.372108 
L 360.480072 206.751997 
L 360.816014 197.539227 
L 361.487899 197.557934 
L 361.823841 199.371499 
L 362.159783 206.684025 
L 362.495725 197.539137 
L 363.503552 197.557934 
L 363.839494 199.370908 
L 364.175436 206.567963 
L 364.511379 197.539053 
L 365.519205 197.557934 
L 365.855148 199.370318 
L 366.19109 206.539495 
L 366.527032 197.538925 
L 366.862974 197.527147 
L 367.198916 199.369735 
L 367.534859 206.536617 
L 367.870801 206.838718 
L 368.206743 197.538764 
L 368.542685 199.359314 
L 368.878627 206.531892 
L 369.21457 207.092499 
L 369.550512 197.538136 
L 369.886454 199.335993 
L 370.222396 199.344911 
L 370.558338 206.530957 
L 370.894281 207.519051 
L 371.230223 197.536997 
L 371.566165 199.320504 
L 371.902107 206.530168 
L 373.581818 206.50211 
L 373.581818 206.50211 
" style="fill:none;stroke:#0000ff;stroke-linecap:square;stroke-width:1.5;"/>
   </g>
   <g id="patch_3">
    <path d="M 54 252 
L 54 34.56 
" style="fill:none;stroke:#000000;stroke-linecap:square;stroke-linejoin:miter;stroke-width:0.8;"/>
   </g>
   <g id="patch_4">
    <path d="M 388.8 252 
L 388.8 34.56 
" style="fill:none;stroke:#000000;stroke-linecap:square;stroke-linejoin:miter;stroke-width:0.8;"/>
   </g>
   <g id="patch_5">
    <path d="M 54 252 
L 388.8 252 
" style="fill:none;stroke:#000000;stroke-linecap:square;stroke-linejoin:miter;stroke-width:0.8;"/>
   </g>
   <g id="patch_6">
    <path d="M 54 34.56 
L 388.8 34.56 
" style="fill:none;stroke:#000000;stroke-linecap:square;stroke-linejoin:miter;stroke-width:0.8;"/>
   </g>
   <g id="legend_1">
    <g id="patch_7">
     <path d="M 61 87.42875 
L 291.146875 87.42875 
Q 293.146875 87.42875 293.146875 85.42875 
L 293.146875 41.56 
Q 293.146875 39.56 291.146875 39.56 
L 61 39.56 
Q 59 39.56 59 41.56 
L 59 85.42875 
Q 59 87.42875 61 87.42875 
z
" style="fill:#ffffff;opacity:0.8;stroke:#cccccc;stroke-linejoin:miter;"/>
    </g>
    <g id="line2d_17">
     <path d="M 63 47.658437 
L 83 47.658437 
" style="fill:none;stroke:#ff0000;stroke-linecap:square;stroke-width:1.5;"/>
    </g>
    <g id="line2d_18"/>
    <g id="text_10">
     <!-- off_endOpenDSS_pandapower_Phase_A -->
     <defs>
      <path d="M 30.609375 48.390625 
Q 23.390625 48.390625 19.1875 42.75 
Q 14.984375 37.109375 14.984375 27.296875 
Q 14.984375 17.484375 19.15625 11.84375 
Q 23.34375 6.203125 30.609375 6.203125 
Q 37.796875 6.203125 41.984375 11.859375 
Q 46.1875 17.53125 46.1875 27.296875 
Q 46.1875 37.015625 41.984375 42.703125 
Q 37.796875 48.390625 30.609375 48.390625 
z
M 30.609375 56 
Q 42.328125 56 49.015625 48.375 
Q 55.71875 40.765625 55.71875 27.296875 
Q 55.71875 13.875 49.015625 6.21875 
Q 42.328125 -1.421875 30.609375 -1.421875 
Q 18.84375 -1.421875 12.171875 6.21875 
Q 5.515625 13.875 5.515625 27.296875 
Q 5.515625 40.765625 12.171875 48.375 
Q 18.84375 56 30.609375 56 
z
" id="DejaVuSans-111"/>
      <path d="M 37.109375 75.984375 
L 37.109375 68.5 
L 28.515625 68.5 
Q 23.6875 68.5 21.796875 66.546875 
Q 19.921875 64.59375 19.921875 59.515625 
L 19.921875 54.6875 
L 34.71875 54.6875 
L 34.71875 47.703125 
L 19.921875 47.703125 
L 19.921875 0 
L 10.890625 0 
L 10.890625 47.703125 
L 2.296875 47.703125 
L 2.296875 54.6875 
L 10.890625 54.6875 
L 10.890625 58.5 
Q 10.890625 67.625 15.140625 71.796875 
Q 19.390625 75.984375 28.609375 75.984375 
z
" id="DejaVuSans-102"/>
      <path d="M 50.984375 -16.609375 
L 50.984375 -23.578125 
L -0.984375 -23.578125 
L -0.984375 -16.609375 
z
" id="DejaVuSans-95"/>
      <path d="M 56.203125 29.59375 
L 56.203125 25.203125 
L 14.890625 25.203125 
Q 15.484375 15.921875 20.484375 11.0625 
Q 25.484375 6.203125 34.421875 6.203125 
Q 39.59375 6.203125 44.453125 7.46875 
Q 49.3125 8.734375 54.109375 11.28125 
L 54.109375 2.78125 
Q 49.265625 0.734375 44.1875 -0.34375 
Q 39.109375 -1.421875 33.890625 -1.421875 
Q 20.796875 -1.421875 13.15625 6.1875 
Q 5.515625 13.8125 5.515625 26.8125 
Q 5.515625 40.234375 12.765625 48.109375 
Q 20.015625 56 32.328125 56 
Q 43.359375 56 49.78125 48.890625 
Q 56.203125 41.796875 56.203125 29.59375 
z
M 47.21875 32.234375 
Q 47.125 39.59375 43.09375 43.984375 
Q 39.0625 48.390625 32.421875 48.390625 
Q 24.90625 48.390625 20.390625 44.140625 
Q 15.875 39.890625 15.1875 32.171875 
z
" id="DejaVuSans-101"/>
      <path d="M 54.890625 33.015625 
L 54.890625 0 
L 45.90625 0 
L 45.90625 32.71875 
Q 45.90625 40.484375 42.875 44.328125 
Q 39.84375 48.1875 33.796875 48.1875 
Q 26.515625 48.1875 22.3125 43.546875 
Q 18.109375 38.921875 18.109375 30.90625 
L 18.109375 0 
L 9.078125 0 
L 9.078125 54.6875 
L 18.109375 54.6875 
L 18.109375 46.1875 
Q 21.34375 51.125 25.703125 53.5625 
Q 30.078125 56 35.796875 56 
Q 45.21875 56 50.046875 50.171875 
Q 54.890625 44.34375 54.890625 33.015625 
z
" id="DejaVuSans-110"/>
      <path d="M 45.40625 46.390625 
L 45.40625 75.984375 
L 54.390625 75.984375 
L 54.390625 0 
L 45.40625 0 
L 45.40625 8.203125 
Q 42.578125 3.328125 38.25 0.953125 
Q 33.9375 -1.421875 27.875 -1.421875 
Q 17.96875 -1.421875 11.734375 6.484375 
Q 5.515625 14.40625 5.515625 27.296875 
Q 5.515625 40.1875 11.734375 48.09375 
Q 17.96875 56 27.875 56 
Q 33.9375 56 38.25 53.625 
Q 42.578125 51.265625 45.40625 46.390625 
z
M 14.796875 27.296875 
Q 14.796875 17.390625 18.875 11.75 
Q 22.953125 6.109375 30.078125 6.109375 
Q 37.203125 6.109375 41.296875 11.75 
Q 45.40625 17.390625 45.40625 27.296875 
Q 45.40625 37.203125 41.296875 42.84375 
Q 37.203125 48.484375 30.078125 48.484375 
Q 22.953125 48.484375 18.875 42.84375 
Q 14.796875 37.203125 14.796875 27.296875 
z
" id="DejaVuSans-100"/>
      <path d="M 39.40625 66.21875 
Q 28.65625 66.21875 22.328125 58.203125 
Q 16.015625 50.203125 16.015625 36.375 
Q 16.015625 22.609375 22.328125 14.59375 
Q 28.65625 6.59375 39.40625 6.59375 
Q 50.140625 6.59375 56.421875 14.59375 
Q 62.703125 22.609375 62.703125 36.375 
Q 62.703125 50.203125 56.421875 58.203125 
Q 50.140625 66.21875 39.40625 66.21875 
z
M 39.40625 74.21875 
Q 54.734375 74.21875 63.90625 63.9375 
Q 73.09375 53.65625 73.09375 36.375 
Q 73.09375 19.140625 63.90625 8.859375 
Q 54.734375 -1.421875 39.40625 -1.421875 
Q 24.03125 -1.421875 14.8125 8.828125 
Q 5.609375 19.09375 5.609375 36.375 
Q 5.609375 53.65625 14.8125 63.9375 
Q 24.03125 74.21875 39.40625 74.21875 
z
" id="DejaVuSans-79"/>
      <path d="M 18.109375 8.203125 
L 18.109375 -20.796875 
L 9.078125 -20.796875 
L 9.078125 54.6875 
L 18.109375 54.6875 
L 18.109375 46.390625 
Q 20.953125 51.265625 25.265625 53.625 
Q 29.59375 56 35.59375 56 
Q 45.5625 56 51.78125 48.09375 
Q 58.015625 40.1875 58.015625 27.296875 
Q 58.015625 14.40625 51.78125 6.484375 
Q 45.5625 -1.421875 35.59375 -1.421875 
Q 29.59375 -1.421875 25.265625 0.953125 
Q 20.953125 3.328125 18.109375 8.203125 
z
M 48.6875 27.296875 
Q 48.6875 37.203125 44.609375 42.84375 
Q 40.53125 48.484375 33.40625 48.484375 
Q 26.265625 48.484375 22.1875 42.84375 
Q 18.109375 37.203125 18.109375 27.296875 
Q 18.109375 17.390625 22.1875 11.75 
Q 26.265625 6.109375 33.40625 6.109375 
Q 40.53125 6.109375 44.609375 11.75 
Q 48.6875 17.390625 48.6875 27.296875 
z
" id="DejaVuSans-112"/>
      <path d="M 19.671875 64.796875 
L 19.671875 8.109375 
L 31.59375 8.109375 
Q 46.6875 8.109375 53.6875 14.9375 
Q 60.6875 21.78125 60.6875 36.53125 
Q 60.6875 51.171875 53.6875 57.984375 
Q 46.6875 64.796875 31.59375 64.796875 
z
M 9.8125 72.90625 
L 30.078125 72.90625 
Q 51.265625 72.90625 61.171875 64.09375 
Q 71.09375 55.28125 71.09375 36.53125 
Q 71.09375 17.671875 61.125 8.828125 
Q 51.171875 0 30.078125 0 
L 9.8125 0 
z
" id="DejaVuSans-68"/>
      <path d="M 53.515625 70.515625 
L 53.515625 60.890625 
Q 47.90625 63.578125 42.921875 64.890625 
Q 37.9375 66.21875 33.296875 66.21875 
Q 25.25 66.21875 20.875 63.09375 
Q 16.5 59.96875 16.5 54.203125 
Q 16.5 49.359375 19.40625 46.890625 
Q 22.3125 44.4375 30.421875 42.921875 
L 36.375 41.703125 
Q 47.40625 39.59375 52.65625 34.296875 
Q 57.90625 29 57.90625 20.125 
Q 57.90625 9.515625 50.796875 4.046875 
Q 43.703125 -1.421875 29.984375 -1.421875 
Q 24.8125 -1.421875 18.96875 -0.25 
Q 13.140625 0.921875 6.890625 3.21875 
L 6.890625 13.375 
Q 12.890625 10.015625 18.65625 8.296875 
Q 24.421875 6.59375 29.984375 6.59375 
Q 38.421875 6.59375 43.015625 9.90625 
Q 47.609375 13.234375 47.609375 19.390625 
Q 47.609375 24.75 44.3125 27.78125 
Q 41.015625 30.8125 33.5 32.328125 
L 27.484375 33.5 
Q 16.453125 35.6875 11.515625 40.375 
Q 6.59375 45.0625 6.59375 53.421875 
Q 6.59375 63.09375 13.40625 68.65625 
Q 20.21875 74.21875 32.171875 74.21875 
Q 37.3125 74.21875 42.625 73.28125 
Q 47.953125 72.359375 53.515625 70.515625 
z
" id="DejaVuSans-83"/>
      <path d="M 34.28125 27.484375 
Q 23.390625 27.484375 19.1875 25 
Q 14.984375 22.515625 14.984375 16.5 
Q 14.984375 11.71875 18.140625 8.90625 
Q 21.296875 6.109375 26.703125 6.109375 
Q 34.1875 6.109375 38.703125 11.40625 
Q 43.21875 16.703125 43.21875 25.484375 
L 43.21875 27.484375 
z
M 52.203125 31.203125 
L 52.203125 0 
L 43.21875 0 
L 43.21875 8.296875 
Q 40.140625 3.328125 35.546875 0.953125 
Q 30.953125 -1.421875 24.3125 -1.421875 
Q 15.921875 -1.421875 10.953125 3.296875 
Q 6 8.015625 6 15.921875 
Q 6 25.140625 12.171875 29.828125 
Q 18.359375 34.515625 30.609375 34.515625 
L 43.21875 34.515625 
L 43.21875 35.40625 
Q 43.21875 41.609375 39.140625 45 
Q 35.0625 48.390625 27.6875 48.390625 
Q 23 48.390625 18.546875 47.265625 
Q 14.109375 46.140625 10.015625 43.890625 
L 10.015625 52.203125 
Q 14.9375 54.109375 19.578125 55.046875 
Q 24.21875 56 28.609375 56 
Q 40.484375 56 46.34375 49.84375 
Q 52.203125 43.703125 52.203125 31.203125 
z
" id="DejaVuSans-97"/>
      <path d="M 4.203125 54.6875 
L 13.1875 54.6875 
L 24.421875 12.015625 
L 35.59375 54.6875 
L 46.1875 54.6875 
L 57.421875 12.015625 
L 68.609375 54.6875 
L 77.59375 54.6875 
L 63.28125 0 
L 52.6875 0 
L 40.921875 44.828125 
L 29.109375 0 
L 18.5 0 
z
" id="DejaVuSans-119"/>
      <path d="M 41.109375 46.296875 
Q 39.59375 47.171875 37.8125 47.578125 
Q 36.03125 48 33.890625 48 
Q 26.265625 48 22.1875 43.046875 
Q 18.109375 38.09375 18.109375 28.8125 
L 18.109375 0 
L 9.078125 0 
L 9.078125 54.6875 
L 18.109375 54.6875 
L 18.109375 46.1875 
Q 20.953125 51.171875 25.484375 53.578125 
Q 30.03125 56 36.53125 56 
Q 37.453125 56 38.578125 55.875 
Q 39.703125 55.765625 41.0625 55.515625 
z
" id="DejaVuSans-114"/>
      <path d="M 19.671875 64.796875 
L 19.671875 37.40625 
L 32.078125 37.40625 
Q 38.96875 37.40625 42.71875 40.96875 
Q 46.484375 44.53125 46.484375 51.125 
Q 46.484375 57.671875 42.71875 61.234375 
Q 38.96875 64.796875 32.078125 64.796875 
z
M 9.8125 72.90625 
L 32.078125 72.90625 
Q 44.34375 72.90625 50.609375 67.359375 
Q 56.890625 61.8125 56.890625 51.125 
Q 56.890625 40.328125 50.609375 34.8125 
Q 44.34375 29.296875 32.078125 29.296875 
L 19.671875 29.296875 
L 19.671875 0 
L 9.8125 0 
z
" id="DejaVuSans-80"/>
      <path d="M 54.890625 33.015625 
L 54.890625 0 
L 45.90625 0 
L 45.90625 32.71875 
Q 45.90625 40.484375 42.875 44.328125 
Q 39.84375 48.1875 33.796875 48.1875 
Q 26.515625 48.1875 22.3125 43.546875 
Q 18.109375 38.921875 18.109375 30.90625 
L 18.109375 0 
L 9.078125 0 
L 9.078125 75.984375 
L 18.109375 75.984375 
L 18.109375 46.1875 
Q 21.34375 51.125 25.703125 53.5625 
Q 30.078125 56 35.796875 56 
Q 45.21875 56 50.046875 50.171875 
Q 54.890625 44.34375 54.890625 33.015625 
z
" id="DejaVuSans-104"/>
      <path d="M 34.1875 63.1875 
L 20.796875 26.90625 
L 47.609375 26.90625 
z
M 28.609375 72.90625 
L 39.796875 72.90625 
L 67.578125 0 
L 57.328125 0 
L 50.6875 18.703125 
L 17.828125 18.703125 
L 11.1875 0 
L 0.78125 0 
z
" id="DejaVuSans-65"/>
     </defs>
     <g transform="translate(91 51.158437)scale(0.1 -0.1)">
      <use xlink:href="#DejaVuSans-111"/>
      <use x="61.181641" xlink:href="#DejaVuSans-102"/>
      <use x="96.386719" xlink:href="#DejaVuSans-102"/>
      <use x="131.591797" xlink:href="#DejaVuSans-95"/>
      <use x="181.591797" xlink:href="#DejaVuSans-101"/>
      <use x="243.115234" xlink:href="#DejaVuSans-110"/>
      <use x="306.494141" xlink:href="#DejaVuSans-100"/>
      <use x="369.970703" xlink:href="#DejaVuSans-79"/>
      <use x="448.681641" xlink:href="#DejaVuSans-112"/>
      <use x="512.158203" xlink:href="#DejaVuSans-101"/>
      <use x="573.681641" xlink:href="#DejaVuSans-110"/>
      <use x="637.060547" xlink:href="#DejaVuSans-68"/>
      <use x="714.0625" xlink:href="#DejaVuSans-83"/>
      <use x="777.539062" xlink:href="#DejaVuSans-83"/>
      <use x="841.015625" xlink:href="#DejaVuSans-95"/>
      <use x="891.015625" xlink:href="#DejaVuSans-112"/>
      <use x="954.492188" xlink:href="#DejaVuSans-97"/>
      <use x="1015.771484" xlink:href="#DejaVuSans-110"/>
      <use x="1079.150391" xlink:href="#DejaVuSans-100"/>
      <use x="1142.626953" xlink:href="#DejaVuSans-97"/>
      <use x="1203.90625" xlink:href="#DejaVuSans-112"/>
      <use x="1267.382812" xlink:href="#DejaVuSans-111"/>
      <use x="1328.564453" xlink:href="#DejaVuSans-119"/>
      <use x="1410.351562" xlink:href="#DejaVuSans-101"/>
      <use x="1471.875" xlink:href="#DejaVuSans-114"/>
      <use x="1512.988281" xlink:href="#DejaVuSans-95"/>
      <use x="1562.988281" xlink:href="#DejaVuSans-80"/>
      <use x="1623.291016" xlink:href="#DejaVuSans-104"/>
      <use x="1686.669922" xlink:href="#DejaVuSans-97"/>
      <use x="1747.949219" xlink:href="#DejaVuSans-115"/>
      <use x="1800.048828" xlink:href="#DejaVuSans-101"/>
      <use x="1861.572266" xlink:href="#DejaVuSans-95"/>
      <use x="1911.572266" xlink:href="#DejaVuSans-65"/>
     </g>
    </g>
    <g id="line2d_19">
     <path d="M 63 62.614688 
L 83 62.614688 
" style="fill:none;stroke:#ffff00;stroke-linecap:square;stroke-width:1.5;"/>
    </g>
    <g id="line2d_20"/>
    <g id="text_11">
     <!-- off_endOpenDSS_pandapower_Phase_B -->
     <g transform="translate(91 66.114688)scale(0.1 -0.1)">
      <use xlink:href="#DejaVuSans-111"/>
      <use x="61.181641" xlink:href="#DejaVuSans-102"/>
      <use x="96.386719" xlink:href="#DejaVuSans-102"/>
      <use x="131.591797" xlink:href="#DejaVuSans-95"/>
      <use x="181.591797" xlink:href="#DejaVuSans-101"/>
      <use x="243.115234" xlink:href="#DejaVuSans-110"/>
      <use x="306.494141" xlink:href="#DejaVuSans-100"/>
      <use x="369.970703" xlink:href="#DejaVuSans-79"/>
      <use x="448.681641" xlink:href="#DejaVuSans-112"/>
      <use x="512.158203" xlink:href="#DejaVuSans-101"/>
      <use x="573.681641" xlink:href="#DejaVuSans-110"/>
      <use x="637.060547" xlink:href="#DejaVuSans-68"/>
      <use x="714.0625" xlink:href="#DejaVuSans-83"/>
      <use x="777.539062" xlink:href="#DejaVuSans-83"/>
      <use x="841.015625" xlink:href="#DejaVuSans-95"/>
      <use x="891.015625" xlink:href="#DejaVuSans-112"/>
      <use x="954.492188" xlink:href="#DejaVuSans-97"/>
      <use x="1015.771484" xlink:href="#DejaVuSans-110"/>
      <use x="1079.150391" xlink:href="#DejaVuSans-100"/>
      <use x="1142.626953" xlink:href="#DejaVuSans-97"/>
      <use x="1203.90625" xlink:href="#DejaVuSans-112"/>
      <use x="1267.382812" xlink:href="#DejaVuSans-111"/>
      <use x="1328.564453" xlink:href="#DejaVuSans-119"/>
      <use x="1410.351562" xlink:href="#DejaVuSans-101"/>
      <use x="1471.875" xlink:href="#DejaVuSans-114"/>
      <use x="1512.988281" xlink:href="#DejaVuSans-95"/>
      <use x="1562.988281" xlink:href="#DejaVuSans-80"/>
      <use x="1623.291016" xlink:href="#DejaVuSans-104"/>
      <use x="1686.669922" xlink:href="#DejaVuSans-97"/>
      <use x="1747.949219" xlink:href="#DejaVuSans-115"/>
      <use x="1800.048828" xlink:href="#DejaVuSans-101"/>
      <use x="1861.572266" xlink:href="#DejaVuSans-95"/>
      <use x="1911.572266" xlink:href="#DejaVuSans-66"/>
     </g>
    </g>
    <g id="line2d_21">
     <path d="M 63 77.570937 
L 83 77.570937 
" style="fill:none;stroke:#0000ff;stroke-linecap:square;stroke-width:1.5;"/>
    </g>
    <g id="line2d_22"/>
    <g id="text_12">
     <!-- off_endOpenDSS_pandapower_Phase_C -->
     <defs>
      <path d="M 64.40625 67.28125 
L 64.40625 56.890625 
Q 59.421875 61.53125 53.78125 63.8125 
Q 48.140625 66.109375 41.796875 66.109375 
Q 29.296875 66.109375 22.65625 58.46875 
Q 16.015625 50.828125 16.015625 36.375 
Q 16.015625 21.96875 22.65625 14.328125 
Q 29.296875 6.6875 41.796875 6.6875 
Q 48.140625 6.6875 53.78125 8.984375 
Q 59.421875 11.28125 64.40625 15.921875 
L 64.40625 5.609375 
Q 59.234375 2.09375 53.4375 0.328125 
Q 47.65625 -1.421875 41.21875 -1.421875 
Q 24.65625 -1.421875 15.125 8.703125 
Q 5.609375 18.84375 5.609375 36.375 
Q 5.609375 53.953125 15.125 64.078125 
Q 24.65625 74.21875 41.21875 74.21875 
Q 47.75 74.21875 53.53125 72.484375 
Q 59.328125 70.75 64.40625 67.28125 
z
" id="DejaVuSans-67"/>
     </defs>
     <g transform="translate(91 81.070937)scale(0.1 -0.1)">
      <use xlink:href="#DejaVuSans-111"/>
      <use x="61.181641" xlink:href="#DejaVuSans-102"/>
      <use x="96.386719" xlink:href="#DejaVuSans-102"/>
      <use x="131.591797" xlink:href="#DejaVuSans-95"/>
      <use x="181.591797" xlink:href="#DejaVuSans-101"/>
      <use x="243.115234" xlink:href="#DejaVuSans-110"/>
      <use x="306.494141" xlink:href="#DejaVuSans-100"/>
      <use x="369.970703" xlink:href="#DejaVuSans-79"/>
      <use x="448.681641" xlink:href="#DejaVuSans-112"/>
      <use x="512.158203" xlink:href="#DejaVuSans-101"/>
      <use x="573.681641" xlink:href="#DejaVuSans-110"/>
      <use x="637.060547" xlink:href="#DejaVuSans-68"/>
      <use x="714.0625" xlink:href="#DejaVuSans-83"/>
      <use x="777.539062" xlink:href="#DejaVuSans-83"/>
      <use x="841.015625" xlink:href="#DejaVuSans-95"/>
      <use x="891.015625" xlink:href="#DejaVuSans-112"/>
      <use x="954.492188" xlink:href="#DejaVuSans-97"/>
      <use x="1015.771484" xlink:href="#DejaVuSans-110"/>
      <use x="1079.150391" xlink:href="#DejaVuSans-100"/>
      <use x="1142.626953" xlink:href="#DejaVuSans-97"/>
      <use x="1203.90625" xlink:href="#DejaVuSans-112"/>
      <use x="1267.382812" xlink:href="#DejaVuSans-111"/>
      <use x="1328.564453" xlink:href="#DejaVuSans-119"/>
      <use x="1410.351562" xlink:href="#DejaVuSans-101"/>
      <use x="1471.875" xlink:href="#DejaVuSans-114"/>
      <use x="1512.988281" xlink:href="#DejaVuSans-95"/>
      <use x="1562.988281" xlink:href="#DejaVuSans-80"/>
      <use x="1623.291016" xlink:href="#DejaVuSans-104"/>
      <use x="1686.669922" xlink:href="#DejaVuSans-97"/>
      <use x="1747.949219" xlink:href="#DejaVuSans-115"/>
      <use x="1800.048828" xlink:href="#DejaVuSans-101"/>
      <use x="1861.572266" xlink:href="#DejaVuSans-95"/>
      <use x="1911.572266" xlink:href="#DejaVuSans-67"/>
     </g>
    </g>
   </g>
  </g>
 </g>
 <defs>
  <clipPath id="p104b888654">
   <rect height="217.44" width="334.8" x="54" y="34.56"/>
  </clipPath>
 </defs>
</svg>
