<?xml version="1.0" encoding="utf-8" standalone="no"?>
<!DOCTYPE svg PUBLIC "-//W3C//DTD SVG 1.1//EN"
  "http://www.w3.org/Graphics/SVG/1.1/DTD/svg11.dtd">
<!-- Created with matplotlib (https://matplotlib.org/) -->
<svg height="288pt" version="1.1" viewBox="0 0 432 288" width="432pt" xmlns="http://www.w3.org/2000/svg" xmlns:xlink="http://www.w3.org/1999/xlink">
 <defs>
  <style type="text/css">
*{stroke-linecap:butt;stroke-linejoin:round;}
  </style>
 </defs>
 <g id="figure_1">
  <g id="patch_1">
   <path d="M 0 288 
L 432 288 
L 432 0 
L 0 0 
z
" style="fill:#ffffff;"/>
  </g>
  <g id="axes_1">
   <g id="patch_2">
    <path d="M 54 252 
L 388.8 252 
L 388.8 34.56 
L 54 34.56 
z
" style="fill:#ffffff;"/>
   </g>
   <g id="matplotlib.axis_1">
    <g id="xtick_1">
     <g id="line2d_1">
      <defs>
       <path d="M 0 0 
L 0 3.5 
" id="mb8d287b9a9" style="stroke:#000000;stroke-width:0.8;"/>
      </defs>
      <g>
       <use style="stroke:#000000;stroke-width:0.8;" x="69.218182" xlink:href="#mb8d287b9a9" y="252"/>
      </g>
     </g>
    </g>
    <g id="xtick_2">
     <g id="line2d_2">
      <g>
       <use style="stroke:#000000;stroke-width:0.8;" x="136.406623" xlink:href="#mb8d287b9a9" y="252"/>
      </g>
     </g>
    </g>
    <g id="xtick_3">
     <g id="line2d_3">
      <g>
       <use style="stroke:#000000;stroke-width:0.8;" x="203.595063" xlink:href="#mb8d287b9a9" y="252"/>
      </g>
     </g>
    </g>
    <g id="xtick_4">
     <g id="line2d_4">
      <g>
       <use style="stroke:#000000;stroke-width:0.8;" x="270.783504" xlink:href="#mb8d287b9a9" y="252"/>
      </g>
     </g>
    </g>
    <g id="xtick_5">
     <g id="line2d_5">
      <g>
       <use style="stroke:#000000;stroke-width:0.8;" x="337.971945" xlink:href="#mb8d287b9a9" y="252"/>
      </g>
     </g>
    </g>
    <g id="text_1">
     <!-- Bus -->
     <defs>
      <path d="M 19.671875 34.8125 
L 19.671875 8.109375 
L 35.5 8.109375 
Q 43.453125 8.109375 47.28125 11.40625 
Q 51.125 14.703125 51.125 21.484375 
Q 51.125 28.328125 47.28125 31.5625 
Q 43.453125 34.8125 35.5 34.8125 
z
M 19.671875 64.796875 
L 19.671875 42.828125 
L 34.28125 42.828125 
Q 41.5 42.828125 45.03125 45.53125 
Q 48.578125 48.25 48.578125 53.8125 
Q 48.578125 59.328125 45.03125 62.0625 
Q 41.5 64.796875 34.28125 64.796875 
z
M 9.8125 72.90625 
L 35.015625 72.90625 
Q 46.296875 72.90625 52.390625 68.21875 
Q 58.5 63.53125 58.5 54.890625 
Q 58.5 48.1875 55.375 44.234375 
Q 52.25 40.28125 46.1875 39.3125 
Q 53.46875 37.75 57.5 32.78125 
Q 61.53125 27.828125 61.53125 20.40625 
Q 61.53125 10.640625 54.890625 5.3125 
Q 48.25 0 35.984375 0 
L 9.8125 0 
z
" id="DejaVuSans-66"/>
      <path d="M 8.5 21.578125 
L 8.5 54.6875 
L 17.484375 54.6875 
L 17.484375 21.921875 
Q 17.484375 14.15625 20.5 10.265625 
Q 23.53125 6.390625 29.59375 6.390625 
Q 36.859375 6.390625 41.078125 11.03125 
Q 45.3125 15.671875 45.3125 23.6875 
L 45.3125 54.6875 
L 54.296875 54.6875 
L 54.296875 0 
L 45.3125 0 
L 45.3125 8.40625 
Q 42.046875 3.421875 37.71875 1 
Q 33.40625 -1.421875 27.6875 -1.421875 
Q 18.265625 -1.421875 13.375 4.4375 
Q 8.5 10.296875 8.5 21.578125 
z
M 31.109375 56 
z
" id="DejaVuSans-117"/>
      <path d="M 44.28125 53.078125 
L 44.28125 44.578125 
Q 40.484375 46.53125 36.375 47.5 
Q 32.28125 48.484375 27.875 48.484375 
Q 21.1875 48.484375 17.84375 46.4375 
Q 14.5 44.390625 14.5 40.28125 
Q 14.5 37.15625 16.890625 35.375 
Q 19.28125 33.59375 26.515625 31.984375 
L 29.59375 31.296875 
Q 39.15625 29.25 43.1875 25.515625 
Q 47.21875 21.78125 47.21875 15.09375 
Q 47.21875 7.46875 41.1875 3.015625 
Q 35.15625 -1.421875 24.609375 -1.421875 
Q 20.21875 -1.421875 15.453125 -0.5625 
Q 10.6875 0.296875 5.421875 2 
L 5.421875 11.28125 
Q 10.40625 8.6875 15.234375 7.390625 
Q 20.0625 6.109375 24.8125 6.109375 
Q 31.15625 6.109375 34.5625 8.28125 
Q 37.984375 10.453125 37.984375 14.40625 
Q 37.984375 18.0625 35.515625 20.015625 
Q 33.0625 21.96875 24.703125 23.78125 
L 21.578125 24.515625 
Q 13.234375 26.265625 9.515625 29.90625 
Q 5.8125 33.546875 5.8125 39.890625 
Q 5.8125 47.609375 11.28125 51.796875 
Q 16.75 56 26.8125 56 
Q 31.78125 56 36.171875 55.265625 
Q 40.578125 54.546875 44.28125 53.078125 
z
" id="DejaVuSans-115"/>
     </defs>
     <g transform="translate(212.196094 270.598437)scale(0.1 -0.1)">
      <use xlink:href="#DejaVuSans-66"/>
      <use x="68.603516" xlink:href="#DejaVuSans-117"/>
      <use x="131.982422" xlink:href="#DejaVuSans-115"/>
     </g>
    </g>
   </g>
   <g id="matplotlib.axis_2">
    <g id="ytick_1">
     <g id="line2d_6">
      <defs>
       <path d="M 0 0 
L -3.5 0 
" id="ma4b8e6ea84" style="stroke:#000000;stroke-width:0.8;"/>
      </defs>
      <g>
       <use style="stroke:#000000;stroke-width:0.8;" x="54" xlink:href="#ma4b8e6ea84" y="242.812228"/>
      </g>
     </g>
     <g id="text_2">
      <!-- 0.0000 -->
      <defs>
       <path d="M 31.78125 66.40625 
Q 24.171875 66.40625 20.328125 58.90625 
Q 16.5 51.421875 16.5 36.375 
Q 16.5 21.390625 20.328125 13.890625 
Q 24.171875 6.390625 31.78125 6.390625 
Q 39.453125 6.390625 43.28125 13.890625 
Q 47.125 21.390625 47.125 36.375 
Q 47.125 51.421875 43.28125 58.90625 
Q 39.453125 66.40625 31.78125 66.40625 
z
M 31.78125 74.21875 
Q 44.046875 74.21875 50.515625 64.515625 
Q 56.984375 54.828125 56.984375 36.375 
Q 56.984375 17.96875 50.515625 8.265625 
Q 44.046875 -1.421875 31.78125 -1.421875 
Q 19.53125 -1.421875 13.0625 8.265625 
Q 6.59375 17.96875 6.59375 36.375 
Q 6.59375 54.828125 13.0625 64.515625 
Q 19.53125 74.21875 31.78125 74.21875 
z
" id="DejaVuSans-48"/>
       <path d="M 10.6875 12.40625 
L 21 12.40625 
L 21 0 
L 10.6875 0 
z
" id="DejaVuSans-46"/>
      </defs>
      <g transform="translate(12.009375 246.611446)scale(0.1 -0.1)">
       <use xlink:href="#DejaVuSans-48"/>
       <use x="63.623047" xlink:href="#DejaVuSans-46"/>
       <use x="95.410156" xlink:href="#DejaVuSans-48"/>
       <use x="159.033203" xlink:href="#DejaVuSans-48"/>
       <use x="222.65625" xlink:href="#DejaVuSans-48"/>
       <use x="286.279297" xlink:href="#DejaVuSans-48"/>
      </g>
     </g>
    </g>
    <g id="ytick_2">
     <g id="line2d_7">
      <g>
       <use style="stroke:#000000;stroke-width:0.8;" x="54" xlink:href="#ma4b8e6ea84" y="201.035225"/>
      </g>
     </g>
     <g id="text_3">
      <!-- 0.0001 -->
      <defs>
       <path d="M 12.40625 8.296875 
L 28.515625 8.296875 
L 28.515625 63.921875 
L 10.984375 60.40625 
L 10.984375 69.390625 
L 28.421875 72.90625 
L 38.28125 72.90625 
L 38.28125 8.296875 
L 54.390625 8.296875 
L 54.390625 0 
L 12.40625 0 
z
" id="DejaVuSans-49"/>
      </defs>
      <g transform="translate(12.009375 204.834444)scale(0.1 -0.1)">
       <use xlink:href="#DejaVuSans-48"/>
       <use x="63.623047" xlink:href="#DejaVuSans-46"/>
       <use x="95.410156" xlink:href="#DejaVuSans-48"/>
       <use x="159.033203" xlink:href="#DejaVuSans-48"/>
       <use x="222.65625" xlink:href="#DejaVuSans-48"/>
       <use x="286.279297" xlink:href="#DejaVuSans-49"/>
      </g>
     </g>
    </g>
    <g id="ytick_3">
     <g id="line2d_8">
      <g>
       <use style="stroke:#000000;stroke-width:0.8;" x="54" xlink:href="#ma4b8e6ea84" y="159.258223"/>
      </g>
     </g>
     <g id="text_4">
      <!-- 0.0002 -->
      <defs>
       <path d="M 19.1875 8.296875 
L 53.609375 8.296875 
L 53.609375 0 
L 7.328125 0 
L 7.328125 8.296875 
Q 12.9375 14.109375 22.625 23.890625 
Q 32.328125 33.6875 34.8125 36.53125 
Q 39.546875 41.84375 41.421875 45.53125 
Q 43.3125 49.21875 43.3125 52.78125 
Q 43.3125 58.59375 39.234375 62.25 
Q 35.15625 65.921875 28.609375 65.921875 
Q 23.96875 65.921875 18.8125 64.3125 
Q 13.671875 62.703125 7.8125 59.421875 
L 7.8125 69.390625 
Q 13.765625 71.78125 18.9375 73 
Q 24.125 74.21875 28.421875 74.21875 
Q 39.75 74.21875 46.484375 68.546875 
Q 53.21875 62.890625 53.21875 53.421875 
Q 53.21875 48.921875 51.53125 44.890625 
Q 49.859375 40.875 45.40625 35.40625 
Q 44.1875 33.984375 37.640625 27.21875 
Q 31.109375 20.453125 19.1875 8.296875 
z
" id="DejaVuSans-50"/>
      </defs>
      <g transform="translate(12.009375 163.057442)scale(0.1 -0.1)">
       <use xlink:href="#DejaVuSans-48"/>
       <use x="63.623047" xlink:href="#DejaVuSans-46"/>
       <use x="95.410156" xlink:href="#DejaVuSans-48"/>
       <use x="159.033203" xlink:href="#DejaVuSans-48"/>
       <use x="222.65625" xlink:href="#DejaVuSans-48"/>
       <use x="286.279297" xlink:href="#DejaVuSans-50"/>
      </g>
     </g>
    </g>
    <g id="ytick_4">
     <g id="line2d_9">
      <g>
       <use style="stroke:#000000;stroke-width:0.8;" x="54" xlink:href="#ma4b8e6ea84" y="117.481221"/>
      </g>
     </g>
     <g id="text_5">
      <!-- 0.0003 -->
      <defs>
       <path d="M 40.578125 39.3125 
Q 47.65625 37.796875 51.625 33 
Q 55.609375 28.21875 55.609375 21.1875 
Q 55.609375 10.40625 48.1875 4.484375 
Q 40.765625 -1.421875 27.09375 -1.421875 
Q 22.515625 -1.421875 17.65625 -0.515625 
Q 12.796875 0.390625 7.625 2.203125 
L 7.625 11.71875 
Q 11.71875 9.328125 16.59375 8.109375 
Q 21.484375 6.890625 26.8125 6.890625 
Q 36.078125 6.890625 40.9375 10.546875 
Q 45.796875 14.203125 45.796875 21.1875 
Q 45.796875 27.640625 41.28125 31.265625 
Q 36.765625 34.90625 28.71875 34.90625 
L 20.21875 34.90625 
L 20.21875 43.015625 
L 29.109375 43.015625 
Q 36.375 43.015625 40.234375 45.921875 
Q 44.09375 48.828125 44.09375 54.296875 
Q 44.09375 59.90625 40.109375 62.90625 
Q 36.140625 65.921875 28.71875 65.921875 
Q 24.65625 65.921875 20.015625 65.03125 
Q 15.375 64.15625 9.8125 62.3125 
L 9.8125 71.09375 
Q 15.4375 72.65625 20.34375 73.4375 
Q 25.25 74.21875 29.59375 74.21875 
Q 40.828125 74.21875 47.359375 69.109375 
Q 53.90625 64.015625 53.90625 55.328125 
Q 53.90625 49.265625 50.4375 45.09375 
Q 46.96875 40.921875 40.578125 39.3125 
z
" id="DejaVuSans-51"/>
      </defs>
      <g transform="translate(12.009375 121.28044)scale(0.1 -0.1)">
       <use xlink:href="#DejaVuSans-48"/>
       <use x="63.623047" xlink:href="#DejaVuSans-46"/>
       <use x="95.410156" xlink:href="#DejaVuSans-48"/>
       <use x="159.033203" xlink:href="#DejaVuSans-48"/>
       <use x="222.65625" xlink:href="#DejaVuSans-48"/>
       <use x="286.279297" xlink:href="#DejaVuSans-51"/>
      </g>
     </g>
    </g>
    <g id="ytick_5">
     <g id="line2d_10">
      <g>
       <use style="stroke:#000000;stroke-width:0.8;" x="54" xlink:href="#ma4b8e6ea84" y="75.704219"/>
      </g>
     </g>
     <g id="text_6">
      <!-- 0.0004 -->
      <defs>
       <path d="M 37.796875 64.3125 
L 12.890625 25.390625 
L 37.796875 25.390625 
z
M 35.203125 72.90625 
L 47.609375 72.90625 
L 47.609375 25.390625 
L 58.015625 25.390625 
L 58.015625 17.1875 
L 47.609375 17.1875 
L 47.609375 0 
L 37.796875 0 
L 37.796875 17.1875 
L 4.890625 17.1875 
L 4.890625 26.703125 
z
" id="DejaVuSans-52"/>
      </defs>
      <g transform="translate(12.009375 79.503438)scale(0.1 -0.1)">
       <use xlink:href="#DejaVuSans-48"/>
       <use x="63.623047" xlink:href="#DejaVuSans-46"/>
       <use x="95.410156" xlink:href="#DejaVuSans-48"/>
       <use x="159.033203" xlink:href="#DejaVuSans-48"/>
       <use x="222.65625" xlink:href="#DejaVuSans-48"/>
       <use x="286.279297" xlink:href="#DejaVuSans-52"/>
      </g>
     </g>
    </g>
   </g>
   <g id="line2d_11">
    <path clip-path="url(#pe358723a5e)" d="M 69.218182 136.326902 
L 69.554124 238.044837 
L 70.897893 238.091425 
L 71.233835 238.096296 
L 71.569777 238.428045 
L 74.593257 238.592416 
L 74.929199 238.705348 
L 75.265141 238.592518 
L 75.601084 238.713133 
L 75.937026 238.59262 
L 76.272968 238.721872 
L 76.60891 238.592708 
L 76.944852 238.736096 
L 77.280795 238.59281 
L 77.616737 238.761965 
L 77.952679 238.592915 
L 78.288621 238.763877 
L 78.624564 239.085158 
L 78.960506 238.593011 
L 79.296448 238.763944 
L 79.63239 238.764275 
L 79.968332 239.171227 
L 80.304275 238.593253 
L 80.640217 238.763977 
L 80.976159 238.764287 
L 81.648043 239.429788 
L 81.983986 238.593464 
L 82.319928 238.764301 
L 82.65587 239.173318 
L 82.991812 239.173332 
L 83.327754 239.607519 
L 83.663697 239.429814 
L 83.999639 238.593512 
L 84.335581 238.764317 
L 84.671523 239.173358 
L 85.007465 239.173469 
L 85.343408 239.741844 
L 85.67935 239.429826 
L 86.015292 238.593576 
L 86.351234 238.764346 
L 86.687176 239.173394 
L 87.023119 239.761157 
L 87.359061 239.741899 
L 87.695003 239.429838 
L 88.030945 238.593683 
L 88.366887 238.764365 
L 88.70283 239.173422 
L 89.038772 239.848624 
L 89.374714 239.741903 
L 89.710656 239.429849 
L 90.046598 238.593769 
L 90.382541 238.764424 
L 90.718483 239.173436 
L 91.054425 239.86639 
L 91.726309 239.741908 
L 92.062252 239.429858 
L 92.398194 238.593851 
L 92.734136 238.76452 
L 93.070078 239.173455 
L 93.40602 240.076296 
L 93.741963 239.849309 
L 94.413847 239.741917 
L 94.749789 239.429881 
L 95.085731 238.594195 
L 95.421674 239.173521 
L 95.757616 240.149472 
L 96.4295 239.429948 
L 96.765443 238.59459 
L 97.101385 239.173639 
L 97.437327 240.165437 
L 98.109211 239.430072 
L 98.445154 238.594795 
L 98.781096 240.197804 
L 99.45298 239.4301 
L 99.788922 238.594857 
L 100.124865 240.228319 
L 100.796749 238.594872 
L 101.132691 240.24605 
L 101.804576 238.594884 
L 102.140518 240.257756 
L 102.812402 238.594904 
L 103.148344 240.273914 
L 103.820229 238.594936 
L 104.156171 240.274043 
L 104.492113 240.283929 
L 104.828055 239.430448 
L 105.163998 240.274197 
L 105.49994 240.289605 
L 105.835882 239.430473 
L 106.171824 240.274376 
L 106.507766 240.51361 
L 106.843709 239.431069 
L 107.179651 240.274647 
L 107.515593 240.536052 
L 107.851535 239.431551 
L 108.187477 240.274993 
L 108.52342 240.536922 
L 108.859362 240.597758 
L 109.195304 239.431591 
L 109.531246 240.275241 
L 109.867188 240.537222 
L 110.203131 240.537327 
L 110.539073 240.709024 
L 110.875015 239.431618 
L 111.210957 240.275588 
L 111.546899 240.537462 
L 111.882842 240.53922 
L 112.218784 240.759053 
L 112.554726 239.431637 
L 112.890668 240.275962 
L 113.22661 240.537619 
L 113.898495 240.544249 
L 114.234437 240.773933 
L 114.570379 239.43169 
L 114.906321 240.276312 
L 115.242264 240.537841 
L 115.914148 240.547978 
L 116.25009 240.790724 
L 116.586033 239.431722 
L 116.921975 240.276885 
L 117.257917 240.53808 
L 117.929801 240.550466 
L 118.265744 240.806509 
L 118.601686 239.431726 
L 118.937628 240.279594 
L 119.27357 240.538272 
L 120.281397 240.556813 
L 120.617339 240.824921 
L 120.953281 239.431727 
L 121.289223 240.280181 
L 121.625166 240.538464 
L 122.632992 240.557189 
L 122.968934 240.830216 
L 123.304877 239.431728 
L 123.640819 240.281355 
L 123.976761 240.28232 
L 124.312703 240.53862 
L 125.32053 240.557524 
L 125.656472 240.860291 
L 125.992414 239.431729 
L 126.328356 240.281506 
L 126.664299 240.285143 
L 127.000241 240.538734 
L 128.34401 240.557659 
L 128.679952 240.877271 
L 129.015894 240.281673 
L 129.687778 240.28572 
L 130.023721 240.538833 
L 131.367489 240.557942 
L 131.703432 240.889871 
L 132.039374 240.287004 
L 132.375316 240.287787 
L 132.711258 240.5389 
L 134.390969 240.558644 
L 134.726911 240.901195 
L 135.062854 240.289628 
L 135.734738 240.288093 
L 136.07068 240.538963 
L 137.750391 240.559043 
L 138.086334 240.915256 
L 138.422276 240.289902 
L 139.430102 240.288131 
L 139.766045 240.539062 
L 141.109813 240.559314 
L 141.445756 240.941195 
L 141.781698 240.290462 
L 142.453582 240.288158 
L 142.789524 240.539135 
L 144.133293 240.55982 
L 144.469235 240.963801 
L 144.805178 240.290558 
L 145.477062 240.288176 
L 145.813004 240.544086 
L 146.820831 240.560063 
L 147.156773 240.979173 
L 147.492715 240.296383 
L 148.1646 240.288199 
L 148.500542 240.544102 
L 149.508368 240.56023 
L 149.844311 240.989268 
L 150.180253 240.29698 
L 150.516195 240.288219 
L 150.852137 240.544117 
L 151.859964 240.562075 
L 152.195906 241.010984 
L 152.531848 240.298454 
L 153.203733 240.288242 
L 153.539675 240.544129 
L 154.547502 240.5626 
L 154.883444 241.014001 
L 155.219386 241.025224 
L 155.555328 240.288291 
L 155.89127 240.54414 
L 156.899097 240.562713 
L 157.235039 241.014399 
L 157.570981 241.078606 
L 157.906924 240.28837 
L 158.242866 240.544157 
L 159.586635 240.56277 
L 159.922577 241.014572 
L 160.594461 241.09643 
L 160.930403 240.54417 
L 162.274172 240.562833 
L 162.610114 241.014767 
L 163.281999 241.161023 
L 163.617941 240.544199 
L 164.625768 240.562885 
L 164.96171 241.015051 
L 165.969536 241.172153 
L 166.305479 240.544244 
L 167.649247 240.562935 
L 167.98519 241.015289 
L 168.993016 241.218774 
L 169.328958 240.558928 
L 170.000843 240.562983 
L 170.336785 241.015463 
L 171.344612 241.229061 
L 171.680554 240.558969 
L 172.352438 240.56324 
L 172.68838 241.015664 
L 173.696207 241.232477 
L 174.032149 240.559006 
L 174.704034 240.564218 
L 175.039976 241.015857 
L 176.383745 241.234258 
L 176.719687 240.558993 
L 177.055629 240.55888 
L 177.391571 241.016068 
L 178.73534 241.235783 
L 179.071282 240.558944 
L 179.407225 241.016177 
L 181.086936 241.237515 
L 181.422878 241.016627 
L 183.102589 241.347614 
L 184.110415 241.080531 
L 184.446358 241.223125 
L 184.7823 241.223277 
L 185.454184 241.354388 
L 186.126069 241.016833 
L 186.462011 241.223208 
L 186.797953 241.223311 
L 187.469837 241.359143 
L 188.141722 241.016865 
L 188.813606 241.344398 
L 189.149548 241.365141 
L 189.821433 241.016885 
L 190.493317 241.344429 
L 190.829259 241.368892 
L 191.501144 241.016894 
L 192.173028 241.344457 
L 192.50897 241.374641 
L 193.180855 241.016903 
L 193.852739 241.344486 
L 194.188682 241.38036 
L 194.860566 241.016916 
L 195.53245 241.344519 
L 195.868393 241.386766 
L 196.876219 241.016951 
L 197.548104 241.344545 
L 198.219988 241.335429 
L 199.227815 241.017012 
L 199.899699 241.344562 
L 200.571583 241.337291 
L 201.243468 241.25632 
L 201.915352 241.404866 
L 203.259121 241.256608 
L 203.931005 241.410763 
L 204.266948 241.340423 
L 204.60289 241.387079 
L 204.938832 241.255742 
L 205.610716 241.344926 
L 205.946659 241.416441 
L 206.282601 241.34056 
L 206.618543 241.435266 
L 207.62637 241.2568 
L 207.962312 241.421987 
L 208.298254 241.340648 
L 208.634196 241.503873 
L 209.642023 241.256915 
L 209.977965 241.428644 
L 210.313907 241.340784 
L 210.649849 241.518223 
L 211.321734 241.256053 
L 211.657676 241.25813 
L 211.993618 241.43975 
L 212.665503 241.341213 
L 213.001445 241.521889 
L 213.673329 241.256087 
L 214.009272 241.258525 
L 214.345214 241.477065 
L 215.017098 241.341663 
L 215.35304 241.523808 
L 216.024925 241.256114 
L 216.360867 241.258646 
L 216.696809 241.529643 
L 217.368694 241.341901 
L 217.704636 241.525398 
L 218.37652 241.256137 
L 218.712462 241.25884 
L 219.048405 241.567229 
L 219.384347 241.529718 
L 219.720289 241.342109 
L 220.056231 241.526685 
L 220.728116 241.256187 
L 221.064058 241.25899 
L 221.4 241.578588 
L 221.735942 241.567251 
L 222.071884 241.342294 
L 222.407827 241.528653 
L 223.079711 241.256292 
L 223.415653 241.259139 
L 223.751595 241.610694 
L 224.42348 241.580986 
L 224.759422 241.342576 
L 225.095364 241.530425 
L 225.767249 241.25926 
L 226.103191 241.646148 
L 227.111017 241.581319 
L 227.44696 241.342756 
L 227.782902 241.53211 
L 228.454786 241.259767 
L 228.790728 241.659087 
L 229.462613 241.581492 
L 229.798555 241.342872 
L 230.134497 241.534008 
L 230.806382 241.259791 
L 231.142324 241.685779 
L 232.150151 241.581603 
L 232.486093 241.342921 
L 232.822035 241.536011 
L 233.493919 241.259807 
L 233.829862 241.723877 
L 235.17363 241.581761 
L 235.509573 241.34295 
L 235.845515 241.540389 
L 236.517399 241.259822 
L 236.853341 241.74703 
L 238.19711 241.581988 
L 238.533052 241.342966 
L 238.868995 241.639631 
L 239.540879 241.259831 
L 239.876821 241.751001 
L 240.548706 241.662756 
L 240.884648 241.582138 
L 241.22059 241.342987 
L 241.556532 241.65467 
L 241.892474 241.646471 
L 242.228417 241.387247 
L 242.564359 241.764226 
L 243.572185 241.66278 
L 243.908128 241.582234 
L 244.24407 241.343 
L 244.580012 241.667775 
L 244.915954 241.650155 
L 245.251896 241.38725 
L 245.587839 241.773927 
L 246.595665 241.662797 
L 246.931607 241.582304 
L 247.26755 241.343076 
L 247.603492 241.650704 
L 247.939434 241.387252 
L 248.275376 241.787089 
L 249.283203 241.662811 
L 249.619145 241.582511 
L 249.955087 241.343253 
L 250.29103 241.343161 
L 250.626972 241.651123 
L 250.962914 241.387254 
L 251.298856 241.796372 
L 252.306683 241.662843 
L 252.642625 241.584046 
L 252.978567 241.343381 
L 253.314509 241.651514 
L 253.650452 241.387256 
L 253.986394 241.822239 
L 255.666105 241.584115 
L 256.002047 241.343546 
L 256.337989 241.651931 
L 256.673931 241.387257 
L 257.009874 241.840905 
L 258.353642 241.662945 
L 258.689585 241.584164 
L 259.025527 241.652299 
L 259.361469 241.387258 
L 259.697411 241.844243 
L 260.705238 241.728061 
L 261.04118 241.584213 
L 261.377122 241.652675 
L 261.713064 241.84503 
L 262.384949 241.845119 
L 263.056833 241.584251 
L 263.392775 241.654611 
L 263.728718 241.865555 
L 265.072486 241.727999 
L 265.408429 241.584289 
L 266.752197 241.865588 
L 267.760024 241.727965 
L 268.095966 241.58432 
L 269.439735 241.879912 
L 270.447562 241.727719 
L 270.783504 241.58435 
L 271.455388 241.673714 
L 271.791331 241.692328 
L 272.127273 241.933238 
L 274.478868 241.725755 
L 274.81481 241.584364 
L 276.830464 241.933276 
L 277.83829 241.850363 
L 278.174232 241.584402 
L 279.518001 241.947807 
L 280.525828 241.58447 
L 281.869597 241.950195 
L 282.877423 241.661995 
L 283.549308 241.716246 
L 283.88525 241.957921 
L 284.221192 241.845172 
L 284.557134 241.852247 
L 284.893076 241.662252 
L 286.236845 241.852509 
L 286.572787 241.66257 
L 287.916556 241.852581 
L 288.252498 241.662758 
L 289.93221 241.852669 
L 290.268152 241.662921 
L 291.947863 241.852763 
L 292.283805 241.663188 
L 293.963516 241.853062 
L 294.299458 241.663442 
L 296.315111 241.85315 
L 296.651054 241.663558 
L 298.330765 241.8545 
L 298.666707 241.66368 
L 299.674533 241.75334 
L 300.010476 241.663794 
L 301.354244 241.788366 
L 301.690187 241.663925 
L 303.033955 241.789799 
L 303.369898 241.795151 
L 303.70584 241.664126 
L 305.049609 241.790454 
L 305.385551 241.807304 
L 305.721493 241.664652 
L 307.065262 241.807329 
L 307.401204 241.66532 
L 308.744973 241.841563 
L 310.088742 241.757502 
L 310.424684 241.905734 
L 311.768453 241.727106 
L 312.104395 241.757519 
L 312.440337 241.918946 
L 313.448164 241.807388 
L 313.784106 241.665469 
L 315.127875 241.910936 
L 316.471644 241.727911 
L 316.807586 241.757547 
L 317.143528 241.957733 
L 319.159181 241.757557 
L 319.495123 241.974455 
L 321.174834 241.665582 
L 321.846719 241.757565 
L 322.182661 241.980386 
L 323.190488 241.911285 
L 324.534256 241.728462 
L 324.870199 241.757573 
L 325.206141 241.988538 
L 325.878025 241.911304 
L 327.221794 241.728615 
L 327.557736 241.757597 
L 327.893679 242.008524 
L 329.57339 241.807485 
L 329.909332 241.665888 
L 330.581216 241.75754 
L 330.917158 242.024671 
L 333.268754 241.72924 
L 333.604696 242.037246 
L 335.620349 241.729493 
L 335.956291 242.048574 
L 337.971945 241.729792 
L 338.307887 242.048738 
L 338.979771 241.978778 
L 340.659482 241.729959 
L 340.995424 242.048895 
L 341.667309 242.053407 
L 343.34702 241.72941 
L 343.682962 241.730003 
L 344.018904 242.049047 
L 344.690789 242.06394 
L 346.034557 241.729424 
L 346.3705 242.049191 
L 347.042384 242.072714 
L 348.386153 241.72943 
L 348.722095 242.049329 
L 349.39398 242.082066 
L 350.401806 241.729431 
L 350.737748 242.04946 
L 351.409633 242.089694 
L 352.081517 241.729427 
L 352.417459 242.049585 
L 353.089344 242.098391 
L 353.425286 242.097834 
L 354.09717 241.729415 
L 354.433113 242.049643 
L 355.104997 242.099005 
L 355.440939 242.098446 
L 356.112824 241.729384 
L 356.448766 242.050869 
L 357.12065 242.099796 
L 357.456592 242.099093 
L 358.128477 241.728968 
L 358.464419 241.729588 
L 358.800361 242.051621 
L 359.472246 242.100046 
L 359.808188 242.099832 
L 360.14413 241.845364 
L 360.480072 242.052237 
L 361.151957 242.100158 
L 361.487899 242.100069 
L 361.823841 241.845381 
L 362.159783 242.05284 
L 362.831668 242.109726 
L 363.503552 242.100173 
L 363.839494 241.845395 
L 364.175436 242.053798 
L 364.847321 242.109992 
L 365.519205 242.100217 
L 365.855148 241.845406 
L 366.19109 242.054015 
L 366.862974 242.110461 
L 367.198916 241.845416 
L 367.534859 242.05419 
L 368.206743 242.111144 
L 368.542685 241.845542 
L 368.878627 242.054445 
L 369.550512 242.113056 
L 369.886454 241.845793 
L 370.222396 241.845631 
L 370.558338 242.054489 
L 371.230223 242.116364 
L 371.566165 241.845837 
L 371.902107 242.054521 
L 373.581818 242.054763 
L 373.581818 242.054763 
" style="fill:none;stroke:#ff0000;stroke-linecap:square;stroke-width:1.5;"/>
   </g>
   <g id="line2d_12">
    <path clip-path="url(#pe358723a5e)" d="M 69.218182 150.928884 
L 69.554124 203.529788 
L 70.561951 203.463294 
L 71.233835 203.451094 
L 71.569777 202.942496 
L 74.593257 202.690182 
L 74.929199 202.513158 
L 75.265141 202.690283 
L 75.601084 202.500989 
L 75.937026 202.690384 
L 76.272968 202.48732 
L 76.60891 202.690471 
L 76.944852 202.465059 
L 77.280795 202.690572 
L 77.616737 202.424549 
L 77.952679 202.690677 
L 78.288621 202.426678 
L 78.624564 201.916218 
L 78.960506 202.690772 
L 79.296448 202.426797 
L 79.63239 202.427082 
L 79.968332 201.780784 
L 80.304275 202.691012 
L 80.640217 202.426953 
L 80.976159 202.427094 
L 81.648043 201.372101 
L 81.983986 202.691222 
L 82.319928 202.427109 
L 82.65587 201.780439 
L 82.991812 201.780524 
L 83.327754 201.086523 
L 83.663697 201.372126 
L 83.999639 202.69127 
L 84.335581 202.427125 
L 84.671523 201.780414 
L 85.007465 201.780487 
L 85.343408 200.87058 
L 85.67935 201.372138 
L 86.015292 202.691333 
L 86.351234 202.427156 
L 86.687176 201.780382 
L 87.023119 200.83938 
L 87.359061 200.870633 
L 87.695003 201.37215 
L 88.030945 202.691439 
L 88.366887 202.427176 
L 88.70283 201.780345 
L 89.038772 200.698002 
L 89.374714 200.870638 
L 89.710656 201.372161 
L 90.046598 202.691524 
L 90.382541 202.42724 
L 90.718483 201.780319 
L 91.054425 200.669253 
L 91.390367 200.698736 
L 91.726309 200.870642 
L 92.062252 201.37217 
L 92.398194 202.691606 
L 92.734136 202.427358 
L 93.070078 201.780263 
L 93.40602 200.32941 
L 93.741963 200.698844 
L 94.077905 200.698859 
L 94.413847 200.870651 
L 94.749789 201.372192 
L 95.085731 202.691947 
L 95.421674 201.779942 
L 95.757616 200.210876 
L 96.4295 201.372259 
L 96.765443 202.692338 
L 97.101385 201.778604 
L 97.437327 200.184998 
L 98.109211 201.372382 
L 98.445154 202.692542 
L 98.781096 200.132508 
L 99.45298 201.372409 
L 99.788922 202.692604 
L 100.124865 200.082991 
L 100.796749 202.692619 
L 101.132691 200.054202 
L 101.804576 202.692631 
L 102.140518 200.035184 
L 102.812402 202.692651 
L 103.148344 200.008918 
L 103.820229 202.692682 
L 104.156171 200.00878 
L 104.492113 199.992147 
L 104.828055 201.372754 
L 105.163998 200.008613 
L 105.49994 199.982635 
L 105.835882 201.372778 
L 106.171824 200.008418 
L 106.507766 199.607081 
L 106.843709 201.373368 
L 107.179651 200.00812 
L 107.515593 199.569436 
L 107.851535 201.373845 
L 108.187477 200.007735 
L 108.52342 199.568241 
L 108.859362 199.460213 
L 109.195304 201.373885 
L 109.531246 200.007457 
L 109.867188 199.568533 
L 110.203131 199.567641 
L 110.539073 199.263141 
L 110.875015 201.373911 
L 111.210957 200.007063 
L 111.546899 199.568768 
L 111.882842 199.564815 
L 112.218784 199.174473 
L 112.554726 201.373931 
L 112.890668 200.006634 
L 113.22661 199.568921 
L 113.898495 199.556498 
L 114.234437 199.148083 
L 114.570379 201.373982 
L 114.906321 200.006228 
L 115.242264 199.569138 
L 115.914148 199.550299 
L 116.25009 199.118285 
L 116.586033 201.374014 
L 116.921975 200.005556 
L 117.257917 199.569371 
L 117.929801 199.546139 
L 118.265744 199.090253 
L 118.601686 201.374018 
L 118.937628 200.002349 
L 119.27357 199.569557 
L 120.281397 199.509213 
L 120.617339 199.057534 
L 120.953281 201.374019 
L 121.289223 200.001647 
L 121.625166 199.569745 
L 122.632992 199.506956 
L 122.968934 199.048117 
L 123.304877 201.37402 
L 123.640819 200.001774 
L 123.976761 199.999019 
L 124.312703 199.569897 
L 125.32053 199.504885 
L 125.656472 198.994601 
L 125.992414 201.374021 
L 126.328356 200.001729 
L 126.664299 199.995513 
L 127.000241 199.570008 
L 128.34401 199.504021 
L 128.679952 198.964365 
L 129.015894 200.001494 
L 129.687778 199.996156 
L 130.023721 199.570104 
L 131.367489 199.502151 
L 131.703432 198.941914 
L 132.039374 199.991173 
L 132.375316 199.998506 
L 132.711258 199.57017 
L 134.390969 199.497367 
L 134.726911 198.921724 
L 135.062854 199.984969 
L 135.734738 199.998809 
L 136.07068 199.570232 
L 137.750391 199.494549 
L 138.086334 198.896635 
L 138.422276 199.985258 
L 139.430102 199.998846 
L 139.766045 199.570328 
L 141.109813 199.492567 
L 141.445756 198.850323 
L 141.781698 199.985871 
L 142.453582 199.998873 
L 142.789524 199.570399 
L 144.133293 199.488738 
L 144.469235 198.809934 
L 144.805178 199.985994 
L 145.477062 199.998891 
L 145.813004 199.569645 
L 146.820831 199.486824 
L 147.156773 198.782451 
L 147.492715 199.928036 
L 148.1646 199.998913 
L 148.500542 199.569662 
L 149.508368 199.48546 
L 149.844311 198.764392 
L 150.180253 199.92052 
L 150.516195 199.998934 
L 150.852137 199.569677 
L 151.859964 199.469786 
L 152.195906 198.725515 
L 152.531848 199.897521 
L 153.203733 199.998957 
L 153.539675 199.569689 
L 154.547502 199.465145 
L 154.883444 198.728454 
L 155.219386 198.699646 
L 155.555328 199.999008 
L 155.89127 199.569701 
L 156.899097 199.464102 
L 157.235039 198.728841 
L 157.570981 198.602605 
L 157.906924 199.999101 
L 158.242866 199.569719 
L 159.586635 199.463647 
L 159.922577 198.72901 
L 160.594461 198.56982 
L 160.930403 199.569733 
L 162.274172 199.463109 
L 162.610114 198.7292 
L 163.281999 198.450932 
L 163.617941 199.569767 
L 164.625768 199.462618 
L 164.96171 198.729477 
L 165.969536 198.431651 
L 166.305479 199.569841 
L 167.649247 199.462117 
L 167.98519 198.729709 
L 168.993016 198.350815 
L 169.328958 199.554907 
L 170.000843 199.461575 
L 170.336785 198.729878 
L 170.672727 198.604401 
L 171.008669 198.334836 
L 171.344612 198.332964 
L 171.680554 199.55495 
L 172.352438 199.458404 
L 172.68838 198.730075 
L 173.024323 198.604448 
L 173.360265 198.32899 
L 173.696207 198.327031 
L 174.032149 199.554993 
L 174.704034 199.444888 
L 175.039976 198.730263 
L 175.375918 198.604475 
L 175.71186 198.329284 
L 176.047803 198.220638 
L 176.383745 198.323933 
L 176.719687 199.555001 
L 177.055629 199.554854 
L 177.391571 198.730468 
L 177.727514 198.604498 
L 178.399398 198.168581 
L 178.73534 198.32128 
L 179.071282 199.554917 
L 179.407225 198.730575 
L 179.743167 198.604513 
L 180.415051 198.168807 
L 180.750993 198.067197 
L 181.086936 198.318262 
L 181.422878 198.731015 
L 181.75882 198.604571 
L 182.430704 198.168785 
L 183.102589 198.049029 
L 183.438531 198.315883 
L 183.774473 198.731168 
L 184.110415 198.604542 
L 184.446358 198.332193 
L 184.7823 198.33234 
L 185.118242 198.065889 
L 185.454184 198.03345 
L 186.126069 198.731216 
L 186.462011 198.332277 
L 186.797953 198.332373 
L 187.133895 198.065832 
L 187.469837 198.022482 
L 188.141722 198.731247 
L 188.813606 198.065804 
L 189.149548 198.008613 
L 189.821433 198.731267 
L 190.493317 198.065782 
L 190.829259 197.999915 
L 191.501144 198.731275 
L 192.173028 198.065756 
L 192.50897 197.986547 
L 193.180855 198.731284 
L 193.852739 198.065723 
L 194.188682 197.97321 
L 194.860566 198.731297 
L 195.53245 198.065676 
L 195.868393 197.958232 
L 196.204335 198.21755 
L 196.540277 198.297929 
L 196.876219 198.731332 
L 197.548104 198.06563 
L 197.884046 197.947384 
L 198.55593 198.301066 
L 198.891872 198.298734 
L 199.227815 198.731394 
L 199.899699 198.06559 
L 200.235641 197.934443 
L 200.907526 198.302116 
L 201.243468 198.302825 
L 201.915352 197.915651 
L 202.251294 198.141237 
L 202.587237 198.076045 
L 202.923179 198.302213 
L 203.259121 198.303105 
L 203.931005 197.901706 
L 204.266948 198.141482 
L 204.60289 198.045932 
L 204.938832 198.302273 
L 205.274774 198.303219 
L 205.946659 197.888243 
L 206.282601 198.141615 
L 206.618543 197.954433 
L 206.954485 198.045988 
L 207.290427 198.302329 
L 207.62637 198.303291 
L 207.962312 197.875056 
L 208.298254 198.1417 
L 208.634196 197.824061 
L 209.306081 198.302533 
L 209.642023 198.303402 
L 209.977965 197.859182 
L 210.313907 198.141833 
L 210.649849 197.796769 
L 211.321734 198.302576 
L 211.657676 198.30458 
L 211.993618 197.832552 
L 212.329561 197.859203 
L 212.665503 198.142249 
L 213.001445 197.789791 
L 213.673329 198.302609 
L 214.009272 198.304963 
L 214.345214 197.74257 
L 214.681156 197.832624 
L 215.017098 198.142686 
L 215.35304 197.786134 
L 216.024925 198.302635 
L 216.360867 198.305081 
L 216.696809 197.615046 
L 217.032751 197.742671 
L 217.368694 198.142917 
L 217.704636 197.783101 
L 218.37652 198.302658 
L 218.712462 198.305269 
L 219.048405 197.523359 
L 219.384347 197.615119 
L 219.720289 198.14312 
L 220.056231 197.780643 
L 220.728116 198.302707 
L 221.064058 198.305415 
L 221.4 197.495491 
L 221.735942 197.523381 
L 222.071884 198.1433 
L 222.407827 197.776884 
L 223.079711 198.302812 
L 223.415653 198.305559 
L 223.751595 197.411565 
L 224.42348 197.497839 
L 224.759422 198.143574 
L 225.095364 197.773494 
L 225.767249 198.305676 
L 226.103191 197.318073 
L 227.111017 197.498166 
L 227.44696 198.143749 
L 227.782902 197.770267 
L 228.454786 198.306167 
L 228.790728 197.283752 
L 229.126671 197.318099 
L 229.462613 197.498335 
L 229.798555 198.143862 
L 230.134497 197.76663 
L 230.806382 198.306191 
L 231.142324 197.210625 
L 232.150151 197.498443 
L 232.486093 198.14391 
L 232.822035 197.762787 
L 233.493919 198.306207 
L 233.829862 197.105624 
L 234.501746 197.287317 
L 234.837688 197.287292 
L 235.17363 197.498599 
L 235.509573 198.143938 
L 235.845515 197.754381 
L 236.517399 198.306221 
L 236.853341 197.04143 
L 237.189284 197.105673 
L 237.525226 197.287376 
L 237.861168 197.287296 
L 238.19711 197.49882 
L 238.533052 198.143954 
L 238.868995 197.563664 
L 239.204937 198.046086 
L 239.540879 198.30623 
L 239.876821 197.030357 
L 240.212763 197.041439 
L 240.884648 197.498968 
L 241.22059 198.143974 
L 241.556532 197.371724 
L 241.892474 197.555355 
L 242.228417 198.04609 
L 242.564359 197.005291 
L 243.236243 197.023458 
L 243.908128 197.499062 
L 244.24407 198.143987 
L 244.580012 197.202297 
L 245.251896 198.046093 
L 245.587839 196.986806 
L 246.259723 197.019295 
L 246.931607 197.49913 
L 247.26755 198.144061 
L 247.603492 197.550197 
L 247.939434 198.046095 
L 248.275376 196.961593 
L 248.947261 197.015929 
L 249.619145 197.499334 
L 249.955087 198.144233 
L 250.29103 198.144152 
L 250.626972 197.549684 
L 250.962914 198.046097 
L 251.298856 196.943718 
L 251.970741 197.01451 
L 252.642625 197.500839 
L 252.978567 198.144358 
L 253.314509 197.549204 
L 253.650452 198.046099 
L 253.986394 196.893639 
L 254.99422 197.00885 
L 255.666105 197.500907 
L 256.002047 198.14452 
L 256.337989 197.548692 
L 256.673931 198.046099 
L 257.009874 196.857311 
L 258.0177 197.00448 
L 258.689585 197.500955 
L 259.025527 197.548238 
L 259.361469 198.0461 
L 259.697411 196.850516 
L 260.369296 196.847642 
L 260.705238 197.014449 
L 261.04118 197.501003 
L 261.377122 197.547773 
L 261.713064 196.848904 
L 262.384949 196.846405 
L 262.720891 197.014432 
L 263.056833 197.50104 
L 263.392775 197.545371 
L 263.728718 196.804404 
L 265.072486 197.014408 
L 265.408429 197.501077 
L 266.080313 197.541643 
L 266.416255 196.773153 
L 267.424082 196.844571 
L 267.760024 197.014384 
L 268.095966 197.501108 
L 268.767851 197.523801 
L 269.103793 196.709765 
L 270.447562 197.014206 
L 270.783504 197.501138 
L 271.791331 197.50223 
L 272.127273 196.653062 
L 273.806984 196.849011 
L 274.142926 196.831855 
L 274.478868 197.012743 
L 274.81481 197.501152 
L 275.822637 197.481537 
L 276.158579 196.587399 
L 277.83829 196.829922 
L 278.174232 197.501189 
L 279.182059 197.47618 
L 279.518001 196.497769 
L 279.853943 196.849029 
L 280.189886 196.828619 
L 280.525828 197.501259 
L 281.533654 197.474945 
L 281.869597 196.471427 
L 282.205539 196.849036 
L 282.541481 196.826604 
L 282.877423 197.525311 
L 283.549308 197.474332 
L 283.88525 196.384063 
L 284.221192 196.849042 
L 284.557134 196.822625 
L 284.893076 197.524432 
L 285.564961 197.473657 
L 285.900903 196.849048 
L 286.236845 196.821513 
L 286.572787 197.523305 
L 287.244672 197.472876 
L 287.580614 196.849055 
L 287.916556 196.821186 
L 288.252498 197.522615 
L 288.924383 197.472086 
L 289.260325 196.849063 
L 289.93221 196.821038 
L 290.268152 197.521987 
L 290.940036 197.471208 
L 291.275978 196.84908 
L 291.947863 196.820822 
L 292.283805 197.520919 
L 292.955689 197.46993 
L 293.291632 196.849089 
L 293.963516 196.819834 
L 294.299458 197.51986 
L 295.307285 197.466452 
L 295.643227 196.849094 
L 296.315111 196.819377 
L 296.651054 197.519355 
L 297.65888 197.444397 
L 297.994822 196.849099 
L 298.330765 196.804838 
L 298.666707 197.518796 
L 299.674533 197.428584 
L 300.010476 197.518255 
L 301.354244 197.381339 
L 301.690187 197.517598 
L 303.369898 197.372588 
L 303.70584 197.516541 
L 305.385551 197.35708 
L 305.721493 197.513626 
L 307.065262 197.357102 
L 307.401204 197.509716 
L 308.073089 197.432602 
L 308.409031 197.262408 
L 310.088742 197.432624 
L 310.424684 197.208221 
L 311.432511 197.509042 
L 312.104395 197.432641 
L 312.440337 197.186455 
L 313.112222 197.318829 
L 313.448164 197.357158 
L 313.784106 197.508749 
L 314.45599 197.432657 
L 314.791933 197.156826 
L 315.799759 197.357172 
L 316.135701 197.508433 
L 316.807586 197.432668 
L 317.143528 197.122074 
L 318.823239 197.477781 
L 319.159181 197.432678 
L 319.495123 197.094119 
L 320.50295 197.319198 
L 320.838892 197.357213 
L 321.174834 197.50786 
L 321.846719 197.432686 
L 322.182661 197.083443 
L 323.190488 197.205565 
L 324.198314 197.507469 
L 324.870199 197.432695 
L 325.206141 197.068699 
L 325.878025 197.205545 
L 326.885852 197.506986 
L 327.557736 197.432722 
L 327.893679 197.032364 
L 330.245274 197.478472 
L 330.581216 197.432679 
L 330.917158 197.002864 
L 332.260927 197.319868 
L 333.268754 197.478864 
L 333.604696 196.979773 
L 335.284407 197.478929 
L 335.620349 197.479108 
L 335.956291 196.958868 
L 336.964118 197.320118 
L 337.971945 197.479397 
L 338.307887 196.959025 
L 338.643829 196.947129 
L 339.651656 197.320174 
L 340.659482 197.479558 
L 340.995424 196.959175 
L 341.667309 196.947166 
L 342.675135 197.320257 
L 343.682962 197.4796 
L 344.018904 196.95932 
L 344.690789 196.924868 
L 345.698615 197.3573 
L 346.034557 197.479041 
L 346.3705 196.959458 
L 347.042384 196.906118 
L 348.050211 197.357306 
L 348.386153 197.479048 
L 348.722095 196.959589 
L 349.39398 196.885888 
L 350.401806 197.479048 
L 350.737748 196.959715 
L 351.073691 196.851261 
L 351.409633 196.869232 
L 351.745575 197.321742 
L 352.081517 197.479045 
L 352.417459 196.959834 
L 352.753402 196.800247 
L 353.425286 196.851304 
L 353.761228 197.321908 
L 354.09717 197.479033 
L 354.433113 196.959889 
L 354.769055 196.79276 
L 355.440939 196.851867 
L 355.776881 197.321941 
L 356.112824 197.479003 
L 356.448766 196.96106 
L 356.784708 196.771602 
L 357.456592 196.852461 
L 357.792535 197.321965 
L 358.128477 197.478602 
L 358.464419 197.4792 
L 358.800361 196.961776 
L 359.136303 196.746679 
L 359.808188 196.85314 
L 360.14413 197.321987 
L 360.816014 196.743436 
L 361.487899 196.853357 
L 361.823841 197.322003 
L 362.495725 196.739687 
L 363.503552 196.853453 
L 363.839494 197.322017 
L 364.511379 196.736206 
L 365.519205 196.853493 
L 365.855148 197.322028 
L 366.527032 196.730896 
L 366.862974 196.736328 
L 367.198916 197.322037 
L 367.534859 196.964225 
L 367.870801 196.964227 
L 368.206743 196.724163 
L 368.542685 197.322158 
L 368.878627 196.964469 
L 369.21457 196.964309 
L 369.550512 196.697864 
L 369.886454 197.322398 
L 370.222396 197.322243 
L 370.558338 196.964512 
L 370.894281 196.964344 
L 371.230223 196.649931 
L 371.566165 197.322439 
L 371.902107 196.964542 
L 373.581818 196.964772 
L 373.581818 196.964772 
" style="fill:none;stroke:#ffff00;stroke-linecap:square;stroke-width:1.5;"/>
   </g>
   <g id="line2d_13">
    <path clip-path="url(#pe358723a5e)" d="M 69.218182 44.443636 
L 69.554124 191.689375 
L 76.944852 192.008171 
L 77.280795 191.943038 
L 77.616737 192.01998 
L 77.952679 191.943143 
L 78.624564 192.166845 
L 78.960506 191.94324 
L 79.968332 192.206 
L 80.304275 191.943483 
L 81.648043 192.323051 
L 81.983986 191.943695 
L 82.991812 192.208106 
L 83.327754 192.402551 
L 83.663697 192.323078 
L 83.999639 191.943743 
L 85.007465 192.208243 
L 85.343408 192.462681 
L 85.67935 192.32309 
L 86.015292 191.943807 
L 86.687176 192.208167 
L 87.023119 192.471296 
L 87.359061 192.462739 
L 87.695003 192.323104 
L 88.030945 191.943914 
L 88.70283 192.208195 
L 89.038772 192.510308 
L 89.710656 192.323115 
L 90.046598 191.944 
L 90.718483 192.208209 
L 91.054425 192.518222 
L 91.726309 192.462748 
L 92.062252 192.323125 
L 92.398194 191.944083 
L 93.070078 192.208228 
L 93.40602 192.611768 
L 94.077905 192.51122 
L 94.749789 192.323148 
L 95.085731 191.944428 
L 95.421674 192.208292 
L 95.757616 192.644401 
L 96.4295 192.32322 
L 96.765443 191.944824 
L 97.101385 192.208402 
L 97.437327 192.65152 
L 98.109211 192.32335 
L 98.445154 191.94503 
L 98.781096 192.665947 
L 99.788922 191.945092 
L 100.124865 192.679546 
L 100.796749 191.945107 
L 101.132691 192.687444 
L 101.804576 191.94512 
L 102.140518 192.692657 
L 102.812402 191.945139 
L 103.148344 192.699849 
L 103.820229 191.945171 
L 104.156171 192.699812 
L 104.492113 192.704875 
L 104.828055 192.323748 
L 105.163998 192.699766 
L 105.49994 192.707723 
L 105.835882 192.323774 
L 106.171824 192.699711 
L 106.507766 192.820114 
L 106.843709 192.324403 
L 107.179651 192.699627 
L 107.515593 192.831376 
L 107.851535 192.324913 
L 108.187477 192.699516 
L 108.859362 192.861323 
L 109.195304 192.324955 
L 109.531246 192.699435 
L 109.867188 192.832206 
L 110.539073 192.915311 
L 110.875015 192.324983 
L 111.210957 192.699319 
L 111.546899 192.83245 
L 112.218784 192.93958 
L 112.554726 192.325004 
L 112.890668 192.699191 
L 113.22661 192.832609 
L 114.234437 192.946795 
L 114.570379 192.325059 
L 114.906321 192.699068 
L 115.242264 192.832835 
L 115.914148 192.83803 
L 116.25009 192.954933 
L 116.586033 192.325093 
L 116.921975 192.698862 
L 117.257917 192.833077 
L 117.929801 192.839384 
L 118.265744 192.96258 
L 118.601686 192.325097 
L 118.937628 192.697868 
L 119.27357 192.833271 
L 120.281397 192.845499 
L 120.617339 192.971495 
L 120.953281 192.325099 
L 121.289223 192.697647 
L 121.625166 192.833466 
L 122.632992 192.845861 
L 122.968934 192.974058 
L 123.304877 192.3251 
L 123.640819 192.698828 
L 123.976761 192.696745 
L 124.312703 192.833624 
L 125.32053 192.846183 
L 125.656472 192.988606 
L 125.992414 192.325101 
L 126.328356 192.69898 
L 126.664299 192.695529 
L 127.000241 192.833739 
L 128.34401 192.846313 
L 128.679952 192.996816 
L 129.015894 192.699146 
L 129.687778 192.689647 
L 130.023721 192.833839 
L 131.367489 192.846584 
L 131.703432 193.002905 
L 132.039374 192.696586 
L 132.375316 192.664981 
L 132.711258 192.833907 
L 134.390969 192.847255 
L 134.726911 193.008374 
L 135.062854 192.698066 
L 135.734738 192.665014 
L 136.07068 192.833971 
L 137.750391 192.847636 
L 138.086334 193.015163 
L 138.422276 192.69837 
L 139.430102 192.665014 
L 139.766045 192.834071 
L 141.109813 192.847894 
L 141.445756 193.02768 
L 141.781698 192.699025 
L 142.453582 192.665009 
L 142.789524 192.834146 
L 144.133293 192.848375 
L 144.469235 193.038584 
L 144.805178 192.69916 
L 145.477062 192.665002 
L 145.813004 192.838295 
L 146.820831 192.848606 
L 147.156773 193.045995 
L 147.492715 192.703444 
L 148.1646 192.664986 
L 148.500542 192.838312 
L 149.508368 192.848764 
L 149.844311 193.050859 
L 150.180253 192.703988 
L 150.516195 192.664962 
L 150.852137 192.838328 
L 151.859964 192.850505 
L 152.195906 193.061318 
L 152.531848 192.705299 
L 153.203733 192.664916 
L 153.539675 192.838341 
L 154.547502 192.850998 
L 154.883444 193.0644 
L 155.219386 193.068093 
L 155.555328 192.664712 
L 155.89127 192.838353 
L 156.899097 192.851104 
L 157.235039 193.064806 
L 157.570981 193.093482 
L 157.906924 192.66356 
L 158.242866 192.838373 
L 159.586635 192.851159 
L 159.922577 193.064983 
L 160.594461 193.102086 
L 160.930403 192.838388 
L 162.274172 192.851218 
L 162.610114 193.065182 
L 163.281999 193.133254 
L 163.617941 192.838425 
L 164.625768 192.851267 
L 164.96171 193.065473 
L 165.969536 193.13917 
L 166.305479 192.838513 
L 167.649247 192.851313 
L 167.98519 193.065716 
L 168.993016 193.163943 
L 169.328958 192.84147 
L 170.000843 192.851358 
L 170.336785 193.065894 
L 171.344612 193.169407 
L 171.680554 192.841224 
L 172.352438 192.851592 
L 172.68838 193.0661 
L 173.696207 193.17122 
L 174.032149 192.840708 
L 174.704034 192.852476 
L 175.039976 193.066298 
L 176.383745 193.172166 
L 176.719687 192.839065 
L 177.055629 192.84192 
L 177.391571 193.066513 
L 178.73534 193.172974 
L 179.071282 192.841896 
L 179.407225 193.066625 
L 181.086936 193.173892 
L 181.422878 193.067087 
L 183.438531 193.174615 
L 183.774473 193.067248 
L 185.790126 193.17522 
L 186.126069 193.067298 
L 186.797953 193.15862 
L 187.469837 193.205134 
L 188.477664 193.158653 
L 189.149548 193.207266 
L 190.157375 193.158678 
L 190.829259 193.208594 
L 191.837086 193.158699 
L 192.50897 193.210621 
L 193.516797 193.158724 
L 194.524624 193.180432 
L 194.860566 193.067383 
L 195.53245 193.203047 
L 196.540277 193.181752 
L 196.876219 193.06742 
L 197.548104 193.203073 
L 198.891872 193.182599 
L 199.227815 193.067487 
L 199.899699 193.20309 
L 202.587237 193.24309 
L 203.259121 193.187195 
L 206.618543 193.275893 
L 208.298254 193.228523 
L 208.634196 193.310715 
L 209.642023 193.187508 
L 210.985792 193.251529 
L 211.657676 193.188746 
L 213.001445 193.319857 
L 214.009272 193.189149 
L 214.681156 193.23305 
L 217.368694 193.229469 
L 217.704636 193.321635 
L 218.712462 193.18947 
L 219.384347 193.262745 
L 219.720289 193.229617 
L 220.056231 193.322287 
L 221.064058 193.189623 
L 221.735942 193.274918 
L 222.071884 193.229745 
L 222.407827 193.323281 
L 223.415653 193.189775 
L 224.087538 193.278627 
L 228.118844 193.251586 
L 228.454786 193.190415 
L 229.126671 193.29758 
L 231.142324 193.307872 
L 235.509573 193.230155 
L 235.845515 193.329202 
L 236.517399 193.190471 
L 236.853341 193.323058 
L 241.22059 193.230169 
L 241.556532 193.393108 
L 241.892474 193.383251 
L 242.228417 193.251622 
L 242.900301 193.324043 
L 247.26755 193.230173 
L 247.603492 193.385748 
L 247.939434 193.251628 
L 248.611318 193.33322 
L 250.29103 193.229598 
L 250.626972 193.385995 
L 250.962914 193.25163 
L 251.634798 193.338429 
L 252.978567 193.230397 
L 253.314509 193.386224 
L 253.650452 193.251632 
L 254.322336 193.342118 
L 256.002047 193.230443 
L 256.337989 193.386469 
L 256.673931 193.251633 
L 257.345816 193.352226 
L 258.689585 193.284345 
L 259.025527 193.386685 
L 259.361469 193.251634 
L 260.033353 193.359454 
L 265.072486 193.311212 
L 265.408429 193.284475 
L 266.080313 193.389997 
L 268.095966 193.284508 
L 268.767851 193.39933 
L 270.783504 193.28454 
L 271.455388 193.395178 
L 273.135099 193.370007 
L 277.83829 193.368829 
L 278.174232 193.284596 
L 278.846117 193.423192 
L 280.189886 193.369185 
L 280.525828 193.284673 
L 281.197712 193.423363 
L 287.244672 193.427183 
L 287.916556 193.371001 
L 289.260325 193.361138 
L 292.955689 193.428753 
L 293.627574 193.371111 
L 306.393377 193.451119 
L 307.065262 193.485205 
L 307.401204 193.39863 
L 309.080915 193.485228 
L 309.416857 193.398689 
L 311.096568 193.485248 
L 311.432511 193.398733 
L 313.112222 193.509474 
L 314.45599 193.451105 
L 314.791933 193.56605 
L 315.799759 193.485286 
L 316.135701 193.398814 
L 317.815412 193.509736 
L 319.159181 193.451083 
L 319.495123 193.588715 
L 321.510777 193.437788 
L 321.846719 193.451065 
L 322.182661 193.592233 
L 323.862372 193.485351 
L 324.198314 193.398922 
L 325.878025 193.552851 
L 327.557736 193.4507 
L 327.893679 193.608842 
L 330.581216 193.449564 
L 330.917158 193.61834 
L 333.268754 193.438875 
L 333.604696 193.625717 
L 335.620349 193.439135 
L 335.956291 193.632343 
L 337.971945 193.439445 
L 338.307887 193.632511 
L 339.315713 193.553112 
L 340.659482 193.439618 
L 340.995424 193.632673 
L 342.003251 193.592394 
L 343.682962 193.439665 
L 344.018904 193.632828 
L 345.026731 193.592402 
L 346.034557 193.439118 
L 346.3705 193.632976 
L 347.378326 193.592431 
L 348.386153 193.439132 
L 348.722095 193.633118 
L 349.729922 193.592412 
L 350.401806 193.439138 
L 350.737748 193.633253 
L 351.409633 193.654793 
L 352.081517 193.43914 
L 352.417459 193.633381 
L 353.425286 193.659053 
L 354.09717 193.439137 
L 354.433113 193.63344 
L 355.440939 193.659722 
L 356.112824 193.43912 
L 356.448766 193.634702 
L 357.456592 193.660428 
L 358.128477 193.438812 
L 358.464419 193.439336 
L 358.800361 193.635475 
L 359.808188 193.661234 
L 360.14413 193.512863 
L 360.816014 193.671137 
L 361.487899 193.661493 
L 361.823841 193.51288 
L 362.495725 193.671476 
L 363.503552 193.661607 
L 363.839494 193.512895 
L 364.511379 193.671777 
L 365.519205 193.661654 
L 365.855148 193.512907 
L 366.527032 193.672216 
L 366.862974 193.672039 
L 367.198916 193.512917 
L 367.534859 193.63812 
L 368.206743 193.672747 
L 368.542685 193.513053 
L 368.878627 193.638381 
L 369.550512 193.674722 
L 369.886454 193.513335 
L 370.222396 193.513147 
L 370.558338 193.638426 
L 371.230223 193.67814 
L 371.566165 193.513397 
L 371.902107 193.638459 
L 373.581818 193.63871 
L 373.581818 193.63871 
" style="fill:none;stroke:#0000ff;stroke-linecap:square;stroke-width:1.5;"/>
   </g>
   <g id="patch_3">
    <path d="M 54 252 
L 54 34.56 
" style="fill:none;stroke:#000000;stroke-linecap:square;stroke-linejoin:miter;stroke-width:0.8;"/>
   </g>
   <g id="patch_4">
    <path d="M 388.8 252 
L 388.8 34.56 
" style="fill:none;stroke:#000000;stroke-linecap:square;stroke-linejoin:miter;stroke-width:0.8;"/>
   </g>
   <g id="patch_5">
    <path d="M 54 252 
L 388.8 252 
" style="fill:none;stroke:#000000;stroke-linecap:square;stroke-linejoin:miter;stroke-width:0.8;"/>
   </g>
   <g id="patch_6">
    <path d="M 54 34.56 
L 388.8 34.56 
" style="fill:none;stroke:#000000;stroke-linecap:square;stroke-linejoin:miter;stroke-width:0.8;"/>
   </g>
   <g id="legend_1">
    <g id="patch_7">
     <path d="M 133.310937 87.42875 
L 381.8 87.42875 
Q 383.8 87.42875 383.8 85.42875 
L 383.8 41.56 
Q 383.8 39.56 381.8 39.56 
L 133.310937 39.56 
Q 131.310937 39.56 131.310937 41.56 
L 131.310937 85.42875 
Q 131.310937 87.42875 133.310937 87.42875 
z
" style="fill:#ffffff;opacity:0.8;stroke:#cccccc;stroke-linejoin:miter;"/>
    </g>
    <g id="line2d_14">
     <path d="M 135.310937 47.658437 
L 155.310937 47.658437 
" style="fill:none;stroke:#ff0000;stroke-linecap:square;stroke-width:1.5;"/>
    </g>
    <g id="line2d_15"/>
    <g id="text_7">
     <!-- on_midpowerfactory_pandapower_Phase_A -->
     <defs>
      <path d="M 30.609375 48.390625 
Q 23.390625 48.390625 19.1875 42.75 
Q 14.984375 37.109375 14.984375 27.296875 
Q 14.984375 17.484375 19.15625 11.84375 
Q 23.34375 6.203125 30.609375 6.203125 
Q 37.796875 6.203125 41.984375 11.859375 
Q 46.1875 17.53125 46.1875 27.296875 
Q 46.1875 37.015625 41.984375 42.703125 
Q 37.796875 48.390625 30.609375 48.390625 
z
M 30.609375 56 
Q 42.328125 56 49.015625 48.375 
Q 55.71875 40.765625 55.71875 27.296875 
Q 55.71875 13.875 49.015625 6.21875 
Q 42.328125 -1.421875 30.609375 -1.421875 
Q 18.84375 -1.421875 12.171875 6.21875 
Q 5.515625 13.875 5.515625 27.296875 
Q 5.515625 40.765625 12.171875 48.375 
Q 18.84375 56 30.609375 56 
z
" id="DejaVuSans-111"/>
      <path d="M 54.890625 33.015625 
L 54.890625 0 
L 45.90625 0 
L 45.90625 32.71875 
Q 45.90625 40.484375 42.875 44.328125 
Q 39.84375 48.1875 33.796875 48.1875 
Q 26.515625 48.1875 22.3125 43.546875 
Q 18.109375 38.921875 18.109375 30.90625 
L 18.109375 0 
L 9.078125 0 
L 9.078125 54.6875 
L 18.109375 54.6875 
L 18.109375 46.1875 
Q 21.34375 51.125 25.703125 53.5625 
Q 30.078125 56 35.796875 56 
Q 45.21875 56 50.046875 50.171875 
Q 54.890625 44.34375 54.890625 33.015625 
z
" id="DejaVuSans-110"/>
      <path d="M 50.984375 -16.609375 
L 50.984375 -23.578125 
L -0.984375 -23.578125 
L -0.984375 -16.609375 
z
" id="DejaVuSans-95"/>
      <path d="M 52 44.1875 
Q 55.375 50.25 60.0625 53.125 
Q 64.75 56 71.09375 56 
Q 79.640625 56 84.28125 50.015625 
Q 88.921875 44.046875 88.921875 33.015625 
L 88.921875 0 
L 79.890625 0 
L 79.890625 32.71875 
Q 79.890625 40.578125 77.09375 44.375 
Q 74.3125 48.1875 68.609375 48.1875 
Q 61.625 48.1875 57.5625 43.546875 
Q 53.515625 38.921875 53.515625 30.90625 
L 53.515625 0 
L 44.484375 0 
L 44.484375 32.71875 
Q 44.484375 40.625 41.703125 44.40625 
Q 38.921875 48.1875 33.109375 48.1875 
Q 26.21875 48.1875 22.15625 43.53125 
Q 18.109375 38.875 18.109375 30.90625 
L 18.109375 0 
L 9.078125 0 
L 9.078125 54.6875 
L 18.109375 54.6875 
L 18.109375 46.1875 
Q 21.1875 51.21875 25.484375 53.609375 
Q 29.78125 56 35.6875 56 
Q 41.65625 56 45.828125 52.96875 
Q 50 49.953125 52 44.1875 
z
" id="DejaVuSans-109"/>
      <path d="M 9.421875 54.6875 
L 18.40625 54.6875 
L 18.40625 0 
L 9.421875 0 
z
M 9.421875 75.984375 
L 18.40625 75.984375 
L 18.40625 64.59375 
L 9.421875 64.59375 
z
" id="DejaVuSans-105"/>
      <path d="M 45.40625 46.390625 
L 45.40625 75.984375 
L 54.390625 75.984375 
L 54.390625 0 
L 45.40625 0 
L 45.40625 8.203125 
Q 42.578125 3.328125 38.25 0.953125 
Q 33.9375 -1.421875 27.875 -1.421875 
Q 17.96875 -1.421875 11.734375 6.484375 
Q 5.515625 14.40625 5.515625 27.296875 
Q 5.515625 40.1875 11.734375 48.09375 
Q 17.96875 56 27.875 56 
Q 33.9375 56 38.25 53.625 
Q 42.578125 51.265625 45.40625 46.390625 
z
M 14.796875 27.296875 
Q 14.796875 17.390625 18.875 11.75 
Q 22.953125 6.109375 30.078125 6.109375 
Q 37.203125 6.109375 41.296875 11.75 
Q 45.40625 17.390625 45.40625 27.296875 
Q 45.40625 37.203125 41.296875 42.84375 
Q 37.203125 48.484375 30.078125 48.484375 
Q 22.953125 48.484375 18.875 42.84375 
Q 14.796875 37.203125 14.796875 27.296875 
z
" id="DejaVuSans-100"/>
      <path d="M 18.109375 8.203125 
L 18.109375 -20.796875 
L 9.078125 -20.796875 
L 9.078125 54.6875 
L 18.109375 54.6875 
L 18.109375 46.390625 
Q 20.953125 51.265625 25.265625 53.625 
Q 29.59375 56 35.59375 56 
Q 45.5625 56 51.78125 48.09375 
Q 58.015625 40.1875 58.015625 27.296875 
Q 58.015625 14.40625 51.78125 6.484375 
Q 45.5625 -1.421875 35.59375 -1.421875 
Q 29.59375 -1.421875 25.265625 0.953125 
Q 20.953125 3.328125 18.109375 8.203125 
z
M 48.6875 27.296875 
Q 48.6875 37.203125 44.609375 42.84375 
Q 40.53125 48.484375 33.40625 48.484375 
Q 26.265625 48.484375 22.1875 42.84375 
Q 18.109375 37.203125 18.109375 27.296875 
Q 18.109375 17.390625 22.1875 11.75 
Q 26.265625 6.109375 33.40625 6.109375 
Q 40.53125 6.109375 44.609375 11.75 
Q 48.6875 17.390625 48.6875 27.296875 
z
" id="DejaVuSans-112"/>
      <path d="M 4.203125 54.6875 
L 13.1875 54.6875 
L 24.421875 12.015625 
L 35.59375 54.6875 
L 46.1875 54.6875 
L 57.421875 12.015625 
L 68.609375 54.6875 
L 77.59375 54.6875 
L 63.28125 0 
L 52.6875 0 
L 40.921875 44.828125 
L 29.109375 0 
L 18.5 0 
z
" id="DejaVuSans-119"/>
      <path d="M 56.203125 29.59375 
L 56.203125 25.203125 
L 14.890625 25.203125 
Q 15.484375 15.921875 20.484375 11.0625 
Q 25.484375 6.203125 34.421875 6.203125 
Q 39.59375 6.203125 44.453125 7.46875 
Q 49.3125 8.734375 54.109375 11.28125 
L 54.109375 2.78125 
Q 49.265625 0.734375 44.1875 -0.34375 
Q 39.109375 -1.421875 33.890625 -1.421875 
Q 20.796875 -1.421875 13.15625 6.1875 
Q 5.515625 13.8125 5.515625 26.8125 
Q 5.515625 40.234375 12.765625 48.109375 
Q 20.015625 56 32.328125 56 
Q 43.359375 56 49.78125 48.890625 
Q 56.203125 41.796875 56.203125 29.59375 
z
M 47.21875 32.234375 
Q 47.125 39.59375 43.09375 43.984375 
Q 39.0625 48.390625 32.421875 48.390625 
Q 24.90625 48.390625 20.390625 44.140625 
Q 15.875 39.890625 15.1875 32.171875 
z
" id="DejaVuSans-101"/>
      <path d="M 41.109375 46.296875 
Q 39.59375 47.171875 37.8125 47.578125 
Q 36.03125 48 33.890625 48 
Q 26.265625 48 22.1875 43.046875 
Q 18.109375 38.09375 18.109375 28.8125 
L 18.109375 0 
L 9.078125 0 
L 9.078125 54.6875 
L 18.109375 54.6875 
L 18.109375 46.1875 
Q 20.953125 51.171875 25.484375 53.578125 
Q 30.03125 56 36.53125 56 
Q 37.453125 56 38.578125 55.875 
Q 39.703125 55.765625 41.0625 55.515625 
z
" id="DejaVuSans-114"/>
      <path d="M 37.109375 75.984375 
L 37.109375 68.5 
L 28.515625 68.5 
Q 23.6875 68.5 21.796875 66.546875 
Q 19.921875 64.59375 19.921875 59.515625 
L 19.921875 54.6875 
L 34.71875 54.6875 
L 34.71875 47.703125 
L 19.921875 47.703125 
L 19.921875 0 
L 10.890625 0 
L 10.890625 47.703125 
L 2.296875 47.703125 
L 2.296875 54.6875 
L 10.890625 54.6875 
L 10.890625 58.5 
Q 10.890625 67.625 15.140625 71.796875 
Q 19.390625 75.984375 28.609375 75.984375 
z
" id="DejaVuSans-102"/>
      <path d="M 34.28125 27.484375 
Q 23.390625 27.484375 19.1875 25 
Q 14.984375 22.515625 14.984375 16.5 
Q 14.984375 11.71875 18.140625 8.90625 
Q 21.296875 6.109375 26.703125 6.109375 
Q 34.1875 6.109375 38.703125 11.40625 
Q 43.21875 16.703125 43.21875 25.484375 
L 43.21875 27.484375 
z
M 52.203125 31.203125 
L 52.203125 0 
L 43.21875 0 
L 43.21875 8.296875 
Q 40.140625 3.328125 35.546875 0.953125 
Q 30.953125 -1.421875 24.3125 -1.421875 
Q 15.921875 -1.421875 10.953125 3.296875 
Q 6 8.015625 6 15.921875 
Q 6 25.140625 12.171875 29.828125 
Q 18.359375 34.515625 30.609375 34.515625 
L 43.21875 34.515625 
L 43.21875 35.40625 
Q 43.21875 41.609375 39.140625 45 
Q 35.0625 48.390625 27.6875 48.390625 
Q 23 48.390625 18.546875 47.265625 
Q 14.109375 46.140625 10.015625 43.890625 
L 10.015625 52.203125 
Q 14.9375 54.109375 19.578125 55.046875 
Q 24.21875 56 28.609375 56 
Q 40.484375 56 46.34375 49.84375 
Q 52.203125 43.703125 52.203125 31.203125 
z
" id="DejaVuSans-97"/>
      <path d="M 48.78125 52.59375 
L 48.78125 44.1875 
Q 44.96875 46.296875 41.140625 47.34375 
Q 37.3125 48.390625 33.40625 48.390625 
Q 24.65625 48.390625 19.8125 42.84375 
Q 14.984375 37.3125 14.984375 27.296875 
Q 14.984375 17.28125 19.8125 11.734375 
Q 24.65625 6.203125 33.40625 6.203125 
Q 37.3125 6.203125 41.140625 7.25 
Q 44.96875 8.296875 48.78125 10.40625 
L 48.78125 2.09375 
Q 45.015625 0.34375 40.984375 -0.53125 
Q 36.96875 -1.421875 32.421875 -1.421875 
Q 20.0625 -1.421875 12.78125 6.34375 
Q 5.515625 14.109375 5.515625 27.296875 
Q 5.515625 40.671875 12.859375 48.328125 
Q 20.21875 56 33.015625 56 
Q 37.15625 56 41.109375 55.140625 
Q 45.0625 54.296875 48.78125 52.59375 
z
" id="DejaVuSans-99"/>
      <path d="M 18.3125 70.21875 
L 18.3125 54.6875 
L 36.8125 54.6875 
L 36.8125 47.703125 
L 18.3125 47.703125 
L 18.3125 18.015625 
Q 18.3125 11.328125 20.140625 9.421875 
Q 21.96875 7.515625 27.59375 7.515625 
L 36.8125 7.515625 
L 36.8125 0 
L 27.59375 0 
Q 17.1875 0 13.234375 3.875 
Q 9.28125 7.765625 9.28125 18.015625 
L 9.28125 47.703125 
L 2.6875 47.703125 
L 2.6875 54.6875 
L 9.28125 54.6875 
L 9.28125 70.21875 
z
" id="DejaVuSans-116"/>
      <path d="M 32.171875 -5.078125 
Q 28.375 -14.84375 24.75 -17.8125 
Q 21.140625 -20.796875 15.09375 -20.796875 
L 7.90625 -20.796875 
L 7.90625 -13.28125 
L 13.1875 -13.28125 
Q 16.890625 -13.28125 18.9375 -11.515625 
Q 21 -9.765625 23.484375 -3.21875 
L 25.09375 0.875 
L 2.984375 54.6875 
L 12.5 54.6875 
L 29.59375 11.921875 
L 46.6875 54.6875 
L 56.203125 54.6875 
z
" id="DejaVuSans-121"/>
      <path d="M 19.671875 64.796875 
L 19.671875 37.40625 
L 32.078125 37.40625 
Q 38.96875 37.40625 42.71875 40.96875 
Q 46.484375 44.53125 46.484375 51.125 
Q 46.484375 57.671875 42.71875 61.234375 
Q 38.96875 64.796875 32.078125 64.796875 
z
M 9.8125 72.90625 
L 32.078125 72.90625 
Q 44.34375 72.90625 50.609375 67.359375 
Q 56.890625 61.8125 56.890625 51.125 
Q 56.890625 40.328125 50.609375 34.8125 
Q 44.34375 29.296875 32.078125 29.296875 
L 19.671875 29.296875 
L 19.671875 0 
L 9.8125 0 
z
" id="DejaVuSans-80"/>
      <path d="M 54.890625 33.015625 
L 54.890625 0 
L 45.90625 0 
L 45.90625 32.71875 
Q 45.90625 40.484375 42.875 44.328125 
Q 39.84375 48.1875 33.796875 48.1875 
Q 26.515625 48.1875 22.3125 43.546875 
Q 18.109375 38.921875 18.109375 30.90625 
L 18.109375 0 
L 9.078125 0 
L 9.078125 75.984375 
L 18.109375 75.984375 
L 18.109375 46.1875 
Q 21.34375 51.125 25.703125 53.5625 
Q 30.078125 56 35.796875 56 
Q 45.21875 56 50.046875 50.171875 
Q 54.890625 44.34375 54.890625 33.015625 
z
" id="DejaVuSans-104"/>
      <path d="M 34.1875 63.1875 
L 20.796875 26.90625 
L 47.609375 26.90625 
z
M 28.609375 72.90625 
L 39.796875 72.90625 
L 67.578125 0 
L 57.328125 0 
L 50.6875 18.703125 
L 17.828125 18.703125 
L 11.1875 0 
L 0.78125 0 
z
" id="DejaVuSans-65"/>
     </defs>
     <g transform="translate(163.310937 51.158437)scale(0.1 -0.1)">
      <use xlink:href="#DejaVuSans-111"/>
      <use x="61.181641" xlink:href="#DejaVuSans-110"/>
      <use x="124.560547" xlink:href="#DejaVuSans-95"/>
      <use x="174.560547" xlink:href="#DejaVuSans-109"/>
      <use x="271.972656" xlink:href="#DejaVuSans-105"/>
      <use x="299.755859" xlink:href="#DejaVuSans-100"/>
      <use x="363.232422" xlink:href="#DejaVuSans-112"/>
      <use x="426.708984" xlink:href="#DejaVuSans-111"/>
      <use x="487.890625" xlink:href="#DejaVuSans-119"/>
      <use x="569.677734" xlink:href="#DejaVuSans-101"/>
      <use x="631.201172" xlink:href="#DejaVuSans-114"/>
      <use x="672.314453" xlink:href="#DejaVuSans-102"/>
      <use x="707.519531" xlink:href="#DejaVuSans-97"/>
      <use x="768.798828" xlink:href="#DejaVuSans-99"/>
      <use x="823.779297" xlink:href="#DejaVuSans-116"/>
      <use x="862.988281" xlink:href="#DejaVuSans-111"/>
      <use x="924.169922" xlink:href="#DejaVuSans-114"/>
      <use x="965.283203" xlink:href="#DejaVuSans-121"/>
      <use x="1024.462891" xlink:href="#DejaVuSans-95"/>
      <use x="1074.462891" xlink:href="#DejaVuSans-112"/>
      <use x="1137.939453" xlink:href="#DejaVuSans-97"/>
      <use x="1199.21875" xlink:href="#DejaVuSans-110"/>
      <use x="1262.597656" xlink:href="#DejaVuSans-100"/>
      <use x="1326.074219" xlink:href="#DejaVuSans-97"/>
      <use x="1387.353516" xlink:href="#DejaVuSans-112"/>
      <use x="1450.830078" xlink:href="#DejaVuSans-111"/>
      <use x="1512.011719" xlink:href="#DejaVuSans-119"/>
      <use x="1593.798828" xlink:href="#DejaVuSans-101"/>
      <use x="1655.322266" xlink:href="#DejaVuSans-114"/>
      <use x="1696.435547" xlink:href="#DejaVuSans-95"/>
      <use x="1746.435547" xlink:href="#DejaVuSans-80"/>
      <use x="1806.738281" xlink:href="#DejaVuSans-104"/>
      <use x="1870.117188" xlink:href="#DejaVuSans-97"/>
      <use x="1931.396484" xlink:href="#DejaVuSans-115"/>
      <use x="1983.496094" xlink:href="#DejaVuSans-101"/>
      <use x="2045.019531" xlink:href="#DejaVuSans-95"/>
      <use x="2095.019531" xlink:href="#DejaVuSans-65"/>
     </g>
    </g>
    <g id="line2d_16">
     <path d="M 135.310937 62.614688 
L 155.310937 62.614688 
" style="fill:none;stroke:#ffff00;stroke-linecap:square;stroke-width:1.5;"/>
    </g>
    <g id="line2d_17"/>
    <g id="text_8">
     <!-- on_midpowerfactory_pandapower_Phase_B -->
     <g transform="translate(163.310937 66.114688)scale(0.1 -0.1)">
      <use xlink:href="#DejaVuSans-111"/>
      <use x="61.181641" xlink:href="#DejaVuSans-110"/>
      <use x="124.560547" xlink:href="#DejaVuSans-95"/>
      <use x="174.560547" xlink:href="#DejaVuSans-109"/>
      <use x="271.972656" xlink:href="#DejaVuSans-105"/>
      <use x="299.755859" xlink:href="#DejaVuSans-100"/>
      <use x="363.232422" xlink:href="#DejaVuSans-112"/>
      <use x="426.708984" xlink:href="#DejaVuSans-111"/>
      <use x="487.890625" xlink:href="#DejaVuSans-119"/>
      <use x="569.677734" xlink:href="#DejaVuSans-101"/>
      <use x="631.201172" xlink:href="#DejaVuSans-114"/>
      <use x="672.314453" xlink:href="#DejaVuSans-102"/>
      <use x="707.519531" xlink:href="#DejaVuSans-97"/>
      <use x="768.798828" xlink:href="#DejaVuSans-99"/>
      <use x="823.779297" xlink:href="#DejaVuSans-116"/>
      <use x="862.988281" xlink:href="#DejaVuSans-111"/>
      <use x="924.169922" xlink:href="#DejaVuSans-114"/>
      <use x="965.283203" xlink:href="#DejaVuSans-121"/>
      <use x="1024.462891" xlink:href="#DejaVuSans-95"/>
      <use x="1074.462891" xlink:href="#DejaVuSans-112"/>
      <use x="1137.939453" xlink:href="#DejaVuSans-97"/>
      <use x="1199.21875" xlink:href="#DejaVuSans-110"/>
      <use x="1262.597656" xlink:href="#DejaVuSans-100"/>
      <use x="1326.074219" xlink:href="#DejaVuSans-97"/>
      <use x="1387.353516" xlink:href="#DejaVuSans-112"/>
      <use x="1450.830078" xlink:href="#DejaVuSans-111"/>
      <use x="1512.011719" xlink:href="#DejaVuSans-119"/>
      <use x="1593.798828" xlink:href="#DejaVuSans-101"/>
      <use x="1655.322266" xlink:href="#DejaVuSans-114"/>
      <use x="1696.435547" xlink:href="#DejaVuSans-95"/>
      <use x="1746.435547" xlink:href="#DejaVuSans-80"/>
      <use x="1806.738281" xlink:href="#DejaVuSans-104"/>
      <use x="1870.117188" xlink:href="#DejaVuSans-97"/>
      <use x="1931.396484" xlink:href="#DejaVuSans-115"/>
      <use x="1983.496094" xlink:href="#DejaVuSans-101"/>
      <use x="2045.019531" xlink:href="#DejaVuSans-95"/>
      <use x="2095.019531" xlink:href="#DejaVuSans-66"/>
     </g>
    </g>
    <g id="line2d_18">
     <path d="M 135.310937 77.570937 
L 155.310937 77.570937 
" style="fill:none;stroke:#0000ff;stroke-linecap:square;stroke-width:1.5;"/>
    </g>
    <g id="line2d_19"/>
    <g id="text_9">
     <!-- on_midpowerfactory_pandapower_Phase_C -->
     <defs>
      <path d="M 64.40625 67.28125 
L 64.40625 56.890625 
Q 59.421875 61.53125 53.78125 63.8125 
Q 48.140625 66.109375 41.796875 66.109375 
Q 29.296875 66.109375 22.65625 58.46875 
Q 16.015625 50.828125 16.015625 36.375 
Q 16.015625 21.96875 22.65625 14.328125 
Q 29.296875 6.6875 41.796875 6.6875 
Q 48.140625 6.6875 53.78125 8.984375 
Q 59.421875 11.28125 64.40625 15.921875 
L 64.40625 5.609375 
Q 59.234375 2.09375 53.4375 0.328125 
Q 47.65625 -1.421875 41.21875 -1.421875 
Q 24.65625 -1.421875 15.125 8.703125 
Q 5.609375 18.84375 5.609375 36.375 
Q 5.609375 53.953125 15.125 64.078125 
Q 24.65625 74.21875 41.21875 74.21875 
Q 47.75 74.21875 53.53125 72.484375 
Q 59.328125 70.75 64.40625 67.28125 
z
" id="DejaVuSans-67"/>
     </defs>
     <g transform="translate(163.310937 81.070937)scale(0.1 -0.1)">
      <use xlink:href="#DejaVuSans-111"/>
      <use x="61.181641" xlink:href="#DejaVuSans-110"/>
      <use x="124.560547" xlink:href="#DejaVuSans-95"/>
      <use x="174.560547" xlink:href="#DejaVuSans-109"/>
      <use x="271.972656" xlink:href="#DejaVuSans-105"/>
      <use x="299.755859" xlink:href="#DejaVuSans-100"/>
      <use x="363.232422" xlink:href="#DejaVuSans-112"/>
      <use x="426.708984" xlink:href="#DejaVuSans-111"/>
      <use x="487.890625" xlink:href="#DejaVuSans-119"/>
      <use x="569.677734" xlink:href="#DejaVuSans-101"/>
      <use x="631.201172" xlink:href="#DejaVuSans-114"/>
      <use x="672.314453" xlink:href="#DejaVuSans-102"/>
      <use x="707.519531" xlink:href="#DejaVuSans-97"/>
      <use x="768.798828" xlink:href="#DejaVuSans-99"/>
      <use x="823.779297" xlink:href="#DejaVuSans-116"/>
      <use x="862.988281" xlink:href="#DejaVuSans-111"/>
      <use x="924.169922" xlink:href="#DejaVuSans-114"/>
      <use x="965.283203" xlink:href="#DejaVuSans-121"/>
      <use x="1024.462891" xlink:href="#DejaVuSans-95"/>
      <use x="1074.462891" xlink:href="#DejaVuSans-112"/>
      <use x="1137.939453" xlink:href="#DejaVuSans-97"/>
      <use x="1199.21875" xlink:href="#DejaVuSans-110"/>
      <use x="1262.597656" xlink:href="#DejaVuSans-100"/>
      <use x="1326.074219" xlink:href="#DejaVuSans-97"/>
      <use x="1387.353516" xlink:href="#DejaVuSans-112"/>
      <use x="1450.830078" xlink:href="#DejaVuSans-111"/>
      <use x="1512.011719" xlink:href="#DejaVuSans-119"/>
      <use x="1593.798828" xlink:href="#DejaVuSans-101"/>
      <use x="1655.322266" xlink:href="#DejaVuSans-114"/>
      <use x="1696.435547" xlink:href="#DejaVuSans-95"/>
      <use x="1746.435547" xlink:href="#DejaVuSans-80"/>
      <use x="1806.738281" xlink:href="#DejaVuSans-104"/>
      <use x="1870.117188" xlink:href="#DejaVuSans-97"/>
      <use x="1931.396484" xlink:href="#DejaVuSans-115"/>
      <use x="1983.496094" xlink:href="#DejaVuSans-101"/>
      <use x="2045.019531" xlink:href="#DejaVuSans-95"/>
      <use x="2095.019531" xlink:href="#DejaVuSans-67"/>
     </g>
    </g>
   </g>
  </g>
 </g>
 <defs>
  <clipPath id="pe358723a5e">
   <rect height="217.44" width="334.8" x="54" y="34.56"/>
  </clipPath>
 </defs>
</svg>
