<?xml version="1.0" encoding="utf-8" standalone="no"?>
<!DOCTYPE svg PUBLIC "-//W3C//DTD SVG 1.1//EN"
  "http://www.w3.org/Graphics/SVG/1.1/DTD/svg11.dtd">
<!-- Created with matplotlib (https://matplotlib.org/) -->
<svg height="288pt" version="1.1" viewBox="0 0 432 288" width="432pt" xmlns="http://www.w3.org/2000/svg" xmlns:xlink="http://www.w3.org/1999/xlink">
 <defs>
  <style type="text/css">
*{stroke-linecap:butt;stroke-linejoin:round;}
  </style>
 </defs>
 <g id="figure_1">
  <g id="patch_1">
   <path d="M 0 288 
L 432 288 
L 432 0 
L 0 0 
z
" style="fill:#ffffff;"/>
  </g>
  <g id="axes_1">
   <g id="patch_2">
    <path d="M 54 252 
L 388.8 252 
L 388.8 34.56 
L 54 34.56 
z
" style="fill:#ffffff;"/>
   </g>
   <g id="matplotlib.axis_1">
    <g id="xtick_1">
     <g id="line2d_1">
      <defs>
       <path d="M 0 0 
L 0 3.5 
" id="m5071427d19" style="stroke:#000000;stroke-width:0.8;"/>
      </defs>
      <g>
       <use style="stroke:#000000;stroke-width:0.8;" x="69.218182" xlink:href="#m5071427d19" y="252"/>
      </g>
     </g>
    </g>
    <g id="xtick_2">
     <g id="line2d_2">
      <g>
       <use style="stroke:#000000;stroke-width:0.8;" x="136.406623" xlink:href="#m5071427d19" y="252"/>
      </g>
     </g>
    </g>
    <g id="xtick_3">
     <g id="line2d_3">
      <g>
       <use style="stroke:#000000;stroke-width:0.8;" x="203.595063" xlink:href="#m5071427d19" y="252"/>
      </g>
     </g>
    </g>
    <g id="xtick_4">
     <g id="line2d_4">
      <g>
       <use style="stroke:#000000;stroke-width:0.8;" x="270.783504" xlink:href="#m5071427d19" y="252"/>
      </g>
     </g>
    </g>
    <g id="xtick_5">
     <g id="line2d_5">
      <g>
       <use style="stroke:#000000;stroke-width:0.8;" x="337.971945" xlink:href="#m5071427d19" y="252"/>
      </g>
     </g>
    </g>
    <g id="text_1">
     <!-- Bus -->
     <defs>
      <path d="M 19.671875 34.8125 
L 19.671875 8.109375 
L 35.5 8.109375 
Q 43.453125 8.109375 47.28125 11.40625 
Q 51.125 14.703125 51.125 21.484375 
Q 51.125 28.328125 47.28125 31.5625 
Q 43.453125 34.8125 35.5 34.8125 
z
M 19.671875 64.796875 
L 19.671875 42.828125 
L 34.28125 42.828125 
Q 41.5 42.828125 45.03125 45.53125 
Q 48.578125 48.25 48.578125 53.8125 
Q 48.578125 59.328125 45.03125 62.0625 
Q 41.5 64.796875 34.28125 64.796875 
z
M 9.8125 72.90625 
L 35.015625 72.90625 
Q 46.296875 72.90625 52.390625 68.21875 
Q 58.5 63.53125 58.5 54.890625 
Q 58.5 48.1875 55.375 44.234375 
Q 52.25 40.28125 46.1875 39.3125 
Q 53.46875 37.75 57.5 32.78125 
Q 61.53125 27.828125 61.53125 20.40625 
Q 61.53125 10.640625 54.890625 5.3125 
Q 48.25 0 35.984375 0 
L 9.8125 0 
z
" id="DejaVuSans-66"/>
      <path d="M 8.5 21.578125 
L 8.5 54.6875 
L 17.484375 54.6875 
L 17.484375 21.921875 
Q 17.484375 14.15625 20.5 10.265625 
Q 23.53125 6.390625 29.59375 6.390625 
Q 36.859375 6.390625 41.078125 11.03125 
Q 45.3125 15.671875 45.3125 23.6875 
L 45.3125 54.6875 
L 54.296875 54.6875 
L 54.296875 0 
L 45.3125 0 
L 45.3125 8.40625 
Q 42.046875 3.421875 37.71875 1 
Q 33.40625 -1.421875 27.6875 -1.421875 
Q 18.265625 -1.421875 13.375 4.4375 
Q 8.5 10.296875 8.5 21.578125 
z
M 31.109375 56 
z
" id="DejaVuSans-117"/>
      <path d="M 44.28125 53.078125 
L 44.28125 44.578125 
Q 40.484375 46.53125 36.375 47.5 
Q 32.28125 48.484375 27.875 48.484375 
Q 21.1875 48.484375 17.84375 46.4375 
Q 14.5 44.390625 14.5 40.28125 
Q 14.5 37.15625 16.890625 35.375 
Q 19.28125 33.59375 26.515625 31.984375 
L 29.59375 31.296875 
Q 39.15625 29.25 43.1875 25.515625 
Q 47.21875 21.78125 47.21875 15.09375 
Q 47.21875 7.46875 41.1875 3.015625 
Q 35.15625 -1.421875 24.609375 -1.421875 
Q 20.21875 -1.421875 15.453125 -0.5625 
Q 10.6875 0.296875 5.421875 2 
L 5.421875 11.28125 
Q 10.40625 8.6875 15.234375 7.390625 
Q 20.0625 6.109375 24.8125 6.109375 
Q 31.15625 6.109375 34.5625 8.28125 
Q 37.984375 10.453125 37.984375 14.40625 
Q 37.984375 18.0625 35.515625 20.015625 
Q 33.0625 21.96875 24.703125 23.78125 
L 21.578125 24.515625 
Q 13.234375 26.265625 9.515625 29.90625 
Q 5.8125 33.546875 5.8125 39.890625 
Q 5.8125 47.609375 11.28125 51.796875 
Q 16.75 56 26.8125 56 
Q 31.78125 56 36.171875 55.265625 
Q 40.578125 54.546875 44.28125 53.078125 
z
" id="DejaVuSans-115"/>
     </defs>
     <g transform="translate(212.196094 270.598437)scale(0.1 -0.1)">
      <use xlink:href="#DejaVuSans-66"/>
      <use x="68.603516" xlink:href="#DejaVuSans-117"/>
      <use x="131.982422" xlink:href="#DejaVuSans-115"/>
     </g>
    </g>
   </g>
   <g id="matplotlib.axis_2">
    <g id="ytick_1">
     <g id="line2d_6">
      <defs>
       <path d="M 0 0 
L -3.5 0 
" id="mb906b3379f" style="stroke:#000000;stroke-width:0.8;"/>
      </defs>
      <g>
       <use style="stroke:#000000;stroke-width:0.8;" x="54" xlink:href="#mb906b3379f" y="243.264379"/>
      </g>
     </g>
     <g id="text_2">
      <!-- 0.000 -->
      <defs>
       <path d="M 31.78125 66.40625 
Q 24.171875 66.40625 20.328125 58.90625 
Q 16.5 51.421875 16.5 36.375 
Q 16.5 21.390625 20.328125 13.890625 
Q 24.171875 6.390625 31.78125 6.390625 
Q 39.453125 6.390625 43.28125 13.890625 
Q 47.125 21.390625 47.125 36.375 
Q 47.125 51.421875 43.28125 58.90625 
Q 39.453125 66.40625 31.78125 66.40625 
z
M 31.78125 74.21875 
Q 44.046875 74.21875 50.515625 64.515625 
Q 56.984375 54.828125 56.984375 36.375 
Q 56.984375 17.96875 50.515625 8.265625 
Q 44.046875 -1.421875 31.78125 -1.421875 
Q 19.53125 -1.421875 13.0625 8.265625 
Q 6.59375 17.96875 6.59375 36.375 
Q 6.59375 54.828125 13.0625 64.515625 
Q 19.53125 74.21875 31.78125 74.21875 
z
" id="DejaVuSans-48"/>
       <path d="M 10.6875 12.40625 
L 21 12.40625 
L 21 0 
L 10.6875 0 
z
" id="DejaVuSans-46"/>
      </defs>
      <g transform="translate(18.371875 247.063598)scale(0.1 -0.1)">
       <use xlink:href="#DejaVuSans-48"/>
       <use x="63.623047" xlink:href="#DejaVuSans-46"/>
       <use x="95.410156" xlink:href="#DejaVuSans-48"/>
       <use x="159.033203" xlink:href="#DejaVuSans-48"/>
       <use x="222.65625" xlink:href="#DejaVuSans-48"/>
      </g>
     </g>
    </g>
    <g id="ytick_2">
     <g id="line2d_7">
      <g>
       <use style="stroke:#000000;stroke-width:0.8;" x="54" xlink:href="#mb906b3379f" y="202.678261"/>
      </g>
     </g>
     <g id="text_3">
      <!-- 0.001 -->
      <defs>
       <path d="M 12.40625 8.296875 
L 28.515625 8.296875 
L 28.515625 63.921875 
L 10.984375 60.40625 
L 10.984375 69.390625 
L 28.421875 72.90625 
L 38.28125 72.90625 
L 38.28125 8.296875 
L 54.390625 8.296875 
L 54.390625 0 
L 12.40625 0 
z
" id="DejaVuSans-49"/>
      </defs>
      <g transform="translate(18.371875 206.47748)scale(0.1 -0.1)">
       <use xlink:href="#DejaVuSans-48"/>
       <use x="63.623047" xlink:href="#DejaVuSans-46"/>
       <use x="95.410156" xlink:href="#DejaVuSans-48"/>
       <use x="159.033203" xlink:href="#DejaVuSans-48"/>
       <use x="222.65625" xlink:href="#DejaVuSans-49"/>
      </g>
     </g>
    </g>
    <g id="ytick_3">
     <g id="line2d_8">
      <g>
       <use style="stroke:#000000;stroke-width:0.8;" x="54" xlink:href="#mb906b3379f" y="162.092143"/>
      </g>
     </g>
     <g id="text_4">
      <!-- 0.002 -->
      <defs>
       <path d="M 19.1875 8.296875 
L 53.609375 8.296875 
L 53.609375 0 
L 7.328125 0 
L 7.328125 8.296875 
Q 12.9375 14.109375 22.625 23.890625 
Q 32.328125 33.6875 34.8125 36.53125 
Q 39.546875 41.84375 41.421875 45.53125 
Q 43.3125 49.21875 43.3125 52.78125 
Q 43.3125 58.59375 39.234375 62.25 
Q 35.15625 65.921875 28.609375 65.921875 
Q 23.96875 65.921875 18.8125 64.3125 
Q 13.671875 62.703125 7.8125 59.421875 
L 7.8125 69.390625 
Q 13.765625 71.78125 18.9375 73 
Q 24.125 74.21875 28.421875 74.21875 
Q 39.75 74.21875 46.484375 68.546875 
Q 53.21875 62.890625 53.21875 53.421875 
Q 53.21875 48.921875 51.53125 44.890625 
Q 49.859375 40.875 45.40625 35.40625 
Q 44.1875 33.984375 37.640625 27.21875 
Q 31.109375 20.453125 19.1875 8.296875 
z
" id="DejaVuSans-50"/>
      </defs>
      <g transform="translate(18.371875 165.891362)scale(0.1 -0.1)">
       <use xlink:href="#DejaVuSans-48"/>
       <use x="63.623047" xlink:href="#DejaVuSans-46"/>
       <use x="95.410156" xlink:href="#DejaVuSans-48"/>
       <use x="159.033203" xlink:href="#DejaVuSans-48"/>
       <use x="222.65625" xlink:href="#DejaVuSans-50"/>
      </g>
     </g>
    </g>
    <g id="ytick_4">
     <g id="line2d_9">
      <g>
       <use style="stroke:#000000;stroke-width:0.8;" x="54" xlink:href="#mb906b3379f" y="121.506026"/>
      </g>
     </g>
     <g id="text_5">
      <!-- 0.003 -->
      <defs>
       <path d="M 40.578125 39.3125 
Q 47.65625 37.796875 51.625 33 
Q 55.609375 28.21875 55.609375 21.1875 
Q 55.609375 10.40625 48.1875 4.484375 
Q 40.765625 -1.421875 27.09375 -1.421875 
Q 22.515625 -1.421875 17.65625 -0.515625 
Q 12.796875 0.390625 7.625 2.203125 
L 7.625 11.71875 
Q 11.71875 9.328125 16.59375 8.109375 
Q 21.484375 6.890625 26.8125 6.890625 
Q 36.078125 6.890625 40.9375 10.546875 
Q 45.796875 14.203125 45.796875 21.1875 
Q 45.796875 27.640625 41.28125 31.265625 
Q 36.765625 34.90625 28.71875 34.90625 
L 20.21875 34.90625 
L 20.21875 43.015625 
L 29.109375 43.015625 
Q 36.375 43.015625 40.234375 45.921875 
Q 44.09375 48.828125 44.09375 54.296875 
Q 44.09375 59.90625 40.109375 62.90625 
Q 36.140625 65.921875 28.71875 65.921875 
Q 24.65625 65.921875 20.015625 65.03125 
Q 15.375 64.15625 9.8125 62.3125 
L 9.8125 71.09375 
Q 15.4375 72.65625 20.34375 73.4375 
Q 25.25 74.21875 29.59375 74.21875 
Q 40.828125 74.21875 47.359375 69.109375 
Q 53.90625 64.015625 53.90625 55.328125 
Q 53.90625 49.265625 50.4375 45.09375 
Q 46.96875 40.921875 40.578125 39.3125 
z
" id="DejaVuSans-51"/>
      </defs>
      <g transform="translate(18.371875 125.305244)scale(0.1 -0.1)">
       <use xlink:href="#DejaVuSans-48"/>
       <use x="63.623047" xlink:href="#DejaVuSans-46"/>
       <use x="95.410156" xlink:href="#DejaVuSans-48"/>
       <use x="159.033203" xlink:href="#DejaVuSans-48"/>
       <use x="222.65625" xlink:href="#DejaVuSans-51"/>
      </g>
     </g>
    </g>
    <g id="ytick_5">
     <g id="line2d_10">
      <g>
       <use style="stroke:#000000;stroke-width:0.8;" x="54" xlink:href="#mb906b3379f" y="80.919908"/>
      </g>
     </g>
     <g id="text_6">
      <!-- 0.004 -->
      <defs>
       <path d="M 37.796875 64.3125 
L 12.890625 25.390625 
L 37.796875 25.390625 
z
M 35.203125 72.90625 
L 47.609375 72.90625 
L 47.609375 25.390625 
L 58.015625 25.390625 
L 58.015625 17.1875 
L 47.609375 17.1875 
L 47.609375 0 
L 37.796875 0 
L 37.796875 17.1875 
L 4.890625 17.1875 
L 4.890625 26.703125 
z
" id="DejaVuSans-52"/>
      </defs>
      <g transform="translate(18.371875 84.719126)scale(0.1 -0.1)">
       <use xlink:href="#DejaVuSans-48"/>
       <use x="63.623047" xlink:href="#DejaVuSans-46"/>
       <use x="95.410156" xlink:href="#DejaVuSans-48"/>
       <use x="159.033203" xlink:href="#DejaVuSans-48"/>
       <use x="222.65625" xlink:href="#DejaVuSans-52"/>
      </g>
     </g>
    </g>
    <g id="ytick_6">
     <g id="line2d_11">
      <g>
       <use style="stroke:#000000;stroke-width:0.8;" x="54" xlink:href="#mb906b3379f" y="40.33379"/>
      </g>
     </g>
     <g id="text_7">
      <!-- 0.005 -->
      <defs>
       <path d="M 10.796875 72.90625 
L 49.515625 72.90625 
L 49.515625 64.59375 
L 19.828125 64.59375 
L 19.828125 46.734375 
Q 21.96875 47.46875 24.109375 47.828125 
Q 26.265625 48.1875 28.421875 48.1875 
Q 40.625 48.1875 47.75 41.5 
Q 54.890625 34.8125 54.890625 23.390625 
Q 54.890625 11.625 47.5625 5.09375 
Q 40.234375 -1.421875 26.90625 -1.421875 
Q 22.3125 -1.421875 17.546875 -0.640625 
Q 12.796875 0.140625 7.71875 1.703125 
L 7.71875 11.625 
Q 12.109375 9.234375 16.796875 8.0625 
Q 21.484375 6.890625 26.703125 6.890625 
Q 35.15625 6.890625 40.078125 11.328125 
Q 45.015625 15.765625 45.015625 23.390625 
Q 45.015625 31 40.078125 35.4375 
Q 35.15625 39.890625 26.703125 39.890625 
Q 22.75 39.890625 18.8125 39.015625 
Q 14.890625 38.140625 10.796875 36.28125 
z
" id="DejaVuSans-53"/>
      </defs>
      <g transform="translate(18.371875 44.133008)scale(0.1 -0.1)">
       <use xlink:href="#DejaVuSans-48"/>
       <use x="63.623047" xlink:href="#DejaVuSans-46"/>
       <use x="95.410156" xlink:href="#DejaVuSans-48"/>
       <use x="159.033203" xlink:href="#DejaVuSans-48"/>
       <use x="222.65625" xlink:href="#DejaVuSans-53"/>
      </g>
     </g>
    </g>
   </g>
   <g id="line2d_12">
    <path clip-path="url(#p53af32eaab)" d="M 69.218182 214.023106 
L 69.554124 239.519264 
L 69.890066 238.620897 
L 71.233835 236.521424 
L 71.569777 223.489558 
L 72.241662 219.758 
L 72.577604 218.270578 
L 72.913546 221.219333 
L 73.249488 220.177482 
L 73.58543 219.536853 
L 73.921373 217.942026 
L 74.257315 213.142416 
L 74.593257 213.142393 
L 74.929199 209.660692 
L 75.265141 213.142383 
L 75.601084 208.583608 
L 75.937026 213.142373 
L 76.272968 207.374207 
L 76.60891 213.142364 
L 76.944852 209.463756 
L 77.280795 213.142354 
L 77.616737 205.881832 
L 77.952679 213.142344 
L 78.288621 206.752525 
L 78.624564 193.122612 
L 78.960506 213.142335 
L 79.296448 206.019947 
L 79.63239 206.610738 
L 79.968332 186.230865 
L 80.304275 213.142311 
L 80.640217 208.400915 
L 80.976159 206.605937 
L 81.312101 186.245554 
L 81.648043 177.062045 
L 81.983986 213.142291 
L 82.319928 206.599033 
L 82.65587 186.24648 
L 82.991812 186.246013 
L 83.327754 170.056688 
L 83.663697 177.062042 
L 83.999639 213.142286 
L 84.335581 206.59018 
L 84.671523 186.246897 
L 85.007465 186.247132 
L 85.343408 160.624036 
L 85.67935 177.062041 
L 86.015292 213.14228 
L 86.351234 206.568621 
L 87.023119 162.153128 
L 87.359061 160.62403 
L 87.695003 177.06204 
L 88.030945 213.14227 
L 88.366887 206.550162 
L 88.70283 186.247764 
L 89.038772 158.814867 
L 89.374714 160.62403 
L 89.710656 177.062039 
L 90.046598 213.142261 
L 90.382541 206.461682 
L 90.718483 186.248017 
L 91.054425 156.56664 
L 91.390367 157.085534 
L 91.726309 160.62403 
L 92.062252 177.062038 
L 92.398194 213.142253 
L 92.734136 206.148944 
L 93.070078 186.248515 
L 93.40602 146.25237 
L 93.741963 156.351489 
L 94.077905 156.974306 
L 94.413847 160.624029 
L 94.749789 177.062036 
L 95.085731 213.14222 
L 95.421674 186.251043 
L 95.757616 145.121143 
L 96.4295 177.062029 
L 96.765443 213.142182 
L 97.101385 186.260582 
L 97.437327 143.103224 
L 98.109211 177.062017 
L 98.445154 213.142162 
L 98.781096 139.011638 
L 99.45298 177.062015 
L 99.788922 213.142156 
L 100.124865 139.212229 
L 100.796749 213.142154 
L 101.132691 136.970042 
L 101.804576 213.142153 
L 102.140518 139.547953 
L 102.812402 213.142151 
L 103.148344 137.503645 
L 103.820229 213.142148 
L 104.156171 137.54583 
L 104.492113 135.929022 
L 104.828055 177.061981 
L 105.163998 137.596868 
L 105.49994 135.036162 
L 105.835882 177.061978 
L 106.171824 137.656025 
L 106.507766 124.174509 
L 106.843709 177.06192 
L 107.179651 137.746221 
L 107.515593 124.707295 
L 107.851535 177.061874 
L 108.187477 137.862181 
L 108.52342 124.830788 
L 108.859362 121.124057 
L 109.195304 177.06187 
L 109.531246 137.94543 
L 109.867188 124.830759 
L 110.203131 124.890918 
L 110.539073 116.262649 
L 110.875015 177.061867 
L 111.210957 138.06306 
L 111.546899 124.830736 
L 111.882842 125.173393 
L 112.218784 114.894926 
L 112.554726 177.061865 
L 112.890668 138.190327 
L 113.22661 124.83072 
L 113.562553 124.540039 
L 113.898495 122.085576 
L 114.234437 112.073115 
L 114.570379 177.06186 
L 114.906321 138.31035 
L 115.242264 124.830699 
L 115.578206 124.485495 
L 115.914148 122.807823 
L 116.25009 112.946584 
L 116.586033 177.061857 
L 116.921975 138.507688 
L 117.257917 124.830676 
L 117.593859 124.431979 
L 117.929801 123.291509 
L 118.265744 114.009746 
L 118.601686 177.061857 
L 118.937628 135.387376 
L 119.27357 124.830657 
L 119.609512 124.388768 
L 119.945455 123.345275 
L 120.281397 123.433693 
L 120.617339 110.514774 
L 120.953281 177.061856 
L 121.289223 135.59178 
L 121.625166 124.830638 
L 121.961108 124.323912 
L 122.29705 123.48787 
L 122.632992 123.442348 
L 122.968934 109.509143 
L 123.304877 177.061856 
L 123.640819 135.595589 
L 123.976761 136.357185 
L 124.312703 124.830623 
L 124.984588 123.537403 
L 125.32053 123.450256 
L 125.656472 111.913462 
L 125.992414 177.061856 
L 126.328356 135.596316 
L 126.664299 137.373343 
L 127.000241 124.830612 
L 127.672125 123.537387 
L 128.34401 123.453542 
L 128.679952 108.686964 
L 129.015894 135.597829 
L 129.351836 137.444452 
L 129.687778 137.415135 
L 130.023721 124.830602 
L 130.695605 123.537385 
L 131.367489 123.460624 
L 131.703432 110.350545 
L 132.039374 137.724292 
L 132.375316 137.588132 
L 132.711258 124.830596 
L 133.383143 123.537384 
L 134.390969 123.478665 
L 134.726911 108.197363 
L 135.062854 138.223954 
L 135.398796 137.618901 
L 135.734738 137.589894 
L 136.07068 124.83059 
L 136.406623 123.984888 
L 136.742565 123.537383 
L 137.750391 123.489251 
L 138.086334 109.581196 
L 138.422276 137.888646 
L 138.758218 138.383893 
L 139.09416 137.696709 
L 139.430102 137.590144 
L 139.766045 124.83058 
L 140.101987 123.879186 
L 140.437929 123.537383 
L 141.109813 123.496666 
L 141.445756 108.70419 
L 141.781698 136.791169 
L 142.11764 138.672561 
L 142.453582 137.590345 
L 142.789524 124.830573 
L 143.125467 123.590529 
L 144.133293 123.510931 
L 144.469235 104.401369 
L 144.805178 136.318079 
L 145.14112 134.717021 
L 145.477062 137.590507 
L 145.813004 123.565918 
L 146.820831 123.518032 
L 147.156773 105.533138 
L 147.492715 134.922676 
L 147.828657 134.717021 
L 148.1646 137.590754 
L 148.500542 123.55455 
L 149.508368 123.523075 
L 149.844311 103.610513 
L 150.180253 134.952547 
L 150.516195 137.591044 
L 150.852137 123.542392 
L 151.859964 123.58077 
L 152.195906 103.531469 
L 152.531848 135.04269 
L 152.86779 134.954109 
L 153.203733 137.59149 
L 153.539675 123.530774 
L 154.547502 123.597785 
L 154.883444 103.368873 
L 155.219386 104.863939 
L 155.555328 137.593127 
L 155.89127 123.517831 
L 156.899097 123.601592 
L 157.235039 103.346399 
L 157.570981 102.759387 
L 157.906924 137.60111 
L 158.242866 123.491116 
L 159.586635 123.603282 
L 159.922577 103.336067 
L 160.258519 102.769891 
L 160.594461 99.288576 
L 160.930403 123.463293 
L 161.93823 123.694665 
L 162.274172 123.605263 
L 162.610114 103.323797 
L 162.946057 102.770655 
L 163.281999 98.884071 
L 163.617941 123.357494 
L 163.953883 123.53738 
L 164.625768 123.607054 
L 164.96171 103.304868 
L 165.297652 102.771286 
L 165.633594 95.421676 
L 165.969536 95.473659 
L 166.305479 122.795802 
L 166.641421 123.53738 
L 167.649247 123.608869 
L 167.98519 103.288003 
L 168.321132 102.772183 
L 168.993016 94.13271 
L 169.328958 123.572325 
L 170.000843 123.61082 
L 170.336785 103.274891 
L 170.672727 102.776218 
L 171.008669 95.860147 
L 171.344612 94.73284 
L 171.680554 123.574233 
L 172.352438 123.62214 
L 172.68838 103.258572 
L 173.024323 102.776995 
L 173.360265 93.25955 
L 173.696207 94.93227 
L 174.032149 123.577901 
L 174.704034 123.670029 
L 175.039976 103.241694 
L 175.375918 102.777572 
L 175.71186 97.264144 
L 176.047803 94.760535 
L 176.383745 90.97775 
L 176.719687 123.588712 
L 177.055629 123.569029 
L 177.391571 103.221788 
L 177.727514 98.719625 
L 178.063456 96.98595 
L 178.399398 92.401403 
L 178.73534 91.066859 
L 179.071282 123.569611 
L 179.407225 103.210445 
L 179.743167 98.720285 
L 180.079109 96.888831 
L 180.415051 92.421869 
L 180.750993 93.057112 
L 181.086936 91.168206 
L 181.422878 103.159208 
L 181.75882 98.726094 
L 182.094762 96.677465 
L 182.430704 92.429986 
L 182.766647 93.066843 
L 183.102589 89.081407 
L 183.438531 91.248052 
L 183.774473 103.139269 
L 184.110415 98.737983 
L 184.446358 96.593335 
L 184.7823 96.635532 
L 185.454184 90.31559 
L 185.790126 91.314995 
L 186.126069 103.132342 
L 186.462011 96.46746 
L 186.797953 96.629693 
L 187.469837 89.532633 
L 187.80578 91.3754 
L 188.141722 103.127125 
L 188.477664 96.623353 
L 188.813606 93.072393 
L 189.149548 91.532444 
L 189.485491 91.425395 
L 189.821433 103.123308 
L 190.157375 96.617799 
L 190.493317 93.072526 
L 190.829259 91.757941 
L 191.165202 91.483392 
L 191.501144 103.12137 
L 191.837086 96.611899 
L 192.50897 89.930403 
L 192.844913 91.547135 
L 193.180855 103.11852 
L 193.516797 96.603479 
L 193.852739 93.072826 
L 194.188682 88.121224 
L 194.524624 91.894661 
L 194.860566 103.113745 
L 195.196508 96.593244 
L 195.868393 89.654615 
L 196.204335 90.434907 
L 196.540277 91.895104 
L 196.876219 103.092444 
L 197.212161 96.529806 
L 197.884046 88.948943 
L 198.219988 88.866941 
L 198.55593 91.898334 
L 198.891872 91.895024 
L 199.227815 103.014151 
L 199.563757 96.312755 
L 199.899699 93.073361 
L 200.235641 87.328975 
L 200.571583 84.919241 
L 200.907526 91.899524 
L 201.243468 91.894614 
L 201.57941 93.073611 
L 201.915352 87.206684 
L 202.587237 82.853883 
L 202.923179 91.899646 
L 203.259121 91.894586 
L 203.595063 93.074489 
L 204.266948 84.92335 
L 204.60289 83.81588 
L 204.938832 91.899732 
L 205.274774 91.894574 
L 205.610716 93.079867 
L 205.946659 87.381242 
L 206.618543 82.660965 
L 206.954485 83.815874 
L 207.290427 91.899822 
L 207.62637 91.894567 
L 207.962312 89.731303 
L 208.634196 78.683051 
L 208.970138 83.815873 
L 209.306081 91.900201 
L 209.642023 91.894556 
L 209.977965 86.854044 
L 210.313907 84.923901 
L 210.649849 75.491192 
L 211.321734 91.900295 
L 211.657676 91.894438 
L 211.993618 87.413607 
L 212.329561 86.854042 
L 212.665503 84.924635 
L 213.001445 75.712755 
L 213.673329 91.900385 
L 214.009272 91.8944 
L 214.345214 84.760574 
L 214.681156 87.4136 
L 215.017098 84.925453 
L 215.35304 75.828834 
L 216.024925 91.900475 
L 216.360867 91.894388 
L 216.696809 86.165052 
L 217.032751 84.760564 
L 217.368694 84.925915 
L 217.704636 75.925065 
L 218.37652 91.900579 
L 218.712462 91.894369 
L 219.048405 82.928878 
L 219.384347 86.165045 
L 219.720289 84.926351 
L 220.056231 76.003056 
L 220.728116 91.900941 
L 221.064058 91.894354 
L 221.4 83.040513 
L 221.735942 82.928876 
L 222.071884 84.926767 
L 222.407827 76.122274 
L 223.079711 91.90272 
L 223.415653 91.89434 
L 223.751595 79.985167 
L 224.087538 83.040507 
L 224.42348 82.869443 
L 224.759422 84.927454 
L 225.095364 76.229751 
L 225.767249 91.894328 
L 226.103191 81.102625 
L 226.439133 79.98516 
L 226.775075 79.985166 
L 227.44696 84.927933 
L 227.782902 76.332045 
L 228.454786 91.894279 
L 228.790728 78.815323 
L 229.798555 84.928271 
L 230.134497 76.447289 
L 230.806382 91.894277 
L 231.142324 77.395181 
L 231.814208 80.511408 
L 232.486093 84.928434 
L 232.822035 76.569027 
L 233.493919 91.894275 
L 233.829862 75.227776 
L 234.165804 77.395173 
L 234.501746 80.48686 
L 234.837688 79.748157 
L 235.509573 84.928537 
L 235.845515 72.776607 
L 236.517399 91.894274 
L 236.853341 73.488706 
L 237.189284 75.227771 
L 237.525226 80.476485 
L 237.861168 79.259771 
L 238.19711 82.786337 
L 238.533052 84.928606 
L 238.868995 66.642927 
L 239.204937 83.815864 
L 239.540879 91.894273 
L 239.876821 77.112862 
L 240.212763 73.488705 
L 240.548706 80.47039 
L 241.22059 84.928704 
L 241.556532 67.085707 
L 241.892474 66.135247 
L 242.228417 83.815863 
L 242.564359 74.889287 
L 242.900301 77.11286 
L 243.236243 77.184087 
L 243.908128 82.760945 
L 244.24407 84.928779 
L 244.580012 67.476203 
L 244.915954 69.919986 
L 245.251896 83.815863 
L 245.587839 72.181599 
L 247.26755 84.929315 
L 247.603492 69.879085 
L 247.939434 83.815863 
L 248.275376 74.021042 
L 248.611318 72.181597 
L 248.947261 78.438466 
L 249.955087 84.92959 
L 250.29103 84.934016 
L 250.626972 69.847864 
L 250.962914 83.815863 
L 251.298856 71.264235 
L 252.978567 84.929901 
L 253.314509 69.818664 
L 253.650452 83.815862 
L 253.986394 70.846664 
L 254.322336 71.264231 
L 254.658278 76.617503 
L 254.99422 77.637376 
L 255.666105 82.505017 
L 256.002047 84.930762 
L 256.337989 69.787527 
L 256.673931 83.815862 
L 257.009874 69.424967 
L 257.345816 70.846661 
L 257.681758 76.422674 
L 258.0177 77.797238 
L 258.689585 82.496721 
L 259.025527 69.759974 
L 259.361469 83.815862 
L 259.697411 69.909192 
L 260.033353 69.424966 
L 260.369296 69.454396 
L 261.04118 82.487343 
L 261.377122 69.731792 
L 261.713064 70.02385 
L 262.049007 69.909192 
L 262.384949 69.458118 
L 263.056833 82.478997 
L 263.392775 69.586339 
L 263.728718 69.073901 
L 264.06466 70.023846 
L 264.400602 70.023845 
L 264.736544 69.460865 
L 265.408429 82.46939 
L 265.744371 69.635676 
L 266.080313 69.155197 
L 266.416255 67.194183 
L 266.752197 69.073898 
L 267.08814 70.023843 
L 267.424082 69.46354 
L 268.095966 82.459541 
L 268.431908 69.638519 
L 268.767851 67.094927 
L 269.103793 63.239907 
L 269.775677 70.023841 
L 270.11162 69.488673 
L 270.447562 78.410077 
L 270.783504 82.447704 
L 271.119446 69.639948 
L 271.455388 67.124974 
L 271.791331 68.519026 
L 272.127273 62.894673 
L 272.463215 63.239901 
L 272.799157 63.239902 
L 273.135099 67.237491 
L 273.471042 67.218296 
L 273.806984 70.02384 
L 274.142926 69.500375 
L 274.478868 77.600835 
L 274.81481 82.440283 
L 275.150753 69.641147 
L 275.486695 67.140845 
L 275.822637 65.995706 
L 276.158579 62.894621 
L 276.830464 62.894669 
L 277.166406 67.242008 
L 277.502348 70.023839 
L 277.83829 69.505869 
L 278.174232 82.408393 
L 278.510175 69.642124 
L 278.846117 65.999661 
L 279.182059 65.244186 
L 279.518001 62.894568 
L 279.853943 70.023838 
L 280.189886 69.509535 
L 280.525828 82.273956 
L 280.86177 69.643659 
L 281.197712 66.000632 
L 281.533654 65.071285 
L 281.869597 62.894557 
L 282.205539 70.023837 
L 282.541481 69.515142 
L 282.877423 69.647321 
L 283.213365 66.001299 
L 283.549308 64.985483 
L 283.88525 62.89454 
L 284.221192 70.023836 
L 284.557134 69.526097 
L 284.893076 69.649854 
L 285.229019 66.002226 
L 285.564961 64.891194 
L 285.900903 70.023836 
L 286.236845 69.529127 
L 286.572787 69.653077 
L 286.90873 66.004426 
L 287.244672 64.782399 
L 287.580614 70.023835 
L 287.916556 69.530007 
L 288.252498 69.655035 
L 288.588441 66.0061 
L 288.924383 64.672414 
L 289.260325 70.023834 
L 289.596267 69.530673 
L 289.93221 69.530521 
L 290.268152 69.656804 
L 290.604094 66.007277 
L 290.940036 64.550483 
L 291.275978 70.023833 
L 291.611921 69.531298 
L 291.947863 69.531202 
L 292.283805 69.659787 
L 292.619747 66.008512 
L 292.955689 64.373169 
L 293.291632 70.023832 
L 293.627574 69.531941 
L 293.963516 69.53404 
L 294.299458 69.662721 
L 294.6354 66.009527 
L 294.971343 67.579021 
L 295.307285 64.506366 
L 295.643227 70.023831 
L 295.979169 69.536595 
L 296.315111 69.535248 
L 296.651054 69.66411 
L 296.986996 66.011209 
L 297.322938 67.06694 
L 297.65888 65.349878 
L 297.994822 70.023831 
L 298.330765 69.570499 
L 298.666707 69.665636 
L 299.002649 66.016652 
L 299.338591 66.591911 
L 299.674533 65.953744 
L 300.010476 69.6671 
L 300.346418 66.029388 
L 300.68236 66.128411 
L 301.018302 65.971598 
L 301.354244 63.295196 
L 301.690187 69.668867 
L 302.026129 65.780755 
L 302.362071 65.973077 
L 302.698013 65.972138 
L 303.033955 63.32058 
L 303.369898 63.507262 
L 303.70584 69.671687 
L 304.041782 65.228482 
L 304.377724 65.973541 
L 304.713666 65.97325 
L 305.049609 63.335303 
L 305.385551 63.848353 
L 305.721493 69.679405 
L 306.057435 64.297331 
L 306.393377 65.973839 
L 306.72932 60.689997 
L 307.065262 63.84835 
L 307.401204 69.68968 
L 307.737146 65.437504 
L 308.073089 65.974019 
L 308.409031 58.971791 
L 308.744973 59.759978 
L 309.080915 63.848348 
L 309.416857 69.690659 
L 310.088742 65.974202 
L 310.424684 57.329577 
L 310.760626 59.660418 
L 311.096568 63.848346 
L 311.432511 69.691434 
L 311.768453 66.017491 
L 312.104395 65.974365 
L 312.440337 58.239157 
L 312.776279 57.343186 
L 313.112222 59.622406 
L 313.448164 63.848345 
L 313.784106 69.692186 
L 314.120048 68.425164 
L 314.45599 65.974549 
L 314.791933 55.416735 
L 315.463817 59.582196 
L 315.799759 63.848343 
L 316.135701 69.692992 
L 316.807586 65.974697 
L 317.143528 52.805762 
L 317.47947 57.345978 
L 317.815412 59.548826 
L 318.151355 63.848341 
L 318.487297 69.693738 
L 318.823239 66.807834 
L 319.159181 65.974875 
L 319.495123 53.968401 
L 319.831066 57.347486 
L 320.167008 57.346108 
L 320.50295 59.509309 
L 320.838892 63.848339 
L 321.174834 69.694441 
L 321.510777 66.195465 
L 321.846719 65.975066 
L 322.182661 54.382183 
L 322.518603 53.9712 
L 322.854545 57.348721 
L 323.190488 57.346202 
L 323.52643 59.47077 
L 323.862372 63.848337 
L 324.198314 69.695418 
L 324.534256 65.476846 
L 324.870199 65.975417 
L 325.206141 50.894109 
L 326.54991 63.848336 
L 326.885852 69.696617 
L 327.221794 64.820217 
L 327.557736 65.978042 
L 327.893679 52.297905 
L 328.229621 53.974503 
L 328.565563 53.973582 
L 328.901505 57.346416 
L 329.237447 59.344904 
L 329.909332 69.702299 
L 330.581216 65.986098 
L 330.917158 49.377355 
L 331.253101 53.975443 
L 331.589043 53.973609 
L 331.924985 57.346605 
L 332.260927 59.267773 
L 332.932812 69.7509 
L 333.268754 65.80354 
L 333.604696 50.26677 
L 334.27658 57.346746 
L 334.612523 59.216538 
L 334.948465 63.848334 
L 335.284407 65.202621 
L 335.620349 65.72356 
L 335.956291 47.012144 
L 336.292234 53.973665 
L 336.628176 57.34698 
L 336.964118 59.164393 
L 337.30006 63.848333 
L 337.971945 65.59559 
L 338.307887 46.955253 
L 338.643829 47.557338 
L 338.979771 53.973696 
L 339.315713 57.348608 
L 339.651656 59.139461 
L 340.32354 68.303757 
L 340.659482 65.486261 
L 340.995424 46.898214 
L 341.331367 48.995036 
L 341.667309 47.557334 
L 342.003251 53.973715 
L 342.339193 57.352215 
L 342.675135 59.099804 
L 343.34702 67.966711 
L 343.682962 65.424389 
L 344.018904 46.841065 
L 344.354846 46.141992 
L 344.690789 48.995033 
L 346.034557 67.623914 
L 346.3705 46.784262 
L 346.706442 47.438054 
L 347.042384 46.141988 
L 347.378326 53.974001 
L 348.050211 63.848329 
L 348.386153 67.326428 
L 348.722095 50.785856 
L 349.058037 44.443639 
L 349.39398 47.438051 
L 350.401806 67.11277 
L 350.737748 50.728877 
L 351.073691 45.586257 
L 351.409633 44.443636 
L 351.745575 62.281935 
L 352.081517 66.864712 
L 352.417459 50.671863 
L 352.753402 45.58603 
L 353.425286 45.586252 
L 353.761228 62.167897 
L 354.09717 66.491011 
L 354.433113 50.644033 
L 354.769055 45.585999 
L 355.440939 45.586193 
L 355.776881 62.142663 
L 356.112824 65.880459 
L 356.448766 50.018557 
L 356.784708 45.585919 
L 357.456592 45.58613 
L 357.792535 62.122791 
L 358.128477 65.160322 
L 358.464419 65.559526 
L 358.800361 49.611826 
L 359.136303 45.585833 
L 359.808188 45.586058 
L 360.14413 62.101499 
L 360.480072 49.256104 
L 360.816014 45.585823 
L 361.487899 45.586035 
L 361.823841 62.084464 
L 362.159783 48.882978 
L 362.495725 45.585815 
L 363.503552 45.586025 
L 363.839494 62.067923 
L 364.175436 48.245879 
L 364.511379 45.585809 
L 365.519205 45.586021 
L 365.855148 62.051426 
L 366.19109 48.089614 
L 366.527032 45.585802 
L 366.862974 45.585785 
L 367.198916 62.035121 
L 367.534859 48.062513 
L 367.870801 47.564467 
L 368.206743 45.585795 
L 368.542685 61.743563 
L 368.878627 48.018017 
L 369.21457 47.119077 
L 369.550512 45.585777 
L 369.886454 60.614932 
L 370.222396 61.606974 
L 370.558338 48.00922 
L 370.894281 50.429091 
L 371.230223 45.585761 
L 371.566165 59.865404 
L 371.902107 48.001788 
L 373.245876 47.947074 
L 373.581818 47.737721 
L 373.581818 47.737721 
" style="fill:none;stroke:#ff0000;stroke-linecap:square;stroke-width:1.5;"/>
   </g>
   <g id="line2d_13">
    <path clip-path="url(#p53af32eaab)" d="M 69.218182 221.969517 
L 69.554124 173.433081 
L 69.890066 176.203346 
L 70.226008 174.366349 
L 70.561951 176.703988 
L 70.897893 175.20355 
L 71.233835 176.898389 
L 71.569777 190.474514 
L 71.905719 191.384127 
L 72.241662 189.443764 
L 72.577604 192.296451 
L 72.913546 192.426748 
L 73.249488 192.797658 
L 73.58543 190.530068 
L 74.257315 195.975751 
L 74.593257 195.975728 
L 74.929199 201.403927 
L 75.265141 195.975718 
L 75.601084 201.647329 
L 75.937026 195.975709 
L 76.272968 201.421931 
L 76.60891 195.9757 
L 76.944852 202.563974 
L 77.280795 195.97569 
L 77.616737 202.050443 
L 77.952679 195.97568 
L 78.288621 202.073837 
L 78.624564 216.715913 
L 78.960506 195.975671 
L 79.296448 202.079249 
L 79.63239 202.074847 
L 79.968332 218.810329 
L 80.304275 195.975648 
L 80.640217 202.091655 
L 80.976159 202.074882 
L 81.312101 220.86822 
L 81.648043 230.076305 
L 81.983986 195.975627 
L 82.319928 202.074931 
L 82.65587 220.742464 
L 82.991812 220.804965 
L 83.327754 239.555817 
L 83.663697 230.076302 
L 83.999639 195.975623 
L 84.335581 202.074995 
L 84.671523 220.685783 
L 85.007465 220.652776 
L 85.343408 242.116364 
L 85.67935 230.076301 
L 86.015292 195.975616 
L 86.351234 202.075152 
L 87.023119 241.814773 
L 87.359061 242.116358 
L 87.695003 230.0763 
L 88.030945 195.975606 
L 88.366887 202.075287 
L 89.038772 236.49664 
L 89.374714 242.116358 
L 89.710656 230.076299 
L 90.046598 195.975598 
L 90.382541 202.075935 
L 91.054425 237.218066 
L 91.390367 236.48377 
L 91.726309 242.116358 
L 92.062252 230.076298 
L 92.398194 195.97559 
L 92.734136 202.078239 
L 93.070078 220.467017 
L 93.741963 236.478288 
L 94.077905 236.48295 
L 94.413847 242.116357 
L 94.749789 230.076296 
L 95.085731 195.975557 
L 95.421674 220.126336 
L 95.757616 223.802316 
L 96.093558 242.116356 
L 96.4295 230.076289 
L 96.765443 195.975519 
L 97.101385 218.842588 
L 97.437327 223.627199 
L 97.773269 242.116356 
L 98.109211 230.076277 
L 98.445154 195.975499 
L 99.117038 242.116356 
L 99.45298 230.076275 
L 99.788922 195.975493 
L 100.124865 222.450908 
L 100.460807 230.076274 
L 100.796749 195.975491 
L 101.132691 223.1611 
L 101.468633 230.076274 
L 101.804576 195.97549 
L 102.140518 220.873668 
L 102.47646 230.076273 
L 102.812402 195.975488 
L 103.148344 220.805684 
L 103.484287 230.076242 
L 103.820229 195.975485 
L 104.156171 220.880074 
L 104.492113 221.643495 
L 104.828055 230.076241 
L 105.163998 220.970075 
L 105.49994 220.361376 
L 105.835882 230.076239 
L 106.171824 221.074392 
L 106.507766 208.143625 
L 106.843709 230.076182 
L 107.179651 221.233445 
L 107.515593 206.940038 
L 107.851535 230.076135 
L 108.187477 221.437929 
L 108.52342 207.496912 
L 108.859362 202.232877 
L 109.195304 230.076131 
L 109.531246 221.584729 
L 109.867188 207.496941 
L 110.203131 207.768049 
L 110.539073 195.469063 
L 110.875015 230.076129 
L 111.210957 221.792156 
L 111.546899 207.496964 
L 111.882842 204.983142 
L 112.218784 193.624562 
L 112.554726 230.076127 
L 112.890668 222.016577 
L 113.22661 207.496978 
L 113.562553 204.978608 
L 113.898495 204.583693 
L 114.234437 192.20344 
L 114.570379 230.076122 
L 114.906321 222.228223 
L 115.242264 207.497 
L 115.578206 204.978217 
L 115.914148 207.305883 
L 116.25009 191.644569 
L 116.586033 230.076119 
L 117.257917 207.497022 
L 117.593859 204.977832 
L 117.929801 205.070239 
L 118.265744 190.635625 
L 118.601686 230.076118 
L 119.27357 207.49704 
L 119.609512 204.97752 
L 119.945455 205.025104 
L 120.281397 203.652779 
L 120.617339 186.753531 
L 120.953281 230.076118 
L 121.289223 220.532601 
L 121.625166 207.497059 
L 121.961108 204.977051 
L 122.632992 204.801667 
L 122.968934 189.139959 
L 123.304877 230.076118 
L 123.640819 221.053394 
L 123.976761 221.862452 
L 124.312703 207.497073 
L 124.648645 204.976484 
L 124.984588 204.863817 
L 125.32053 205.851236 
L 125.656472 186.462751 
L 125.992414 230.076118 
L 126.328356 221.151774 
L 126.664299 219.569356 
L 127.000241 207.497084 
L 127.336183 204.976055 
L 128.008067 204.851723 
L 128.34401 206.287241 
L 128.679952 186.002403 
L 129.015894 221.354737 
L 129.351836 219.950621 
L 129.687778 219.529342 
L 130.023721 207.497093 
L 130.359663 204.975557 
L 131.031547 204.850416 
L 131.367489 203.168432 
L 131.703432 183.568933 
L 132.039374 221.450992 
L 132.375316 219.363704 
L 132.711258 207.4971 
L 133.0472 204.975087 
L 133.719085 204.863835 
L 134.055027 204.84915 
L 134.390969 205.562095 
L 134.726911 184.620167 
L 135.062854 220.071192 
L 135.398796 219.334243 
L 135.734738 219.362018 
L 136.07068 207.497106 
L 136.406623 204.974581 
L 137.078507 204.863835 
L 137.414449 204.848136 
L 137.750391 206.966443 
L 138.086334 182.850671 
L 138.422276 220.0687 
L 138.758218 220.768719 
L 139.09416 219.259742 
L 139.430102 219.361779 
L 139.766045 207.497115 
L 140.101987 204.973805 
L 140.773871 204.847328 
L 141.109813 203.891441 
L 141.445756 182.388074 
L 141.781698 220.060511 
L 142.11764 217.969018 
L 142.453582 219.361586 
L 142.789524 207.497122 
L 143.125467 204.971681 
L 143.797351 204.845617 
L 144.133293 205.783508 
L 144.469235 180.423862 
L 144.805178 220.056967 
L 145.14112 218.418518 
L 145.477062 219.361432 
L 145.813004 204.971499 
L 146.484889 204.844268 
L 146.820831 206.725255 
L 147.156773 179.252816 
L 147.492715 217.346013 
L 148.1646 219.361195 
L 148.500542 204.971415 
L 149.172426 204.843332 
L 149.508368 203.335342 
L 149.844311 175.698527 
L 150.180253 217.257432 
L 150.516195 219.360917 
L 150.852137 204.971325 
L 151.524022 204.842396 
L 151.859964 202.867727 
L 152.195906 177.401224 
L 152.531848 217.057762 
L 152.86779 217.467121 
L 153.203733 219.36049 
L 153.539675 204.971238 
L 154.211559 204.841027 
L 154.547502 205.123469 
L 154.883444 177.400279 
L 155.219386 175.78842 
L 155.555328 219.358923 
L 155.89127 204.971142 
L 156.563155 204.83587 
L 156.899097 205.628144 
L 157.235039 177.400147 
L 157.570981 171.767212 
L 157.906924 219.351281 
L 158.242866 204.970942 
L 158.91475 204.834665 
L 159.250692 203.702697 
L 159.586635 205.852236 
L 159.922577 177.400085 
L 160.258519 171.757111 
L 160.594461 171.87688 
L 160.930403 204.970734 
L 161.602288 204.834113 
L 161.93823 205.780335 
L 162.274172 206.114969 
L 162.610114 177.400011 
L 163.281999 165.169442 
L 163.617941 204.96994 
L 164.289825 204.833749 
L 164.625768 206.352406 
L 164.96171 177.399894 
L 165.633594 165.024872 
L 165.969536 166.873038 
L 166.305479 204.965713 
L 166.977363 204.831399 
L 167.313305 204.833724 
L 167.649247 206.592881 
L 167.98519 177.399789 
L 168.321132 171.754906 
L 168.657074 162.767574 
L 168.993016 162.611644 
L 169.328958 204.830318 
L 169.664901 204.833706 
L 170.000843 202.792829 
L 170.336785 177.399707 
L 170.672727 171.751025 
L 171.008669 158.29685 
L 171.344612 163.883568 
L 171.680554 204.828486 
L 172.016496 204.833684 
L 172.352438 204.292329 
L 172.68838 177.399602 
L 173.024323 171.750277 
L 173.360265 159.175251 
L 173.696207 165.654791 
L 174.032149 204.824967 
L 174.368092 204.833642 
L 174.704034 202.517407 
L 175.039976 177.399493 
L 175.375918 171.749723 
L 175.71186 159.17487 
L 176.047803 151.010799 
L 176.383745 162.520632 
L 176.719687 204.814594 
L 177.055629 204.833481 
L 177.391571 177.399362 
L 177.727514 171.749083 
L 178.399398 146.599063 
L 178.73534 163.311991 
L 179.071282 204.832922 
L 179.407225 177.399286 
L 179.743167 171.748448 
L 180.750993 137.510791 
L 181.086936 164.21202 
L 181.422878 177.398941 
L 181.75882 171.742861 
L 182.430704 146.571672 
L 182.766647 138.820878 
L 183.102589 136.057395 
L 183.438531 164.921087 
L 183.774473 177.398805 
L 184.110415 171.731425 
L 184.446358 159.170055 
L 184.7823 159.17039 
L 185.118242 139.479521 
L 185.454184 134.230413 
L 185.790126 161.456953 
L 186.126069 177.398757 
L 186.462011 159.169106 
L 186.797953 159.170349 
L 187.133895 139.540813 
L 187.469837 135.800003 
L 187.80578 161.99336 
L 188.141722 177.39872 
L 188.813606 139.566125 
L 189.149548 133.724419 
L 189.485491 162.437308 
L 189.821433 177.398693 
L 190.493317 139.583986 
L 190.829259 134.966865 
L 191.165202 162.952315 
L 191.501144 177.39868 
L 192.173028 139.602254 
L 192.50897 132.816008 
L 192.844913 163.518343 
L 193.180855 177.398659 
L 193.852739 139.623808 
L 194.188682 130.659018 
L 194.524624 162.54551 
L 194.860566 177.398624 
L 195.868393 128.733863 
L 196.204335 161.46656 
L 196.540277 162.545083 
L 196.876219 177.398466 
L 197.548104 139.675348 
L 197.884046 130.277561 
L 198.219988 159.404422 
L 198.55593 162.541972 
L 198.891872 162.545161 
L 199.227815 177.397879 
L 200.235641 128.058735 
L 200.571583 160.396679 
L 200.907526 162.540826 
L 201.243468 162.545559 
L 201.57941 139.727682 
L 201.915352 126.669315 
L 202.251294 160.393046 
L 202.587237 158.325544 
L 202.923179 162.540708 
L 203.259121 162.545586 
L 203.931005 124.589345 
L 204.266948 160.392712 
L 204.60289 158.999265 
L 204.938832 162.540625 
L 205.274774 162.545597 
L 205.610716 136.490198 
L 205.946659 126.497873 
L 206.282601 160.392521 
L 206.618543 157.10942 
L 206.954485 158.999271 
L 207.290427 162.540539 
L 207.62637 162.545604 
L 207.962312 124.306952 
L 208.298254 160.392391 
L 208.634196 154.293908 
L 209.306081 162.540173 
L 209.642023 162.545615 
L 209.977965 122.494282 
L 210.313907 160.392179 
L 210.649849 154.080465 
L 211.321734 162.540083 
L 211.657676 162.545729 
L 211.993618 122.196625 
L 212.329561 122.494284 
L 212.665503 160.391471 
L 213.001445 152.04196 
L 213.337387 158.999274 
L 213.673329 162.539996 
L 214.009272 162.545766 
L 214.345214 114.583615 
L 214.681156 122.196632 
L 215.017098 160.390681 
L 215.35304 153.100263 
L 215.688983 158.999275 
L 216.024925 162.539909 
L 216.360867 162.545778 
L 216.696809 104.093807 
L 217.032751 114.583625 
L 217.368694 160.390235 
L 217.704636 153.977582 
L 218.37652 162.539809 
L 218.712462 162.545796 
L 219.048405 100.708101 
L 219.384347 104.093814 
L 219.720289 160.389815 
L 220.056231 154.688601 
L 220.728116 162.53946 
L 221.064058 162.54581 
L 221.4 96.48749 
L 221.735942 100.708103 
L 222.071884 160.389412 
L 222.407827 151.716828 
L 222.743769 158.999277 
L 223.079711 162.537745 
L 223.415653 162.545824 
L 223.751595 91.824079 
L 224.087538 96.487497 
L 224.42348 96.48641 
L 224.759422 160.38875 
L 225.095364 152.696597 
L 225.431306 158.999277 
L 225.767249 162.545836 
L 226.103191 84.378942 
L 226.439133 91.824086 
L 226.775075 91.82408 
L 227.111017 96.486251 
L 227.44696 160.388286 
L 227.782902 153.629093 
L 228.118844 158.999278 
L 228.454786 162.545883 
L 228.790728 82.185291 
L 229.126671 84.378945 
L 229.462613 96.486163 
L 229.798555 160.38796 
L 230.134497 154.679607 
L 230.806382 162.545886 
L 231.142324 76.901617 
L 231.478266 82.185296 
L 231.814208 82.167498 
L 232.150151 96.486103 
L 232.486093 160.387804 
L 232.822035 151.730674 
L 233.157977 158.999279 
L 233.493919 162.545887 
L 233.829862 69.914085 
L 234.501746 82.167325 
L 234.837688 82.161655 
L 235.17363 96.486011 
L 235.509573 160.387704 
L 235.845515 154.156954 
L 236.517399 162.545889 
L 236.853341 65.378685 
L 237.189284 69.91409 
L 237.525226 82.167251 
L 237.861168 82.157908 
L 238.19711 96.48587 
L 238.533052 160.387637 
L 238.868995 148.711075 
L 239.204937 158.99928 
L 239.540879 162.54589 
L 239.876821 64.87444 
L 240.212763 65.378685 
L 240.884648 96.485769 
L 241.22059 160.387542 
L 241.556532 147.327785 
L 241.892474 148.748777 
L 242.228417 158.999281 
L 242.564359 64.669367 
L 242.900301 64.874442 
L 243.236243 64.500066 
L 243.908128 96.485699 
L 244.24407 160.38747 
L 244.580012 146.006947 
L 244.915954 148.459369 
L 245.251896 158.999281 
L 245.587839 64.512826 
L 245.923781 64.669369 
L 246.259723 64.278828 
L 246.931607 96.485643 
L 247.26755 160.386953 
L 247.603492 148.252738 
L 247.939434 158.999281 
L 248.275376 63.918586 
L 248.611318 64.512828 
L 248.947261 64.103523 
L 249.619145 96.485463 
L 249.955087 160.386687 
L 250.29103 160.382413 
L 250.626972 148.404818 
L 250.962914 158.999281 
L 251.298856 63.966071 
L 251.634798 63.918587 
L 251.970741 64.436943 
L 252.642625 96.483993 
L 252.978567 160.386386 
L 253.314509 148.547052 
L 253.650452 158.999281 
L 253.986394 63.431227 
L 254.658278 64.432871 
L 254.99422 64.190653 
L 255.666105 96.483919 
L 256.002047 160.385555 
L 256.337989 148.292865 
L 256.673931 158.999281 
L 257.009874 63.253236 
L 257.345816 63.43123 
L 257.681758 64.431373 
L 258.0177 64.004322 
L 258.689585 96.483861 
L 259.025527 148.427078 
L 259.361469 158.999282 
L 259.697411 63.183054 
L 260.033353 63.253237 
L 260.369296 63.039555 
L 260.705238 64.42914 
L 261.04118 96.483794 
L 261.377122 148.158493 
L 261.713064 63.241077 
L 262.384949 63.119759 
L 262.720891 64.427796 
L 263.056833 96.483733 
L 263.392775 148.461153 
L 263.728718 62.829146 
L 264.06466 63.241081 
L 264.400602 63.241082 
L 264.736544 63.072581 
L 265.072486 64.426174 
L 265.408429 96.483663 
L 265.744371 148.06787 
L 266.080313 148.282669 
L 266.416255 62.3075 
L 267.08814 63.241084 
L 267.424082 63.01572 
L 267.760024 64.42475 
L 268.095966 96.483591 
L 268.431908 148.03695 
L 268.767851 147.566101 
L 269.103793 61.884545 
L 269.439735 62.285839 
L 269.775677 63.241086 
L 270.11162 63.047202 
L 270.447562 64.415428 
L 270.783504 96.483503 
L 271.119446 148.225259 
L 271.791331 146.704429 
L 272.127273 61.154308 
L 272.463215 61.884551 
L 272.799157 61.884551 
L 273.135099 62.267724 
L 273.471042 62.285874 
L 273.806984 63.241087 
L 274.142926 62.949535 
L 274.478868 64.346678 
L 274.81481 96.483448 
L 275.150753 147.977305 
L 275.486695 147.521473 
L 275.822637 145.587948 
L 276.158579 60.653883 
L 276.494521 61.154312 
L 276.830464 61.154312 
L 277.502348 63.241088 
L 277.83829 62.853921 
L 278.174232 96.483207 
L 278.510175 148.106072 
L 278.846117 145.70673 
L 279.182059 145.418488 
L 279.518001 59.870344 
L 279.853943 63.241089 
L 280.189886 62.925713 
L 280.525828 96.482184 
L 280.86177 147.902338 
L 281.197712 145.835372 
L 281.533654 145.347143 
L 281.869597 59.905063 
L 282.205539 63.24109 
L 282.541481 62.844231 
L 282.877423 147.978459 
L 283.213365 145.923707 
L 283.549308 145.513145 
L 283.88525 59.162107 
L 284.221192 63.24109 
L 284.557134 62.646933 
L 284.893076 147.90605 
L 285.229019 145.640295 
L 285.564961 145.289707 
L 285.900903 63.241091 
L 286.236845 62.635295 
L 286.572787 147.924171 
L 286.90873 145.524796 
L 287.244672 145.500197 
L 287.580614 63.241091 
L 287.916556 62.749744 
L 288.252498 148.181736 
L 288.588441 145.745517 
L 288.924383 145.307125 
L 289.260325 63.241092 
L 289.596267 62.836319 
L 289.93221 62.817227 
L 290.268152 148.008401 
L 290.604094 145.900459 
L 290.940036 145.137169 
L 291.275978 63.241094 
L 291.611921 62.917345 
L 291.947863 62.906275 
L 292.283805 147.994702 
L 292.619747 145.65691 
L 292.955689 145.074362 
L 293.291632 63.241095 
L 293.627574 62.594952 
L 293.963516 62.870348 
L 294.299458 147.974388 
L 294.6354 145.79017 
L 294.971343 145.067889 
L 295.307285 145.358946 
L 295.643227 63.241095 
L 295.979169 62.792578 
L 296.315111 62.621586 
L 296.651054 148.156808 
L 296.986996 145.604947 
L 297.65888 144.58962 
L 297.994822 63.241096 
L 298.330765 62.72275 
L 298.666707 147.951309 
L 299.002649 145.506258 
L 299.338591 145.060394 
L 299.674533 144.282497 
L 300.010476 148.143614 
L 300.346418 145.548887 
L 301.018302 144.67099 
L 301.354244 143.386123 
L 301.690187 147.969671 
L 302.026129 145.054233 
L 302.362071 144.669552 
L 302.698013 144.670466 
L 303.033955 143.461323 
L 303.369898 143.238015 
L 303.70584 147.933747 
L 304.041782 145.050036 
L 304.377724 144.669101 
L 304.713666 144.669384 
L 305.049609 143.356574 
L 305.385551 142.898489 
L 305.721493 148.1345 
L 306.057435 145.042959 
L 306.393377 144.668811 
L 306.72932 142.121118 
L 307.065262 142.898492 
L 307.401204 147.85847 
L 307.737146 145.395779 
L 308.073089 144.668636 
L 308.409031 141.626158 
L 308.744973 142.114352 
L 309.080915 142.898494 
L 309.416857 147.986807 
L 309.7528 145.352257 
L 310.088742 144.668458 
L 310.424684 140.824753 
L 310.760626 142.113626 
L 311.096568 142.898495 
L 311.432511 148.088302 
L 311.768453 145.338464 
L 312.104395 144.668299 
L 312.440337 140.292659 
L 312.776279 140.623495 
L 313.112222 142.113349 
L 313.448164 142.898497 
L 313.784106 147.781018 
L 314.120048 145.325905 
L 314.45599 144.66812 
L 314.791933 140.016187 
L 315.127875 140.868711 
L 315.463817 142.113054 
L 315.799759 142.898498 
L 316.135701 147.886603 
L 316.471644 145.319063 
L 316.807586 144.667976 
L 317.143528 139.594057 
L 317.47947 140.591678 
L 317.815412 142.11281 
L 318.151355 142.8985 
L 318.487297 147.984225 
L 318.823239 145.313598 
L 319.159181 144.667804 
L 319.495123 139.205131 
L 319.831066 140.791343 
L 320.167008 140.609024 
L 320.50295 142.11252 
L 320.838892 142.898502 
L 321.174834 148.076223 
L 321.510777 145.308936 
L 321.846719 144.667617 
L 322.182661 138.995537 
L 322.518603 139.202395 
L 322.854545 140.547776 
L 323.190488 140.621567 
L 323.52643 142.112237 
L 323.862372 142.898504 
L 324.198314 147.798313 
L 324.534256 145.303465 
L 324.870199 144.667276 
L 325.206141 138.718603 
L 325.542083 139.200094 
L 326.213967 142.111846 
L 326.54991 142.898505 
L 326.885852 147.955112 
L 327.221794 145.298464 
L 327.557736 144.664723 
L 327.893679 138.467648 
L 328.229621 139.199167 
L 328.565563 139.200067 
L 329.237447 142.111309 
L 329.57339 142.898506 
L 329.909332 147.886574 
L 330.245274 145.290704 
L 330.581216 144.656888 
L 330.917158 137.888125 
L 331.253101 139.198248 
L 331.589043 139.20004 
L 332.260927 142.110739 
L 332.596869 142.898507 
L 332.932812 147.747212 
L 333.268754 145.275035 
L 333.604696 137.512454 
L 334.612523 142.11036 
L 334.948465 142.898507 
L 335.284407 145.270452 
L 335.620349 145.274448 
L 335.956291 137.320924 
L 336.628176 140.724417 
L 336.964118 142.109973 
L 337.30006 142.898508 
L 337.636002 145.266454 
L 337.971945 145.273499 
L 338.307887 137.320503 
L 338.643829 137.322721 
L 339.315713 140.532151 
L 339.651656 142.109788 
L 339.987598 142.898508 
L 340.32354 145.263146 
L 340.659482 145.272679 
L 340.995424 137.320081 
L 341.331367 137.028307 
L 341.667309 137.322724 
L 342.339193 140.598083 
L 342.675135 142.109493 
L 343.011078 142.89851 
L 343.34702 145.260574 
L 343.682962 145.272211 
L 344.018904 137.319658 
L 344.354846 136.950058 
L 344.690789 137.02831 
L 345.026731 139.199906 
L 345.362673 142.109215 
L 345.698615 142.898511 
L 346.034557 145.257957 
L 346.3705 137.319236 
L 346.706442 136.449787 
L 347.042384 136.950061 
L 347.714269 142.108818 
L 348.050211 142.898511 
L 348.386153 145.255686 
L 348.722095 137.318812 
L 349.058037 136.572961 
L 349.39398 136.44979 
L 350.401806 145.254054 
L 350.737748 137.318388 
L 351.073691 136.222099 
L 351.409633 136.572964 
L 351.745575 142.102937 
L 352.081517 145.252159 
L 352.417459 137.317963 
L 352.753402 135.719975 
L 353.089344 136.222153 
L 353.425286 136.222104 
L 353.761228 142.102081 
L 354.09717 145.249304 
L 354.433113 137.317755 
L 354.769055 135.814213 
L 355.104997 136.222208 
L 355.440939 136.222158 
L 355.776881 142.101891 
L 356.112824 145.244637 
L 356.448766 137.313078 
L 356.784708 135.70879 
L 357.12065 136.222279 
L 357.456592 136.222216 
L 357.792535 142.101742 
L 358.128477 145.208099 
L 358.464419 145.242205 
L 358.800361 137.310033 
L 359.136303 135.428226 
L 359.472246 136.222301 
L 359.808188 136.222282 
L 360.14413 142.101581 
L 360.480072 137.307366 
L 360.816014 135.527788 
L 361.151957 136.222311 
L 361.487899 136.222303 
L 361.823841 142.101452 
L 362.159783 137.304564 
L 362.495725 135.351157 
L 362.831668 135.354374 
L 363.16761 136.222315 
L 363.503552 136.222312 
L 363.839494 142.101327 
L 364.175436 137.299773 
L 364.511379 135.502653 
L 364.847321 135.492496 
L 365.183263 136.222316 
L 365.519205 136.222316 
L 365.855148 142.101202 
L 366.19109 137.298596 
L 366.527032 135.343866 
L 366.862974 135.565387 
L 367.198916 142.101078 
L 367.534859 137.298405 
L 367.870801 137.310817 
L 368.206743 135.165484 
L 368.542685 142.098861 
L 368.878627 137.298088 
L 369.21457 137.321177 
L 369.550512 135.06558 
L 369.886454 142.090255 
L 370.222396 142.097825 
L 370.558338 137.298024 
L 370.894281 137.338579 
L 371.230223 134.761573 
L 371.566165 142.084529 
L 371.902107 137.297971 
L 373.581818 137.29597 
L 373.581818 137.29597 
" style="fill:none;stroke:#ffff00;stroke-linecap:square;stroke-width:1.5;"/>
   </g>
   <g id="line2d_14">
    <path clip-path="url(#p53af32eaab)" d="M 69.218182 224.803363 
L 69.554124 240.996885 
L 69.890066 242.074022 
L 71.233835 240.810994 
L 71.569777 229.635067 
L 72.241662 227.383938 
L 72.577604 230.545101 
L 73.249488 229.246712 
L 73.58543 228.860111 
L 73.921373 227.897615 
L 74.257315 224.157525 
L 74.593257 224.157547 
L 74.929199 222.813378 
L 75.265141 224.157557 
L 75.601084 222.162216 
L 75.937026 224.157567 
L 76.272968 221.431012 
L 76.60891 224.157576 
L 76.944852 220.240408 
L 77.280795 224.157586 
L 77.616737 218.07423 
L 77.952679 224.157596 
L 78.288621 218.051375 
L 78.624564 207.951386 
L 78.960506 224.157605 
L 79.296448 218.046086 
L 79.63239 218.050389 
L 79.968332 204.986737 
L 80.304275 224.157629 
L 80.640217 218.033962 
L 80.976159 218.050355 
L 81.312101 204.973357 
L 81.648043 196.321237 
L 81.983986 224.15765 
L 82.319928 218.050307 
L 82.65587 204.972514 
L 82.991812 204.972939 
L 83.327754 189.961718 
L 83.663697 196.321239 
L 83.999639 224.157654 
L 84.335581 218.050244 
L 84.671523 204.972133 
L 85.007465 204.97192 
L 85.343408 187.131855 
L 85.67935 196.321241 
L 86.015292 224.15766 
L 86.351234 218.050091 
L 86.687176 204.971729 
L 87.023119 185.552958 
L 87.359061 187.131861 
L 87.695003 196.321242 
L 88.030945 224.157671 
L 88.366887 218.04996 
L 88.70283 204.971343 
L 89.038772 182.457874 
L 89.374714 187.131861 
L 89.710656 196.321243 
L 90.046598 224.157679 
L 90.382541 218.049326 
L 90.718483 204.971112 
L 91.054425 181.020562 
L 91.390367 182.445594 
L 91.726309 187.131862 
L 92.062252 196.321244 
L 92.398194 224.157687 
L 92.734136 218.047075 
L 93.070078 204.970658 
L 93.40602 176.206089 
L 93.741963 182.440361 
L 94.077905 182.444811 
L 94.413847 187.131863 
L 94.749789 196.321246 
L 95.085731 224.157721 
L 95.421674 204.968353 
L 95.757616 174.338417 
L 96.4295 196.321253 
L 96.765443 224.157759 
L 97.101385 204.959653 
L 97.437327 173.04484 
L 97.773269 187.131863 
L 98.109211 196.321266 
L 98.445154 224.157779 
L 98.781096 170.421373 
L 99.117038 187.131863 
L 99.45298 196.321269 
L 99.788922 224.157785 
L 100.124865 172.005571 
L 100.796749 224.157787 
L 101.132691 170.567187 
L 101.804576 224.157788 
L 102.140518 169.617177 
L 102.812402 224.15779 
L 103.148344 168.305392 
L 103.820229 224.157793 
L 104.156171 168.381702 
L 104.492113 166.999385 
L 104.828055 196.321304 
L 105.163998 168.474026 
L 105.49994 170.317413 
L 105.835882 196.321307 
L 106.171824 168.581035 
L 106.507766 161.381716 
L 106.843709 196.321368 
L 107.179651 168.744193 
L 107.515593 162.511458 
L 107.851535 196.321418 
L 108.187477 168.953953 
L 108.52342 162.438525 
L 108.859362 161.986847 
L 109.195304 196.321422 
L 109.531246 169.10454 
L 109.867188 162.438555 
L 110.203131 162.403012 
L 110.539073 158.576343 
L 110.875015 196.321424 
L 111.210957 169.317316 
L 111.546899 162.438578 
L 111.882842 162.236178 
L 112.218784 155.624981 
L 112.554726 196.321426 
L 112.890668 169.547524 
L 113.22661 162.438594 
L 113.562553 162.231941 
L 113.898495 161.798803 
L 114.234437 157.597837 
L 114.570379 196.321432 
L 114.906321 169.764627 
L 115.242264 162.438616 
L 115.578206 162.231575 
L 115.914148 161.473375 
L 116.25009 155.243377 
L 116.586033 196.321435 
L 116.921975 170.121576 
L 117.257917 162.438639 
L 117.593859 162.231215 
L 117.929801 161.255422 
L 118.265744 157.087611 
L 118.601686 196.321436 
L 118.937628 167.760134 
L 119.27357 162.438658 
L 119.609512 162.230923 
L 119.945455 161.475829 
L 120.281397 161.127719 
L 120.617339 154.503792 
L 120.953281 196.321436 
L 121.289223 168.129843 
L 121.625166 162.438677 
L 122.29705 162.060357 
L 122.632992 161.119945 
L 122.968934 153.760298 
L 123.304877 196.321436 
L 123.640819 168.126418 
L 124.312703 162.438693 
L 124.648645 162.229954 
L 124.984588 158.204783 
L 125.32053 161.112842 
L 125.656472 153.594898 
L 125.992414 196.321436 
L 126.328356 168.125764 
L 126.664299 167.343713 
L 127.000241 162.438704 
L 127.336183 162.229552 
L 127.672125 158.2048 
L 128.008067 160.031911 
L 128.34401 161.109891 
L 128.679952 155.267682 
L 129.015894 168.1244 
L 129.351836 167.249357 
L 130.023721 162.438713 
L 130.359663 162.229085 
L 130.695605 158.204802 
L 131.031547 160.229242 
L 131.367489 161.10353 
L 131.703432 153.496579 
L 132.039374 166.878035 
L 132.375316 165.192112 
L 132.711258 162.43872 
L 133.0472 162.228646 
L 133.383143 158.204803 
L 133.719085 158.204803 
L 134.055027 160.420113 
L 134.390969 161.087325 
L 134.726911 151.904247 
L 135.062854 166.215035 
L 135.398796 165.468694 
L 135.734738 165.444738 
L 136.07068 162.438726 
L 136.406623 162.228171 
L 136.742565 158.204803 
L 137.078507 158.204803 
L 137.414449 160.57279 
L 137.750391 161.077817 
L 138.086334 153.984695 
L 138.422276 166.212683 
L 138.758218 166.051143 
L 139.09416 164.253273 
L 139.430102 165.480446 
L 139.766045 162.438736 
L 140.101987 162.227444 
L 140.437929 158.204804 
L 140.773871 160.694408 
L 141.109813 161.071156 
L 141.445756 154.39283 
L 141.781698 166.204948 
L 142.11764 165.755339 
L 142.453582 165.509244 
L 142.789524 162.438743 
L 143.125467 162.225452 
L 143.461409 158.204804 
L 143.797351 160.951526 
L 144.133293 161.058342 
L 144.469235 151.210082 
L 144.805178 166.2016 
L 145.14112 165.649718 
L 145.477062 165.532257 
L 146.148946 158.204805 
L 146.484889 161.154012 
L 146.820831 161.051963 
L 147.156773 153.103582 
L 147.492715 165.464245 
L 147.828657 165.649719 
L 148.1646 165.567386 
L 148.836484 158.204805 
L 149.172426 161.294465 
L 149.508368 161.047433 
L 149.844311 151.681262 
L 150.180253 165.437305 
L 150.516195 165.608564 
L 151.188079 158.204805 
L 151.524022 161.434582 
L 151.859964 160.995607 
L 152.195906 152.67873 
L 152.531848 165.356002 
L 152.86779 165.435898 
L 153.203733 165.67181 
L 153.875617 158.204806 
L 154.211559 161.639566 
L 154.547502 160.980322 
L 154.883444 152.677885 
L 155.219386 150.654885 
L 155.555328 165.903243 
L 156.227213 158.204806 
L 156.563155 158.351904 
L 156.899097 160.976902 
L 157.235039 152.677766 
L 157.570981 151.182613 
L 157.906924 167.029615 
L 158.578808 158.204806 
L 158.91475 158.531843 
L 159.250692 160.934911 
L 159.586635 160.975384 
L 159.922577 152.67771 
L 160.258519 148.635409 
L 160.594461 148.468057 
L 160.930403 162.224564 
L 161.266346 158.204806 
L 161.602288 158.614277 
L 161.93823 160.893285 
L 162.274172 160.973604 
L 162.610114 152.677643 
L 162.946057 148.745271 
L 163.281999 146.744477 
L 163.617941 162.223818 
L 163.953883 158.204807 
L 164.289825 158.668471 
L 164.625768 160.971995 
L 164.96171 152.677538 
L 165.297652 148.835822 
L 165.969536 145.641074 
L 166.305479 162.219846 
L 166.641421 158.204807 
L 166.977363 159.016427 
L 167.313305 158.672512 
L 167.649247 160.970365 
L 167.98519 152.677443 
L 168.321132 148.964441 
L 168.657074 149.474294 
L 168.993016 145.07422 
L 169.328958 159.176263 
L 169.664901 158.675371 
L 170.000843 160.968612 
L 170.336785 152.677368 
L 170.672727 149.542136 
L 171.008669 150.556138 
L 171.344612 144.052949 
L 171.680554 159.446779 
L 172.016496 158.678699 
L 172.352438 160.958442 
L 172.68838 152.677273 
L 173.024323 149.653347 
L 173.360265 149.72746 
L 173.696207 143.713582 
L 174.032149 159.966013 
L 174.368092 158.685063 
L 174.704034 160.915417 
L 175.039976 152.677173 
L 175.375918 149.735689 
L 175.71186 149.72711 
L 176.047803 154.932228 
L 176.383745 143.536452 
L 176.719687 161.494713 
L 177.055629 158.709468 
L 177.391571 152.677054 
L 177.727514 149.830537 
L 178.063456 149.725297 
L 178.399398 155.807858 
L 178.73534 143.384821 
L 179.071282 158.792746 
L 179.407225 152.676985 
L 179.743167 149.924625 
L 180.079109 149.724661 
L 180.750993 160.613759 
L 181.086936 143.212365 
L 181.422878 152.676669 
L 181.75882 150.751185 
L 182.094762 149.723267 
L 182.766647 160.605217 
L 183.102589 157.834413 
L 183.438531 143.076498 
L 183.774473 152.676544 
L 184.110415 148.382159 
L 184.446358 149.722687 
L 184.7823 149.722999 
L 185.118242 160.600912 
L 185.454184 159.511887 
L 185.790126 142.962586 
L 186.126069 152.6765 
L 186.462011 149.72181 
L 186.797953 149.722961 
L 187.133895 160.60051 
L 187.469837 161.89556 
L 187.80578 142.859801 
L 188.141722 152.676467 
L 188.477664 149.72292 
L 188.813606 160.600344 
L 189.149548 159.779207 
L 189.485491 142.774731 
L 189.821433 152.676442 
L 190.157375 149.722883 
L 190.493317 160.600226 
L 190.829259 162.511709 
L 191.165202 142.676044 
L 191.501144 152.676429 
L 191.837086 149.722844 
L 192.173028 160.600105 
L 192.50897 160.475296 
L 192.844913 142.56758 
L 193.180855 152.67641 
L 193.516797 149.722787 
L 193.852739 160.599963 
L 194.188682 162.503807 
L 194.524624 141.976252 
L 194.860566 152.676377 
L 195.196508 149.722717 
L 195.53245 160.599782 
L 195.868393 164.28454 
L 196.204335 141.485305 
L 196.540277 142.058621 
L 196.876219 152.676231 
L 197.212161 149.722279 
L 197.548104 160.59962 
L 197.884046 162.636159 
L 198.219988 137.12626 
L 198.55593 142.563861 
L 198.891872 142.058703 
L 199.227815 152.675685 
L 199.563757 149.720765 
L 199.899699 160.599492 
L 200.235641 164.730021 
L 200.571583 136.932171 
L 200.907526 142.748503 
L 201.243468 142.059121 
L 201.57941 160.599271 
L 201.915352 161.879142 
L 202.251294 137.509499 
L 202.587237 137.256983 
L 202.923179 142.767297 
L 203.259121 142.059149 
L 203.595063 160.598497 
L 203.931005 163.824129 
L 204.266948 137.562396 
L 204.60289 135.455264 
L 204.938832 142.780411 
L 205.274774 142.059161 
L 205.610716 160.593757 
L 205.946659 165.843775 
L 206.282601 137.592466 
L 206.618543 134.076839 
L 206.954485 135.45527 
L 207.290427 142.793996 
L 207.62637 142.059168 
L 207.962312 163.848207 
L 208.298254 137.612884 
L 208.634196 130.387974 
L 208.970138 135.455272 
L 209.306081 142.851041 
L 209.642023 142.05918 
L 209.977965 165.506802 
L 210.313907 137.646159 
L 210.649849 128.766161 
L 211.321734 142.864969 
L 211.657676 142.0593 
L 211.993618 165.545716 
L 212.329561 165.506805 
L 212.665503 137.756765 
L 213.001445 128.351613 
L 213.673329 142.878254 
L 214.009272 142.059339 
L 214.345214 168.221015 
L 214.681156 165.545724 
L 215.017098 137.879901 
L 215.35304 128.134432 
L 216.024925 142.891467 
L 216.360867 142.059351 
L 216.696809 173.392044 
L 217.032751 168.221026 
L 217.368694 137.949151 
L 217.704636 127.954389 
L 218.37652 142.906622 
L 218.712462 142.05937 
L 219.048405 175.861388 
L 219.384347 173.392052 
L 219.720289 138.014203 
L 220.056231 127.808472 
L 220.728116 142.958958 
L 221.064058 142.059385 
L 221.4 175.743356 
L 221.735942 175.86139 
L 222.071884 138.076266 
L 222.407827 127.585425 
L 223.079711 143.213986 
L 223.415653 142.0594 
L 223.751595 179.654102 
L 224.087538 175.743363 
L 224.42348 175.742394 
L 224.759422 138.178162 
L 225.095364 127.384348 
L 225.767249 142.059412 
L 226.103191 182.194861 
L 226.439133 179.65411 
L 226.775075 179.654103 
L 227.111017 175.742251 
L 227.44696 138.249133 
L 227.782902 127.192969 
L 228.454786 142.059462 
L 228.790728 181.235045 
L 229.126671 182.194864 
L 229.462613 175.742173 
L 229.798555 138.298998 
L 230.134497 126.977366 
L 230.806382 142.059465 
L 231.142324 182.956332 
L 231.478266 181.235052 
L 231.814208 181.218753 
L 232.150151 175.742119 
L 232.486093 138.322823 
L 232.822035 126.749616 
L 233.493919 142.059466 
L 233.829862 188.264091 
L 234.165804 182.956341 
L 234.501746 181.218597 
L 234.837688 181.213389 
L 235.17363 175.742036 
L 235.509573 138.337915 
L 235.845515 126.251633 
L 236.517399 142.059468 
L 236.853341 191.294053 
L 237.189284 188.264096 
L 237.525226 181.218529 
L 237.861168 181.209949 
L 238.19711 175.74191 
L 238.533052 138.348119 
L 238.868995 123.069509 
L 239.204937 135.455281 
L 239.540879 142.059469 
L 239.876821 189.718974 
L 240.212763 191.294054 
L 240.548706 181.21849 
L 240.884648 175.741819 
L 241.22059 138.362352 
L 241.556532 122.677279 
L 241.892474 122.643694 
L 242.228417 135.455282 
L 242.564359 188.44134 
L 242.900301 189.718977 
L 243.236243 189.37548 
L 243.908128 175.741756 
L 244.24407 138.373214 
L 244.580012 122.331359 
L 244.915954 122.413973 
L 245.251896 135.455282 
L 245.587839 187.500715 
L 246.259723 189.17249 
L 246.931607 175.741705 
L 247.26755 138.45073 
L 247.603492 122.379665 
L 247.939434 135.455282 
L 248.275376 186.21987 
L 248.947261 189.011642 
L 249.619145 175.741543 
L 249.955087 138.492558 
L 250.29103 139.122901 
L 250.626972 122.353477 
L 250.962914 135.455283 
L 251.298856 185.313344 
L 251.634798 186.219872 
L 251.970741 188.945175 
L 252.642625 175.740211 
L 252.978567 138.538739 
L 253.314509 122.328984 
L 253.650452 135.455283 
L 253.986394 186.836259 
L 254.322336 185.313349 
L 254.658278 188.94144 
L 254.99422 188.719173 
L 255.666105 175.740144 
L 256.002047 138.663898 
L 256.337989 122.302865 
L 256.673931 135.455283 
L 257.009874 184.999657 
L 257.681758 188.940066 
L 258.0177 188.54819 
L 258.689585 175.74009 
L 259.025527 122.279752 
L 259.361469 135.455283 
L 259.697411 184.683381 
L 260.033353 184.999658 
L 260.369296 184.974353 
L 260.705238 188.938018 
L 261.04118 175.740029 
L 261.377122 122.256112 
L 261.713064 184.60849 
L 262.049007 184.683381 
L 262.384949 184.971153 
L 262.720891 188.936785 
L 263.056833 175.739974 
L 263.392775 122.1341 
L 263.728718 182.57784 
L 264.06466 184.608495 
L 264.400602 184.608497 
L 264.736544 184.96879 
L 265.072486 188.935298 
L 265.408429 175.73991 
L 265.744371 122.090435 
L 266.080313 121.978134 
L 266.416255 181.15438 
L 266.752197 182.577844 
L 267.08814 184.608499 
L 267.424082 184.96649 
L 267.760024 188.933991 
L 268.095966 175.739844 
L 268.431908 122.087918 
L 268.767851 121.232798 
L 269.103793 181.447363 
L 269.439735 181.26267 
L 269.775677 184.6085 
L 270.11162 184.944873 
L 270.447562 188.92544 
L 270.783504 175.739764 
L 271.119446 122.086653 
L 271.455388 121.485384 
L 271.791331 119.4163 
L 272.127273 178.088277 
L 272.463215 181.44737 
L 272.799157 181.44737 
L 273.135099 179.936073 
L 273.471042 181.262707 
L 273.806984 184.608502 
L 274.142926 184.934807 
L 274.478868 188.862371 
L 274.81481 175.739713 
L 275.150753 122.085593 
L 275.486695 119.701787 
L 275.822637 121.734991 
L 276.158579 178.088331 
L 276.830464 178.088281 
L 277.166406 180.579098 
L 277.502348 184.608503 
L 277.83829 184.930081 
L 278.174232 175.739492 
L 278.510175 122.084727 
L 279.182059 121.28338 
L 279.518001 178.088387 
L 279.853943 184.608504 
L 280.189886 184.926926 
L 280.525828 175.738552 
L 280.86177 122.083368 
L 281.197712 121.730638 
L 281.533654 121.179478 
L 281.869597 178.088397 
L 282.205539 184.608505 
L 282.541481 184.922102 
L 282.877423 122.080127 
L 283.213365 121.730048 
L 283.549308 121.127916 
L 283.88525 178.088415 
L 284.221192 184.608506 
L 284.557134 184.912676 
L 284.893076 122.077884 
L 285.229019 121.729229 
L 285.564961 121.071254 
L 285.900903 184.608506 
L 286.236845 184.910069 
L 286.572787 122.075031 
L 286.90873 121.727283 
L 287.244672 121.005874 
L 287.580614 184.608507 
L 287.916556 184.909312 
L 288.252498 122.073297 
L 288.588441 121.725802 
L 288.924383 120.939779 
L 289.260325 184.608508 
L 289.596267 184.908738 
L 289.93221 184.90887 
L 290.268152 122.071731 
L 290.604094 121.724761 
L 290.940036 120.866504 
L 291.275978 184.60851 
L 291.611921 184.9082 
L 291.947863 184.908284 
L 292.283805 122.069089 
L 292.619747 121.723669 
L 292.955689 120.759947 
L 293.291632 184.608511 
L 293.627574 184.907646 
L 293.963516 184.905843 
L 294.299458 122.066491 
L 294.6354 121.72277 
L 294.971343 120.754038 
L 295.307285 120.60283 
L 295.643227 184.608512 
L 295.979169 184.903639 
L 296.315111 184.904803 
L 296.651054 122.065262 
L 296.986996 121.721281 
L 297.65888 119.607829 
L 297.994822 184.608512 
L 298.330765 184.87444 
L 298.666707 122.06391 
L 299.002649 121.716461 
L 299.338591 120.747196 
L 299.674533 118.895508 
L 300.010476 122.062613 
L 300.346418 121.705183 
L 300.68236 120.743982 
L 301.018302 117.453536 
L 301.354244 115.401047 
L 301.690187 122.061048 
L 302.026129 120.74157 
L 302.362071 117.669841 
L 302.698013 117.53273 
L 303.033955 115.378582 
L 303.70584 122.058551 
L 304.041782 120.737739 
L 304.377724 117.737524 
L 304.713666 117.694047 
L 305.049609 115.36555 
L 305.385551 117.634158 
L 305.721493 122.051714 
L 306.057435 120.731277 
L 306.72932 114.545955 
L 307.065262 117.63416 
L 307.401204 122.042613 
L 307.737146 120.682845 
L 308.409031 115.211217 
L 308.744973 114.539839 
L 309.080915 117.634163 
L 309.416857 122.041746 
L 309.7528 120.643102 
L 310.088742 117.833818 
L 310.424684 111.708106 
L 311.096568 117.634165 
L 311.432511 122.04106 
L 311.768453 120.630507 
L 312.104395 117.857514 
L 312.440337 110.33446 
L 312.776279 111.696119 
L 313.448164 117.634167 
L 313.784106 122.040393 
L 314.120048 120.619038 
L 314.45599 117.884211 
L 314.791933 112.526298 
L 315.127875 111.694507 
L 315.799759 117.634168 
L 316.135701 122.039679 
L 316.471644 120.61279 
L 316.807586 117.9056 
L 317.143528 110.340389 
L 317.47947 111.693658 
L 318.151355 117.634171 
L 318.487297 122.039018 
L 318.823239 120.607798 
L 319.159181 117.931256 
L 319.495123 108.584961 
L 319.831066 111.692327 
L 320.167008 111.693544 
L 320.838892 117.634173 
L 321.174834 122.038396 
L 321.510777 120.603541 
L 321.846719 117.958903 
L 322.182661 107.851175 
L 322.518603 109.021511 
L 322.854545 111.691236 
L 323.190488 111.693461 
L 323.862372 117.634175 
L 324.198314 122.037529 
L 324.534256 120.598543 
L 324.870199 118.009343 
L 325.206141 106.839449 
L 326.54991 117.634176 
L 326.885852 122.036467 
L 327.221794 120.593976 
L 327.557736 118.38671 
L 327.893679 108.408958 
L 328.229621 109.526024 
L 328.565563 109.390948 
L 329.237447 114.537085 
L 329.57339 117.634177 
L 329.909332 122.031432 
L 330.581216 119.543135 
L 330.917158 106.391269 
L 331.253101 109.662835 
L 331.589043 109.395301 
L 332.260927 114.536569 
L 332.596869 117.634178 
L 332.932812 121.988363 
L 333.268754 120.572575 
L 333.604696 104.814559 
L 333.940638 109.399993 
L 334.612523 114.536225 
L 335.284407 120.568388 
L 335.620349 120.572042 
L 335.956291 103.389406 
L 336.292234 109.404183 
L 336.964118 114.535874 
L 337.636002 120.564736 
L 337.971945 120.571179 
L 338.307887 103.389027 
L 338.643829 102.838315 
L 338.979771 109.408809 
L 339.651656 114.535706 
L 340.32354 120.561714 
L 340.659482 120.570433 
L 340.995424 103.388646 
L 341.331367 105.562334 
L 341.667309 102.838319 
L 342.003251 109.411792 
L 342.675135 114.535439 
L 343.34702 120.559364 
L 343.682962 120.570005 
L 344.018904 103.388264 
L 344.690789 105.562338 
L 346.034557 120.556972 
L 346.3705 103.387884 
L 346.706442 103.240077 
L 347.042384 104.443218 
L 347.714269 114.534826 
L 348.386153 120.554897 
L 348.722095 103.387502 
L 349.058037 102.252171 
L 349.39398 103.24008 
L 350.401806 120.553406 
L 350.737748 103.387119 
L 351.073691 101.191459 
L 351.409633 102.252175 
L 351.745575 114.529485 
L 352.081517 120.551674 
L 352.417459 103.386736 
L 352.753402 101.19169 
L 353.425286 101.191464 
L 353.761228 114.528708 
L 354.09717 120.549065 
L 354.433113 103.386548 
L 354.769055 101.191721 
L 355.440939 101.191528 
L 355.776881 114.528535 
L 356.112824 120.5448 
L 356.448766 103.382326 
L 356.784708 101.191803 
L 357.456592 101.191597 
L 357.792535 114.528399 
L 358.128477 120.511407 
L 358.464419 120.542581 
L 358.800361 103.379575 
L 359.136303 101.191891 
L 359.808188 101.191675 
L 360.14413 114.528253 
L 360.480072 103.377166 
L 360.816014 101.191901 
L 361.487899 101.191701 
L 361.823841 114.528136 
L 362.159783 103.374634 
L 362.495725 101.191909 
L 363.503552 101.191712 
L 363.839494 114.528022 
L 364.175436 103.370304 
L 364.511379 101.191915 
L 365.519205 101.191716 
L 365.855148 114.527908 
L 366.19109 103.36924 
L 366.527032 101.191922 
L 366.862974 101.19194 
L 367.198916 114.527796 
L 367.534859 103.369069 
L 367.870801 103.380327 
L 368.206743 101.191929 
L 368.542685 114.525777 
L 368.878627 103.368785 
L 369.21457 103.389724 
L 369.550512 101.191947 
L 369.886454 114.517937 
L 370.222396 114.524834 
L 370.558338 103.368729 
L 370.894281 103.405508 
L 371.230223 101.191964 
L 371.566165 114.512718 
L 371.902107 103.36868 
L 373.581818 103.36687 
L 373.581818 103.36687 
" style="fill:none;stroke:#0000ff;stroke-linecap:square;stroke-width:1.5;"/>
   </g>
   <g id="patch_3">
    <path d="M 54 252 
L 54 34.56 
" style="fill:none;stroke:#000000;stroke-linecap:square;stroke-linejoin:miter;stroke-width:0.8;"/>
   </g>
   <g id="patch_4">
    <path d="M 388.8 252 
L 388.8 34.56 
" style="fill:none;stroke:#000000;stroke-linecap:square;stroke-linejoin:miter;stroke-width:0.8;"/>
   </g>
   <g id="patch_5">
    <path d="M 54 252 
L 388.8 252 
" style="fill:none;stroke:#000000;stroke-linecap:square;stroke-linejoin:miter;stroke-width:0.8;"/>
   </g>
   <g id="patch_6">
    <path d="M 54 34.56 
L 388.8 34.56 
" style="fill:none;stroke:#000000;stroke-linecap:square;stroke-linejoin:miter;stroke-width:0.8;"/>
   </g>
   <g id="legend_1">
    <g id="patch_7">
     <path d="M 148.403125 247 
L 381.8 247 
Q 383.8 247 383.8 245 
L 383.8 201.13125 
Q 383.8 199.13125 381.8 199.13125 
L 148.403125 199.13125 
Q 146.403125 199.13125 146.403125 201.13125 
L 146.403125 245 
Q 146.403125 247 148.403125 247 
z
" style="fill:#ffffff;opacity:0.8;stroke:#cccccc;stroke-linejoin:miter;"/>
    </g>
    <g id="line2d_15">
     <path d="M 150.403125 207.229688 
L 170.403125 207.229688 
" style="fill:none;stroke:#ff0000;stroke-linecap:square;stroke-width:1.5;"/>
    </g>
    <g id="line2d_16"/>
    <g id="text_8">
     <!-- on_midpowerfactory_OpenDSS_Phase_A -->
     <defs>
      <path d="M 30.609375 48.390625 
Q 23.390625 48.390625 19.1875 42.75 
Q 14.984375 37.109375 14.984375 27.296875 
Q 14.984375 17.484375 19.15625 11.84375 
Q 23.34375 6.203125 30.609375 6.203125 
Q 37.796875 6.203125 41.984375 11.859375 
Q 46.1875 17.53125 46.1875 27.296875 
Q 46.1875 37.015625 41.984375 42.703125 
Q 37.796875 48.390625 30.609375 48.390625 
z
M 30.609375 56 
Q 42.328125 56 49.015625 48.375 
Q 55.71875 40.765625 55.71875 27.296875 
Q 55.71875 13.875 49.015625 6.21875 
Q 42.328125 -1.421875 30.609375 -1.421875 
Q 18.84375 -1.421875 12.171875 6.21875 
Q 5.515625 13.875 5.515625 27.296875 
Q 5.515625 40.765625 12.171875 48.375 
Q 18.84375 56 30.609375 56 
z
" id="DejaVuSans-111"/>
      <path d="M 54.890625 33.015625 
L 54.890625 0 
L 45.90625 0 
L 45.90625 32.71875 
Q 45.90625 40.484375 42.875 44.328125 
Q 39.84375 48.1875 33.796875 48.1875 
Q 26.515625 48.1875 22.3125 43.546875 
Q 18.109375 38.921875 18.109375 30.90625 
L 18.109375 0 
L 9.078125 0 
L 9.078125 54.6875 
L 18.109375 54.6875 
L 18.109375 46.1875 
Q 21.34375 51.125 25.703125 53.5625 
Q 30.078125 56 35.796875 56 
Q 45.21875 56 50.046875 50.171875 
Q 54.890625 44.34375 54.890625 33.015625 
z
" id="DejaVuSans-110"/>
      <path d="M 50.984375 -16.609375 
L 50.984375 -23.578125 
L -0.984375 -23.578125 
L -0.984375 -16.609375 
z
" id="DejaVuSans-95"/>
      <path d="M 52 44.1875 
Q 55.375 50.25 60.0625 53.125 
Q 64.75 56 71.09375 56 
Q 79.640625 56 84.28125 50.015625 
Q 88.921875 44.046875 88.921875 33.015625 
L 88.921875 0 
L 79.890625 0 
L 79.890625 32.71875 
Q 79.890625 40.578125 77.09375 44.375 
Q 74.3125 48.1875 68.609375 48.1875 
Q 61.625 48.1875 57.5625 43.546875 
Q 53.515625 38.921875 53.515625 30.90625 
L 53.515625 0 
L 44.484375 0 
L 44.484375 32.71875 
Q 44.484375 40.625 41.703125 44.40625 
Q 38.921875 48.1875 33.109375 48.1875 
Q 26.21875 48.1875 22.15625 43.53125 
Q 18.109375 38.875 18.109375 30.90625 
L 18.109375 0 
L 9.078125 0 
L 9.078125 54.6875 
L 18.109375 54.6875 
L 18.109375 46.1875 
Q 21.1875 51.21875 25.484375 53.609375 
Q 29.78125 56 35.6875 56 
Q 41.65625 56 45.828125 52.96875 
Q 50 49.953125 52 44.1875 
z
" id="DejaVuSans-109"/>
      <path d="M 9.421875 54.6875 
L 18.40625 54.6875 
L 18.40625 0 
L 9.421875 0 
z
M 9.421875 75.984375 
L 18.40625 75.984375 
L 18.40625 64.59375 
L 9.421875 64.59375 
z
" id="DejaVuSans-105"/>
      <path d="M 45.40625 46.390625 
L 45.40625 75.984375 
L 54.390625 75.984375 
L 54.390625 0 
L 45.40625 0 
L 45.40625 8.203125 
Q 42.578125 3.328125 38.25 0.953125 
Q 33.9375 -1.421875 27.875 -1.421875 
Q 17.96875 -1.421875 11.734375 6.484375 
Q 5.515625 14.40625 5.515625 27.296875 
Q 5.515625 40.1875 11.734375 48.09375 
Q 17.96875 56 27.875 56 
Q 33.9375 56 38.25 53.625 
Q 42.578125 51.265625 45.40625 46.390625 
z
M 14.796875 27.296875 
Q 14.796875 17.390625 18.875 11.75 
Q 22.953125 6.109375 30.078125 6.109375 
Q 37.203125 6.109375 41.296875 11.75 
Q 45.40625 17.390625 45.40625 27.296875 
Q 45.40625 37.203125 41.296875 42.84375 
Q 37.203125 48.484375 30.078125 48.484375 
Q 22.953125 48.484375 18.875 42.84375 
Q 14.796875 37.203125 14.796875 27.296875 
z
" id="DejaVuSans-100"/>
      <path d="M 18.109375 8.203125 
L 18.109375 -20.796875 
L 9.078125 -20.796875 
L 9.078125 54.6875 
L 18.109375 54.6875 
L 18.109375 46.390625 
Q 20.953125 51.265625 25.265625 53.625 
Q 29.59375 56 35.59375 56 
Q 45.5625 56 51.78125 48.09375 
Q 58.015625 40.1875 58.015625 27.296875 
Q 58.015625 14.40625 51.78125 6.484375 
Q 45.5625 -1.421875 35.59375 -1.421875 
Q 29.59375 -1.421875 25.265625 0.953125 
Q 20.953125 3.328125 18.109375 8.203125 
z
M 48.6875 27.296875 
Q 48.6875 37.203125 44.609375 42.84375 
Q 40.53125 48.484375 33.40625 48.484375 
Q 26.265625 48.484375 22.1875 42.84375 
Q 18.109375 37.203125 18.109375 27.296875 
Q 18.109375 17.390625 22.1875 11.75 
Q 26.265625 6.109375 33.40625 6.109375 
Q 40.53125 6.109375 44.609375 11.75 
Q 48.6875 17.390625 48.6875 27.296875 
z
" id="DejaVuSans-112"/>
      <path d="M 4.203125 54.6875 
L 13.1875 54.6875 
L 24.421875 12.015625 
L 35.59375 54.6875 
L 46.1875 54.6875 
L 57.421875 12.015625 
L 68.609375 54.6875 
L 77.59375 54.6875 
L 63.28125 0 
L 52.6875 0 
L 40.921875 44.828125 
L 29.109375 0 
L 18.5 0 
z
" id="DejaVuSans-119"/>
      <path d="M 56.203125 29.59375 
L 56.203125 25.203125 
L 14.890625 25.203125 
Q 15.484375 15.921875 20.484375 11.0625 
Q 25.484375 6.203125 34.421875 6.203125 
Q 39.59375 6.203125 44.453125 7.46875 
Q 49.3125 8.734375 54.109375 11.28125 
L 54.109375 2.78125 
Q 49.265625 0.734375 44.1875 -0.34375 
Q 39.109375 -1.421875 33.890625 -1.421875 
Q 20.796875 -1.421875 13.15625 6.1875 
Q 5.515625 13.8125 5.515625 26.8125 
Q 5.515625 40.234375 12.765625 48.109375 
Q 20.015625 56 32.328125 56 
Q 43.359375 56 49.78125 48.890625 
Q 56.203125 41.796875 56.203125 29.59375 
z
M 47.21875 32.234375 
Q 47.125 39.59375 43.09375 43.984375 
Q 39.0625 48.390625 32.421875 48.390625 
Q 24.90625 48.390625 20.390625 44.140625 
Q 15.875 39.890625 15.1875 32.171875 
z
" id="DejaVuSans-101"/>
      <path d="M 41.109375 46.296875 
Q 39.59375 47.171875 37.8125 47.578125 
Q 36.03125 48 33.890625 48 
Q 26.265625 48 22.1875 43.046875 
Q 18.109375 38.09375 18.109375 28.8125 
L 18.109375 0 
L 9.078125 0 
L 9.078125 54.6875 
L 18.109375 54.6875 
L 18.109375 46.1875 
Q 20.953125 51.171875 25.484375 53.578125 
Q 30.03125 56 36.53125 56 
Q 37.453125 56 38.578125 55.875 
Q 39.703125 55.765625 41.0625 55.515625 
z
" id="DejaVuSans-114"/>
      <path d="M 37.109375 75.984375 
L 37.109375 68.5 
L 28.515625 68.5 
Q 23.6875 68.5 21.796875 66.546875 
Q 19.921875 64.59375 19.921875 59.515625 
L 19.921875 54.6875 
L 34.71875 54.6875 
L 34.71875 47.703125 
L 19.921875 47.703125 
L 19.921875 0 
L 10.890625 0 
L 10.890625 47.703125 
L 2.296875 47.703125 
L 2.296875 54.6875 
L 10.890625 54.6875 
L 10.890625 58.5 
Q 10.890625 67.625 15.140625 71.796875 
Q 19.390625 75.984375 28.609375 75.984375 
z
" id="DejaVuSans-102"/>
      <path d="M 34.28125 27.484375 
Q 23.390625 27.484375 19.1875 25 
Q 14.984375 22.515625 14.984375 16.5 
Q 14.984375 11.71875 18.140625 8.90625 
Q 21.296875 6.109375 26.703125 6.109375 
Q 34.1875 6.109375 38.703125 11.40625 
Q 43.21875 16.703125 43.21875 25.484375 
L 43.21875 27.484375 
z
M 52.203125 31.203125 
L 52.203125 0 
L 43.21875 0 
L 43.21875 8.296875 
Q 40.140625 3.328125 35.546875 0.953125 
Q 30.953125 -1.421875 24.3125 -1.421875 
Q 15.921875 -1.421875 10.953125 3.296875 
Q 6 8.015625 6 15.921875 
Q 6 25.140625 12.171875 29.828125 
Q 18.359375 34.515625 30.609375 34.515625 
L 43.21875 34.515625 
L 43.21875 35.40625 
Q 43.21875 41.609375 39.140625 45 
Q 35.0625 48.390625 27.6875 48.390625 
Q 23 48.390625 18.546875 47.265625 
Q 14.109375 46.140625 10.015625 43.890625 
L 10.015625 52.203125 
Q 14.9375 54.109375 19.578125 55.046875 
Q 24.21875 56 28.609375 56 
Q 40.484375 56 46.34375 49.84375 
Q 52.203125 43.703125 52.203125 31.203125 
z
" id="DejaVuSans-97"/>
      <path d="M 48.78125 52.59375 
L 48.78125 44.1875 
Q 44.96875 46.296875 41.140625 47.34375 
Q 37.3125 48.390625 33.40625 48.390625 
Q 24.65625 48.390625 19.8125 42.84375 
Q 14.984375 37.3125 14.984375 27.296875 
Q 14.984375 17.28125 19.8125 11.734375 
Q 24.65625 6.203125 33.40625 6.203125 
Q 37.3125 6.203125 41.140625 7.25 
Q 44.96875 8.296875 48.78125 10.40625 
L 48.78125 2.09375 
Q 45.015625 0.34375 40.984375 -0.53125 
Q 36.96875 -1.421875 32.421875 -1.421875 
Q 20.0625 -1.421875 12.78125 6.34375 
Q 5.515625 14.109375 5.515625 27.296875 
Q 5.515625 40.671875 12.859375 48.328125 
Q 20.21875 56 33.015625 56 
Q 37.15625 56 41.109375 55.140625 
Q 45.0625 54.296875 48.78125 52.59375 
z
" id="DejaVuSans-99"/>
      <path d="M 18.3125 70.21875 
L 18.3125 54.6875 
L 36.8125 54.6875 
L 36.8125 47.703125 
L 18.3125 47.703125 
L 18.3125 18.015625 
Q 18.3125 11.328125 20.140625 9.421875 
Q 21.96875 7.515625 27.59375 7.515625 
L 36.8125 7.515625 
L 36.8125 0 
L 27.59375 0 
Q 17.1875 0 13.234375 3.875 
Q 9.28125 7.765625 9.28125 18.015625 
L 9.28125 47.703125 
L 2.6875 47.703125 
L 2.6875 54.6875 
L 9.28125 54.6875 
L 9.28125 70.21875 
z
" id="DejaVuSans-116"/>
      <path d="M 32.171875 -5.078125 
Q 28.375 -14.84375 24.75 -17.8125 
Q 21.140625 -20.796875 15.09375 -20.796875 
L 7.90625 -20.796875 
L 7.90625 -13.28125 
L 13.1875 -13.28125 
Q 16.890625 -13.28125 18.9375 -11.515625 
Q 21 -9.765625 23.484375 -3.21875 
L 25.09375 0.875 
L 2.984375 54.6875 
L 12.5 54.6875 
L 29.59375 11.921875 
L 46.6875 54.6875 
L 56.203125 54.6875 
z
" id="DejaVuSans-121"/>
      <path d="M 39.40625 66.21875 
Q 28.65625 66.21875 22.328125 58.203125 
Q 16.015625 50.203125 16.015625 36.375 
Q 16.015625 22.609375 22.328125 14.59375 
Q 28.65625 6.59375 39.40625 6.59375 
Q 50.140625 6.59375 56.421875 14.59375 
Q 62.703125 22.609375 62.703125 36.375 
Q 62.703125 50.203125 56.421875 58.203125 
Q 50.140625 66.21875 39.40625 66.21875 
z
M 39.40625 74.21875 
Q 54.734375 74.21875 63.90625 63.9375 
Q 73.09375 53.65625 73.09375 36.375 
Q 73.09375 19.140625 63.90625 8.859375 
Q 54.734375 -1.421875 39.40625 -1.421875 
Q 24.03125 -1.421875 14.8125 8.828125 
Q 5.609375 19.09375 5.609375 36.375 
Q 5.609375 53.65625 14.8125 63.9375 
Q 24.03125 74.21875 39.40625 74.21875 
z
" id="DejaVuSans-79"/>
      <path d="M 19.671875 64.796875 
L 19.671875 8.109375 
L 31.59375 8.109375 
Q 46.6875 8.109375 53.6875 14.9375 
Q 60.6875 21.78125 60.6875 36.53125 
Q 60.6875 51.171875 53.6875 57.984375 
Q 46.6875 64.796875 31.59375 64.796875 
z
M 9.8125 72.90625 
L 30.078125 72.90625 
Q 51.265625 72.90625 61.171875 64.09375 
Q 71.09375 55.28125 71.09375 36.53125 
Q 71.09375 17.671875 61.125 8.828125 
Q 51.171875 0 30.078125 0 
L 9.8125 0 
z
" id="DejaVuSans-68"/>
      <path d="M 53.515625 70.515625 
L 53.515625 60.890625 
Q 47.90625 63.578125 42.921875 64.890625 
Q 37.9375 66.21875 33.296875 66.21875 
Q 25.25 66.21875 20.875 63.09375 
Q 16.5 59.96875 16.5 54.203125 
Q 16.5 49.359375 19.40625 46.890625 
Q 22.3125 44.4375 30.421875 42.921875 
L 36.375 41.703125 
Q 47.40625 39.59375 52.65625 34.296875 
Q 57.90625 29 57.90625 20.125 
Q 57.90625 9.515625 50.796875 4.046875 
Q 43.703125 -1.421875 29.984375 -1.421875 
Q 24.8125 -1.421875 18.96875 -0.25 
Q 13.140625 0.921875 6.890625 3.21875 
L 6.890625 13.375 
Q 12.890625 10.015625 18.65625 8.296875 
Q 24.421875 6.59375 29.984375 6.59375 
Q 38.421875 6.59375 43.015625 9.90625 
Q 47.609375 13.234375 47.609375 19.390625 
Q 47.609375 24.75 44.3125 27.78125 
Q 41.015625 30.8125 33.5 32.328125 
L 27.484375 33.5 
Q 16.453125 35.6875 11.515625 40.375 
Q 6.59375 45.0625 6.59375 53.421875 
Q 6.59375 63.09375 13.40625 68.65625 
Q 20.21875 74.21875 32.171875 74.21875 
Q 37.3125 74.21875 42.625 73.28125 
Q 47.953125 72.359375 53.515625 70.515625 
z
" id="DejaVuSans-83"/>
      <path d="M 19.671875 64.796875 
L 19.671875 37.40625 
L 32.078125 37.40625 
Q 38.96875 37.40625 42.71875 40.96875 
Q 46.484375 44.53125 46.484375 51.125 
Q 46.484375 57.671875 42.71875 61.234375 
Q 38.96875 64.796875 32.078125 64.796875 
z
M 9.8125 72.90625 
L 32.078125 72.90625 
Q 44.34375 72.90625 50.609375 67.359375 
Q 56.890625 61.8125 56.890625 51.125 
Q 56.890625 40.328125 50.609375 34.8125 
Q 44.34375 29.296875 32.078125 29.296875 
L 19.671875 29.296875 
L 19.671875 0 
L 9.8125 0 
z
" id="DejaVuSans-80"/>
      <path d="M 54.890625 33.015625 
L 54.890625 0 
L 45.90625 0 
L 45.90625 32.71875 
Q 45.90625 40.484375 42.875 44.328125 
Q 39.84375 48.1875 33.796875 48.1875 
Q 26.515625 48.1875 22.3125 43.546875 
Q 18.109375 38.921875 18.109375 30.90625 
L 18.109375 0 
L 9.078125 0 
L 9.078125 75.984375 
L 18.109375 75.984375 
L 18.109375 46.1875 
Q 21.34375 51.125 25.703125 53.5625 
Q 30.078125 56 35.796875 56 
Q 45.21875 56 50.046875 50.171875 
Q 54.890625 44.34375 54.890625 33.015625 
z
" id="DejaVuSans-104"/>
      <path d="M 34.1875 63.1875 
L 20.796875 26.90625 
L 47.609375 26.90625 
z
M 28.609375 72.90625 
L 39.796875 72.90625 
L 67.578125 0 
L 57.328125 0 
L 50.6875 18.703125 
L 17.828125 18.703125 
L 11.1875 0 
L 0.78125 0 
z
" id="DejaVuSans-65"/>
     </defs>
     <g transform="translate(178.403125 210.729688)scale(0.1 -0.1)">
      <use xlink:href="#DejaVuSans-111"/>
      <use x="61.181641" xlink:href="#DejaVuSans-110"/>
      <use x="124.560547" xlink:href="#DejaVuSans-95"/>
      <use x="174.560547" xlink:href="#DejaVuSans-109"/>
      <use x="271.972656" xlink:href="#DejaVuSans-105"/>
      <use x="299.755859" xlink:href="#DejaVuSans-100"/>
      <use x="363.232422" xlink:href="#DejaVuSans-112"/>
      <use x="426.708984" xlink:href="#DejaVuSans-111"/>
      <use x="487.890625" xlink:href="#DejaVuSans-119"/>
      <use x="569.677734" xlink:href="#DejaVuSans-101"/>
      <use x="631.201172" xlink:href="#DejaVuSans-114"/>
      <use x="672.314453" xlink:href="#DejaVuSans-102"/>
      <use x="707.519531" xlink:href="#DejaVuSans-97"/>
      <use x="768.798828" xlink:href="#DejaVuSans-99"/>
      <use x="823.779297" xlink:href="#DejaVuSans-116"/>
      <use x="862.988281" xlink:href="#DejaVuSans-111"/>
      <use x="924.169922" xlink:href="#DejaVuSans-114"/>
      <use x="965.283203" xlink:href="#DejaVuSans-121"/>
      <use x="1024.462891" xlink:href="#DejaVuSans-95"/>
      <use x="1074.462891" xlink:href="#DejaVuSans-79"/>
      <use x="1153.173828" xlink:href="#DejaVuSans-112"/>
      <use x="1216.650391" xlink:href="#DejaVuSans-101"/>
      <use x="1278.173828" xlink:href="#DejaVuSans-110"/>
      <use x="1341.552734" xlink:href="#DejaVuSans-68"/>
      <use x="1418.554688" xlink:href="#DejaVuSans-83"/>
      <use x="1482.03125" xlink:href="#DejaVuSans-83"/>
      <use x="1545.507812" xlink:href="#DejaVuSans-95"/>
      <use x="1595.507812" xlink:href="#DejaVuSans-80"/>
      <use x="1655.810547" xlink:href="#DejaVuSans-104"/>
      <use x="1719.189453" xlink:href="#DejaVuSans-97"/>
      <use x="1780.46875" xlink:href="#DejaVuSans-115"/>
      <use x="1832.568359" xlink:href="#DejaVuSans-101"/>
      <use x="1894.091797" xlink:href="#DejaVuSans-95"/>
      <use x="1944.091797" xlink:href="#DejaVuSans-65"/>
     </g>
    </g>
    <g id="line2d_17">
     <path d="M 150.403125 222.185937 
L 170.403125 222.185937 
" style="fill:none;stroke:#ffff00;stroke-linecap:square;stroke-width:1.5;"/>
    </g>
    <g id="line2d_18"/>
    <g id="text_9">
     <!-- on_midpowerfactory_OpenDSS_Phase_B -->
     <g transform="translate(178.403125 225.685937)scale(0.1 -0.1)">
      <use xlink:href="#DejaVuSans-111"/>
      <use x="61.181641" xlink:href="#DejaVuSans-110"/>
      <use x="124.560547" xlink:href="#DejaVuSans-95"/>
      <use x="174.560547" xlink:href="#DejaVuSans-109"/>
      <use x="271.972656" xlink:href="#DejaVuSans-105"/>
      <use x="299.755859" xlink:href="#DejaVuSans-100"/>
      <use x="363.232422" xlink:href="#DejaVuSans-112"/>
      <use x="426.708984" xlink:href="#DejaVuSans-111"/>
      <use x="487.890625" xlink:href="#DejaVuSans-119"/>
      <use x="569.677734" xlink:href="#DejaVuSans-101"/>
      <use x="631.201172" xlink:href="#DejaVuSans-114"/>
      <use x="672.314453" xlink:href="#DejaVuSans-102"/>
      <use x="707.519531" xlink:href="#DejaVuSans-97"/>
      <use x="768.798828" xlink:href="#DejaVuSans-99"/>
      <use x="823.779297" xlink:href="#DejaVuSans-116"/>
      <use x="862.988281" xlink:href="#DejaVuSans-111"/>
      <use x="924.169922" xlink:href="#DejaVuSans-114"/>
      <use x="965.283203" xlink:href="#DejaVuSans-121"/>
      <use x="1024.462891" xlink:href="#DejaVuSans-95"/>
      <use x="1074.462891" xlink:href="#DejaVuSans-79"/>
      <use x="1153.173828" xlink:href="#DejaVuSans-112"/>
      <use x="1216.650391" xlink:href="#DejaVuSans-101"/>
      <use x="1278.173828" xlink:href="#DejaVuSans-110"/>
      <use x="1341.552734" xlink:href="#DejaVuSans-68"/>
      <use x="1418.554688" xlink:href="#DejaVuSans-83"/>
      <use x="1482.03125" xlink:href="#DejaVuSans-83"/>
      <use x="1545.507812" xlink:href="#DejaVuSans-95"/>
      <use x="1595.507812" xlink:href="#DejaVuSans-80"/>
      <use x="1655.810547" xlink:href="#DejaVuSans-104"/>
      <use x="1719.189453" xlink:href="#DejaVuSans-97"/>
      <use x="1780.46875" xlink:href="#DejaVuSans-115"/>
      <use x="1832.568359" xlink:href="#DejaVuSans-101"/>
      <use x="1894.091797" xlink:href="#DejaVuSans-95"/>
      <use x="1944.091797" xlink:href="#DejaVuSans-66"/>
     </g>
    </g>
    <g id="line2d_19">
     <path d="M 150.403125 237.142188 
L 170.403125 237.142188 
" style="fill:none;stroke:#0000ff;stroke-linecap:square;stroke-width:1.5;"/>
    </g>
    <g id="line2d_20"/>
    <g id="text_10">
     <!-- on_midpowerfactory_OpenDSS_Phase_C -->
     <defs>
      <path d="M 64.40625 67.28125 
L 64.40625 56.890625 
Q 59.421875 61.53125 53.78125 63.8125 
Q 48.140625 66.109375 41.796875 66.109375 
Q 29.296875 66.109375 22.65625 58.46875 
Q 16.015625 50.828125 16.015625 36.375 
Q 16.015625 21.96875 22.65625 14.328125 
Q 29.296875 6.6875 41.796875 6.6875 
Q 48.140625 6.6875 53.78125 8.984375 
Q 59.421875 11.28125 64.40625 15.921875 
L 64.40625 5.609375 
Q 59.234375 2.09375 53.4375 0.328125 
Q 47.65625 -1.421875 41.21875 -1.421875 
Q 24.65625 -1.421875 15.125 8.703125 
Q 5.609375 18.84375 5.609375 36.375 
Q 5.609375 53.953125 15.125 64.078125 
Q 24.65625 74.21875 41.21875 74.21875 
Q 47.75 74.21875 53.53125 72.484375 
Q 59.328125 70.75 64.40625 67.28125 
z
" id="DejaVuSans-67"/>
     </defs>
     <g transform="translate(178.403125 240.642188)scale(0.1 -0.1)">
      <use xlink:href="#DejaVuSans-111"/>
      <use x="61.181641" xlink:href="#DejaVuSans-110"/>
      <use x="124.560547" xlink:href="#DejaVuSans-95"/>
      <use x="174.560547" xlink:href="#DejaVuSans-109"/>
      <use x="271.972656" xlink:href="#DejaVuSans-105"/>
      <use x="299.755859" xlink:href="#DejaVuSans-100"/>
      <use x="363.232422" xlink:href="#DejaVuSans-112"/>
      <use x="426.708984" xlink:href="#DejaVuSans-111"/>
      <use x="487.890625" xlink:href="#DejaVuSans-119"/>
      <use x="569.677734" xlink:href="#DejaVuSans-101"/>
      <use x="631.201172" xlink:href="#DejaVuSans-114"/>
      <use x="672.314453" xlink:href="#DejaVuSans-102"/>
      <use x="707.519531" xlink:href="#DejaVuSans-97"/>
      <use x="768.798828" xlink:href="#DejaVuSans-99"/>
      <use x="823.779297" xlink:href="#DejaVuSans-116"/>
      <use x="862.988281" xlink:href="#DejaVuSans-111"/>
      <use x="924.169922" xlink:href="#DejaVuSans-114"/>
      <use x="965.283203" xlink:href="#DejaVuSans-121"/>
      <use x="1024.462891" xlink:href="#DejaVuSans-95"/>
      <use x="1074.462891" xlink:href="#DejaVuSans-79"/>
      <use x="1153.173828" xlink:href="#DejaVuSans-112"/>
      <use x="1216.650391" xlink:href="#DejaVuSans-101"/>
      <use x="1278.173828" xlink:href="#DejaVuSans-110"/>
      <use x="1341.552734" xlink:href="#DejaVuSans-68"/>
      <use x="1418.554688" xlink:href="#DejaVuSans-83"/>
      <use x="1482.03125" xlink:href="#DejaVuSans-83"/>
      <use x="1545.507812" xlink:href="#DejaVuSans-95"/>
      <use x="1595.507812" xlink:href="#DejaVuSans-80"/>
      <use x="1655.810547" xlink:href="#DejaVuSans-104"/>
      <use x="1719.189453" xlink:href="#DejaVuSans-97"/>
      <use x="1780.46875" xlink:href="#DejaVuSans-115"/>
      <use x="1832.568359" xlink:href="#DejaVuSans-101"/>
      <use x="1894.091797" xlink:href="#DejaVuSans-95"/>
      <use x="1944.091797" xlink:href="#DejaVuSans-67"/>
     </g>
    </g>
   </g>
  </g>
 </g>
 <defs>
  <clipPath id="p53af32eaab">
   <rect height="217.44" width="334.8" x="54" y="34.56"/>
  </clipPath>
 </defs>
</svg>
