<?xml version="1.0" encoding="utf-8" standalone="no"?>
<!DOCTYPE svg PUBLIC "-//W3C//DTD SVG 1.1//EN"
  "http://www.w3.org/Graphics/SVG/1.1/DTD/svg11.dtd">
<!-- Created with matplotlib (https://matplotlib.org/) -->
<svg height="288pt" version="1.1" viewBox="0 0 432 288" width="432pt" xmlns="http://www.w3.org/2000/svg" xmlns:xlink="http://www.w3.org/1999/xlink">
 <defs>
  <style type="text/css">
*{stroke-linecap:butt;stroke-linejoin:round;}
  </style>
 </defs>
 <g id="figure_1">
  <g id="patch_1">
   <path d="M 0 288 
L 432 288 
L 432 0 
L 0 0 
z
" style="fill:#ffffff;"/>
  </g>
  <g id="axes_1">
   <g id="patch_2">
    <path d="M 54 252 
L 388.8 252 
L 388.8 34.56 
L 54 34.56 
z
" style="fill:#ffffff;"/>
   </g>
   <g id="matplotlib.axis_1">
    <g id="xtick_1">
     <g id="line2d_1">
      <defs>
       <path d="M 0 0 
L 0 3.5 
" id="m8de35954d5" style="stroke:#000000;stroke-width:0.8;"/>
      </defs>
      <g>
       <use style="stroke:#000000;stroke-width:0.8;" x="69.218182" xlink:href="#m8de35954d5" y="252"/>
      </g>
     </g>
    </g>
    <g id="xtick_2">
     <g id="line2d_2">
      <g>
       <use style="stroke:#000000;stroke-width:0.8;" x="136.406623" xlink:href="#m8de35954d5" y="252"/>
      </g>
     </g>
    </g>
    <g id="xtick_3">
     <g id="line2d_3">
      <g>
       <use style="stroke:#000000;stroke-width:0.8;" x="203.595063" xlink:href="#m8de35954d5" y="252"/>
      </g>
     </g>
    </g>
    <g id="xtick_4">
     <g id="line2d_4">
      <g>
       <use style="stroke:#000000;stroke-width:0.8;" x="270.783504" xlink:href="#m8de35954d5" y="252"/>
      </g>
     </g>
    </g>
    <g id="xtick_5">
     <g id="line2d_5">
      <g>
       <use style="stroke:#000000;stroke-width:0.8;" x="337.971945" xlink:href="#m8de35954d5" y="252"/>
      </g>
     </g>
    </g>
    <g id="text_1">
     <!-- Bus -->
     <defs>
      <path d="M 19.671875 34.8125 
L 19.671875 8.109375 
L 35.5 8.109375 
Q 43.453125 8.109375 47.28125 11.40625 
Q 51.125 14.703125 51.125 21.484375 
Q 51.125 28.328125 47.28125 31.5625 
Q 43.453125 34.8125 35.5 34.8125 
z
M 19.671875 64.796875 
L 19.671875 42.828125 
L 34.28125 42.828125 
Q 41.5 42.828125 45.03125 45.53125 
Q 48.578125 48.25 48.578125 53.8125 
Q 48.578125 59.328125 45.03125 62.0625 
Q 41.5 64.796875 34.28125 64.796875 
z
M 9.8125 72.90625 
L 35.015625 72.90625 
Q 46.296875 72.90625 52.390625 68.21875 
Q 58.5 63.53125 58.5 54.890625 
Q 58.5 48.1875 55.375 44.234375 
Q 52.25 40.28125 46.1875 39.3125 
Q 53.46875 37.75 57.5 32.78125 
Q 61.53125 27.828125 61.53125 20.40625 
Q 61.53125 10.640625 54.890625 5.3125 
Q 48.25 0 35.984375 0 
L 9.8125 0 
z
" id="DejaVuSans-66"/>
      <path d="M 8.5 21.578125 
L 8.5 54.6875 
L 17.484375 54.6875 
L 17.484375 21.921875 
Q 17.484375 14.15625 20.5 10.265625 
Q 23.53125 6.390625 29.59375 6.390625 
Q 36.859375 6.390625 41.078125 11.03125 
Q 45.3125 15.671875 45.3125 23.6875 
L 45.3125 54.6875 
L 54.296875 54.6875 
L 54.296875 0 
L 45.3125 0 
L 45.3125 8.40625 
Q 42.046875 3.421875 37.71875 1 
Q 33.40625 -1.421875 27.6875 -1.421875 
Q 18.265625 -1.421875 13.375 4.4375 
Q 8.5 10.296875 8.5 21.578125 
z
M 31.109375 56 
z
" id="DejaVuSans-117"/>
      <path d="M 44.28125 53.078125 
L 44.28125 44.578125 
Q 40.484375 46.53125 36.375 47.5 
Q 32.28125 48.484375 27.875 48.484375 
Q 21.1875 48.484375 17.84375 46.4375 
Q 14.5 44.390625 14.5 40.28125 
Q 14.5 37.15625 16.890625 35.375 
Q 19.28125 33.59375 26.515625 31.984375 
L 29.59375 31.296875 
Q 39.15625 29.25 43.1875 25.515625 
Q 47.21875 21.78125 47.21875 15.09375 
Q 47.21875 7.46875 41.1875 3.015625 
Q 35.15625 -1.421875 24.609375 -1.421875 
Q 20.21875 -1.421875 15.453125 -0.5625 
Q 10.6875 0.296875 5.421875 2 
L 5.421875 11.28125 
Q 10.40625 8.6875 15.234375 7.390625 
Q 20.0625 6.109375 24.8125 6.109375 
Q 31.15625 6.109375 34.5625 8.28125 
Q 37.984375 10.453125 37.984375 14.40625 
Q 37.984375 18.0625 35.515625 20.015625 
Q 33.0625 21.96875 24.703125 23.78125 
L 21.578125 24.515625 
Q 13.234375 26.265625 9.515625 29.90625 
Q 5.8125 33.546875 5.8125 39.890625 
Q 5.8125 47.609375 11.28125 51.796875 
Q 16.75 56 26.8125 56 
Q 31.78125 56 36.171875 55.265625 
Q 40.578125 54.546875 44.28125 53.078125 
z
" id="DejaVuSans-115"/>
     </defs>
     <g transform="translate(212.196094 270.598437)scale(0.1 -0.1)">
      <use xlink:href="#DejaVuSans-66"/>
      <use x="68.603516" xlink:href="#DejaVuSans-117"/>
      <use x="131.982422" xlink:href="#DejaVuSans-115"/>
     </g>
    </g>
   </g>
   <g id="matplotlib.axis_2">
    <g id="ytick_1">
     <g id="line2d_6">
      <defs>
       <path d="M 0 0 
L -3.5 0 
" id="md1b7a3588d" style="stroke:#000000;stroke-width:0.8;"/>
      </defs>
      <g>
       <use style="stroke:#000000;stroke-width:0.8;" x="54" xlink:href="#md1b7a3588d" y="248.890842"/>
      </g>
     </g>
     <g id="text_2">
      <!-- 0.00000 -->
      <defs>
       <path d="M 31.78125 66.40625 
Q 24.171875 66.40625 20.328125 58.90625 
Q 16.5 51.421875 16.5 36.375 
Q 16.5 21.390625 20.328125 13.890625 
Q 24.171875 6.390625 31.78125 6.390625 
Q 39.453125 6.390625 43.28125 13.890625 
Q 47.125 21.390625 47.125 36.375 
Q 47.125 51.421875 43.28125 58.90625 
Q 39.453125 66.40625 31.78125 66.40625 
z
M 31.78125 74.21875 
Q 44.046875 74.21875 50.515625 64.515625 
Q 56.984375 54.828125 56.984375 36.375 
Q 56.984375 17.96875 50.515625 8.265625 
Q 44.046875 -1.421875 31.78125 -1.421875 
Q 19.53125 -1.421875 13.0625 8.265625 
Q 6.59375 17.96875 6.59375 36.375 
Q 6.59375 54.828125 13.0625 64.515625 
Q 19.53125 74.21875 31.78125 74.21875 
z
" id="DejaVuSans-48"/>
       <path d="M 10.6875 12.40625 
L 21 12.40625 
L 21 0 
L 10.6875 0 
z
" id="DejaVuSans-46"/>
      </defs>
      <g transform="translate(5.646875 252.690061)scale(0.1 -0.1)">
       <use xlink:href="#DejaVuSans-48"/>
       <use x="63.623047" xlink:href="#DejaVuSans-46"/>
       <use x="95.410156" xlink:href="#DejaVuSans-48"/>
       <use x="159.033203" xlink:href="#DejaVuSans-48"/>
       <use x="222.65625" xlink:href="#DejaVuSans-48"/>
       <use x="286.279297" xlink:href="#DejaVuSans-48"/>
       <use x="349.902344" xlink:href="#DejaVuSans-48"/>
      </g>
     </g>
    </g>
    <g id="ytick_2">
     <g id="line2d_7">
      <g>
       <use style="stroke:#000000;stroke-width:0.8;" x="54" xlink:href="#md1b7a3588d" y="211.132532"/>
      </g>
     </g>
     <g id="text_3">
      <!-- 0.00002 -->
      <defs>
       <path d="M 19.1875 8.296875 
L 53.609375 8.296875 
L 53.609375 0 
L 7.328125 0 
L 7.328125 8.296875 
Q 12.9375 14.109375 22.625 23.890625 
Q 32.328125 33.6875 34.8125 36.53125 
Q 39.546875 41.84375 41.421875 45.53125 
Q 43.3125 49.21875 43.3125 52.78125 
Q 43.3125 58.59375 39.234375 62.25 
Q 35.15625 65.921875 28.609375 65.921875 
Q 23.96875 65.921875 18.8125 64.3125 
Q 13.671875 62.703125 7.8125 59.421875 
L 7.8125 69.390625 
Q 13.765625 71.78125 18.9375 73 
Q 24.125 74.21875 28.421875 74.21875 
Q 39.75 74.21875 46.484375 68.546875 
Q 53.21875 62.890625 53.21875 53.421875 
Q 53.21875 48.921875 51.53125 44.890625 
Q 49.859375 40.875 45.40625 35.40625 
Q 44.1875 33.984375 37.640625 27.21875 
Q 31.109375 20.453125 19.1875 8.296875 
z
" id="DejaVuSans-50"/>
      </defs>
      <g transform="translate(5.646875 214.931751)scale(0.1 -0.1)">
       <use xlink:href="#DejaVuSans-48"/>
       <use x="63.623047" xlink:href="#DejaVuSans-46"/>
       <use x="95.410156" xlink:href="#DejaVuSans-48"/>
       <use x="159.033203" xlink:href="#DejaVuSans-48"/>
       <use x="222.65625" xlink:href="#DejaVuSans-48"/>
       <use x="286.279297" xlink:href="#DejaVuSans-48"/>
       <use x="349.902344" xlink:href="#DejaVuSans-50"/>
      </g>
     </g>
    </g>
    <g id="ytick_3">
     <g id="line2d_8">
      <g>
       <use style="stroke:#000000;stroke-width:0.8;" x="54" xlink:href="#md1b7a3588d" y="173.374222"/>
      </g>
     </g>
     <g id="text_4">
      <!-- 0.00004 -->
      <defs>
       <path d="M 37.796875 64.3125 
L 12.890625 25.390625 
L 37.796875 25.390625 
z
M 35.203125 72.90625 
L 47.609375 72.90625 
L 47.609375 25.390625 
L 58.015625 25.390625 
L 58.015625 17.1875 
L 47.609375 17.1875 
L 47.609375 0 
L 37.796875 0 
L 37.796875 17.1875 
L 4.890625 17.1875 
L 4.890625 26.703125 
z
" id="DejaVuSans-52"/>
      </defs>
      <g transform="translate(5.646875 177.17344)scale(0.1 -0.1)">
       <use xlink:href="#DejaVuSans-48"/>
       <use x="63.623047" xlink:href="#DejaVuSans-46"/>
       <use x="95.410156" xlink:href="#DejaVuSans-48"/>
       <use x="159.033203" xlink:href="#DejaVuSans-48"/>
       <use x="222.65625" xlink:href="#DejaVuSans-48"/>
       <use x="286.279297" xlink:href="#DejaVuSans-48"/>
       <use x="349.902344" xlink:href="#DejaVuSans-52"/>
      </g>
     </g>
    </g>
    <g id="ytick_4">
     <g id="line2d_9">
      <g>
       <use style="stroke:#000000;stroke-width:0.8;" x="54" xlink:href="#md1b7a3588d" y="135.615911"/>
      </g>
     </g>
     <g id="text_5">
      <!-- 0.00006 -->
      <defs>
       <path d="M 33.015625 40.375 
Q 26.375 40.375 22.484375 35.828125 
Q 18.609375 31.296875 18.609375 23.390625 
Q 18.609375 15.53125 22.484375 10.953125 
Q 26.375 6.390625 33.015625 6.390625 
Q 39.65625 6.390625 43.53125 10.953125 
Q 47.40625 15.53125 47.40625 23.390625 
Q 47.40625 31.296875 43.53125 35.828125 
Q 39.65625 40.375 33.015625 40.375 
z
M 52.59375 71.296875 
L 52.59375 62.3125 
Q 48.875 64.0625 45.09375 64.984375 
Q 41.3125 65.921875 37.59375 65.921875 
Q 27.828125 65.921875 22.671875 59.328125 
Q 17.53125 52.734375 16.796875 39.40625 
Q 19.671875 43.65625 24.015625 45.921875 
Q 28.375 48.1875 33.59375 48.1875 
Q 44.578125 48.1875 50.953125 41.515625 
Q 57.328125 34.859375 57.328125 23.390625 
Q 57.328125 12.15625 50.6875 5.359375 
Q 44.046875 -1.421875 33.015625 -1.421875 
Q 20.359375 -1.421875 13.671875 8.265625 
Q 6.984375 17.96875 6.984375 36.375 
Q 6.984375 53.65625 15.1875 63.9375 
Q 23.390625 74.21875 37.203125 74.21875 
Q 40.921875 74.21875 44.703125 73.484375 
Q 48.484375 72.75 52.59375 71.296875 
z
" id="DejaVuSans-54"/>
      </defs>
      <g transform="translate(5.646875 139.41513)scale(0.1 -0.1)">
       <use xlink:href="#DejaVuSans-48"/>
       <use x="63.623047" xlink:href="#DejaVuSans-46"/>
       <use x="95.410156" xlink:href="#DejaVuSans-48"/>
       <use x="159.033203" xlink:href="#DejaVuSans-48"/>
       <use x="222.65625" xlink:href="#DejaVuSans-48"/>
       <use x="286.279297" xlink:href="#DejaVuSans-48"/>
       <use x="349.902344" xlink:href="#DejaVuSans-54"/>
      </g>
     </g>
    </g>
    <g id="ytick_5">
     <g id="line2d_10">
      <g>
       <use style="stroke:#000000;stroke-width:0.8;" x="54" xlink:href="#md1b7a3588d" y="97.857601"/>
      </g>
     </g>
     <g id="text_6">
      <!-- 0.00008 -->
      <defs>
       <path d="M 31.78125 34.625 
Q 24.75 34.625 20.71875 30.859375 
Q 16.703125 27.09375 16.703125 20.515625 
Q 16.703125 13.921875 20.71875 10.15625 
Q 24.75 6.390625 31.78125 6.390625 
Q 38.8125 6.390625 42.859375 10.171875 
Q 46.921875 13.96875 46.921875 20.515625 
Q 46.921875 27.09375 42.890625 30.859375 
Q 38.875 34.625 31.78125 34.625 
z
M 21.921875 38.8125 
Q 15.578125 40.375 12.03125 44.71875 
Q 8.5 49.078125 8.5 55.328125 
Q 8.5 64.0625 14.71875 69.140625 
Q 20.953125 74.21875 31.78125 74.21875 
Q 42.671875 74.21875 48.875 69.140625 
Q 55.078125 64.0625 55.078125 55.328125 
Q 55.078125 49.078125 51.53125 44.71875 
Q 48 40.375 41.703125 38.8125 
Q 48.828125 37.15625 52.796875 32.3125 
Q 56.78125 27.484375 56.78125 20.515625 
Q 56.78125 9.90625 50.3125 4.234375 
Q 43.84375 -1.421875 31.78125 -1.421875 
Q 19.734375 -1.421875 13.25 4.234375 
Q 6.78125 9.90625 6.78125 20.515625 
Q 6.78125 27.484375 10.78125 32.3125 
Q 14.796875 37.15625 21.921875 38.8125 
z
M 18.3125 54.390625 
Q 18.3125 48.734375 21.84375 45.5625 
Q 25.390625 42.390625 31.78125 42.390625 
Q 38.140625 42.390625 41.71875 45.5625 
Q 45.3125 48.734375 45.3125 54.390625 
Q 45.3125 60.0625 41.71875 63.234375 
Q 38.140625 66.40625 31.78125 66.40625 
Q 25.390625 66.40625 21.84375 63.234375 
Q 18.3125 60.0625 18.3125 54.390625 
z
" id="DejaVuSans-56"/>
      </defs>
      <g transform="translate(5.646875 101.65682)scale(0.1 -0.1)">
       <use xlink:href="#DejaVuSans-48"/>
       <use x="63.623047" xlink:href="#DejaVuSans-46"/>
       <use x="95.410156" xlink:href="#DejaVuSans-48"/>
       <use x="159.033203" xlink:href="#DejaVuSans-48"/>
       <use x="222.65625" xlink:href="#DejaVuSans-48"/>
       <use x="286.279297" xlink:href="#DejaVuSans-48"/>
       <use x="349.902344" xlink:href="#DejaVuSans-56"/>
      </g>
     </g>
    </g>
    <g id="ytick_6">
     <g id="line2d_11">
      <g>
       <use style="stroke:#000000;stroke-width:0.8;" x="54" xlink:href="#md1b7a3588d" y="60.099291"/>
      </g>
     </g>
     <g id="text_7">
      <!-- 0.00010 -->
      <defs>
       <path d="M 12.40625 8.296875 
L 28.515625 8.296875 
L 28.515625 63.921875 
L 10.984375 60.40625 
L 10.984375 69.390625 
L 28.421875 72.90625 
L 38.28125 72.90625 
L 38.28125 8.296875 
L 54.390625 8.296875 
L 54.390625 0 
L 12.40625 0 
z
" id="DejaVuSans-49"/>
      </defs>
      <g transform="translate(5.646875 63.89851)scale(0.1 -0.1)">
       <use xlink:href="#DejaVuSans-48"/>
       <use x="63.623047" xlink:href="#DejaVuSans-46"/>
       <use x="95.410156" xlink:href="#DejaVuSans-48"/>
       <use x="159.033203" xlink:href="#DejaVuSans-48"/>
       <use x="222.65625" xlink:href="#DejaVuSans-48"/>
       <use x="286.279297" xlink:href="#DejaVuSans-49"/>
       <use x="349.902344" xlink:href="#DejaVuSans-48"/>
      </g>
     </g>
    </g>
   </g>
   <g id="line2d_12">
    <path clip-path="url(#p6e63abb41b)" d="M 69.218182 205.66488 
L 69.554124 94.161773 
L 70.226008 94.069798 
L 71.233835 94.043204 
L 71.569777 93.275774 
L 74.593257 92.894926 
L 74.929199 92.623397 
L 75.265141 92.895387 
L 75.601084 92.604775 
L 75.937026 92.895849 
L 76.272968 92.583849 
L 76.60891 92.896247 
L 76.944852 92.549752 
L 77.280795 92.896707 
L 77.616737 92.487679 
L 77.952679 92.897182 
L 78.624564 91.908209 
L 78.960506 92.897618 
L 79.296448 92.329822 
L 79.63239 92.292748 
L 79.968332 91.753818 
L 80.304275 92.898713 
L 80.640217 92.323647 
L 80.976159 92.291401 
L 81.312101 91.818487 
L 81.648043 90.821984 
L 81.983986 92.899667 
L 82.65587 91.819115 
L 82.991812 91.835792 
L 83.327754 90.166896 
L 83.663697 90.822101 
L 83.999639 92.899887 
L 84.671523 91.819371 
L 85.007465 91.876802 
L 85.343408 89.671615 
L 85.67935 90.822156 
L 86.015292 92.900175 
L 86.687176 91.819616 
L 87.023119 89.599932 
L 87.359061 89.671865 
L 87.695003 90.822214 
L 88.030945 92.900657 
L 88.70283 91.819822 
L 89.038772 89.275069 
L 89.374714 89.671887 
L 89.710656 90.822262 
L 90.046598 92.901046 
L 90.718483 91.81993 
L 91.054425 89.221704 
L 91.390367 89.017984 
L 91.726309 89.671907 
L 92.062252 90.822306 
L 92.398194 92.90142 
L 92.734136 92.159196 
L 93.070078 91.820111 
L 93.40602 88.590834 
L 93.741963 89.003195 
L 94.077905 88.906528 
L 94.413847 89.671948 
L 94.749789 90.822408 
L 95.085731 92.902974 
L 95.421674 91.820872 
L 95.757616 88.370791 
L 96.4295 90.822719 
L 96.765443 92.90476 
L 97.101385 91.823147 
L 97.437327 88.322742 
L 98.109211 90.823288 
L 98.445154 92.90569 
L 98.781096 88.225249 
L 99.788922 92.90597 
L 100.124865 88.133254 
L 100.796749 92.906039 
L 101.132691 88.079751 
L 101.804576 92.906094 
L 102.140518 88.044396 
L 102.812402 92.906184 
L 103.148344 87.995551 
L 103.820229 92.906327 
L 104.156171 87.993286 
L 104.492113 87.972364 
L 104.828055 90.82502 
L 105.163998 87.99054 
L 105.49994 87.959206 
L 105.835882 90.825132 
L 106.171824 87.987354 
L 106.507766 87.439606 
L 106.843709 90.827873 
L 107.179651 87.982489 
L 107.515593 87.387514 
L 107.851535 90.830091 
L 108.187477 87.976226 
L 108.52342 87.385016 
L 108.859362 87.218229 
L 109.195304 90.830277 
L 109.531246 87.971723 
L 109.867188 87.386373 
L 110.203131 87.38371 
L 110.539073 86.912726 
L 110.875015 90.830398 
L 111.210957 87.965351 
L 111.546899 87.387465 
L 111.882842 87.377545 
L 112.218784 86.775241 
L 112.554726 90.830489 
L 112.890668 87.958448 
L 113.22661 87.388177 
L 113.562553 87.312622 
L 113.898495 87.389579 
L 114.234437 86.734306 
L 114.570379 90.830728 
L 114.906321 87.951929 
L 115.242264 87.389187 
L 115.578206 87.306984 
L 115.914148 87.398472 
L 116.25009 86.688064 
L 116.586033 90.830875 
L 116.921975 87.941195 
L 117.257917 87.390271 
L 117.593859 87.301404 
L 117.929801 87.404388 
L 118.265744 86.644543 
L 118.601686 90.830895 
L 118.937628 87.890086 
L 119.27357 87.39114 
L 119.609512 87.296862 
L 120.281397 87.425692 
L 120.617339 86.593724 
L 120.953281 90.830901 
L 121.289223 87.878937 
L 121.625166 87.392013 
L 121.961108 87.289988 
L 122.632992 87.426944 
L 122.968934 86.57909 
L 123.304877 90.830906 
L 123.640819 87.888317 
L 123.976761 87.832925 
L 124.312703 87.392722 
L 124.648645 87.281632 
L 125.32053 87.428046 
L 125.656472 86.495894 
L 125.992414 90.830911 
L 126.328356 87.88977 
L 126.664299 87.771761 
L 127.000241 87.393237 
L 127.336183 87.275268 
L 127.672125 87.404543 
L 128.34401 87.428487 
L 128.679952 86.44887 
L 129.015894 87.892105 
L 129.687778 87.75845 
L 130.023721 87.393685 
L 130.359663 87.267844 
L 130.695605 87.404648 
L 131.367489 87.4294 
L 131.703432 86.413937 
L 132.039374 87.747266 
L 132.375316 87.701915 
L 132.711258 87.393991 
L 133.0472 87.260808 
L 133.383143 87.404699 
L 134.390969 87.431633 
L 134.726911 86.382508 
L 135.062854 87.712282 
L 135.734738 87.699584 
L 136.07068 87.394277 
L 136.406623 87.253177 
L 136.742565 87.404709 
L 137.750391 87.432888 
L 138.086334 86.343435 
L 138.422276 87.630786 
L 138.758218 87.715287 
L 139.430102 87.699231 
L 139.766045 87.394724 
L 140.101987 87.24142 
L 140.437929 87.404729 
L 141.109813 87.433728 
L 141.445756 86.271281 
L 141.781698 87.362505 
L 142.11764 87.720667 
L 142.453582 87.698928 
L 143.125467 87.209063 
L 143.461409 87.404748 
L 144.133293 87.43527 
L 144.469235 86.208328 
L 144.805178 87.246192 
L 145.14112 87.722573 
L 145.477062 87.698671 
L 145.813004 87.206282 
L 146.148946 87.404771 
L 146.820831 87.436001 
L 147.156773 86.165473 
L 147.492715 87.737743 
L 148.1646 87.698256 
L 148.500542 87.204988 
L 148.836484 87.404789 
L 149.508368 87.436494 
L 149.844311 86.1373 
L 150.180253 87.739697 
L 150.516195 87.697743 
L 150.852137 87.203593 
L 151.188079 87.404802 
L 151.859964 87.441829 
L 152.195906 86.076624 
L 152.531848 87.742454 
L 153.203733 87.696914 
L 153.539675 87.20225 
L 153.875617 87.404811 
L 154.547502 87.443314 
L 154.883444 86.068848 
L 155.219386 86.037774 
L 155.555328 87.693731 
L 155.89127 87.200743 
L 156.227213 87.404821 
L 156.899097 87.443627 
L 157.235039 86.067682 
L 157.570981 85.891983 
L 157.906924 87.677509 
L 158.242866 87.197609 
L 158.578808 87.40483 
L 159.586635 87.443795 
L 159.922577 86.067104 
L 160.594461 85.843467 
L 160.930403 87.19432 
L 161.266346 87.404835 
L 162.274172 87.443972 
L 162.610114 86.066368 
L 163.281999 85.667463 
L 163.617941 87.181722 
L 163.953883 87.404849 
L 164.625768 87.444113 
L 164.96171 86.065156 
L 165.297652 85.895801 
L 165.633594 85.484088 
L 165.969536 85.687043 
L 166.305479 87.114347 
L 166.641421 87.404858 
L 167.649247 87.444238 
L 167.98519 86.064008 
L 168.321132 85.89594 
L 168.657074 85.399637 
L 168.993016 85.76897 
L 169.328958 87.423049 
L 170.000843 87.444353 
L 170.336785 86.063063 
L 170.672727 85.896331 
L 171.008669 84.847642 
L 171.344612 85.787026 
L 171.680554 87.422938 
L 172.352438 87.444905 
L 172.68838 86.06182 
L 173.024323 85.896361 
L 173.360265 84.806389 
L 173.696207 85.793016 
L 174.032149 87.422535 
L 174.704034 87.446752 
L 175.039976 86.060466 
L 175.375918 85.89635 
L 175.71186 84.800112 
L 176.047803 84.109026 
L 176.719687 87.420796 
L 177.055629 87.422804 
L 177.391571 86.058788 
L 177.727514 85.896299 
L 178.399398 83.774161 
L 179.071282 87.421896 
L 179.407225 86.057786 
L 179.743167 85.89621 
L 180.415051 83.769223 
L 180.750993 83.136252 
L 181.086936 85.801834 
L 181.422878 86.053053 
L 181.75882 85.895093 
L 182.430704 83.766746 
L 182.766647 83.194116 
L 183.102589 82.967934 
L 183.438531 85.804217 
L 183.774473 86.05113 
L 184.110415 85.892125 
L 184.446358 84.718656 
L 184.7823 84.725321 
L 185.118242 83.222714 
L 185.454184 82.823673 
L 185.790126 85.806211 
L 186.126069 86.050434 
L 186.462011 84.70121 
L 186.797953 84.724648 
L 187.133895 83.22533 
L 187.469837 82.722156 
L 187.80578 85.808008 
L 188.141722 86.049889 
L 188.813606 83.226391 
L 189.149548 82.593833 
L 189.485491 85.809492 
L 189.821433 86.049474 
L 190.829259 82.513392 
L 191.165202 85.811212 
L 191.501144 86.049256 
L 192.50897 82.389815 
L 192.844913 85.813098 
L 193.180855 86.048923 
L 194.188682 82.266571 
L 194.524624 85.823366 
L 194.860566 86.048346 
L 195.868393 82.128228 
L 196.204335 85.899881 
L 196.540277 85.828519 
L 196.876219 86.045687 
L 197.884046 82.028076 
L 198.219988 85.973045 
L 198.55593 85.836436 
L 198.891872 85.832294 
L 199.227815 86.035596 
L 200.235641 81.908653 
L 200.571583 85.976297 
L 200.907526 85.838873 
L 201.243468 85.851477 
L 201.57941 83.232644 
L 201.915352 81.7353 
L 202.251294 85.978546 
L 202.587237 86.041918 
L 202.923179 85.839075 
L 203.259121 85.852788 
L 203.595063 83.236793 
L 203.931005 81.606725 
L 204.266948 85.978699 
L 204.60289 86.07353 
L 204.938832 85.839183 
L 205.274774 85.853324 
L 205.946659 81.482641 
L 206.282601 85.978755 
L 206.618543 86.165742 
L 206.954485 86.073803 
L 207.290427 85.839262 
L 207.62637 85.85366 
L 207.962312 81.361149 
L 208.298254 85.978772 
L 208.634196 86.296876 
L 209.306081 85.839451 
L 209.642023 85.854184 
L 209.977965 81.214975 
L 210.313907 85.978767 
L 210.649849 86.324275 
L 211.321734 85.839462 
L 211.657676 85.859706 
L 211.993618 80.969953 
L 212.329561 81.215077 
L 212.665503 85.978638 
L 213.001445 86.331267 
L 213.673329 85.839441 
L 214.009272 85.861501 
L 214.345214 80.14281 
L 214.681156 80.970299 
L 215.017098 85.978369 
L 215.35304 86.334925 
L 216.024925 85.839387 
L 216.360867 85.862054 
L 216.696809 78.971894 
L 217.032751 80.1433 
L 217.368694 85.978148 
L 217.704636 86.337952 
L 218.37652 85.839287 
L 218.712462 85.862934 
L 219.048405 78.130971 
L 219.384347 78.972245 
L 219.720289 85.977874 
L 220.056231 86.340401 
L 220.728116 85.838814 
L 221.064058 85.863618 
L 221.4 77.875618 
L 221.735942 78.131077 
L 222.071884 85.97755 
L 222.407827 86.34414 
L 223.079711 85.835877 
L 223.415653 85.864294 
L 223.751595 77.213772 
L 224.087538 77.875933 
L 224.42348 77.797093 
L 224.759422 85.976915 
L 225.095364 86.347504 
L 225.767249 85.864842 
L 226.103191 76.477368 
L 226.439133 77.214122 
L 226.775075 77.213824 
L 227.111017 77.785547 
L 227.44696 85.976401 
L 227.782902 86.350702 
L 228.454786 85.867148 
L 228.790728 76.207253 
L 229.126671 76.477496 
L 229.462613 77.77921 
L 229.798555 85.975989 
L 230.134497 86.354298 
L 230.806382 85.867257 
L 231.142324 75.684735 
L 231.478266 76.207524 
L 231.814208 76.073924 
L 232.150151 77.774888 
L 232.486093 85.975768 
L 232.822035 86.358091 
L 233.493919 85.867331 
L 233.829862 74.935055 
L 234.165804 75.685124 
L 234.501746 76.070301 
L 234.837688 76.046034 
L 235.17363 77.76828 
L 235.509573 85.975613 
L 235.845515 86.366371 
L 236.517399 85.867398 
L 236.853341 74.477069 
L 237.189284 74.935292 
L 237.525226 76.068734 
L 237.861168 76.027813 
L 238.19711 77.758187 
L 238.533052 85.975497 
L 238.868995 86.553871 
L 239.204937 86.074283 
L 239.540879 85.867442 
L 239.876821 74.398117 
L 240.212763 74.47711 
L 240.884648 77.750979 
L 241.22059 85.975322 
L 241.556532 86.557792 
L 241.892474 86.580581 
L 242.228417 86.074303 
L 242.564359 74.413062 
L 242.900301 74.398227 
L 243.236243 73.665701 
L 243.908128 77.746022 
L 244.24407 85.975177 
L 244.580012 86.560544 
L 244.915954 86.594967 
L 245.251896 86.074317 
L 245.587839 74.423901 
L 245.923781 74.413143 
L 246.259723 73.232496 
L 246.595665 76.066103 
L 246.931607 77.74208 
L 247.26755 85.974065 
L 247.603492 86.597111 
L 247.939434 86.074328 
L 248.275376 74.438438 
L 248.611318 74.424011 
L 248.947261 72.888927 
L 249.283203 76.065249 
L 249.619145 77.72936 
L 249.955087 85.97408 
L 250.29103 85.961835 
L 250.626972 86.598746 
L 250.962914 86.074337 
L 251.298856 74.448569 
L 251.634798 74.438516 
L 251.970741 72.74683 
L 252.306683 76.062621 
L 252.642625 77.625823 
L 252.978567 85.973791 
L 253.314509 86.600271 
L 253.650452 86.074345 
L 253.986394 74.476464 
L 254.322336 74.448787 
L 254.658278 72.739082 
L 254.99422 72.260049 
L 255.330163 76.059919 
L 255.666105 77.620634 
L 256.002047 85.972178 
L 256.337989 86.601896 
L 256.673931 86.07435 
L 257.009874 74.496347 
L 257.345816 74.476622 
L 257.681758 72.736216 
L 258.0177 71.891383 
L 258.353642 76.034172 
L 258.689585 77.616514 
L 259.025527 86.603331 
L 259.361469 86.074354 
L 259.697411 74.495801 
L 260.369296 74.509799 
L 260.705238 72.731924 
L 261.04118 77.611828 
L 261.377122 86.604796 
L 261.713064 74.495655 
L 262.384949 74.51143 
L 262.720891 72.729328 
L 263.056833 77.607631 
L 263.392775 86.612344 
L 263.728718 74.487875 
L 264.736544 74.512582 
L 265.072486 72.726178 
L 265.408429 77.60277 
L 265.744371 86.634499 
L 266.080313 86.626701 
L 266.416255 74.482107 
L 267.424082 74.513652 
L 267.760024 72.723399 
L 268.095966 77.597756 
L 268.431908 86.635737 
L 268.767851 86.695175 
L 269.103793 74.501292 
L 270.11162 74.523237 
L 270.447562 72.705115 
L 270.783504 77.591692 
L 271.119446 86.636338 
L 271.791331 86.779637 
L 272.127273 74.517556 
L 274.142926 74.527478 
L 274.478868 72.56961 
L 274.81481 77.587867 
L 275.150753 86.636826 
L 275.486695 86.685197 
L 275.822637 86.860387 
L 276.158579 74.520288 
L 277.83829 74.529366 
L 278.174232 77.571331 
L 278.510175 86.637211 
L 278.846117 86.868359 
L 279.182059 86.869729 
L 279.518001 74.523168 
L 280.189886 74.530556 
L 280.525828 77.501201 
L 280.86177 86.637793 
L 281.197712 86.870257 
L 281.533654 86.871868 
L 281.869597 74.523766 
L 282.541481 74.532271 
L 282.877423 86.639132 
L 283.213365 86.87152 
L 283.549308 86.872925 
L 283.88525 74.52493 
L 284.557134 74.535416 
L 284.893076 86.640023 
L 285.229019 86.873216 
L 285.564961 86.874081 
L 285.900903 74.496356 
L 286.236845 74.536228 
L 286.572787 86.641111 
L 286.90873 86.877108 
L 287.244672 86.875409 
L 287.580614 74.496389 
L 287.916556 74.536448 
L 288.252498 86.641746 
L 288.588441 86.879968 
L 288.924383 86.876745 
L 289.260325 74.496425 
L 289.93221 74.53689 
L 290.268152 86.642294 
L 290.604094 86.881906 
L 290.940036 86.878219 
L 291.275978 74.49651 
L 291.947863 74.537374 
L 292.283805 86.643177 
L 292.619747 86.883863 
L 292.955689 86.880352 
L 293.291632 74.496556 
L 293.963516 74.538968 
L 294.299458 86.644006 
L 294.6354 86.885411 
L 295.307285 86.892012 
L 295.643227 74.496579 
L 296.315111 74.539468 
L 296.651054 86.644378 
L 296.986996 86.887874 
L 297.322938 86.870689 
L 297.65888 86.965668 
L 297.994822 74.496603 
L 298.330765 74.538835 
L 298.666707 86.644767 
L 299.002649 86.895516 
L 299.338591 86.867263 
L 299.674533 87.018267 
L 300.010476 86.64512 
L 300.346418 86.912624 
L 300.68236 86.863882 
L 301.354244 87.18139 
L 301.690187 86.645521 
L 302.362071 87.022942 
L 302.698013 87.021043 
L 303.033955 87.190123 
L 303.369898 87.210792 
L 303.70584 86.646122 
L 304.377724 87.023125 
L 304.713666 87.017966 
L 305.385551 87.267242 
L 305.721493 86.647661 
L 306.393377 87.02322 
L 306.72932 87.409476 
L 307.065262 87.267353 
L 307.401204 86.649568 
L 308.073089 87.023265 
L 308.409031 87.63278 
L 308.744973 87.378712 
L 309.080915 87.267451 
L 309.416857 86.649736 
L 309.7528 86.752972 
L 310.088742 87.023296 
L 310.424684 87.862819 
L 310.760626 87.375358 
L 311.096568 87.267536 
L 311.432511 86.649858 
L 311.768453 86.738864 
L 312.104395 87.023312 
L 312.440337 87.734488 
L 312.776279 88.034147 
L 313.112222 87.374054 
L 313.448164 87.267626 
L 313.784106 86.649967 
L 314.120048 86.725886 
L 314.45599 87.023316 
L 315.127875 88.056949 
L 315.463817 87.37265 
L 315.799759 87.267695 
L 316.135701 86.650072 
L 316.471644 86.718745 
L 317.143528 87.355069 
L 317.47947 88.068833 
L 317.815412 87.371465 
L 318.151355 87.267792 
L 318.487297 86.650159 
L 318.823239 86.712983 
L 319.495123 87.190396 
L 319.831066 88.083699 
L 320.167008 88.070532 
L 320.50295 87.370037 
L 320.838892 87.267898 
L 321.174834 86.650231 
L 321.510777 86.708021 
L 321.846719 87.02325 
L 322.182661 87.148138 
L 322.518603 87.1502 
L 322.854545 88.095345 
L 323.190488 88.071748 
L 323.52643 87.368621 
L 323.862372 87.267971 
L 324.198314 86.650319 
L 324.534256 86.702139 
L 324.870199 87.023156 
L 325.542083 87.115889 
L 325.878025 88.072763 
L 326.213967 87.366642 
L 326.54991 87.268035 
L 326.885852 86.650409 
L 327.221794 86.696711 
L 327.557736 87.022262 
L 327.893679 86.945818 
L 328.229621 87.113465 
L 328.565563 87.115055 
L 328.901505 88.074459 
L 329.237447 87.363874 
L 329.57339 87.268072 
L 329.909332 86.65076 
L 330.245274 86.688208 
L 330.581216 87.018937 
L 330.917158 86.828911 
L 331.253101 87.110582 
L 331.589043 87.114239 
L 331.924985 88.07681 
L 332.260927 87.360899 
L 332.596869 87.268112 
L 332.932812 86.653097 
L 333.604696 86.73737 
L 333.940638 87.11334 
L 334.27658 88.078535 
L 334.612523 87.358891 
L 334.948465 87.268144 
L 335.284407 86.667428 
L 335.956291 86.654461 
L 336.292234 87.11252 
L 336.628176 88.081362 
L 336.964118 87.356815 
L 337.30006 87.268171 
L 337.636002 86.66438 
L 338.643829 86.695815 
L 338.979771 87.111595 
L 339.315713 88.100768 
L 339.651656 87.355808 
L 339.987598 87.2682 
L 340.32354 86.661822 
L 340.995424 86.622993 
L 341.331367 86.791293 
L 341.667309 86.695995 
L 342.003251 87.110987 
L 342.339193 88.143154 
L 342.675135 87.354181 
L 343.011078 87.268274 
L 343.34702 86.659806 
L 344.018904 86.607164 
L 344.354846 86.871046 
L 344.690789 86.791444 
L 345.362673 87.352631 
L 345.698615 87.268331 
L 346.034557 86.657727 
L 346.3705 86.591401 
L 346.706442 86.956453 
L 347.042384 86.871208 
L 347.714269 87.350384 
L 348.050211 87.26836 
L 348.386153 86.655897 
L 348.722095 86.575548 
L 349.058037 87.02631 
L 349.39398 86.956587 
L 349.729922 87.073939 
L 350.065864 87.32632 
L 350.401806 86.654566 
L 350.737748 86.559677 
L 351.073691 87.101022 
L 351.409633 87.026453 
L 351.745575 87.316557 
L 352.081517 86.653 
L 352.417459 86.543766 
L 352.753402 87.140078 
L 353.425286 87.101234 
L 353.761228 87.31153 
L 354.09717 86.650609 
L 354.433113 86.535984 
L 354.769055 87.145681 
L 355.440939 87.104036 
L 355.776881 87.310403 
L 356.112824 86.646652 
L 356.448766 86.360775 
L 356.784708 87.161155 
L 357.456592 87.106995 
L 357.792535 87.309502 
L 358.128477 86.631904 
L 358.464419 86.600302 
L 358.800361 86.246628 
L 359.136303 87.178959 
L 359.808188 87.110375 
L 360.14413 87.308525 
L 360.480072 86.146609 
L 360.816014 87.181221 
L 361.487899 87.111457 
L 361.823841 87.307732 
L 362.159783 86.041502 
L 362.495725 87.18187 
L 363.839494 87.306952 
L 364.175436 85.861703 
L 364.511379 87.182415 
L 365.183263 87.112134 
L 365.519205 87.112134 
L 365.855148 87.306165 
L 366.19109 85.81752 
L 366.527032 87.183159 
L 367.198916 87.305376 
L 367.534859 85.813805 
L 367.870801 85.64935 
L 368.206743 87.183994 
L 368.542685 87.291098 
L 368.878627 85.807558 
L 369.21457 85.506427 
L 369.550512 87.186831 
L 370.222396 87.270859 
L 370.558338 85.806294 
L 370.894281 85.265714 
L 371.230223 87.191233 
L 371.566165 87.23747 
L 371.902107 85.805201 
L 373.581818 85.762342 
L 373.581818 85.762342 
" style="fill:none;stroke:#ff0000;stroke-linecap:square;stroke-width:1.5;"/>
   </g>
   <g id="line2d_13">
    <path clip-path="url(#p6e63abb41b)" d="M 69.218182 242.116364 
L 69.554124 76.70628 
L 69.890066 76.453863 
L 71.233835 76.346874 
L 71.569777 74.025049 
L 72.913546 73.701654 
L 73.921373 73.534002 
L 74.257315 72.872772 
L 74.593257 72.873832 
L 74.929199 72.066387 
L 75.265141 72.874294 
L 75.601084 72.010888 
L 75.937026 72.874755 
L 76.272968 71.948553 
L 76.60891 72.875153 
L 76.944852 71.847034 
L 77.280795 72.875614 
L 77.616737 71.662299 
L 77.952679 72.876088 
L 78.288621 71.678795 
L 78.624564 69.489855 
L 78.960506 72.876524 
L 79.296448 71.679367 
L 79.63239 71.682434 
L 79.968332 68.911304 
L 80.304275 72.87762 
L 80.640217 71.68014 
L 80.976159 71.68255 
L 81.312101 68.488261 
L 81.648043 67.602777 
L 81.983986 72.878574 
L 82.319928 71.682705 
L 82.65587 68.487353 
L 82.991812 68.358656 
L 83.327754 66.686272 
L 83.663697 67.602894 
L 83.999639 72.878793 
L 84.335581 71.682889 
L 84.671523 68.486918 
L 85.007465 68.046168 
L 85.343408 65.993439 
L 85.67935 67.602949 
L 86.015292 72.879082 
L 86.351234 71.683303 
L 87.023119 65.893273 
L 87.359061 65.99369 
L 87.695003 67.603007 
L 88.030945 72.879563 
L 88.366887 71.683628 
L 89.038772 65.439384 
L 89.374714 65.993712 
L 89.710656 67.603055 
L 90.046598 72.879953 
L 90.382541 71.685042 
L 91.054425 65.351957 
L 91.390367 65.457104 
L 91.726309 65.993732 
L 92.062252 67.603099 
L 92.398194 72.880327 
L 92.734136 71.689535 
L 93.40602 64.318634 
L 93.741963 65.458494 
L 94.077905 65.463793 
L 94.413847 65.993772 
L 94.749789 67.603202 
L 95.085731 72.881881 
L 95.757616 63.958302 
L 96.4295 67.603512 
L 96.765443 72.883666 
L 97.437327 63.879636 
L 98.109211 67.604081 
L 98.445154 72.884596 
L 98.781096 63.720057 
L 99.45298 67.604209 
L 99.788922 72.884876 
L 100.124865 63.569512 
L 100.796749 72.884945 
L 101.132691 63.481978 
L 101.804576 72.885001 
L 102.140518 63.424147 
L 102.812402 72.88509 
L 103.148344 63.34427 
L 103.820229 72.885233 
L 104.156171 63.344959 
L 104.492113 63.285492 
L 104.828055 67.605812 
L 105.163998 63.34579 
L 105.49994 63.252151 
L 105.835882 67.605925 
L 106.171824 63.346748 
L 106.507766 61.936123 
L 106.843709 67.608665 
L 107.179651 63.348201 
L 107.515593 61.804237 
L 107.851535 67.610882 
L 108.187477 63.350061 
L 108.52342 61.802727 
L 108.859362 61.370121 
L 109.195304 67.611068 
L 109.531246 63.35139 
L 109.867188 61.804086 
L 110.203131 61.801903 
L 110.539073 60.586993 
L 110.875015 67.611189 
L 111.210957 63.353259 
L 111.546899 61.805178 
L 111.882842 61.798 
L 112.218784 60.234706 
L 112.554726 67.61128 
L 112.890668 63.355272 
L 113.22661 61.80589 
L 113.898495 61.791113 
L 114.234437 60.12986 
L 114.570379 67.61152 
L 114.906321 63.35716 
L 115.242264 61.8069 
L 115.914148 61.785929 
L 116.25009 60.011474 
L 116.586033 67.611667 
L 116.921975 63.360251 
L 117.257917 61.807984 
L 117.929801 61.782418 
L 118.265744 59.900101 
L 118.601686 67.611687 
L 118.937628 63.374873 
L 119.27357 61.808854 
L 120.281397 61.747957 
L 120.617339 59.770111 
L 120.953281 67.611692 
L 121.289223 63.378043 
L 121.625166 61.809727 
L 122.632992 61.745815 
L 122.968934 59.732697 
L 123.304877 67.611697 
L 123.640819 63.327833 
L 123.976761 63.395559 
L 124.312703 61.810436 
L 125.32053 61.743816 
L 125.656472 59.520075 
L 125.992414 67.611702 
L 126.328356 63.318028 
L 126.664299 63.418736 
L 127.000241 61.810952 
L 128.008067 61.810394 
L 128.34401 61.742969 
L 128.679952 59.399949 
L 129.015894 63.297137 
L 129.351836 63.415018 
L 129.687778 63.411319 
L 130.023721 61.811399 
L 131.031547 61.81155 
L 131.367489 61.741106 
L 131.703432 59.31075 
L 132.039374 63.400335 
L 132.375316 63.379175 
L 132.711258 61.811706 
L 134.055027 61.812605 
L 134.390969 61.736266 
L 134.726911 59.230532 
L 135.062854 63.374026 
L 135.734738 63.378099 
L 136.07068 61.811992 
L 137.414449 61.813399 
L 137.750391 61.733372 
L 138.086334 59.13085 
L 138.422276 63.379925 
L 139.430102 63.377923 
L 139.766045 61.812438 
L 140.773871 61.81399 
L 141.109813 61.731307 
L 141.445756 58.946848 
L 141.781698 63.397701 
L 142.453582 63.377763 
L 142.789524 61.812773 
L 143.797351 61.815155 
L 144.133293 61.727259 
L 144.469235 58.78638 
L 144.805178 63.404703 
L 145.477062 63.377621 
L 145.813004 61.832072 
L 146.820831 61.725207 
L 147.156773 58.67719 
L 147.492715 63.257428 
L 148.1646 63.37738 
L 148.500542 61.83223 
L 149.508368 61.723724 
L 149.844311 58.605441 
L 150.180253 63.242419 
L 150.516195 63.377071 
L 150.852137 61.832388 
L 151.859964 61.706459 
L 152.195906 58.450978 
L 152.531848 63.217172 
L 152.86779 63.220829 
L 153.203733 63.376557 
L 153.539675 61.83253 
L 154.547502 61.70128 
L 154.883444 58.46609 
L 155.219386 58.348507 
L 155.555328 63.374523 
L 155.89127 61.832676 
L 156.899097 61.700101 
L 157.235039 58.468088 
L 157.570981 57.964141 
L 157.906924 63.363895 
L 158.242866 61.832955 
L 159.586635 61.699642 
L 159.922577 58.468964 
L 160.258519 57.96815 
L 160.594461 57.833635 
L 160.930403 61.833221 
L 162.274172 61.699084 
L 162.610114 58.469956 
L 163.281999 57.360405 
L 163.617941 61.834141 
L 164.625768 61.698561 
L 164.96171 58.47141 
L 165.297652 57.968563 
L 165.633594 57.264645 
L 165.969536 57.283122 
L 166.305479 61.838534 
L 167.649247 61.698013 
L 167.98519 58.472637 
L 168.321132 57.968748 
L 168.657074 57.220522 
L 168.993016 56.959098 
L 169.328958 61.820914 
L 169.664901 61.820724 
L 170.000843 61.697405 
L 170.336785 58.473538 
L 170.672727 57.969342 
L 171.008669 56.931969 
L 171.344612 56.887544 
L 171.680554 61.820885 
L 172.016496 61.820737 
L 172.352438 61.69376 
L 172.68838 58.474593 
L 173.024323 57.969412 
L 173.360265 56.910393 
L 173.696207 56.863758 
L 174.032149 61.820641 
L 174.368092 61.820735 
L 174.704034 61.677861 
L 175.039976 58.475617 
L 175.375918 57.96943 
L 175.71186 56.912329 
L 176.047803 56.520561 
L 176.383745 56.851339 
L 176.719687 61.819368 
L 177.055629 61.820636 
L 177.391571 58.476743 
L 177.727514 57.969412 
L 178.063456 56.921818 
L 178.399398 56.333277 
L 178.73534 56.840703 
L 179.071282 61.819977 
L 179.407225 58.477339 
L 179.743167 57.969356 
L 180.079109 56.924962 
L 180.415051 56.329376 
L 180.750993 55.962914 
L 181.086936 56.828602 
L 181.422878 58.479825 
L 181.75882 57.96853 
L 182.094762 56.93144 
L 182.766647 55.495571 
L 183.102589 55.959551 
L 183.438531 56.819064 
L 183.774473 58.480711 
L 184.110415 57.966157 
L 184.446358 56.932869 
L 184.7823 56.933125 
L 185.118242 55.260116 
L 185.790126 56.811065 
L 186.126069 58.480991 
L 186.462011 56.934558 
L 186.797953 56.93334 
L 187.133895 55.238159 
L 187.80578 56.803844 
L 188.141722 58.481181 
L 188.813606 55.229072 
L 189.485491 56.797865 
L 189.821433 58.481305 
L 190.493317 55.222646 
L 191.165202 56.790927 
L 191.501144 58.481359 
L 192.173028 55.216061 
L 192.844913 56.783298 
L 193.180855 58.481429 
L 193.852739 55.208274 
L 194.524624 56.741691 
L 194.860566 58.481525 
L 195.53245 55.198431 
L 196.204335 56.420779 
L 196.540277 56.747026 
L 196.876219 58.481869 
L 197.548104 55.189598 
L 197.884046 55.939061 
L 198.219988 56.113293 
L 198.55593 56.756062 
L 198.891872 56.750802 
L 199.227815 58.482816 
L 199.899699 55.182594 
L 200.235641 55.936235 
L 200.571583 56.099599 
L 200.907526 56.758908 
L 201.243468 56.769987 
L 201.57941 55.170548 
L 201.915352 55.932064 
L 202.251294 56.10364 
L 202.587237 55.837266 
L 202.923179 56.759151 
L 203.259121 56.771298 
L 203.595063 55.128413 
L 203.931005 55.928918 
L 204.266948 56.103956 
L 204.60289 55.710657 
L 204.938832 56.759289 
L 205.274774 56.771834 
L 205.610716 54.870282 
L 205.946659 55.925831 
L 206.282601 56.104106 
L 206.618543 55.325533 
L 206.954485 55.710929 
L 207.290427 56.759397 
L 207.62637 56.772171 
L 207.962312 55.92276 
L 208.298254 56.104187 
L 208.634196 54.776805 
L 209.306081 56.759713 
L 209.642023 56.772694 
L 209.977965 55.919006 
L 210.313907 56.104285 
L 210.649849 54.661932 
L 211.321734 56.759755 
L 211.657676 56.778217 
L 211.993618 55.912514 
L 212.329561 55.919109 
L 212.665503 56.104499 
L 213.001445 54.632561 
L 213.673329 56.759763 
L 214.009272 56.780012 
L 214.345214 55.889939 
L 214.681156 55.912861 
L 215.017098 56.104612 
L 215.35304 54.617168 
L 216.024925 56.759738 
L 216.360867 56.780565 
L 216.696809 55.857069 
L 217.032751 55.89043 
L 217.368694 56.104606 
L 217.704636 54.604403 
L 218.37652 56.759672 
L 218.712462 56.781445 
L 219.048405 55.832809 
L 219.384347 55.857421 
L 219.720289 56.104534 
L 220.056231 54.594054 
L 220.728116 56.759315 
L 221.064058 56.78213 
L 221.4 55.82524 
L 221.735942 55.832916 
L 222.071884 56.104402 
L 222.407827 54.578228 
L 223.079711 56.756942 
L 223.415653 56.782806 
L 223.751595 55.803358 
L 224.42348 55.846584 
L 224.759422 56.104083 
L 225.095364 54.563956 
L 225.767249 56.783354 
L 226.103191 55.778009 
L 227.111017 55.849623 
L 227.44696 56.103789 
L 227.782902 54.550368 
L 228.454786 56.78566 
L 228.790728 55.768467 
L 229.462613 55.851238 
L 229.798555 56.103532 
L 230.134497 54.535054 
L 230.806382 56.785769 
L 231.142324 55.747765 
L 232.150151 55.852304 
L 232.486093 56.103385 
L 232.822035 54.518872 
L 233.493919 56.785843 
L 233.829862 55.717327 
L 235.17363 55.853878 
L 235.509573 56.103276 
L 235.845515 54.483477 
L 236.517399 56.78591 
L 236.853341 55.698283 
L 238.19711 55.856202 
L 238.533052 56.103193 
L 238.868995 53.680386 
L 239.204937 55.71141 
L 239.540879 56.785954 
L 239.876821 55.694922 
L 240.548706 55.806498 
L 240.884648 55.857804 
L 241.22059 56.103061 
L 241.556532 53.659536 
L 241.892474 53.559413 
L 242.228417 55.71143 
L 242.900301 55.695032 
L 243.572185 55.806732 
L 243.908128 55.858867 
L 244.24407 56.10295 
L 244.580012 53.640442 
L 244.915954 53.494127 
L 245.251896 55.711444 
L 245.923781 55.689776 
L 246.259723 55.870756 
L 246.595665 55.806924 
L 246.931607 55.859681 
L 247.26755 56.102079 
L 247.603492 53.484373 
L 247.939434 55.711454 
L 248.611318 55.685795 
L 248.947261 55.921985 
L 249.283203 55.807106 
L 249.619145 55.86221 
L 249.955087 56.102224 
L 250.29103 56.091934 
L 250.626972 53.476925 
L 250.962914 55.711463 
L 251.634798 55.68008 
L 251.970741 55.943022 
L 252.306683 55.807601 
L 252.642625 55.882014 
L 252.978567 56.102078 
L 253.314509 53.469956 
L 253.650452 55.711472 
L 254.322336 55.676043 
L 254.658278 55.94444 
L 254.99422 56.010892 
L 255.330163 55.808047 
L 255.666105 55.882968 
L 256.002047 56.100853 
L 256.337989 53.462522 
L 256.673931 55.711476 
L 257.345816 55.663858 
L 257.681758 55.944946 
L 258.0177 56.061823 
L 258.353642 55.81171 
L 258.689585 55.883694 
L 259.025527 53.455941 
L 259.361469 55.71148 
L 260.369296 55.622982 
L 260.705238 55.945678 
L 261.04118 55.884487 
L 261.377122 53.449208 
L 261.713064 55.6573 
L 262.384949 55.618915 
L 262.720891 55.946105 
L 263.056833 55.885166 
L 263.392775 53.414441 
L 263.728718 55.667086 
L 264.736544 55.615862 
L 265.072486 55.946603 
L 265.408429 55.885918 
L 265.744371 53.418467 
L 266.080313 53.339971 
L 266.416255 55.673626 
L 267.424082 55.612841 
L 267.760024 55.947026 
L 268.095966 55.886658 
L 268.431908 53.41866 
L 268.767851 52.983964 
L 269.103793 55.657401 
L 269.775677 55.657746 
L 270.11162 55.583989 
L 270.447562 55.949699 
L 270.783504 55.887512 
L 271.119446 53.418737 
L 271.791331 52.560419 
L 272.127273 55.64208 
L 273.806984 55.657824 
L 274.142926 55.57034 
L 274.478868 55.96871 
L 274.81481 55.888023 
L 275.150753 53.418785 
L 275.486695 52.975942 
L 275.822637 52.154578 
L 276.158579 55.624387 
L 277.502348 55.657865 
L 277.83829 55.563832 
L 278.174232 55.890124 
L 278.510175 53.418811 
L 278.846117 52.110872 
L 279.182059 52.057214 
L 279.518001 55.599443 
L 279.853943 55.657911 
L 280.189886 55.559421 
L 280.525828 55.898562 
L 280.86177 53.41883 
L 281.197712 52.100097 
L 281.533654 52.034803 
L 281.869597 55.591879 
L 282.205539 55.657945 
L 282.541481 55.552573 
L 282.877423 53.418826 
L 283.213365 52.092659 
L 283.549308 52.023677 
L 283.88525 55.566025 
L 284.221192 55.657978 
L 284.557134 55.538994 
L 284.893076 53.418788 
L 285.229019 52.082294 
L 285.564961 52.011445 
L 285.900903 55.658006 
L 286.236845 55.535183 
L 286.572787 53.418695 
L 286.90873 52.057584 
L 287.244672 51.997325 
L 287.580614 55.658039 
L 287.916556 55.53406 
L 288.252498 53.418612 
L 288.588441 52.038701 
L 288.924383 51.983044 
L 289.260325 55.658075 
L 289.596267 55.533629 
L 289.93221 55.531101 
L 290.268152 53.418512 
L 290.604094 52.025377 
L 290.940036 51.967205 
L 291.275978 55.658161 
L 291.611921 55.533212 
L 291.947863 55.527095 
L 292.619747 52.011345 
L 292.955689 51.944162 
L 293.291632 55.658207 
L 293.963516 55.510036 
L 294.6354 51.999766 
L 295.307285 51.881023 
L 295.643227 55.65823 
L 296.315111 55.502614 
L 296.986996 51.980495 
L 297.322938 51.948553 
L 297.65888 51.48103 
L 297.994822 55.658254 
L 298.330765 55.504674 
L 299.002649 51.917896 
L 299.338591 51.950019 
L 299.674533 51.194587 
L 300.010476 53.417569 
L 300.346418 51.77088 
L 300.68236 51.951412 
L 301.354244 50.350196 
L 301.690187 53.417324 
L 302.026129 51.952428 
L 302.362071 51.201466 
L 302.698013 51.199722 
L 303.033955 50.300246 
L 303.369898 50.180149 
L 303.70584 53.416895 
L 304.041782 51.953998 
L 304.377724 51.201681 
L 304.713666 51.197173 
L 305.049609 50.270519 
L 305.385551 49.888958 
L 305.721493 53.415613 
L 306.057435 51.956569 
L 306.393377 51.201797 
L 306.72932 49.114158 
L 307.065262 49.889069 
L 307.401204 53.413767 
L 307.737146 51.975272 
L 308.073089 51.201854 
L 308.409031 48.193494 
L 309.080915 49.889167 
L 309.416857 53.413577 
L 309.7528 51.990151 
L 310.088742 51.201898 
L 310.424684 47.242786 
L 310.760626 49.135233 
L 311.096568 49.889252 
L 311.432511 53.413417 
L 311.768453 51.994718 
L 312.104395 51.201926 
L 312.440337 47.151546 
L 312.776279 46.098609 
L 313.112222 49.135967 
L 313.448164 49.889342 
L 313.784106 53.413251 
L 314.120048 51.998742 
L 314.45599 51.201943 
L 314.791933 47.027305 
L 315.127875 45.944943 
L 315.463817 49.136719 
L 315.799759 49.88941 
L 316.135701 53.413062 
L 316.471644 52.000861 
L 316.807586 51.201946 
L 317.143528 46.881541 
L 317.47947 45.864116 
L 317.815412 49.137323 
L 318.151355 49.889507 
L 318.487297 53.412877 
L 318.823239 52.002495 
L 319.159181 51.201936 
L 319.495123 46.764255 
L 319.831066 45.759057 
L 320.167008 45.852556 
L 320.50295 49.138013 
L 320.838892 49.889613 
L 321.174834 53.412693 
L 321.510777 52.003839 
L 321.846719 51.201912 
L 322.182661 46.69825 
L 322.518603 46.731199 
L 322.854545 45.673221 
L 323.190488 45.844184 
L 323.52643 49.138663 
L 323.862372 49.889686 
L 324.198314 53.412424 
L 324.534256 52.005358 
L 324.870199 51.201843 
L 325.206141 46.607123 
L 325.542083 46.702856 
L 325.878025 45.837108 
L 326.213967 49.139525 
L 326.54991 49.88975 
L 326.885852 53.412078 
L 327.221794 52.006692 
L 327.557736 51.201131 
L 327.893679 46.382639 
L 328.229621 46.700906 
L 328.565563 46.702161 
L 328.901505 45.825137 
L 329.237447 49.140665 
L 329.57339 49.889787 
L 329.909332 53.410359 
L 330.245274 52.00868 
L 330.581216 51.198365 
L 330.917158 46.200443 
L 331.253101 46.698488 
L 331.589043 46.701479 
L 331.924985 45.808349 
L 332.260927 49.141825 
L 332.596869 49.889827 
L 332.932812 53.394997 
L 333.268754 52.012527 
L 333.604696 46.057886 
L 333.940638 46.700725 
L 334.27658 45.795873 
L 334.612523 49.142565 
L 334.948465 49.889859 
L 335.284407 52.013327 
L 335.620349 52.014307 
L 335.956291 45.928866 
L 336.292234 46.700034 
L 336.628176 45.775174 
L 336.964118 49.143285 
L 337.30006 49.889886 
L 337.636002 52.013982 
L 337.971945 52.016681 
L 338.307887 45.930578 
L 338.643829 45.863746 
L 338.979771 46.699251 
L 339.315713 45.63129 
L 339.651656 49.143615 
L 339.987598 49.889914 
L 340.32354 52.014488 
L 340.659482 52.018304 
L 340.995424 45.932264 
L 341.331367 45.746059 
L 341.667309 45.863926 
L 342.003251 46.698735 
L 342.339193 45.312988 
L 342.675135 49.144114 
L 343.011078 49.889988 
L 343.34702 52.014853 
L 343.682962 52.018992 
L 344.018904 45.933925 
L 344.354846 45.64708 
L 344.690789 45.74621 
L 345.026731 46.697922 
L 345.362673 49.144561 
L 345.698615 49.890045 
L 346.034557 52.015196 
L 346.3705 45.935545 
L 346.706442 45.540357 
L 347.042384 45.647242 
L 347.378326 46.691086 
L 347.714269 49.145166 
L 348.050211 49.890074 
L 348.386153 52.015469 
L 348.722095 45.937143 
L 349.058037 45.452466 
L 349.39398 45.54049 
L 349.729922 46.666989 
L 350.401806 52.015648 
L 350.737748 45.938709 
L 351.073691 45.357821 
L 351.409633 45.452609 
L 352.081517 52.015834 
L 352.417459 45.940247 
L 352.753402 45.098005 
L 353.089344 45.360572 
L 353.425286 45.358032 
L 354.09717 52.016085 
L 354.433113 45.940983 
L 354.769055 45.059882 
L 355.104997 45.363378 
L 355.440939 45.360827 
L 356.112824 52.016443 
L 356.448766 45.957206 
L 356.784708 44.952171 
L 357.12065 45.366988 
L 357.456592 45.363779 
L 358.128477 52.017608 
L 358.464419 52.019915 
L 358.800361 45.967544 
L 359.136303 44.825326 
L 359.472246 45.368129 
L 359.808188 45.367151 
L 360.14413 49.155138 
L 360.480072 45.9764 
L 360.816014 44.808823 
L 361.151957 45.368637 
L 361.487899 45.36823 
L 361.823841 49.155259 
L 362.159783 45.985497 
L 362.495725 44.80639 
L 362.831668 44.767955 
L 363.16761 45.368847 
L 363.503552 45.368707 
L 363.839494 49.155367 
L 364.175436 46.000698 
L 364.511379 44.804084 
L 364.847321 44.672002 
L 365.183263 45.368906 
L 365.519205 45.368906 
L 365.855148 49.155464 
L 366.19109 46.004345 
L 366.527032 44.800492 
L 366.862974 44.443636 
L 367.198916 49.15555 
L 367.534859 46.005396 
L 367.870801 46.018615 
L 368.206743 44.795848 
L 368.542685 49.156911 
L 368.878627 46.006975 
L 369.21457 46.030428 
L 369.550512 44.777354 
L 369.886454 49.160046 
L 370.222396 49.158273 
L 370.558338 46.007258 
L 370.894281 46.049794 
L 371.230223 44.74301 
L 371.566165 49.161572 
L 371.902107 46.007473 
L 373.581818 46.011082 
L 373.581818 46.011082 
" style="fill:none;stroke:#ffff00;stroke-linecap:square;stroke-width:1.5;"/>
   </g>
   <g id="line2d_14">
    <path clip-path="url(#p6e63abb41b)" d="M 69.218182 212.439372 
L 69.554124 104.879908 
L 70.226008 104.970631 
L 71.233835 104.996745 
L 71.569777 105.748274 
L 74.593257 106.119978 
L 74.929199 106.371862 
L 75.265141 106.12044 
L 75.601084 106.389253 
L 75.937026 106.120902 
L 76.272968 106.408766 
L 76.60891 106.1213 
L 76.944852 106.440512 
L 77.280795 106.121761 
L 77.616737 106.498221 
L 77.952679 106.122236 
L 78.624564 106.973162 
L 78.960506 106.122673 
L 79.296448 106.526457 
L 79.63239 106.532069 
L 79.968332 107.099451 
L 80.304275 106.123769 
L 80.640217 106.527691 
L 80.976159 106.532278 
L 81.648043 107.712258 
L 81.983986 106.124724 
L 82.319928 106.532566 
L 82.65587 107.141071 
L 82.991812 107.150731 
L 83.327754 108.129061 
L 83.663697 107.712376 
L 83.999639 106.124944 
L 84.335581 106.532922 
L 84.671523 107.141293 
L 85.007465 107.174669 
L 85.343408 108.443785 
L 85.67935 107.712431 
L 86.015292 106.125233 
L 86.351234 106.533754 
L 86.687176 107.1415 
L 87.023119 108.48889 
L 87.359061 108.444037 
L 87.695003 107.712489 
L 88.030945 106.125715 
L 88.366887 106.534436 
L 88.70283 107.141671 
L 89.038772 108.693046 
L 89.374714 108.444059 
L 89.710656 107.712537 
L 90.046598 106.126105 
L 90.382541 106.537563 
L 90.718483 107.141758 
L 91.054425 108.723358 
L 91.390367 108.722022 
L 91.726309 108.44408 
L 92.062252 107.712581 
L 92.398194 106.126479 
L 93.070078 107.141897 
L 93.40602 109.081107 
L 93.741963 108.724081 
L 94.077905 108.733542 
L 94.413847 108.44412 
L 94.749789 107.712685 
L 95.085731 106.128035 
L 95.421674 107.142446 
L 95.757616 109.205679 
L 96.4295 107.712997 
L 96.765443 106.129822 
L 97.101385 107.143923 
L 97.437327 109.232837 
L 98.109211 107.713568 
L 98.445154 106.130753 
L 98.781096 109.28785 
L 99.45298 107.713697 
L 99.788922 106.131033 
L 100.124865 109.339676 
L 100.796749 106.131103 
L 101.132691 109.369768 
L 101.804576 106.131158 
L 102.140518 109.389621 
L 102.812402 106.131247 
L 103.148344 109.417004 
L 103.820229 106.13139 
L 104.156171 109.4135 
L 104.492113 109.446723 
L 104.828055 107.715307 
L 105.163998 109.409258 
L 105.49994 109.463564 
L 105.835882 107.71542 
L 106.171824 109.404336 
L 106.507766 110.127663 
L 106.843709 107.718173 
L 107.179651 109.396825 
L 107.515593 110.194149 
L 107.851535 107.720401 
L 108.187477 109.387159 
L 108.52342 110.196108 
L 108.859362 110.365691 
L 109.195304 107.720588 
L 109.531246 109.380214 
L 109.867188 110.197469 
L 110.203131 110.196972 
L 110.539073 110.674819 
L 110.875015 107.720709 
L 111.210957 109.370391 
L 111.546899 110.198564 
L 111.882842 110.201001 
L 112.218784 110.813732 
L 112.554726 107.7208 
L 112.890668 109.359754 
L 113.22661 110.199277 
L 113.898495 110.193233 
L 114.234437 110.855032 
L 114.570379 107.721041 
L 114.906321 109.349713 
L 115.242264 110.20029 
L 115.914148 110.187394 
L 116.25009 110.901617 
L 116.586033 107.721189 
L 116.921975 109.333189 
L 117.257917 110.201377 
L 117.929801 110.183444 
L 118.265744 110.945398 
L 118.601686 107.721209 
L 118.937628 109.254549 
L 119.27357 110.202248 
L 120.281397 110.202541 
L 120.617339 110.996443 
L 120.953281 107.721214 
L 121.289223 109.237402 
L 121.625166 110.203123 
L 122.632992 110.203658 
L 122.968934 111.011121 
L 123.304877 107.721219 
L 123.640819 109.244245 
L 123.976761 109.17387 
L 124.312703 110.203834 
L 125.32053 110.204637 
L 125.656472 111.094443 
L 125.992414 107.721224 
L 126.328356 109.245217 
L 126.664299 109.089447 
L 127.000241 110.204351 
L 127.672125 110.170774 
L 128.34401 110.205027 
L 128.679952 111.14147 
L 129.015894 109.246561 
L 129.687778 108.924777 
L 130.023721 110.204799 
L 130.695605 110.170879 
L 131.367489 110.20583 
L 131.703432 111.176353 
L 132.039374 109.105927 
L 132.375316 108.241776 
L 132.711258 110.205107 
L 133.383143 110.170931 
L 134.390969 110.207782 
L 134.726911 111.207691 
L 135.062854 109.129277 
L 135.398796 108.16778 
L 135.734738 108.207226 
L 136.07068 110.205393 
L 136.742565 110.170941 
L 137.750391 110.208871 
L 138.086334 111.246593 
L 138.422276 109.13838 
L 138.758218 109.128258 
L 139.09416 107.979981 
L 139.430102 108.20232 
L 139.766045 110.205841 
L 140.437929 110.170961 
L 141.109813 110.209596 
L 141.445756 111.318328 
L 141.781698 109.166636 
L 142.11764 109.126376 
L 142.453582 108.198344 
L 142.789524 110.206177 
L 143.461409 110.17098 
L 144.133293 110.210915 
L 144.469235 111.380822 
L 144.805178 109.178155 
L 145.14112 109.125689 
L 145.477062 108.195152 
L 145.813004 110.242159 
L 146.484889 110.152591 
L 146.820831 110.211535 
L 147.156773 111.423303 
L 147.492715 109.135901 
L 147.828657 109.125701 
L 148.1646 108.190256 
L 148.500542 110.242367 
L 149.172426 110.151498 
L 149.508368 110.211949 
L 149.844311 111.451188 
L 150.180253 109.137134 
L 150.516195 108.18449 
L 150.852137 110.242579 
L 151.524022 110.15036 
L 151.859964 110.216381 
L 152.195906 111.511157 
L 152.531848 109.138701 
L 152.86779 109.138587 
L 153.203733 108.175594 
L 153.539675 110.242771 
L 154.211559 110.148627 
L 154.547502 110.217599 
L 154.883444 111.527014 
L 155.219386 111.548851 
L 155.555328 108.14289 
L 155.89127 110.242974 
L 156.563155 110.141854 
L 156.899097 110.217852 
L 157.235039 111.529115 
L 157.570981 111.690087 
L 157.906924 107.982988 
L 158.242866 110.24337 
L 158.91475 110.140213 
L 159.586635 110.217995 
L 159.922577 111.530039 
L 160.594461 111.738703 
L 160.930403 110.243758 
L 161.602288 110.139434 
L 162.274172 110.218143 
L 162.610114 111.531086 
L 163.281999 111.914801 
L 163.617941 110.245141 
L 164.289825 110.138904 
L 164.625768 110.218258 
L 164.96171 111.532626 
L 165.297652 111.681417 
L 165.633594 112.051064 
L 165.969536 111.913052 
L 166.305479 110.251993 
L 166.977363 110.136807 
L 167.649247 110.218356 
L 167.98519 111.533929 
L 168.321132 111.680618 
L 168.657074 112.113735 
L 168.993016 111.905589 
L 169.328958 110.135786 
L 170.000843 110.218441 
L 170.336785 111.534889 
L 170.672727 111.676792 
L 171.008669 112.522832 
L 171.344612 111.903912 
L 171.680554 110.133959 
L 172.352438 110.218824 
L 172.68838 111.536018 
L 173.024323 111.67601 
L 173.360265 112.553365 
L 173.696207 111.903346 
L 174.032149 110.130263 
L 174.704034 110.219956 
L 175.039976 111.537117 
L 175.375918 111.675397 
L 175.71186 112.555538 
L 176.047803 113.061028 
L 176.383745 111.903045 
L 176.719687 110.118827 
L 177.055629 110.136219 
L 177.391571 111.538333 
L 177.727514 111.674653 
L 178.399398 113.304451 
L 179.071282 110.130145 
L 179.407225 111.53898 
L 179.743167 111.673877 
L 180.415051 113.278406 
L 180.750993 113.786358 
L 181.086936 111.90248 
L 181.422878 111.541694 
L 181.75882 111.66672 
L 182.430704 113.267568 
L 182.766647 113.826188 
L 183.102589 113.892377 
L 183.438531 111.902238 
L 183.774473 111.542669 
L 184.110415 111.651404 
L 184.446358 112.579017 
L 184.7823 112.579093 
L 185.118242 113.845718 
L 185.454184 113.983144 
L 185.790126 111.902032 
L 186.126069 111.542979 
L 186.462011 112.58125 
L 186.797953 112.579333 
L 187.133895 113.847489 
L 187.469837 114.046947 
L 187.80578 111.901842 
L 188.141722 111.543192 
L 188.813606 113.848202 
L 189.149548 114.12751 
L 189.485491 111.901683 
L 189.821433 111.543333 
L 190.493317 113.848691 
L 190.829259 114.177955 
L 191.165202 111.901496 
L 191.501144 111.543396 
L 192.173028 113.849178 
L 192.50897 114.255368 
L 192.844913 111.901287 
L 193.180855 111.543477 
L 194.188682 114.332487 
L 194.524624 111.900131 
L 194.860566 111.543595 
L 195.868393 114.418958 
L 196.204335 111.893115 
L 196.540277 111.901491 
L 196.876219 111.544031 
L 197.884046 114.48149 
L 198.219988 111.886276 
L 198.891872 111.90528 
L 199.227815 111.545319 
L 200.235641 114.555971 
L 200.571583 111.885966 
L 201.243468 111.924529 
L 201.57941 113.852227 
L 201.915352 114.66397 
L 202.251294 111.849838 
L 203.259121 111.925844 
L 203.595063 113.854783 
L 203.931005 114.743984 
L 204.266948 111.846474 
L 205.274774 111.926382 
L 205.610716 113.86988 
L 205.946659 114.821117 
L 206.282601 111.844531 
L 206.954485 111.897439 
L 207.62637 111.92672 
L 207.962312 114.896557 
L 208.298254 111.843191 
L 208.970138 111.897504 
L 209.642023 111.927245 
L 209.977965 114.987223 
L 210.313907 111.840973 
L 210.985792 111.897548 
L 211.657676 111.932786 
L 211.993618 115.138865 
L 212.329561 114.987327 
L 212.665503 111.833489 
L 213.337387 111.8976 
L 214.009272 111.934588 
L 214.345214 115.649654 
L 214.681156 115.139215 
L 215.017098 111.825031 
L 215.688983 111.897641 
L 216.360867 111.935143 
L 216.696809 116.371147 
L 217.032751 115.650149 
L 217.368694 111.820204 
L 217.704636 111.918962 
L 218.712462 111.936026 
L 219.048405 116.888168 
L 219.384347 116.371502 
L 219.720289 111.815604 
L 220.056231 111.919146 
L 221.064058 111.936712 
L 221.4 117.044819 
L 221.735942 116.888276 
L 222.071884 111.811151 
L 222.407827 111.919421 
L 223.415653 111.937391 
L 223.751595 117.436469 
L 224.087538 117.045138 
L 224.42348 117.068462 
L 224.759422 111.803737 
L 225.095364 111.919664 
L 225.767249 111.937941 
L 226.103191 117.870558 
L 226.439133 117.436823 
L 226.775075 117.436521 
L 227.111017 117.071837 
L 227.44696 111.798501 
L 227.782902 111.919889 
L 228.454786 111.940254 
L 228.790728 118.029373 
L 229.126671 117.870688 
L 229.462613 117.073635 
L 229.798555 111.794772 
L 230.134497 111.920138 
L 230.806382 111.940364 
L 231.142324 118.328093 
L 231.478266 118.029648 
L 231.814208 118.069121 
L 232.150151 117.074824 
L 232.486093 111.792965 
L 232.822035 111.920395 
L 233.493919 111.940438 
L 233.829862 118.755452 
L 234.501746 118.070508 
L 234.837688 118.074516 
L 235.17363 117.076587 
L 235.509573 111.791806 
L 235.845515 111.920943 
L 236.517399 111.940505 
L 236.853341 119.015779 
L 237.189284 118.755692 
L 237.525226 118.071058 
L 237.861168 118.077591 
L 238.19711 117.079196 
L 238.533052 111.791012 
L 238.868995 111.93308 
L 239.540879 111.94055 
L 239.876821 119.060528 
L 240.212763 119.015821 
L 240.884648 117.080999 
L 241.22059 111.789889 
L 241.556532 111.936189 
L 242.228417 111.897944 
L 242.564359 119.037747 
L 243.236243 119.188229 
L 243.908128 117.082199 
L 244.24407 111.789021 
L 244.580012 111.938222 
L 245.251896 111.897957 
L 245.587839 119.020814 
L 245.923781 119.037829 
L 246.259723 119.263286 
L 246.931607 117.083122 
L 247.26755 111.78275 
L 247.603492 111.936969 
L 247.939434 111.897968 
L 248.275376 118.997535 
L 248.611318 119.020925 
L 248.947261 119.322437 
L 249.619145 117.086 
L 249.955087 111.780002 
L 250.29103 111.725709 
L 250.626972 111.93711 
L 250.962914 111.897977 
L 251.298856 118.980903 
L 251.634798 118.997614 
L 251.970741 119.346746 
L 252.642625 117.108621 
L 252.978567 111.776662 
L 253.314509 111.937238 
L 253.650452 111.897986 
L 253.986394 118.933949 
L 254.322336 118.981124 
L 254.658278 119.348351 
L 254.99422 119.4257 
L 255.666105 117.109715 
L 256.002047 111.766775 
L 256.337989 111.937373 
L 256.673931 111.89799 
L 257.009874 118.899629 
L 257.345816 118.934109 
L 257.681758 119.348927 
L 258.0177 119.485015 
L 258.689585 117.110552 
L 259.025527 111.937489 
L 259.361469 111.897994 
L 259.697411 118.893239 
L 260.369296 118.911348 
L 260.705238 119.349761 
L 261.04118 117.111469 
L 261.377122 111.937606 
L 261.713064 118.891709 
L 262.384949 118.912759 
L 262.720891 119.350249 
L 263.056833 117.112259 
L 263.392775 111.938194 
L 263.728718 118.846359 
L 264.736544 118.913749 
L 265.072486 119.350822 
L 265.408429 117.113139 
L 265.744371 111.959828 
L 266.080313 111.93894 
L 266.416255 118.814256 
L 267.424082 118.914661 
L 267.760024 119.35131 
L 268.095966 117.11401 
L 268.431908 111.961036 
L 268.767851 111.942371 
L 269.103793 118.809543 
L 269.775677 118.892158 
L 270.11162 118.922756 
L 270.447562 119.354409 
L 270.783504 117.115021 
L 271.119446 111.961622 
L 271.791331 111.953717 
L 272.127273 118.804483 
L 272.799157 118.809825 
L 273.135099 118.609692 
L 273.806984 118.892236 
L 274.142926 118.926303 
L 274.478868 119.376557 
L 274.81481 117.115631 
L 275.150753 111.962097 
L 275.486695 111.892355 
L 275.822637 111.964434 
L 276.158579 118.807224 
L 276.830464 118.804667 
L 277.166406 118.56282 
L 277.502348 118.892277 
L 277.83829 118.927864 
L 278.174232 117.118154 
L 278.510175 111.962471 
L 279.182059 111.970993 
L 279.518001 118.810114 
L 280.189886 118.928836 
L 280.525828 117.128372 
L 280.86177 111.963037 
L 281.533654 111.972491 
L 281.869597 118.810713 
L 282.541481 118.930217 
L 282.877423 111.964336 
L 283.549308 111.97323 
L 283.88525 118.811875 
L 284.557134 118.932706 
L 284.893076 111.9652 
L 285.564961 111.974037 
L 285.900903 118.892419 
L 286.236845 118.933338 
L 286.572787 111.966253 
L 287.244672 111.974961 
L 287.580614 118.892453 
L 287.916556 118.933504 
L 288.252498 111.966866 
L 288.924383 111.97589 
L 289.260325 118.892489 
L 289.93221 118.933812 
L 290.268152 111.967394 
L 290.940036 111.976912 
L 291.275978 118.892576 
L 291.947863 118.934118 
L 292.283805 111.968245 
L 292.955689 111.978388 
L 293.291632 118.892622 
L 293.963516 118.93497 
L 294.299458 111.969041 
L 295.307285 111.977189 
L 295.643227 118.892646 
L 296.315111 118.935154 
L 296.651054 111.969398 
L 297.65888 111.969425 
L 297.994822 118.89267 
L 298.330765 118.934626 
L 298.666707 111.969769 
L 300.68236 111.986306 
L 301.354244 111.974082 
L 308.409031 111.977663 
L 309.080915 111.988166 
L 310.424684 111.944607 
L 310.760626 112.031871 
L 311.432511 111.974567 
L 311.768453 112.034324 
L 312.104395 111.921849 
L 313.112222 112.032661 
L 313.784106 111.974666 
L 314.120048 112.038823 
L 314.45599 111.921591 
L 315.127875 112.09828 
L 316.135701 111.974762 
L 316.471644 112.0412 
L 316.807586 111.921373 
L 317.143528 112.078473 
L 317.815412 112.034126 
L 318.487297 111.974841 
L 318.823239 112.04304 
L 319.159181 111.921099 
L 319.495123 112.121314 
L 320.50295 112.034875 
L 321.174834 111.974905 
L 321.510777 112.044559 
L 321.846719 111.920789 
L 322.182661 112.172656 
L 322.518603 111.922836 
L 322.854545 112.128216 
L 324.870199 111.920198 
L 325.206141 112.243316 
L 325.542083 111.756218 
L 325.878025 112.110742 
L 326.885852 111.975057 
L 327.221794 112.047805 
L 327.557736 111.915586 
L 327.893679 112.41683 
L 328.229621 111.743485 
L 328.565563 111.752272 
L 328.901505 112.112068 
L 329.909332 111.975341 
L 330.245274 112.050084 
L 330.581216 111.900866 
L 330.917158 112.557214 
L 331.253101 111.730498 
L 331.589043 111.748481 
L 331.924985 112.1139 
L 332.932812 111.9771 
L 333.268754 112.054516 
L 333.604696 112.66671 
L 333.940638 111.744375 
L 334.27658 112.115241 
L 334.948465 111.988865 
L 335.620349 112.056638 
L 335.956291 112.765495 
L 336.292234 111.740691 
L 336.628176 112.11743 
L 337.30006 111.988892 
L 337.971945 112.059555 
L 338.307887 112.76761 
L 338.643829 112.764341 
L 338.979771 111.736604 
L 339.315713 112.132411 
L 339.987598 111.988921 
L 340.659482 112.061641 
L 340.995424 112.7697 
L 341.667309 112.764523 
L 342.003251 111.733956 
L 342.339193 112.16502 
L 343.011078 111.988995 
L 343.682962 112.062591 
L 344.018904 112.771765 
L 344.690789 112.750125 
L 345.026731 111.729871 
L 345.362673 112.042074 
L 345.698615 111.989053 
L 346.034557 112.057622 
L 346.3705 112.773787 
L 347.042384 112.737784 
L 347.378326 111.696112 
L 347.714269 112.042756 
L 348.050211 111.989082 
L 348.386153 112.057953 
L 348.722095 112.775788 
L 349.39398 112.72415 
L 349.729922 111.579223 
L 350.065864 112.049613 
L 350.401806 112.058173 
L 350.737748 112.777757 
L 351.409633 112.712721 
L 351.745575 112.052217 
L 352.081517 112.058408 
L 352.417459 112.779697 
L 353.425286 112.700221 
L 353.761228 112.05347 
L 354.09717 112.05873 
L 354.433113 112.78063 
L 355.440939 112.703049 
L 355.776881 112.053731 
L 356.112824 112.059206 
L 356.448766 112.801268 
L 357.456592 112.706036 
L 357.792535 112.053925 
L 358.464419 112.064031 
L 358.800361 112.814475 
L 359.808188 112.709448 
L 360.14413 112.05412 
L 360.480072 112.825841 
L 361.487899 112.710541 
L 361.823841 112.054265 
L 362.159783 112.837568 
L 363.503552 112.711023 
L 363.839494 112.054396 
L 364.175436 112.857259 
L 365.183263 112.711225 
L 365.519205 112.711225 
L 365.855148 112.054517 
L 366.19109 112.862007 
L 366.527032 112.782204 
L 366.862974 112.820705 
L 367.198916 112.054626 
L 367.534859 112.863174 
L 368.206743 112.78304 
L 368.542685 112.056399 
L 368.878627 112.864941 
L 369.550512 112.785879 
L 369.886454 112.060456 
L 370.222396 112.058327 
L 370.558338 112.865261 
L 371.230223 112.790283 
L 371.566165 112.062591 
L 371.902107 112.865507 
L 373.581818 112.870202 
L 373.581818 112.870202 
" style="fill:none;stroke:#0000ff;stroke-linecap:square;stroke-width:1.5;"/>
   </g>
   <g id="patch_3">
    <path d="M 54 252 
L 54 34.56 
" style="fill:none;stroke:#000000;stroke-linecap:square;stroke-linejoin:miter;stroke-width:0.8;"/>
   </g>
   <g id="patch_4">
    <path d="M 388.8 252 
L 388.8 34.56 
" style="fill:none;stroke:#000000;stroke-linecap:square;stroke-linejoin:miter;stroke-width:0.8;"/>
   </g>
   <g id="patch_5">
    <path d="M 54 252 
L 388.8 252 
" style="fill:none;stroke:#000000;stroke-linecap:square;stroke-linejoin:miter;stroke-width:0.8;"/>
   </g>
   <g id="patch_6">
    <path d="M 54 34.56 
L 388.8 34.56 
" style="fill:none;stroke:#000000;stroke-linecap:square;stroke-linejoin:miter;stroke-width:0.8;"/>
   </g>
   <g id="legend_1">
    <g id="patch_7">
     <path d="M 132.635938 247 
L 381.8 247 
Q 383.8 247 383.8 245 
L 383.8 201.13125 
Q 383.8 199.13125 381.8 199.13125 
L 132.635938 199.13125 
Q 130.635938 199.13125 130.635938 201.13125 
L 130.635938 245 
Q 130.635938 247 132.635938 247 
z
" style="fill:#ffffff;opacity:0.8;stroke:#cccccc;stroke-linejoin:miter;"/>
    </g>
    <g id="line2d_15">
     <path d="M 134.635938 207.229688 
L 154.635938 207.229688 
" style="fill:none;stroke:#ff0000;stroke-linecap:square;stroke-width:1.5;"/>
    </g>
    <g id="line2d_16"/>
    <g id="text_8">
     <!-- off_endpowerfactory_pandapower_Phase_A -->
     <defs>
      <path d="M 30.609375 48.390625 
Q 23.390625 48.390625 19.1875 42.75 
Q 14.984375 37.109375 14.984375 27.296875 
Q 14.984375 17.484375 19.15625 11.84375 
Q 23.34375 6.203125 30.609375 6.203125 
Q 37.796875 6.203125 41.984375 11.859375 
Q 46.1875 17.53125 46.1875 27.296875 
Q 46.1875 37.015625 41.984375 42.703125 
Q 37.796875 48.390625 30.609375 48.390625 
z
M 30.609375 56 
Q 42.328125 56 49.015625 48.375 
Q 55.71875 40.765625 55.71875 27.296875 
Q 55.71875 13.875 49.015625 6.21875 
Q 42.328125 -1.421875 30.609375 -1.421875 
Q 18.84375 -1.421875 12.171875 6.21875 
Q 5.515625 13.875 5.515625 27.296875 
Q 5.515625 40.765625 12.171875 48.375 
Q 18.84375 56 30.609375 56 
z
" id="DejaVuSans-111"/>
      <path d="M 37.109375 75.984375 
L 37.109375 68.5 
L 28.515625 68.5 
Q 23.6875 68.5 21.796875 66.546875 
Q 19.921875 64.59375 19.921875 59.515625 
L 19.921875 54.6875 
L 34.71875 54.6875 
L 34.71875 47.703125 
L 19.921875 47.703125 
L 19.921875 0 
L 10.890625 0 
L 10.890625 47.703125 
L 2.296875 47.703125 
L 2.296875 54.6875 
L 10.890625 54.6875 
L 10.890625 58.5 
Q 10.890625 67.625 15.140625 71.796875 
Q 19.390625 75.984375 28.609375 75.984375 
z
" id="DejaVuSans-102"/>
      <path d="M 50.984375 -16.609375 
L 50.984375 -23.578125 
L -0.984375 -23.578125 
L -0.984375 -16.609375 
z
" id="DejaVuSans-95"/>
      <path d="M 56.203125 29.59375 
L 56.203125 25.203125 
L 14.890625 25.203125 
Q 15.484375 15.921875 20.484375 11.0625 
Q 25.484375 6.203125 34.421875 6.203125 
Q 39.59375 6.203125 44.453125 7.46875 
Q 49.3125 8.734375 54.109375 11.28125 
L 54.109375 2.78125 
Q 49.265625 0.734375 44.1875 -0.34375 
Q 39.109375 -1.421875 33.890625 -1.421875 
Q 20.796875 -1.421875 13.15625 6.1875 
Q 5.515625 13.8125 5.515625 26.8125 
Q 5.515625 40.234375 12.765625 48.109375 
Q 20.015625 56 32.328125 56 
Q 43.359375 56 49.78125 48.890625 
Q 56.203125 41.796875 56.203125 29.59375 
z
M 47.21875 32.234375 
Q 47.125 39.59375 43.09375 43.984375 
Q 39.0625 48.390625 32.421875 48.390625 
Q 24.90625 48.390625 20.390625 44.140625 
Q 15.875 39.890625 15.1875 32.171875 
z
" id="DejaVuSans-101"/>
      <path d="M 54.890625 33.015625 
L 54.890625 0 
L 45.90625 0 
L 45.90625 32.71875 
Q 45.90625 40.484375 42.875 44.328125 
Q 39.84375 48.1875 33.796875 48.1875 
Q 26.515625 48.1875 22.3125 43.546875 
Q 18.109375 38.921875 18.109375 30.90625 
L 18.109375 0 
L 9.078125 0 
L 9.078125 54.6875 
L 18.109375 54.6875 
L 18.109375 46.1875 
Q 21.34375 51.125 25.703125 53.5625 
Q 30.078125 56 35.796875 56 
Q 45.21875 56 50.046875 50.171875 
Q 54.890625 44.34375 54.890625 33.015625 
z
" id="DejaVuSans-110"/>
      <path d="M 45.40625 46.390625 
L 45.40625 75.984375 
L 54.390625 75.984375 
L 54.390625 0 
L 45.40625 0 
L 45.40625 8.203125 
Q 42.578125 3.328125 38.25 0.953125 
Q 33.9375 -1.421875 27.875 -1.421875 
Q 17.96875 -1.421875 11.734375 6.484375 
Q 5.515625 14.40625 5.515625 27.296875 
Q 5.515625 40.1875 11.734375 48.09375 
Q 17.96875 56 27.875 56 
Q 33.9375 56 38.25 53.625 
Q 42.578125 51.265625 45.40625 46.390625 
z
M 14.796875 27.296875 
Q 14.796875 17.390625 18.875 11.75 
Q 22.953125 6.109375 30.078125 6.109375 
Q 37.203125 6.109375 41.296875 11.75 
Q 45.40625 17.390625 45.40625 27.296875 
Q 45.40625 37.203125 41.296875 42.84375 
Q 37.203125 48.484375 30.078125 48.484375 
Q 22.953125 48.484375 18.875 42.84375 
Q 14.796875 37.203125 14.796875 27.296875 
z
" id="DejaVuSans-100"/>
      <path d="M 18.109375 8.203125 
L 18.109375 -20.796875 
L 9.078125 -20.796875 
L 9.078125 54.6875 
L 18.109375 54.6875 
L 18.109375 46.390625 
Q 20.953125 51.265625 25.265625 53.625 
Q 29.59375 56 35.59375 56 
Q 45.5625 56 51.78125 48.09375 
Q 58.015625 40.1875 58.015625 27.296875 
Q 58.015625 14.40625 51.78125 6.484375 
Q 45.5625 -1.421875 35.59375 -1.421875 
Q 29.59375 -1.421875 25.265625 0.953125 
Q 20.953125 3.328125 18.109375 8.203125 
z
M 48.6875 27.296875 
Q 48.6875 37.203125 44.609375 42.84375 
Q 40.53125 48.484375 33.40625 48.484375 
Q 26.265625 48.484375 22.1875 42.84375 
Q 18.109375 37.203125 18.109375 27.296875 
Q 18.109375 17.390625 22.1875 11.75 
Q 26.265625 6.109375 33.40625 6.109375 
Q 40.53125 6.109375 44.609375 11.75 
Q 48.6875 17.390625 48.6875 27.296875 
z
" id="DejaVuSans-112"/>
      <path d="M 4.203125 54.6875 
L 13.1875 54.6875 
L 24.421875 12.015625 
L 35.59375 54.6875 
L 46.1875 54.6875 
L 57.421875 12.015625 
L 68.609375 54.6875 
L 77.59375 54.6875 
L 63.28125 0 
L 52.6875 0 
L 40.921875 44.828125 
L 29.109375 0 
L 18.5 0 
z
" id="DejaVuSans-119"/>
      <path d="M 41.109375 46.296875 
Q 39.59375 47.171875 37.8125 47.578125 
Q 36.03125 48 33.890625 48 
Q 26.265625 48 22.1875 43.046875 
Q 18.109375 38.09375 18.109375 28.8125 
L 18.109375 0 
L 9.078125 0 
L 9.078125 54.6875 
L 18.109375 54.6875 
L 18.109375 46.1875 
Q 20.953125 51.171875 25.484375 53.578125 
Q 30.03125 56 36.53125 56 
Q 37.453125 56 38.578125 55.875 
Q 39.703125 55.765625 41.0625 55.515625 
z
" id="DejaVuSans-114"/>
      <path d="M 34.28125 27.484375 
Q 23.390625 27.484375 19.1875 25 
Q 14.984375 22.515625 14.984375 16.5 
Q 14.984375 11.71875 18.140625 8.90625 
Q 21.296875 6.109375 26.703125 6.109375 
Q 34.1875 6.109375 38.703125 11.40625 
Q 43.21875 16.703125 43.21875 25.484375 
L 43.21875 27.484375 
z
M 52.203125 31.203125 
L 52.203125 0 
L 43.21875 0 
L 43.21875 8.296875 
Q 40.140625 3.328125 35.546875 0.953125 
Q 30.953125 -1.421875 24.3125 -1.421875 
Q 15.921875 -1.421875 10.953125 3.296875 
Q 6 8.015625 6 15.921875 
Q 6 25.140625 12.171875 29.828125 
Q 18.359375 34.515625 30.609375 34.515625 
L 43.21875 34.515625 
L 43.21875 35.40625 
Q 43.21875 41.609375 39.140625 45 
Q 35.0625 48.390625 27.6875 48.390625 
Q 23 48.390625 18.546875 47.265625 
Q 14.109375 46.140625 10.015625 43.890625 
L 10.015625 52.203125 
Q 14.9375 54.109375 19.578125 55.046875 
Q 24.21875 56 28.609375 56 
Q 40.484375 56 46.34375 49.84375 
Q 52.203125 43.703125 52.203125 31.203125 
z
" id="DejaVuSans-97"/>
      <path d="M 48.78125 52.59375 
L 48.78125 44.1875 
Q 44.96875 46.296875 41.140625 47.34375 
Q 37.3125 48.390625 33.40625 48.390625 
Q 24.65625 48.390625 19.8125 42.84375 
Q 14.984375 37.3125 14.984375 27.296875 
Q 14.984375 17.28125 19.8125 11.734375 
Q 24.65625 6.203125 33.40625 6.203125 
Q 37.3125 6.203125 41.140625 7.25 
Q 44.96875 8.296875 48.78125 10.40625 
L 48.78125 2.09375 
Q 45.015625 0.34375 40.984375 -0.53125 
Q 36.96875 -1.421875 32.421875 -1.421875 
Q 20.0625 -1.421875 12.78125 6.34375 
Q 5.515625 14.109375 5.515625 27.296875 
Q 5.515625 40.671875 12.859375 48.328125 
Q 20.21875 56 33.015625 56 
Q 37.15625 56 41.109375 55.140625 
Q 45.0625 54.296875 48.78125 52.59375 
z
" id="DejaVuSans-99"/>
      <path d="M 18.3125 70.21875 
L 18.3125 54.6875 
L 36.8125 54.6875 
L 36.8125 47.703125 
L 18.3125 47.703125 
L 18.3125 18.015625 
Q 18.3125 11.328125 20.140625 9.421875 
Q 21.96875 7.515625 27.59375 7.515625 
L 36.8125 7.515625 
L 36.8125 0 
L 27.59375 0 
Q 17.1875 0 13.234375 3.875 
Q 9.28125 7.765625 9.28125 18.015625 
L 9.28125 47.703125 
L 2.6875 47.703125 
L 2.6875 54.6875 
L 9.28125 54.6875 
L 9.28125 70.21875 
z
" id="DejaVuSans-116"/>
      <path d="M 32.171875 -5.078125 
Q 28.375 -14.84375 24.75 -17.8125 
Q 21.140625 -20.796875 15.09375 -20.796875 
L 7.90625 -20.796875 
L 7.90625 -13.28125 
L 13.1875 -13.28125 
Q 16.890625 -13.28125 18.9375 -11.515625 
Q 21 -9.765625 23.484375 -3.21875 
L 25.09375 0.875 
L 2.984375 54.6875 
L 12.5 54.6875 
L 29.59375 11.921875 
L 46.6875 54.6875 
L 56.203125 54.6875 
z
" id="DejaVuSans-121"/>
      <path d="M 19.671875 64.796875 
L 19.671875 37.40625 
L 32.078125 37.40625 
Q 38.96875 37.40625 42.71875 40.96875 
Q 46.484375 44.53125 46.484375 51.125 
Q 46.484375 57.671875 42.71875 61.234375 
Q 38.96875 64.796875 32.078125 64.796875 
z
M 9.8125 72.90625 
L 32.078125 72.90625 
Q 44.34375 72.90625 50.609375 67.359375 
Q 56.890625 61.8125 56.890625 51.125 
Q 56.890625 40.328125 50.609375 34.8125 
Q 44.34375 29.296875 32.078125 29.296875 
L 19.671875 29.296875 
L 19.671875 0 
L 9.8125 0 
z
" id="DejaVuSans-80"/>
      <path d="M 54.890625 33.015625 
L 54.890625 0 
L 45.90625 0 
L 45.90625 32.71875 
Q 45.90625 40.484375 42.875 44.328125 
Q 39.84375 48.1875 33.796875 48.1875 
Q 26.515625 48.1875 22.3125 43.546875 
Q 18.109375 38.921875 18.109375 30.90625 
L 18.109375 0 
L 9.078125 0 
L 9.078125 75.984375 
L 18.109375 75.984375 
L 18.109375 46.1875 
Q 21.34375 51.125 25.703125 53.5625 
Q 30.078125 56 35.796875 56 
Q 45.21875 56 50.046875 50.171875 
Q 54.890625 44.34375 54.890625 33.015625 
z
" id="DejaVuSans-104"/>
      <path d="M 34.1875 63.1875 
L 20.796875 26.90625 
L 47.609375 26.90625 
z
M 28.609375 72.90625 
L 39.796875 72.90625 
L 67.578125 0 
L 57.328125 0 
L 50.6875 18.703125 
L 17.828125 18.703125 
L 11.1875 0 
L 0.78125 0 
z
" id="DejaVuSans-65"/>
     </defs>
     <g transform="translate(162.635938 210.729688)scale(0.1 -0.1)">
      <use xlink:href="#DejaVuSans-111"/>
      <use x="61.181641" xlink:href="#DejaVuSans-102"/>
      <use x="96.386719" xlink:href="#DejaVuSans-102"/>
      <use x="131.591797" xlink:href="#DejaVuSans-95"/>
      <use x="181.591797" xlink:href="#DejaVuSans-101"/>
      <use x="243.115234" xlink:href="#DejaVuSans-110"/>
      <use x="306.494141" xlink:href="#DejaVuSans-100"/>
      <use x="369.970703" xlink:href="#DejaVuSans-112"/>
      <use x="433.447266" xlink:href="#DejaVuSans-111"/>
      <use x="494.628906" xlink:href="#DejaVuSans-119"/>
      <use x="576.416016" xlink:href="#DejaVuSans-101"/>
      <use x="637.939453" xlink:href="#DejaVuSans-114"/>
      <use x="679.052734" xlink:href="#DejaVuSans-102"/>
      <use x="714.257812" xlink:href="#DejaVuSans-97"/>
      <use x="775.537109" xlink:href="#DejaVuSans-99"/>
      <use x="830.517578" xlink:href="#DejaVuSans-116"/>
      <use x="869.726562" xlink:href="#DejaVuSans-111"/>
      <use x="930.908203" xlink:href="#DejaVuSans-114"/>
      <use x="972.021484" xlink:href="#DejaVuSans-121"/>
      <use x="1031.201172" xlink:href="#DejaVuSans-95"/>
      <use x="1081.201172" xlink:href="#DejaVuSans-112"/>
      <use x="1144.677734" xlink:href="#DejaVuSans-97"/>
      <use x="1205.957031" xlink:href="#DejaVuSans-110"/>
      <use x="1269.335938" xlink:href="#DejaVuSans-100"/>
      <use x="1332.8125" xlink:href="#DejaVuSans-97"/>
      <use x="1394.091797" xlink:href="#DejaVuSans-112"/>
      <use x="1457.568359" xlink:href="#DejaVuSans-111"/>
      <use x="1518.75" xlink:href="#DejaVuSans-119"/>
      <use x="1600.537109" xlink:href="#DejaVuSans-101"/>
      <use x="1662.060547" xlink:href="#DejaVuSans-114"/>
      <use x="1703.173828" xlink:href="#DejaVuSans-95"/>
      <use x="1753.173828" xlink:href="#DejaVuSans-80"/>
      <use x="1813.476562" xlink:href="#DejaVuSans-104"/>
      <use x="1876.855469" xlink:href="#DejaVuSans-97"/>
      <use x="1938.134766" xlink:href="#DejaVuSans-115"/>
      <use x="1990.234375" xlink:href="#DejaVuSans-101"/>
      <use x="2051.757812" xlink:href="#DejaVuSans-95"/>
      <use x="2101.757812" xlink:href="#DejaVuSans-65"/>
     </g>
    </g>
    <g id="line2d_17">
     <path d="M 134.635938 222.185937 
L 154.635938 222.185937 
" style="fill:none;stroke:#ffff00;stroke-linecap:square;stroke-width:1.5;"/>
    </g>
    <g id="line2d_18"/>
    <g id="text_9">
     <!-- off_endpowerfactory_pandapower_Phase_B -->
     <g transform="translate(162.635938 225.685937)scale(0.1 -0.1)">
      <use xlink:href="#DejaVuSans-111"/>
      <use x="61.181641" xlink:href="#DejaVuSans-102"/>
      <use x="96.386719" xlink:href="#DejaVuSans-102"/>
      <use x="131.591797" xlink:href="#DejaVuSans-95"/>
      <use x="181.591797" xlink:href="#DejaVuSans-101"/>
      <use x="243.115234" xlink:href="#DejaVuSans-110"/>
      <use x="306.494141" xlink:href="#DejaVuSans-100"/>
      <use x="369.970703" xlink:href="#DejaVuSans-112"/>
      <use x="433.447266" xlink:href="#DejaVuSans-111"/>
      <use x="494.628906" xlink:href="#DejaVuSans-119"/>
      <use x="576.416016" xlink:href="#DejaVuSans-101"/>
      <use x="637.939453" xlink:href="#DejaVuSans-114"/>
      <use x="679.052734" xlink:href="#DejaVuSans-102"/>
      <use x="714.257812" xlink:href="#DejaVuSans-97"/>
      <use x="775.537109" xlink:href="#DejaVuSans-99"/>
      <use x="830.517578" xlink:href="#DejaVuSans-116"/>
      <use x="869.726562" xlink:href="#DejaVuSans-111"/>
      <use x="930.908203" xlink:href="#DejaVuSans-114"/>
      <use x="972.021484" xlink:href="#DejaVuSans-121"/>
      <use x="1031.201172" xlink:href="#DejaVuSans-95"/>
      <use x="1081.201172" xlink:href="#DejaVuSans-112"/>
      <use x="1144.677734" xlink:href="#DejaVuSans-97"/>
      <use x="1205.957031" xlink:href="#DejaVuSans-110"/>
      <use x="1269.335938" xlink:href="#DejaVuSans-100"/>
      <use x="1332.8125" xlink:href="#DejaVuSans-97"/>
      <use x="1394.091797" xlink:href="#DejaVuSans-112"/>
      <use x="1457.568359" xlink:href="#DejaVuSans-111"/>
      <use x="1518.75" xlink:href="#DejaVuSans-119"/>
      <use x="1600.537109" xlink:href="#DejaVuSans-101"/>
      <use x="1662.060547" xlink:href="#DejaVuSans-114"/>
      <use x="1703.173828" xlink:href="#DejaVuSans-95"/>
      <use x="1753.173828" xlink:href="#DejaVuSans-80"/>
      <use x="1813.476562" xlink:href="#DejaVuSans-104"/>
      <use x="1876.855469" xlink:href="#DejaVuSans-97"/>
      <use x="1938.134766" xlink:href="#DejaVuSans-115"/>
      <use x="1990.234375" xlink:href="#DejaVuSans-101"/>
      <use x="2051.757812" xlink:href="#DejaVuSans-95"/>
      <use x="2101.757812" xlink:href="#DejaVuSans-66"/>
     </g>
    </g>
    <g id="line2d_19">
     <path d="M 134.635938 237.142188 
L 154.635938 237.142188 
" style="fill:none;stroke:#0000ff;stroke-linecap:square;stroke-width:1.5;"/>
    </g>
    <g id="line2d_20"/>
    <g id="text_10">
     <!-- off_endpowerfactory_pandapower_Phase_C -->
     <defs>
      <path d="M 64.40625 67.28125 
L 64.40625 56.890625 
Q 59.421875 61.53125 53.78125 63.8125 
Q 48.140625 66.109375 41.796875 66.109375 
Q 29.296875 66.109375 22.65625 58.46875 
Q 16.015625 50.828125 16.015625 36.375 
Q 16.015625 21.96875 22.65625 14.328125 
Q 29.296875 6.6875 41.796875 6.6875 
Q 48.140625 6.6875 53.78125 8.984375 
Q 59.421875 11.28125 64.40625 15.921875 
L 64.40625 5.609375 
Q 59.234375 2.09375 53.4375 0.328125 
Q 47.65625 -1.421875 41.21875 -1.421875 
Q 24.65625 -1.421875 15.125 8.703125 
Q 5.609375 18.84375 5.609375 36.375 
Q 5.609375 53.953125 15.125 64.078125 
Q 24.65625 74.21875 41.21875 74.21875 
Q 47.75 74.21875 53.53125 72.484375 
Q 59.328125 70.75 64.40625 67.28125 
z
" id="DejaVuSans-67"/>
     </defs>
     <g transform="translate(162.635938 240.642188)scale(0.1 -0.1)">
      <use xlink:href="#DejaVuSans-111"/>
      <use x="61.181641" xlink:href="#DejaVuSans-102"/>
      <use x="96.386719" xlink:href="#DejaVuSans-102"/>
      <use x="131.591797" xlink:href="#DejaVuSans-95"/>
      <use x="181.591797" xlink:href="#DejaVuSans-101"/>
      <use x="243.115234" xlink:href="#DejaVuSans-110"/>
      <use x="306.494141" xlink:href="#DejaVuSans-100"/>
      <use x="369.970703" xlink:href="#DejaVuSans-112"/>
      <use x="433.447266" xlink:href="#DejaVuSans-111"/>
      <use x="494.628906" xlink:href="#DejaVuSans-119"/>
      <use x="576.416016" xlink:href="#DejaVuSans-101"/>
      <use x="637.939453" xlink:href="#DejaVuSans-114"/>
      <use x="679.052734" xlink:href="#DejaVuSans-102"/>
      <use x="714.257812" xlink:href="#DejaVuSans-97"/>
      <use x="775.537109" xlink:href="#DejaVuSans-99"/>
      <use x="830.517578" xlink:href="#DejaVuSans-116"/>
      <use x="869.726562" xlink:href="#DejaVuSans-111"/>
      <use x="930.908203" xlink:href="#DejaVuSans-114"/>
      <use x="972.021484" xlink:href="#DejaVuSans-121"/>
      <use x="1031.201172" xlink:href="#DejaVuSans-95"/>
      <use x="1081.201172" xlink:href="#DejaVuSans-112"/>
      <use x="1144.677734" xlink:href="#DejaVuSans-97"/>
      <use x="1205.957031" xlink:href="#DejaVuSans-110"/>
      <use x="1269.335938" xlink:href="#DejaVuSans-100"/>
      <use x="1332.8125" xlink:href="#DejaVuSans-97"/>
      <use x="1394.091797" xlink:href="#DejaVuSans-112"/>
      <use x="1457.568359" xlink:href="#DejaVuSans-111"/>
      <use x="1518.75" xlink:href="#DejaVuSans-119"/>
      <use x="1600.537109" xlink:href="#DejaVuSans-101"/>
      <use x="1662.060547" xlink:href="#DejaVuSans-114"/>
      <use x="1703.173828" xlink:href="#DejaVuSans-95"/>
      <use x="1753.173828" xlink:href="#DejaVuSans-80"/>
      <use x="1813.476562" xlink:href="#DejaVuSans-104"/>
      <use x="1876.855469" xlink:href="#DejaVuSans-97"/>
      <use x="1938.134766" xlink:href="#DejaVuSans-115"/>
      <use x="1990.234375" xlink:href="#DejaVuSans-101"/>
      <use x="2051.757812" xlink:href="#DejaVuSans-95"/>
      <use x="2101.757812" xlink:href="#DejaVuSans-67"/>
     </g>
    </g>
   </g>
  </g>
 </g>
 <defs>
  <clipPath id="p6e63abb41b">
   <rect height="217.44" width="334.8" x="54" y="34.56"/>
  </clipPath>
 </defs>
</svg>
