<?xml version="1.0" encoding="utf-8" standalone="no"?>
<!DOCTYPE svg PUBLIC "-//W3C//DTD SVG 1.1//EN"
  "http://www.w3.org/Graphics/SVG/1.1/DTD/svg11.dtd">
<!-- Created with matplotlib (https://matplotlib.org/) -->
<svg height="288pt" version="1.1" viewBox="0 0 432 288" width="432pt" xmlns="http://www.w3.org/2000/svg" xmlns:xlink="http://www.w3.org/1999/xlink">
 <defs>
  <style type="text/css">
*{stroke-linecap:butt;stroke-linejoin:round;}
  </style>
 </defs>
 <g id="figure_1">
  <g id="patch_1">
   <path d="M 0 288 
L 432 288 
L 432 0 
L 0 0 
z
" style="fill:#ffffff;"/>
  </g>
  <g id="axes_1">
   <g id="patch_2">
    <path d="M 54 252 
L 388.8 252 
L 388.8 34.56 
L 54 34.56 
z
" style="fill:#ffffff;"/>
   </g>
   <g id="matplotlib.axis_1">
    <g id="xtick_1">
     <g id="line2d_1">
      <defs>
       <path d="M 0 0 
L 0 3.5 
" id="m9e3ff5b959" style="stroke:#000000;stroke-width:0.8;"/>
      </defs>
      <g>
       <use style="stroke:#000000;stroke-width:0.8;" x="69.218182" xlink:href="#m9e3ff5b959" y="252"/>
      </g>
     </g>
    </g>
    <g id="xtick_2">
     <g id="line2d_2">
      <g>
       <use style="stroke:#000000;stroke-width:0.8;" x="136.406623" xlink:href="#m9e3ff5b959" y="252"/>
      </g>
     </g>
    </g>
    <g id="xtick_3">
     <g id="line2d_3">
      <g>
       <use style="stroke:#000000;stroke-width:0.8;" x="203.595063" xlink:href="#m9e3ff5b959" y="252"/>
      </g>
     </g>
    </g>
    <g id="xtick_4">
     <g id="line2d_4">
      <g>
       <use style="stroke:#000000;stroke-width:0.8;" x="270.783504" xlink:href="#m9e3ff5b959" y="252"/>
      </g>
     </g>
    </g>
    <g id="xtick_5">
     <g id="line2d_5">
      <g>
       <use style="stroke:#000000;stroke-width:0.8;" x="337.971945" xlink:href="#m9e3ff5b959" y="252"/>
      </g>
     </g>
    </g>
    <g id="text_1">
     <!-- Bus -->
     <defs>
      <path d="M 19.671875 34.8125 
L 19.671875 8.109375 
L 35.5 8.109375 
Q 43.453125 8.109375 47.28125 11.40625 
Q 51.125 14.703125 51.125 21.484375 
Q 51.125 28.328125 47.28125 31.5625 
Q 43.453125 34.8125 35.5 34.8125 
z
M 19.671875 64.796875 
L 19.671875 42.828125 
L 34.28125 42.828125 
Q 41.5 42.828125 45.03125 45.53125 
Q 48.578125 48.25 48.578125 53.8125 
Q 48.578125 59.328125 45.03125 62.0625 
Q 41.5 64.796875 34.28125 64.796875 
z
M 9.8125 72.90625 
L 35.015625 72.90625 
Q 46.296875 72.90625 52.390625 68.21875 
Q 58.5 63.53125 58.5 54.890625 
Q 58.5 48.1875 55.375 44.234375 
Q 52.25 40.28125 46.1875 39.3125 
Q 53.46875 37.75 57.5 32.78125 
Q 61.53125 27.828125 61.53125 20.40625 
Q 61.53125 10.640625 54.890625 5.3125 
Q 48.25 0 35.984375 0 
L 9.8125 0 
z
" id="DejaVuSans-66"/>
      <path d="M 8.5 21.578125 
L 8.5 54.6875 
L 17.484375 54.6875 
L 17.484375 21.921875 
Q 17.484375 14.15625 20.5 10.265625 
Q 23.53125 6.390625 29.59375 6.390625 
Q 36.859375 6.390625 41.078125 11.03125 
Q 45.3125 15.671875 45.3125 23.6875 
L 45.3125 54.6875 
L 54.296875 54.6875 
L 54.296875 0 
L 45.3125 0 
L 45.3125 8.40625 
Q 42.046875 3.421875 37.71875 1 
Q 33.40625 -1.421875 27.6875 -1.421875 
Q 18.265625 -1.421875 13.375 4.4375 
Q 8.5 10.296875 8.5 21.578125 
z
M 31.109375 56 
z
" id="DejaVuSans-117"/>
      <path d="M 44.28125 53.078125 
L 44.28125 44.578125 
Q 40.484375 46.53125 36.375 47.5 
Q 32.28125 48.484375 27.875 48.484375 
Q 21.1875 48.484375 17.84375 46.4375 
Q 14.5 44.390625 14.5 40.28125 
Q 14.5 37.15625 16.890625 35.375 
Q 19.28125 33.59375 26.515625 31.984375 
L 29.59375 31.296875 
Q 39.15625 29.25 43.1875 25.515625 
Q 47.21875 21.78125 47.21875 15.09375 
Q 47.21875 7.46875 41.1875 3.015625 
Q 35.15625 -1.421875 24.609375 -1.421875 
Q 20.21875 -1.421875 15.453125 -0.5625 
Q 10.6875 0.296875 5.421875 2 
L 5.421875 11.28125 
Q 10.40625 8.6875 15.234375 7.390625 
Q 20.0625 6.109375 24.8125 6.109375 
Q 31.15625 6.109375 34.5625 8.28125 
Q 37.984375 10.453125 37.984375 14.40625 
Q 37.984375 18.0625 35.515625 20.015625 
Q 33.0625 21.96875 24.703125 23.78125 
L 21.578125 24.515625 
Q 13.234375 26.265625 9.515625 29.90625 
Q 5.8125 33.546875 5.8125 39.890625 
Q 5.8125 47.609375 11.28125 51.796875 
Q 16.75 56 26.8125 56 
Q 31.78125 56 36.171875 55.265625 
Q 40.578125 54.546875 44.28125 53.078125 
z
" id="DejaVuSans-115"/>
     </defs>
     <g transform="translate(212.196094 270.598437)scale(0.1 -0.1)">
      <use xlink:href="#DejaVuSans-66"/>
      <use x="68.603516" xlink:href="#DejaVuSans-117"/>
      <use x="131.982422" xlink:href="#DejaVuSans-115"/>
     </g>
    </g>
   </g>
   <g id="matplotlib.axis_2">
    <g id="ytick_1">
     <g id="line2d_6">
      <defs>
       <path d="M 0 0 
L -3.5 0 
" id="m4835562862" style="stroke:#000000;stroke-width:0.8;"/>
      </defs>
      <g>
       <use style="stroke:#000000;stroke-width:0.8;" x="54" xlink:href="#m4835562862" y="242.444689"/>
      </g>
     </g>
     <g id="text_2">
      <!-- 0.00000 -->
      <defs>
       <path d="M 31.78125 66.40625 
Q 24.171875 66.40625 20.328125 58.90625 
Q 16.5 51.421875 16.5 36.375 
Q 16.5 21.390625 20.328125 13.890625 
Q 24.171875 6.390625 31.78125 6.390625 
Q 39.453125 6.390625 43.28125 13.890625 
Q 47.125 21.390625 47.125 36.375 
Q 47.125 51.421875 43.28125 58.90625 
Q 39.453125 66.40625 31.78125 66.40625 
z
M 31.78125 74.21875 
Q 44.046875 74.21875 50.515625 64.515625 
Q 56.984375 54.828125 56.984375 36.375 
Q 56.984375 17.96875 50.515625 8.265625 
Q 44.046875 -1.421875 31.78125 -1.421875 
Q 19.53125 -1.421875 13.0625 8.265625 
Q 6.59375 17.96875 6.59375 36.375 
Q 6.59375 54.828125 13.0625 64.515625 
Q 19.53125 74.21875 31.78125 74.21875 
z
" id="DejaVuSans-48"/>
       <path d="M 10.6875 12.40625 
L 21 12.40625 
L 21 0 
L 10.6875 0 
z
" id="DejaVuSans-46"/>
      </defs>
      <g transform="translate(5.646875 246.243908)scale(0.1 -0.1)">
       <use xlink:href="#DejaVuSans-48"/>
       <use x="63.623047" xlink:href="#DejaVuSans-46"/>
       <use x="95.410156" xlink:href="#DejaVuSans-48"/>
       <use x="159.033203" xlink:href="#DejaVuSans-48"/>
       <use x="222.65625" xlink:href="#DejaVuSans-48"/>
       <use x="286.279297" xlink:href="#DejaVuSans-48"/>
       <use x="349.902344" xlink:href="#DejaVuSans-48"/>
      </g>
     </g>
    </g>
    <g id="ytick_2">
     <g id="line2d_7">
      <g>
       <use style="stroke:#000000;stroke-width:0.8;" x="54" xlink:href="#m4835562862" y="202.211425"/>
      </g>
     </g>
     <g id="text_3">
      <!-- 0.00002 -->
      <defs>
       <path d="M 19.1875 8.296875 
L 53.609375 8.296875 
L 53.609375 0 
L 7.328125 0 
L 7.328125 8.296875 
Q 12.9375 14.109375 22.625 23.890625 
Q 32.328125 33.6875 34.8125 36.53125 
Q 39.546875 41.84375 41.421875 45.53125 
Q 43.3125 49.21875 43.3125 52.78125 
Q 43.3125 58.59375 39.234375 62.25 
Q 35.15625 65.921875 28.609375 65.921875 
Q 23.96875 65.921875 18.8125 64.3125 
Q 13.671875 62.703125 7.8125 59.421875 
L 7.8125 69.390625 
Q 13.765625 71.78125 18.9375 73 
Q 24.125 74.21875 28.421875 74.21875 
Q 39.75 74.21875 46.484375 68.546875 
Q 53.21875 62.890625 53.21875 53.421875 
Q 53.21875 48.921875 51.53125 44.890625 
Q 49.859375 40.875 45.40625 35.40625 
Q 44.1875 33.984375 37.640625 27.21875 
Q 31.109375 20.453125 19.1875 8.296875 
z
" id="DejaVuSans-50"/>
      </defs>
      <g transform="translate(5.646875 206.010644)scale(0.1 -0.1)">
       <use xlink:href="#DejaVuSans-48"/>
       <use x="63.623047" xlink:href="#DejaVuSans-46"/>
       <use x="95.410156" xlink:href="#DejaVuSans-48"/>
       <use x="159.033203" xlink:href="#DejaVuSans-48"/>
       <use x="222.65625" xlink:href="#DejaVuSans-48"/>
       <use x="286.279297" xlink:href="#DejaVuSans-48"/>
       <use x="349.902344" xlink:href="#DejaVuSans-50"/>
      </g>
     </g>
    </g>
    <g id="ytick_3">
     <g id="line2d_8">
      <g>
       <use style="stroke:#000000;stroke-width:0.8;" x="54" xlink:href="#m4835562862" y="161.978161"/>
      </g>
     </g>
     <g id="text_4">
      <!-- 0.00004 -->
      <defs>
       <path d="M 37.796875 64.3125 
L 12.890625 25.390625 
L 37.796875 25.390625 
z
M 35.203125 72.90625 
L 47.609375 72.90625 
L 47.609375 25.390625 
L 58.015625 25.390625 
L 58.015625 17.1875 
L 47.609375 17.1875 
L 47.609375 0 
L 37.796875 0 
L 37.796875 17.1875 
L 4.890625 17.1875 
L 4.890625 26.703125 
z
" id="DejaVuSans-52"/>
      </defs>
      <g transform="translate(5.646875 165.77738)scale(0.1 -0.1)">
       <use xlink:href="#DejaVuSans-48"/>
       <use x="63.623047" xlink:href="#DejaVuSans-46"/>
       <use x="95.410156" xlink:href="#DejaVuSans-48"/>
       <use x="159.033203" xlink:href="#DejaVuSans-48"/>
       <use x="222.65625" xlink:href="#DejaVuSans-48"/>
       <use x="286.279297" xlink:href="#DejaVuSans-48"/>
       <use x="349.902344" xlink:href="#DejaVuSans-52"/>
      </g>
     </g>
    </g>
    <g id="ytick_4">
     <g id="line2d_9">
      <g>
       <use style="stroke:#000000;stroke-width:0.8;" x="54" xlink:href="#m4835562862" y="121.744898"/>
      </g>
     </g>
     <g id="text_5">
      <!-- 0.00006 -->
      <defs>
       <path d="M 33.015625 40.375 
Q 26.375 40.375 22.484375 35.828125 
Q 18.609375 31.296875 18.609375 23.390625 
Q 18.609375 15.53125 22.484375 10.953125 
Q 26.375 6.390625 33.015625 6.390625 
Q 39.65625 6.390625 43.53125 10.953125 
Q 47.40625 15.53125 47.40625 23.390625 
Q 47.40625 31.296875 43.53125 35.828125 
Q 39.65625 40.375 33.015625 40.375 
z
M 52.59375 71.296875 
L 52.59375 62.3125 
Q 48.875 64.0625 45.09375 64.984375 
Q 41.3125 65.921875 37.59375 65.921875 
Q 27.828125 65.921875 22.671875 59.328125 
Q 17.53125 52.734375 16.796875 39.40625 
Q 19.671875 43.65625 24.015625 45.921875 
Q 28.375 48.1875 33.59375 48.1875 
Q 44.578125 48.1875 50.953125 41.515625 
Q 57.328125 34.859375 57.328125 23.390625 
Q 57.328125 12.15625 50.6875 5.359375 
Q 44.046875 -1.421875 33.015625 -1.421875 
Q 20.359375 -1.421875 13.671875 8.265625 
Q 6.984375 17.96875 6.984375 36.375 
Q 6.984375 53.65625 15.1875 63.9375 
Q 23.390625 74.21875 37.203125 74.21875 
Q 40.921875 74.21875 44.703125 73.484375 
Q 48.484375 72.75 52.59375 71.296875 
z
" id="DejaVuSans-54"/>
      </defs>
      <g transform="translate(5.646875 125.544116)scale(0.1 -0.1)">
       <use xlink:href="#DejaVuSans-48"/>
       <use x="63.623047" xlink:href="#DejaVuSans-46"/>
       <use x="95.410156" xlink:href="#DejaVuSans-48"/>
       <use x="159.033203" xlink:href="#DejaVuSans-48"/>
       <use x="222.65625" xlink:href="#DejaVuSans-48"/>
       <use x="286.279297" xlink:href="#DejaVuSans-48"/>
       <use x="349.902344" xlink:href="#DejaVuSans-54"/>
      </g>
     </g>
    </g>
    <g id="ytick_5">
     <g id="line2d_10">
      <g>
       <use style="stroke:#000000;stroke-width:0.8;" x="54" xlink:href="#m4835562862" y="81.511634"/>
      </g>
     </g>
     <g id="text_6">
      <!-- 0.00008 -->
      <defs>
       <path d="M 31.78125 34.625 
Q 24.75 34.625 20.71875 30.859375 
Q 16.703125 27.09375 16.703125 20.515625 
Q 16.703125 13.921875 20.71875 10.15625 
Q 24.75 6.390625 31.78125 6.390625 
Q 38.8125 6.390625 42.859375 10.171875 
Q 46.921875 13.96875 46.921875 20.515625 
Q 46.921875 27.09375 42.890625 30.859375 
Q 38.875 34.625 31.78125 34.625 
z
M 21.921875 38.8125 
Q 15.578125 40.375 12.03125 44.71875 
Q 8.5 49.078125 8.5 55.328125 
Q 8.5 64.0625 14.71875 69.140625 
Q 20.953125 74.21875 31.78125 74.21875 
Q 42.671875 74.21875 48.875 69.140625 
Q 55.078125 64.0625 55.078125 55.328125 
Q 55.078125 49.078125 51.53125 44.71875 
Q 48 40.375 41.703125 38.8125 
Q 48.828125 37.15625 52.796875 32.3125 
Q 56.78125 27.484375 56.78125 20.515625 
Q 56.78125 9.90625 50.3125 4.234375 
Q 43.84375 -1.421875 31.78125 -1.421875 
Q 19.734375 -1.421875 13.25 4.234375 
Q 6.78125 9.90625 6.78125 20.515625 
Q 6.78125 27.484375 10.78125 32.3125 
Q 14.796875 37.15625 21.921875 38.8125 
z
M 18.3125 54.390625 
Q 18.3125 48.734375 21.84375 45.5625 
Q 25.390625 42.390625 31.78125 42.390625 
Q 38.140625 42.390625 41.71875 45.5625 
Q 45.3125 48.734375 45.3125 54.390625 
Q 45.3125 60.0625 41.71875 63.234375 
Q 38.140625 66.40625 31.78125 66.40625 
Q 25.390625 66.40625 21.84375 63.234375 
Q 18.3125 60.0625 18.3125 54.390625 
z
" id="DejaVuSans-56"/>
      </defs>
      <g transform="translate(5.646875 85.310853)scale(0.1 -0.1)">
       <use xlink:href="#DejaVuSans-48"/>
       <use x="63.623047" xlink:href="#DejaVuSans-46"/>
       <use x="95.410156" xlink:href="#DejaVuSans-48"/>
       <use x="159.033203" xlink:href="#DejaVuSans-48"/>
       <use x="222.65625" xlink:href="#DejaVuSans-48"/>
       <use x="286.279297" xlink:href="#DejaVuSans-48"/>
       <use x="349.902344" xlink:href="#DejaVuSans-56"/>
      </g>
     </g>
    </g>
    <g id="ytick_6">
     <g id="line2d_11">
      <g>
       <use style="stroke:#000000;stroke-width:0.8;" x="54" xlink:href="#m4835562862" y="41.27837"/>
      </g>
     </g>
     <g id="text_7">
      <!-- 0.00010 -->
      <defs>
       <path d="M 12.40625 8.296875 
L 28.515625 8.296875 
L 28.515625 63.921875 
L 10.984375 60.40625 
L 10.984375 69.390625 
L 28.421875 72.90625 
L 38.28125 72.90625 
L 38.28125 8.296875 
L 54.390625 8.296875 
L 54.390625 0 
L 12.40625 0 
z
" id="DejaVuSans-49"/>
      </defs>
      <g transform="translate(5.646875 45.077589)scale(0.1 -0.1)">
       <use xlink:href="#DejaVuSans-48"/>
       <use x="63.623047" xlink:href="#DejaVuSans-46"/>
       <use x="95.410156" xlink:href="#DejaVuSans-48"/>
       <use x="159.033203" xlink:href="#DejaVuSans-48"/>
       <use x="222.65625" xlink:href="#DejaVuSans-48"/>
       <use x="286.279297" xlink:href="#DejaVuSans-49"/>
       <use x="349.902344" xlink:href="#DejaVuSans-48"/>
      </g>
     </g>
    </g>
   </g>
   <g id="line2d_12">
    <path clip-path="url(#p49cdce7107)" d="M 69.218182 237.570895 
L 69.554124 166.036572 
L 69.890066 146.401563 
L 71.233835 138.084636 
L 71.569777 158.885552 
L 72.241662 144.083623 
L 72.913546 133.78019 
L 73.249488 129.646965 
L 73.58543 127.105418 
L 73.921373 120.778124 
L 74.257315 69.521934 
L 74.593257 69.520803 
L 74.929199 208.536154 
L 75.265141 69.52031 
L 75.601084 204.259726 
L 75.937026 69.519818 
L 76.272968 199.457811 
L 76.60891 69.519393 
L 76.944852 191.63935 
L 77.280795 69.518902 
L 77.616737 177.415723 
L 77.952679 69.518396 
L 78.624564 224.155407 
L 78.960506 69.517931 
L 79.296448 154.545901 
L 79.63239 153.497568 
L 79.968332 183.04475 
L 80.304275 69.516762 
L 80.640217 149.349914 
L 80.976159 153.385228 
L 81.312101 183.186922 
L 81.648043 229.39962 
L 81.983986 69.515744 
L 82.319928 153.223717 
L 82.65587 183.192176 
L 82.991812 183.208324 
L 83.327754 166.174804 
L 83.663697 229.399745 
L 83.999639 69.51551 
L 84.335581 153.016604 
L 84.671523 183.194572 
L 85.007465 183.26049 
L 85.343408 98.683636 
L 85.67935 229.399803 
L 86.015292 69.515202 
L 86.351234 152.512229 
L 86.687176 183.19714 
L 87.023119 88.953063 
L 87.359061 98.683368 
L 87.695003 229.399865 
L 88.030945 69.514688 
L 88.366887 152.080424 
L 88.70283 183.199615 
L 89.038772 238.846747 
L 89.374714 98.683345 
L 89.710656 229.399917 
L 90.046598 69.514273 
L 90.382541 150.010658 
L 90.718483 183.201113 
L 91.054425 238.312505 
L 91.390367 219.481605 
L 91.726309 98.683322 
L 92.062252 229.399964 
L 92.398194 69.513874 
L 92.734136 142.695282 
L 93.070078 183.204087 
L 93.40602 146.98432 
L 93.741963 211.973911 
L 94.077905 214.007077 
L 94.413847 98.68328 
L 94.749789 229.400074 
L 95.085731 69.512216 
L 95.421674 183.219324 
L 95.757616 115.149812 
L 96.093558 98.683261 
L 96.4295 229.400406 
L 96.765443 69.510311 
L 97.101385 183.277369 
L 97.437327 108.20251 
L 97.773269 98.683248 
L 98.109211 229.401014 
L 98.445154 69.509318 
L 98.781096 94.114539 
L 99.117038 98.683241 
L 99.45298 229.401151 
L 99.788922 69.50902 
L 100.124865 202.894075 
L 100.460807 229.401176 
L 100.796749 69.508946 
L 101.132691 210.616102 
L 101.468633 229.401207 
L 101.804576 69.508887 
L 102.140518 215.715903 
L 102.47646 229.401219 
L 102.812402 69.508792 
L 103.148344 222.757274 
L 103.484287 229.402802 
L 103.820229 69.508639 
L 104.156171 222.742957 
L 104.492113 227.461409 
L 104.828055 229.402866 
L 105.163998 222.725631 
L 105.49994 230.128876 
L 105.835882 229.402987 
L 106.171824 222.705544 
L 106.507766 149.509899 
L 106.843709 229.405918 
L 107.179651 222.674911 
L 107.515593 138.966132 
L 107.851535 229.40829 
L 108.187477 222.635518 
L 108.52342 139.012597 
L 108.859362 106.935078 
L 109.195304 229.408489 
L 109.531246 222.60723 
L 109.867188 139.011145 
L 110.203131 139.035316 
L 110.539073 234.551534 
L 111.210957 222.567251 
L 111.546899 139.009978 
L 111.882842 139.142076 
L 112.218784 224.361724 
L 112.554726 229.408715 
L 112.890668 222.523986 
L 113.22661 139.009217 
L 113.562553 131.875184 
L 113.898495 141.38144 
L 114.234437 216.633149 
L 114.570379 229.408972 
L 114.906321 222.483173 
L 115.242264 139.008137 
L 115.578206 131.249414 
L 115.914148 143.047472 
L 116.25009 207.909155 
L 116.586033 229.409129 
L 116.921975 222.416055 
L 117.257917 139.006978 
L 117.593859 130.635464 
L 117.929801 144.163215 
L 118.265744 199.704434 
L 118.601686 229.40915 
L 118.937628 222.096847 
L 119.27357 139.006049 
L 119.609512 130.139765 
L 119.945455 144.815493 
L 120.281397 144.299544 
L 120.953281 229.409156 
L 121.289223 222.027293 
L 121.625166 139.005116 
L 121.961108 129.395821 
L 122.29705 146.545486 
L 122.632992 144.30789 
L 123.304877 229.409161 
L 123.640819 221.854301 
L 123.976761 222.10966 
L 124.312703 139.004358 
L 124.648645 128.498987 
L 124.984588 147.146448 
L 125.32053 144.315559 
L 125.656472 171.726903 
L 125.992414 229.409167 
L 126.328356 221.821277 
L 126.664299 222.218926 
L 127.000241 139.003807 
L 127.336183 127.821502 
L 127.672125 147.145654 
L 128.008067 147.287625 
L 128.34401 144.318763 
L 128.679952 162.887969 
L 129.015894 221.752438 
L 129.351836 222.453615 
L 129.687778 222.133108 
L 130.023721 139.003329 
L 130.359663 127.037597 
L 130.695605 147.145542 
L 131.031547 147.302942 
L 131.367489 144.325708 
L 131.703432 156.326613 
L 132.039374 223.377123 
L 132.375316 221.77638 
L 132.711258 139.003001 
L 133.0472 126.300584 
L 133.383143 147.145487 
L 133.719085 147.145499 
L 134.055027 147.317826 
L 134.390969 144.343498 
L 134.726911 150.427674 
L 135.062854 225.025904 
L 135.398796 221.753623 
L 135.734738 221.749063 
L 136.07068 139.002695 
L 136.406623 125.507666 
L 136.742565 147.145475 
L 137.078507 147.145475 
L 137.414449 147.329786 
L 137.750391 144.353994 
L 138.086334 143.09955 
L 138.422276 232.451003 
L 138.758218 224.756689 
L 139.09416 221.695321 
L 139.430102 221.745177 
L 139.766045 139.002218 
L 140.101987 124.295631 
L 140.437929 147.145455 
L 140.773871 147.339356 
L 141.109813 144.361387 
L 141.445756 129.576777 
L 141.781698 228.136677 
L 142.11764 224.270757 
L 142.453582 221.742024 
L 142.789524 139.00186 
L 143.125467 120.985961 
L 143.461409 147.145435 
L 143.797351 147.359679 
L 144.133293 144.375687 
L 144.469235 117.787116 
L 144.805178 217.661328 
L 145.14112 224.097235 
L 145.477062 221.739487 
L 145.813004 120.703791 
L 146.148946 147.14541 
L 146.484889 147.375757 
L 146.820831 144.382844 
L 147.156773 109.767273 
L 147.492715 223.756228 
L 147.828657 224.097249 
L 148.1646 221.735591 
L 148.500542 120.57347 
L 148.836484 147.14539 
L 149.172426 147.386958 
L 149.508368 144.387954 
L 150.180253 223.70644 
L 150.516195 221.730996 
L 150.852137 120.434087 
L 151.188079 147.145376 
L 151.524022 147.398183 
L 151.859964 144.44673 
L 152.531848 223.623761 
L 152.86779 223.63548 
L 153.203733 221.723894 
L 153.539675 120.300911 
L 153.875617 147.145366 
L 154.211559 147.414677 
L 154.547502 144.464157 
L 154.883444 198.530714 
L 155.219386 197.425268 
L 155.555328 221.697746 
L 155.89127 120.152559 
L 156.227213 147.145356 
L 156.563155 147.476986 
L 156.899097 144.468077 
L 157.235039 199.632115 
L 157.570981 223.159889 
L 157.906924 221.569706 
L 158.242866 119.846366 
L 158.578808 147.145347 
L 158.91475 147.491593 
L 159.250692 144.520507 
L 159.586635 144.469687 
L 159.922577 200.138426 
L 160.258519 223.104575 
L 160.594461 232.024404 
L 160.930403 119.527493 
L 161.266346 147.14534 
L 161.602288 147.498314 
L 161.93823 144.572995 
L 162.274172 144.471597 
L 162.610114 200.739724 
L 162.946057 223.100507 
L 163.281999 220.731257 
L 163.617941 118.315033 
L 163.953883 147.145326 
L 164.289825 147.502751 
L 164.625768 144.473341 
L 164.96171 201.667373 
L 165.297652 223.097114 
L 165.633594 206.356362 
L 165.969536 217.674014 
L 166.305479 111.878429 
L 166.641421 147.145316 
L 166.977363 147.523212 
L 167.313305 147.50409 
L 167.649247 144.475128 
L 167.98519 202.493901 
L 168.321132 223.092239 
L 168.657074 199.739963 
L 168.993016 204.861369 
L 169.328958 147.532673 
L 169.664901 147.505049 
L 170.000843 144.47707 
L 170.336785 203.136451 
L 170.672727 223.070094 
L 171.008669 156.517607 
L 171.344612 202.03315 
L 171.680554 147.54879 
L 172.016496 147.506179 
L 172.352438 144.488456 
L 172.68838 203.936194 
L 173.024323 223.065782 
L 173.360265 153.289271 
L 173.696207 201.0934 
L 174.032149 147.579927 
L 174.368092 147.508366 
L 174.704034 144.537134 
L 175.039976 204.763289 
L 175.375918 223.062554 
L 175.71186 150.647393 
L 176.047803 115.291883 
L 176.383745 200.602923 
L 176.719687 147.672194 
L 177.055629 147.516854 
L 177.391571 205.738806 
L 177.727514 223.058795 
L 178.063456 137.041444 
L 178.399398 186.665891 
L 178.73534 200.183063 
L 179.071282 147.546164 
L 179.407225 206.294671 
L 179.743167 223.055024 
L 180.079109 132.291529 
L 180.750993 223.866825 
L 181.086936 199.705553 
L 181.422878 208.805626 
L 181.75882 223.021544 
L 182.094762 121.954038 
L 182.430704 186.496024 
L 182.766647 223.777039 
L 183.102589 231.027208 
L 183.438531 199.329362 
L 184.110415 222.952372 
L 184.446358 117.83941 
L 184.7823 119.903148 
L 185.118242 223.73137 
L 185.454184 237.161492 
L 185.790126 199.013969 
L 186.126069 210.122174 
L 186.462011 111.683167 
L 186.797953 119.617603 
L 187.133895 223.727071 
L 187.469837 241.476344 
L 187.80578 198.729388 
L 188.141722 210.377861 
L 188.477664 119.307502 
L 188.813606 223.725276 
L 189.149548 237.961187 
L 189.485491 198.493861 
L 189.821433 210.564917 
L 190.157375 119.035897 
L 190.493317 223.723994 
L 190.829259 234.545142 
L 191.165202 198.220639 
L 191.501144 210.659897 
L 191.837086 118.747338 
L 192.173028 223.722669 
L 192.50897 229.299492 
L 192.844913 197.920352 
L 193.180855 210.799525 
L 193.516797 118.335532 
L 193.852739 223.721088 
L 194.188682 224.07025 
L 194.524624 196.283311 
L 194.860566 211.033566 
L 195.196508 117.834943 
L 195.53245 223.719072 
L 195.868393 218.20294 
L 196.204335 183.184088 
L 196.876219 212.077398 
L 197.212161 114.732364 
L 197.548104 223.717247 
L 197.884046 213.957193 
L 198.219988 170.638145 
L 198.55593 196.411448 
L 198.891872 196.293664 
L 199.227815 215.914158 
L 199.563757 179.606104 
L 199.899699 223.715788 
L 200.235641 208.896707 
L 200.571583 170.079641 
L 200.907526 196.453507 
L 201.243468 196.273141 
L 201.57941 223.713256 
L 201.915352 201.554097 
L 202.251294 170.15419 
L 202.587237 158.969487 
L 202.923179 196.457838 
L 203.259121 196.271738 
L 203.595063 223.704327 
L 204.266948 170.161077 
L 204.60289 153.609515 
L 204.938832 196.460895 
L 205.274774 196.271165 
L 205.610716 223.649172 
L 205.946659 190.859345 
L 206.282601 170.165026 
L 206.618543 137.442689 
L 206.954485 153.609223 
L 207.290427 196.464097 
L 207.62637 196.270805 
L 207.962312 185.720095 
L 208.298254 170.167729 
L 208.634196 169.305733 
L 208.970138 153.609153 
L 209.306081 196.477698 
L 209.642023 196.270244 
L 209.977965 179.539438 
L 210.313907 170.17217 
L 210.649849 174.124016 
L 210.985792 153.609107 
L 211.321734 196.481055 
L 211.657676 196.264337 
L 211.993618 169.188194 
L 212.329561 179.539328 
L 212.665503 170.187053 
L 213.001445 175.355502 
L 213.337387 153.609052 
L 213.673329 196.484293 
L 214.009272 196.262416 
L 214.345214 134.274959 
L 214.681156 169.187823 
L 215.017098 170.203757 
L 215.35304 176.000654 
L 215.688983 153.609007 
L 216.024925 196.487549 
L 216.360867 196.261824 
L 216.696809 198.828222 
L 217.032751 134.274434 
L 217.368694 170.213226 
L 217.704636 176.535472 
L 218.040578 153.608962 
L 218.37652 196.491323 
L 218.712462 196.260883 
L 219.048405 234.260538 
L 219.720289 170.222191 
L 220.056231 176.968908 
L 220.392173 153.608918 
L 220.728116 196.504496 
L 221.064058 196.260151 
L 221.4 239.878912 
L 221.735942 234.260652 
L 222.071884 170.230812 
L 222.407827 177.631438 
L 222.743769 153.60889 
L 223.079711 196.569365 
L 223.415653 196.259428 
L 223.751595 214.835904 
L 224.087538 239.878573 
L 224.42348 233.440579 
L 224.759422 170.245077 
L 225.095364 178.228694 
L 225.431306 153.608871 
L 225.767249 196.258841 
L 226.103191 187.013071 
L 226.439133 214.835528 
L 226.775075 214.835848 
L 227.111017 232.500424 
L 227.44696 170.25509 
L 227.782902 178.797129 
L 228.118844 153.608849 
L 228.454786 196.256375 
L 228.790728 176.817696 
L 229.126671 187.012933 
L 229.462613 231.987827 
L 229.798555 170.262179 
L 230.134497 179.437499 
L 230.470439 153.608823 
L 230.806382 196.256258 
L 231.142324 168.587771 
L 231.478266 176.817405 
L 231.814208 135.786638 
L 232.150151 231.640613 
L 232.486093 170.265592 
L 232.822035 180.113929 
L 233.157977 153.608782 
L 233.493919 196.256179 
L 233.829862 156.793191 
L 234.165804 168.587353 
L 234.501746 134.599014 
L 234.837688 127.895802 
L 235.17363 231.113264 
L 235.509573 170.267771 
L 235.845515 181.592913 
L 236.181457 153.608736 
L 236.517399 196.256107 
L 236.853341 149.59587 
L 237.189284 156.792936 
L 237.525226 134.097071 
L 237.861168 122.846967 
L 238.19711 230.313031 
L 238.533052 170.269255 
L 238.868995 215.136457 
L 239.204937 153.608708 
L 239.540879 196.25606 
L 239.876821 148.356506 
L 240.212763 149.595826 
L 240.548706 133.802162 
L 240.884648 229.745342 
L 241.22059 170.27134 
L 241.556532 215.085905 
L 241.892474 220.462559 
L 242.228417 153.608686 
L 242.900301 148.356388 
L 243.236243 128.730583 
L 243.572185 133.530776 
L 243.908128 229.357525 
L 244.24407 170.272944 
L 244.580012 215.040568 
L 244.915954 223.335815 
L 245.251896 153.608671 
L 245.923781 150.642943 
L 246.259723 117.133651 
L 246.595665 133.289013 
L 246.931607 229.0511 
L 247.26755 170.28447 
L 247.603492 223.764915 
L 247.939434 153.60866 
L 248.275376 154.618454 
L 248.611318 152.326241 
L 248.947261 107.945207 
L 249.283203 133.03823 
L 249.619145 228.068706 
L 249.955087 170.298509 
L 250.29103 170.362573 
L 250.626972 224.09246 
L 250.962914 153.608651 
L 251.298856 156.240638 
L 251.634798 154.61837 
L 251.970741 104.148614 
L 252.306683 132.281212 
L 252.642625 220.123309 
L 252.978567 170.314339 
L 253.314509 224.398796 
L 253.650452 153.608641 
L 253.986394 160.777622 
L 254.322336 156.240403 
L 254.658278 103.556778 
L 254.99422 187.503012 
L 255.330163 131.518378 
L 255.666105 219.72767 
L 256.002047 170.358132 
L 256.337989 224.725462 
L 256.673931 153.608637 
L 257.009874 164.063189 
L 257.345816 160.777452 
L 257.681758 103.339016 
L 258.0177 193.500576 
L 258.353642 124.39128 
L 258.689585 219.415526 
L 259.025527 225.014519 
L 259.361469 153.608632 
L 259.697411 164.432951 
L 260.033353 164.063151 
L 260.369296 164.157052 
L 260.705238 103.014669 
L 261.04118 219.062669 
L 261.377122 225.310171 
L 261.713064 164.520521 
L 262.049007 164.432942 
L 262.384949 164.168993 
L 262.720891 102.819516 
L 263.056833 218.748643 
L 263.392775 226.836098 
L 263.728718 166.898643 
L 264.06466 164.520279 
L 264.400602 164.52022 
L 264.736544 164.17786 
L 265.072486 102.584056 
L 265.408429 218.387231 
L 265.744371 226.820065 
L 266.080313 230.215853 
L 266.416255 168.565605 
L 266.752197 166.898474 
L 267.08814 164.520118 
L 267.424082 164.186542 
L 267.760024 102.377328 
L 268.095966 218.016693 
L 268.767851 238.522861 
L 269.103793 169.956891 
L 269.439735 168.796851 
L 269.775677 164.520045 
L 270.11162 164.268597 
L 270.447562 101.024669 
L 270.783504 217.571347 
L 271.455388 238.662382 
L 271.791331 218.530912 
L 272.127273 171.198531 
L 272.463215 169.956588 
L 272.799157 169.956592 
L 273.135099 168.977607 
L 273.471042 168.795054 
L 273.806984 164.519962 
L 274.142926 164.307022 
L 274.81481 217.292172 
L 275.486695 238.736753 
L 276.158579 171.195884 
L 276.830464 171.198336 
L 277.166406 169.020574 
L 277.502348 164.519918 
L 277.83829 164.325166 
L 278.174232 216.092477 
L 278.510175 226.817775 
L 278.846117 199.402745 
L 279.182059 193.752773 
L 279.518001 171.19318 
L 279.853943 164.519869 
L 280.189886 164.337343 
L 280.525828 211.035151 
L 280.86177 226.817164 
L 281.197712 199.407816 
L 281.533654 192.457597 
L 281.869597 171.192651 
L 282.205539 164.519832 
L 282.541481 164.356071 
L 282.877423 226.815652 
L 283.213365 199.41134 
L 283.549308 191.814874 
L 283.88525 171.191776 
L 284.221192 164.519798 
L 284.557134 164.392866 
L 284.893076 226.814568 
L 285.229019 199.416284 
L 285.564961 191.108577 
L 285.900903 164.519767 
L 286.236845 164.403098 
L 286.572787 226.813143 
L 286.90873 199.428147 
L 287.244672 190.293623 
L 287.580614 164.519732 
L 287.916556 164.406087 
L 288.252498 226.812249 
L 288.588441 199.437271 
L 288.924383 189.469766 
L 289.260325 164.519693 
L 289.596267 164.407245 
L 289.93221 164.413781 
L 290.268152 226.811415 
L 290.604094 199.44375 
L 290.940036 188.556421 
L 291.275978 164.519602 
L 291.611921 164.408344 
L 291.947863 164.424042 
L 292.283805 226.809965 
L 292.619747 199.450616 
L 292.955689 187.228238 
L 293.291632 164.519553 
L 293.627574 164.409491 
L 293.963516 164.467116 
L 294.299458 226.808497 
L 294.6354 199.456316 
L 294.971343 184.212313 
L 295.307285 185.770738 
L 295.643227 164.519527 
L 295.979169 164.417889 
L 296.315111 164.485598 
L 296.651054 226.807782 
L 296.986996 199.46586 
L 297.322938 182.401295 
L 297.65888 176.5417 
L 297.994822 164.519502 
L 298.330765 164.47982 
L 298.666707 226.806973 
L 299.338591 180.721355 
L 299.674533 169.93571 
L 300.010476 226.806176 
L 300.68236 179.082222 
L 301.018302 170.145989 
L 301.354244 146.901216 
L 301.690187 226.805189 
L 302.026129 177.852793 
L 302.362071 170.155867 
L 302.698013 170.173632 
L 303.033955 147.010925 
L 303.369898 141.756093 
L 303.70584 226.803572 
L 304.041782 175.899811 
L 304.377724 170.158995 
L 304.713666 170.230613 
L 305.049609 147.075328 
L 305.385551 132.186981 
L 305.721493 226.799035 
L 306.057435 172.607089 
L 306.393377 170.16103 
L 306.72932 176.770638 
L 307.065262 132.186862 
L 307.401204 226.792845 
L 307.737146 147.93552 
L 308.409031 185.531455 
L 308.744973 192.225696 
L 309.080915 132.186757 
L 309.416857 226.792241 
L 309.7528 127.696174 
L 310.088742 170.16354 
L 310.424684 194.573066 
L 310.760626 193.880131 
L 311.096568 132.186665 
L 311.432511 226.791752 
L 311.768453 121.283804 
L 312.104395 170.164687 
L 312.440337 200.415381 
L 312.776279 194.322087 
L 313.112222 194.511792 
L 313.448164 132.186569 
L 313.784106 226.791266 
L 314.120048 168.276755 
L 314.45599 170.165993 
L 314.791933 208.3539 
L 315.127875 194.288227 
L 315.463817 195.179939 
L 315.799759 132.186495 
L 316.135701 226.790734 
L 316.471644 171.456093 
L 316.807586 170.167051 
L 317.143528 217.647981 
L 317.47947 194.270336 
L 317.815412 195.73442 
L 318.151355 132.186392 
L 318.487297 226.790231 
L 318.823239 173.995229 
L 319.159181 170.168334 
L 319.495123 225.110492 
L 319.831066 194.217781 
L 320.167008 194.268719 
L 320.50295 196.391037 
L 320.838892 132.186278 
L 321.174834 226.789746 
L 321.510777 176.160338 
L 321.846719 170.169732 
L 322.182661 228.807012 
L 322.518603 224.966337 
L 322.854545 194.174592 
L 323.190488 194.267536 
L 323.52643 197.031373 
L 323.862372 132.1862 
L 324.198314 226.789058 
L 324.534256 178.701046 
L 324.870199 170.172309 
L 325.206141 233.903303 
L 325.542083 224.845079 
L 325.878025 194.266526 
L 326.213967 197.911663 
L 326.54991 132.186131 
L 326.885852 226.788197 
L 327.221794 181.022535 
L 327.557736 170.191797 
L 327.893679 238.449375 
L 328.229621 224.796267 
L 328.565563 224.843633 
L 328.901505 194.264801 
L 329.237447 199.122597 
L 329.57339 132.186091 
L 329.909332 226.784033 
L 330.245274 184.62396 
L 330.581216 170.252144 
L 330.917158 228.288471 
L 331.253101 224.747893 
L 331.589043 224.842231 
L 331.924985 194.262357 
L 332.260927 200.404057 
L 332.596869 132.186049 
L 332.932812 226.747721 
L 333.268754 191.8947 
L 333.604696 220.349249 
L 333.940638 224.840699 
L 334.27658 194.260524 
L 334.612523 201.255263 
L 334.948465 132.186014 
L 335.284407 193.235439 
L 335.620349 196.849238 
L 336.292234 224.839313 
L 336.628176 194.257454 
L 336.964118 202.121551 
L 337.30006 132.185985 
L 337.636002 194.404642 
L 338.307887 212.320949 
L 338.643829 213.857654 
L 338.979771 224.837761 
L 339.315713 194.235914 
L 339.651656 202.535744 
L 339.987598 132.185954 
L 340.32354 195.371589 
L 340.659482 211.549526 
L 340.995424 211.465772 
L 341.331367 215.674098 
L 341.667309 213.857461 
L 342.003251 224.836748 
L 342.339193 194.187823 
L 342.675135 203.194543 
L 343.011078 132.185875 
L 343.34702 196.123503 
L 343.682962 215.382428 
L 344.018904 210.608967 
L 344.354846 217.197453 
L 344.690789 215.673936 
L 345.026731 224.835171 
L 345.362673 203.812985 
L 345.698615 132.185814 
L 346.034557 196.888217 
L 346.706442 218.835374 
L 347.042384 217.197279 
L 347.378326 224.822035 
L 347.714269 204.6966 
L 348.050211 132.185783 
L 348.386153 197.551825 
L 349.058037 220.180453 
L 349.39398 218.835231 
L 349.729922 224.776189 
L 350.065864 214.023392 
L 350.401806 198.02842 
L 350.737748 208.048411 
L 351.073691 221.624855 
L 351.409633 220.1803 
L 351.745575 217.753727 
L 352.081517 198.581726 
L 352.417459 207.193724 
L 352.753402 221.613517 
L 353.425286 221.624627 
L 353.761228 219.64791 
L 354.09717 199.415255 
L 354.433113 206.77654 
L 354.769055 221.611977 
L 355.440939 221.621625 
L 355.776881 220.06704 
L 356.112824 200.77702 
L 356.448766 197.400621 
L 356.784708 221.607971 
L 357.456592 221.618454 
L 357.792535 220.397112 
L 358.128477 205.803406 
L 358.464419 216.488785 
L 358.800361 191.303866 
L 359.136303 221.60366 
L 359.808188 221.614832 
L 360.14413 220.750748 
L 360.480072 185.97184 
L 360.816014 221.603151 
L 361.487899 221.613672 
L 361.823841 221.033672 
L 362.159783 180.379104 
L 362.495725 221.602768 
L 363.503552 221.61316 
L 363.839494 221.308369 
L 364.175436 170.829955 
L 364.511379 221.602472 
L 365.855148 221.582359 
L 366.19109 168.487841 
L 366.527032 221.602112 
L 366.862974 221.60127 
L 367.198916 221.853131 
L 367.534859 167.15954 
L 367.870801 163.950405 
L 368.206743 221.601772 
L 368.542685 226.694924 
L 368.878627 164.978737 
L 369.21457 160.10236 
L 369.550512 221.600887 
L 369.886454 237.529534 
L 370.222396 233.387055 
L 370.558338 164.547576 
L 370.894281 153.635111 
L 371.230223 221.600083 
L 371.566165 240.16502 
L 371.902107 164.18328 
L 372.573992 163.477025 
L 372.909934 162.754431 
L 373.245876 161.501674 
L 373.581818 151.241013 
L 373.581818 151.241013 
" style="fill:none;stroke:#ff0000;stroke-linecap:square;stroke-width:1.5;"/>
   </g>
   <g id="line2d_13">
    <path clip-path="url(#p49cdce7107)" d="M 69.218182 239.505242 
L 69.554124 181.391261 
L 69.890066 166.4281 
L 71.233835 160.090078 
L 71.569777 223.807464 
L 72.241662 212.527593 
L 72.913546 204.675839 
L 73.249488 201.526112 
L 73.58543 199.589326 
L 73.921373 194.767619 
L 74.257315 155.707981 
L 74.593257 155.706849 
L 74.929199 108.346389 
L 75.265141 155.706357 
L 75.601084 105.087642 
L 75.937026 155.705865 
L 76.272968 101.428465 
L 76.60891 155.70544 
L 76.944852 95.470614 
L 77.616737 199.091167 
L 77.952679 155.704442 
L 78.288621 198.953873 
L 78.624564 144.612534 
L 78.960506 155.703977 
L 79.296448 198.938144 
L 79.63239 198.932108 
L 79.968332 107.026931 
L 80.640217 198.901548 
L 80.976159 198.931363 
L 81.312101 198.00574 
L 81.648043 214.990778 
L 81.983986 155.70179 
L 82.319928 198.930279 
L 82.65587 198.812213 
L 82.991812 201.085651 
L 83.327754 150.323675 
L 83.663697 214.990653 
L 83.999639 155.701555 
L 84.335581 198.928875 
L 84.671523 199.175686 
L 85.007465 208.495828 
L 85.343408 182.265159 
L 85.67935 214.990595 
L 86.015292 155.701248 
L 86.351234 198.925416 
L 86.687176 199.560861 
L 87.359061 182.265427 
L 87.695003 214.990533 
L 88.030945 155.700734 
L 88.366887 198.922423 
L 88.70283 199.927685 
L 89.038772 221.222848 
L 89.374714 182.26545 
L 89.710656 214.990481 
L 90.046598 155.700319 
L 90.382541 198.907922 
L 90.718483 200.14736 
L 91.054425 227.988031 
L 91.390367 221.036646 
L 91.726309 182.265472 
L 92.062252 214.990434 
L 92.398194 155.69992 
L 92.734136 198.856127 
L 93.070078 200.578312 
L 93.40602 176.973658 
L 93.741963 220.983553 
L 94.077905 220.998101 
L 94.413847 182.265515 
L 94.749789 214.990324 
L 95.085731 155.698261 
L 95.421674 202.762228 
L 95.757616 149.113086 
L 96.4295 214.989992 
L 96.765443 155.696356 
L 97.101385 210.99108 
L 97.437327 143.033028 
L 98.109211 214.989383 
L 98.445154 155.695364 
L 98.781096 153.019366 
L 99.45298 214.989246 
L 99.788922 155.695065 
L 100.124865 164.646443 
L 100.460807 214.989221 
L 100.796749 155.694991 
L 101.132691 171.404501 
L 101.468633 214.989191 
L 101.804576 155.694932 
L 102.140518 175.867671 
L 102.47646 214.989178 
L 102.812402 155.694837 
L 103.484287 214.987594 
L 103.820229 155.694685 
L 104.156171 182.21615 
L 104.492113 185.041347 
L 104.828055 214.98753 
L 105.163998 182.441321 
L 105.49994 186.7489 
L 105.835882 214.98741 
L 106.171824 182.702306 
L 106.507766 230.765587 
L 106.843709 214.984478 
L 107.179651 183.100223 
L 107.515593 224.016148 
L 107.851535 214.982105 
L 108.187477 183.61179 
L 108.52342 223.602949 
L 108.859362 208.132772 
L 109.195304 214.981905 
L 109.531246 183.979039 
L 109.867188 223.601497 
L 110.203131 223.401861 
L 110.539073 179.489538 
L 110.875015 214.981776 
L 111.210957 184.49795 
L 111.546899 223.600329 
L 111.882842 222.457247 
L 112.218784 166.60885 
L 112.554726 214.981679 
L 112.890668 185.059364 
L 113.22661 223.599568 
L 113.562553 222.496784 
L 113.898495 219.300551 
L 114.234437 162.77653 
L 114.570379 214.981422 
L 114.906321 185.588812 
L 115.242264 223.598488 
L 115.578206 222.500239 
L 115.914148 216.9522 
L 116.25009 158.450639 
L 116.586033 214.981265 
L 116.921975 186.459294 
L 117.257917 223.597329 
L 117.593859 222.50368 
L 117.929801 215.37961 
L 118.265744 129.340803 
L 118.601686 214.981244 
L 118.937628 190.598168 
L 119.27357 223.596399 
L 119.609512 222.506498 
L 119.945455 215.951146 
L 120.281397 193.690498 
L 120.617339 134.087786 
L 120.953281 214.981238 
L 121.289223 191.499784 
L 121.625166 223.595466 
L 121.961108 222.510788 
L 122.29705 217.467009 
L 122.632992 192.370408 
L 122.968934 135.453693 
L 123.304877 214.981233 
L 123.640819 216.527523 
L 123.976761 193.310814 
L 124.312703 223.594708 
L 124.648645 222.516033 
L 124.984588 217.993592 
L 125.32053 191.164479 
L 125.656472 143.213557 
L 125.992414 214.981227 
L 126.328356 221.255343 
L 126.664299 195.715065 
L 127.000241 223.594156 
L 127.336183 222.520051 
L 127.672125 217.992798 
L 128.008067 218.134212 
L 128.34401 190.663538 
L 128.679952 147.596332 
L 129.015894 231.009084 
L 129.351836 196.30964 
L 129.687778 195.629564 
L 130.023721 223.593678 
L 130.359663 222.524763 
L 130.695605 217.992685 
L 131.031547 218.149469 
L 131.367489 189.583805 
L 131.703432 150.849757 
L 132.039374 198.649394 
L 132.375316 195.274147 
L 132.711258 223.59335 
L 133.0472 222.529254 
L 133.383143 217.99263 
L 133.719085 217.992642 
L 134.055027 218.164295 
L 134.726911 153.774711 
L 135.062854 202.826809 
L 135.398796 195.251471 
L 135.734738 195.246931 
L 136.07068 223.593044 
L 136.406623 222.53415 
L 136.742565 217.992619 
L 137.078507 217.992619 
L 137.414449 218.176208 
L 138.086334 157.4083 
L 138.422276 202.775192 
L 138.758218 204.07292 
L 139.09416 195.193375 
L 139.430102 195.243059 
L 139.766045 223.592567 
L 140.101987 222.541734 
L 140.437929 217.992598 
L 140.773871 218.185741 
L 141.109813 184.090563 
L 141.445756 164.11342 
L 141.781698 202.604602 
L 142.11764 206.321891 
L 142.453582 195.239917 
L 142.789524 223.592209 
L 143.125467 222.562711 
L 143.461409 217.992578 
L 143.797351 218.205986 
L 144.133293 181.917088 
L 144.469235 169.959165 
L 144.805178 202.530357 
L 145.14112 207.124883 
L 145.477062 195.23739 
L 145.813004 222.564523 
L 146.148946 217.992553 
L 146.484889 218.222002 
L 146.820831 180.835312 
L 147.156773 173.935675 
L 147.492715 228.905229 
L 147.828657 207.124896 
L 148.1646 195.233508 
L 148.500542 222.56537 
L 148.836484 217.992533 
L 149.172426 218.233161 
L 149.508368 180.067213 
L 149.844311 176.547878 
L 150.180253 221.810061 
L 150.516195 195.228929 
L 150.852137 222.566288 
L 151.188079 217.992519 
L 151.524022 218.244343 
L 151.859964 171.280806 
L 152.195906 182.169732 
L 152.531848 210.099537 
L 152.86779 211.743005 
L 153.203733 195.221852 
L 153.539675 222.567175 
L 153.875617 217.99251 
L 154.211559 218.260775 
L 154.547502 168.689932 
L 154.883444 182.127586 
L 155.219386 186.039744 
L 155.555328 195.195797 
L 155.89127 222.568176 
L 156.227213 217.992499 
L 156.563155 218.322849 
L 156.899097 168.110298 
L 157.570981 200.551585 
L 157.906924 195.068205 
L 158.242866 222.570267 
L 158.578808 217.99249 
L 158.91475 218.337401 
L 159.250692 160.606789 
L 159.586635 167.866402 
L 160.258519 200.496501 
L 160.594461 205.638921 
L 160.930403 222.57247 
L 161.266346 217.992484 
L 161.602288 218.344097 
L 161.93823 153.17108 
L 162.946057 200.492449 
L 163.281999 224.080331 
L 163.617941 222.580948 
L 163.953883 217.992469 
L 164.289825 218.348519 
L 164.625768 167.322086 
L 165.297652 200.489071 
L 165.633594 228.681963 
L 165.969536 226.99043 
L 166.641421 217.99246 
L 166.977363 218.368905 
L 167.313305 218.349852 
L 167.649247 167.060414 
L 168.321132 200.484215 
L 168.657074 230.799938 
L 168.993016 239.186401 
L 169.328958 218.378331 
L 169.664901 218.350807 
L 170.000843 166.779085 
L 170.672727 200.462157 
L 171.008669 240.253841 
L 171.344612 241.878496 
L 171.680554 218.394391 
L 172.016496 218.351933 
L 172.352438 165.147658 
L 173.024323 200.457863 
L 173.360265 239.220464 
L 173.696207 242.116364 
L 174.032149 218.425417 
L 174.368092 218.354112 
L 174.704034 158.247855 
L 175.375918 200.454647 
L 175.71186 239.237858 
L 176.047803 215.510903 
L 176.383745 241.649493 
L 176.719687 218.517358 
L 177.055629 218.36257 
L 177.391571 182.086211 
L 177.727514 200.450902 
L 178.063456 239.327962 
L 178.399398 204.132949 
L 178.73534 241.249843 
L 179.071282 218.391776 
L 179.407225 182.082777 
L 179.743167 200.447146 
L 180.079109 239.359599 
L 180.415051 204.253768 
L 180.750993 103.471199 
L 181.086936 240.795317 
L 181.422878 182.067043 
L 181.75882 200.41379 
L 182.094762 239.428845 
L 182.430704 204.302175 
L 182.766647 117.989629 
L 183.102589 105.950702 
L 183.438531 240.437233 
L 183.774473 182.060833 
L 184.110415 200.344873 
L 184.446358 239.457645 
L 184.7823 239.442153 
L 185.118242 125.28831 
L 185.454184 108.074841 
L 185.790126 240.137021 
L 186.126069 182.058645 
L 186.462011 239.501218 
L 186.797953 239.444027 
L 187.133895 125.967475 
L 187.469837 109.568928 
L 187.80578 239.866138 
L 188.141722 182.056975 
L 188.477664 239.446086 
L 188.813606 126.247941 
L 189.149548 111.456677 
L 189.485491 239.641948 
L 189.821433 182.055736 
L 190.157375 239.447909 
L 190.493317 126.445825 
L 190.829259 112.639487 
L 191.165202 239.381877 
L 191.501144 182.055099 
L 191.837086 239.449867 
L 192.173028 126.648214 
L 192.50897 114.455761 
L 192.844913 239.096045 
L 193.180855 182.05415 
L 193.516797 239.452691 
L 193.852739 126.887002 
L 194.188682 116.266316 
L 194.524624 237.537805 
L 194.860566 182.052537 
L 195.196508 239.456162 
L 195.53245 127.188195 
L 195.868393 118.297749 
L 196.204335 225.058071 
L 196.540277 237.552117 
L 196.876219 182.045253 
L 197.212161 239.477905 
L 197.548104 127.457922 
L 197.884046 119.767719 
L 198.219988 213.105462 
L 198.55593 237.665379 
L 198.891872 237.548076 
L 199.227815 182.018139 
L 199.563757 239.553086 
L 199.899699 127.671336 
L 200.235641 121.519732 
L 200.571583 212.573371 
L 200.907526 237.707262 
L 201.243468 237.527544 
L 201.57941 128.037577 
L 201.915352 124.061795 
L 202.251294 212.647587 
L 202.587237 201.976644 
L 202.923179 237.711575 
L 203.259121 237.526141 
L 203.595063 129.315996 
L 203.931005 125.946362 
L 204.266948 212.654445 
L 204.60289 196.864376 
L 204.938832 237.71462 
L 205.274774 237.525567 
L 205.610716 137.131208 
L 205.946659 127.764273 
L 206.282601 212.658376 
L 206.618543 102.278207 
L 206.954485 196.864083 
L 207.290427 237.71781 
L 207.62637 237.525207 
L 207.962312 129.543402 
L 208.298254 212.661067 
L 208.634196 124.239189 
L 208.970138 196.864013 
L 209.306081 237.731356 
L 209.642023 237.524647 
L 209.977965 131.683004 
L 210.313907 212.665489 
L 210.649849 128.834732 
L 210.985792 196.863967 
L 211.321734 237.7347 
L 211.657676 237.518736 
L 211.993618 135.266217 
L 212.329561 131.683114 
L 212.665503 212.680309 
L 213.001445 130.009287 
L 213.337387 196.863912 
L 213.673329 237.737925 
L 214.009272 237.516815 
L 214.345214 147.351319 
L 214.681156 135.266589 
L 215.017098 212.696942 
L 215.35304 130.624614 
L 215.688983 196.863868 
L 216.024925 237.741168 
L 216.360867 237.516223 
L 216.696809 164.443227 
L 217.032751 147.351845 
L 217.368694 212.706371 
L 217.704636 131.134707 
L 218.040578 196.863822 
L 218.37652 237.744928 
L 218.712462 237.515281 
L 219.048405 176.706772 
L 219.384347 164.443605 
L 219.720289 212.715299 
L 220.056231 131.548106 
L 220.392173 196.863778 
L 220.728116 237.758052 
L 221.064058 237.514549 
L 221.4 180.42728 
L 221.735942 176.706887 
L 222.071884 212.723884 
L 222.407827 132.180007 
L 222.743769 196.86375 
L 223.079711 237.822681 
L 223.415653 237.513825 
L 223.751595 192.96361 
L 224.087538 180.427619 
L 224.42348 180.393217 
L 224.759422 212.738091 
L 225.095364 132.74965 
L 225.431306 196.863731 
L 225.767249 237.513238 
L 226.103191 206.89087 
L 226.439133 192.963986 
L 226.775075 192.963665 
L 227.111017 180.38816 
L 227.44696 212.748063 
L 227.782902 133.291805 
L 228.118844 196.863709 
L 228.454786 237.510771 
L 228.790728 211.994208 
L 229.126671 206.891008 
L 229.462613 180.385357 
L 229.798555 212.755124 
L 230.134497 133.90257 
L 230.470439 196.863683 
L 230.806382 237.510654 
L 231.478266 211.9945 
L 231.814208 211.71968 
L 232.150151 180.383427 
L 232.486093 212.758524 
L 232.822035 134.547727 
L 233.157977 196.863642 
L 233.493919 237.510575 
L 233.829862 44.443636 
L 234.165804 225.810221 
L 234.501746 211.711988 
L 234.837688 211.664467 
L 235.17363 180.38045 
L 235.509573 212.760694 
L 235.845515 135.958332 
L 236.181457 196.863596 
L 236.517399 237.510503 
L 236.853341 56.526483 
L 237.189284 44.443892 
L 237.525226 211.708698 
L 237.861168 211.628735 
L 238.19711 180.375861 
L 238.533052 212.762172 
L 238.868995 167.950977 
L 239.204937 196.863568 
L 239.540879 237.510456 
L 239.876821 58.607184 
L 240.212763 56.526527 
L 240.548706 211.706744 
L 240.884648 180.372556 
L 241.22059 212.764249 
L 241.556532 175.283313 
L 241.892474 172.110999 
L 242.228417 196.863546 
L 242.564359 65.490701 
L 242.900301 58.607302 
L 243.236243 58.476996 
L 243.572185 211.704924 
L 243.908128 180.370263 
L 244.24407 212.765846 
L 244.580012 181.748684 
L 244.915954 174.355186 
L 245.251896 196.863531 
L 245.587839 70.557616 
L 245.923781 65.490789 
L 246.259723 58.399635 
L 246.595665 211.703285 
L 246.931607 180.368424 
L 247.26755 212.777328 
L 247.603492 174.690339 
L 247.939434 196.86352 
L 248.275376 77.45599 
L 248.611318 70.557735 
L 248.947261 58.337996 
L 249.283203 211.701566 
L 249.619145 180.362441 
L 249.955087 212.791312 
L 250.29103 212.855141 
L 250.626972 174.94617 
L 250.962914 196.86351 
L 251.298856 82.337501 
L 251.634798 77.456074 
L 251.970741 58.312385 
L 252.306683 211.696319 
L 252.642625 180.31335 
L 252.978567 212.807081 
L 253.314509 175.185435 
L 253.650452 196.863501 
L 253.986394 95.988397 
L 254.322336 82.337736 
L 254.658278 58.308507 
L 254.99422 58.256814 
L 255.330163 211.690975 
L 255.666105 180.31087 
L 256.002047 212.85071 
L 256.337989 175.440579 
L 256.673931 196.863496 
L 257.009874 105.872647 
L 257.345816 95.988567 
L 257.681758 58.307064 
L 258.0177 58.214331 
L 258.353642 211.640502 
L 258.689585 180.308886 
L 259.025527 175.666347 
L 259.361469 196.863492 
L 259.697411 106.389153 
L 260.033353 105.872684 
L 260.369296 120.79476 
L 260.705238 58.304889 
L 261.04118 180.306612 
L 261.377122 175.897265 
L 261.713064 106.511435 
L 262.049007 106.389162 
L 262.384949 122.681102 
L 262.720891 58.303566 
L 263.056833 180.30456 
L 263.392775 177.089085 
L 263.728718 109.822316 
L 264.06466 106.511677 
L 264.400602 106.511736 
L 264.736544 124.073042 
L 265.072486 58.301952 
L 265.408429 180.302166 
L 265.744371 182.4276 
L 266.080313 179.259184 
L 266.416255 112.142289 
L 266.752197 109.822486 
L 267.08814 106.511839 
L 267.424082 125.427356 
L 267.760024 58.300519 
L 268.095966 180.299679 
L 268.431908 182.735201 
L 268.767851 189.629268 
L 269.103793 118.637461 
L 269.775677 106.511912 
L 270.11162 138.148798 
L 270.447562 58.291042 
L 270.783504 180.29665 
L 271.119446 182.889669 
L 271.455388 189.490278 
L 271.791331 202.790809 
L 272.127273 124.428844 
L 272.463215 118.637764 
L 272.799157 118.637761 
L 273.135099 111.743071 
L 273.471042 111.924927 
L 273.806984 106.511995 
L 274.142926 144.069236 
L 274.478868 58.220416 
L 274.81481 180.294727 
L 275.150753 183.019181 
L 275.486695 189.416188 
L 275.822637 215.397047 
L 276.158579 131.486125 
L 276.494521 124.429039 
L 276.830464 124.429039 
L 277.166406 111.700268 
L 277.502348 106.512039 
L 278.174232 180.286354 
L 278.510175 183.124778 
L 278.846117 218.688496 
L 279.182059 217.858128 
L 279.518001 141.098864 
L 279.853943 106.512088 
L 280.525828 180.250608 
L 280.86177 183.290514 
L 281.197712 219.495506 
L 281.533654 218.424337 
L 281.869597 143.918123 
L 282.205539 106.512125 
L 282.877423 183.685665 
L 283.213365 220.049616 
L 283.549308 218.705312 
L 284.221192 106.51216 
L 284.557134 157.067368 
L 284.893076 183.959008 
L 285.229019 220.817673 
L 285.564961 219.014075 
L 285.900903 106.51219 
L 286.236845 158.596779 
L 286.572787 184.306514 
L 286.90873 222.638826 
L 287.244672 219.370336 
L 287.580614 106.512225 
L 287.916556 159.040773 
L 288.252498 184.517593 
L 288.588441 224.023097 
L 288.924383 219.730484 
L 289.260325 106.512264 
L 289.596267 159.214098 
L 289.93221 160.165834 
L 290.268152 184.708125 
L 290.604094 224.99476 
L 290.940036 220.129747 
L 291.275978 106.512356 
L 291.611921 159.376301 
L 291.947863 161.650318 
L 292.283805 185.029422 
L 292.619747 226.012583 
L 292.955689 220.710349 
L 293.291632 106.512405 
L 293.627574 159.543377 
L 293.963516 167.817105 
L 294.299458 185.345256 
L 294.6354 226.848163 
L 294.971343 220.691299 
L 295.307285 222.812674 
L 295.643227 106.51243 
L 295.979169 160.751262 
L 296.315111 170.435803 
L 296.651054 185.494671 
L 296.986996 228.231547 
L 297.322938 220.679814 
L 297.65888 236.124889 
L 297.994822 106.512456 
L 298.330765 169.546438 
L 298.666707 185.658761 
L 299.002649 232.701891 
L 299.338591 220.66912 
L 299.674533 239.235774 
L 300.010476 185.81623 
L 300.346418 241.742772 
L 300.68236 220.658645 
L 301.018302 239.445179 
L 301.354244 75.745323 
L 301.690187 186.006111 
L 302.026129 220.650758 
L 302.362071 239.455013 
L 302.698013 239.472715 
L 303.033955 91.544934 
L 303.369898 80.679599 
L 303.70584 186.308954 
L 304.041782 220.638181 
L 304.377724 239.458127 
L 304.713666 239.52948 
L 305.049609 100.697221 
L 305.385551 89.834023 
L 305.721493 187.137687 
L 306.057435 220.616894 
L 306.393377 239.460153 
L 306.72932 113.974663 
L 307.065262 89.834142 
L 307.401204 188.240428 
L 307.737146 220.45679 
L 308.073089 239.461389 
L 308.409031 147.357866 
L 309.080915 89.834247 
L 309.416857 188.345446 
L 309.7528 220.324948 
L 310.088742 239.462653 
L 310.760626 113.872482 
L 311.096568 89.834338 
L 311.432511 188.428489 
L 311.768453 220.283019 
L 312.104395 239.463795 
L 312.440337 186.76021 
L 312.776279 219.859971 
L 313.112222 113.868662 
L 313.448164 89.834435 
L 313.784106 188.509133 
L 314.120048 220.244704 
L 314.45599 239.465096 
L 314.791933 193.483123 
L 315.127875 224.963574 
L 315.463817 113.864595 
L 315.799759 89.834508 
L 316.135701 188.595499 
L 316.471644 220.223758 
L 316.807586 239.466149 
L 317.143528 201.353972 
L 317.47947 227.644788 
L 317.815412 113.861198 
L 318.151355 89.834612 
L 318.487297 188.67534 
L 318.823239 220.206967 
L 319.159181 239.467427 
L 319.495123 207.673685 
L 319.831066 235.178366 
L 320.167008 227.89552 
L 320.50295 113.857149 
L 320.838892 89.834726 
L 321.174834 188.750571 
L 321.510777 220.192596 
L 321.846719 239.46882 
L 322.182661 210.897425 
L 322.518603 207.530124 
L 322.854545 241.301763 
L 323.190488 228.076823 
L 323.52643 113.853175 
L 323.862372 89.834804 
L 324.198314 188.855189 
L 324.534256 220.175669 
L 324.870199 239.471387 
L 325.206141 215.341889 
L 325.542083 207.409362 
L 325.878025 228.229814 
L 326.213967 113.847678 
L 326.54991 89.834873 
L 326.885852 188.983377 
L 327.221794 220.160145 
L 327.557736 239.4908 
L 327.893679 226.27506 
L 328.229621 207.360739 
L 328.565563 207.407922 
L 328.901505 228.488215 
L 329.237447 113.840067 
L 329.57339 89.834913 
L 329.909332 189.59087 
L 330.245274 220.135973 
L 330.581216 239.550918 
L 330.917158 235.136268 
L 331.253101 207.31255 
L 331.589043 207.406526 
L 331.924985 228.850047 
L 332.260927 113.831962 
L 332.596869 89.834955 
L 332.932812 194.784393 
L 333.604696 242.059937 
L 333.940638 207.405001 
L 334.27658 229.118516 
L 334.612523 113.826545 
L 334.948465 89.83499 
L 335.284407 220.078042 
L 335.620349 220.052815 
L 335.956291 236.57198 
L 336.292234 207.40362 
L 336.628176 229.563211 
L 336.964118 113.820997 
L 337.30006 89.835019 
L 337.636002 220.070189 
L 337.971945 219.997616 
L 338.307887 236.577255 
L 338.643829 51.603547 
L 338.979771 207.402075 
L 339.315713 232.649618 
L 339.651656 113.818328 
L 339.987598 89.83505 
L 340.32354 220.063656 
L 340.659482 219.95002 
L 340.995424 236.582576 
L 341.331367 60.099116 
L 341.667309 51.60374 
L 342.003251 207.401065 
L 342.339193 239.466598 
L 342.675135 113.814057 
L 343.011078 89.835129 
L 343.34702 220.058546 
L 343.682962 219.922836 
L 344.018904 236.587939 
L 344.354846 67.222041 
L 344.690789 60.099278 
L 345.026731 207.399495 
L 345.362673 113.810023 
L 345.698615 89.83519 
L 346.034557 220.053318 
L 346.3705 236.593302 
L 346.706442 74.878656 
L 347.042384 67.222215 
L 347.378326 207.38641 
L 347.714269 113.804225 
L 348.050211 89.835222 
L 348.386153 220.048755 
L 348.722095 236.598716 
L 349.058037 81.164724 
L 349.39398 74.878799 
L 349.729922 207.340739 
L 350.065864 113.742649 
L 350.401806 220.045459 
L 350.737748 236.604159 
L 351.073691 87.913202 
L 351.409633 81.164877 
L 351.745575 113.717874 
L 352.081517 220.04161 
L 352.417459 236.609636 
L 352.753402 107.799705 
L 353.089344 87.916161 
L 353.425286 87.91343 
L 353.761228 113.705219 
L 354.09717 220.035778 
L 354.433113 236.612326 
L 354.769055 110.709039 
L 355.104997 87.919177 
L 355.440939 87.916435 
L 355.776881 113.702402 
L 356.112824 220.026196 
L 356.448766 236.673117 
L 356.784708 118.904958 
L 357.12065 87.923058 
L 357.456592 87.919608 
L 357.792535 113.70017 
L 358.128477 219.99066 
L 358.464419 219.914915 
L 358.800361 236.712875 
L 359.136303 128.52863 
L 359.472246 87.924285 
L 359.808188 87.923233 
L 360.14413 113.697765 
L 360.480072 236.747846 
L 360.816014 129.776978 
L 361.151957 87.924831 
L 361.487899 87.924394 
L 361.823841 113.69583 
L 362.159783 236.784736 
L 362.495725 130.521982 
L 362.831668 131.610348 
L 363.16761 87.925057 
L 363.503552 87.924906 
L 363.839494 113.693941 
L 364.175436 236.848079 
L 364.511379 131.211295 
L 364.847321 135.900594 
L 365.183263 87.925121 
L 365.519205 87.925121 
L 365.855148 113.692045 
L 366.19109 236.863703 
L 366.527032 132.259367 
L 366.862974 146.077552 
L 367.198916 113.690161 
L 367.534859 236.872339 
L 367.870801 236.764257 
L 368.206743 133.583728 
L 368.542685 113.656276 
L 368.878627 236.886678 
L 369.21457 236.680225 
L 369.550512 138.739001 
L 369.886454 113.58054 
L 370.222396 113.608886 
L 370.558338 236.889544 
L 370.894281 236.539508 
L 371.230223 148.103089 
L 371.566165 113.529647 
L 371.902107 236.891992 
L 373.581818 236.983308 
L 373.581818 236.983308 
" style="fill:none;stroke:#ffff00;stroke-linecap:square;stroke-width:1.5;"/>
   </g>
   <g id="line2d_14">
    <path clip-path="url(#p49cdce7107)" d="M 69.218182 234.919198 
L 69.554124 215.852671 
L 69.890066 204.787434 
L 71.233835 200.100491 
L 71.569777 98.457522 
L 72.241662 90.116085 
L 72.913546 84.309747 
L 73.249488 81.980542 
L 73.58543 80.548303 
L 73.921373 76.982689 
L 74.257315 235.624651 
L 74.593257 235.625782 
L 74.929199 214.242386 
L 75.265141 235.626275 
L 75.601084 211.83265 
L 75.937026 235.626767 
L 76.272968 209.126814 
L 76.60891 235.627192 
L 76.944852 204.72119 
L 77.280795 235.627684 
L 77.616737 196.706343 
L 77.952679 235.62819 
L 78.288621 196.843215 
L 78.624564 91.128468 
L 78.960506 235.628655 
L 79.296448 196.858898 
L 79.63239 196.864912 
L 79.968332 220.700923 
L 80.304275 235.629824 
L 80.640217 196.895388 
L 80.976159 196.865655 
L 81.312101 220.55829 
L 81.648043 174.597732 
L 81.983986 235.630842 
L 82.319928 196.866736 
L 82.65587 220.553019 
L 82.991812 220.536822 
L 83.327754 112.436731 
L 83.999639 235.631077 
L 84.335581 196.868136 
L 84.671523 220.550615 
L 85.007465 220.484494 
L 85.343408 218.258466 
L 85.67935 174.597548 
L 86.015292 235.631384 
L 86.351234 196.871585 
L 86.687176 220.548038 
L 87.023119 225.030611 
L 87.359061 218.258733 
L 87.695003 174.597486 
L 88.030945 235.631898 
L 88.366887 196.874569 
L 88.70283 220.545556 
L 89.038772 229.182904 
L 89.374714 218.258757 
L 89.710656 174.597434 
L 90.046598 235.632313 
L 90.382541 196.889028 
L 90.718483 220.544052 
L 91.054425 222.680607 
L 91.390367 229.36854 
L 91.726309 218.258779 
L 92.062252 174.597387 
L 92.398194 235.632713 
L 92.734136 196.940673 
L 93.070078 220.54107 
L 93.40602 145.858759 
L 93.741963 229.421472 
L 94.077905 229.406968 
L 94.413847 218.258822 
L 94.749789 174.597277 
L 95.085731 235.634371 
L 95.421674 220.525785 
L 95.757616 119.080779 
L 96.093558 218.258841 
L 96.4295 174.596945 
L 96.765443 235.636276 
L 97.101385 220.467561 
L 97.437327 113.236976 
L 97.773269 218.258854 
L 98.109211 174.596336 
L 98.445154 235.637269 
L 98.781096 101.386727 
L 99.117038 218.25886 
L 99.45298 174.596199 
L 99.788922 235.637567 
L 100.124865 90.211449 
L 100.796749 235.637642 
L 101.132691 83.715992 
L 101.804576 235.6377 
L 102.140518 79.42625 
L 102.47646 174.596131 
L 102.812402 235.637796 
L 103.148344 210.219716 
L 103.484287 174.594547 
L 103.820229 235.637948 
L 104.156171 210.350786 
L 104.492113 213.363338 
L 104.828055 174.594483 
L 105.163998 210.509359 
L 105.49994 215.145916 
L 105.835882 174.594362 
L 106.171824 210.693152 
L 106.507766 199.408125 
L 106.843709 174.591428 
L 107.179651 210.973375 
L 107.851535 174.589054 
L 108.187477 211.333629 
L 108.859362 177.497197 
L 109.195304 174.588855 
L 109.531246 211.59225 
L 109.867188 191.766157 
L 110.203131 191.478251 
L 110.539073 150.690514 
L 110.875015 174.588726 
L 111.210957 211.95767 
L 111.546899 191.764989 
L 111.882842 190.118976 
L 112.218784 138.635668 
L 112.890668 212.353018 
L 113.22661 191.764228 
L 113.562553 190.158352 
L 113.898495 185.843926 
L 114.234437 135.049052 
L 114.906321 212.725852 
L 115.242264 191.763148 
L 115.578206 190.161794 
L 115.914148 182.663584 
L 116.25009 131.000508 
L 116.921975 213.338836 
L 117.257917 191.761988 
L 117.593859 190.165221 
L 117.929801 180.533833 
L 118.265744 127.192962 
L 118.937628 216.25336 
L 119.27357 191.761059 
L 119.609512 190.168028 
L 119.945455 177.880047 
L 120.281397 180.670643 
L 120.617339 122.750322 
L 121.289223 216.888256 
L 121.625166 191.760125 
L 121.961108 190.172302 
L 122.29705 170.842165 
L 122.632992 180.679018 
L 122.968934 121.471987 
L 123.640819 216.714705 
L 123.976761 219.683297 
L 124.312703 191.759367 
L 124.648645 190.177527 
L 124.984588 168.397564 
L 125.32053 180.686713 
L 125.656472 114.209626 
L 126.328356 216.681576 
L 126.664299 223.393922 
L 127.000241 191.758815 
L 127.336183 190.18153 
L 128.008067 146.389099 
L 128.34401 180.689928 
L 128.679952 110.107838 
L 129.015894 216.612518 
L 129.351836 223.141246 
L 129.687778 236.0695 
L 130.023721 191.758337 
L 130.359663 190.186225 
L 131.031547 144.012233 
L 131.367489 180.696898 
L 131.703432 107.062996 
L 132.039374 222.14684 
L 132.375316 196.359898 
L 132.711258 191.758009 
L 133.0472 190.1907 
L 133.383143 168.396602 
L 133.719085 168.396615 
L 134.055027 141.713218 
L 134.390969 180.714749 
L 134.726911 104.325565 
L 135.062854 220.371278 
L 135.398796 193.094653 
L 136.07068 191.757703 
L 136.406623 190.195579 
L 136.742565 168.396591 
L 137.078507 168.396591 
L 137.414449 139.874291 
L 137.750391 180.725281 
L 138.086334 100.924931 
L 138.422276 220.319822 
L 138.758218 220.064231 
L 139.09416 184.840072 
L 139.430102 191.750612 
L 139.766045 191.757226 
L 140.101987 190.203135 
L 140.437929 168.396571 
L 140.773871 138.409483 
L 141.109813 180.732699 
L 141.445756 94.649683 
L 141.781698 220.149762 
L 142.11764 219.510017 
L 142.453582 191.290284 
L 142.789524 191.756868 
L 143.125467 190.22404 
L 143.461409 168.39655 
L 143.797351 135.312737 
L 144.133293 180.747047 
L 144.469235 89.178711 
L 144.805178 220.075745 
L 145.14112 219.312115 
L 145.477062 190.92243 
L 145.813004 190.225845 
L 146.148946 168.396525 
L 146.484889 132.874047 
L 146.820831 180.754229 
L 147.156773 85.457134 
L 147.492715 218.970013 
L 147.828657 219.312129 
L 148.1646 190.360921 
L 148.500542 190.22669 
L 148.836484 168.396506 
L 149.172426 131.1825 
L 149.508368 180.759356 
L 149.844311 83.012399 
L 150.180253 218.920066 
L 150.516195 189.702749 
L 150.852137 190.227604 
L 151.188079 168.396492 
L 151.524022 129.495033 
L 151.859964 180.818329 
L 152.195906 77.75096 
L 152.531848 218.837124 
L 152.86779 218.848879 
L 153.203733 188.691878 
L 153.539675 190.228489 
L 153.875617 168.396482 
L 154.211559 127.026416 
L 154.547502 180.835814 
L 154.883444 77.792926 
L 155.219386 209.598605 
L 155.555328 184.992941 
L 155.89127 190.229487 
L 156.227213 168.396472 
L 156.563155 117.742099 
L 156.899097 180.839747 
L 157.235039 77.798825 
L 157.570981 223.197354 
L 157.906924 166.990989 
L 158.242866 190.231571 
L 158.578808 168.396462 
L 158.91475 115.575194 
L 159.250692 180.892345 
L 159.586635 180.841362 
L 159.922577 77.801581 
L 160.258519 231.94166 
L 160.594461 226.810627 
L 160.930403 190.233767 
L 161.266346 168.396456 
L 161.602288 114.582508 
L 161.93823 180.945001 
L 162.274172 180.843278 
L 162.610114 77.804908 
L 162.946057 232.577227 
L 163.281999 239.908598 
L 163.617941 190.242219 
L 163.953883 168.396442 
L 164.289825 113.929911 
L 164.625768 180.845028 
L 164.96171 77.810123 
L 165.297652 233.101042 
L 165.633594 239.136007 
L 165.969536 241.622298 
L 166.305479 190.28761 
L 166.641421 168.396432 
L 166.977363 110.975754 
L 167.313305 113.728824 
L 167.649247 180.846821 
L 167.98519 77.814843 
L 168.321132 233.845026 
L 168.657074 238.780348 
L 168.993016 227.547169 
L 169.328958 109.618802 
L 169.664901 113.586519 
L 170.000843 180.848769 
L 170.336785 77.818569 
L 170.672727 237.186412 
L 171.008669 236.456604 
L 171.344612 224.440271 
L 171.680554 107.32229 
L 172.016496 113.420932 
L 172.352438 180.860192 
L 172.68838 77.823279 
L 173.024323 237.829616 
L 173.360265 236.283013 
L 173.696207 223.407922 
L 174.032149 102.914486 
L 174.368092 113.104243 
L 174.704034 180.909025 
L 175.039976 77.828222 
L 175.375918 238.30582 
L 175.71186 236.265678 
L 176.047803 237.637611 
L 176.383745 222.869114 
L 176.719687 89.937764 
L 177.055629 111.889788 
L 177.391571 77.83414 
L 177.727514 238.854314 
L 178.063456 236.175882 
L 178.399398 238.287463 
L 178.73534 222.407882 
L 179.071282 107.745657 
L 179.407225 77.837561 
L 179.743167 239.398371 
L 180.079109 236.144352 
L 180.415051 229.259413 
L 180.750993 230.420652 
L 181.086936 221.883319 
L 181.422878 77.853239 
L 181.75882 240.71176 
L 182.094762 236.075339 
L 182.430704 222.391481 
L 182.766647 230.330547 
L 183.102589 229.411066 
L 183.438531 221.470057 
L 183.774473 77.859427 
L 184.110415 230.943075 
L 184.446358 236.046632 
L 184.7823 236.062077 
L 185.118242 230.284718 
L 185.454184 228.54608 
L 185.790126 221.123585 
L 186.126069 77.861607 
L 186.462011 236.003197 
L 186.797953 236.06021 
L 187.133895 230.280405 
L 187.469837 227.937596 
L 187.80578 220.81096 
L 188.141722 77.863271 
L 188.477664 236.058158 
L 188.813606 230.278603 
L 189.149548 227.168706 
L 189.485491 220.552223 
L 189.821433 77.864506 
L 190.157375 236.056342 
L 190.493317 230.277317 
L 190.829259 226.68689 
L 191.165202 220.252076 
L 191.501144 77.865141 
L 191.837086 236.05439 
L 192.844913 219.922197 
L 193.180855 77.866088 
L 193.516797 236.051575 
L 194.524624 218.123831 
L 194.860566 77.867695 
L 195.196508 236.048115 
L 195.868393 224.381494 
L 196.204335 207.895567 
L 196.540277 215.163859 
L 196.876219 77.874955 
L 197.212161 236.026442 
L 197.884046 223.782444 
L 198.219988 198.09935 
L 198.55593 197.014626 
L 198.891872 215.159817 
L 199.227815 77.901985 
L 199.563757 235.9515 
L 200.235641 223.068377 
L 200.571583 197.663256 
L 200.907526 190.382021 
L 201.243468 215.139282 
L 201.57941 230.266543 
L 201.915352 222.032198 
L 202.251294 185.221306 
L 202.587237 193.468165 
L 202.923179 189.706958 
L 203.259121 215.137878 
L 203.595063 230.257585 
L 203.931005 221.263939 
L 204.266948 184.08136 
L 204.60289 191.444322 
L 204.938832 189.235888 
L 205.274774 215.137304 
L 205.610716 230.202253 
L 205.946659 220.522774 
L 206.282601 183.433356 
L 206.618543 185.342089 
L 206.954485 191.44403 
L 207.290427 188.747936 
L 207.62637 215.136944 
L 207.962312 219.797342 
L 208.298254 182.993368 
L 208.634196 176.651213 
L 208.970138 191.44396 
L 209.306081 186.698976 
L 209.642023 215.136383 
L 209.977965 64.798226 
L 210.313907 182.276341 
L 210.649849 174.832591 
L 210.985792 191.443913 
L 211.321734 186.198705 
L 211.657676 215.130472 
L 211.993618 66.259739 
L 212.329561 64.798116 
L 212.665503 179.893018 
L 213.001445 174.367785 
L 213.337387 191.443858 
L 213.673329 185.721536 
L 214.009272 215.12855 
L 214.345214 71.190073 
L 214.681156 66.259367 
L 215.017098 177.239765 
L 215.35304 174.124285 
L 215.688983 191.443814 
L 216.024925 185.246997 
L 216.360867 215.127958 
L 216.696809 78.164607 
L 217.032751 71.189546 
L 217.368694 175.747661 
L 217.704636 173.922432 
L 218.040578 191.443768 
L 218.37652 184.70268 
L 218.712462 215.127016 
L 219.048405 83.170014 
L 219.384347 78.164229 
L 219.720289 174.346059 
L 220.056231 173.758845 
L 220.392173 191.443724 
L 220.728116 182.823052 
L 221.064058 215.126284 
L 221.4 84.688887 
L 221.735942 83.169899 
L 222.071884 173.008882 
L 222.407827 173.508798 
L 222.743769 191.443696 
L 223.079711 173.66393 
L 223.415653 215.12556 
L 223.751595 87.737883 
L 224.087538 84.688548 
L 224.42348 84.722797 
L 224.759422 170.813547 
L 225.095364 173.28339 
L 225.767249 215.124973 
L 226.103191 91.126597 
L 226.439133 87.737506 
L 226.775075 87.737827 
L 227.111017 84.727832 
L 227.44696 169.284531 
L 227.782902 173.068863 
L 228.454786 215.122505 
L 228.790728 92.368666 
L 229.126671 91.126459 
L 229.462613 84.730623 
L 229.798555 168.210265 
L 230.134497 172.827191 
L 230.806382 215.122388 
L 231.142324 92.133903 
L 231.814208 92.642238 
L 232.150151 84.732544 
L 232.486093 167.697 
L 232.822035 172.571914 
L 233.493919 215.122309 
L 233.829862 91.798276 
L 234.165804 92.133485 
L 234.501746 92.649903 
L 234.837688 92.697269 
L 235.17363 84.735509 
L 235.509573 167.371877 
L 235.845515 172.013771 
L 236.517399 215.122237 
L 236.853341 91.593968 
L 237.189284 91.79802 
L 237.525226 92.653181 
L 237.861168 92.732884 
L 238.19711 84.740079 
L 238.533052 167.152065 
L 238.868995 159.355233 
L 239.540879 215.12219 
L 239.876821 91.558872 
L 240.212763 91.593924 
L 240.548706 92.655129 
L 240.884648 84.743372 
L 241.22059 166.84547 
L 241.556532 159.405954 
L 241.892474 157.234113 
L 242.228417 191.443492 
L 242.564359 90.256746 
L 242.900301 91.558753 
L 243.236243 91.688599 
L 243.572185 92.656942 
L 243.908128 84.745655 
L 244.24407 166.611485 
L 244.580012 159.45144 
L 244.915954 156.089854 
L 245.251896 191.443477 
L 245.587839 89.298403 
L 245.923781 90.256658 
L 246.259723 91.765688 
L 246.595665 92.658575 
L 246.931607 84.747487 
L 247.26755 164.941804 
L 247.603492 155.91897 
L 247.939434 191.443466 
L 248.275376 87.993861 
L 248.611318 89.298284 
L 248.947261 91.827112 
L 249.283203 92.660288 
L 249.619145 84.753447 
L 249.955087 162.855025 
L 250.29103 153.907428 
L 250.626972 155.788531 
L 250.962914 191.443457 
L 251.298856 87.070864 
L 251.634798 87.993777 
L 251.970741 91.852634 
L 252.306683 92.665517 
L 252.642625 84.802353 
L 252.978567 160.551072 
L 253.314509 155.666539 
L 253.650452 191.443447 
L 253.986394 84.490144 
L 254.322336 87.070629 
L 254.658278 91.856498 
L 254.99422 91.908021 
L 255.330163 92.670844 
L 255.666105 84.804823 
L 256.002047 154.306946 
L 256.337989 155.536453 
L 256.673931 191.443443 
L 257.009874 82.621802 
L 257.345816 84.489974 
L 257.681758 91.857936 
L 258.0177 91.950364 
L 258.353642 92.721152 
L 258.689585 84.8068 
L 259.025527 155.421346 
L 259.361469 191.443438 
L 259.697411 81.828839 
L 260.033353 82.621764 
L 260.369296 82.715986 
L 260.705238 91.860103 
L 261.04118 84.809066 
L 261.377122 155.303614 
L 261.713064 81.641098 
L 262.049007 81.82883 
L 262.384949 82.727967 
L 262.720891 91.861422 
L 263.056833 84.811111 
L 263.392775 154.695981 
L 263.728718 76.555631 
L 264.06466 81.640855 
L 264.400602 81.640796 
L 264.736544 82.736864 
L 265.072486 91.86303 
L 265.408429 84.813496 
L 265.744371 154.712123 
L 266.080313 153.293918 
L 266.416255 72.992004 
L 266.752197 76.555461 
L 267.08814 81.640693 
L 267.424082 82.745575 
L 267.760024 91.864458 
L 268.095966 84.815974 
L 268.431908 154.713095 
L 268.767851 146.594031 
L 269.103793 74.459211 
L 269.439735 71.970802 
L 269.775677 81.64062 
L 270.11162 82.827905 
L 270.447562 91.873904 
L 270.783504 84.818993 
L 271.119446 154.713605 
L 271.455388 126.701332 
L 271.791331 143.053661 
L 272.127273 75.768557 
L 272.463215 74.458907 
L 272.799157 74.458911 
L 273.135099 237.516233 
L 273.471042 71.969004 
L 273.806984 81.640537 
L 274.142926 82.866458 
L 274.478868 91.944298 
L 274.81481 84.82091 
L 275.150753 154.71405 
L 275.486695 116.204643 
L 275.822637 139.662775 
L 276.158579 75.765907 
L 276.830464 75.768361 
L 277.166406 241.309508 
L 277.502348 81.640493 
L 277.83829 82.884663 
L 278.174232 84.829255 
L 278.510175 154.714427 
L 278.846117 139.683278 
L 279.182059 138.458552 
L 279.518001 75.7632 
L 279.853943 81.640444 
L 280.189886 82.89688 
L 280.525828 84.864885 
L 280.86177 154.715042 
L 281.197712 139.688367 
L 281.533654 138.181508 
L 281.869597 75.76267 
L 282.205539 81.640407 
L 282.541481 82.915669 
L 282.877423 154.716562 
L 283.213365 139.691904 
L 283.549308 138.04403 
L 283.88525 75.761794 
L 284.221192 81.640372 
L 284.557134 82.952586 
L 284.893076 154.717651 
L 285.229019 139.696865 
L 285.564961 137.892959 
L 285.900903 81.640342 
L 286.236845 82.962851 
L 286.572787 154.719083 
L 286.90873 139.70877 
L 287.244672 137.718652 
L 287.580614 81.640306 
L 287.916556 82.965849 
L 288.252498 154.719982 
L 288.588441 139.717925 
L 288.924383 137.542446 
L 289.260325 81.640267 
L 289.596267 82.967012 
L 289.93221 82.973568 
L 290.268152 154.72082 
L 290.604094 139.724427 
L 290.940036 137.347106 
L 291.275978 81.640176 
L 291.611921 82.968114 
L 291.947863 82.983862 
L 292.283805 154.722276 
L 292.619747 139.731315 
L 292.955689 137.063053 
L 293.291632 81.640126 
L 293.627574 82.969264 
L 293.963516 83.027073 
L 294.299458 154.723752 
L 294.6354 139.737035 
L 294.971343 137.082032 
L 295.307285 135.792809 
L 295.643227 81.640101 
L 295.979169 82.977689 
L 296.315111 83.045614 
L 296.651054 154.72447 
L 296.986996 139.74661 
L 297.322938 137.093474 
L 297.65888 127.749526 
L 297.994822 81.640076 
L 298.330765 83.039816 
L 298.666707 154.725282 
L 299.002649 139.777899 
L 299.338591 137.10413 
L 299.674533 121.992301 
L 300.010476 154.726082 
L 300.346418 139.851806 
L 300.68236 137.114566 
L 301.018302 89.784804 
L 301.690187 154.727074 
L 302.026129 137.122425 
L 302.362071 88.189877 
L 302.698013 197.892998 
L 303.033955 123.545897 
L 303.369898 123.373423 
L 303.70584 154.728697 
L 304.041782 137.134957 
L 304.377724 87.690852 
L 304.713666 205.948763 
L 305.049609 123.610512 
L 305.385551 123.077292 
L 305.721493 154.733253 
L 306.057435 137.156167 
L 306.393377 196.353043 
L 306.72932 122.303316 
L 307.065262 123.077173 
L 307.401204 154.739467 
L 307.737146 137.315696 
L 308.073089 196.546548 
L 308.409031 116.8592 
L 308.744973 122.395189 
L 309.080915 123.077067 
L 309.416857 154.740073 
L 309.7528 137.447067 
L 310.088742 196.742111 
L 310.424684 111.240808 
L 310.760626 122.405089 
L 311.096568 123.076976 
L 311.432511 154.740564 
L 311.768453 137.488847 
L 312.104395 196.916777 
L 312.440337 106.725158 
L 312.776279 111.492654 
L 313.112222 122.408894 
L 313.448164 123.076879 
L 313.784106 154.741052 
L 314.120048 137.527026 
L 314.45599 197.113551 
L 314.791933 100.58937 
L 315.463817 122.412945 
L 315.799759 123.076806 
L 316.135701 154.741586 
L 316.471644 137.547898 
L 316.807586 197.271194 
L 317.143528 190.317133 
L 317.47947 111.544583 
L 317.815412 122.416329 
L 318.151355 123.076702 
L 318.487297 154.742091 
L 318.823239 137.564631 
L 319.159181 197.460274 
L 319.495123 196.084889 
L 319.831066 111.597312 
L 320.167008 111.546206 
L 320.50295 122.420363 
L 320.838892 123.076588 
L 321.174834 154.742577 
L 321.510777 137.578952 
L 321.846719 197.664016 
L 322.182661 194.136765 
L 322.518603 217.897149 
L 322.854545 111.640643 
L 323.190488 111.547393 
L 323.52643 122.424321 
L 323.862372 123.07651 
L 324.198314 154.743268 
L 324.534256 137.59582 
L 324.870199 198.035704 
L 325.206141 191.450735 
L 325.542083 236.128573 
L 325.878025 111.548406 
L 326.213967 122.429798 
L 326.54991 123.076441 
L 326.885852 154.744132 
L 327.221794 137.61129 
L 327.557736 200.816305 
L 327.893679 98.880371 
L 328.229621 241.784155 
L 328.565563 236.356077 
L 328.901505 111.550138 
L 329.237447 122.43738 
L 329.57339 123.076401 
L 329.909332 154.748309 
L 330.245274 137.635378 
L 330.581216 209.336813 
L 330.917158 104.236556 
L 331.253101 234.94833 
L 331.589043 236.573581 
L 331.924985 111.552589 
L 332.260927 122.445455 
L 332.596869 123.076358 
L 332.932812 154.784742 
L 333.268754 137.684189 
L 333.604696 108.421931 
L 333.940638 236.808042 
L 334.27658 111.554428 
L 334.612523 122.450852 
L 334.948465 123.076324 
L 335.284407 137.693109 
L 335.620349 137.718252 
L 335.956291 112.204889 
L 336.292234 237.017378 
L 336.628176 111.557509 
L 336.964118 122.456379 
L 337.30006 123.076295 
L 337.636002 137.700934 
L 337.971945 137.773268 
L 338.307887 112.210144 
L 338.643829 112.992132 
L 338.979771 237.248535 
L 339.315713 111.57912 
L 339.651656 122.459038 
L 339.987598 123.076264 
L 340.32354 137.707445 
L 340.659482 137.820708 
L 340.995424 112.215444 
L 341.331367 114.908046 
L 341.667309 112.991939 
L 342.003251 237.397556 
L 342.339193 111.627369 
L 342.675135 122.463294 
L 343.011078 123.076184 
L 343.34702 137.712538 
L 343.682962 137.847803 
L 344.018904 112.220787 
L 344.354846 116.514803 
L 344.690789 114.907884 
L 345.026731 237.626423 
L 345.362673 122.467313 
L 345.698615 123.076123 
L 346.034557 137.717748 
L 346.3705 112.226128 
L 346.706442 118.242379 
L 347.042384 116.514629 
L 347.378326 239.508739 
L 347.714269 122.473091 
L 348.050211 123.076092 
L 348.386153 137.722296 
L 348.722095 112.231522 
L 349.058037 119.66107 
L 349.39398 118.242236 
L 349.729922 238.8939 
L 350.065864 122.534446 
L 350.401806 137.725581 
L 350.737748 112.236944 
L 351.073691 121.184501 
L 351.409633 119.660916 
L 351.745575 122.559133 
L 352.081517 137.729417 
L 352.417459 112.242401 
L 352.753402 121.173153 
L 353.425286 121.184273 
L 353.761228 122.571744 
L 354.09717 137.73523 
L 354.433113 112.24508 
L 354.769055 121.171611 
L 355.440939 121.181265 
L 355.776881 122.574551 
L 356.112824 137.74478 
L 356.448766 112.305646 
L 356.784708 121.167603 
L 357.456592 121.178087 
L 357.792535 122.576775 
L 358.128477 137.780199 
L 358.464419 137.855698 
L 358.800361 112.345258 
L 359.136303 121.163287 
L 359.808188 121.174458 
L 360.14413 122.579171 
L 360.480072 112.3801 
L 360.816014 121.162778 
L 361.487899 121.173296 
L 361.823841 122.5811 
L 362.159783 112.416855 
L 362.495725 121.162395 
L 363.503552 121.172784 
L 363.839494 122.582983 
L 364.175436 112.479969 
L 364.511379 121.162099 
L 365.519205 121.172569 
L 365.855148 122.584872 
L 366.19109 112.495536 
L 366.527032 121.161739 
L 366.862974 121.160895 
L 367.198916 122.58675 
L 367.534859 112.504141 
L 367.870801 112.396417 
L 368.206743 121.161397 
L 368.542685 122.620521 
L 368.878627 112.518427 
L 369.21457 112.312662 
L 369.550512 121.160512 
L 369.886454 122.696003 
L 370.222396 122.667755 
L 370.558338 112.521283 
L 370.894281 112.172411 
L 371.230223 121.159708 
L 371.566165 122.746727 
L 371.902107 112.523723 
L 373.581818 112.61473 
L 373.581818 112.61473 
" style="fill:none;stroke:#0000ff;stroke-linecap:square;stroke-width:1.5;"/>
   </g>
   <g id="patch_3">
    <path d="M 54 252 
L 54 34.56 
" style="fill:none;stroke:#000000;stroke-linecap:square;stroke-linejoin:miter;stroke-width:0.8;"/>
   </g>
   <g id="patch_4">
    <path d="M 388.8 252 
L 388.8 34.56 
" style="fill:none;stroke:#000000;stroke-linecap:square;stroke-linejoin:miter;stroke-width:0.8;"/>
   </g>
   <g id="patch_5">
    <path d="M 54 252 
L 388.8 252 
" style="fill:none;stroke:#000000;stroke-linecap:square;stroke-linejoin:miter;stroke-width:0.8;"/>
   </g>
   <g id="patch_6">
    <path d="M 54 34.56 
L 388.8 34.56 
" style="fill:none;stroke:#000000;stroke-linecap:square;stroke-linejoin:miter;stroke-width:0.8;"/>
   </g>
   <g id="legend_1">
    <g id="patch_7">
     <path d="M 143.278125 87.42875 
L 381.8 87.42875 
Q 383.8 87.42875 383.8 85.42875 
L 383.8 41.56 
Q 383.8 39.56 381.8 39.56 
L 143.278125 39.56 
Q 141.278125 39.56 141.278125 41.56 
L 141.278125 85.42875 
Q 141.278125 87.42875 143.278125 87.42875 
z
" style="fill:#ffffff;opacity:0.8;stroke:#cccccc;stroke-linejoin:miter;"/>
    </g>
    <g id="line2d_15">
     <path d="M 145.278125 47.658437 
L 165.278125 47.658437 
" style="fill:none;stroke:#ff0000;stroke-linecap:square;stroke-width:1.5;"/>
    </g>
    <g id="line2d_16"/>
    <g id="text_8">
     <!-- off_startpowerfactory_OpenDSS_Phase_A -->
     <defs>
      <path d="M 30.609375 48.390625 
Q 23.390625 48.390625 19.1875 42.75 
Q 14.984375 37.109375 14.984375 27.296875 
Q 14.984375 17.484375 19.15625 11.84375 
Q 23.34375 6.203125 30.609375 6.203125 
Q 37.796875 6.203125 41.984375 11.859375 
Q 46.1875 17.53125 46.1875 27.296875 
Q 46.1875 37.015625 41.984375 42.703125 
Q 37.796875 48.390625 30.609375 48.390625 
z
M 30.609375 56 
Q 42.328125 56 49.015625 48.375 
Q 55.71875 40.765625 55.71875 27.296875 
Q 55.71875 13.875 49.015625 6.21875 
Q 42.328125 -1.421875 30.609375 -1.421875 
Q 18.84375 -1.421875 12.171875 6.21875 
Q 5.515625 13.875 5.515625 27.296875 
Q 5.515625 40.765625 12.171875 48.375 
Q 18.84375 56 30.609375 56 
z
" id="DejaVuSans-111"/>
      <path d="M 37.109375 75.984375 
L 37.109375 68.5 
L 28.515625 68.5 
Q 23.6875 68.5 21.796875 66.546875 
Q 19.921875 64.59375 19.921875 59.515625 
L 19.921875 54.6875 
L 34.71875 54.6875 
L 34.71875 47.703125 
L 19.921875 47.703125 
L 19.921875 0 
L 10.890625 0 
L 10.890625 47.703125 
L 2.296875 47.703125 
L 2.296875 54.6875 
L 10.890625 54.6875 
L 10.890625 58.5 
Q 10.890625 67.625 15.140625 71.796875 
Q 19.390625 75.984375 28.609375 75.984375 
z
" id="DejaVuSans-102"/>
      <path d="M 50.984375 -16.609375 
L 50.984375 -23.578125 
L -0.984375 -23.578125 
L -0.984375 -16.609375 
z
" id="DejaVuSans-95"/>
      <path d="M 18.3125 70.21875 
L 18.3125 54.6875 
L 36.8125 54.6875 
L 36.8125 47.703125 
L 18.3125 47.703125 
L 18.3125 18.015625 
Q 18.3125 11.328125 20.140625 9.421875 
Q 21.96875 7.515625 27.59375 7.515625 
L 36.8125 7.515625 
L 36.8125 0 
L 27.59375 0 
Q 17.1875 0 13.234375 3.875 
Q 9.28125 7.765625 9.28125 18.015625 
L 9.28125 47.703125 
L 2.6875 47.703125 
L 2.6875 54.6875 
L 9.28125 54.6875 
L 9.28125 70.21875 
z
" id="DejaVuSans-116"/>
      <path d="M 34.28125 27.484375 
Q 23.390625 27.484375 19.1875 25 
Q 14.984375 22.515625 14.984375 16.5 
Q 14.984375 11.71875 18.140625 8.90625 
Q 21.296875 6.109375 26.703125 6.109375 
Q 34.1875 6.109375 38.703125 11.40625 
Q 43.21875 16.703125 43.21875 25.484375 
L 43.21875 27.484375 
z
M 52.203125 31.203125 
L 52.203125 0 
L 43.21875 0 
L 43.21875 8.296875 
Q 40.140625 3.328125 35.546875 0.953125 
Q 30.953125 -1.421875 24.3125 -1.421875 
Q 15.921875 -1.421875 10.953125 3.296875 
Q 6 8.015625 6 15.921875 
Q 6 25.140625 12.171875 29.828125 
Q 18.359375 34.515625 30.609375 34.515625 
L 43.21875 34.515625 
L 43.21875 35.40625 
Q 43.21875 41.609375 39.140625 45 
Q 35.0625 48.390625 27.6875 48.390625 
Q 23 48.390625 18.546875 47.265625 
Q 14.109375 46.140625 10.015625 43.890625 
L 10.015625 52.203125 
Q 14.9375 54.109375 19.578125 55.046875 
Q 24.21875 56 28.609375 56 
Q 40.484375 56 46.34375 49.84375 
Q 52.203125 43.703125 52.203125 31.203125 
z
" id="DejaVuSans-97"/>
      <path d="M 41.109375 46.296875 
Q 39.59375 47.171875 37.8125 47.578125 
Q 36.03125 48 33.890625 48 
Q 26.265625 48 22.1875 43.046875 
Q 18.109375 38.09375 18.109375 28.8125 
L 18.109375 0 
L 9.078125 0 
L 9.078125 54.6875 
L 18.109375 54.6875 
L 18.109375 46.1875 
Q 20.953125 51.171875 25.484375 53.578125 
Q 30.03125 56 36.53125 56 
Q 37.453125 56 38.578125 55.875 
Q 39.703125 55.765625 41.0625 55.515625 
z
" id="DejaVuSans-114"/>
      <path d="M 18.109375 8.203125 
L 18.109375 -20.796875 
L 9.078125 -20.796875 
L 9.078125 54.6875 
L 18.109375 54.6875 
L 18.109375 46.390625 
Q 20.953125 51.265625 25.265625 53.625 
Q 29.59375 56 35.59375 56 
Q 45.5625 56 51.78125 48.09375 
Q 58.015625 40.1875 58.015625 27.296875 
Q 58.015625 14.40625 51.78125 6.484375 
Q 45.5625 -1.421875 35.59375 -1.421875 
Q 29.59375 -1.421875 25.265625 0.953125 
Q 20.953125 3.328125 18.109375 8.203125 
z
M 48.6875 27.296875 
Q 48.6875 37.203125 44.609375 42.84375 
Q 40.53125 48.484375 33.40625 48.484375 
Q 26.265625 48.484375 22.1875 42.84375 
Q 18.109375 37.203125 18.109375 27.296875 
Q 18.109375 17.390625 22.1875 11.75 
Q 26.265625 6.109375 33.40625 6.109375 
Q 40.53125 6.109375 44.609375 11.75 
Q 48.6875 17.390625 48.6875 27.296875 
z
" id="DejaVuSans-112"/>
      <path d="M 4.203125 54.6875 
L 13.1875 54.6875 
L 24.421875 12.015625 
L 35.59375 54.6875 
L 46.1875 54.6875 
L 57.421875 12.015625 
L 68.609375 54.6875 
L 77.59375 54.6875 
L 63.28125 0 
L 52.6875 0 
L 40.921875 44.828125 
L 29.109375 0 
L 18.5 0 
z
" id="DejaVuSans-119"/>
      <path d="M 56.203125 29.59375 
L 56.203125 25.203125 
L 14.890625 25.203125 
Q 15.484375 15.921875 20.484375 11.0625 
Q 25.484375 6.203125 34.421875 6.203125 
Q 39.59375 6.203125 44.453125 7.46875 
Q 49.3125 8.734375 54.109375 11.28125 
L 54.109375 2.78125 
Q 49.265625 0.734375 44.1875 -0.34375 
Q 39.109375 -1.421875 33.890625 -1.421875 
Q 20.796875 -1.421875 13.15625 6.1875 
Q 5.515625 13.8125 5.515625 26.8125 
Q 5.515625 40.234375 12.765625 48.109375 
Q 20.015625 56 32.328125 56 
Q 43.359375 56 49.78125 48.890625 
Q 56.203125 41.796875 56.203125 29.59375 
z
M 47.21875 32.234375 
Q 47.125 39.59375 43.09375 43.984375 
Q 39.0625 48.390625 32.421875 48.390625 
Q 24.90625 48.390625 20.390625 44.140625 
Q 15.875 39.890625 15.1875 32.171875 
z
" id="DejaVuSans-101"/>
      <path d="M 48.78125 52.59375 
L 48.78125 44.1875 
Q 44.96875 46.296875 41.140625 47.34375 
Q 37.3125 48.390625 33.40625 48.390625 
Q 24.65625 48.390625 19.8125 42.84375 
Q 14.984375 37.3125 14.984375 27.296875 
Q 14.984375 17.28125 19.8125 11.734375 
Q 24.65625 6.203125 33.40625 6.203125 
Q 37.3125 6.203125 41.140625 7.25 
Q 44.96875 8.296875 48.78125 10.40625 
L 48.78125 2.09375 
Q 45.015625 0.34375 40.984375 -0.53125 
Q 36.96875 -1.421875 32.421875 -1.421875 
Q 20.0625 -1.421875 12.78125 6.34375 
Q 5.515625 14.109375 5.515625 27.296875 
Q 5.515625 40.671875 12.859375 48.328125 
Q 20.21875 56 33.015625 56 
Q 37.15625 56 41.109375 55.140625 
Q 45.0625 54.296875 48.78125 52.59375 
z
" id="DejaVuSans-99"/>
      <path d="M 32.171875 -5.078125 
Q 28.375 -14.84375 24.75 -17.8125 
Q 21.140625 -20.796875 15.09375 -20.796875 
L 7.90625 -20.796875 
L 7.90625 -13.28125 
L 13.1875 -13.28125 
Q 16.890625 -13.28125 18.9375 -11.515625 
Q 21 -9.765625 23.484375 -3.21875 
L 25.09375 0.875 
L 2.984375 54.6875 
L 12.5 54.6875 
L 29.59375 11.921875 
L 46.6875 54.6875 
L 56.203125 54.6875 
z
" id="DejaVuSans-121"/>
      <path d="M 39.40625 66.21875 
Q 28.65625 66.21875 22.328125 58.203125 
Q 16.015625 50.203125 16.015625 36.375 
Q 16.015625 22.609375 22.328125 14.59375 
Q 28.65625 6.59375 39.40625 6.59375 
Q 50.140625 6.59375 56.421875 14.59375 
Q 62.703125 22.609375 62.703125 36.375 
Q 62.703125 50.203125 56.421875 58.203125 
Q 50.140625 66.21875 39.40625 66.21875 
z
M 39.40625 74.21875 
Q 54.734375 74.21875 63.90625 63.9375 
Q 73.09375 53.65625 73.09375 36.375 
Q 73.09375 19.140625 63.90625 8.859375 
Q 54.734375 -1.421875 39.40625 -1.421875 
Q 24.03125 -1.421875 14.8125 8.828125 
Q 5.609375 19.09375 5.609375 36.375 
Q 5.609375 53.65625 14.8125 63.9375 
Q 24.03125 74.21875 39.40625 74.21875 
z
" id="DejaVuSans-79"/>
      <path d="M 54.890625 33.015625 
L 54.890625 0 
L 45.90625 0 
L 45.90625 32.71875 
Q 45.90625 40.484375 42.875 44.328125 
Q 39.84375 48.1875 33.796875 48.1875 
Q 26.515625 48.1875 22.3125 43.546875 
Q 18.109375 38.921875 18.109375 30.90625 
L 18.109375 0 
L 9.078125 0 
L 9.078125 54.6875 
L 18.109375 54.6875 
L 18.109375 46.1875 
Q 21.34375 51.125 25.703125 53.5625 
Q 30.078125 56 35.796875 56 
Q 45.21875 56 50.046875 50.171875 
Q 54.890625 44.34375 54.890625 33.015625 
z
" id="DejaVuSans-110"/>
      <path d="M 19.671875 64.796875 
L 19.671875 8.109375 
L 31.59375 8.109375 
Q 46.6875 8.109375 53.6875 14.9375 
Q 60.6875 21.78125 60.6875 36.53125 
Q 60.6875 51.171875 53.6875 57.984375 
Q 46.6875 64.796875 31.59375 64.796875 
z
M 9.8125 72.90625 
L 30.078125 72.90625 
Q 51.265625 72.90625 61.171875 64.09375 
Q 71.09375 55.28125 71.09375 36.53125 
Q 71.09375 17.671875 61.125 8.828125 
Q 51.171875 0 30.078125 0 
L 9.8125 0 
z
" id="DejaVuSans-68"/>
      <path d="M 53.515625 70.515625 
L 53.515625 60.890625 
Q 47.90625 63.578125 42.921875 64.890625 
Q 37.9375 66.21875 33.296875 66.21875 
Q 25.25 66.21875 20.875 63.09375 
Q 16.5 59.96875 16.5 54.203125 
Q 16.5 49.359375 19.40625 46.890625 
Q 22.3125 44.4375 30.421875 42.921875 
L 36.375 41.703125 
Q 47.40625 39.59375 52.65625 34.296875 
Q 57.90625 29 57.90625 20.125 
Q 57.90625 9.515625 50.796875 4.046875 
Q 43.703125 -1.421875 29.984375 -1.421875 
Q 24.8125 -1.421875 18.96875 -0.25 
Q 13.140625 0.921875 6.890625 3.21875 
L 6.890625 13.375 
Q 12.890625 10.015625 18.65625 8.296875 
Q 24.421875 6.59375 29.984375 6.59375 
Q 38.421875 6.59375 43.015625 9.90625 
Q 47.609375 13.234375 47.609375 19.390625 
Q 47.609375 24.75 44.3125 27.78125 
Q 41.015625 30.8125 33.5 32.328125 
L 27.484375 33.5 
Q 16.453125 35.6875 11.515625 40.375 
Q 6.59375 45.0625 6.59375 53.421875 
Q 6.59375 63.09375 13.40625 68.65625 
Q 20.21875 74.21875 32.171875 74.21875 
Q 37.3125 74.21875 42.625 73.28125 
Q 47.953125 72.359375 53.515625 70.515625 
z
" id="DejaVuSans-83"/>
      <path d="M 19.671875 64.796875 
L 19.671875 37.40625 
L 32.078125 37.40625 
Q 38.96875 37.40625 42.71875 40.96875 
Q 46.484375 44.53125 46.484375 51.125 
Q 46.484375 57.671875 42.71875 61.234375 
Q 38.96875 64.796875 32.078125 64.796875 
z
M 9.8125 72.90625 
L 32.078125 72.90625 
Q 44.34375 72.90625 50.609375 67.359375 
Q 56.890625 61.8125 56.890625 51.125 
Q 56.890625 40.328125 50.609375 34.8125 
Q 44.34375 29.296875 32.078125 29.296875 
L 19.671875 29.296875 
L 19.671875 0 
L 9.8125 0 
z
" id="DejaVuSans-80"/>
      <path d="M 54.890625 33.015625 
L 54.890625 0 
L 45.90625 0 
L 45.90625 32.71875 
Q 45.90625 40.484375 42.875 44.328125 
Q 39.84375 48.1875 33.796875 48.1875 
Q 26.515625 48.1875 22.3125 43.546875 
Q 18.109375 38.921875 18.109375 30.90625 
L 18.109375 0 
L 9.078125 0 
L 9.078125 75.984375 
L 18.109375 75.984375 
L 18.109375 46.1875 
Q 21.34375 51.125 25.703125 53.5625 
Q 30.078125 56 35.796875 56 
Q 45.21875 56 50.046875 50.171875 
Q 54.890625 44.34375 54.890625 33.015625 
z
" id="DejaVuSans-104"/>
      <path d="M 34.1875 63.1875 
L 20.796875 26.90625 
L 47.609375 26.90625 
z
M 28.609375 72.90625 
L 39.796875 72.90625 
L 67.578125 0 
L 57.328125 0 
L 50.6875 18.703125 
L 17.828125 18.703125 
L 11.1875 0 
L 0.78125 0 
z
" id="DejaVuSans-65"/>
     </defs>
     <g transform="translate(173.278125 51.158437)scale(0.1 -0.1)">
      <use xlink:href="#DejaVuSans-111"/>
      <use x="61.181641" xlink:href="#DejaVuSans-102"/>
      <use x="96.386719" xlink:href="#DejaVuSans-102"/>
      <use x="131.591797" xlink:href="#DejaVuSans-95"/>
      <use x="181.591797" xlink:href="#DejaVuSans-115"/>
      <use x="233.691406" xlink:href="#DejaVuSans-116"/>
      <use x="272.900391" xlink:href="#DejaVuSans-97"/>
      <use x="334.179688" xlink:href="#DejaVuSans-114"/>
      <use x="375.292969" xlink:href="#DejaVuSans-116"/>
      <use x="414.501953" xlink:href="#DejaVuSans-112"/>
      <use x="477.978516" xlink:href="#DejaVuSans-111"/>
      <use x="539.160156" xlink:href="#DejaVuSans-119"/>
      <use x="620.947266" xlink:href="#DejaVuSans-101"/>
      <use x="682.470703" xlink:href="#DejaVuSans-114"/>
      <use x="723.583984" xlink:href="#DejaVuSans-102"/>
      <use x="758.789062" xlink:href="#DejaVuSans-97"/>
      <use x="820.068359" xlink:href="#DejaVuSans-99"/>
      <use x="875.048828" xlink:href="#DejaVuSans-116"/>
      <use x="914.257812" xlink:href="#DejaVuSans-111"/>
      <use x="975.439453" xlink:href="#DejaVuSans-114"/>
      <use x="1016.552734" xlink:href="#DejaVuSans-121"/>
      <use x="1075.732422" xlink:href="#DejaVuSans-95"/>
      <use x="1125.732422" xlink:href="#DejaVuSans-79"/>
      <use x="1204.443359" xlink:href="#DejaVuSans-112"/>
      <use x="1267.919922" xlink:href="#DejaVuSans-101"/>
      <use x="1329.443359" xlink:href="#DejaVuSans-110"/>
      <use x="1392.822266" xlink:href="#DejaVuSans-68"/>
      <use x="1469.824219" xlink:href="#DejaVuSans-83"/>
      <use x="1533.300781" xlink:href="#DejaVuSans-83"/>
      <use x="1596.777344" xlink:href="#DejaVuSans-95"/>
      <use x="1646.777344" xlink:href="#DejaVuSans-80"/>
      <use x="1707.080078" xlink:href="#DejaVuSans-104"/>
      <use x="1770.458984" xlink:href="#DejaVuSans-97"/>
      <use x="1831.738281" xlink:href="#DejaVuSans-115"/>
      <use x="1883.837891" xlink:href="#DejaVuSans-101"/>
      <use x="1945.361328" xlink:href="#DejaVuSans-95"/>
      <use x="1995.361328" xlink:href="#DejaVuSans-65"/>
     </g>
    </g>
    <g id="line2d_17">
     <path d="M 145.278125 62.614688 
L 165.278125 62.614688 
" style="fill:none;stroke:#ffff00;stroke-linecap:square;stroke-width:1.5;"/>
    </g>
    <g id="line2d_18"/>
    <g id="text_9">
     <!-- off_startpowerfactory_OpenDSS_Phase_B -->
     <g transform="translate(173.278125 66.114688)scale(0.1 -0.1)">
      <use xlink:href="#DejaVuSans-111"/>
      <use x="61.181641" xlink:href="#DejaVuSans-102"/>
      <use x="96.386719" xlink:href="#DejaVuSans-102"/>
      <use x="131.591797" xlink:href="#DejaVuSans-95"/>
      <use x="181.591797" xlink:href="#DejaVuSans-115"/>
      <use x="233.691406" xlink:href="#DejaVuSans-116"/>
      <use x="272.900391" xlink:href="#DejaVuSans-97"/>
      <use x="334.179688" xlink:href="#DejaVuSans-114"/>
      <use x="375.292969" xlink:href="#DejaVuSans-116"/>
      <use x="414.501953" xlink:href="#DejaVuSans-112"/>
      <use x="477.978516" xlink:href="#DejaVuSans-111"/>
      <use x="539.160156" xlink:href="#DejaVuSans-119"/>
      <use x="620.947266" xlink:href="#DejaVuSans-101"/>
      <use x="682.470703" xlink:href="#DejaVuSans-114"/>
      <use x="723.583984" xlink:href="#DejaVuSans-102"/>
      <use x="758.789062" xlink:href="#DejaVuSans-97"/>
      <use x="820.068359" xlink:href="#DejaVuSans-99"/>
      <use x="875.048828" xlink:href="#DejaVuSans-116"/>
      <use x="914.257812" xlink:href="#DejaVuSans-111"/>
      <use x="975.439453" xlink:href="#DejaVuSans-114"/>
      <use x="1016.552734" xlink:href="#DejaVuSans-121"/>
      <use x="1075.732422" xlink:href="#DejaVuSans-95"/>
      <use x="1125.732422" xlink:href="#DejaVuSans-79"/>
      <use x="1204.443359" xlink:href="#DejaVuSans-112"/>
      <use x="1267.919922" xlink:href="#DejaVuSans-101"/>
      <use x="1329.443359" xlink:href="#DejaVuSans-110"/>
      <use x="1392.822266" xlink:href="#DejaVuSans-68"/>
      <use x="1469.824219" xlink:href="#DejaVuSans-83"/>
      <use x="1533.300781" xlink:href="#DejaVuSans-83"/>
      <use x="1596.777344" xlink:href="#DejaVuSans-95"/>
      <use x="1646.777344" xlink:href="#DejaVuSans-80"/>
      <use x="1707.080078" xlink:href="#DejaVuSans-104"/>
      <use x="1770.458984" xlink:href="#DejaVuSans-97"/>
      <use x="1831.738281" xlink:href="#DejaVuSans-115"/>
      <use x="1883.837891" xlink:href="#DejaVuSans-101"/>
      <use x="1945.361328" xlink:href="#DejaVuSans-95"/>
      <use x="1995.361328" xlink:href="#DejaVuSans-66"/>
     </g>
    </g>
    <g id="line2d_19">
     <path d="M 145.278125 77.570937 
L 165.278125 77.570937 
" style="fill:none;stroke:#0000ff;stroke-linecap:square;stroke-width:1.5;"/>
    </g>
    <g id="line2d_20"/>
    <g id="text_10">
     <!-- off_startpowerfactory_OpenDSS_Phase_C -->
     <defs>
      <path d="M 64.40625 67.28125 
L 64.40625 56.890625 
Q 59.421875 61.53125 53.78125 63.8125 
Q 48.140625 66.109375 41.796875 66.109375 
Q 29.296875 66.109375 22.65625 58.46875 
Q 16.015625 50.828125 16.015625 36.375 
Q 16.015625 21.96875 22.65625 14.328125 
Q 29.296875 6.6875 41.796875 6.6875 
Q 48.140625 6.6875 53.78125 8.984375 
Q 59.421875 11.28125 64.40625 15.921875 
L 64.40625 5.609375 
Q 59.234375 2.09375 53.4375 0.328125 
Q 47.65625 -1.421875 41.21875 -1.421875 
Q 24.65625 -1.421875 15.125 8.703125 
Q 5.609375 18.84375 5.609375 36.375 
Q 5.609375 53.953125 15.125 64.078125 
Q 24.65625 74.21875 41.21875 74.21875 
Q 47.75 74.21875 53.53125 72.484375 
Q 59.328125 70.75 64.40625 67.28125 
z
" id="DejaVuSans-67"/>
     </defs>
     <g transform="translate(173.278125 81.070937)scale(0.1 -0.1)">
      <use xlink:href="#DejaVuSans-111"/>
      <use x="61.181641" xlink:href="#DejaVuSans-102"/>
      <use x="96.386719" xlink:href="#DejaVuSans-102"/>
      <use x="131.591797" xlink:href="#DejaVuSans-95"/>
      <use x="181.591797" xlink:href="#DejaVuSans-115"/>
      <use x="233.691406" xlink:href="#DejaVuSans-116"/>
      <use x="272.900391" xlink:href="#DejaVuSans-97"/>
      <use x="334.179688" xlink:href="#DejaVuSans-114"/>
      <use x="375.292969" xlink:href="#DejaVuSans-116"/>
      <use x="414.501953" xlink:href="#DejaVuSans-112"/>
      <use x="477.978516" xlink:href="#DejaVuSans-111"/>
      <use x="539.160156" xlink:href="#DejaVuSans-119"/>
      <use x="620.947266" xlink:href="#DejaVuSans-101"/>
      <use x="682.470703" xlink:href="#DejaVuSans-114"/>
      <use x="723.583984" xlink:href="#DejaVuSans-102"/>
      <use x="758.789062" xlink:href="#DejaVuSans-97"/>
      <use x="820.068359" xlink:href="#DejaVuSans-99"/>
      <use x="875.048828" xlink:href="#DejaVuSans-116"/>
      <use x="914.257812" xlink:href="#DejaVuSans-111"/>
      <use x="975.439453" xlink:href="#DejaVuSans-114"/>
      <use x="1016.552734" xlink:href="#DejaVuSans-121"/>
      <use x="1075.732422" xlink:href="#DejaVuSans-95"/>
      <use x="1125.732422" xlink:href="#DejaVuSans-79"/>
      <use x="1204.443359" xlink:href="#DejaVuSans-112"/>
      <use x="1267.919922" xlink:href="#DejaVuSans-101"/>
      <use x="1329.443359" xlink:href="#DejaVuSans-110"/>
      <use x="1392.822266" xlink:href="#DejaVuSans-68"/>
      <use x="1469.824219" xlink:href="#DejaVuSans-83"/>
      <use x="1533.300781" xlink:href="#DejaVuSans-83"/>
      <use x="1596.777344" xlink:href="#DejaVuSans-95"/>
      <use x="1646.777344" xlink:href="#DejaVuSans-80"/>
      <use x="1707.080078" xlink:href="#DejaVuSans-104"/>
      <use x="1770.458984" xlink:href="#DejaVuSans-97"/>
      <use x="1831.738281" xlink:href="#DejaVuSans-115"/>
      <use x="1883.837891" xlink:href="#DejaVuSans-101"/>
      <use x="1945.361328" xlink:href="#DejaVuSans-95"/>
      <use x="1995.361328" xlink:href="#DejaVuSans-67"/>
     </g>
    </g>
   </g>
  </g>
 </g>
 <defs>
  <clipPath id="p49cdce7107">
   <rect height="217.44" width="334.8" x="54" y="34.56"/>
  </clipPath>
 </defs>
</svg>
