<?xml version="1.0" encoding="utf-8" standalone="no"?>
<!DOCTYPE svg PUBLIC "-//W3C//DTD SVG 1.1//EN"
  "http://www.w3.org/Graphics/SVG/1.1/DTD/svg11.dtd">
<!-- Created with matplotlib (https://matplotlib.org/) -->
<svg height="288pt" version="1.1" viewBox="0 0 432 288" width="432pt" xmlns="http://www.w3.org/2000/svg" xmlns:xlink="http://www.w3.org/1999/xlink">
 <defs>
  <style type="text/css">
*{stroke-linecap:butt;stroke-linejoin:round;}
  </style>
 </defs>
 <g id="figure_1">
  <g id="patch_1">
   <path d="M 0 288 
L 432 288 
L 432 0 
L 0 0 
z
" style="fill:#ffffff;"/>
  </g>
  <g id="axes_1">
   <g id="patch_2">
    <path d="M 54 252 
L 388.8 252 
L 388.8 34.56 
L 54 34.56 
z
" style="fill:#ffffff;"/>
   </g>
   <g id="matplotlib.axis_1">
    <g id="xtick_1">
     <g id="line2d_1">
      <defs>
       <path d="M 0 0 
L 0 3.5 
" id="m9a5fda81f6" style="stroke:#000000;stroke-width:0.8;"/>
      </defs>
      <g>
       <use style="stroke:#000000;stroke-width:0.8;" x="69.218182" xlink:href="#m9a5fda81f6" y="252"/>
      </g>
     </g>
    </g>
    <g id="xtick_2">
     <g id="line2d_2">
      <g>
       <use style="stroke:#000000;stroke-width:0.8;" x="136.406623" xlink:href="#m9a5fda81f6" y="252"/>
      </g>
     </g>
    </g>
    <g id="xtick_3">
     <g id="line2d_3">
      <g>
       <use style="stroke:#000000;stroke-width:0.8;" x="203.595063" xlink:href="#m9a5fda81f6" y="252"/>
      </g>
     </g>
    </g>
    <g id="xtick_4">
     <g id="line2d_4">
      <g>
       <use style="stroke:#000000;stroke-width:0.8;" x="270.783504" xlink:href="#m9a5fda81f6" y="252"/>
      </g>
     </g>
    </g>
    <g id="xtick_5">
     <g id="line2d_5">
      <g>
       <use style="stroke:#000000;stroke-width:0.8;" x="337.971945" xlink:href="#m9a5fda81f6" y="252"/>
      </g>
     </g>
    </g>
    <g id="text_1">
     <!-- Bus -->
     <defs>
      <path d="M 19.671875 34.8125 
L 19.671875 8.109375 
L 35.5 8.109375 
Q 43.453125 8.109375 47.28125 11.40625 
Q 51.125 14.703125 51.125 21.484375 
Q 51.125 28.328125 47.28125 31.5625 
Q 43.453125 34.8125 35.5 34.8125 
z
M 19.671875 64.796875 
L 19.671875 42.828125 
L 34.28125 42.828125 
Q 41.5 42.828125 45.03125 45.53125 
Q 48.578125 48.25 48.578125 53.8125 
Q 48.578125 59.328125 45.03125 62.0625 
Q 41.5 64.796875 34.28125 64.796875 
z
M 9.8125 72.90625 
L 35.015625 72.90625 
Q 46.296875 72.90625 52.390625 68.21875 
Q 58.5 63.53125 58.5 54.890625 
Q 58.5 48.1875 55.375 44.234375 
Q 52.25 40.28125 46.1875 39.3125 
Q 53.46875 37.75 57.5 32.78125 
Q 61.53125 27.828125 61.53125 20.40625 
Q 61.53125 10.640625 54.890625 5.3125 
Q 48.25 0 35.984375 0 
L 9.8125 0 
z
" id="DejaVuSans-66"/>
      <path d="M 8.5 21.578125 
L 8.5 54.6875 
L 17.484375 54.6875 
L 17.484375 21.921875 
Q 17.484375 14.15625 20.5 10.265625 
Q 23.53125 6.390625 29.59375 6.390625 
Q 36.859375 6.390625 41.078125 11.03125 
Q 45.3125 15.671875 45.3125 23.6875 
L 45.3125 54.6875 
L 54.296875 54.6875 
L 54.296875 0 
L 45.3125 0 
L 45.3125 8.40625 
Q 42.046875 3.421875 37.71875 1 
Q 33.40625 -1.421875 27.6875 -1.421875 
Q 18.265625 -1.421875 13.375 4.4375 
Q 8.5 10.296875 8.5 21.578125 
z
M 31.109375 56 
z
" id="DejaVuSans-117"/>
      <path d="M 44.28125 53.078125 
L 44.28125 44.578125 
Q 40.484375 46.53125 36.375 47.5 
Q 32.28125 48.484375 27.875 48.484375 
Q 21.1875 48.484375 17.84375 46.4375 
Q 14.5 44.390625 14.5 40.28125 
Q 14.5 37.15625 16.890625 35.375 
Q 19.28125 33.59375 26.515625 31.984375 
L 29.59375 31.296875 
Q 39.15625 29.25 43.1875 25.515625 
Q 47.21875 21.78125 47.21875 15.09375 
Q 47.21875 7.46875 41.1875 3.015625 
Q 35.15625 -1.421875 24.609375 -1.421875 
Q 20.21875 -1.421875 15.453125 -0.5625 
Q 10.6875 0.296875 5.421875 2 
L 5.421875 11.28125 
Q 10.40625 8.6875 15.234375 7.390625 
Q 20.0625 6.109375 24.8125 6.109375 
Q 31.15625 6.109375 34.5625 8.28125 
Q 37.984375 10.453125 37.984375 14.40625 
Q 37.984375 18.0625 35.515625 20.015625 
Q 33.0625 21.96875 24.703125 23.78125 
L 21.578125 24.515625 
Q 13.234375 26.265625 9.515625 29.90625 
Q 5.8125 33.546875 5.8125 39.890625 
Q 5.8125 47.609375 11.28125 51.796875 
Q 16.75 56 26.8125 56 
Q 31.78125 56 36.171875 55.265625 
Q 40.578125 54.546875 44.28125 53.078125 
z
" id="DejaVuSans-115"/>
     </defs>
     <g transform="translate(212.196094 270.598437)scale(0.1 -0.1)">
      <use xlink:href="#DejaVuSans-66"/>
      <use x="68.603516" xlink:href="#DejaVuSans-117"/>
      <use x="131.982422" xlink:href="#DejaVuSans-115"/>
     </g>
    </g>
   </g>
   <g id="matplotlib.axis_2">
    <g id="ytick_1">
     <g id="line2d_6">
      <defs>
       <path d="M 0 0 
L -3.5 0 
" id="m5b1f643fe1" style="stroke:#000000;stroke-width:0.8;"/>
      </defs>
      <g>
       <use style="stroke:#000000;stroke-width:0.8;" x="54" xlink:href="#m5b1f643fe1" y="242.450263"/>
      </g>
     </g>
     <g id="text_2">
      <!-- 0.00000 -->
      <defs>
       <path d="M 31.78125 66.40625 
Q 24.171875 66.40625 20.328125 58.90625 
Q 16.5 51.421875 16.5 36.375 
Q 16.5 21.390625 20.328125 13.890625 
Q 24.171875 6.390625 31.78125 6.390625 
Q 39.453125 6.390625 43.28125 13.890625 
Q 47.125 21.390625 47.125 36.375 
Q 47.125 51.421875 43.28125 58.90625 
Q 39.453125 66.40625 31.78125 66.40625 
z
M 31.78125 74.21875 
Q 44.046875 74.21875 50.515625 64.515625 
Q 56.984375 54.828125 56.984375 36.375 
Q 56.984375 17.96875 50.515625 8.265625 
Q 44.046875 -1.421875 31.78125 -1.421875 
Q 19.53125 -1.421875 13.0625 8.265625 
Q 6.59375 17.96875 6.59375 36.375 
Q 6.59375 54.828125 13.0625 64.515625 
Q 19.53125 74.21875 31.78125 74.21875 
z
" id="DejaVuSans-48"/>
       <path d="M 10.6875 12.40625 
L 21 12.40625 
L 21 0 
L 10.6875 0 
z
" id="DejaVuSans-46"/>
      </defs>
      <g transform="translate(5.646875 246.249482)scale(0.1 -0.1)">
       <use xlink:href="#DejaVuSans-48"/>
       <use x="63.623047" xlink:href="#DejaVuSans-46"/>
       <use x="95.410156" xlink:href="#DejaVuSans-48"/>
       <use x="159.033203" xlink:href="#DejaVuSans-48"/>
       <use x="222.65625" xlink:href="#DejaVuSans-48"/>
       <use x="286.279297" xlink:href="#DejaVuSans-48"/>
       <use x="349.902344" xlink:href="#DejaVuSans-48"/>
      </g>
     </g>
    </g>
    <g id="ytick_2">
     <g id="line2d_7">
      <g>
       <use style="stroke:#000000;stroke-width:0.8;" x="54" xlink:href="#m5b1f643fe1" y="217.07325"/>
      </g>
     </g>
     <g id="text_3">
      <!-- 0.00002 -->
      <defs>
       <path d="M 19.1875 8.296875 
L 53.609375 8.296875 
L 53.609375 0 
L 7.328125 0 
L 7.328125 8.296875 
Q 12.9375 14.109375 22.625 23.890625 
Q 32.328125 33.6875 34.8125 36.53125 
Q 39.546875 41.84375 41.421875 45.53125 
Q 43.3125 49.21875 43.3125 52.78125 
Q 43.3125 58.59375 39.234375 62.25 
Q 35.15625 65.921875 28.609375 65.921875 
Q 23.96875 65.921875 18.8125 64.3125 
Q 13.671875 62.703125 7.8125 59.421875 
L 7.8125 69.390625 
Q 13.765625 71.78125 18.9375 73 
Q 24.125 74.21875 28.421875 74.21875 
Q 39.75 74.21875 46.484375 68.546875 
Q 53.21875 62.890625 53.21875 53.421875 
Q 53.21875 48.921875 51.53125 44.890625 
Q 49.859375 40.875 45.40625 35.40625 
Q 44.1875 33.984375 37.640625 27.21875 
Q 31.109375 20.453125 19.1875 8.296875 
z
" id="DejaVuSans-50"/>
      </defs>
      <g transform="translate(5.646875 220.872469)scale(0.1 -0.1)">
       <use xlink:href="#DejaVuSans-48"/>
       <use x="63.623047" xlink:href="#DejaVuSans-46"/>
       <use x="95.410156" xlink:href="#DejaVuSans-48"/>
       <use x="159.033203" xlink:href="#DejaVuSans-48"/>
       <use x="222.65625" xlink:href="#DejaVuSans-48"/>
       <use x="286.279297" xlink:href="#DejaVuSans-48"/>
       <use x="349.902344" xlink:href="#DejaVuSans-50"/>
      </g>
     </g>
    </g>
    <g id="ytick_3">
     <g id="line2d_8">
      <g>
       <use style="stroke:#000000;stroke-width:0.8;" x="54" xlink:href="#m5b1f643fe1" y="191.696237"/>
      </g>
     </g>
     <g id="text_4">
      <!-- 0.00004 -->
      <defs>
       <path d="M 37.796875 64.3125 
L 12.890625 25.390625 
L 37.796875 25.390625 
z
M 35.203125 72.90625 
L 47.609375 72.90625 
L 47.609375 25.390625 
L 58.015625 25.390625 
L 58.015625 17.1875 
L 47.609375 17.1875 
L 47.609375 0 
L 37.796875 0 
L 37.796875 17.1875 
L 4.890625 17.1875 
L 4.890625 26.703125 
z
" id="DejaVuSans-52"/>
      </defs>
      <g transform="translate(5.646875 195.495456)scale(0.1 -0.1)">
       <use xlink:href="#DejaVuSans-48"/>
       <use x="63.623047" xlink:href="#DejaVuSans-46"/>
       <use x="95.410156" xlink:href="#DejaVuSans-48"/>
       <use x="159.033203" xlink:href="#DejaVuSans-48"/>
       <use x="222.65625" xlink:href="#DejaVuSans-48"/>
       <use x="286.279297" xlink:href="#DejaVuSans-48"/>
       <use x="349.902344" xlink:href="#DejaVuSans-52"/>
      </g>
     </g>
    </g>
    <g id="ytick_4">
     <g id="line2d_9">
      <g>
       <use style="stroke:#000000;stroke-width:0.8;" x="54" xlink:href="#m5b1f643fe1" y="166.319224"/>
      </g>
     </g>
     <g id="text_5">
      <!-- 0.00006 -->
      <defs>
       <path d="M 33.015625 40.375 
Q 26.375 40.375 22.484375 35.828125 
Q 18.609375 31.296875 18.609375 23.390625 
Q 18.609375 15.53125 22.484375 10.953125 
Q 26.375 6.390625 33.015625 6.390625 
Q 39.65625 6.390625 43.53125 10.953125 
Q 47.40625 15.53125 47.40625 23.390625 
Q 47.40625 31.296875 43.53125 35.828125 
Q 39.65625 40.375 33.015625 40.375 
z
M 52.59375 71.296875 
L 52.59375 62.3125 
Q 48.875 64.0625 45.09375 64.984375 
Q 41.3125 65.921875 37.59375 65.921875 
Q 27.828125 65.921875 22.671875 59.328125 
Q 17.53125 52.734375 16.796875 39.40625 
Q 19.671875 43.65625 24.015625 45.921875 
Q 28.375 48.1875 33.59375 48.1875 
Q 44.578125 48.1875 50.953125 41.515625 
Q 57.328125 34.859375 57.328125 23.390625 
Q 57.328125 12.15625 50.6875 5.359375 
Q 44.046875 -1.421875 33.015625 -1.421875 
Q 20.359375 -1.421875 13.671875 8.265625 
Q 6.984375 17.96875 6.984375 36.375 
Q 6.984375 53.65625 15.1875 63.9375 
Q 23.390625 74.21875 37.203125 74.21875 
Q 40.921875 74.21875 44.703125 73.484375 
Q 48.484375 72.75 52.59375 71.296875 
z
" id="DejaVuSans-54"/>
      </defs>
      <g transform="translate(5.646875 170.118443)scale(0.1 -0.1)">
       <use xlink:href="#DejaVuSans-48"/>
       <use x="63.623047" xlink:href="#DejaVuSans-46"/>
       <use x="95.410156" xlink:href="#DejaVuSans-48"/>
       <use x="159.033203" xlink:href="#DejaVuSans-48"/>
       <use x="222.65625" xlink:href="#DejaVuSans-48"/>
       <use x="286.279297" xlink:href="#DejaVuSans-48"/>
       <use x="349.902344" xlink:href="#DejaVuSans-54"/>
      </g>
     </g>
    </g>
    <g id="ytick_5">
     <g id="line2d_10">
      <g>
       <use style="stroke:#000000;stroke-width:0.8;" x="54" xlink:href="#m5b1f643fe1" y="140.942211"/>
      </g>
     </g>
     <g id="text_6">
      <!-- 0.00008 -->
      <defs>
       <path d="M 31.78125 34.625 
Q 24.75 34.625 20.71875 30.859375 
Q 16.703125 27.09375 16.703125 20.515625 
Q 16.703125 13.921875 20.71875 10.15625 
Q 24.75 6.390625 31.78125 6.390625 
Q 38.8125 6.390625 42.859375 10.171875 
Q 46.921875 13.96875 46.921875 20.515625 
Q 46.921875 27.09375 42.890625 30.859375 
Q 38.875 34.625 31.78125 34.625 
z
M 21.921875 38.8125 
Q 15.578125 40.375 12.03125 44.71875 
Q 8.5 49.078125 8.5 55.328125 
Q 8.5 64.0625 14.71875 69.140625 
Q 20.953125 74.21875 31.78125 74.21875 
Q 42.671875 74.21875 48.875 69.140625 
Q 55.078125 64.0625 55.078125 55.328125 
Q 55.078125 49.078125 51.53125 44.71875 
Q 48 40.375 41.703125 38.8125 
Q 48.828125 37.15625 52.796875 32.3125 
Q 56.78125 27.484375 56.78125 20.515625 
Q 56.78125 9.90625 50.3125 4.234375 
Q 43.84375 -1.421875 31.78125 -1.421875 
Q 19.734375 -1.421875 13.25 4.234375 
Q 6.78125 9.90625 6.78125 20.515625 
Q 6.78125 27.484375 10.78125 32.3125 
Q 14.796875 37.15625 21.921875 38.8125 
z
M 18.3125 54.390625 
Q 18.3125 48.734375 21.84375 45.5625 
Q 25.390625 42.390625 31.78125 42.390625 
Q 38.140625 42.390625 41.71875 45.5625 
Q 45.3125 48.734375 45.3125 54.390625 
Q 45.3125 60.0625 41.71875 63.234375 
Q 38.140625 66.40625 31.78125 66.40625 
Q 25.390625 66.40625 21.84375 63.234375 
Q 18.3125 60.0625 18.3125 54.390625 
z
" id="DejaVuSans-56"/>
      </defs>
      <g transform="translate(5.646875 144.74143)scale(0.1 -0.1)">
       <use xlink:href="#DejaVuSans-48"/>
       <use x="63.623047" xlink:href="#DejaVuSans-46"/>
       <use x="95.410156" xlink:href="#DejaVuSans-48"/>
       <use x="159.033203" xlink:href="#DejaVuSans-48"/>
       <use x="222.65625" xlink:href="#DejaVuSans-48"/>
       <use x="286.279297" xlink:href="#DejaVuSans-48"/>
       <use x="349.902344" xlink:href="#DejaVuSans-56"/>
      </g>
     </g>
    </g>
    <g id="ytick_6">
     <g id="line2d_11">
      <g>
       <use style="stroke:#000000;stroke-width:0.8;" x="54" xlink:href="#m5b1f643fe1" y="115.565198"/>
      </g>
     </g>
     <g id="text_7">
      <!-- 0.00010 -->
      <defs>
       <path d="M 12.40625 8.296875 
L 28.515625 8.296875 
L 28.515625 63.921875 
L 10.984375 60.40625 
L 10.984375 69.390625 
L 28.421875 72.90625 
L 38.28125 72.90625 
L 38.28125 8.296875 
L 54.390625 8.296875 
L 54.390625 0 
L 12.40625 0 
z
" id="DejaVuSans-49"/>
      </defs>
      <g transform="translate(5.646875 119.364417)scale(0.1 -0.1)">
       <use xlink:href="#DejaVuSans-48"/>
       <use x="63.623047" xlink:href="#DejaVuSans-46"/>
       <use x="95.410156" xlink:href="#DejaVuSans-48"/>
       <use x="159.033203" xlink:href="#DejaVuSans-48"/>
       <use x="222.65625" xlink:href="#DejaVuSans-48"/>
       <use x="286.279297" xlink:href="#DejaVuSans-49"/>
       <use x="349.902344" xlink:href="#DejaVuSans-48"/>
      </g>
     </g>
    </g>
    <g id="ytick_7">
     <g id="line2d_12">
      <g>
       <use style="stroke:#000000;stroke-width:0.8;" x="54" xlink:href="#m5b1f643fe1" y="90.188185"/>
      </g>
     </g>
     <g id="text_8">
      <!-- 0.00012 -->
      <g transform="translate(5.646875 93.987404)scale(0.1 -0.1)">
       <use xlink:href="#DejaVuSans-48"/>
       <use x="63.623047" xlink:href="#DejaVuSans-46"/>
       <use x="95.410156" xlink:href="#DejaVuSans-48"/>
       <use x="159.033203" xlink:href="#DejaVuSans-48"/>
       <use x="222.65625" xlink:href="#DejaVuSans-48"/>
       <use x="286.279297" xlink:href="#DejaVuSans-49"/>
       <use x="349.902344" xlink:href="#DejaVuSans-50"/>
      </g>
     </g>
    </g>
    <g id="ytick_8">
     <g id="line2d_13">
      <g>
       <use style="stroke:#000000;stroke-width:0.8;" x="54" xlink:href="#m5b1f643fe1" y="64.811172"/>
      </g>
     </g>
     <g id="text_9">
      <!-- 0.00014 -->
      <g transform="translate(5.646875 68.610391)scale(0.1 -0.1)">
       <use xlink:href="#DejaVuSans-48"/>
       <use x="63.623047" xlink:href="#DejaVuSans-46"/>
       <use x="95.410156" xlink:href="#DejaVuSans-48"/>
       <use x="159.033203" xlink:href="#DejaVuSans-48"/>
       <use x="222.65625" xlink:href="#DejaVuSans-48"/>
       <use x="286.279297" xlink:href="#DejaVuSans-49"/>
       <use x="349.902344" xlink:href="#DejaVuSans-52"/>
      </g>
     </g>
    </g>
    <g id="ytick_9">
     <g id="line2d_14">
      <g>
       <use style="stroke:#000000;stroke-width:0.8;" x="54" xlink:href="#m5b1f643fe1" y="39.434159"/>
      </g>
     </g>
     <g id="text_10">
      <!-- 0.00016 -->
      <g transform="translate(5.646875 43.233378)scale(0.1 -0.1)">
       <use xlink:href="#DejaVuSans-48"/>
       <use x="63.623047" xlink:href="#DejaVuSans-46"/>
       <use x="95.410156" xlink:href="#DejaVuSans-48"/>
       <use x="159.033203" xlink:href="#DejaVuSans-48"/>
       <use x="222.65625" xlink:href="#DejaVuSans-48"/>
       <use x="286.279297" xlink:href="#DejaVuSans-49"/>
       <use x="349.902344" xlink:href="#DejaVuSans-54"/>
      </g>
     </g>
    </g>
   </g>
   <g id="line2d_15">
    <path clip-path="url(#p131d1fdc7e)" d="M 69.218182 240.731278 
L 69.554124 104.959386 
L 69.890066 92.598712 
L 71.233835 87.362976 
L 71.569777 100.702114 
L 72.241662 91.383769 
L 72.913546 84.897346 
L 73.249488 82.295302 
L 73.58543 80.695283 
L 73.921373 76.711951 
L 74.257315 44.443636 
L 74.593257 44.443636 
L 74.929199 132.19786 
L 75.265141 44.443636 
L 75.601084 129.505419 
L 75.937026 44.443636 
L 76.272968 126.482123 
L 76.60891 44.443636 
L 76.944852 121.559586 
L 77.280795 44.443636 
L 77.616737 112.604298 
L 77.952679 44.443636 
L 78.624564 142.291666 
L 78.960506 44.443636 
L 79.296448 98.178977 
L 79.63239 97.518342 
L 79.968332 116.4161 
L 80.304275 44.443636 
L 80.640217 94.900426 
L 80.976159 97.447487 
L 81.312101 116.512239 
L 81.648043 162.265332 
L 81.983986 44.443636 
L 82.319928 97.34561 
L 82.65587 116.515877 
L 82.991812 116.526137 
L 83.327754 106.031905 
L 83.663697 162.265332 
L 83.999639 44.443636 
L 84.335581 97.21496 
L 84.671523 116.517516 
L 85.007465 116.55958 
L 85.343408 63.538754 
L 85.67935 162.265332 
L 86.015292 44.443636 
L 86.351234 96.896769 
L 86.687176 116.519254 
L 87.023119 57.412099 
L 87.359061 63.538754 
L 87.695003 162.265332 
L 88.030945 44.443636 
L 88.366887 96.624339 
L 88.70283 116.520909 
L 89.038772 156.545045 
L 89.374714 63.538754 
L 89.710656 162.265332 
L 90.046598 44.443636 
L 90.382541 95.318407 
L 90.718483 116.5219 
L 91.054425 151.679792 
L 91.390367 139.782097 
L 91.726309 63.538754 
L 92.062252 162.265332 
L 92.398194 44.443636 
L 92.734136 90.702387 
L 93.070078 116.523845 
L 93.40602 94.19862 
L 93.741963 135.043621 
L 94.077905 136.326961 
L 94.413847 63.538754 
L 94.749789 162.265332 
L 95.085731 44.443636 
L 95.421674 116.533701 
L 95.757616 74.162168 
L 96.093558 63.538754 
L 96.4295 162.265332 
L 96.765443 44.443636 
L 97.101385 116.57084 
L 97.437327 69.789558 
L 97.773269 63.538754 
L 98.109211 162.265332 
L 98.445154 44.443636 
L 98.781096 60.922595 
L 99.117038 63.538754 
L 99.45298 162.265332 
L 99.788922 44.443636 
L 100.124865 179.445702 
L 100.460807 162.265332 
L 100.796749 44.443636 
L 101.132691 174.585419 
L 101.468633 162.265332 
L 101.804576 44.443636 
L 102.140518 171.375566 
L 102.47646 162.265332 
L 102.812402 44.443636 
L 103.148344 166.943653 
L 103.484287 162.265332 
L 103.820229 44.443636 
L 104.156171 166.952769 
L 104.492113 163.982107 
L 104.828055 162.265332 
L 105.163998 166.963798 
L 105.49994 162.302763 
L 105.835882 162.265332 
L 106.171824 166.976581 
L 106.507766 96.040383 
L 106.843709 162.265332 
L 107.179651 166.996072 
L 107.515593 89.402339 
L 107.851535 162.265332 
L 108.187477 167.02113 
L 108.52342 89.432425 
L 108.859362 69.224374 
L 109.195304 162.265332 
L 109.531246 167.03912 
L 109.867188 89.432425 
L 110.203131 89.447074 
L 110.539073 159.721131 
L 110.875015 162.265332 
L 111.210957 167.064539 
L 111.546899 89.432425 
L 111.882842 89.515888 
L 112.218784 143.357335 
L 112.554726 162.265332 
L 112.890668 167.09204 
L 113.22661 89.432425 
L 113.562553 84.936188 
L 113.898495 90.933008 
L 114.234437 138.488657 
L 114.570379 162.265332 
L 114.906321 167.117976 
L 115.242264 89.432425 
L 115.578206 84.541786 
L 115.914148 91.987271 
L 116.586033 162.265332 
L 116.921975 167.160619 
L 117.257917 89.432425 
L 117.593859 84.154803 
L 117.929801 92.693284 
L 118.601686 162.265332 
L 118.937628 167.363377 
L 119.27357 89.432425 
L 119.609512 83.842331 
L 119.945455 93.105381 
L 120.281397 92.791071 
L 120.617339 121.793357 
L 120.953281 162.265332 
L 121.289223 167.407547 
L 121.625166 89.432425 
L 121.961108 83.373335 
L 122.29705 94.198288 
L 122.632992 92.797023 
L 122.968934 120.05801 
L 123.304877 162.265332 
L 123.640819 167.520457 
L 123.976761 167.355878 
L 124.312703 89.432425 
L 124.648645 82.807908 
L 124.984588 94.577914 
L 125.32053 92.80246 
L 125.656472 110.199229 
L 125.992414 162.265332 
L 126.328356 167.541787 
L 126.664299 167.287282 
L 127.000241 89.432425 
L 127.336183 82.380739 
L 127.672125 94.577914 
L 128.008067 94.676671 
L 128.34401 92.804719 
L 128.679952 104.630931 
L 129.015894 167.585796 
L 129.351836 167.139363 
L 129.687778 167.344193 
L 130.023721 89.432425 
L 130.359663 81.886431 
L 130.695605 94.577914 
L 131.031547 94.687336 
L 131.367489 92.809588 
L 131.703432 100.497431 
L 132.039374 166.557263 
L 132.375316 167.579736 
L 132.711258 89.432425 
L 133.0472 81.421653 
L 133.383143 94.577914 
L 133.719085 94.577914 
L 134.055027 94.697653 
L 134.390969 92.821989 
L 134.726911 96.781223 
L 135.062854 165.51795 
L 135.398796 167.594396 
L 135.734738 167.59787 
L 136.07068 89.432425 
L 136.406623 80.92158 
L 136.742565 94.577914 
L 137.078507 94.577914 
L 137.414449 94.705906 
L 137.750391 92.829264 
L 138.086334 92.164638 
L 138.422276 160.831734 
L 138.758218 165.688427 
L 139.09416 167.631462 
L 139.430102 167.600433 
L 139.766045 89.432425 
L 140.101987 80.157118 
L 140.437929 94.577914 
L 140.773871 94.712479 
L 141.109813 92.83436 
L 141.445756 83.645502 
L 141.781698 145.493126 
L 142.11764 165.996109 
L 142.453582 167.6025 
L 142.789524 89.432425 
L 143.125467 78.069455 
L 143.461409 94.577914 
L 143.797351 94.726377 
L 144.133293 92.844162 
L 144.469235 76.218168 
L 144.805178 138.880908 
L 145.14112 166.105969 
L 145.477062 167.604152 
L 145.813004 77.891454 
L 146.148946 94.577914 
L 146.484889 94.737322 
L 146.820831 92.849041 
L 147.156773 71.165749 
L 147.492715 166.326553 
L 147.828657 166.105969 
L 148.1646 167.606674 
L 148.500542 77.809237 
L 148.836484 94.577914 
L 149.172426 94.744914 
L 149.508368 92.852505 
L 149.844311 194.731808 
L 150.180253 166.358586 
L 150.516195 167.60963 
L 150.852137 77.721296 
L 151.188079 94.577914 
L 151.524022 94.752487 
L 151.859964 92.892135 
L 152.195906 187.588743 
L 152.531848 166.41146 
L 152.86779 166.404038 
L 153.203733 167.61417 
L 153.539675 77.637265 
L 153.875617 94.577914 
L 154.211559 94.763568 
L 154.547502 92.903821 
L 154.883444 182.567225 
L 155.219386 183.265662 
L 155.555328 167.630784 
L 155.89127 77.54365 
L 156.227213 94.577914 
L 156.563155 94.80524 
L 156.899097 92.906436 
L 157.235039 181.873075 
L 157.570981 167.054746 
L 157.906924 167.711644 
L 158.242866 77.350416 
L 158.578808 94.577914 
L 158.91475 94.814967 
L 159.250692 92.940291 
L 159.586635 92.907536 
L 159.922577 181.553949 
L 160.258519 167.093891 
L 160.594461 161.470462 
L 160.930403 77.149164 
L 161.266346 94.577914 
L 161.602288 94.819423 
L 161.93823 92.973842 
L 162.274172 92.908825 
L 162.610114 181.174919 
L 162.946057 167.096737 
L 163.281999 141.227436 
L 163.617941 76.383876 
L 163.953883 94.577914 
L 164.289825 94.822352 
L 164.625768 92.909991 
L 164.96171 180.590121 
L 165.297652 167.099082 
L 165.633594 132.164112 
L 165.969536 139.304159 
L 166.305479 72.320848 
L 166.641421 94.577914 
L 166.977363 94.835616 
L 167.313305 94.823255 
L 167.649247 92.911171 
L 167.98519 180.069025 
L 168.321132 167.102414 
L 168.657074 127.992461 
L 168.993016 131.243776 
L 169.328958 94.841709 
L 169.664901 94.823893 
L 170.000843 92.91244 
L 170.336785 179.663885 
L 170.672727 167.117377 
L 171.008669 100.740487 
L 171.344612 129.464536 
L 171.680554 94.852021 
L 172.016496 94.824637 
L 172.352438 92.9198 
L 172.68838 179.159586 
L 173.024323 167.120257 
L 173.360265 98.704985 
L 173.696207 128.873331 
L 174.032149 94.871815 
L 174.368092 94.826058 
L 174.704034 92.950931 
L 175.039976 178.637995 
L 175.375918 167.12239 
L 175.71186 97.037857 
L 176.047803 74.762135 
L 176.383745 128.564763 
L 176.719687 94.93009 
L 177.055629 94.83151 
L 177.391571 178.022749 
L 177.727514 167.124847 
L 178.063456 88.451646 
L 178.399398 190.157034 
L 178.73534 128.300619 
L 179.071282 94.850114 
L 179.407225 177.672141 
L 179.743167 167.127284 
L 180.079109 85.454037 
L 180.415051 190.234585 
L 180.750993 166.715429 
L 181.086936 128.000204 
L 181.422878 176.088235 
L 181.75882 167.148694 
L 182.094762 78.929936 
L 182.430704 190.265298 
L 182.766647 166.780808 
L 183.102589 162.201677 
L 183.438531 127.763528 
L 183.774473 175.471812 
L 184.110415 167.192458 
L 184.446358 76.332379 
L 184.7823 77.635865 
L 185.118242 166.813678 
L 185.454184 158.334714 
L 185.790126 127.5651 
L 186.126069 175.257667 
L 186.462011 72.44565 
L 186.797953 77.455678 
L 187.133895 166.816737 
L 187.469837 155.614666 
L 187.80578 127.386055 
L 188.141722 175.096337 
L 188.477664 77.259982 
L 188.813606 166.818 
L 189.149548 152.177828 
L 189.485491 127.237872 
L 189.821433 174.978301 
L 190.157375 77.088567 
L 190.493317 166.818891 
L 190.829259 150.024335 
L 191.165202 127.06597 
L 191.501144 174.918361 
L 191.837086 76.906438 
L 192.173028 166.819803 
L 192.844913 126.877038 
L 193.180855 174.830238 
L 193.516797 76.646501 
L 193.852739 166.820879 
L 194.524624 125.847047 
L 194.860566 174.682514 
L 195.196508 76.3305 
L 195.53245 166.822236 
L 196.204335 117.602015 
L 196.540277 125.860279 
L 196.876219 174.0236 
L 197.212161 74.371824 
L 197.548104 166.823451 
L 198.219988 109.705152 
L 198.55593 125.941527 
L 198.891872 125.860279 
L 199.227815 171.601454 
L 199.563757 194.554829 
L 200.571583 109.353606 
L 200.907526 125.971221 
L 201.243468 125.860279 
L 201.57941 166.826063 
L 201.915352 129.225797 
L 202.251294 109.409285 
L 202.587237 102.358403 
L 202.923179 125.974244 
L 203.259121 125.860279 
L 203.595063 166.831825 
L 203.931005 125.793872 
L 204.266948 109.414386 
L 204.60289 98.983611 
L 204.938832 125.976353 
L 205.274774 125.860279 
L 205.610716 166.867049 
L 205.946659 122.48323 
L 206.282601 109.417286 
L 206.618543 88.802387 
L 206.954485 98.983611 
L 207.290427 125.978538 
L 207.62637 125.860279 
L 207.962312 119.243108 
L 208.298254 109.419256 
L 208.634196 201.186854 
L 208.970138 98.983611 
L 209.306081 125.987714 
L 209.642023 125.860279 
L 209.977965 115.346374 
L 210.313907 109.422465 
L 210.649849 198.152433 
L 210.985792 98.983611 
L 211.321734 125.989955 
L 211.657676 125.860279 
L 211.993618 108.82006 
L 212.329561 115.346374 
L 212.665503 109.433133 
L 213.001445 197.37687 
L 213.337387 98.983611 
L 213.673329 125.992092 
L 214.009272 125.860279 
L 214.345214 86.807287 
L 214.681156 108.82006 
L 215.017098 109.44501 
L 215.35304 196.970564 
L 215.688983 98.983611 
L 216.024925 125.994217 
L 216.360867 125.860279 
L 216.696809 182.557554 
L 217.032751 86.807287 
L 217.368694 109.45169 
L 217.704636 196.633741 
L 218.040578 98.983611 
L 218.37652 125.996656 
L 218.712462 125.860279 
L 219.048405 160.216551 
L 219.384347 182.557554 
L 219.720289 109.457965 
L 220.056231 196.360764 
L 220.392173 98.983611 
L 220.728116 126.005076 
L 221.064058 125.860279 
L 221.4 153.438296 
L 221.735942 160.216551 
L 222.071884 109.463951 
L 222.407827 195.943501 
L 222.743769 98.983611 
L 223.079711 126.046112 
L 223.415653 125.860279 
L 223.751595 137.649386 
L 224.087538 153.438296 
L 224.42348 149.380198 
L 224.759422 109.473781 
L 225.095364 195.567345 
L 225.431306 98.983611 
L 225.767249 125.860279 
L 226.103191 120.107164 
L 226.439133 137.649386 
L 226.775075 137.649386 
L 227.111017 148.787563 
L 227.44696 109.480627 
L 227.782902 195.209336 
L 228.118844 98.983611 
L 228.454786 125.860279 
L 228.790728 113.678834 
L 229.126671 120.107164 
L 229.462613 148.464415 
L 229.798555 109.485437 
L 230.134497 194.806018 
L 230.470439 98.983611 
L 230.806382 125.860279 
L 231.142324 108.500855 
L 231.478266 113.678834 
L 231.814208 87.779969 
L 232.150151 148.245508 
L 232.486093 109.487736 
L 232.822035 194.379985 
L 233.157977 98.983611 
L 233.493919 125.860279 
L 233.829862 101.079595 
L 234.165804 108.500855 
L 234.501746 87.030498 
L 234.837688 82.797746 
L 235.17363 147.913001 
L 235.509573 109.489191 
L 235.845515 193.448473 
L 236.181457 98.983611 
L 236.517399 125.860279 
L 236.853341 96.550654 
L 237.189284 101.079595 
L 237.525226 86.713715 
L 237.861168 79.60969 
L 238.19711 147.408389 
L 238.533052 109.490176 
L 238.868995 172.32147 
L 239.204937 98.983611 
L 239.540879 125.860279 
L 239.876821 95.770724 
L 240.212763 96.550654 
L 240.548706 86.527579 
L 240.884648 147.050384 
L 241.22059 109.491549 
L 241.556532 172.35451 
L 241.892474 168.966291 
L 242.228417 98.983611 
L 242.900301 95.770724 
L 243.236243 83.383337 
L 243.572185 86.356278 
L 243.908128 146.805791 
L 244.24407 109.492597 
L 244.580012 172.383648 
L 244.915954 167.156266 
L 245.251896 98.983611 
L 245.587839 98.288757 
L 245.923781 97.221104 
L 246.259723 76.063374 
L 246.595665 86.203663 
L 246.931607 146.612514 
L 247.26755 109.500076 
L 247.603492 166.88595 
L 247.939434 98.983611 
L 248.275376 99.742369 
L 248.611318 98.288757 
L 248.947261 70.26343 
L 249.283203 86.045343 
L 249.619145 145.992817 
L 249.955087 109.509421 
L 250.29103 109.549509 
L 250.626972 166.679607 
L 250.962914 98.983611 
L 251.298856 100.771028 
L 251.634798 99.742369 
L 251.970741 67.866849 
L 252.306683 85.567398 
L 252.642625 140.980391 
L 252.978567 109.51974 
L 253.314509 166.486624 
L 253.650452 98.983611 
L 253.986394 103.647721 
L 254.322336 100.771028 
L 254.658278 67.493327 
L 254.99422 189.745736 
L 255.330163 85.085746 
L 255.666105 140.730777 
L 256.002047 109.547711 
L 256.337989 166.280831 
L 256.673931 98.983611 
L 257.009874 105.730732 
L 257.345816 103.647721 
L 257.681758 67.355882 
L 258.0177 185.958534 
L 258.353642 80.585366 
L 258.689585 140.533823 
L 259.025527 166.098729 
L 259.361469 98.983611 
L 259.697411 105.964966 
L 260.033353 105.730732 
L 260.369296 105.798069 
L 260.705238 67.151148 
L 261.04118 140.311161 
L 261.377122 165.912471 
L 261.713064 106.020428 
L 262.384949 105.806581 
L 262.720891 67.027955 
L 263.056833 140.112985 
L 263.392775 164.951142 
L 263.728718 107.52399 
L 264.06466 106.020428 
L 264.400602 106.020428 
L 264.736544 105.812863 
L 265.072486 66.879306 
L 265.408429 139.884884 
L 265.744371 164.975107 
L 266.080313 162.821064 
L 266.416255 108.577708 
L 266.752197 107.52399 
L 267.08814 106.020428 
L 267.424082 105.818975 
L 267.760024 66.748786 
L 268.095966 139.651003 
L 268.431908 164.976488 
L 268.767851 152.642076 
L 269.103793 109.460514 
L 269.439735 108.72346 
L 269.775677 106.020428 
L 270.11162 105.87639 
L 270.447562 65.894706 
L 270.783504 139.369879 
L 271.119446 164.977182 
L 271.791331 140.042145 
L 272.127273 110.247788 
L 272.463215 109.460514 
L 272.799157 109.460514 
L 273.135099 108.838125 
L 273.471042 108.72346 
L 273.806984 106.020428 
L 274.142926 105.903112 
L 274.478868 186.482386 
L 274.81481 139.193635 
L 275.150753 164.977764 
L 275.486695 152.778027 
L 276.158579 110.247801 
L 276.830464 110.247788 
L 277.166406 108.865114 
L 277.502348 106.020428 
L 277.83829 105.915653 
L 278.510175 164.978238 
L 278.846117 127.988462 
L 279.182059 124.424579 
L 279.518001 110.247819 
L 279.853943 106.020428 
L 280.189886 105.924019 
L 280.86177 164.978982 
L 281.197712 127.992097 
L 281.533654 123.608049 
L 281.869597 110.247824 
L 282.205539 106.020428 
L 282.541481 105.936808 
L 282.877423 164.980758 
L 283.213365 127.994594 
L 283.549308 123.202848 
L 283.88525 110.247841 
L 284.221192 106.020428 
L 284.557134 105.961785 
L 284.893076 164.981986 
L 285.229019 127.998054 
L 285.564961 122.757563 
L 285.900903 106.020428 
L 286.236845 105.968689 
L 286.572787 164.983548 
L 286.90873 128.00626 
L 287.244672 122.243771 
L 287.580614 106.020428 
L 287.916556 105.970694 
L 288.252498 164.984496 
L 288.588441 128.012498 
L 288.924383 121.724362 
L 289.260325 106.020428 
L 289.93221 105.975773 
L 290.268152 164.985353 
L 290.604094 128.016877 
L 290.940036 121.148531 
L 291.275978 106.020428 
L 291.947863 105.982476 
L 292.283805 164.986797 
L 292.619747 128.021465 
L 292.955689 120.311151 
L 293.291632 106.020428 
L 293.963516 106.010324 
L 294.299458 164.988218 
L 294.6354 128.025231 
L 294.971343 118.408291 
L 295.307285 119.393955 
L 295.643227 106.020428 
L 296.315111 106.02215 
L 296.651054 164.988889 
L 296.986996 128.031467 
L 297.322938 117.265623 
L 297.65888 113.58606 
L 297.994822 106.020428 
L 298.330765 106.018135 
L 298.666707 164.989628 
L 299.002649 128.051619 
L 299.338591 116.205634 
L 299.674533 109.428782 
L 300.010476 164.990336 
L 300.346418 128.098708 
L 300.68236 115.171368 
L 301.018302 109.572746 
L 301.354244 94.926191 
L 301.690187 164.99119 
L 302.026129 114.395598 
L 302.362071 109.579873 
L 302.698013 109.590431 
L 303.033955 94.997446 
L 303.369898 91.685501 
L 303.70584 164.992553 
L 304.041782 113.163238 
L 304.377724 109.582103 
L 304.713666 109.626458 
L 305.049609 95.038725 
L 305.385551 85.658949 
L 305.721493 164.996282 
L 306.057435 111.08543 
L 306.393377 109.583537 
L 306.72932 196.646979 
L 307.065262 85.658949 
L 307.401204 165.001246 
L 307.737146 95.516539 
L 308.073089 109.584402 
L 308.409031 191.151291 
L 308.744973 186.899036 
L 309.080915 85.658949 
L 309.416857 165.001718 
L 309.7528 82.744272 
L 310.088742 109.585276 
L 310.424684 185.479155 
L 310.760626 185.855496 
L 311.096568 85.658949 
L 311.432511 165.002092 
L 311.768453 78.697573 
L 312.104395 109.586057 
L 312.440337 181.800578 
L 312.776279 185.650985 
L 313.112222 185.457058 
L 313.448164 85.658949 
L 313.784106 165.002455 
L 314.120048 201.898637 
L 314.45599 109.586937 
L 314.791933 176.801966 
L 315.127875 185.674035 
L 315.463817 185.03559 
L 315.799759 85.658949 
L 316.135701 165.002844 
L 316.471644 199.892132 
L 316.807586 109.587642 
L 317.143528 170.949599 
L 317.47947 185.686145 
L 317.815412 184.685807 
L 318.151355 85.658949 
L 318.487297 165.003204 
L 318.823239 198.289624 
L 319.159181 109.588487 
L 319.495123 166.250383 
L 319.831066 185.720181 
L 320.167008 185.687277 
L 320.50295 184.271579 
L 320.838892 85.658949 
L 321.174834 165.003543 
L 321.510777 196.92314 
L 321.846719 109.589398 
L 322.182661 163.921617 
L 322.518603 166.347744 
L 322.854545 185.747849 
L 323.190488 185.688096 
L 323.52643 183.867606 
L 323.862372 85.658949 
L 324.198314 165.004014 
L 324.534256 195.319562 
L 324.870199 109.59106 
L 325.206141 160.710925 
L 325.542083 166.429124 
L 325.878025 185.688787 
L 326.213967 183.312229 
L 326.54991 85.658949 
L 326.885852 165.004592 
L 327.221794 193.854308 
L 327.557736 109.603495 
L 327.893679 152.812528 
L 328.229621 166.460278 
L 328.565563 166.430139 
L 328.901505 185.689954 
L 329.237447 182.548218 
L 329.57339 85.658949 
L 329.909332 165.007329 
L 330.245274 191.581142 
L 330.581216 109.641603 
L 330.917158 146.410767 
L 331.253101 166.490805 
L 331.589043 166.43111 
L 331.924985 185.691588 
L 332.260927 181.739679 
L 332.596869 85.658949 
L 332.932812 165.030736 
L 333.268754 186.991846 
L 333.604696 141.40862 
L 334.27658 185.692801 
L 334.612523 181.202588 
L 334.948465 85.658949 
L 335.284407 186.145622 
L 335.620349 183.864033 
L 335.956291 136.887648 
L 336.292234 166.433091 
L 336.628176 185.69481 
L 336.964118 180.655959 
L 337.30006 85.658949 
L 337.636002 185.407635 
L 337.971945 178.859077 
L 338.307887 136.349518 
L 338.643829 137.323564 
L 338.979771 166.434123 
L 339.315713 185.708754 
L 339.651656 180.394592 
L 339.987598 85.658949 
L 340.32354 184.797286 
L 340.659482 174.582832 
L 340.995424 135.809976 
L 341.331367 138.477991 
L 341.667309 137.323564 
L 342.003251 166.434788 
L 342.339193 185.739554 
L 342.675135 179.978856 
L 343.011078 85.658949 
L 343.34702 184.322649 
L 343.682962 172.162645 
L 344.018904 135.269386 
L 344.354846 139.445941 
L 344.690789 138.477991 
L 345.026731 166.43581 
L 345.362673 179.588573 
L 345.698615 85.658949 
L 346.034557 183.839914 
L 346.3705 134.732068 
L 346.706442 140.486465 
L 347.042384 139.445941 
L 347.378326 166.444214 
L 347.714269 179.030923 
L 348.050211 85.658949 
L 348.386153 183.420986 
L 348.722095 134.192708 
L 349.058037 141.340775 
L 349.39398 140.486465 
L 349.729922 166.473181 
L 350.065864 173.144547 
L 350.401806 183.120105 
L 350.737748 133.653715 
L 351.073691 142.257972 
L 351.409633 141.340775 
L 351.745575 170.790145 
L 352.081517 182.770782 
L 352.417459 133.114382 
L 352.753402 142.258199 
L 353.425286 142.257972 
L 353.761228 169.594583 
L 354.09717 182.244522 
L 354.433113 132.851116 
L 354.769055 142.258232 
L 355.440939 142.257972 
L 355.776881 169.330029 
L 356.112824 181.38472 
L 356.448766 126.934183 
L 356.784708 142.258325 
L 357.456592 142.257972 
L 357.792535 169.121679 
L 358.128477 178.211021 
L 358.464419 171.464022 
L 358.800361 123.086514 
L 359.136303 142.258435 
L 359.808188 142.257972 
L 360.14413 168.898446 
L 360.480072 119.721342 
L 360.816014 142.258449 
L 361.487899 142.257972 
L 361.823841 168.719844 
L 362.159783 116.191498 
L 362.495725 142.258457 
L 363.503552 142.257972 
L 363.839494 168.546428 
L 364.175436 110.164348 
L 364.511379 142.258465 
L 365.519205 142.257972 
L 365.855148 168.373452 
L 366.19109 108.686018 
L 366.527032 142.258477 
L 366.862974 142.258634 
L 367.198916 168.202499 
L 367.534859 107.847742 
L 367.870801 105.821199 
L 368.206743 142.258493 
L 368.542685 165.145518 
L 368.878627 106.47136 
L 369.21457 103.391448 
L 369.550512 142.258552 
L 369.886454 158.304869 
L 370.222396 160.919942 
L 370.558338 106.19922 
L 370.894281 99.307534 
L 371.230223 142.258659 
L 371.566165 153.761895 
L 371.902107 105.969266 
L 372.573992 105.523409 
L 372.909934 105.06719 
L 373.245876 104.276188 
L 373.581818 97.797049 
L 373.581818 97.797049 
" style="fill:none;stroke:#ff0000;stroke-linecap:square;stroke-width:1.5;"/>
   </g>
   <g id="line2d_16">
    <path clip-path="url(#p131d1fdc7e)" d="M 69.218182 237.572746 
L 69.554124 113.864742 
L 69.890066 104.451877 
L 71.233835 100.464776 
L 71.569777 140.883031 
L 72.241662 133.787009 
L 72.913546 128.847528 
L 73.249488 126.866044 
L 73.58543 125.647613 
L 73.921373 122.614265 
L 74.257315 98.041639 
L 74.593257 98.041639 
L 74.929199 68.243201 
L 75.265141 98.041639 
L 75.601084 66.19289 
L 75.937026 98.041639 
L 76.272968 63.89063 
L 76.60891 98.041639 
L 76.944852 60.142086 
L 77.280795 98.041639 
L 77.616737 180.207644 
L 77.952679 98.041639 
L 78.288621 180.300703 
L 78.624564 91.369529 
L 78.960506 98.041639 
L 79.296448 180.310955 
L 79.63239 180.315688 
L 79.968332 67.719479 
L 80.304275 98.041639 
L 80.640217 180.334434 
L 80.976159 180.316195 
L 81.312101 181.162684 
L 81.983986 98.041639 
L 82.319928 180.316925 
L 82.65587 180.65405 
L 82.991812 179.219378 
L 83.327754 95.320639 
L 83.663697 135.993009 
L 83.999639 98.041639 
L 84.335581 180.317861 
L 84.671523 180.424793 
L 85.007465 174.543416 
L 85.343408 191.471419 
L 86.015292 98.041639 
L 86.351234 180.32014 
L 86.687176 180.18183 
L 87.023119 187.04016 
L 87.359061 191.471419 
L 88.030945 98.041639 
L 88.366887 180.322091 
L 88.70283 179.950424 
L 89.038772 166.967743 
L 89.374714 191.471419 
L 90.046598 98.041639 
L 90.382541 180.331444 
L 90.718483 179.811835 
L 91.054425 162.712256 
L 91.390367 167.088056 
L 91.726309 191.471419 
L 92.398194 98.041639 
L 92.734136 180.364505 
L 93.070078 179.539934 
L 93.40602 112.435277 
L 93.741963 167.122066 
L 94.077905 167.112854 
L 94.413847 191.471419 
L 95.085731 98.041639 
L 95.421674 178.161927 
L 95.757616 94.910033 
L 96.093558 191.471419 
L 96.765443 98.041639 
L 97.101385 172.969288 
L 97.437327 91.085451 
L 97.773269 191.471419 
L 98.445154 98.041639 
L 98.781096 210.214869 
L 99.117038 191.471419 
L 99.788922 98.041639 
L 100.124865 202.900935 
L 100.460807 135.993009 
L 100.796749 98.041639 
L 101.132691 198.649803 
L 101.468633 135.993009 
L 101.804576 98.041639 
L 102.140518 195.842248 
L 102.47646 135.993009 
L 102.812402 98.041639 
L 103.148344 191.965799 
L 103.820229 98.041639 
L 104.156171 191.848364 
L 104.492113 190.073144 
L 104.828055 135.993009 
L 105.163998 191.706284 
L 105.49994 188.999914 
L 105.835882 135.993009 
L 106.171824 191.541603 
L 106.507766 146.653236 
L 106.843709 135.993009 
L 107.179651 191.290513 
L 107.515593 142.411029 
L 107.851535 135.993009 
L 108.187477 190.967703 
L 108.52342 142.151023 
L 108.859362 132.427046 
L 109.195304 135.993009 
L 109.531246 190.735957 
L 109.867188 142.151023 
L 110.203131 142.024427 
L 110.539073 114.422311 
L 110.875015 135.993009 
L 111.210957 190.408501 
L 111.546899 142.151023 
L 111.882842 141.429725 
L 112.218784 106.325622 
L 112.554726 135.993009 
L 112.890668 190.054217 
L 113.22661 142.151023 
L 113.562553 141.462626 
L 113.898495 139.440982 
L 114.234437 103.916639 
L 114.570379 135.993009 
L 114.906321 189.720099 
L 115.242264 142.151023 
L 115.578206 141.465459 
L 115.914148 137.961463 
L 116.25009 101.197375 
L 116.586033 135.993009 
L 116.921975 189.170755 
L 117.257917 142.151023 
L 117.593859 141.46824 
L 117.929801 136.970666 
L 118.265744 225.525025 
L 118.601686 135.993009 
L 118.937628 186.558747 
L 119.27357 142.151023 
L 119.609512 141.470484 
L 119.945455 137.333289 
L 120.281397 123.29118 
L 120.617339 222.541012 
L 120.953281 135.993009 
L 121.289223 185.989734 
L 121.625166 142.151023 
L 121.961108 141.473854 
L 122.29705 138.294988 
L 122.632992 122.458559 
L 122.968934 221.682379 
L 123.304877 135.993009 
L 123.640819 170.195476 
L 123.976761 184.84725 
L 124.312703 142.151023 
L 124.648645 141.477916 
L 124.984588 138.629039 
L 125.32053 121.697915 
L 125.656472 216.804348 
L 125.992414 135.993009 
L 126.328356 167.211674 
L 126.664299 183.330482 
L 127.000241 142.151023 
L 127.336183 141.480985 
L 127.672125 138.629039 
L 128.008067 138.727826 
L 128.34401 121.381933 
L 128.679952 214.04921 
L 129.015894 161.055489 
L 129.351836 182.954981 
L 129.687778 183.387412 
L 130.023721 142.151023 
L 130.359663 141.484536 
L 130.695605 138.629039 
L 131.031547 138.738495 
L 131.367489 120.700838 
L 131.703432 212.003998 
L 132.039374 181.477284 
L 132.375316 183.623035 
L 132.711258 142.151023 
L 133.0472 141.487875 
L 133.383143 138.629039 
L 133.719085 138.629039 
L 134.055027 138.748815 
L 134.390969 118.966097 
L 134.726911 210.165257 
L 135.062854 178.838931 
L 135.398796 183.637701 
L 135.734738 183.641175 
L 136.07068 142.151023 
L 136.406623 141.491467 
L 136.742565 138.629039 
L 137.078507 138.629039 
L 137.414449 138.75707 
L 137.750391 117.948333 
L 138.086334 207.881021 
L 138.422276 178.872577 
L 138.758218 178.052134 
L 139.09416 183.674778 
L 139.430102 183.643739 
L 139.766045 142.151023 
L 140.101987 141.496959 
L 140.437929 138.629039 
L 140.773871 138.763646 
L 141.109813 117.235488 
L 141.445756 203.665849 
L 141.781698 178.982704 
L 142.11764 176.6321 
L 142.453582 183.645807 
L 142.789524 142.151023 
L 143.125467 141.511957 
L 143.461409 138.629039 
L 143.797351 138.777548 
L 144.133293 115.864261 
L 144.469235 199.990892 
L 144.805178 179.030178 
L 145.14112 176.125069 
L 145.477062 183.647459 
L 145.813004 141.513236 
L 146.148946 138.629039 
L 146.484889 138.788496 
L 146.820831 115.181753 
L 147.156773 197.491017 
L 147.492715 145.288863 
L 147.828657 176.125069 
L 148.1646 183.649982 
L 148.500542 141.513827 
L 148.836484 138.629039 
L 149.172426 138.79609 
L 149.508368 114.69713 
L 149.844311 195.848815 
L 150.180253 140.810771 
L 150.516195 183.652939 
L 150.852137 141.514459 
L 151.188079 138.629039 
L 151.524022 138.803667 
L 151.859964 109.153252 
L 152.195906 192.314518 
L 152.531848 133.419395 
L 152.86779 134.456785 
L 153.203733 183.657481 
L 153.539675 141.515062 
L 153.875617 138.629039 
L 154.211559 138.81475 
L 154.547502 107.518453 
L 154.883444 192.350666 
L 155.219386 189.880932 
L 155.555328 183.6741 
L 155.89127 141.515735 
L 156.227213 138.629039 
L 156.563155 138.856436 
L 156.899097 107.1527 
L 157.235039 192.355662 
L 157.570981 180.75535 
L 157.906924 183.754988 
L 158.242866 141.517123 
L 158.578808 138.629039 
L 158.91475 138.866166 
L 159.250692 102.416875 
L 159.586635 106.998824 
L 159.922577 192.35796 
L 160.258519 180.794502 
L 160.594461 177.555212 
L 160.930403 141.518569 
L 161.266346 138.629039 
L 161.602288 138.870623 
L 161.93823 97.723508 
L 162.274172 106.818415 
L 162.610114 192.360688 
L 163.281999 165.954734 
L 163.617941 141.524067 
L 163.953883 138.629039 
L 164.289825 138.873553 
L 164.625768 106.655375 
L 164.96171 192.364898 
L 165.297652 180.799694 
L 165.633594 163.05892 
L 165.969536 164.124701 
L 166.305479 141.553256 
L 166.641421 138.629039 
L 166.977363 138.886821 
L 167.313305 138.874456 
L 167.649247 106.490248 
L 167.98519 192.368649 
L 168.321132 180.803026 
L 168.657074 161.726043 
L 168.993016 156.455101 
L 169.328958 138.892916 
L 169.664901 138.875095 
L 170.000843 106.312703 
L 170.336785 192.371565 
L 170.672727 180.817991 
L 171.008669 153.018861 
L 171.344612 154.762122 
L 171.680554 138.903232 
L 172.016496 138.875838 
L 172.352438 105.283041 
L 172.68838 192.375195 
L 173.024323 180.820872 
L 173.360265 152.368508 
L 173.696207 154.199579 
L 174.032149 138.923031 
L 174.368092 138.87726 
L 174.704034 100.92796 
L 175.039976 192.37895 
L 175.375918 180.823005 
L 175.71186 152.38053 
L 176.047803 137.439247 
L 176.383745 153.905972 
L 176.719687 138.981325 
L 177.055629 138.882713 
L 177.391571 192.383379 
L 177.727514 180.825462 
L 178.399398 130.274723 
L 178.73534 153.654634 
L 179.071282 138.901324 
L 179.407225 192.385903 
L 179.743167 180.8279 
L 180.415051 130.352278 
L 180.750993 242.116364 
L 181.086936 153.368783 
L 181.422878 192.397305 
L 181.75882 180.849313 
L 182.430704 130.382994 
L 182.766647 232.959365 
L 183.102589 240.556368 
L 183.438531 153.143582 
L 183.774473 192.401742 
L 184.110415 180.893084 
L 184.446358 152.529841 
L 184.7823 152.520443 
L 185.118242 228.355641 
L 185.454184 239.219911 
L 185.790126 152.954774 
L 186.126069 192.403283 
L 186.462011 152.557868 
L 186.797953 152.521743 
L 187.133895 227.927219 
L 187.469837 238.27984 
L 187.80578 152.78441 
L 188.141722 192.404445 
L 188.477664 152.523154 
L 188.813606 227.750286 
L 189.149548 237.092041 
L 189.485491 152.64341 
L 189.821433 192.405294 
L 190.157375 152.52439 
L 190.493317 227.625442 
L 190.829259 236.347777 
L 191.165202 152.479843 
L 191.501144 192.405726 
L 191.837086 152.525704 
L 192.173028 227.497746 
L 192.50897 235.20488 
L 192.844913 152.30007 
L 193.180855 192.40636 
L 193.516797 152.527578 
L 193.852739 227.347073 
L 194.188682 234.065548 
L 194.524624 151.320015 
L 194.860566 192.407424 
L 195.196508 152.529857 
L 195.53245 227.15701 
L 195.868393 232.787183 
L 196.204335 143.46567 
L 196.540277 151.333249 
L 196.876219 192.412167 
L 197.212161 152.543982 
L 197.548104 226.98679 
L 197.884046 231.862115 
L 198.219988 135.942999 
L 198.55593 151.414508 
L 198.891872 151.333249 
L 199.227815 192.429603 
L 199.563757 152.592315 
L 199.899699 226.8521 
L 200.235641 230.75952 
L 200.571583 135.608111 
L 200.907526 151.444206 
L 201.243468 151.333249 
L 201.57941 226.620938 
L 201.915352 229.159673 
L 202.251294 135.663797 
L 202.587237 128.934644 
L 202.923179 151.447229 
L 203.259121 151.333249 
L 203.595063 225.813978 
L 203.931005 227.973584 
L 204.266948 135.668899 
L 204.60289 125.715074 
L 204.938832 151.449339 
L 205.274774 151.333249 
L 205.610716 220.880524 
L 205.946659 226.829412 
L 206.282601 135.6718 
L 206.618543 242.013322 
L 206.954485 125.715074 
L 207.290427 151.451524 
L 207.62637 151.333249 
L 207.962312 225.709614 
L 208.298254 135.673769 
L 208.634196 229.053591 
L 208.970138 125.715074 
L 209.306081 151.460701 
L 209.642023 151.333249 
L 209.977965 224.362889 
L 210.313907 135.676979 
L 210.649849 226.158748 
L 210.985792 125.715074 
L 211.321734 151.462942 
L 211.657676 151.333249 
L 211.993618 222.107378 
L 212.329561 224.362889 
L 212.665503 135.687649 
L 213.001445 225.41886 
L 213.337387 125.715074 
L 213.673329 151.46508 
L 214.009272 151.333249 
L 214.345214 214.499748 
L 214.681156 222.107378 
L 215.017098 135.699527 
L 215.35304 225.031243 
L 215.688983 125.715074 
L 216.024925 151.467205 
L 216.360867 151.333249 
L 216.696809 203.739647 
L 217.032751 214.499748 
L 217.368694 135.706208 
L 217.704636 224.709914 
L 218.040578 125.715074 
L 218.37652 151.469644 
L 218.712462 151.333249 
L 219.048405 196.018735 
L 219.384347 203.739647 
L 219.720289 135.712484 
L 220.056231 224.449494 
L 220.392173 125.715074 
L 220.728116 151.478066 
L 221.064058 151.333249 
L 221.4 193.676225 
L 221.735942 196.018735 
L 222.071884 135.718471 
L 222.407827 224.051424 
L 222.743769 125.715074 
L 223.079711 151.519107 
L 223.415653 151.333249 
L 223.751595 185.777369 
L 224.087538 193.676225 
L 224.42348 193.705602 
L 224.759422 135.728301 
L 225.095364 223.69257 
L 225.431306 125.715074 
L 226.103191 177.001408 
L 226.439133 185.777369 
L 226.775075 185.777369 
L 227.111017 193.709892 
L 227.44696 135.735149 
L 227.782902 223.35103 
L 228.118844 125.715074 
L 228.790728 173.785476 
L 229.126671 177.001408 
L 229.462613 193.712231 
L 229.798555 135.73996 
L 230.134497 222.966264 
L 230.470439 125.715074 
L 230.806382 151.333249 
L 231.142324 165.076745 
L 231.478266 173.785476 
L 231.814208 173.973176 
L 232.150151 193.713816 
L 232.486093 135.742258 
L 232.822035 222.559828 
L 233.157977 125.715074 
L 233.493919 151.333249 
L 233.829862 205.420371 
L 234.165804 165.076745 
L 234.501746 173.978608 
L 234.837688 174.009285 
L 235.17363 193.716223 
L 235.509573 135.743714 
L 235.845515 221.671165 
L 236.181457 125.715074 
L 236.517399 151.333249 
L 236.853341 213.037499 
L 237.189284 205.420371 
L 237.525226 173.980903 
L 237.861168 174.03239 
L 238.19711 193.719876 
L 238.533052 135.744699 
L 238.868995 201.516015 
L 239.204937 125.715074 
L 239.540879 151.333249 
L 239.876821 214.349246 
L 240.212763 213.037499 
L 240.548706 173.982252 
L 240.884648 193.722468 
L 241.22059 135.746072 
L 241.556532 196.888034 
L 241.892474 198.89619 
L 242.228417 125.715074 
L 242.564359 218.689762 
L 242.900301 214.349246 
L 243.236243 214.259458 
L 243.572185 173.983494 
L 243.908128 193.724238 
L 244.24407 135.74712 
L 244.580012 192.806781 
L 244.915954 197.482869 
L 245.251896 125.715074 
L 245.587839 221.884899 
L 245.923781 218.689762 
L 246.259723 214.2064 
L 246.595665 173.9846 
L 246.931607 193.725637 
L 247.26755 135.7546 
L 247.603492 197.271798 
L 247.939434 125.715074 
L 248.275376 226.235083 
L 248.611318 221.884899 
L 248.947261 214.16436 
L 249.283203 173.985747 
L 249.619145 193.730123 
L 249.955087 135.763947 
L 250.29103 135.80404 
L 250.626972 197.110679 
L 250.962914 125.715074 
L 251.298856 229.313519 
L 251.634798 226.235083 
L 251.970741 214.146989 
L 252.306683 173.989211 
L 252.642625 193.766408 
L 252.978567 135.774267 
L 253.314509 196.959992 
L 253.650452 125.715074 
L 253.986394 237.922504 
L 254.322336 229.313519 
L 254.658278 214.144281 
L 254.99422 214.110702 
L 255.330163 173.992702 
L 255.666105 193.768215 
L 256.002047 135.802242 
L 256.337989 196.799303 
L 256.673931 125.715074 
L 257.009874 240.744271 
L 257.345816 237.922504 
L 257.681758 214.143285 
L 258.0177 214.083251 
L 258.353642 174.025318 
L 258.689585 193.769641 
L 259.025527 196.657112 
L 259.361469 125.715074 
L 259.697411 240.419178 
L 260.033353 240.744271 
L 260.369296 231.330685 
L 261.04118 193.771253 
L 261.377122 196.511677 
L 261.713064 240.342202 
L 262.049007 240.419178 
L 262.384949 230.140643 
L 263.056833 193.772688 
L 263.392775 195.761042 
L 263.728718 238.255417 
L 264.06466 240.342202 
L 264.400602 240.342202 
L 264.736544 229.26247 
L 265.072486 214.139831 
L 265.408429 193.774339 
L 265.744371 192.404517 
L 266.080313 194.3943 
L 266.416255 236.792968 
L 266.752197 238.255417 
L 267.08814 240.342202 
L 267.760024 214.138885 
L 268.095966 193.776032 
L 268.431908 192.21109 
L 268.767851 187.863064 
L 269.103793 232.694136 
L 269.775677 240.342202 
L 270.11162 220.38143 
L 270.447562 214.132694 
L 270.783504 193.778067 
L 271.119446 192.113944 
L 271.455388 187.952064 
L 271.791331 179.570981 
L 272.127273 229.038862 
L 272.463215 232.694136 
L 272.799157 232.694136 
L 273.135099 237.046282 
L 273.471042 236.931623 
L 273.806984 240.342202 
L 274.142926 216.645791 
L 274.478868 214.087049 
L 274.81481 193.779343 
L 275.150753 192.032482 
L 275.486695 187.999029 
L 275.822637 171.62865 
L 276.158579 224.584821 
L 276.494521 229.038862 
L 276.830464 229.038862 
L 277.166406 237.073269 
L 277.502348 240.342202 
L 278.174232 193.784826 
L 278.510175 191.966052 
L 278.846117 169.552533 
L 279.182059 170.079201 
L 279.518001 218.517393 
L 279.853943 240.342202 
L 280.525828 193.807942 
L 280.86177 191.861777 
L 281.197712 169.043464 
L 281.533654 169.72272 
L 281.869597 216.737748 
L 282.205539 240.342202 
L 282.877423 191.613127 
L 283.213365 168.6939 
L 283.549308 169.545817 
L 284.221192 240.342202 
L 284.557134 208.443384 
L 284.893076 191.441101 
L 285.229019 168.209328 
L 285.564961 169.351415 
L 285.900903 240.342202 
L 286.236845 207.478174 
L 286.572787 191.222371 
L 286.90873 167.060265 
L 287.244672 169.127103 
L 287.580614 240.342202 
L 287.916556 207.197959 
L 288.252498 191.089495 
L 288.588441 166.186788 
L 288.924383 168.90034 
L 289.260325 240.342202 
L 289.596267 207.088574 
L 289.93221 206.487829 
L 290.268152 190.969536 
L 290.604094 165.57362 
L 290.940036 168.648943 
L 291.275978 240.342202 
L 291.611921 206.986199 
L 291.947863 205.550766 
L 292.283805 190.767221 
L 292.619747 164.931273 
L 292.955689 168.28336 
L 293.291632 240.342202 
L 293.627574 206.88074 
L 293.963516 201.657773 
L 294.299458 190.568318 
L 294.6354 164.4039 
L 294.971343 168.297102 
L 295.307285 166.958746 
L 295.643227 240.342202 
L 295.979169 206.118247 
L 296.315111 200.004512 
L 296.651054 190.474208 
L 296.986996 163.530715 
L 297.322938 168.305354 
L 297.65888 158.57099 
L 297.994822 240.342202 
L 298.330765 200.565684 
L 298.666707 190.37084 
L 299.002649 160.70884 
L 299.338591 168.313009 
L 299.674533 152.567054 
L 300.010476 190.27163 
L 300.346418 154.11518 
L 300.68236 168.320478 
L 301.018302 152.711031 
L 301.354244 225.156836 
L 301.690187 190.151983 
L 302.362071 152.718158 
L 302.698013 152.728717 
L 303.033955 235.130177 
L 303.369898 228.266653 
L 303.70584 189.961131 
L 304.377724 152.720389 
L 304.713666 152.764747 
L 305.049609 240.907998 
L 305.385551 234.035322 
L 305.721493 189.438791 
L 306.393377 152.721823 
L 306.72932 235.648443 
L 307.065262 234.035322 
L 307.401204 188.743651 
L 308.073089 152.722687 
L 308.409031 214.597732 
L 308.744973 235.718809 
L 309.080915 234.035322 
L 309.416857 188.677441 
L 310.088742 152.723562 
L 310.760626 235.726341 
L 311.096568 234.035322 
L 311.432511 188.625079 
L 312.104395 152.724343 
L 312.440337 189.757062 
L 312.776279 168.860937 
L 313.112222 235.729217 
L 313.448164 234.035322 
L 313.784106 188.574223 
L 314.45599 152.725222 
L 314.791933 185.525564 
L 315.127875 165.640146 
L 315.463817 235.73226 
L 315.799759 234.035322 
L 316.135701 188.51975 
L 316.807586 152.725927 
L 317.143528 180.571334 
L 317.47947 163.948017 
L 317.815412 235.734785 
L 318.151355 234.035322 
L 318.487297 188.469386 
L 319.159181 152.726773 
L 319.495123 176.593287 
L 319.831066 159.192098 
L 320.167008 163.789813 
L 320.50295 235.737775 
L 320.838892 234.035322 
L 321.174834 188.421923 
L 321.846719 152.727684 
L 322.182661 174.560657 
L 322.518603 176.690658 
L 322.854545 155.326125 
L 323.190488 163.675409 
L 323.52643 235.740691 
L 323.862372 234.035322 
L 324.198314 188.355911 
L 324.870199 152.729346 
L 325.206141 171.758252 
L 325.542083 176.772048 
L 325.878025 163.578862 
L 326.213967 235.7447 
L 326.54991 234.035322 
L 326.885852 188.275016 
L 327.557736 152.741782 
L 328.229621 176.803205 
L 328.565563 176.773063 
L 328.901505 163.415784 
L 329.237447 235.750215 
L 329.57339 234.035322 
L 329.909332 187.891595 
L 330.581216 152.779893 
L 330.917158 159.276595 
L 331.253101 176.833736 
L 331.589043 176.774034 
L 331.924985 163.187411 
L 332.260927 235.756051 
L 332.596869 234.035322 
L 332.932812 184.613241 
L 333.604696 154.910562 
L 333.940638 176.775081 
L 334.27658 163.017953 
L 334.612523 235.759928 
L 334.948465 234.035322 
L 335.284407 168.724248 
L 335.620349 168.740726 
L 335.956291 150.964518 
L 336.292234 176.776015 
L 336.628176 162.737239 
L 336.964118 235.763874 
L 337.30006 234.035322 
L 337.636002 168.729578 
L 337.971945 168.776872 
L 338.307887 150.968404 
L 338.643829 209.859723 
L 338.979771 176.777047 
L 339.315713 160.788798 
L 339.651656 235.765761 
L 339.987598 234.035322 
L 340.32354 168.733985 
L 340.659482 168.807754 
L 340.995424 150.972299 
L 341.331367 215.219678 
L 341.667309 209.859723 
L 342.003251 176.777713 
L 342.339193 156.484932 
L 342.675135 235.768762 
L 343.011078 234.035322 
L 343.34702 168.737413 
L 343.682962 168.825233 
L 344.018904 150.976203 
L 344.354846 219.71382 
L 344.690789 215.219678 
L 345.026731 176.778734 
L 345.362673 235.771579 
L 345.698615 234.035322 
L 346.034557 168.740899 
L 346.3705 150.980083 
L 346.706442 224.544908 
L 347.042384 219.71382 
L 347.378326 176.78714 
L 347.714269 235.775604 
L 348.050211 234.035322 
L 348.386153 168.743924 
L 348.722095 150.983977 
L 349.058037 228.511404 
L 349.39398 224.544908 
L 349.729922 176.81611 
L 350.065864 235.818095 
L 350.401806 168.746097 
L 350.737748 150.987869 
L 351.073691 232.769874 
L 351.409633 228.511404 
L 351.745575 235.83509 
L 352.081517 168.74862 
L 352.417459 150.991764 
L 352.753402 239.581202 
L 353.089344 232.769874 
L 353.425286 232.769874 
L 353.761228 235.84372 
L 354.09717 168.75242 
L 354.433113 150.993665 
L 354.769055 237.745181 
L 355.104997 232.769874 
L 355.440939 232.769874 
L 355.776881 235.84563 
L 356.112824 168.758629 
L 356.448766 151.036389 
L 356.784708 232.572695 
L 357.12065 232.769874 
L 357.456592 232.769874 
L 357.792535 235.847134 
L 358.128477 168.781546 
L 358.464419 168.830277 
L 358.800361 151.064172 
L 359.136303 226.498899 
L 359.472246 232.769874 
L 359.808188 232.769874 
L 360.14413 235.848745 
L 360.480072 151.088471 
L 360.816014 225.710997 
L 361.151957 232.769874 
L 361.487899 232.769874 
L 361.823841 235.850034 
L 362.159783 151.113959 
L 362.495725 225.240833 
L 362.831668 224.553652 
L 363.16761 232.769874 
L 363.503552 232.769874 
L 363.839494 235.851286 
L 364.175436 151.15748 
L 364.511379 224.805778 
L 364.847321 221.845152 
L 365.183263 232.769874 
L 365.519205 232.769874 
L 365.855148 235.852535 
L 366.19109 151.168155 
L 366.527032 224.144238 
L 366.862974 215.419782 
L 367.198916 235.853769 
L 367.534859 151.174208 
L 367.870801 151.10645 
L 368.206743 223.308233 
L 368.542685 235.875835 
L 368.878627 151.184146 
L 369.21457 151.054117 
L 369.550512 220.05368 
L 369.886454 235.925219 
L 370.222396 235.906335 
L 370.558338 151.186112 
L 370.894281 150.966155 
L 371.230223 214.141571 
L 371.566165 235.958015 
L 371.902107 151.187772 
L 373.581818 151.246783 
L 373.581818 151.246783 
" style="fill:none;stroke:#ffff00;stroke-linecap:square;stroke-width:1.5;"/>
   </g>
   <g id="line2d_17">
    <path clip-path="url(#p131d1fdc7e)" d="M 69.218182 239.473228 
L 69.554124 137.15982 
L 69.890066 130.215709 
L 71.233835 127.274322 
L 71.569777 63.485268 
L 72.241662 58.250307 
L 72.913546 54.606294 
L 73.249488 53.144489 
L 73.58543 52.245613 
L 73.921373 50.007813 
L 74.257315 158.764831 
L 74.593257 158.764831 
L 74.929199 136.781477 
L 75.265141 158.764831 
L 75.601084 135.268888 
L 75.937026 158.764831 
L 76.272968 133.570427 
L 76.60891 158.764831 
L 76.944852 130.804989 
L 77.280795 158.764831 
L 77.616737 125.773989 
L 77.952679 158.764831 
L 78.288621 125.867209 
L 78.624564 59.472332 
L 78.960506 158.764831 
L 79.296448 125.87748 
L 79.63239 125.882221 
L 79.968332 168.706852 
L 80.304275 158.764831 
L 80.640217 125.901 
L 80.976159 125.882729 
L 81.312101 168.802866 
L 81.648043 112.433129 
L 81.983986 158.764831 
L 82.319928 125.88346 
L 82.65587 168.806499 
L 82.991812 168.816746 
L 83.327754 73.382911 
L 83.999639 158.764831 
L 84.335581 125.884397 
L 84.671523 168.808137 
L 85.007465 168.850146 
L 85.343408 170.759409 
L 85.67935 112.433129 
L 86.015292 158.764831 
L 86.351234 125.88668 
L 86.687176 168.809872 
L 87.023119 166.504868 
L 87.359061 170.759409 
L 87.695003 112.433129 
L 88.030945 158.764831 
L 88.366887 125.888635 
L 88.70283 168.811525 
L 89.038772 147.232923 
L 89.374714 170.759409 
L 89.710656 112.433129 
L 90.046598 158.764831 
L 90.382541 125.898004 
L 90.718483 168.812515 
L 91.054425 143.146606 
L 91.390367 147.353442 
L 91.726309 170.759409 
L 92.062252 112.433129 
L 92.398194 158.764831 
L 92.734136 125.931122 
L 93.070078 168.814457 
L 93.40602 94.868266 
L 93.741963 147.38751 
L 94.077905 147.378283 
L 94.413847 170.759409 
L 94.749789 112.433129 
L 95.085731 158.764831 
L 95.421674 168.8243 
L 95.757616 78.03968 
L 96.093558 170.759409 
L 96.4295 112.433129 
L 96.765443 158.764831 
L 97.101385 168.861392 
L 97.437327 74.367131 
L 97.773269 170.759409 
L 98.109211 112.433129 
L 98.445154 158.764831 
L 98.781096 66.919781 
L 99.117038 170.759409 
L 99.45298 112.433129 
L 99.788922 158.764831 
L 100.124865 59.896584 
L 100.796749 158.764831 
L 101.132691 55.814439 
L 101.804576 158.764831 
L 102.140518 53.118487 
L 102.812402 158.764831 
L 103.148344 176.281194 
L 103.484287 112.433129 
L 103.820229 158.764831 
L 104.156171 176.198461 
L 104.492113 174.30731 
L 104.828055 112.433129 
L 105.163998 176.098366 
L 105.49994 173.188019 
L 105.835882 112.433129 
L 106.171824 175.982348 
L 106.507766 129.023807 
L 106.843709 112.433129 
L 107.179651 175.805456 
L 107.515593 124.599515 
L 107.851535 112.433129 
L 108.187477 175.578036 
L 108.52342 124.224875 
L 108.859362 115.276671 
L 109.195304 112.433129 
L 109.531246 175.414771 
L 109.867188 124.224875 
L 110.203131 124.042465 
L 110.539073 98.464133 
L 110.875015 112.433129 
L 111.210957 175.184078 
L 111.546899 124.224875 
L 111.882842 123.185564 
L 112.218784 90.903541 
L 112.554726 112.433129 
L 112.890668 174.934486 
L 113.22661 124.224875 
L 113.562553 123.218522 
L 113.898495 120.488254 
L 114.234437 88.654056 
L 114.570379 112.433129 
L 114.906321 174.6991 
L 115.242264 124.224875 
L 115.578206 123.22136 
L 115.914148 118.4816 
L 116.25009 86.114834 
L 116.586033 112.433129 
L 116.921975 174.312088 
L 117.257917 124.224875 
L 117.593859 123.224145 
L 117.929801 117.137796 
L 118.265744 83.726741 
L 118.601686 112.433129 
L 118.937628 172.471933 
L 119.27357 124.224875 
L 119.609512 123.226394 
L 119.945455 115.463277 
L 120.281397 117.235444 
L 120.617339 80.940293 
L 120.953281 112.433129 
L 121.289223 172.071065 
L 121.625166 124.224875 
L 121.961108 123.229769 
L 122.29705 111.022355 
L 122.632992 117.241388 
L 122.968934 80.138507 
L 123.304877 112.433129 
L 123.640819 172.183817 
L 123.976761 170.306749 
L 124.312703 124.224875 
L 124.648645 123.233838 
L 124.984588 109.47978 
L 125.32053 117.246817 
L 125.656472 75.583433 
L 125.992414 112.433129 
L 126.328356 172.205118 
L 126.664299 167.964435 
L 127.000241 124.224875 
L 127.336183 123.236912 
L 128.008067 95.598256 
L 128.34401 117.249073 
L 128.679952 73.010699 
L 129.015894 172.249066 
L 129.351836 168.123969 
L 129.687778 159.966972 
L 130.023721 124.224875 
L 130.359663 123.240469 
L 131.031547 94.099038 
L 131.367489 117.253935 
L 131.703432 71.100888 
L 132.039374 168.751778 
L 132.375316 126.867167 
L 132.711258 124.224875 
L 133.0472 123.243814 
L 133.383143 109.47978 
L 133.719085 109.47978 
L 134.055027 92.648882 
L 134.390969 117.266318 
L 134.726911 69.383879 
L 135.062854 169.872701 
L 135.398796 124.806611 
L 135.734738 124.319166 
L 136.07068 124.224875 
L 136.406623 123.247413 
L 136.742565 109.47978 
L 137.078507 109.47978 
L 137.414449 91.488902 
L 137.750391 117.273583 
L 138.086334 67.250867 
L 138.422276 169.906404 
L 138.758218 170.066229 
L 139.09416 119.597019 
L 139.430102 123.959003 
L 139.766045 124.224875 
L 140.101987 123.252914 
L 140.437929 109.47978 
L 140.773871 90.564887 
L 141.109813 117.278672 
L 141.445756 63.314748 
L 141.781698 170.016718 
L 142.11764 170.415513 
L 142.453582 123.668543 
L 142.789524 124.224875 
L 143.125467 123.267938 
L 143.461409 109.47978 
L 143.797351 88.611371 
L 144.133293 117.28846 
L 144.469235 59.883076 
L 144.805178 170.064272 
L 145.14112 170.540227 
L 145.477062 123.436421 
L 145.813004 123.269219 
L 146.148946 109.47978 
L 146.484889 87.072931 
L 146.820831 117.293332 
L 147.156773 57.548693 
L 147.492715 170.760501 
L 147.828657 170.540227 
L 148.1646 123.082086 
L 148.500542 123.26981 
L 148.836484 109.47978 
L 149.172426 86.005791 
L 149.508368 117.296791 
L 149.844311 56.015203 
L 150.180253 170.79249 
L 150.516195 122.666734 
L 150.852137 123.270443 
L 151.188079 109.47978 
L 151.524022 84.941195 
L 151.859964 117.336365 
L 152.195906 52.714872 
L 152.531848 170.84529 
L 152.86779 170.837878 
L 153.203733 122.028777 
L 153.539675 123.271048 
L 153.875617 109.47978 
L 154.211559 83.383737 
L 154.547502 117.348035 
L 154.883444 52.751082 
L 155.219386 177.323888 
L 155.555328 119.694291 
L 155.89127 123.271722 
L 156.227213 109.47978 
L 156.563155 77.526061 
L 156.899097 117.350646 
L 157.235039 52.756087 
L 157.570981 168.789036 
L 157.906924 108.332346 
L 158.242866 123.273112 
L 158.578808 109.47978 
L 158.91475 76.158874 
L 159.250692 117.384453 
L 159.586635 117.351744 
L 159.922577 52.758389 
L 160.258519 163.273934 
L 160.594461 166.524458 
L 160.930403 123.274561 
L 161.266346 109.47978 
L 161.602288 75.53253 
L 161.93823 117.417957 
L 162.274172 117.353032 
L 162.610114 52.761122 
L 162.946057 162.873047 
L 163.281999 158.315361 
L 163.617941 123.280068 
L 163.953883 109.47978 
L 164.289825 75.120756 
L 164.625768 117.354196 
L 164.96171 52.765339 
L 165.297652 162.542623 
L 165.969536 156.203676 
L 166.305479 123.309307 
L 166.641421 109.47978 
L 166.977363 73.256513 
L 167.313305 74.993893 
L 167.649247 117.355374 
L 167.98519 52.769096 
L 168.321132 162.073281 
L 168.657074 159.053425 
L 168.993016 147.353686 
L 169.328958 72.400158 
L 169.664901 74.904108 
L 170.000843 117.356642 
L 170.336785 52.772018 
L 170.672727 159.96521 
L 171.008669 160.573177 
L 171.344612 145.400148 
L 171.680554 70.950794 
L 172.016496 74.799625 
L 172.352438 117.363991 
L 172.68838 52.775654 
L 173.024323 159.559384 
L 173.360265 160.686691 
L 173.696207 144.751028 
L 174.032149 68.168833 
L 174.368092 74.599781 
L 174.704034 117.395078 
L 175.039976 52.779415 
L 175.375918 159.258903 
L 175.71186 160.698734 
L 176.047803 159.890693 
L 176.383745 144.412232 
L 176.719687 59.978274 
L 177.055629 73.833347 
L 177.391571 52.783852 
L 177.727514 158.912782 
L 178.063456 160.760758 
L 178.399398 159.508694 
L 178.73534 144.122213 
L 179.071282 71.217797 
L 179.407225 52.78638 
L 179.743167 158.569434 
L 180.079109 160.782411 
L 180.415051 148.563229 
L 180.750993 164.528092 
L 181.086936 143.792368 
L 181.422878 52.797802 
L 181.75882 155.55309 
L 182.094762 160.829539 
L 182.430704 144.228282 
L 182.766647 164.593361 
L 183.102589 165.175072 
L 183.438531 143.532507 
L 183.774473 52.802247 
L 184.110415 149.387277 
L 184.446358 160.848302 
L 184.7823 160.838888 
L 185.118242 164.626176 
L 185.454184 165.729345 
L 185.790126 143.31464 
L 186.126069 52.803791 
L 186.462011 160.876377 
L 186.797953 160.840189 
L 187.133895 164.629229 
L 187.469837 166.119224 
L 187.80578 143.118056 
L 188.141722 52.804954 
L 188.477664 160.841603 
L 188.813606 164.63049 
L 189.149548 166.611845 
L 189.485491 142.955356 
L 189.821433 52.805805 
L 190.157375 160.842841 
L 190.493317 164.63138 
L 190.829259 166.920517 
L 191.165202 142.766615 
L 191.501144 52.806237 
L 191.837086 160.844157 
L 192.50897 167.394517 
L 192.844913 142.559175 
L 193.180855 52.806873 
L 193.516797 160.846035 
L 194.188682 167.867039 
L 194.524624 141.428284 
L 194.860566 52.807938 
L 195.196508 160.848318 
L 195.868393 168.397224 
L 196.204335 135.001702 
L 196.540277 139.564073 
L 196.876219 52.81269 
L 197.212161 160.862467 
L 197.884046 168.780885 
L 198.219988 128.8465 
L 198.55593 128.117565 
L 198.891872 139.564073 
L 199.227815 52.830156 
L 199.563757 160.910883 
L 200.235641 169.238174 
L 200.571583 128.572488 
L 200.907526 123.934151 
L 201.243468 139.564073 
L 201.57941 164.63854 
L 201.915352 169.901693 
L 202.251294 120.727567 
L 202.587237 125.946222 
L 202.923179 123.508334 
L 203.259121 139.564073 
L 203.595063 164.644292 
L 203.931005 170.393612 
L 204.266948 120.00877 
L 204.60289 124.679197 
L 204.938832 123.21117 
L 205.274774 139.564073 
L 205.610716 164.679456 
L 205.946659 170.868148 
L 206.282601 119.600149 
L 206.618543 120.856779 
L 206.954485 124.679197 
L 207.290427 122.903334 
L 207.62637 139.564073 
L 207.962312 171.332575 
L 208.298254 119.322685 
L 208.634196 115.412708 
L 208.970138 124.679197 
L 209.306081 121.610603 
L 209.642023 139.564073 
L 209.977965 45.006054 
L 210.313907 118.870492 
L 210.649849 114.273472 
L 210.985792 124.679197 
L 211.321734 121.294948 
L 211.657676 139.564073 
L 211.993618 45.941513 
L 212.329561 45.006054 
L 212.665503 117.367377 
L 213.001445 113.982296 
L 213.337387 124.679197 
L 213.673329 120.993848 
L 214.009272 139.564073 
L 214.345214 49.096757 
L 214.681156 45.941513 
L 215.017098 115.693938 
L 215.35304 113.829754 
L 215.688983 124.679197 
L 216.024925 120.694386 
L 216.360867 139.564073 
L 216.696809 53.559544 
L 217.032751 49.096757 
L 217.368694 114.752803 
L 217.704636 113.703298 
L 218.040578 124.679197 
L 218.37652 120.350864 
L 218.712462 139.564073 
L 219.048405 56.761865 
L 219.384347 53.559544 
L 219.720289 113.868706 
L 220.056231 113.600812 
L 220.392173 124.679197 
L 220.728116 119.164531 
L 221.064058 139.564073 
L 221.4 57.733451 
L 221.735942 56.761865 
L 222.071884 113.025205 
L 222.407827 113.444156 
L 222.743769 124.679197 
L 223.079711 113.383297 
L 223.415653 139.564073 
L 223.751595 59.688212 
L 224.087538 57.733451 
L 224.42348 57.762875 
L 224.759422 111.640301 
L 225.095364 113.302933 
L 225.767249 139.564073 
L 226.103191 61.860047 
L 226.439133 59.688212 
L 226.775075 59.688212 
L 227.111017 57.767172 
L 227.44696 110.675689 
L 227.782902 113.168523 
L 228.454786 139.564073 
L 228.790728 62.655915 
L 229.126671 61.860047 
L 229.462613 57.769515 
L 229.798555 109.997932 
L 230.134497 113.017102 
L 230.806382 139.564073 
L 231.142324 62.524365 
L 231.814208 62.843913 
L 232.150151 57.771102 
L 232.486093 109.674096 
L 232.822035 112.857153 
L 233.493919 139.564073 
L 233.829862 62.335825 
L 234.165804 62.524365 
L 234.501746 62.849353 
L 234.837688 62.880079 
L 235.17363 57.773513 
L 235.509573 109.468954 
L 235.845515 112.507429 
L 236.517399 139.564073 
L 236.853341 62.220767 
L 237.189284 62.335825 
L 237.525226 62.851653 
L 237.861168 62.903221 
L 238.19711 57.777172 
L 238.533052 109.330253 
L 238.868995 104.575562 
L 239.540879 139.564073 
L 239.876821 62.200953 
L 240.212763 62.220767 
L 240.548706 62.853004 
L 240.884648 57.779767 
L 241.22059 109.136782 
L 241.556532 104.60855 
L 241.892474 103.24582 
L 242.228417 124.679197 
L 242.564359 61.381659 
L 242.900301 62.200953 
L 243.236243 62.290881 
L 243.572185 62.854247 
L 243.908128 57.781541 
L 244.24407 108.989123 
L 244.580012 104.63764 
L 244.915954 102.528461 
L 245.251896 124.679197 
L 245.587839 60.778563 
L 245.923781 61.381659 
L 246.259723 62.344021 
L 246.595665 62.855355 
L 246.931607 57.782942 
L 247.26755 107.935399 
L 247.603492 102.421327 
L 247.939434 124.679197 
L 248.275376 59.95745 
L 248.611318 60.778563 
L 248.947261 62.386126 
L 249.283203 62.856504 
L 249.619145 57.787435 
L 249.955087 106.618676 
L 250.29103 100.970466 
L 250.626972 102.339549 
L 250.962914 124.679197 
L 251.298856 59.376385 
L 251.634798 59.95745 
L 251.970741 62.403524 
L 252.306683 62.859973 
L 252.642625 57.823779 
L 252.978567 105.164714 
L 253.314509 102.263064 
L 253.650452 124.679197 
L 253.986394 57.751419 
L 254.322336 59.376385 
L 254.658278 62.406236 
L 254.99422 62.439867 
L 255.330163 62.86347 
L 255.666105 57.825589 
L 256.002047 101.223655 
L 256.337989 102.181503 
L 256.673931 124.679197 
L 257.009874 56.574791 
L 257.345816 57.751419 
L 257.681758 62.407233 
L 258.0177 62.467361 
L 258.353642 62.896137 
L 258.689585 57.827017 
L 259.025527 102.109332 
L 259.361469 124.679197 
L 259.697411 56.074859 
L 260.033353 56.574791 
L 260.369296 56.641996 
L 260.705238 62.40872 
L 261.04118 57.828631 
L 261.377122 102.035513 
L 261.713064 55.956484 
L 262.049007 56.074859 
L 262.384949 56.650492 
L 262.720891 62.409614 
L 263.056833 57.830068 
L 263.392775 101.654514 
L 263.728718 52.747387 
L 264.06466 55.956484 
L 264.400602 55.956484 
L 264.736544 56.656762 
L 265.072486 62.410693 
L 265.408429 57.831722 
L 265.744371 101.67844 
L 266.080313 100.774547 
L 266.416255 50.498406 
L 266.752197 52.747387 
L 267.08814 55.956484 
L 267.424082 56.662862 
L 267.760024 62.411641 
L 268.095966 57.833418 
L 268.431908 101.679819 
L 268.767851 96.569453 
L 269.103793 51.424548 
L 269.439735 49.853884 
L 269.775677 55.956484 
L 270.11162 56.720165 
L 270.447562 62.417841 
L 270.783504 57.835456 
L 271.119446 101.680512 
L 271.455388 84.013589 
L 271.791331 94.362997 
L 272.127273 52.250468 
L 272.463215 51.424548 
L 272.799157 51.424548 
L 273.135099 160.477718 
L 273.471042 49.853884 
L 273.806984 55.956484 
L 274.142926 56.746834 
L 274.478868 62.463557 
L 274.81481 57.836734 
L 275.150753 101.681092 
L 275.486695 77.387823 
L 275.822637 92.249602 
L 276.158579 52.250481 
L 276.830464 52.250468 
L 277.166406 156.650316 
L 277.502348 55.956484 
L 278.174232 57.842226 
L 278.510175 101.681566 
L 278.846117 92.264404 
L 279.182059 91.497058 
L 279.518001 52.250499 
L 279.853943 55.956484 
L 280.525828 57.86538 
L 280.86177 101.682309 
L 281.197712 92.268034 
L 281.533654 91.323921 
L 281.869597 52.250504 
L 282.205539 55.956484 
L 282.541481 56.780464 
L 282.877423 101.684082 
L 283.213365 92.270526 
L 283.549308 91.238001 
L 283.88525 52.250521 
L 284.221192 55.956484 
L 284.557134 56.805392 
L 284.893076 101.685308 
L 285.229019 92.273981 
L 285.564961 91.143583 
L 285.900903 55.956484 
L 286.236845 56.812283 
L 286.572787 101.686867 
L 286.90873 92.282173 
L 287.244672 91.034638 
L 287.580614 55.956484 
L 287.916556 56.814283 
L 288.252498 101.687814 
L 288.588441 92.288401 
L 288.924383 90.924503 
L 289.260325 55.956484 
L 289.596267 56.815064 
L 289.93221 56.819353 
L 290.268152 101.68867 
L 290.604094 92.292773 
L 290.940036 90.802403 
L 291.275978 55.956484 
L 291.611921 56.815795 
L 291.947863 56.826043 
L 292.283805 101.690112 
L 292.619747 92.297352 
L 292.955689 90.624845 
L 293.291632 55.956484 
L 293.627574 56.816548 
L 293.963516 56.853836 
L 294.299458 101.69153 
L 294.6354 92.301112 
L 294.971343 90.63861 
L 295.307285 89.82621 
L 295.643227 55.956484 
L 295.979169 56.821991 
L 296.315111 56.865638 
L 296.651054 101.6922 
L 296.986996 92.307338 
L 297.322938 90.646875 
L 297.65888 84.769078 
L 297.994822 55.956484 
L 298.330765 56.861631 
L 298.666707 101.692937 
L 299.002649 92.327457 
L 299.338591 90.654543 
L 299.674533 81.149196 
L 300.010476 101.693645 
L 300.346418 92.374468 
L 300.68236 90.662025 
L 301.018302 60.829845 
L 301.690187 101.694497 
L 302.026129 90.667637 
L 302.362071 59.823958 
L 302.698013 185.218764 
L 303.033955 82.169816 
L 303.369898 82.06764 
L 303.70584 101.695858 
L 304.041782 90.676551 
L 304.377724 59.50921 
L 304.713666 180.133723 
L 305.049609 82.211026 
L 305.385551 81.896474 
L 305.721493 101.699581 
L 306.057435 90.691582 
L 306.393377 186.1919 
L 306.72932 81.444967 
L 307.065262 81.896474 
L 307.401204 101.704537 
L 307.737146 90.804205 
L 308.073089 186.069834 
L 308.409031 78.034216 
L 308.744973 81.515446 
L 309.080915 81.896474 
L 309.416857 101.705009 
L 309.7528 90.896597 
L 310.088742 185.94646 
L 310.424684 74.513976 
L 310.760626 81.522991 
L 311.096568 81.896474 
L 311.432511 101.705382 
L 311.768453 90.92587 
L 312.104395 185.836261 
L 312.440337 71.675681 
L 312.776279 74.685508 
L 313.112222 81.525872 
L 313.448164 81.896474 
L 313.784106 101.705744 
L 314.120048 90.95252 
L 314.45599 185.712105 
L 314.791933 67.81888 
L 315.463817 81.528919 
L 315.799759 81.896474 
L 316.135701 101.706133 
L 316.471644 90.967034 
L 316.807586 185.612632 
L 317.143528 190.188408 
L 317.47947 74.720607 
L 317.815412 81.531448 
L 318.151355 81.896474 
L 318.487297 101.706492 
L 318.823239 90.978627 
L 319.159181 185.493313 
L 319.495123 186.562613 
L 319.831066 74.754585 
L 320.167008 74.721737 
L 320.50295 81.534443 
L 320.838892 81.896474 
L 321.174834 101.70683 
L 321.510777 90.988512 
L 321.846719 185.364732 
L 322.182661 187.797316 
L 322.518603 172.800006 
L 322.854545 74.782204 
L 323.190488 74.722555 
L 323.52643 81.537364 
L 323.862372 81.896474 
L 324.198314 101.707301 
L 324.534256 91.000112 
L 324.870199 185.130144 
L 325.206141 189.499613 
L 325.542083 161.296272 
L 325.878025 74.723244 
L 326.213967 81.541379 
L 326.54991 81.896474 
L 326.885852 101.707877 
L 327.221794 91.010711 
L 327.557736 183.375056 
L 327.893679 66.802251 
L 328.229621 156.892604 
L 328.565563 161.152763 
L 328.901505 74.724409 
L 329.237447 81.546903 
L 329.57339 81.896474 
L 329.909332 101.71061 
L 330.245274 91.027155 
L 330.581216 177.996599 
L 330.917158 70.196445 
L 331.253101 152.577481 
L 331.589043 161.015549 
L 331.924985 74.726041 
L 332.260927 81.552749 
L 332.596869 81.896474 
L 332.932812 101.73398 
L 333.268754 91.060353 
L 333.604696 72.848569 
L 333.940638 160.867626 
L 334.27658 74.727252 
L 334.612523 81.556632 
L 334.948465 81.896474 
L 335.284407 91.066474 
L 335.620349 91.08298 
L 335.956291 75.245576 
L 336.292234 160.735542 
L 336.628176 74.729257 
L 336.964118 81.560585 
L 337.30006 81.896474 
L 337.636002 91.071813 
L 337.971945 91.119186 
L 338.307887 75.249467 
L 338.643829 75.744486 
L 338.979771 160.589677 
L 339.315713 74.743177 
L 339.651656 81.562474 
L 339.987598 81.896474 
L 340.32354 91.076228 
L 340.659482 91.150121 
L 340.995424 75.253369 
L 341.331367 76.955745 
L 341.667309 75.744486 
L 342.003251 160.495633 
L 342.339193 74.773924 
L 342.675135 81.56548 
L 343.011078 81.896474 
L 343.34702 91.079661 
L 343.682962 91.167629 
L 344.018904 75.257279 
L 344.354846 77.971347 
L 344.690789 76.955745 
L 345.026731 160.351188 
L 345.362673 81.568302 
L 345.698615 81.896474 
L 346.034557 91.083153 
L 346.3705 75.261164 
L 346.706442 79.063096 
L 347.042384 77.971347 
L 347.378326 159.163091 
L 347.714269 81.572334 
L 348.050211 81.896474 
L 348.386153 91.086184 
L 348.722095 75.265065 
L 349.058037 79.959463 
L 349.39398 79.063096 
L 349.729922 155.068371 
L 350.065864 81.614893 
L 350.401806 91.08836 
L 350.737748 75.268963 
L 351.073691 80.921814 
L 351.409633 79.959463 
L 351.745575 81.631916 
L 352.081517 91.090887 
L 352.417459 75.272863 
L 352.753402 80.92204 
L 353.425286 80.921814 
L 353.761228 81.64056 
L 354.09717 91.094694 
L 354.433113 75.274767 
L 354.769055 80.922073 
L 355.440939 80.921814 
L 355.776881 81.642473 
L 356.112824 91.100913 
L 356.448766 75.317557 
L 356.784708 80.922166 
L 357.456592 80.921814 
L 357.792535 81.643979 
L 358.128477 91.123869 
L 358.464419 91.172682 
L 358.800361 75.345382 
L 359.136303 80.922276 
L 359.808188 80.921814 
L 360.14413 81.645593 
L 360.480072 75.369718 
L 360.816014 80.92229 
L 361.487899 80.921814 
L 361.823841 81.646884 
L 362.159783 75.395245 
L 362.495725 80.922299 
L 363.503552 80.921814 
L 363.839494 81.648138 
L 364.175436 75.438832 
L 364.511379 80.922307 
L 365.519205 80.921814 
L 365.855148 81.649389 
L 366.19109 75.449522 
L 366.527032 80.922319 
L 366.862974 80.922475 
L 367.198916 81.650625 
L 367.534859 75.455585 
L 367.870801 75.387723 
L 368.206743 80.922334 
L 368.542685 81.672727 
L 368.878627 75.465539 
L 369.21457 75.335309 
L 369.550512 80.922393 
L 369.886454 81.72219 
L 370.222396 81.703276 
L 370.558338 75.467507 
L 370.894281 75.247211 
L 371.230223 80.9225 
L 371.566165 81.75504 
L 371.902107 75.46917 
L 373.581818 75.52827 
L 373.581818 75.52827 
" style="fill:none;stroke:#0000ff;stroke-linecap:square;stroke-width:1.5;"/>
   </g>
   <g id="patch_3">
    <path d="M 54 252 
L 54 34.56 
" style="fill:none;stroke:#000000;stroke-linecap:square;stroke-linejoin:miter;stroke-width:0.8;"/>
   </g>
   <g id="patch_4">
    <path d="M 388.8 252 
L 388.8 34.56 
" style="fill:none;stroke:#000000;stroke-linecap:square;stroke-linejoin:miter;stroke-width:0.8;"/>
   </g>
   <g id="patch_5">
    <path d="M 54 252 
L 388.8 252 
" style="fill:none;stroke:#000000;stroke-linecap:square;stroke-linejoin:miter;stroke-width:0.8;"/>
   </g>
   <g id="patch_6">
    <path d="M 54 34.56 
L 388.8 34.56 
" style="fill:none;stroke:#000000;stroke-linecap:square;stroke-linejoin:miter;stroke-width:0.8;"/>
   </g>
   <g id="legend_1">
    <g id="patch_7">
     <path d="M 61 247 
L 295.596875 247 
Q 297.596875 247 297.596875 245 
L 297.596875 201.13125 
Q 297.596875 199.13125 295.596875 199.13125 
L 61 199.13125 
Q 59 199.13125 59 201.13125 
L 59 245 
Q 59 247 61 247 
z
" style="fill:#ffffff;opacity:0.8;stroke:#cccccc;stroke-linejoin:miter;"/>
    </g>
    <g id="line2d_18">
     <path d="M 63 207.229688 
L 83 207.229688 
" style="fill:none;stroke:#ff0000;stroke-linecap:square;stroke-width:1.5;"/>
    </g>
    <g id="line2d_19"/>
    <g id="text_11">
     <!-- off_startOpenDSS_pandapower_Phase_A -->
     <defs>
      <path d="M 30.609375 48.390625 
Q 23.390625 48.390625 19.1875 42.75 
Q 14.984375 37.109375 14.984375 27.296875 
Q 14.984375 17.484375 19.15625 11.84375 
Q 23.34375 6.203125 30.609375 6.203125 
Q 37.796875 6.203125 41.984375 11.859375 
Q 46.1875 17.53125 46.1875 27.296875 
Q 46.1875 37.015625 41.984375 42.703125 
Q 37.796875 48.390625 30.609375 48.390625 
z
M 30.609375 56 
Q 42.328125 56 49.015625 48.375 
Q 55.71875 40.765625 55.71875 27.296875 
Q 55.71875 13.875 49.015625 6.21875 
Q 42.328125 -1.421875 30.609375 -1.421875 
Q 18.84375 -1.421875 12.171875 6.21875 
Q 5.515625 13.875 5.515625 27.296875 
Q 5.515625 40.765625 12.171875 48.375 
Q 18.84375 56 30.609375 56 
z
" id="DejaVuSans-111"/>
      <path d="M 37.109375 75.984375 
L 37.109375 68.5 
L 28.515625 68.5 
Q 23.6875 68.5 21.796875 66.546875 
Q 19.921875 64.59375 19.921875 59.515625 
L 19.921875 54.6875 
L 34.71875 54.6875 
L 34.71875 47.703125 
L 19.921875 47.703125 
L 19.921875 0 
L 10.890625 0 
L 10.890625 47.703125 
L 2.296875 47.703125 
L 2.296875 54.6875 
L 10.890625 54.6875 
L 10.890625 58.5 
Q 10.890625 67.625 15.140625 71.796875 
Q 19.390625 75.984375 28.609375 75.984375 
z
" id="DejaVuSans-102"/>
      <path d="M 50.984375 -16.609375 
L 50.984375 -23.578125 
L -0.984375 -23.578125 
L -0.984375 -16.609375 
z
" id="DejaVuSans-95"/>
      <path d="M 18.3125 70.21875 
L 18.3125 54.6875 
L 36.8125 54.6875 
L 36.8125 47.703125 
L 18.3125 47.703125 
L 18.3125 18.015625 
Q 18.3125 11.328125 20.140625 9.421875 
Q 21.96875 7.515625 27.59375 7.515625 
L 36.8125 7.515625 
L 36.8125 0 
L 27.59375 0 
Q 17.1875 0 13.234375 3.875 
Q 9.28125 7.765625 9.28125 18.015625 
L 9.28125 47.703125 
L 2.6875 47.703125 
L 2.6875 54.6875 
L 9.28125 54.6875 
L 9.28125 70.21875 
z
" id="DejaVuSans-116"/>
      <path d="M 34.28125 27.484375 
Q 23.390625 27.484375 19.1875 25 
Q 14.984375 22.515625 14.984375 16.5 
Q 14.984375 11.71875 18.140625 8.90625 
Q 21.296875 6.109375 26.703125 6.109375 
Q 34.1875 6.109375 38.703125 11.40625 
Q 43.21875 16.703125 43.21875 25.484375 
L 43.21875 27.484375 
z
M 52.203125 31.203125 
L 52.203125 0 
L 43.21875 0 
L 43.21875 8.296875 
Q 40.140625 3.328125 35.546875 0.953125 
Q 30.953125 -1.421875 24.3125 -1.421875 
Q 15.921875 -1.421875 10.953125 3.296875 
Q 6 8.015625 6 15.921875 
Q 6 25.140625 12.171875 29.828125 
Q 18.359375 34.515625 30.609375 34.515625 
L 43.21875 34.515625 
L 43.21875 35.40625 
Q 43.21875 41.609375 39.140625 45 
Q 35.0625 48.390625 27.6875 48.390625 
Q 23 48.390625 18.546875 47.265625 
Q 14.109375 46.140625 10.015625 43.890625 
L 10.015625 52.203125 
Q 14.9375 54.109375 19.578125 55.046875 
Q 24.21875 56 28.609375 56 
Q 40.484375 56 46.34375 49.84375 
Q 52.203125 43.703125 52.203125 31.203125 
z
" id="DejaVuSans-97"/>
      <path d="M 41.109375 46.296875 
Q 39.59375 47.171875 37.8125 47.578125 
Q 36.03125 48 33.890625 48 
Q 26.265625 48 22.1875 43.046875 
Q 18.109375 38.09375 18.109375 28.8125 
L 18.109375 0 
L 9.078125 0 
L 9.078125 54.6875 
L 18.109375 54.6875 
L 18.109375 46.1875 
Q 20.953125 51.171875 25.484375 53.578125 
Q 30.03125 56 36.53125 56 
Q 37.453125 56 38.578125 55.875 
Q 39.703125 55.765625 41.0625 55.515625 
z
" id="DejaVuSans-114"/>
      <path d="M 39.40625 66.21875 
Q 28.65625 66.21875 22.328125 58.203125 
Q 16.015625 50.203125 16.015625 36.375 
Q 16.015625 22.609375 22.328125 14.59375 
Q 28.65625 6.59375 39.40625 6.59375 
Q 50.140625 6.59375 56.421875 14.59375 
Q 62.703125 22.609375 62.703125 36.375 
Q 62.703125 50.203125 56.421875 58.203125 
Q 50.140625 66.21875 39.40625 66.21875 
z
M 39.40625 74.21875 
Q 54.734375 74.21875 63.90625 63.9375 
Q 73.09375 53.65625 73.09375 36.375 
Q 73.09375 19.140625 63.90625 8.859375 
Q 54.734375 -1.421875 39.40625 -1.421875 
Q 24.03125 -1.421875 14.8125 8.828125 
Q 5.609375 19.09375 5.609375 36.375 
Q 5.609375 53.65625 14.8125 63.9375 
Q 24.03125 74.21875 39.40625 74.21875 
z
" id="DejaVuSans-79"/>
      <path d="M 18.109375 8.203125 
L 18.109375 -20.796875 
L 9.078125 -20.796875 
L 9.078125 54.6875 
L 18.109375 54.6875 
L 18.109375 46.390625 
Q 20.953125 51.265625 25.265625 53.625 
Q 29.59375 56 35.59375 56 
Q 45.5625 56 51.78125 48.09375 
Q 58.015625 40.1875 58.015625 27.296875 
Q 58.015625 14.40625 51.78125 6.484375 
Q 45.5625 -1.421875 35.59375 -1.421875 
Q 29.59375 -1.421875 25.265625 0.953125 
Q 20.953125 3.328125 18.109375 8.203125 
z
M 48.6875 27.296875 
Q 48.6875 37.203125 44.609375 42.84375 
Q 40.53125 48.484375 33.40625 48.484375 
Q 26.265625 48.484375 22.1875 42.84375 
Q 18.109375 37.203125 18.109375 27.296875 
Q 18.109375 17.390625 22.1875 11.75 
Q 26.265625 6.109375 33.40625 6.109375 
Q 40.53125 6.109375 44.609375 11.75 
Q 48.6875 17.390625 48.6875 27.296875 
z
" id="DejaVuSans-112"/>
      <path d="M 56.203125 29.59375 
L 56.203125 25.203125 
L 14.890625 25.203125 
Q 15.484375 15.921875 20.484375 11.0625 
Q 25.484375 6.203125 34.421875 6.203125 
Q 39.59375 6.203125 44.453125 7.46875 
Q 49.3125 8.734375 54.109375 11.28125 
L 54.109375 2.78125 
Q 49.265625 0.734375 44.1875 -0.34375 
Q 39.109375 -1.421875 33.890625 -1.421875 
Q 20.796875 -1.421875 13.15625 6.1875 
Q 5.515625 13.8125 5.515625 26.8125 
Q 5.515625 40.234375 12.765625 48.109375 
Q 20.015625 56 32.328125 56 
Q 43.359375 56 49.78125 48.890625 
Q 56.203125 41.796875 56.203125 29.59375 
z
M 47.21875 32.234375 
Q 47.125 39.59375 43.09375 43.984375 
Q 39.0625 48.390625 32.421875 48.390625 
Q 24.90625 48.390625 20.390625 44.140625 
Q 15.875 39.890625 15.1875 32.171875 
z
" id="DejaVuSans-101"/>
      <path d="M 54.890625 33.015625 
L 54.890625 0 
L 45.90625 0 
L 45.90625 32.71875 
Q 45.90625 40.484375 42.875 44.328125 
Q 39.84375 48.1875 33.796875 48.1875 
Q 26.515625 48.1875 22.3125 43.546875 
Q 18.109375 38.921875 18.109375 30.90625 
L 18.109375 0 
L 9.078125 0 
L 9.078125 54.6875 
L 18.109375 54.6875 
L 18.109375 46.1875 
Q 21.34375 51.125 25.703125 53.5625 
Q 30.078125 56 35.796875 56 
Q 45.21875 56 50.046875 50.171875 
Q 54.890625 44.34375 54.890625 33.015625 
z
" id="DejaVuSans-110"/>
      <path d="M 19.671875 64.796875 
L 19.671875 8.109375 
L 31.59375 8.109375 
Q 46.6875 8.109375 53.6875 14.9375 
Q 60.6875 21.78125 60.6875 36.53125 
Q 60.6875 51.171875 53.6875 57.984375 
Q 46.6875 64.796875 31.59375 64.796875 
z
M 9.8125 72.90625 
L 30.078125 72.90625 
Q 51.265625 72.90625 61.171875 64.09375 
Q 71.09375 55.28125 71.09375 36.53125 
Q 71.09375 17.671875 61.125 8.828125 
Q 51.171875 0 30.078125 0 
L 9.8125 0 
z
" id="DejaVuSans-68"/>
      <path d="M 53.515625 70.515625 
L 53.515625 60.890625 
Q 47.90625 63.578125 42.921875 64.890625 
Q 37.9375 66.21875 33.296875 66.21875 
Q 25.25 66.21875 20.875 63.09375 
Q 16.5 59.96875 16.5 54.203125 
Q 16.5 49.359375 19.40625 46.890625 
Q 22.3125 44.4375 30.421875 42.921875 
L 36.375 41.703125 
Q 47.40625 39.59375 52.65625 34.296875 
Q 57.90625 29 57.90625 20.125 
Q 57.90625 9.515625 50.796875 4.046875 
Q 43.703125 -1.421875 29.984375 -1.421875 
Q 24.8125 -1.421875 18.96875 -0.25 
Q 13.140625 0.921875 6.890625 3.21875 
L 6.890625 13.375 
Q 12.890625 10.015625 18.65625 8.296875 
Q 24.421875 6.59375 29.984375 6.59375 
Q 38.421875 6.59375 43.015625 9.90625 
Q 47.609375 13.234375 47.609375 19.390625 
Q 47.609375 24.75 44.3125 27.78125 
Q 41.015625 30.8125 33.5 32.328125 
L 27.484375 33.5 
Q 16.453125 35.6875 11.515625 40.375 
Q 6.59375 45.0625 6.59375 53.421875 
Q 6.59375 63.09375 13.40625 68.65625 
Q 20.21875 74.21875 32.171875 74.21875 
Q 37.3125 74.21875 42.625 73.28125 
Q 47.953125 72.359375 53.515625 70.515625 
z
" id="DejaVuSans-83"/>
      <path d="M 45.40625 46.390625 
L 45.40625 75.984375 
L 54.390625 75.984375 
L 54.390625 0 
L 45.40625 0 
L 45.40625 8.203125 
Q 42.578125 3.328125 38.25 0.953125 
Q 33.9375 -1.421875 27.875 -1.421875 
Q 17.96875 -1.421875 11.734375 6.484375 
Q 5.515625 14.40625 5.515625 27.296875 
Q 5.515625 40.1875 11.734375 48.09375 
Q 17.96875 56 27.875 56 
Q 33.9375 56 38.25 53.625 
Q 42.578125 51.265625 45.40625 46.390625 
z
M 14.796875 27.296875 
Q 14.796875 17.390625 18.875 11.75 
Q 22.953125 6.109375 30.078125 6.109375 
Q 37.203125 6.109375 41.296875 11.75 
Q 45.40625 17.390625 45.40625 27.296875 
Q 45.40625 37.203125 41.296875 42.84375 
Q 37.203125 48.484375 30.078125 48.484375 
Q 22.953125 48.484375 18.875 42.84375 
Q 14.796875 37.203125 14.796875 27.296875 
z
" id="DejaVuSans-100"/>
      <path d="M 4.203125 54.6875 
L 13.1875 54.6875 
L 24.421875 12.015625 
L 35.59375 54.6875 
L 46.1875 54.6875 
L 57.421875 12.015625 
L 68.609375 54.6875 
L 77.59375 54.6875 
L 63.28125 0 
L 52.6875 0 
L 40.921875 44.828125 
L 29.109375 0 
L 18.5 0 
z
" id="DejaVuSans-119"/>
      <path d="M 19.671875 64.796875 
L 19.671875 37.40625 
L 32.078125 37.40625 
Q 38.96875 37.40625 42.71875 40.96875 
Q 46.484375 44.53125 46.484375 51.125 
Q 46.484375 57.671875 42.71875 61.234375 
Q 38.96875 64.796875 32.078125 64.796875 
z
M 9.8125 72.90625 
L 32.078125 72.90625 
Q 44.34375 72.90625 50.609375 67.359375 
Q 56.890625 61.8125 56.890625 51.125 
Q 56.890625 40.328125 50.609375 34.8125 
Q 44.34375 29.296875 32.078125 29.296875 
L 19.671875 29.296875 
L 19.671875 0 
L 9.8125 0 
z
" id="DejaVuSans-80"/>
      <path d="M 54.890625 33.015625 
L 54.890625 0 
L 45.90625 0 
L 45.90625 32.71875 
Q 45.90625 40.484375 42.875 44.328125 
Q 39.84375 48.1875 33.796875 48.1875 
Q 26.515625 48.1875 22.3125 43.546875 
Q 18.109375 38.921875 18.109375 30.90625 
L 18.109375 0 
L 9.078125 0 
L 9.078125 75.984375 
L 18.109375 75.984375 
L 18.109375 46.1875 
Q 21.34375 51.125 25.703125 53.5625 
Q 30.078125 56 35.796875 56 
Q 45.21875 56 50.046875 50.171875 
Q 54.890625 44.34375 54.890625 33.015625 
z
" id="DejaVuSans-104"/>
      <path d="M 34.1875 63.1875 
L 20.796875 26.90625 
L 47.609375 26.90625 
z
M 28.609375 72.90625 
L 39.796875 72.90625 
L 67.578125 0 
L 57.328125 0 
L 50.6875 18.703125 
L 17.828125 18.703125 
L 11.1875 0 
L 0.78125 0 
z
" id="DejaVuSans-65"/>
     </defs>
     <g transform="translate(91 210.729688)scale(0.1 -0.1)">
      <use xlink:href="#DejaVuSans-111"/>
      <use x="61.181641" xlink:href="#DejaVuSans-102"/>
      <use x="96.386719" xlink:href="#DejaVuSans-102"/>
      <use x="131.591797" xlink:href="#DejaVuSans-95"/>
      <use x="181.591797" xlink:href="#DejaVuSans-115"/>
      <use x="233.691406" xlink:href="#DejaVuSans-116"/>
      <use x="272.900391" xlink:href="#DejaVuSans-97"/>
      <use x="334.179688" xlink:href="#DejaVuSans-114"/>
      <use x="375.292969" xlink:href="#DejaVuSans-116"/>
      <use x="414.501953" xlink:href="#DejaVuSans-79"/>
      <use x="493.212891" xlink:href="#DejaVuSans-112"/>
      <use x="556.689453" xlink:href="#DejaVuSans-101"/>
      <use x="618.212891" xlink:href="#DejaVuSans-110"/>
      <use x="681.591797" xlink:href="#DejaVuSans-68"/>
      <use x="758.59375" xlink:href="#DejaVuSans-83"/>
      <use x="822.070312" xlink:href="#DejaVuSans-83"/>
      <use x="885.546875" xlink:href="#DejaVuSans-95"/>
      <use x="935.546875" xlink:href="#DejaVuSans-112"/>
      <use x="999.023438" xlink:href="#DejaVuSans-97"/>
      <use x="1060.302734" xlink:href="#DejaVuSans-110"/>
      <use x="1123.681641" xlink:href="#DejaVuSans-100"/>
      <use x="1187.158203" xlink:href="#DejaVuSans-97"/>
      <use x="1248.4375" xlink:href="#DejaVuSans-112"/>
      <use x="1311.914062" xlink:href="#DejaVuSans-111"/>
      <use x="1373.095703" xlink:href="#DejaVuSans-119"/>
      <use x="1454.882812" xlink:href="#DejaVuSans-101"/>
      <use x="1516.40625" xlink:href="#DejaVuSans-114"/>
      <use x="1557.519531" xlink:href="#DejaVuSans-95"/>
      <use x="1607.519531" xlink:href="#DejaVuSans-80"/>
      <use x="1667.822266" xlink:href="#DejaVuSans-104"/>
      <use x="1731.201172" xlink:href="#DejaVuSans-97"/>
      <use x="1792.480469" xlink:href="#DejaVuSans-115"/>
      <use x="1844.580078" xlink:href="#DejaVuSans-101"/>
      <use x="1906.103516" xlink:href="#DejaVuSans-95"/>
      <use x="1956.103516" xlink:href="#DejaVuSans-65"/>
     </g>
    </g>
    <g id="line2d_20">
     <path d="M 63 222.185937 
L 83 222.185937 
" style="fill:none;stroke:#ffff00;stroke-linecap:square;stroke-width:1.5;"/>
    </g>
    <g id="line2d_21"/>
    <g id="text_12">
     <!-- off_startOpenDSS_pandapower_Phase_B -->
     <g transform="translate(91 225.685937)scale(0.1 -0.1)">
      <use xlink:href="#DejaVuSans-111"/>
      <use x="61.181641" xlink:href="#DejaVuSans-102"/>
      <use x="96.386719" xlink:href="#DejaVuSans-102"/>
      <use x="131.591797" xlink:href="#DejaVuSans-95"/>
      <use x="181.591797" xlink:href="#DejaVuSans-115"/>
      <use x="233.691406" xlink:href="#DejaVuSans-116"/>
      <use x="272.900391" xlink:href="#DejaVuSans-97"/>
      <use x="334.179688" xlink:href="#DejaVuSans-114"/>
      <use x="375.292969" xlink:href="#DejaVuSans-116"/>
      <use x="414.501953" xlink:href="#DejaVuSans-79"/>
      <use x="493.212891" xlink:href="#DejaVuSans-112"/>
      <use x="556.689453" xlink:href="#DejaVuSans-101"/>
      <use x="618.212891" xlink:href="#DejaVuSans-110"/>
      <use x="681.591797" xlink:href="#DejaVuSans-68"/>
      <use x="758.59375" xlink:href="#DejaVuSans-83"/>
      <use x="822.070312" xlink:href="#DejaVuSans-83"/>
      <use x="885.546875" xlink:href="#DejaVuSans-95"/>
      <use x="935.546875" xlink:href="#DejaVuSans-112"/>
      <use x="999.023438" xlink:href="#DejaVuSans-97"/>
      <use x="1060.302734" xlink:href="#DejaVuSans-110"/>
      <use x="1123.681641" xlink:href="#DejaVuSans-100"/>
      <use x="1187.158203" xlink:href="#DejaVuSans-97"/>
      <use x="1248.4375" xlink:href="#DejaVuSans-112"/>
      <use x="1311.914062" xlink:href="#DejaVuSans-111"/>
      <use x="1373.095703" xlink:href="#DejaVuSans-119"/>
      <use x="1454.882812" xlink:href="#DejaVuSans-101"/>
      <use x="1516.40625" xlink:href="#DejaVuSans-114"/>
      <use x="1557.519531" xlink:href="#DejaVuSans-95"/>
      <use x="1607.519531" xlink:href="#DejaVuSans-80"/>
      <use x="1667.822266" xlink:href="#DejaVuSans-104"/>
      <use x="1731.201172" xlink:href="#DejaVuSans-97"/>
      <use x="1792.480469" xlink:href="#DejaVuSans-115"/>
      <use x="1844.580078" xlink:href="#DejaVuSans-101"/>
      <use x="1906.103516" xlink:href="#DejaVuSans-95"/>
      <use x="1956.103516" xlink:href="#DejaVuSans-66"/>
     </g>
    </g>
    <g id="line2d_22">
     <path d="M 63 237.142188 
L 83 237.142188 
" style="fill:none;stroke:#0000ff;stroke-linecap:square;stroke-width:1.5;"/>
    </g>
    <g id="line2d_23"/>
    <g id="text_13">
     <!-- off_startOpenDSS_pandapower_Phase_C -->
     <defs>
      <path d="M 64.40625 67.28125 
L 64.40625 56.890625 
Q 59.421875 61.53125 53.78125 63.8125 
Q 48.140625 66.109375 41.796875 66.109375 
Q 29.296875 66.109375 22.65625 58.46875 
Q 16.015625 50.828125 16.015625 36.375 
Q 16.015625 21.96875 22.65625 14.328125 
Q 29.296875 6.6875 41.796875 6.6875 
Q 48.140625 6.6875 53.78125 8.984375 
Q 59.421875 11.28125 64.40625 15.921875 
L 64.40625 5.609375 
Q 59.234375 2.09375 53.4375 0.328125 
Q 47.65625 -1.421875 41.21875 -1.421875 
Q 24.65625 -1.421875 15.125 8.703125 
Q 5.609375 18.84375 5.609375 36.375 
Q 5.609375 53.953125 15.125 64.078125 
Q 24.65625 74.21875 41.21875 74.21875 
Q 47.75 74.21875 53.53125 72.484375 
Q 59.328125 70.75 64.40625 67.28125 
z
" id="DejaVuSans-67"/>
     </defs>
     <g transform="translate(91 240.642188)scale(0.1 -0.1)">
      <use xlink:href="#DejaVuSans-111"/>
      <use x="61.181641" xlink:href="#DejaVuSans-102"/>
      <use x="96.386719" xlink:href="#DejaVuSans-102"/>
      <use x="131.591797" xlink:href="#DejaVuSans-95"/>
      <use x="181.591797" xlink:href="#DejaVuSans-115"/>
      <use x="233.691406" xlink:href="#DejaVuSans-116"/>
      <use x="272.900391" xlink:href="#DejaVuSans-97"/>
      <use x="334.179688" xlink:href="#DejaVuSans-114"/>
      <use x="375.292969" xlink:href="#DejaVuSans-116"/>
      <use x="414.501953" xlink:href="#DejaVuSans-79"/>
      <use x="493.212891" xlink:href="#DejaVuSans-112"/>
      <use x="556.689453" xlink:href="#DejaVuSans-101"/>
      <use x="618.212891" xlink:href="#DejaVuSans-110"/>
      <use x="681.591797" xlink:href="#DejaVuSans-68"/>
      <use x="758.59375" xlink:href="#DejaVuSans-83"/>
      <use x="822.070312" xlink:href="#DejaVuSans-83"/>
      <use x="885.546875" xlink:href="#DejaVuSans-95"/>
      <use x="935.546875" xlink:href="#DejaVuSans-112"/>
      <use x="999.023438" xlink:href="#DejaVuSans-97"/>
      <use x="1060.302734" xlink:href="#DejaVuSans-110"/>
      <use x="1123.681641" xlink:href="#DejaVuSans-100"/>
      <use x="1187.158203" xlink:href="#DejaVuSans-97"/>
      <use x="1248.4375" xlink:href="#DejaVuSans-112"/>
      <use x="1311.914062" xlink:href="#DejaVuSans-111"/>
      <use x="1373.095703" xlink:href="#DejaVuSans-119"/>
      <use x="1454.882812" xlink:href="#DejaVuSans-101"/>
      <use x="1516.40625" xlink:href="#DejaVuSans-114"/>
      <use x="1557.519531" xlink:href="#DejaVuSans-95"/>
      <use x="1607.519531" xlink:href="#DejaVuSans-80"/>
      <use x="1667.822266" xlink:href="#DejaVuSans-104"/>
      <use x="1731.201172" xlink:href="#DejaVuSans-97"/>
      <use x="1792.480469" xlink:href="#DejaVuSans-115"/>
      <use x="1844.580078" xlink:href="#DejaVuSans-101"/>
      <use x="1906.103516" xlink:href="#DejaVuSans-95"/>
      <use x="1956.103516" xlink:href="#DejaVuSans-67"/>
     </g>
    </g>
   </g>
  </g>
 </g>
 <defs>
  <clipPath id="p131d1fdc7e">
   <rect height="217.44" width="334.8" x="54" y="34.56"/>
  </clipPath>
 </defs>
</svg>
