<?xml version="1.0" encoding="utf-8" standalone="no"?>
<!DOCTYPE svg PUBLIC "-//W3C//DTD SVG 1.1//EN"
  "http://www.w3.org/Graphics/SVG/1.1/DTD/svg11.dtd">
<!-- Created with matplotlib (https://matplotlib.org/) -->
<svg height="288pt" version="1.1" viewBox="0 0 432 288" width="432pt" xmlns="http://www.w3.org/2000/svg" xmlns:xlink="http://www.w3.org/1999/xlink">
 <defs>
  <style type="text/css">
*{stroke-linecap:butt;stroke-linejoin:round;}
  </style>
 </defs>
 <g id="figure_1">
  <g id="patch_1">
   <path d="M 0 288 
L 432 288 
L 432 0 
L 0 0 
z
" style="fill:#ffffff;"/>
  </g>
  <g id="axes_1">
   <g id="patch_2">
    <path d="M 54 252 
L 388.8 252 
L 388.8 34.56 
L 54 34.56 
z
" style="fill:#ffffff;"/>
   </g>
   <g id="matplotlib.axis_1">
    <g id="xtick_1">
     <g id="line2d_1">
      <defs>
       <path d="M 0 0 
L 0 3.5 
" id="md08dc4fc64" style="stroke:#000000;stroke-width:0.8;"/>
      </defs>
      <g>
       <use style="stroke:#000000;stroke-width:0.8;" x="69.218182" xlink:href="#md08dc4fc64" y="252"/>
      </g>
     </g>
    </g>
    <g id="xtick_2">
     <g id="line2d_2">
      <g>
       <use style="stroke:#000000;stroke-width:0.8;" x="136.406623" xlink:href="#md08dc4fc64" y="252"/>
      </g>
     </g>
    </g>
    <g id="xtick_3">
     <g id="line2d_3">
      <g>
       <use style="stroke:#000000;stroke-width:0.8;" x="203.595063" xlink:href="#md08dc4fc64" y="252"/>
      </g>
     </g>
    </g>
    <g id="xtick_4">
     <g id="line2d_4">
      <g>
       <use style="stroke:#000000;stroke-width:0.8;" x="270.783504" xlink:href="#md08dc4fc64" y="252"/>
      </g>
     </g>
    </g>
    <g id="xtick_5">
     <g id="line2d_5">
      <g>
       <use style="stroke:#000000;stroke-width:0.8;" x="337.971945" xlink:href="#md08dc4fc64" y="252"/>
      </g>
     </g>
    </g>
    <g id="text_1">
     <!-- Bus -->
     <defs>
      <path d="M 19.671875 34.8125 
L 19.671875 8.109375 
L 35.5 8.109375 
Q 43.453125 8.109375 47.28125 11.40625 
Q 51.125 14.703125 51.125 21.484375 
Q 51.125 28.328125 47.28125 31.5625 
Q 43.453125 34.8125 35.5 34.8125 
z
M 19.671875 64.796875 
L 19.671875 42.828125 
L 34.28125 42.828125 
Q 41.5 42.828125 45.03125 45.53125 
Q 48.578125 48.25 48.578125 53.8125 
Q 48.578125 59.328125 45.03125 62.0625 
Q 41.5 64.796875 34.28125 64.796875 
z
M 9.8125 72.90625 
L 35.015625 72.90625 
Q 46.296875 72.90625 52.390625 68.21875 
Q 58.5 63.53125 58.5 54.890625 
Q 58.5 48.1875 55.375 44.234375 
Q 52.25 40.28125 46.1875 39.3125 
Q 53.46875 37.75 57.5 32.78125 
Q 61.53125 27.828125 61.53125 20.40625 
Q 61.53125 10.640625 54.890625 5.3125 
Q 48.25 0 35.984375 0 
L 9.8125 0 
z
" id="DejaVuSans-66"/>
      <path d="M 8.5 21.578125 
L 8.5 54.6875 
L 17.484375 54.6875 
L 17.484375 21.921875 
Q 17.484375 14.15625 20.5 10.265625 
Q 23.53125 6.390625 29.59375 6.390625 
Q 36.859375 6.390625 41.078125 11.03125 
Q 45.3125 15.671875 45.3125 23.6875 
L 45.3125 54.6875 
L 54.296875 54.6875 
L 54.296875 0 
L 45.3125 0 
L 45.3125 8.40625 
Q 42.046875 3.421875 37.71875 1 
Q 33.40625 -1.421875 27.6875 -1.421875 
Q 18.265625 -1.421875 13.375 4.4375 
Q 8.5 10.296875 8.5 21.578125 
z
M 31.109375 56 
z
" id="DejaVuSans-117"/>
      <path d="M 44.28125 53.078125 
L 44.28125 44.578125 
Q 40.484375 46.53125 36.375 47.5 
Q 32.28125 48.484375 27.875 48.484375 
Q 21.1875 48.484375 17.84375 46.4375 
Q 14.5 44.390625 14.5 40.28125 
Q 14.5 37.15625 16.890625 35.375 
Q 19.28125 33.59375 26.515625 31.984375 
L 29.59375 31.296875 
Q 39.15625 29.25 43.1875 25.515625 
Q 47.21875 21.78125 47.21875 15.09375 
Q 47.21875 7.46875 41.1875 3.015625 
Q 35.15625 -1.421875 24.609375 -1.421875 
Q 20.21875 -1.421875 15.453125 -0.5625 
Q 10.6875 0.296875 5.421875 2 
L 5.421875 11.28125 
Q 10.40625 8.6875 15.234375 7.390625 
Q 20.0625 6.109375 24.8125 6.109375 
Q 31.15625 6.109375 34.5625 8.28125 
Q 37.984375 10.453125 37.984375 14.40625 
Q 37.984375 18.0625 35.515625 20.015625 
Q 33.0625 21.96875 24.703125 23.78125 
L 21.578125 24.515625 
Q 13.234375 26.265625 9.515625 29.90625 
Q 5.8125 33.546875 5.8125 39.890625 
Q 5.8125 47.609375 11.28125 51.796875 
Q 16.75 56 26.8125 56 
Q 31.78125 56 36.171875 55.265625 
Q 40.578125 54.546875 44.28125 53.078125 
z
" id="DejaVuSans-115"/>
     </defs>
     <g transform="translate(212.196094 270.598437)scale(0.1 -0.1)">
      <use xlink:href="#DejaVuSans-66"/>
      <use x="68.603516" xlink:href="#DejaVuSans-117"/>
      <use x="131.982422" xlink:href="#DejaVuSans-115"/>
     </g>
    </g>
   </g>
   <g id="matplotlib.axis_2">
    <g id="ytick_1">
     <g id="line2d_6">
      <defs>
       <path d="M 0 0 
L -3.5 0 
" id="m2856a591a5" style="stroke:#000000;stroke-width:0.8;"/>
      </defs>
      <g>
       <use style="stroke:#000000;stroke-width:0.8;" x="54" xlink:href="#m2856a591a5" y="242.117355"/>
      </g>
     </g>
     <g id="text_2">
      <!-- 0.0000 -->
      <defs>
       <path d="M 31.78125 66.40625 
Q 24.171875 66.40625 20.328125 58.90625 
Q 16.5 51.421875 16.5 36.375 
Q 16.5 21.390625 20.328125 13.890625 
Q 24.171875 6.390625 31.78125 6.390625 
Q 39.453125 6.390625 43.28125 13.890625 
Q 47.125 21.390625 47.125 36.375 
Q 47.125 51.421875 43.28125 58.90625 
Q 39.453125 66.40625 31.78125 66.40625 
z
M 31.78125 74.21875 
Q 44.046875 74.21875 50.515625 64.515625 
Q 56.984375 54.828125 56.984375 36.375 
Q 56.984375 17.96875 50.515625 8.265625 
Q 44.046875 -1.421875 31.78125 -1.421875 
Q 19.53125 -1.421875 13.0625 8.265625 
Q 6.59375 17.96875 6.59375 36.375 
Q 6.59375 54.828125 13.0625 64.515625 
Q 19.53125 74.21875 31.78125 74.21875 
z
" id="DejaVuSans-48"/>
       <path d="M 10.6875 12.40625 
L 21 12.40625 
L 21 0 
L 10.6875 0 
z
" id="DejaVuSans-46"/>
      </defs>
      <g transform="translate(12.009375 245.916574)scale(0.1 -0.1)">
       <use xlink:href="#DejaVuSans-48"/>
       <use x="63.623047" xlink:href="#DejaVuSans-46"/>
       <use x="95.410156" xlink:href="#DejaVuSans-48"/>
       <use x="159.033203" xlink:href="#DejaVuSans-48"/>
       <use x="222.65625" xlink:href="#DejaVuSans-48"/>
       <use x="286.279297" xlink:href="#DejaVuSans-48"/>
      </g>
     </g>
    </g>
    <g id="ytick_2">
     <g id="line2d_7">
      <g>
       <use style="stroke:#000000;stroke-width:0.8;" x="54" xlink:href="#m2856a591a5" y="196.950999"/>
      </g>
     </g>
     <g id="text_3">
      <!-- 0.0001 -->
      <defs>
       <path d="M 12.40625 8.296875 
L 28.515625 8.296875 
L 28.515625 63.921875 
L 10.984375 60.40625 
L 10.984375 69.390625 
L 28.421875 72.90625 
L 38.28125 72.90625 
L 38.28125 8.296875 
L 54.390625 8.296875 
L 54.390625 0 
L 12.40625 0 
z
" id="DejaVuSans-49"/>
      </defs>
      <g transform="translate(12.009375 200.750218)scale(0.1 -0.1)">
       <use xlink:href="#DejaVuSans-48"/>
       <use x="63.623047" xlink:href="#DejaVuSans-46"/>
       <use x="95.410156" xlink:href="#DejaVuSans-48"/>
       <use x="159.033203" xlink:href="#DejaVuSans-48"/>
       <use x="222.65625" xlink:href="#DejaVuSans-48"/>
       <use x="286.279297" xlink:href="#DejaVuSans-49"/>
      </g>
     </g>
    </g>
    <g id="ytick_3">
     <g id="line2d_8">
      <g>
       <use style="stroke:#000000;stroke-width:0.8;" x="54" xlink:href="#m2856a591a5" y="151.784642"/>
      </g>
     </g>
     <g id="text_4">
      <!-- 0.0002 -->
      <defs>
       <path d="M 19.1875 8.296875 
L 53.609375 8.296875 
L 53.609375 0 
L 7.328125 0 
L 7.328125 8.296875 
Q 12.9375 14.109375 22.625 23.890625 
Q 32.328125 33.6875 34.8125 36.53125 
Q 39.546875 41.84375 41.421875 45.53125 
Q 43.3125 49.21875 43.3125 52.78125 
Q 43.3125 58.59375 39.234375 62.25 
Q 35.15625 65.921875 28.609375 65.921875 
Q 23.96875 65.921875 18.8125 64.3125 
Q 13.671875 62.703125 7.8125 59.421875 
L 7.8125 69.390625 
Q 13.765625 71.78125 18.9375 73 
Q 24.125 74.21875 28.421875 74.21875 
Q 39.75 74.21875 46.484375 68.546875 
Q 53.21875 62.890625 53.21875 53.421875 
Q 53.21875 48.921875 51.53125 44.890625 
Q 49.859375 40.875 45.40625 35.40625 
Q 44.1875 33.984375 37.640625 27.21875 
Q 31.109375 20.453125 19.1875 8.296875 
z
" id="DejaVuSans-50"/>
      </defs>
      <g transform="translate(12.009375 155.583861)scale(0.1 -0.1)">
       <use xlink:href="#DejaVuSans-48"/>
       <use x="63.623047" xlink:href="#DejaVuSans-46"/>
       <use x="95.410156" xlink:href="#DejaVuSans-48"/>
       <use x="159.033203" xlink:href="#DejaVuSans-48"/>
       <use x="222.65625" xlink:href="#DejaVuSans-48"/>
       <use x="286.279297" xlink:href="#DejaVuSans-50"/>
      </g>
     </g>
    </g>
    <g id="ytick_4">
     <g id="line2d_9">
      <g>
       <use style="stroke:#000000;stroke-width:0.8;" x="54" xlink:href="#m2856a591a5" y="106.618286"/>
      </g>
     </g>
     <g id="text_5">
      <!-- 0.0003 -->
      <defs>
       <path d="M 40.578125 39.3125 
Q 47.65625 37.796875 51.625 33 
Q 55.609375 28.21875 55.609375 21.1875 
Q 55.609375 10.40625 48.1875 4.484375 
Q 40.765625 -1.421875 27.09375 -1.421875 
Q 22.515625 -1.421875 17.65625 -0.515625 
Q 12.796875 0.390625 7.625 2.203125 
L 7.625 11.71875 
Q 11.71875 9.328125 16.59375 8.109375 
Q 21.484375 6.890625 26.8125 6.890625 
Q 36.078125 6.890625 40.9375 10.546875 
Q 45.796875 14.203125 45.796875 21.1875 
Q 45.796875 27.640625 41.28125 31.265625 
Q 36.765625 34.90625 28.71875 34.90625 
L 20.21875 34.90625 
L 20.21875 43.015625 
L 29.109375 43.015625 
Q 36.375 43.015625 40.234375 45.921875 
Q 44.09375 48.828125 44.09375 54.296875 
Q 44.09375 59.90625 40.109375 62.90625 
Q 36.140625 65.921875 28.71875 65.921875 
Q 24.65625 65.921875 20.015625 65.03125 
Q 15.375 64.15625 9.8125 62.3125 
L 9.8125 71.09375 
Q 15.4375 72.65625 20.34375 73.4375 
Q 25.25 74.21875 29.59375 74.21875 
Q 40.828125 74.21875 47.359375 69.109375 
Q 53.90625 64.015625 53.90625 55.328125 
Q 53.90625 49.265625 50.4375 45.09375 
Q 46.96875 40.921875 40.578125 39.3125 
z
" id="DejaVuSans-51"/>
      </defs>
      <g transform="translate(12.009375 110.417505)scale(0.1 -0.1)">
       <use xlink:href="#DejaVuSans-48"/>
       <use x="63.623047" xlink:href="#DejaVuSans-46"/>
       <use x="95.410156" xlink:href="#DejaVuSans-48"/>
       <use x="159.033203" xlink:href="#DejaVuSans-48"/>
       <use x="222.65625" xlink:href="#DejaVuSans-48"/>
       <use x="286.279297" xlink:href="#DejaVuSans-51"/>
      </g>
     </g>
    </g>
    <g id="ytick_5">
     <g id="line2d_10">
      <g>
       <use style="stroke:#000000;stroke-width:0.8;" x="54" xlink:href="#m2856a591a5" y="61.451929"/>
      </g>
     </g>
     <g id="text_6">
      <!-- 0.0004 -->
      <defs>
       <path d="M 37.796875 64.3125 
L 12.890625 25.390625 
L 37.796875 25.390625 
z
M 35.203125 72.90625 
L 47.609375 72.90625 
L 47.609375 25.390625 
L 58.015625 25.390625 
L 58.015625 17.1875 
L 47.609375 17.1875 
L 47.609375 0 
L 37.796875 0 
L 37.796875 17.1875 
L 4.890625 17.1875 
L 4.890625 26.703125 
z
" id="DejaVuSans-52"/>
      </defs>
      <g transform="translate(12.009375 65.251148)scale(0.1 -0.1)">
       <use xlink:href="#DejaVuSans-48"/>
       <use x="63.623047" xlink:href="#DejaVuSans-46"/>
       <use x="95.410156" xlink:href="#DejaVuSans-48"/>
       <use x="159.033203" xlink:href="#DejaVuSans-48"/>
       <use x="222.65625" xlink:href="#DejaVuSans-48"/>
       <use x="286.279297" xlink:href="#DejaVuSans-52"/>
      </g>
     </g>
    </g>
   </g>
   <g id="line2d_11">
    <path clip-path="url(#p63318b16e8)" d="M 69.218182 198.471704 
L 69.554124 206.693805 
L 69.890066 191.029892 
L 70.561951 187.849323 
L 70.897893 231.674393 
L 71.233835 229.561342 
L 71.905719 214.72692 
L 72.577604 204.655738 
L 73.249488 197.84586 
L 73.58543 195.818278 
L 73.921373 190.770513 
L 74.257315 195.045795 
L 74.593257 195.045541 
L 74.929199 190.625828 
L 75.265141 195.045431 
L 75.601084 187.21399 
L 75.937026 195.04532 
L 76.272968 183.382899 
L 76.60891 195.045225 
L 76.944852 222.311469 
L 77.280795 195.045115 
L 77.616737 210.963438 
L 78.288621 183.228179 
L 78.624564 191.155079 
L 78.960506 195.044897 
L 79.296448 182.718797 
L 79.63239 221.447561 
L 80.304275 195.044635 
L 80.640217 226.718763 
L 80.976159 221.212303 
L 81.648043 197.41664 
L 81.983986 195.044407 
L 82.319928 220.874048 
L 82.65587 207.386204 
L 82.991812 207.501168 
L 83.327754 218.416221 
L 83.663697 197.416612 
L 83.999639 195.044354 
L 84.335581 220.440261 
L 84.671523 207.386739 
L 85.007465 207.78077 
L 85.343408 211.190637 
L 85.67935 197.416599 
L 86.015292 195.044285 
L 86.351234 219.383804 
L 86.687176 207.387314 
L 87.023119 203.636844 
L 87.359061 211.190577 
L 87.695003 197.416585 
L 88.030945 195.04417 
L 88.366887 218.479291 
L 88.70283 207.387867 
L 89.038772 214.586567 
L 89.374714 211.190571 
L 89.710656 197.416574 
L 90.046598 195.044077 
L 90.382541 214.143413 
L 90.718483 207.388202 
L 91.054425 208.944851 
L 91.390367 186.214505 
L 91.726309 211.190567 
L 92.062252 197.416563 
L 92.398194 195.043987 
L 92.734136 198.817697 
L 93.070078 207.388866 
L 93.40602 187.456535 
L 93.741963 229.69554 
L 94.749789 197.416539 
L 95.085731 195.043616 
L 95.421674 207.392273 
L 96.093558 211.190553 
L 96.4295 197.416465 
L 96.765443 195.043188 
L 97.101385 207.40525 
L 97.437327 204.318409 
L 97.773269 211.19055 
L 98.109211 197.416328 
L 98.445154 195.042966 
L 98.781096 194.036401 
L 99.117038 211.190548 
L 99.45298 197.416298 
L 99.788922 195.042899 
L 100.124865 229.50636 
L 100.460807 197.416292 
L 100.796749 195.042882 
L 101.132691 223.870459 
L 101.468633 197.416285 
L 101.804576 195.042869 
L 102.140518 220.148373 
L 102.47646 197.416283 
L 102.812402 195.042848 
L 103.148344 215.009217 
L 103.484287 197.415928 
L 103.820229 195.042814 
L 104.156171 215.012412 
L 104.492113 211.642034 
L 104.828055 197.415914 
L 105.163998 215.016279 
L 105.49994 209.732678 
L 105.835882 197.415887 
L 106.171824 215.020762 
L 106.507766 224.727448 
L 106.843709 197.415232 
L 107.179651 215.0276 
L 107.515593 217.180245 
L 107.851535 197.414701 
L 108.187477 215.036393 
L 108.52342 216.959373 
L 108.859362 196.720509 
L 109.195304 197.414656 
L 109.531246 215.042708 
L 109.867188 216.959048 
L 110.203131 216.851853 
L 110.539073 204.990451 
L 110.875015 197.414627 
L 111.210957 215.051632 
L 111.546899 216.958787 
L 111.882842 216.346768 
L 112.218784 188.398174 
L 112.554726 197.414606 
L 112.890668 215.061291 
L 113.22661 216.958616 
L 113.562553 209.364748 
L 113.898495 216.772904 
L 114.234437 228.627879 
L 114.570379 197.414548 
L 114.906321 215.070403 
L 115.242264 216.958375 
L 115.578206 208.763471 
L 116.25009 223.055385 
L 116.586033 197.414513 
L 116.921975 215.085388 
L 117.257917 216.958115 
L 117.593859 208.173515 
L 117.929801 217.302263 
L 118.265744 217.814563 
L 118.601686 197.414508 
L 118.937628 215.156675 
L 119.27357 216.957908 
L 119.609512 207.69716 
L 119.945455 217.41106 
L 120.281397 217.332738 
L 120.617339 211.699535 
L 120.953281 197.414507 
L 121.289223 215.172212 
L 121.625166 216.957699 
L 121.961108 206.982202 
L 122.29705 217.699622 
L 122.632992 217.334603 
L 122.968934 209.93997 
L 123.304877 197.414506 
L 123.640819 215.210882 
L 123.976761 215.153798 
L 124.312703 216.957529 
L 124.648645 206.120257 
L 124.984588 217.799865 
L 125.32053 217.336318 
L 125.656472 199.943613 
L 125.992414 197.414505 
L 126.328356 215.218264 
L 126.664299 215.129402 
L 127.000241 216.957406 
L 127.336183 205.469087 
L 127.672125 217.799688 
L 128.008067 217.822525 
L 128.34401 217.337034 
L 128.679952 194.29762 
L 129.015894 215.233653 
L 129.351836 214.753023 
L 129.687778 215.284315 
L 130.023721 216.957299 
L 130.359663 204.715584 
L 130.695605 217.799663 
L 131.031547 217.824988 
L 131.367489 217.338586 
L 131.703432 190.10645 
L 132.039374 213.271884 
L 132.375316 215.925816 
L 132.711258 216.957225 
L 133.0472 204.007111 
L 133.383143 217.79965 
L 134.055027 217.827385 
L 134.390969 217.342563 
L 134.726911 186.338398 
L 135.062854 210.627404 
L 135.398796 215.994411 
L 135.734738 215.958673 
L 136.07068 216.957157 
L 136.406623 203.24485 
L 136.742565 217.799648 
L 137.414449 217.829315 
L 137.750391 217.34491 
L 138.086334 226.823773 
L 138.422276 202.690306 
L 139.09416 216.168009 
L 139.430102 215.963323 
L 139.766045 216.95705 
L 140.101987 202.079603 
L 140.437929 217.799643 
L 140.773871 217.830862 
L 141.109813 217.346562 
L 141.445756 218.185813 
L 141.781698 221.877853 
L 142.11764 210.796142 
L 142.453582 215.967077 
L 142.789524 216.95697 
L 143.125467 198.8975 
L 143.461409 217.799639 
L 143.797351 217.834153 
L 144.133293 217.349759 
L 144.469235 210.654893 
L 144.805178 210.678983 
L 145.14112 210.834916 
L 145.477062 215.970081 
L 145.813004 198.626189 
L 146.148946 217.799633 
L 146.484889 217.836761 
L 146.820831 217.351359 
L 147.156773 205.532017 
L 147.492715 210.911142 
L 147.828657 210.834913 
L 148.1646 215.974672 
L 148.500542 198.500875 
L 148.836484 217.799629 
L 149.172426 217.838581 
L 149.508368 217.352501 
L 149.844311 202.166732 
L 150.180253 210.922272 
L 150.516195 215.98006 
L 150.852137 198.366839 
L 151.188079 217.799626 
L 151.524022 217.840408 
L 151.859964 217.365641 
L 152.195906 194.924075 
L 152.531848 210.940754 
L 152.86779 210.938134 
L 153.203733 215.988345 
L 153.539675 198.238765 
L 153.875617 217.799624 
L 154.211559 217.843096 
L 154.547502 217.369537 
L 154.883444 193.135357 
L 155.219386 190.273457 
L 155.555328 216.0187 
L 155.89127 198.096087 
L 156.227213 217.799621 
L 156.563155 217.85327 
L 156.899097 217.370413 
L 157.235039 192.888116 
L 157.570981 218.000703 
L 157.906924 216.16661 
L 158.242866 197.801585 
L 158.578808 217.799619 
L 158.91475 217.855659 
L 159.250692 217.382135 
L 159.586635 217.370773 
L 159.922577 192.77446 
L 160.258519 218.013187 
L 160.594461 212.093177 
L 160.930403 197.494869 
L 161.266346 217.799618 
L 161.602288 217.85676 
L 161.93823 217.393869 
L 162.274172 217.3712 
L 162.610114 192.639481 
L 162.946057 218.014105 
L 163.281999 190.678431 
L 163.617941 196.328561 
L 163.953883 217.799615 
L 164.289825 217.857488 
L 164.625768 217.37159 
L 164.96171 192.431243 
L 165.297652 218.01487 
L 165.633594 223.091027 
L 165.969536 189.624316 
L 166.305479 190.136578 
L 166.641421 217.799612 
L 167.313305 217.85779 
L 167.649247 217.37199 
L 167.98519 192.245705 
L 168.321132 218.01597 
L 168.657074 217.22076 
L 168.993016 185.206598 
L 169.328958 217.861438 
L 169.664901 217.858006 
L 170.000843 217.372424 
L 170.336785 192.101466 
L 170.672727 218.020966 
L 171.008669 224.03874 
L 171.344612 184.231443 
L 171.680554 217.863582 
L 172.016496 217.858261 
L 172.352438 217.374969 
L 172.68838 191.92194 
L 173.024323 218.021939 
L 173.360265 221.174432 
L 173.696207 183.907422 
L 174.032149 217.867743 
L 174.368092 217.858755 
L 174.704034 217.385852 
L 175.039976 191.736274 
L 175.375918 218.022667 
L 175.71186 220.581383 
L 176.047803 218.61992 
L 176.383745 183.738306 
L 176.719687 217.880124 
L 177.055629 217.860669 
L 177.391571 191.51729 
L 177.727514 218.023515 
L 178.063456 217.527116 
L 178.399398 195.718742 
L 178.73534 183.59354 
L 179.071282 217.867278 
L 179.407225 191.39251 
L 179.743167 218.024365 
L 180.079109 216.460854 
L 180.415051 195.746089 
L 180.750993 196.292258 
L 181.086936 183.428894 
L 181.422878 190.828852 
L 181.75882 218.031915 
L 182.094762 214.140291 
L 182.430704 195.757045 
L 182.766647 196.543159 
L 183.102589 187.205969 
L 183.438531 183.299183 
L 183.774473 190.609507 
L 184.110415 218.047511 
L 184.446358 213.216637 
L 184.7823 213.679907 
L 185.118242 196.669418 
L 185.454184 224.588056 
L 185.790126 183.190435 
L 186.126069 190.533313 
L 186.462011 211.834679 
L 186.797953 213.615808 
L 187.133895 196.681179 
L 187.469837 219.112559 
L 187.80578 183.09231 
L 188.141722 190.475917 
L 188.477664 213.546196 
L 188.813606 196.68604 
L 189.149548 212.19417 
L 189.485491 183.011099 
L 189.821433 190.433926 
L 190.157375 213.485226 
L 190.493317 196.689474 
L 190.829259 207.859173 
L 191.165202 182.916891 
L 191.501144 190.412605 
L 191.837086 213.42045 
L 192.173028 196.692989 
L 192.50897 201.202334 
L 192.844913 182.813349 
L 193.180855 190.381262 
L 193.516797 213.328008 
L 193.852739 196.697141 
L 194.188682 194.56626 
L 194.524624 182.248883 
L 194.860566 190.328724 
L 195.196508 213.215635 
L 195.53245 196.702382 
L 195.868393 187.120394 
L 196.204335 222.989594 
L 196.540277 182.25214 
L 196.876219 190.094404 
L 197.212161 212.519167 
L 197.548104 196.707081 
L 197.884046 226.898672 
L 198.219988 218.750872 
L 198.55593 182.277813 
L 198.891872 182.251237 
L 199.227815 189.233127 
L 199.563757 210.136213 
L 199.899699 196.710803 
L 200.235641 220.47659 
L 200.571583 218.562178 
L 200.907526 182.287305 
L 201.243468 182.246648 
L 201.915352 211.158269 
L 202.251294 218.605407 
L 202.587237 214.646567 
L 202.923179 182.288282 
L 203.259121 182.246334 
L 203.595063 196.739534 
L 203.931005 204.249886 
L 204.266948 218.60938 
L 204.60289 212.757522 
L 204.938832 182.288972 
L 205.274774 182.246206 
L 205.610716 196.876226 
L 205.946659 197.585657 
L 206.282601 218.611647 
L 206.618543 207.059339 
L 206.954485 212.757456 
L 207.290427 182.289694 
L 207.62637 182.246125 
L 207.962312 191.063399 
L 208.298254 218.61319 
L 208.634196 198.943811 
L 208.970138 212.757441 
L 209.306081 182.292762 
L 209.642023 182.246 
L 209.977965 228.385772 
L 210.313907 218.615715 
L 210.649849 197.245559 
L 210.985792 212.75743 
L 211.321734 182.29352 
L 211.657676 182.244679 
L 211.993618 215.248599 
L 212.329561 228.385748 
L 212.665503 218.624131 
L 213.001445 196.811508 
L 213.337387 212.757418 
L 213.673329 182.29425 
L 214.009272 182.244249 
L 214.345214 216.10446 
L 214.681156 215.248516 
L 215.017098 218.633532 
L 215.35304 196.584117 
L 215.688983 212.757408 
L 216.024925 182.294984 
L 216.360867 182.244117 
L 217.032751 216.104343 
L 217.368694 218.638835 
L 217.704636 196.395613 
L 218.040578 212.757398 
L 218.37652 182.295835 
L 218.712462 182.243907 
L 219.048405 198.79424 
L 219.384347 198.598474 
L 219.720289 218.643833 
L 220.056231 196.242843 
L 220.392173 212.757388 
L 220.728116 182.298806 
L 221.064058 182.243743 
L 221.4 230.316571 
L 221.735942 198.794214 
L 222.071884 218.648617 
L 222.407827 196.009323 
L 222.743769 212.757382 
L 223.079711 182.313431 
L 223.415653 182.243581 
L 223.751595 241.042965 
L 224.087538 230.316495 
L 224.759422 218.656495 
L 225.095364 195.798811 
L 225.431306 212.757378 
L 225.767249 182.24345 
L 226.103191 202.778857 
L 226.439133 241.042881 
L 226.775075 241.042952 
L 227.111017 223.84742 
L 227.44696 218.662 
L 227.782902 195.598456 
L 228.118844 212.757373 
L 228.454786 182.242899 
L 228.790728 233.923445 
L 229.126671 202.778826 
L 229.462613 223.397941 
L 229.798555 218.665879 
L 230.134497 195.372745 
L 230.470439 212.757367 
L 230.806382 182.242872 
L 231.478266 233.92338 
L 231.814208 224.712866 
L 232.150151 223.093461 
L 232.486093 218.667739 
L 232.822035 195.134324 
L 233.157977 212.757358 
L 233.493919 182.242855 
L 233.829862 214.194029 
L 234.165804 207.252685 
L 234.501746 224.446271 
L 234.837688 222.941542 
L 235.17363 222.630986 
L 235.509573 218.668921 
L 235.845515 194.613025 
L 236.181457 212.757348 
L 236.517399 182.242839 
L 236.853341 236.033039 
L 237.189284 214.193972 
L 237.525226 224.333596 
L 237.861168 221.808186 
L 238.19711 221.92915 
L 238.533052 218.669722 
L 238.868995 182.789918 
L 239.204937 212.757341 
L 239.540879 182.242828 
L 239.876821 232.015855 
L 240.212763 236.03303 
L 240.548706 224.267395 
L 241.22059 218.670843 
L 241.556532 182.801222 
L 241.892474 180.934449 
L 242.228417 212.757337 
L 242.564359 233.046851 
L 242.900301 232.015829 
L 243.236243 235.821835 
L 243.572185 224.206475 
L 244.24407 218.671702 
L 244.580012 182.811361 
L 244.915954 179.933483 
L 245.251896 212.757333 
L 245.587839 233.805826 
L 245.923781 233.046832 
L 246.259723 211.381242 
L 246.595665 224.152204 
L 246.931607 220.822256 
L 247.26755 218.677846 
L 247.603492 179.783996 
L 248.275376 234.839224 
L 248.611318 233.805799 
L 248.947261 237.182269 
L 249.283203 224.095909 
L 249.619145 219.960432 
L 249.955087 218.681013 
L 250.29103 218.731757 
L 250.626972 179.669887 
L 251.298856 235.570553 
L 251.634798 234.839206 
L 252.306683 223.925975 
L 252.642625 212.989714 
L 252.978567 218.684583 
L 253.314509 179.563167 
L 253.986394 237.615853 
L 254.322336 235.570501 
L 254.658278 228.724381 
L 254.99422 237.009507 
L 255.666105 212.642587 
L 256.002047 218.694458 
L 256.337989 179.449364 
L 257.009874 239.096927 
L 257.345816 237.615815 
L 257.681758 228.556582 
L 258.0177 226.707698 
L 258.353642 222.154853 
L 258.689585 212.368698 
L 259.025527 179.348662 
L 259.697411 239.3452 
L 260.033353 239.096919 
L 260.369296 239.117914 
L 260.705238 228.306639 
L 261.04118 212.059066 
L 261.377122 179.245663 
L 261.713064 239.40399 
L 262.049007 239.345198 
L 262.384949 239.120583 
L 262.720891 228.156246 
L 263.056833 211.78349 
L 263.392775 178.714059 
L 263.728718 240.998693 
L 264.06466 239.403936 
L 264.400602 239.403923 
L 264.736544 239.122566 
L 265.072486 227.97478 
L 265.408429 211.466308 
L 265.744371 178.717645 
L 266.080313 177.547642 
L 266.416255 242.116364 
L 266.752197 240.998655 
L 267.08814 239.4039 
L 267.424082 239.124507 
L 267.760024 227.81545 
L 268.095966 211.141097 
L 268.431908 178.717861 
L 268.767851 171.973742 
L 269.103793 241.807402 
L 269.439735 241.889532 
L 269.775677 239.403884 
L 270.11162 239.142852 
L 270.783504 210.750203 
L 271.119446 178.717974 
L 271.455388 172.005197 
L 272.127273 241.529903 
L 272.463215 241.807469 
L 273.471042 241.889933 
L 273.806984 239.403866 
L 274.142926 239.151443 
L 274.478868 219.085749 
L 274.81481 210.505146 
L 275.150753 178.718073 
L 275.486695 172.021963 
L 276.158579 241.530494 
L 276.830464 241.529947 
L 277.166406 241.665173 
L 277.502348 239.403856 
L 277.83829 239.155499 
L 278.510175 178.718157 
L 278.846117 203.889214 
L 279.182059 201.80226 
L 279.518001 241.531097 
L 279.853943 239.403845 
L 280.189886 239.158222 
L 280.86177 178.718293 
L 281.197712 203.8947 
L 281.533654 201.327252 
L 281.869597 241.531215 
L 282.205539 239.403837 
L 282.541481 239.162408 
L 282.877423 178.718632 
L 283.213365 203.898476 
L 283.549308 201.091531 
L 283.88525 241.531411 
L 284.221192 239.403829 
L 284.557134 239.170634 
L 284.893076 178.718874 
L 285.229019 203.903724 
L 285.564961 200.832494 
L 285.900903 239.403822 
L 286.236845 239.172922 
L 286.572787 178.719193 
L 286.90873 203.916199 
L 287.244672 200.533605 
L 287.580614 239.403814 
L 287.916556 239.17359 
L 288.252498 178.719393 
L 288.588441 203.925706 
L 288.924383 200.231451 
L 289.260325 239.403806 
L 289.596267 239.173849 
L 289.93221 239.17531 
L 290.268152 178.719579 
L 290.604094 203.932396 
L 290.940036 199.896475 
L 291.275978 239.403785 
L 291.611921 239.174095 
L 291.947863 239.177604 
L 292.283805 178.719903 
L 292.619747 203.939422 
L 292.955689 199.409352 
L 293.291632 239.403775 
L 293.627574 239.174351 
L 293.963516 239.187232 
L 294.299458 178.720232 
L 294.6354 203.945205 
L 294.971343 198.786615 
L 295.307285 198.523023 
L 295.643227 239.403769 
L 295.979169 239.176228 
L 296.315111 239.191364 
L 296.651054 178.720392 
L 296.986996 203.954804 
L 297.65888 192.91064 
L 297.994822 239.403763 
L 298.330765 239.190072 
L 298.666707 178.720572 
L 299.002649 203.985899 
L 299.338591 198.065794 
L 300.010476 178.720751 
L 300.346418 204.058737 
L 300.68236 197.727343 
L 301.018302 188.940787 
L 301.354244 176.467623 
L 301.690187 178.720971 
L 302.026129 197.473489 
L 302.362071 188.943016 
L 302.698013 188.947019 
L 303.033955 176.492159 
L 303.369898 173.802958 
L 303.70584 178.721333 
L 304.041782 197.070236 
L 304.377724 188.943722 
L 304.713666 188.959864 
L 305.049609 176.506562 
L 305.385551 168.734401 
L 305.721493 178.722348 
L 306.057435 196.390353 
L 306.393377 188.944181 
L 306.72932 200.532464 
L 307.065262 168.734374 
L 307.737146 191.296168 
L 308.073089 188.944461 
L 308.409031 189.436486 
L 308.744973 197.063073 
L 309.080915 168.73435 
L 309.7528 187.117157 
L 310.088742 188.944747 
L 310.424684 177.984602 
L 310.760626 196.691681 
L 311.096568 168.73433 
L 311.768453 185.793136 
L 312.104395 188.945006 
L 312.440337 169.455695 
L 312.776279 178.472772 
L 313.112222 196.549884 
L 313.448164 168.734308 
L 313.784106 178.724085 
L 314.45599 188.945301 
L 314.791933 157.866313 
L 315.463817 196.399896 
L 315.799759 168.734292 
L 316.135701 178.724204 
L 316.807586 188.945539 
L 317.143528 189.46393 
L 317.47947 178.57275 
L 317.815412 196.275425 
L 318.151355 168.734269 
L 318.487297 178.724316 
L 319.159181 188.945829 
L 319.495123 178.568849 
L 320.167008 178.577666 
L 320.50295 196.128026 
L 320.838892 168.734244 
L 321.174834 178.724425 
L 321.510777 182.960031 
L 321.846719 188.946144 
L 322.182661 173.518713 
L 322.518603 178.735349 
L 323.190488 178.581223 
L 323.52643 195.984281 
L 323.862372 168.734226 
L 324.198314 178.724579 
L 324.534256 182.435433 
L 324.870199 188.946725 
L 325.206141 166.556074 
L 325.542083 178.874692 
L 325.878025 178.584228 
L 326.213967 195.786671 
L 326.54991 168.734211 
L 326.885852 178.724771 
L 327.221794 181.956099 
L 327.893679 194.594207 
L 328.229621 178.885695 
L 328.565563 178.877968 
L 328.901505 178.589309 
L 329.237447 195.514837 
L 329.57339 168.734202 
L 329.909332 178.725702 
L 330.245274 181.212491 
L 330.581216 188.964722 
L 330.917158 180.711604 
L 331.253101 178.896599 
L 331.589043 178.881104 
L 331.924985 178.596429 
L 332.260927 195.227171 
L 332.596869 168.734192 
L 332.932812 178.733823 
L 333.268754 179.711259 
L 333.604696 169.864196 
L 333.940638 178.88449 
L 334.27658 178.601717 
L 334.612523 195.03609 
L 334.948465 168.734185 
L 335.284407 179.410287 
L 335.620349 178.832197 
L 335.956291 160.060283 
L 336.292234 178.887518 
L 336.628176 178.610484 
L 336.964118 194.841623 
L 337.30006 168.734178 
L 337.636002 179.147822 
L 337.971945 177.425684 
L 338.307887 158.989215 
L 338.643829 160.6143 
L 338.979771 178.890866 
L 339.315713 178.671388 
L 339.651656 194.748644 
L 339.987598 168.734171 
L 340.32354 178.930759 
L 340.659482 176.224054 
L 340.995424 157.915341 
L 341.331367 162.083356 
L 341.667309 160.614257 
L 342.003251 178.893027 
L 342.339193 178.806033 
L 342.675135 194.600755 
L 343.011078 168.734154 
L 343.34702 178.761968 
L 343.682962 175.544033 
L 344.018904 156.839389 
L 344.354846 163.315195 
L 344.690789 162.08332 
L 345.362673 194.461925 
L 345.698615 168.73414 
L 346.034557 178.590303 
L 346.3705 155.769958 
L 346.706442 164.639479 
L 347.042384 163.315156 
L 347.714269 194.263568 
L 348.050211 168.734133 
L 348.386153 178.441334 
L 348.722095 154.69647 
L 349.058037 165.726836 
L 349.39398 164.639447 
L 350.065864 192.169861 
L 350.401806 178.334347 
L 350.737748 153.623718 
L 351.073691 166.894312 
L 351.409633 165.726802 
L 351.745575 191.332463 
L 352.081517 178.21014 
L 352.417459 152.550296 
L 352.753402 166.891778 
L 353.425286 166.894261 
L 353.761228 190.907251 
L 354.09717 178.023027 
L 354.433113 152.026329 
L 354.769055 166.891434 
L 355.440939 166.893591 
L 355.776881 190.813163 
L 356.112824 177.717335 
L 356.448766 185.416515 
L 356.784708 166.890539 
L 357.456592 166.892883 
L 357.792535 190.739067 
L 358.128477 176.588998 
L 358.464419 174.190316 
L 358.800361 177.758748 
L 359.136303 166.889575 
L 359.808188 166.892074 
L 360.14413 190.659682 
L 360.480072 171.061308 
L 360.816014 166.889462 
L 361.487899 166.891815 
L 361.823841 190.59617 
L 362.159783 164.036181 
L 362.495725 166.889376 
L 363.503552 166.891701 
L 363.839494 190.534505 
L 364.175436 152.040973 
L 364.511379 166.88931 
L 365.519205 166.891653 
L 365.855148 190.472999 
L 366.19109 194.265183 
L 366.527032 166.889229 
L 366.862974 166.889041 
L 367.198916 190.412215 
L 367.534859 193.967001 
L 367.870801 183.612408 
L 368.206743 166.889153 
L 368.542685 189.325312 
L 368.878627 193.477447 
L 369.21457 174.577494 
L 369.550512 166.888955 
L 369.886454 186.893121 
L 370.222396 187.823039 
L 370.558338 193.380658 
L 370.894281 159.391781 
L 371.230223 166.888776 
L 371.566165 185.278001 
L 371.902107 193.29888 
L 372.573992 193.140337 
L 373.245876 192.696902 
L 373.581818 190.393547 
L 373.581818 190.393547 
" style="fill:none;stroke:#ff0000;stroke-linecap:square;stroke-width:1.5;"/>
   </g>
   <g id="line2d_12">
    <path clip-path="url(#p63318b16e8)" d="M 69.218182 205.804529 
L 69.554124 189.878248 
L 69.890066 219.911764 
L 71.233835 213.501829 
L 71.569777 209.993716 
L 71.905719 235.300419 
L 72.241662 240.48224 
L 72.577604 239.20502 
L 73.249488 232.626348 
L 73.58543 230.667609 
L 73.921373 225.791234 
L 74.257315 231.455175 
L 74.593257 231.454921 
L 74.929199 228.719787 
L 75.265141 231.454811 
L 75.601084 225.423882 
L 75.937026 231.454701 
L 76.272968 221.722974 
L 76.60891 231.454605 
L 76.944852 223.371193 
L 77.280795 231.454495 
L 77.616737 234.333568 
L 77.952679 231.454382 
L 78.288621 234.136401 
L 78.624564 240.762565 
L 78.960506 231.454277 
L 79.296448 234.132852 
L 79.63239 234.086891 
L 79.968332 236.810052 
L 80.304275 231.454015 
L 80.640217 234.124595 
L 80.976159 234.085212 
L 81.312101 200.965644 
L 81.648043 210.616612 
L 81.983986 231.453787 
L 82.319928 234.082796 
L 82.65587 201.146674 
L 82.991812 217.33532 
L 83.327754 209.955771 
L 83.663697 210.61664 
L 83.999639 231.453735 
L 84.335581 234.079694 
L 84.671523 201.228264 
L 85.007465 211.557338 
L 85.343408 198.41979 
L 85.67935 210.616653 
L 86.015292 231.453666 
L 86.351234 234.072131 
L 86.687176 201.314724 
L 87.023119 203.268515 
L 87.359061 198.41985 
L 87.695003 210.616667 
L 88.030945 231.45355 
L 88.366887 234.065649 
L 88.70283 201.397066 
L 89.038772 180.065456 
L 89.374714 198.419855 
L 89.710656 210.616679 
L 90.046598 231.453457 
L 90.382541 234.034541 
L 90.718483 201.446377 
L 91.054425 184.828592 
L 91.390367 179.862221 
L 91.726309 198.41986 
L 92.062252 210.616689 
L 92.398194 231.453368 
L 92.734136 233.924463 
L 93.070078 201.543114 
L 93.40602 195.936575 
L 93.741963 179.850238 
L 94.077905 179.774724 
L 94.413847 198.41987 
L 94.749789 210.616714 
L 95.085731 231.452996 
L 95.757616 170.385855 
L 96.093558 198.419874 
L 96.4295 210.616788 
L 96.765443 231.452569 
L 97.437327 174.666615 
L 97.773269 198.419877 
L 98.109211 210.616924 
L 98.445154 231.452346 
L 98.781096 183.347299 
L 99.788922 231.452279 
L 100.124865 191.533563 
L 100.796749 231.452263 
L 101.132691 196.291714 
L 101.468633 210.616967 
L 101.804576 231.45225 
L 102.140518 199.434111 
L 102.47646 210.61697 
L 102.812402 231.452228 
L 103.148344 203.772875 
L 103.484287 210.617324 
L 103.820229 231.452194 
L 104.156171 203.726496 
L 104.828055 210.617338 
L 105.163998 203.670383 
L 105.49994 208.65151 
L 105.835882 210.617365 
L 106.171824 203.605342 
L 106.507766 187.974526 
L 106.843709 210.618021 
L 107.515593 194.952397 
L 107.851535 210.618552 
L 108.52342 195.000905 
L 108.859362 170.230748 
L 109.195304 210.618596 
L 109.867188 195.00123 
L 110.203131 195.024502 
L 110.539073 161.933127 
L 110.875015 210.618625 
L 111.546899 195.001492 
L 111.882842 195.135347 
L 112.218784 178.512713 
L 112.554726 210.618647 
L 113.22661 195.001662 
L 113.562553 195.087897 
L 113.898495 195.911027 
L 114.234437 183.445559 
L 114.570379 210.618704 
L 115.242264 195.001904 
L 115.578206 195.083799 
L 115.914148 196.488078 
L 116.25009 143.847385 
L 116.586033 210.618739 
L 117.257917 195.002163 
L 117.593859 195.079767 
L 117.929801 196.874506 
L 118.265744 149.084136 
L 118.601686 210.618744 
L 119.27357 195.002371 
L 119.609512 195.076503 
L 119.945455 196.780122 
L 120.281397 156.57665 
L 120.617339 155.194396 
L 120.953281 210.618745 
L 121.625166 195.00258 
L 121.961108 195.07159 
L 122.29705 196.529785 
L 122.632992 156.872968 
L 122.968934 156.952586 
L 123.304877 210.618746 
L 123.640819 207.030352 
L 124.312703 195.002749 
L 124.648645 195.06565 
L 124.984588 196.442821 
L 125.32053 157.143659 
L 125.656472 166.941093 
L 125.992414 210.618748 
L 126.328356 208.091603 
L 126.664299 198.599377 
L 127.000241 195.002873 
L 127.336183 195.06115 
L 127.672125 196.442998 
L 128.008067 196.420505 
L 128.34401 157.256104 
L 128.679952 172.582629 
L 129.015894 210.28102 
L 129.351836 198.652267 
L 129.687778 198.446491 
L 130.023721 195.00298 
L 130.359663 195.055929 
L 130.695605 196.443023 
L 131.031547 196.41808 
L 131.367489 157.498469 
L 132.039374 198.860391 
L 132.375316 197.813384 
L 132.711258 195.003053 
L 133.0472 195.051007 
L 133.383143 196.443035 
L 134.055027 196.415718 
L 134.390969 158.115748 
L 134.726911 135.369181 
L 135.062854 199.23196 
L 135.398796 197.745681 
L 135.734738 197.780958 
L 136.07068 195.003122 
L 136.406623 195.045696 
L 136.742565 196.443038 
L 137.414449 196.413817 
L 137.750391 158.477889 
L 138.086334 140.046434 
L 138.422276 199.175197 
L 138.758218 199.511379 
L 139.09416 197.574342 
L 139.430102 197.776369 
L 139.766045 195.003229 
L 140.101987 195.037555 
L 140.437929 196.443042 
L 140.773871 196.412293 
L 141.109813 158.731525 
L 141.445756 148.677481 
L 141.781698 198.989036 
L 142.11764 200.01567 
L 142.789524 195.003309 
L 143.125467 195.015264 
L 143.461409 196.443047 
L 143.797351 196.40905 
L 144.133293 159.2194 
L 144.469235 156.20234 
L 144.805178 198.908627 
L 145.14112 200.195727 
L 145.813004 195.013359 
L 146.148946 196.443053 
L 146.484889 196.406481 
L 146.820831 159.462223 
L 147.156773 161.321075 
L 147.492715 211.16314 
L 147.828657 200.19573 
L 148.500542 195.012476 
L 148.836484 196.443057 
L 149.172426 196.404687 
L 149.508368 159.634637 
L 149.844311 164.683633 
L 150.180253 167.589432 
L 150.516195 197.759851 
L 150.852137 195.011529 
L 151.188079 196.44306 
L 151.524022 196.402887 
L 152.195906 126.754042 
L 152.531848 170.218087 
L 152.86779 169.849179 
L 153.203733 197.751674 
L 153.539675 195.010622 
L 153.875617 196.443062 
L 154.211559 196.400237 
L 154.883444 126.744494 
L 155.219386 131.578651 
L 155.555328 197.721715 
L 155.89127 195.009609 
L 156.227213 196.443065 
L 156.563155 196.390208 
L 157.235039 126.743152 
L 157.570981 149.6701 
L 157.906924 197.57573 
L 158.242866 195.007513 
L 158.578808 196.443067 
L 158.91475 196.387853 
L 159.250692 164.002877 
L 159.586635 162.373326 
L 159.922577 126.742526 
L 160.258519 149.657804 
L 160.594461 155.794579 
L 160.930403 195.005323 
L 161.266346 196.443068 
L 161.602288 196.386767 
L 161.93823 165.671956 
L 162.274172 162.437509 
L 162.610114 126.741769 
L 162.946057 149.6569 
L 163.281999 132.829256 
L 163.617941 194.996976 
L 163.953883 196.443071 
L 164.289825 196.38605 
L 164.96171 126.740584 
L 165.297652 149.656146 
L 165.633594 136.857728 
L 165.969536 136.787367 
L 166.305479 194.95254 
L 166.641421 196.443073 
L 167.313305 196.385752 
L 167.98519 126.739512 
L 168.321132 149.655062 
L 168.657074 138.711914 
L 168.993016 153.375612 
L 169.328958 196.382154 
L 169.664901 196.385539 
L 170.336785 126.738665 
L 170.672727 149.650138 
L 171.008669 150.824294 
L 171.344612 157.037276 
L 171.680554 196.380039 
L 172.016496 196.385287 
L 172.68838 126.737596 
L 173.024323 149.649179 
L 173.360265 151.728964 
L 173.696207 158.25397 
L 174.032149 196.375934 
L 174.368092 196.384801 
L 175.039976 126.736474 
L 175.375918 149.648462 
L 175.71186 151.725033 
L 176.047803 124.212371 
L 176.719687 196.363716 
L 177.055629 196.382912 
L 177.391571 126.73513 
L 177.727514 149.647625 
L 178.063456 151.70467 
L 178.399398 132.682134 
L 178.73534 159.432599 
L 179.071282 196.37639 
L 179.407225 126.734354 
L 179.743167 149.646787 
L 180.079109 151.697521 
L 180.415051 132.655168 
L 180.750993 104.272057 
L 181.086936 160.050848 
L 181.422878 126.730797 
L 181.75882 149.63934 
L 182.094762 151.681874 
L 182.430704 132.644363 
L 182.766647 94.86317 
L 183.102589 102.732446 
L 183.438531 160.53792 
L 183.774473 126.729393 
L 184.110415 149.623955 
L 184.446358 151.675369 
L 184.7823 151.678866 
L 185.118242 112.840279 
L 185.454184 101.41342 
L 186.126069 126.728899 
L 186.462011 151.665529 
L 186.797953 151.678442 
L 187.133895 114.513214 
L 187.469837 100.485589 
L 188.477664 151.677977 
L 188.813606 115.204111 
L 189.149548 99.313232 
L 189.485491 116.453345 
L 189.821433 126.728241 
L 190.157375 151.677565 
L 190.493317 115.691607 
L 190.829259 98.578629 
L 191.165202 116.807112 
L 191.501144 126.728097 
L 191.837086 151.677123 
L 192.173028 116.190237 
L 192.50897 97.450546 
L 192.844913 117.195925 
L 193.180855 126.727883 
L 193.516797 151.676485 
L 193.852739 116.77858 
L 194.188682 96.325956 
L 194.524624 119.315594 
L 194.860566 126.727519 
L 195.196508 151.675701 
L 195.53245 117.520728 
L 195.868393 95.064105 
L 196.204335 135.45332 
L 196.540277 119.312401 
L 196.876219 126.725874 
L 197.212161 151.67079 
L 197.884046 94.150966 
L 198.219988 150.909538 
L 198.55593 119.287121 
L 198.891872 119.313304 
L 199.227815 126.719751 
L 199.563757 151.653812 
L 200.235641 93.062568 
L 200.571583 151.597603 
L 200.907526 119.277773 
L 201.243468 119.317894 
L 201.57941 119.613927 
L 201.915352 91.483284 
L 202.251294 151.554998 
L 202.587237 119.478974 
L 202.923179 119.27681 
L 203.259121 119.318207 
L 203.595063 122.764823 
L 203.931005 90.312411 
L 204.266948 151.551082 
L 204.60289 125.773746 
L 204.938832 119.27613 
L 205.274774 119.318336 
L 205.610716 96.861747 
L 205.946659 89.182893 
L 206.282601 151.548848 
L 206.618543 144.763311 
L 206.954485 125.773812 
L 207.290427 119.275418 
L 207.62637 119.318416 
L 207.962312 88.077412 
L 208.298254 151.547326 
L 208.634196 126.642677 
L 208.970138 125.773827 
L 209.306081 119.272395 
L 209.642023 119.318542 
L 209.977965 86.747877 
L 210.313907 151.544838 
L 210.649849 132.302289 
L 211.321734 119.271648 
L 211.657676 119.319863 
L 211.993618 84.521067 
L 212.329561 86.747901 
L 212.665503 151.536541 
L 213.001445 133.748817 
L 213.673329 119.270928 
L 214.009272 119.320292 
L 214.345214 77.009732 
L 214.681156 84.52115 
L 215.017098 151.527273 
L 215.35304 134.506631 
L 216.024925 119.270204 
L 216.360867 119.320425 
L 216.696809 111.551039 
L 217.032751 77.00985 
L 217.368694 151.522045 
L 217.704636 135.134849 
L 218.37652 119.269365 
L 218.712462 119.320635 
L 219.048405 103.926207 
L 219.384347 111.551124 
L 219.720289 151.517117 
L 220.056231 135.643983 
L 220.392173 125.77388 
L 220.728116 119.266435 
L 221.064058 119.320799 
L 221.4 101.612687 
L 221.735942 103.926232 
L 222.071884 151.512401 
L 222.743769 125.773886 
L 223.079711 119.252008 
L 223.415653 119.320961 
L 223.751595 96.118142 
L 224.087538 101.612762 
L 224.42348 101.574717 
L 224.759422 151.504632 
L 225.431306 125.77389 
L 225.767249 119.321092 
L 226.103191 90.012871 
L 226.439133 96.118226 
L 226.775075 96.118154 
L 227.111017 101.569153 
L 227.44696 151.499204 
L 228.118844 125.773895 
L 228.454786 119.321643 
L 228.790728 87.775454 
L 229.126671 90.012902 
L 229.462613 101.566109 
L 229.798555 151.495379 
L 230.470439 125.773901 
L 230.806382 119.32167 
L 231.142324 83.723628 
L 231.478266 87.775519 
L 231.814208 87.713388 
L 232.150151 101.56404 
L 232.486093 151.493545 
L 233.157977 125.77391 
L 233.493919 119.321687 
L 233.829862 77.915944 
L 234.501746 87.711648 
L 234.837688 87.700912 
L 235.17363 101.560888 
L 235.509573 151.492379 
L 235.845515 141.075721 
L 236.181457 125.77392 
L 236.517399 119.321703 
L 236.853341 74.371436 
L 237.189284 77.916001 
L 237.525226 87.710905 
L 237.861168 87.692838 
L 238.19711 101.556087 
L 238.533052 151.491589 
L 238.868995 135.313158 
L 239.540879 119.321714 
L 239.876821 73.761004 
L 240.212763 74.371446 
L 240.884648 101.55267 
L 241.22059 151.490483 
L 241.556532 136.959 
L 241.892474 141.200717 
L 242.228417 125.773931 
L 242.564359 74.820623 
L 242.900301 73.76103 
L 243.236243 73.465338 
L 243.908128 101.550328 
L 244.24407 151.489636 
L 244.580012 138.41024 
L 244.915954 144.376881 
L 245.251896 125.773935 
L 245.587839 75.600589 
L 245.923781 74.820643 
L 246.259723 73.290526 
L 246.931607 101.548471 
L 247.26755 151.483575 
L 247.603492 144.851222 
L 247.939434 125.773937 
L 248.275376 76.662459 
L 248.611318 75.600616 
L 248.947261 73.151938 
L 249.619145 101.542498 
L 249.955087 151.480454 
L 250.29103 151.430391 
L 250.626972 145.213303 
L 250.962914 125.773939 
L 251.298856 77.413859 
L 251.634798 76.662478 
L 251.970741 73.094641 
L 252.642625 101.49403 
L 252.978567 151.476934 
L 253.314509 145.551941 
L 253.650452 125.773942 
L 253.986394 79.515074 
L 254.322336 77.413912 
L 254.658278 73.091435 
L 254.99422 72.899515 
L 255.666105 101.491608 
L 256.002047 151.467195 
L 256.337989 100.7467 
L 256.673931 125.773943 
L 257.009874 81.036479 
L 257.345816 79.515112 
L 257.681758 73.090252 
L 258.0177 72.751803 
L 258.689585 101.489691 
L 259.025527 101.066242 
L 259.361469 125.773944 
L 259.697411 80.997803 
L 260.033353 81.036488 
L 260.369296 84.385859 
L 260.705238 73.088484 
L 261.04118 101.487517 
L 261.377122 101.393076 
L 261.713064 80.988641 
L 262.049007 80.997805 
L 262.384949 84.809263 
L 262.720891 73.087417 
L 263.056833 101.485576 
L 263.392775 103.079958 
L 263.728718 80.739341 
L 264.06466 80.988695 
L 264.400602 80.988709 
L 264.736544 85.121694 
L 265.072486 73.086126 
L 265.408429 101.483335 
L 266.080313 106.628619 
L 266.416255 80.564545 
L 267.08814 80.988731 
L 267.424082 85.425681 
L 267.760024 73.084989 
L 268.095966 101.481029 
L 268.431908 104.347282 
L 268.767851 123.586523 
L 269.103793 82.02233 
L 269.439735 80.35002 
L 269.775677 80.988748 
L 270.11162 88.281105 
L 270.447562 73.077524 
L 270.783504 101.478249 
L 271.119446 104.381954 
L 271.455388 123.5555 
L 271.791331 98.575301 
L 272.127273 83.322156 
L 272.463215 82.022398 
L 272.799157 82.022397 
L 273.135099 80.171117 
L 273.471042 80.350422 
L 273.806984 80.988766 
L 274.142926 44.443636 
L 274.81481 101.476501 
L 275.150753 104.411024 
L 275.486695 123.538962 
L 275.822637 117.88026 
L 276.158579 84.906265 
L 276.494521 83.3222 
L 276.830464 83.3222 
L 277.166406 80.128914 
L 277.502348 80.988776 
L 277.83829 45.067313 
L 278.174232 101.468963 
L 278.510175 104.434726 
L 278.846117 121.117356 
L 279.182059 122.243988 
L 279.518001 87.063983 
L 279.853943 80.988787 
L 280.189886 45.483298 
L 280.525828 101.437086 
L 280.86177 104.471927 
L 281.197712 121.911087 
L 281.533654 123.247946 
L 281.869597 87.696807 
L 282.205539 80.988795 
L 282.541481 46.119236 
L 282.877423 104.560623 
L 283.213365 122.456111 
L 283.549308 123.746157 
L 283.88525 89.791139 
L 284.221192 80.988803 
L 284.557134 47.361168 
L 284.893076 104.621977 
L 285.229019 123.211619 
L 285.564961 124.29365 
L 286.236845 47.704456 
L 286.572787 104.699979 
L 286.90873 125.003122 
L 287.244672 124.925374 
L 287.916556 47.804114 
L 288.252498 104.747358 
L 288.588441 126.364936 
L 288.924383 125.564003 
L 289.596267 47.843018 
L 289.93221 48.056643 
L 290.268152 104.790125 
L 290.604094 127.320893 
L 290.940036 126.272004 
L 291.611921 47.879426 
L 291.947863 48.389847 
L 292.283805 104.862243 
L 292.619747 128.322323 
L 292.955689 127.301582 
L 293.627574 47.916927 
L 293.963516 49.774032 
L 294.299458 104.933136 
L 294.6354 129.144493 
L 294.971343 127.297665 
L 295.307285 130.237428 
L 295.643227 80.988864 
L 295.979169 48.188047 
L 296.315111 50.36182 
L 296.651054 104.966674 
L 296.986996 130.505757 
L 297.322938 127.295302 
L 298.330765 50.162196 
L 298.666707 105.003505 
L 299.002649 134.90488 
L 299.338591 127.293102 
L 300.010476 105.038851 
L 300.346418 100.017442 
L 300.68236 127.290945 
L 301.018302 116.921601 
L 301.690187 105.081472 
L 302.026129 127.289321 
L 302.362071 116.919406 
L 302.698013 116.915454 
L 303.033955 114.313073 
L 303.369898 118.523847 
L 303.70584 105.149449 
L 304.041782 127.286731 
L 304.377724 116.918711 
L 304.713666 116.902785 
L 305.049609 116.367417 
L 305.385551 87.673838 
L 306.057435 127.282345 
L 306.393377 116.918259 
L 306.72932 125.436279 
L 307.065262 87.673865 
L 307.737146 127.249345 
L 308.073089 116.917983 
L 308.409031 80.933114 
L 308.744973 125.415399 
L 309.080915 87.673888 
L 309.7528 127.222162 
L 310.088742 116.917701 
L 310.424684 83.067608 
L 310.760626 125.413149 
L 311.096568 87.673909 
L 311.768453 127.213515 
L 312.104395 116.917446 
L 312.440337 85.572101 
L 313.112222 125.412284 
L 313.448164 87.67393 
L 314.120048 127.20561 
L 314.45599 116.917155 
L 314.791933 88.975244 
L 315.127875 116.550205 
L 315.463817 125.411364 
L 315.799759 87.673947 
L 316.471644 127.201287 
L 316.807586 116.91692 
L 317.47947 76.271041 
L 317.815412 125.410595 
L 318.151355 87.67397 
L 318.823239 127.197821 
L 319.159181 116.916635 
L 319.495123 96.158722 
L 319.831066 82.644081 
L 320.167008 76.968265 
L 320.50295 125.409679 
L 320.838892 87.673995 
L 321.510777 127.194854 
L 321.846719 116.916324 
L 322.182661 98.289091 
L 322.518603 95.994512 
L 323.190488 77.472456 
L 323.52643 125.40878 
L 323.862372 87.674012 
L 324.534256 127.191357 
L 324.870199 116.915751 
L 325.206141 101.226199 
L 325.542083 95.857084 
L 325.878025 77.897945 
L 326.213967 125.407536 
L 326.54991 87.674028 
L 327.221794 127.18815 
L 328.229621 95.846233 
L 328.565563 95.853853 
L 328.901505 78.61664 
L 329.237447 125.405815 
L 329.57339 87.674037 
L 330.245274 127.183154 
L 330.581216 116.898 
L 330.917158 69.140985 
L 331.253101 95.835479 
L 331.589043 95.850759 
L 331.924985 79.623083 
L 332.260927 125.403981 
L 332.596869 87.674046 
L 333.268754 127.173028 
L 333.604696 73.716535 
L 333.940638 95.84742 
L 334.27658 80.369882 
L 334.612523 125.402756 
L 334.948465 87.674054 
L 335.284407 127.171005 
L 335.620349 127.166985 
L 335.956291 77.851852 
L 336.292234 95.844434 
L 336.628176 81.606979 
L 336.964118 125.401501 
L 337.30006 87.67406 
L 337.636002 127.16923 
L 337.971945 127.157201 
L 338.307887 77.844323 
L 338.643829 81.45183 
L 338.979771 95.841131 
L 339.315713 90.193638 
L 339.651656 125.400898 
L 339.987598 87.674067 
L 340.32354 127.167754 
L 340.659482 127.148745 
L 340.995424 77.836767 
L 341.331367 88.323603 
L 341.667309 81.451873 
L 342.675135 125.399932 
L 343.011078 87.674085 
L 343.34702 127.166599 
L 343.682962 127.143904 
L 344.018904 77.82919 
L 344.354846 94.085281 
L 344.690789 88.323639 
L 345.026731 95.83572 
L 345.362673 125.39902 
L 345.698615 87.674099 
L 346.034557 127.165418 
L 346.3705 77.821651 
L 346.706442 100.27886 
L 347.042384 94.08532 
L 347.378326 95.808712 
L 347.714269 125.397709 
L 348.050211 87.674105 
L 348.386153 127.164387 
L 348.722095 77.814076 
L 349.058037 105.363945 
L 349.729922 95.715502 
L 350.065864 125.383789 
L 350.401806 127.163642 
L 350.737748 77.8065 
L 351.073691 65.656918 
L 351.409633 105.363979 
L 351.745575 125.378188 
L 352.081517 127.162773 
L 352.417459 77.798912 
L 352.753402 81.747187 
L 353.089344 65.657577 
L 353.425286 65.656969 
L 353.761228 125.375327 
L 354.09717 127.161455 
L 354.433113 77.795204 
L 354.769055 84.101214 
L 355.104997 65.658248 
L 355.440939 65.657638 
L 355.776881 125.374691 
L 356.112824 127.159291 
L 356.448766 77.711799 
L 356.784708 90.732963 
L 357.12065 65.659112 
L 357.456592 65.658344 
L 357.792535 125.374186 
L 358.128477 127.151265 
L 358.464419 127.134157 
L 358.800361 77.657512 
L 359.136303 98.520213 
L 359.472246 65.659385 
L 359.808188 65.659151 
L 360.14413 125.373643 
L 360.480072 77.609988 
L 360.816014 99.530376 
L 361.151957 65.659506 
L 361.487899 65.659409 
L 361.823841 125.373206 
L 362.159783 77.560092 
L 362.495725 99.697603 
L 362.831668 101.983251 
L 363.16761 65.659556 
L 363.503552 65.659523 
L 363.839494 125.372779 
L 364.175436 77.474817 
L 364.511379 99.852331 
L 364.847321 62.557208 
L 365.183263 65.65957 
L 365.519205 65.65957 
L 365.855148 125.37235 
L 366.19109 77.453881 
L 366.527032 100.087587 
L 366.862974 76.174772 
L 367.198916 125.371925 
L 367.534859 77.451927 
L 367.870801 77.686531 
L 368.542685 125.36427 
L 368.878627 77.448685 
L 369.21457 77.88378 
L 369.886454 125.34716 
L 370.222396 125.353565 
L 370.558338 77.448037 
L 370.894281 78.215198 
L 371.566165 125.335664 
L 371.902107 77.447483 
L 373.581818 77.426852 
L 373.581818 77.426852 
" style="fill:none;stroke:#ffff00;stroke-linecap:square;stroke-width:1.5;"/>
   </g>
   <g id="line2d_13">
    <path clip-path="url(#p63318b16e8)" d="M 69.218182 186.641177 
L 69.554124 214.271605 
L 69.890066 209.632237 
L 71.233835 207.66711 
L 71.569777 210.21676 
L 72.241662 206.719372 
L 72.577604 233.743156 
L 73.249488 235.760064 
L 73.58543 236.360579 
L 73.921373 237.855587 
L 74.257315 234.268359 
L 74.593257 234.268105 
L 74.929199 219.583088 
L 75.265141 234.267994 
L 75.601084 218.572657 
L 75.937026 234.267884 
L 76.272968 217.438063 
L 76.60891 234.267789 
L 76.944852 215.590722 
L 77.280795 234.267678 
L 77.616737 212.229973 
L 77.952679 234.267565 
L 78.288621 212.425108 
L 78.624564 230.702596 
L 78.960506 234.26746 
L 79.296448 212.42862 
L 79.63239 212.47411 
L 79.968332 240.479622 
L 80.304275 234.267198 
L 80.640217 212.436792 
L 80.976159 212.475771 
L 81.312101 240.868281 
L 81.648043 234.353905 
L 81.983986 234.266969 
L 82.319928 212.478163 
L 82.65587 240.869468 
L 82.991812 240.985578 
L 83.327754 240.305715 
L 83.663697 234.353877 
L 83.999639 234.266917 
L 84.335581 212.481233 
L 84.671523 240.870009 
L 85.007465 241.267968 
L 85.343408 217.034265 
L 85.67935 234.353864 
L 86.015292 234.266848 
L 86.351234 212.488718 
L 86.687176 240.870589 
L 87.023119 225.911701 
L 87.359061 217.034205 
L 87.695003 234.35385 
L 88.030945 234.266733 
L 88.366887 212.495134 
L 88.70283 240.871148 
L 89.038772 240.758485 
L 89.374714 217.0342 
L 89.710656 234.353838 
L 90.046598 234.266639 
L 90.382541 212.525925 
L 90.718483 240.871487 
L 91.054425 236.90411 
L 91.390367 240.959535 
L 91.726309 217.034195 
L 92.062252 234.353828 
L 92.398194 234.26655 
L 92.734136 212.634881 
L 93.070078 240.872158 
L 93.40602 236.532553 
L 93.741963 240.971388 
L 94.077905 241.046094 
L 94.413847 217.034185 
L 94.749789 234.353803 
L 95.085731 234.266178 
L 95.421674 240.875599 
L 95.757616 220.659247 
L 96.093558 217.034181 
L 96.4295 234.353728 
L 96.765443 234.26575 
L 97.101385 240.888707 
L 97.437327 221.873175 
L 97.773269 217.034178 
L 98.109211 234.353592 
L 98.445154 234.265527 
L 98.781096 228.897745 
L 99.117038 217.034177 
L 99.45298 234.353561 
L 99.788922 234.26546 
L 100.124865 235.522228 
L 100.460807 234.353555 
L 100.796749 234.265444 
L 101.132691 239.372617 
L 101.468633 234.353548 
L 101.804576 234.26543 
L 102.140518 241.915507 
L 102.47646 234.353546 
L 102.812402 234.265409 
L 103.148344 238.80819 
L 103.484287 234.35319 
L 103.820229 234.265375 
L 104.156171 238.477332 
L 104.492113 238.357639 
L 104.828055 234.353175 
L 105.163998 238.07704 
L 105.49994 238.102157 
L 105.835882 234.353148 
L 106.171824 237.613075 
L 106.507766 228.021636 
L 106.843709 234.35249 
L 107.179651 236.905667 
L 107.515593 227.011798 
L 107.851535 234.351957 
L 108.187477 235.996202 
L 108.52342 226.973663 
L 108.859362 224.746613 
L 109.195304 234.351912 
L 109.531246 235.343294 
L 109.867188 226.973338 
L 110.203131 226.955117 
L 110.539073 218.406623 
L 110.875015 234.351883 
L 111.210957 234.420742 
L 111.546899 226.973076 
L 111.882842 226.868001 
L 112.218784 220.243556 
L 112.554726 234.351861 
L 112.890668 233.422611 
L 113.22661 226.972905 
L 113.562553 226.914892 
L 113.898495 226.219581 
L 114.234437 220.790086 
L 114.570379 234.351804 
L 114.906321 232.481295 
L 115.242264 226.972663 
L 115.578206 226.918941 
L 115.914148 225.737206 
L 116.25009 221.407 
L 116.586033 234.351768 
L 117.257917 226.972403 
L 117.593859 226.922926 
L 117.929801 225.414182 
L 118.265744 221.987188 
L 118.601686 234.351763 
L 118.937628 223.574825 
L 119.27357 226.972194 
L 119.609512 226.926152 
L 119.945455 224.972999 
L 120.281397 225.444996 
L 120.617339 222.664147 
L 120.953281 234.351762 
L 121.289223 217.096599 
L 121.625166 226.971985 
L 121.961108 226.931008 
L 122.29705 223.802981 
L 122.632992 225.446882 
L 122.968934 222.858935 
L 123.304877 234.351761 
L 123.640819 217.057525 
L 123.976761 223.247851 
L 124.312703 226.971815 
L 124.648645 226.936879 
L 124.984588 223.396579 
L 125.32053 225.448615 
L 125.656472 223.965544 
L 125.992414 234.35176 
L 126.328356 217.050066 
L 126.664299 231.414252 
L 127.000241 226.971691 
L 127.336183 226.941327 
L 128.008067 219.332577 
L 128.34401 225.449339 
L 128.679952 224.590554 
L 129.015894 217.034519 
L 129.351836 231.287594 
L 129.687778 231.116711 
L 130.023721 226.971584 
L 130.359663 226.946488 
L 131.031547 219.727931 
L 131.367489 225.450909 
L 131.703432 225.054509 
L 132.039374 230.789152 
L 132.375316 231.622624 
L 132.711258 226.97151 
L 133.0472 226.951354 
L 133.383143 223.396363 
L 133.719085 223.396366 
L 134.055027 220.110332 
L 134.390969 225.454929 
L 134.726911 225.47162 
L 135.062854 229.899183 
L 135.398796 217.007616 
L 135.734738 227.002289 
L 136.406623 226.956604 
L 136.742565 223.396361 
L 137.078507 223.39636 
L 137.414449 220.416203 
L 137.750391 225.457301 
L 138.086334 225.989783 
L 138.422276 229.843041 
L 138.758218 229.830075 
L 139.09416 241.18225 
L 139.430102 212.719149 
L 139.766045 226.971335 
L 140.101987 226.964652 
L 140.773871 220.659843 
L 141.109813 225.458971 
L 141.445756 226.945952 
L 141.781698 229.658913 
L 142.11764 229.705337 
L 142.453582 213.245837 
L 142.789524 226.971254 
L 143.125467 226.98669 
L 143.461409 223.396351 
L 143.797351 221.174917 
L 144.133293 225.462202 
L 144.805178 229.57938 
L 145.14112 229.660795 
L 145.477062 213.666736 
L 145.813004 226.988574 
L 146.148946 223.396346 
L 146.484889 221.580534 
L 147.156773 228.346623 
L 147.492715 229.583774 
L 147.828657 229.660798 
L 148.1646 214.309237 
L 148.500542 226.989447 
L 148.836484 223.396341 
L 149.172426 221.861879 
L 149.844311 228.719124 
L 150.180253 229.572529 
L 150.516195 215.06237 
L 150.852137 226.990383 
L 151.188079 223.396338 
L 151.524022 222.142543 
L 152.195906 229.520799 
L 152.86779 229.556503 
L 153.203733 216.219129 
L 153.539675 226.991279 
L 153.875617 223.396336 
L 154.211559 222.553125 
L 154.547502 225.48219 
L 154.883444 229.511407 
L 155.219386 230.083596 
L 155.555328 220.452042 
L 155.89127 226.992281 
L 156.227213 223.396334 
L 156.563155 224.097283 
L 156.899097 225.483075 
L 157.235039 229.510087 
L 157.570981 232.193968 
L 157.906924 241.053457 
L 158.242866 226.994354 
L 158.578808 223.396332 
L 159.250692 225.494917 
L 159.586635 225.483439 
L 160.258519 234.157021 
L 160.594461 232.688567 
L 160.930403 226.99652 
L 161.266346 223.39633 
L 161.93823 225.506771 
L 162.274172 225.483871 
L 162.946057 234.299702 
L 163.281999 234.481446 
L 163.617941 227.004775 
L 163.953883 223.396327 
L 164.289825 224.731312 
L 164.625768 225.484265 
L 165.297652 234.417296 
L 165.633594 232.636561 
L 165.969536 235.526846 
L 166.305479 227.048721 
L 166.641421 223.396325 
L 166.977363 225.127766 
L 167.313305 224.776455 
L 167.649247 225.484668 
L 168.321132 234.584317 
L 168.657074 231.787385 
L 168.993016 239.908003 
L 169.328958 225.309867 
L 169.664901 224.808402 
L 170.000843 225.485107 
L 170.336785 229.505668 
L 170.672727 235.334442 
L 171.008669 226.239867 
L 171.344612 240.875079 
L 171.680554 225.618044 
L 172.016496 224.845576 
L 172.352438 225.487679 
L 172.68838 229.504614 
L 173.024323 235.478838 
L 173.360265 225.825502 
L 173.696207 241.196415 
L 174.032149 226.209527 
L 174.368092 224.916671 
L 174.704034 225.498672 
L 175.039976 229.503507 
L 175.375918 235.585743 
L 176.047803 219.250726 
L 176.383745 241.364129 
L 176.719687 227.950817 
L 177.055629 225.189311 
L 177.391571 229.502183 
L 177.727514 235.708877 
L 178.063456 225.801517 
L 178.399398 222.972962 
L 178.73534 241.507696 
L 179.071282 226.119653 
L 179.407225 229.501417 
L 179.743167 235.831016 
L 180.079109 225.794458 
L 180.415051 219.988711 
L 181.086936 241.670977 
L 181.422878 229.497907 
L 181.75882 236.903933 
L 182.094762 225.779007 
L 182.430704 221.530533 
L 182.766647 231.353477 
L 183.102589 231.535863 
L 183.438531 241.799613 
L 183.774473 229.496522 
L 184.110415 239.096956 
L 184.446358 225.772579 
L 184.7823 225.776038 
L 185.118242 231.481009 
L 185.454184 231.909262 
L 185.790126 241.90746 
L 186.126069 229.496034 
L 186.462011 225.762854 
L 186.797953 225.77562 
L 187.133895 231.492888 
L 187.469837 232.171933 
L 187.80578 242.004771 
L 188.141722 229.495661 
L 188.477664 225.775161 
L 188.813606 231.497798 
L 189.149548 232.503847 
L 189.485491 242.085309 
L 189.821433 229.495385 
L 190.157375 225.774754 
L 190.493317 231.501266 
L 190.829259 232.711836 
L 191.165202 242.055974 
L 191.501144 229.495242 
L 191.837086 225.774317 
L 192.173028 231.504817 
L 192.50897 233.031247 
L 192.844913 241.953291 
L 193.180855 229.495031 
L 193.516797 225.773687 
L 193.852739 231.50901 
L 194.188682 233.349687 
L 194.524624 241.393506 
L 194.860566 229.494671 
L 195.196508 225.772912 
L 195.53245 231.514304 
L 195.868393 233.707014 
L 196.204335 237.921228 
L 196.540277 240.729009 
L 196.876219 229.493045 
L 197.212161 225.768059 
L 197.548104 231.519051 
L 197.884046 233.965607 
L 198.219988 204.472693 
L 198.55593 236.654606 
L 198.891872 240.728103 
L 199.227815 229.486993 
L 199.563757 225.751279 
L 199.899699 231.522809 
L 200.235641 234.273848 
L 200.571583 204.620735 
L 200.907526 235.165622 
L 201.243468 240.723498 
L 201.57941 231.529266 
L 201.915352 234.721137 
L 202.251294 211.086679 
L 202.587237 205.360236 
L 202.923179 235.014074 
L 203.259121 240.723183 
L 203.595063 231.551828 
L 203.931005 235.052775 
L 204.266948 211.679113 
L 204.60289 205.716981 
L 204.938832 234.908322 
L 205.274774 240.723054 
L 205.610716 231.689889 
L 205.946659 235.372718 
L 206.282601 212.015893 
L 206.618543 206.79242 
L 206.954485 205.717047 
L 207.290427 234.798779 
L 207.62637 240.722974 
L 207.962312 235.685868 
L 208.298254 212.244569 
L 208.634196 208.323945 
L 208.970138 205.717063 
L 209.306081 234.338799 
L 209.642023 240.722848 
L 209.977965 236.062508 
L 210.313907 212.617243 
L 210.985792 205.717073 
L 211.321734 234.22649 
L 211.657676 240.721522 
L 211.993618 236.693395 
L 212.329561 236.062483 
L 212.665503 213.856007 
L 213.001445 208.72631 
L 213.337387 205.717086 
L 213.673329 234.119369 
L 214.009272 240.721091 
L 214.681156 236.693312 
L 215.017098 215.23511 
L 215.35304 208.769216 
L 215.688983 205.717096 
L 216.024925 234.012837 
L 216.360867 240.720959 
L 216.696809 196.66701 
L 217.032751 238.821707 
L 217.368694 216.010695 
L 217.704636 208.804784 
L 218.040578 205.717106 
L 218.37652 233.890641 
L 218.712462 240.720747 
L 219.048405 198.828754 
L 219.384347 196.666925 
L 219.720289 216.739259 
L 220.056231 208.833608 
L 220.392173 205.717116 
L 220.728116 233.468674 
L 221.064058 240.720583 
L 221.4 199.484781 
L 221.735942 198.828728 
L 222.071884 217.434354 
L 222.407827 208.877667 
L 222.743769 205.717122 
L 223.079711 207.655854 
L 223.415653 240.720421 
L 223.751595 200.154574 
L 224.087538 199.484704 
L 224.42348 199.52227 
L 224.759422 218.575572 
L 225.095364 208.917384 
L 225.431306 205.717126 
L 225.767249 240.720289 
L 226.103191 200.899343 
L 226.439133 200.154489 
L 226.775075 200.154561 
L 227.111017 199.527763 
L 227.44696 219.370435 
L 227.782902 208.955183 
L 228.118844 205.717131 
L 228.454786 240.719736 
L 228.790728 201.172416 
L 229.126671 200.899312 
L 229.462613 199.530769 
L 229.798555 219.928911 
L 230.134497 208.997765 
L 230.470439 205.717137 
L 230.806382 240.719709 
L 231.142324 201.109051 
L 231.814208 201.233697 
L 232.150151 199.532812 
L 232.486093 220.195748 
L 232.822035 209.042743 
L 233.157977 205.717146 
L 233.493919 240.719692 
L 233.829862 201.01872 
L 234.837688 201.246025 
L 235.17363 199.535925 
L 235.509573 220.364779 
L 235.845515 209.141084 
L 236.181457 205.717157 
L 236.517399 240.719676 
L 236.853341 200.963881 
L 237.189284 201.018662 
L 237.525226 201.236148 
L 237.861168 201.254004 
L 238.19711 199.540666 
L 238.533052 220.479062 
L 238.868995 211.371263 
L 239.204937 205.717163 
L 239.540879 240.719665 
L 239.876821 200.95447 
L 240.212763 200.963871 
L 240.548706 201.236585 
L 240.884648 199.544041 
L 241.22059 220.638469 
L 241.556532 211.35984 
L 241.892474 211.753512 
L 242.564359 198.38464 
L 242.900301 200.954443 
L 243.236243 201.246676 
L 243.572185 201.236991 
L 243.908128 199.546355 
L 244.24407 220.760127 
L 244.580012 211.349597 
L 244.915954 211.959715 
L 245.251896 205.717171 
L 245.587839 196.49298 
L 245.923781 198.384621 
L 246.259723 201.419443 
L 246.595665 201.237357 
L 246.931607 199.548189 
L 247.26755 221.628289 
L 247.603492 211.990509 
L 247.939434 205.717174 
L 248.275376 193.917536 
L 248.611318 196.492953 
L 248.947261 201.556412 
L 249.283203 201.237741 
L 249.619145 199.554089 
L 249.955087 222.096759 
L 250.29103 229.156504 
L 250.626972 212.014015 
L 250.962914 205.717176 
L 251.298856 192.095046 
L 251.634798 193.917517 
L 251.970741 201.61304 
L 252.306683 201.238912 
L 252.642625 199.601969 
L 252.978567 222.613983 
L 253.314509 212.035998 
L 253.650452 205.717178 
L 253.986394 186.99848 
L 254.322336 192.094993 
L 254.658278 201.616207 
L 254.99422 201.8059 
L 255.330163 201.240105 
L 255.666105 199.604361 
L 256.002047 224.015754 
L 256.337989 212.05944 
L 256.673931 205.717179 
L 257.009874 183.308146 
L 257.345816 186.998442 
L 257.681758 201.617376 
L 258.0177 201.9519 
L 258.353642 201.251375 
L 258.689585 199.606255 
L 259.025527 212.080182 
L 259.361469 205.71718 
L 259.697411 182.40446 
L 260.033353 183.308138 
L 260.369296 183.329346 
L 260.705238 201.619123 
L 261.04118 199.608403 
L 261.377122 212.101398 
L 261.713064 182.190488 
L 262.049007 182.404458 
L 262.384949 183.332043 
L 262.720891 201.620177 
L 263.056833 199.610321 
L 263.392775 212.210892 
L 263.728718 176.390713 
L 264.06466 182.190433 
L 264.400602 182.19042 
L 264.736544 183.334045 
L 265.072486 201.621453 
L 265.408429 199.612536 
L 265.744371 212.207236 
L 266.080313 212.46765 
L 266.416255 172.326224 
L 266.752197 176.390674 
L 267.08814 182.190397 
L 267.424082 183.336006 
L 267.760024 201.622577 
L 268.095966 199.614814 
L 268.431908 212.207016 
L 268.767851 213.694554 
L 269.103793 172.656314 
L 269.439735 171.32084 
L 269.775677 182.190381 
L 270.11162 183.354536 
L 270.447562 201.629955 
L 270.783504 199.617561 
L 271.119446 212.206901 
L 271.455388 218.160322 
L 271.791331 214.163501 
L 272.127273 172.950889 
L 272.463215 172.656246 
L 272.799157 172.656247 
L 273.135099 191.121285 
L 273.471042 171.320436 
L 273.806984 182.190362 
L 274.142926 183.363212 
L 274.478868 201.684524 
L 274.81481 199.619289 
L 275.150753 212.2068 
L 275.486695 220.516753 
L 275.822637 214.612569 
L 276.158579 172.950295 
L 276.830464 172.950845 
L 277.166406 185.151013 
L 277.502348 182.190352 
L 277.83829 183.36731 
L 278.510175 212.206715 
L 278.846117 214.59002 
L 279.182059 214.986357 
L 279.518001 172.949687 
L 279.853943 182.190341 
L 280.189886 183.370059 
L 280.86177 212.206576 
L 281.197712 214.584477 
L 281.533654 215.072351 
L 281.869597 172.949569 
L 282.205539 182.190333 
L 282.541481 183.374288 
L 282.877423 212.206233 
L 283.213365 214.580661 
L 283.549308 215.115025 
L 283.88525 172.949372 
L 284.221192 182.190325 
L 284.557134 183.382595 
L 284.893076 212.205987 
L 285.229019 214.575359 
L 285.564961 215.161918 
L 285.900903 182.190318 
L 286.236845 183.384906 
L 286.572787 212.205663 
L 286.90873 214.562754 
L 287.244672 215.216024 
L 287.580614 182.19031 
L 287.916556 183.38558 
L 288.252498 212.20546 
L 288.588441 214.553148 
L 288.924383 215.27072 
L 289.260325 182.190301 
L 289.596267 183.385842 
L 289.93221 183.387317 
L 290.268152 212.205271 
L 290.604094 214.546388 
L 290.940036 215.331357 
L 291.275978 182.190281 
L 291.611921 183.38609 
L 291.947863 183.389633 
L 292.283805 212.204942 
L 292.619747 214.539289 
L 292.955689 215.419532 
L 293.291632 182.19027 
L 293.627574 183.386349 
L 293.963516 183.399356 
L 294.299458 212.204609 
L 294.6354 214.533447 
L 294.971343 215.41567 
L 295.307285 215.762666 
L 295.643227 182.190264 
L 295.979169 183.388244 
L 296.315111 183.403528 
L 296.651054 212.204447 
L 296.986996 214.52375 
L 297.322938 215.413342 
L 297.65888 217.935386 
L 297.994822 182.190258 
L 298.330765 183.402223 
L 298.666707 212.204264 
L 299.002649 214.492334 
L 299.338591 215.411172 
L 299.674533 219.490541 
L 300.010476 212.204083 
L 300.346418 214.418747 
L 300.68236 215.409046 
L 301.018302 181.554505 
L 301.354244 219.918466 
L 301.690187 212.20386 
L 302.026129 215.407445 
L 302.362071 181.912553 
L 302.698013 182.442313 
L 303.033955 219.893673 
L 303.369898 220.089213 
L 303.70584 212.203494 
L 304.041782 215.404891 
L 304.377724 182.02458 
L 304.713666 184.250767 
L 305.049609 219.87912 
L 305.385551 175.409135 
L 305.721493 212.202467 
L 306.057435 215.400565 
L 306.393377 182.096605 
L 306.72932 176.69012 
L 307.065262 175.409162 
L 307.401204 212.201066 
L 307.737146 215.368022 
L 308.073089 182.140045 
L 308.744973 176.669565 
L 309.080915 175.409185 
L 309.416857 212.200929 
L 309.7528 215.341212 
L 310.088742 182.183947 
L 310.424684 181.832641 
L 310.760626 176.66735 
L 311.096568 175.409206 
L 311.432511 212.200819 
L 311.768453 215.332683 
L 312.104395 182.223159 
L 312.440337 186.877713 
L 313.112222 176.666498 
L 313.448164 175.409228 
L 313.784106 212.200709 
L 314.120048 215.324885 
L 314.45599 182.267333 
L 314.791933 193.733113 
L 315.127875 181.2732 
L 315.463817 176.665592 
L 315.799759 175.409244 
L 316.135701 212.200588 
L 316.471644 215.320621 
L 316.807586 182.302722 
L 317.143528 201.759327 
L 317.47947 181.238394 
L 317.815412 176.664835 
L 318.151355 175.409268 
L 318.487297 212.200474 
L 318.823239 215.317202 
L 319.159181 182.345169 
L 319.495123 208.20399 
L 319.831066 181.192906 
L 320.167008 181.233427 
L 320.50295 176.663932 
L 320.838892 175.409293 
L 321.174834 212.200365 
L 321.510777 215.314274 
L 321.846719 182.390908 
L 322.182661 206.181701 
L 322.518603 186.582915 
L 322.854545 181.155826 
L 323.190488 181.229833 
L 323.52643 176.663047 
L 323.862372 175.409311 
L 324.198314 212.200209 
L 324.534256 215.310824 
L 324.870199 182.474349 
L 325.206141 203.393518 
L 325.542083 206.263505 
L 325.878025 181.226796 
L 326.213967 176.661821 
L 326.54991 175.409326 
L 326.885852 212.200015 
L 327.221794 215.307659 
L 327.557736 183.098571 
L 328.229621 207.829695 
L 328.565563 206.725101 
L 328.901505 181.221664 
L 329.237447 176.660125 
L 329.57339 175.409335 
L 329.909332 212.199074 
L 330.245274 215.302729 
L 330.581216 185.011357 
L 330.917158 190.974934 
L 331.253101 164.197916 
L 331.589043 207.166442 
L 331.924985 181.21447 
L 332.260927 176.658318 
L 332.596869 175.409345 
L 332.932812 212.190869 
L 333.268754 215.292735 
L 333.604696 186.630862 
L 333.940638 207.642226 
L 334.27658 181.209127 
L 334.612523 176.65711 
L 334.948465 175.409353 
L 335.284407 215.290739 
L 335.620349 215.286769 
L 335.956291 182.704612 
L 336.292234 208.06706 
L 336.628176 181.20027 
L 336.964118 176.655873 
L 337.30006 175.409359 
L 337.636002 215.288987 
L 337.971945 215.277109 
L 338.307887 182.697181 
L 338.643829 182.06262 
L 338.979771 208.536214 
L 339.315713 181.138736 
L 339.651656 176.655278 
L 339.987598 175.409366 
L 340.32354 215.28753 
L 340.659482 215.268757 
L 340.995424 182.689722 
L 341.331367 180.502483 
L 341.667309 182.062663 
L 342.003251 208.838691 
L 342.339193 181.002702 
L 342.675135 176.654326 
L 343.011078 175.409384 
L 343.34702 215.28639 
L 343.682962 215.263976 
L 344.018904 182.682243 
L 344.354846 179.194278 
L 344.690789 180.50252 
L 345.026731 164.136912 
L 345.362673 176.653427 
L 345.698615 175.409398 
L 346.034557 215.285224 
L 346.3705 182.674801 
L 346.706442 177.7879 
L 347.042384 179.194317 
L 347.378326 167.958149 
L 347.714269 176.652134 
L 348.050211 175.409405 
L 348.386153 215.284206 
L 348.722095 182.667324 
L 349.058037 176.633141 
L 349.39398 177.787932 
L 349.729922 181.127728 
L 350.065864 176.638404 
L 350.401806 215.283471 
L 350.737748 182.659845 
L 351.073691 175.393302 
L 351.409633 176.633175 
L 351.745575 176.632879 
L 352.081517 215.282612 
L 352.417459 182.652354 
L 352.753402 175.395846 
L 353.425286 175.393353 
L 353.761228 176.630057 
L 354.09717 215.281311 
L 354.433113 182.648694 
L 354.769055 175.396192 
L 355.440939 175.39403 
L 355.776881 176.629429 
L 356.112824 215.279173 
L 356.448766 182.566356 
L 356.784708 175.397091 
L 357.456592 175.394744 
L 357.792535 176.628931 
L 358.128477 215.271245 
L 358.464419 215.254345 
L 358.800361 182.512763 
L 359.136303 175.398059 
L 359.808188 175.395561 
L 360.14413 176.628395 
L 360.480072 182.465845 
L 360.816014 175.398173 
L 361.487899 175.395822 
L 361.823841 176.627963 
L 362.159783 182.416586 
L 362.495725 175.398259 
L 363.503552 175.395937 
L 363.839494 176.627542 
L 364.175436 182.332396 
L 364.511379 175.398325 
L 365.519205 175.395985 
L 365.855148 176.627119 
L 366.19109 182.311726 
L 366.527032 175.398406 
L 366.862974 175.398595 
L 367.198916 176.626699 
L 367.534859 182.309801 
L 367.870801 182.541473 
L 368.206743 175.398482 
L 368.542685 176.61914 
L 368.878627 182.306604 
L 369.21457 182.73626 
L 369.550512 175.398681 
L 369.886454 176.602247 
L 370.222396 176.608569 
L 370.558338 182.305965 
L 370.894281 183.063538 
L 371.230223 175.398861 
L 371.566165 176.590895 
L 371.902107 182.305419 
L 373.581818 182.28505 
L 373.581818 182.28505 
" style="fill:none;stroke:#0000ff;stroke-linecap:square;stroke-width:1.5;"/>
   </g>
   <g id="patch_3">
    <path d="M 54 252 
L 54 34.56 
" style="fill:none;stroke:#000000;stroke-linecap:square;stroke-linejoin:miter;stroke-width:0.8;"/>
   </g>
   <g id="patch_4">
    <path d="M 388.8 252 
L 388.8 34.56 
" style="fill:none;stroke:#000000;stroke-linecap:square;stroke-linejoin:miter;stroke-width:0.8;"/>
   </g>
   <g id="patch_5">
    <path d="M 54 252 
L 388.8 252 
" style="fill:none;stroke:#000000;stroke-linecap:square;stroke-linejoin:miter;stroke-width:0.8;"/>
   </g>
   <g id="patch_6">
    <path d="M 54 34.56 
L 388.8 34.56 
" style="fill:none;stroke:#000000;stroke-linecap:square;stroke-linejoin:miter;stroke-width:0.8;"/>
   </g>
   <g id="legend_1">
    <g id="patch_7">
     <path d="M 61 87.42875 
L 295.071875 87.42875 
Q 297.071875 87.42875 297.071875 85.42875 
L 297.071875 41.56 
Q 297.071875 39.56 295.071875 39.56 
L 61 39.56 
Q 59 39.56 59 41.56 
L 59 85.42875 
Q 59 87.42875 61 87.42875 
z
" style="fill:#ffffff;opacity:0.8;stroke:#cccccc;stroke-linejoin:miter;"/>
    </g>
    <g id="line2d_14">
     <path d="M 63 47.658437 
L 83 47.658437 
" style="fill:none;stroke:#ff0000;stroke-linecap:square;stroke-width:1.5;"/>
    </g>
    <g id="line2d_15"/>
    <g id="text_7">
     <!-- off_endpowerfactory_OpenDSS_Phase_A -->
     <defs>
      <path d="M 30.609375 48.390625 
Q 23.390625 48.390625 19.1875 42.75 
Q 14.984375 37.109375 14.984375 27.296875 
Q 14.984375 17.484375 19.15625 11.84375 
Q 23.34375 6.203125 30.609375 6.203125 
Q 37.796875 6.203125 41.984375 11.859375 
Q 46.1875 17.53125 46.1875 27.296875 
Q 46.1875 37.015625 41.984375 42.703125 
Q 37.796875 48.390625 30.609375 48.390625 
z
M 30.609375 56 
Q 42.328125 56 49.015625 48.375 
Q 55.71875 40.765625 55.71875 27.296875 
Q 55.71875 13.875 49.015625 6.21875 
Q 42.328125 -1.421875 30.609375 -1.421875 
Q 18.84375 -1.421875 12.171875 6.21875 
Q 5.515625 13.875 5.515625 27.296875 
Q 5.515625 40.765625 12.171875 48.375 
Q 18.84375 56 30.609375 56 
z
" id="DejaVuSans-111"/>
      <path d="M 37.109375 75.984375 
L 37.109375 68.5 
L 28.515625 68.5 
Q 23.6875 68.5 21.796875 66.546875 
Q 19.921875 64.59375 19.921875 59.515625 
L 19.921875 54.6875 
L 34.71875 54.6875 
L 34.71875 47.703125 
L 19.921875 47.703125 
L 19.921875 0 
L 10.890625 0 
L 10.890625 47.703125 
L 2.296875 47.703125 
L 2.296875 54.6875 
L 10.890625 54.6875 
L 10.890625 58.5 
Q 10.890625 67.625 15.140625 71.796875 
Q 19.390625 75.984375 28.609375 75.984375 
z
" id="DejaVuSans-102"/>
      <path d="M 50.984375 -16.609375 
L 50.984375 -23.578125 
L -0.984375 -23.578125 
L -0.984375 -16.609375 
z
" id="DejaVuSans-95"/>
      <path d="M 56.203125 29.59375 
L 56.203125 25.203125 
L 14.890625 25.203125 
Q 15.484375 15.921875 20.484375 11.0625 
Q 25.484375 6.203125 34.421875 6.203125 
Q 39.59375 6.203125 44.453125 7.46875 
Q 49.3125 8.734375 54.109375 11.28125 
L 54.109375 2.78125 
Q 49.265625 0.734375 44.1875 -0.34375 
Q 39.109375 -1.421875 33.890625 -1.421875 
Q 20.796875 -1.421875 13.15625 6.1875 
Q 5.515625 13.8125 5.515625 26.8125 
Q 5.515625 40.234375 12.765625 48.109375 
Q 20.015625 56 32.328125 56 
Q 43.359375 56 49.78125 48.890625 
Q 56.203125 41.796875 56.203125 29.59375 
z
M 47.21875 32.234375 
Q 47.125 39.59375 43.09375 43.984375 
Q 39.0625 48.390625 32.421875 48.390625 
Q 24.90625 48.390625 20.390625 44.140625 
Q 15.875 39.890625 15.1875 32.171875 
z
" id="DejaVuSans-101"/>
      <path d="M 54.890625 33.015625 
L 54.890625 0 
L 45.90625 0 
L 45.90625 32.71875 
Q 45.90625 40.484375 42.875 44.328125 
Q 39.84375 48.1875 33.796875 48.1875 
Q 26.515625 48.1875 22.3125 43.546875 
Q 18.109375 38.921875 18.109375 30.90625 
L 18.109375 0 
L 9.078125 0 
L 9.078125 54.6875 
L 18.109375 54.6875 
L 18.109375 46.1875 
Q 21.34375 51.125 25.703125 53.5625 
Q 30.078125 56 35.796875 56 
Q 45.21875 56 50.046875 50.171875 
Q 54.890625 44.34375 54.890625 33.015625 
z
" id="DejaVuSans-110"/>
      <path d="M 45.40625 46.390625 
L 45.40625 75.984375 
L 54.390625 75.984375 
L 54.390625 0 
L 45.40625 0 
L 45.40625 8.203125 
Q 42.578125 3.328125 38.25 0.953125 
Q 33.9375 -1.421875 27.875 -1.421875 
Q 17.96875 -1.421875 11.734375 6.484375 
Q 5.515625 14.40625 5.515625 27.296875 
Q 5.515625 40.1875 11.734375 48.09375 
Q 17.96875 56 27.875 56 
Q 33.9375 56 38.25 53.625 
Q 42.578125 51.265625 45.40625 46.390625 
z
M 14.796875 27.296875 
Q 14.796875 17.390625 18.875 11.75 
Q 22.953125 6.109375 30.078125 6.109375 
Q 37.203125 6.109375 41.296875 11.75 
Q 45.40625 17.390625 45.40625 27.296875 
Q 45.40625 37.203125 41.296875 42.84375 
Q 37.203125 48.484375 30.078125 48.484375 
Q 22.953125 48.484375 18.875 42.84375 
Q 14.796875 37.203125 14.796875 27.296875 
z
" id="DejaVuSans-100"/>
      <path d="M 18.109375 8.203125 
L 18.109375 -20.796875 
L 9.078125 -20.796875 
L 9.078125 54.6875 
L 18.109375 54.6875 
L 18.109375 46.390625 
Q 20.953125 51.265625 25.265625 53.625 
Q 29.59375 56 35.59375 56 
Q 45.5625 56 51.78125 48.09375 
Q 58.015625 40.1875 58.015625 27.296875 
Q 58.015625 14.40625 51.78125 6.484375 
Q 45.5625 -1.421875 35.59375 -1.421875 
Q 29.59375 -1.421875 25.265625 0.953125 
Q 20.953125 3.328125 18.109375 8.203125 
z
M 48.6875 27.296875 
Q 48.6875 37.203125 44.609375 42.84375 
Q 40.53125 48.484375 33.40625 48.484375 
Q 26.265625 48.484375 22.1875 42.84375 
Q 18.109375 37.203125 18.109375 27.296875 
Q 18.109375 17.390625 22.1875 11.75 
Q 26.265625 6.109375 33.40625 6.109375 
Q 40.53125 6.109375 44.609375 11.75 
Q 48.6875 17.390625 48.6875 27.296875 
z
" id="DejaVuSans-112"/>
      <path d="M 4.203125 54.6875 
L 13.1875 54.6875 
L 24.421875 12.015625 
L 35.59375 54.6875 
L 46.1875 54.6875 
L 57.421875 12.015625 
L 68.609375 54.6875 
L 77.59375 54.6875 
L 63.28125 0 
L 52.6875 0 
L 40.921875 44.828125 
L 29.109375 0 
L 18.5 0 
z
" id="DejaVuSans-119"/>
      <path d="M 41.109375 46.296875 
Q 39.59375 47.171875 37.8125 47.578125 
Q 36.03125 48 33.890625 48 
Q 26.265625 48 22.1875 43.046875 
Q 18.109375 38.09375 18.109375 28.8125 
L 18.109375 0 
L 9.078125 0 
L 9.078125 54.6875 
L 18.109375 54.6875 
L 18.109375 46.1875 
Q 20.953125 51.171875 25.484375 53.578125 
Q 30.03125 56 36.53125 56 
Q 37.453125 56 38.578125 55.875 
Q 39.703125 55.765625 41.0625 55.515625 
z
" id="DejaVuSans-114"/>
      <path d="M 34.28125 27.484375 
Q 23.390625 27.484375 19.1875 25 
Q 14.984375 22.515625 14.984375 16.5 
Q 14.984375 11.71875 18.140625 8.90625 
Q 21.296875 6.109375 26.703125 6.109375 
Q 34.1875 6.109375 38.703125 11.40625 
Q 43.21875 16.703125 43.21875 25.484375 
L 43.21875 27.484375 
z
M 52.203125 31.203125 
L 52.203125 0 
L 43.21875 0 
L 43.21875 8.296875 
Q 40.140625 3.328125 35.546875 0.953125 
Q 30.953125 -1.421875 24.3125 -1.421875 
Q 15.921875 -1.421875 10.953125 3.296875 
Q 6 8.015625 6 15.921875 
Q 6 25.140625 12.171875 29.828125 
Q 18.359375 34.515625 30.609375 34.515625 
L 43.21875 34.515625 
L 43.21875 35.40625 
Q 43.21875 41.609375 39.140625 45 
Q 35.0625 48.390625 27.6875 48.390625 
Q 23 48.390625 18.546875 47.265625 
Q 14.109375 46.140625 10.015625 43.890625 
L 10.015625 52.203125 
Q 14.9375 54.109375 19.578125 55.046875 
Q 24.21875 56 28.609375 56 
Q 40.484375 56 46.34375 49.84375 
Q 52.203125 43.703125 52.203125 31.203125 
z
" id="DejaVuSans-97"/>
      <path d="M 48.78125 52.59375 
L 48.78125 44.1875 
Q 44.96875 46.296875 41.140625 47.34375 
Q 37.3125 48.390625 33.40625 48.390625 
Q 24.65625 48.390625 19.8125 42.84375 
Q 14.984375 37.3125 14.984375 27.296875 
Q 14.984375 17.28125 19.8125 11.734375 
Q 24.65625 6.203125 33.40625 6.203125 
Q 37.3125 6.203125 41.140625 7.25 
Q 44.96875 8.296875 48.78125 10.40625 
L 48.78125 2.09375 
Q 45.015625 0.34375 40.984375 -0.53125 
Q 36.96875 -1.421875 32.421875 -1.421875 
Q 20.0625 -1.421875 12.78125 6.34375 
Q 5.515625 14.109375 5.515625 27.296875 
Q 5.515625 40.671875 12.859375 48.328125 
Q 20.21875 56 33.015625 56 
Q 37.15625 56 41.109375 55.140625 
Q 45.0625 54.296875 48.78125 52.59375 
z
" id="DejaVuSans-99"/>
      <path d="M 18.3125 70.21875 
L 18.3125 54.6875 
L 36.8125 54.6875 
L 36.8125 47.703125 
L 18.3125 47.703125 
L 18.3125 18.015625 
Q 18.3125 11.328125 20.140625 9.421875 
Q 21.96875 7.515625 27.59375 7.515625 
L 36.8125 7.515625 
L 36.8125 0 
L 27.59375 0 
Q 17.1875 0 13.234375 3.875 
Q 9.28125 7.765625 9.28125 18.015625 
L 9.28125 47.703125 
L 2.6875 47.703125 
L 2.6875 54.6875 
L 9.28125 54.6875 
L 9.28125 70.21875 
z
" id="DejaVuSans-116"/>
      <path d="M 32.171875 -5.078125 
Q 28.375 -14.84375 24.75 -17.8125 
Q 21.140625 -20.796875 15.09375 -20.796875 
L 7.90625 -20.796875 
L 7.90625 -13.28125 
L 13.1875 -13.28125 
Q 16.890625 -13.28125 18.9375 -11.515625 
Q 21 -9.765625 23.484375 -3.21875 
L 25.09375 0.875 
L 2.984375 54.6875 
L 12.5 54.6875 
L 29.59375 11.921875 
L 46.6875 54.6875 
L 56.203125 54.6875 
z
" id="DejaVuSans-121"/>
      <path d="M 39.40625 66.21875 
Q 28.65625 66.21875 22.328125 58.203125 
Q 16.015625 50.203125 16.015625 36.375 
Q 16.015625 22.609375 22.328125 14.59375 
Q 28.65625 6.59375 39.40625 6.59375 
Q 50.140625 6.59375 56.421875 14.59375 
Q 62.703125 22.609375 62.703125 36.375 
Q 62.703125 50.203125 56.421875 58.203125 
Q 50.140625 66.21875 39.40625 66.21875 
z
M 39.40625 74.21875 
Q 54.734375 74.21875 63.90625 63.9375 
Q 73.09375 53.65625 73.09375 36.375 
Q 73.09375 19.140625 63.90625 8.859375 
Q 54.734375 -1.421875 39.40625 -1.421875 
Q 24.03125 -1.421875 14.8125 8.828125 
Q 5.609375 19.09375 5.609375 36.375 
Q 5.609375 53.65625 14.8125 63.9375 
Q 24.03125 74.21875 39.40625 74.21875 
z
" id="DejaVuSans-79"/>
      <path d="M 19.671875 64.796875 
L 19.671875 8.109375 
L 31.59375 8.109375 
Q 46.6875 8.109375 53.6875 14.9375 
Q 60.6875 21.78125 60.6875 36.53125 
Q 60.6875 51.171875 53.6875 57.984375 
Q 46.6875 64.796875 31.59375 64.796875 
z
M 9.8125 72.90625 
L 30.078125 72.90625 
Q 51.265625 72.90625 61.171875 64.09375 
Q 71.09375 55.28125 71.09375 36.53125 
Q 71.09375 17.671875 61.125 8.828125 
Q 51.171875 0 30.078125 0 
L 9.8125 0 
z
" id="DejaVuSans-68"/>
      <path d="M 53.515625 70.515625 
L 53.515625 60.890625 
Q 47.90625 63.578125 42.921875 64.890625 
Q 37.9375 66.21875 33.296875 66.21875 
Q 25.25 66.21875 20.875 63.09375 
Q 16.5 59.96875 16.5 54.203125 
Q 16.5 49.359375 19.40625 46.890625 
Q 22.3125 44.4375 30.421875 42.921875 
L 36.375 41.703125 
Q 47.40625 39.59375 52.65625 34.296875 
Q 57.90625 29 57.90625 20.125 
Q 57.90625 9.515625 50.796875 4.046875 
Q 43.703125 -1.421875 29.984375 -1.421875 
Q 24.8125 -1.421875 18.96875 -0.25 
Q 13.140625 0.921875 6.890625 3.21875 
L 6.890625 13.375 
Q 12.890625 10.015625 18.65625 8.296875 
Q 24.421875 6.59375 29.984375 6.59375 
Q 38.421875 6.59375 43.015625 9.90625 
Q 47.609375 13.234375 47.609375 19.390625 
Q 47.609375 24.75 44.3125 27.78125 
Q 41.015625 30.8125 33.5 32.328125 
L 27.484375 33.5 
Q 16.453125 35.6875 11.515625 40.375 
Q 6.59375 45.0625 6.59375 53.421875 
Q 6.59375 63.09375 13.40625 68.65625 
Q 20.21875 74.21875 32.171875 74.21875 
Q 37.3125 74.21875 42.625 73.28125 
Q 47.953125 72.359375 53.515625 70.515625 
z
" id="DejaVuSans-83"/>
      <path d="M 19.671875 64.796875 
L 19.671875 37.40625 
L 32.078125 37.40625 
Q 38.96875 37.40625 42.71875 40.96875 
Q 46.484375 44.53125 46.484375 51.125 
Q 46.484375 57.671875 42.71875 61.234375 
Q 38.96875 64.796875 32.078125 64.796875 
z
M 9.8125 72.90625 
L 32.078125 72.90625 
Q 44.34375 72.90625 50.609375 67.359375 
Q 56.890625 61.8125 56.890625 51.125 
Q 56.890625 40.328125 50.609375 34.8125 
Q 44.34375 29.296875 32.078125 29.296875 
L 19.671875 29.296875 
L 19.671875 0 
L 9.8125 0 
z
" id="DejaVuSans-80"/>
      <path d="M 54.890625 33.015625 
L 54.890625 0 
L 45.90625 0 
L 45.90625 32.71875 
Q 45.90625 40.484375 42.875 44.328125 
Q 39.84375 48.1875 33.796875 48.1875 
Q 26.515625 48.1875 22.3125 43.546875 
Q 18.109375 38.921875 18.109375 30.90625 
L 18.109375 0 
L 9.078125 0 
L 9.078125 75.984375 
L 18.109375 75.984375 
L 18.109375 46.1875 
Q 21.34375 51.125 25.703125 53.5625 
Q 30.078125 56 35.796875 56 
Q 45.21875 56 50.046875 50.171875 
Q 54.890625 44.34375 54.890625 33.015625 
z
" id="DejaVuSans-104"/>
      <path d="M 34.1875 63.1875 
L 20.796875 26.90625 
L 47.609375 26.90625 
z
M 28.609375 72.90625 
L 39.796875 72.90625 
L 67.578125 0 
L 57.328125 0 
L 50.6875 18.703125 
L 17.828125 18.703125 
L 11.1875 0 
L 0.78125 0 
z
" id="DejaVuSans-65"/>
     </defs>
     <g transform="translate(91 51.158437)scale(0.1 -0.1)">
      <use xlink:href="#DejaVuSans-111"/>
      <use x="61.181641" xlink:href="#DejaVuSans-102"/>
      <use x="96.386719" xlink:href="#DejaVuSans-102"/>
      <use x="131.591797" xlink:href="#DejaVuSans-95"/>
      <use x="181.591797" xlink:href="#DejaVuSans-101"/>
      <use x="243.115234" xlink:href="#DejaVuSans-110"/>
      <use x="306.494141" xlink:href="#DejaVuSans-100"/>
      <use x="369.970703" xlink:href="#DejaVuSans-112"/>
      <use x="433.447266" xlink:href="#DejaVuSans-111"/>
      <use x="494.628906" xlink:href="#DejaVuSans-119"/>
      <use x="576.416016" xlink:href="#DejaVuSans-101"/>
      <use x="637.939453" xlink:href="#DejaVuSans-114"/>
      <use x="679.052734" xlink:href="#DejaVuSans-102"/>
      <use x="714.257812" xlink:href="#DejaVuSans-97"/>
      <use x="775.537109" xlink:href="#DejaVuSans-99"/>
      <use x="830.517578" xlink:href="#DejaVuSans-116"/>
      <use x="869.726562" xlink:href="#DejaVuSans-111"/>
      <use x="930.908203" xlink:href="#DejaVuSans-114"/>
      <use x="972.021484" xlink:href="#DejaVuSans-121"/>
      <use x="1031.201172" xlink:href="#DejaVuSans-95"/>
      <use x="1081.201172" xlink:href="#DejaVuSans-79"/>
      <use x="1159.912109" xlink:href="#DejaVuSans-112"/>
      <use x="1223.388672" xlink:href="#DejaVuSans-101"/>
      <use x="1284.912109" xlink:href="#DejaVuSans-110"/>
      <use x="1348.291016" xlink:href="#DejaVuSans-68"/>
      <use x="1425.292969" xlink:href="#DejaVuSans-83"/>
      <use x="1488.769531" xlink:href="#DejaVuSans-83"/>
      <use x="1552.246094" xlink:href="#DejaVuSans-95"/>
      <use x="1602.246094" xlink:href="#DejaVuSans-80"/>
      <use x="1662.548828" xlink:href="#DejaVuSans-104"/>
      <use x="1725.927734" xlink:href="#DejaVuSans-97"/>
      <use x="1787.207031" xlink:href="#DejaVuSans-115"/>
      <use x="1839.306641" xlink:href="#DejaVuSans-101"/>
      <use x="1900.830078" xlink:href="#DejaVuSans-95"/>
      <use x="1950.830078" xlink:href="#DejaVuSans-65"/>
     </g>
    </g>
    <g id="line2d_16">
     <path d="M 63 62.614688 
L 83 62.614688 
" style="fill:none;stroke:#ffff00;stroke-linecap:square;stroke-width:1.5;"/>
    </g>
    <g id="line2d_17"/>
    <g id="text_8">
     <!-- off_endpowerfactory_OpenDSS_Phase_B -->
     <g transform="translate(91 66.114688)scale(0.1 -0.1)">
      <use xlink:href="#DejaVuSans-111"/>
      <use x="61.181641" xlink:href="#DejaVuSans-102"/>
      <use x="96.386719" xlink:href="#DejaVuSans-102"/>
      <use x="131.591797" xlink:href="#DejaVuSans-95"/>
      <use x="181.591797" xlink:href="#DejaVuSans-101"/>
      <use x="243.115234" xlink:href="#DejaVuSans-110"/>
      <use x="306.494141" xlink:href="#DejaVuSans-100"/>
      <use x="369.970703" xlink:href="#DejaVuSans-112"/>
      <use x="433.447266" xlink:href="#DejaVuSans-111"/>
      <use x="494.628906" xlink:href="#DejaVuSans-119"/>
      <use x="576.416016" xlink:href="#DejaVuSans-101"/>
      <use x="637.939453" xlink:href="#DejaVuSans-114"/>
      <use x="679.052734" xlink:href="#DejaVuSans-102"/>
      <use x="714.257812" xlink:href="#DejaVuSans-97"/>
      <use x="775.537109" xlink:href="#DejaVuSans-99"/>
      <use x="830.517578" xlink:href="#DejaVuSans-116"/>
      <use x="869.726562" xlink:href="#DejaVuSans-111"/>
      <use x="930.908203" xlink:href="#DejaVuSans-114"/>
      <use x="972.021484" xlink:href="#DejaVuSans-121"/>
      <use x="1031.201172" xlink:href="#DejaVuSans-95"/>
      <use x="1081.201172" xlink:href="#DejaVuSans-79"/>
      <use x="1159.912109" xlink:href="#DejaVuSans-112"/>
      <use x="1223.388672" xlink:href="#DejaVuSans-101"/>
      <use x="1284.912109" xlink:href="#DejaVuSans-110"/>
      <use x="1348.291016" xlink:href="#DejaVuSans-68"/>
      <use x="1425.292969" xlink:href="#DejaVuSans-83"/>
      <use x="1488.769531" xlink:href="#DejaVuSans-83"/>
      <use x="1552.246094" xlink:href="#DejaVuSans-95"/>
      <use x="1602.246094" xlink:href="#DejaVuSans-80"/>
      <use x="1662.548828" xlink:href="#DejaVuSans-104"/>
      <use x="1725.927734" xlink:href="#DejaVuSans-97"/>
      <use x="1787.207031" xlink:href="#DejaVuSans-115"/>
      <use x="1839.306641" xlink:href="#DejaVuSans-101"/>
      <use x="1900.830078" xlink:href="#DejaVuSans-95"/>
      <use x="1950.830078" xlink:href="#DejaVuSans-66"/>
     </g>
    </g>
    <g id="line2d_18">
     <path d="M 63 77.570937 
L 83 77.570937 
" style="fill:none;stroke:#0000ff;stroke-linecap:square;stroke-width:1.5;"/>
    </g>
    <g id="line2d_19"/>
    <g id="text_9">
     <!-- off_endpowerfactory_OpenDSS_Phase_C -->
     <defs>
      <path d="M 64.40625 67.28125 
L 64.40625 56.890625 
Q 59.421875 61.53125 53.78125 63.8125 
Q 48.140625 66.109375 41.796875 66.109375 
Q 29.296875 66.109375 22.65625 58.46875 
Q 16.015625 50.828125 16.015625 36.375 
Q 16.015625 21.96875 22.65625 14.328125 
Q 29.296875 6.6875 41.796875 6.6875 
Q 48.140625 6.6875 53.78125 8.984375 
Q 59.421875 11.28125 64.40625 15.921875 
L 64.40625 5.609375 
Q 59.234375 2.09375 53.4375 0.328125 
Q 47.65625 -1.421875 41.21875 -1.421875 
Q 24.65625 -1.421875 15.125 8.703125 
Q 5.609375 18.84375 5.609375 36.375 
Q 5.609375 53.953125 15.125 64.078125 
Q 24.65625 74.21875 41.21875 74.21875 
Q 47.75 74.21875 53.53125 72.484375 
Q 59.328125 70.75 64.40625 67.28125 
z
" id="DejaVuSans-67"/>
     </defs>
     <g transform="translate(91 81.070937)scale(0.1 -0.1)">
      <use xlink:href="#DejaVuSans-111"/>
      <use x="61.181641" xlink:href="#DejaVuSans-102"/>
      <use x="96.386719" xlink:href="#DejaVuSans-102"/>
      <use x="131.591797" xlink:href="#DejaVuSans-95"/>
      <use x="181.591797" xlink:href="#DejaVuSans-101"/>
      <use x="243.115234" xlink:href="#DejaVuSans-110"/>
      <use x="306.494141" xlink:href="#DejaVuSans-100"/>
      <use x="369.970703" xlink:href="#DejaVuSans-112"/>
      <use x="433.447266" xlink:href="#DejaVuSans-111"/>
      <use x="494.628906" xlink:href="#DejaVuSans-119"/>
      <use x="576.416016" xlink:href="#DejaVuSans-101"/>
      <use x="637.939453" xlink:href="#DejaVuSans-114"/>
      <use x="679.052734" xlink:href="#DejaVuSans-102"/>
      <use x="714.257812" xlink:href="#DejaVuSans-97"/>
      <use x="775.537109" xlink:href="#DejaVuSans-99"/>
      <use x="830.517578" xlink:href="#DejaVuSans-116"/>
      <use x="869.726562" xlink:href="#DejaVuSans-111"/>
      <use x="930.908203" xlink:href="#DejaVuSans-114"/>
      <use x="972.021484" xlink:href="#DejaVuSans-121"/>
      <use x="1031.201172" xlink:href="#DejaVuSans-95"/>
      <use x="1081.201172" xlink:href="#DejaVuSans-79"/>
      <use x="1159.912109" xlink:href="#DejaVuSans-112"/>
      <use x="1223.388672" xlink:href="#DejaVuSans-101"/>
      <use x="1284.912109" xlink:href="#DejaVuSans-110"/>
      <use x="1348.291016" xlink:href="#DejaVuSans-68"/>
      <use x="1425.292969" xlink:href="#DejaVuSans-83"/>
      <use x="1488.769531" xlink:href="#DejaVuSans-83"/>
      <use x="1552.246094" xlink:href="#DejaVuSans-95"/>
      <use x="1602.246094" xlink:href="#DejaVuSans-80"/>
      <use x="1662.548828" xlink:href="#DejaVuSans-104"/>
      <use x="1725.927734" xlink:href="#DejaVuSans-97"/>
      <use x="1787.207031" xlink:href="#DejaVuSans-115"/>
      <use x="1839.306641" xlink:href="#DejaVuSans-101"/>
      <use x="1900.830078" xlink:href="#DejaVuSans-95"/>
      <use x="1950.830078" xlink:href="#DejaVuSans-67"/>
     </g>
    </g>
   </g>
  </g>
 </g>
 <defs>
  <clipPath id="p63318b16e8">
   <rect height="217.44" width="334.8" x="54" y="34.56"/>
  </clipPath>
 </defs>
</svg>
