<?xml version="1.0" encoding="utf-8" standalone="no"?>
<!DOCTYPE svg PUBLIC "-//W3C//DTD SVG 1.1//EN"
  "http://www.w3.org/Graphics/SVG/1.1/DTD/svg11.dtd">
<!-- Created with matplotlib (https://matplotlib.org/) -->
<svg height="288pt" version="1.1" viewBox="0 0 432 288" width="432pt" xmlns="http://www.w3.org/2000/svg" xmlns:xlink="http://www.w3.org/1999/xlink">
 <defs>
  <style type="text/css">
*{stroke-linecap:butt;stroke-linejoin:round;}
  </style>
 </defs>
 <g id="figure_1">
  <g id="patch_1">
   <path d="M 0 288 
L 432 288 
L 432 0 
L 0 0 
z
" style="fill:#ffffff;"/>
  </g>
  <g id="axes_1">
   <g id="patch_2">
    <path d="M 54 252 
L 388.8 252 
L 388.8 34.56 
L 54 34.56 
z
" style="fill:#ffffff;"/>
   </g>
   <g id="matplotlib.axis_1">
    <g id="xtick_1">
     <g id="line2d_1">
      <defs>
       <path d="M 0 0 
L 0 3.5 
" id="m83e727f707" style="stroke:#000000;stroke-width:0.8;"/>
      </defs>
      <g>
       <use style="stroke:#000000;stroke-width:0.8;" x="69.218182" xlink:href="#m83e727f707" y="252"/>
      </g>
     </g>
    </g>
    <g id="xtick_2">
     <g id="line2d_2">
      <g>
       <use style="stroke:#000000;stroke-width:0.8;" x="136.406623" xlink:href="#m83e727f707" y="252"/>
      </g>
     </g>
    </g>
    <g id="xtick_3">
     <g id="line2d_3">
      <g>
       <use style="stroke:#000000;stroke-width:0.8;" x="203.595063" xlink:href="#m83e727f707" y="252"/>
      </g>
     </g>
    </g>
    <g id="xtick_4">
     <g id="line2d_4">
      <g>
       <use style="stroke:#000000;stroke-width:0.8;" x="270.783504" xlink:href="#m83e727f707" y="252"/>
      </g>
     </g>
    </g>
    <g id="xtick_5">
     <g id="line2d_5">
      <g>
       <use style="stroke:#000000;stroke-width:0.8;" x="337.971945" xlink:href="#m83e727f707" y="252"/>
      </g>
     </g>
    </g>
    <g id="text_1">
     <!-- Bus -->
     <defs>
      <path d="M 19.671875 34.8125 
L 19.671875 8.109375 
L 35.5 8.109375 
Q 43.453125 8.109375 47.28125 11.40625 
Q 51.125 14.703125 51.125 21.484375 
Q 51.125 28.328125 47.28125 31.5625 
Q 43.453125 34.8125 35.5 34.8125 
z
M 19.671875 64.796875 
L 19.671875 42.828125 
L 34.28125 42.828125 
Q 41.5 42.828125 45.03125 45.53125 
Q 48.578125 48.25 48.578125 53.8125 
Q 48.578125 59.328125 45.03125 62.0625 
Q 41.5 64.796875 34.28125 64.796875 
z
M 9.8125 72.90625 
L 35.015625 72.90625 
Q 46.296875 72.90625 52.390625 68.21875 
Q 58.5 63.53125 58.5 54.890625 
Q 58.5 48.1875 55.375 44.234375 
Q 52.25 40.28125 46.1875 39.3125 
Q 53.46875 37.75 57.5 32.78125 
Q 61.53125 27.828125 61.53125 20.40625 
Q 61.53125 10.640625 54.890625 5.3125 
Q 48.25 0 35.984375 0 
L 9.8125 0 
z
" id="DejaVuSans-66"/>
      <path d="M 8.5 21.578125 
L 8.5 54.6875 
L 17.484375 54.6875 
L 17.484375 21.921875 
Q 17.484375 14.15625 20.5 10.265625 
Q 23.53125 6.390625 29.59375 6.390625 
Q 36.859375 6.390625 41.078125 11.03125 
Q 45.3125 15.671875 45.3125 23.6875 
L 45.3125 54.6875 
L 54.296875 54.6875 
L 54.296875 0 
L 45.3125 0 
L 45.3125 8.40625 
Q 42.046875 3.421875 37.71875 1 
Q 33.40625 -1.421875 27.6875 -1.421875 
Q 18.265625 -1.421875 13.375 4.4375 
Q 8.5 10.296875 8.5 21.578125 
z
M 31.109375 56 
z
" id="DejaVuSans-117"/>
      <path d="M 44.28125 53.078125 
L 44.28125 44.578125 
Q 40.484375 46.53125 36.375 47.5 
Q 32.28125 48.484375 27.875 48.484375 
Q 21.1875 48.484375 17.84375 46.4375 
Q 14.5 44.390625 14.5 40.28125 
Q 14.5 37.15625 16.890625 35.375 
Q 19.28125 33.59375 26.515625 31.984375 
L 29.59375 31.296875 
Q 39.15625 29.25 43.1875 25.515625 
Q 47.21875 21.78125 47.21875 15.09375 
Q 47.21875 7.46875 41.1875 3.015625 
Q 35.15625 -1.421875 24.609375 -1.421875 
Q 20.21875 -1.421875 15.453125 -0.5625 
Q 10.6875 0.296875 5.421875 2 
L 5.421875 11.28125 
Q 10.40625 8.6875 15.234375 7.390625 
Q 20.0625 6.109375 24.8125 6.109375 
Q 31.15625 6.109375 34.5625 8.28125 
Q 37.984375 10.453125 37.984375 14.40625 
Q 37.984375 18.0625 35.515625 20.015625 
Q 33.0625 21.96875 24.703125 23.78125 
L 21.578125 24.515625 
Q 13.234375 26.265625 9.515625 29.90625 
Q 5.8125 33.546875 5.8125 39.890625 
Q 5.8125 47.609375 11.28125 51.796875 
Q 16.75 56 26.8125 56 
Q 31.78125 56 36.171875 55.265625 
Q 40.578125 54.546875 44.28125 53.078125 
z
" id="DejaVuSans-115"/>
     </defs>
     <g transform="translate(212.196094 270.598437)scale(0.1 -0.1)">
      <use xlink:href="#DejaVuSans-66"/>
      <use x="68.603516" xlink:href="#DejaVuSans-117"/>
      <use x="131.982422" xlink:href="#DejaVuSans-115"/>
     </g>
    </g>
   </g>
   <g id="matplotlib.axis_2">
    <g id="ytick_1">
     <g id="line2d_6">
      <defs>
       <path d="M 0 0 
L -3.5 0 
" id="mc427da1b54" style="stroke:#000000;stroke-width:0.8;"/>
      </defs>
      <g>
       <use style="stroke:#000000;stroke-width:0.8;" x="54" xlink:href="#mc427da1b54" y="246.077684"/>
      </g>
     </g>
     <g id="text_2">
      <!-- 0.00000 -->
      <defs>
       <path d="M 31.78125 66.40625 
Q 24.171875 66.40625 20.328125 58.90625 
Q 16.5 51.421875 16.5 36.375 
Q 16.5 21.390625 20.328125 13.890625 
Q 24.171875 6.390625 31.78125 6.390625 
Q 39.453125 6.390625 43.28125 13.890625 
Q 47.125 21.390625 47.125 36.375 
Q 47.125 51.421875 43.28125 58.90625 
Q 39.453125 66.40625 31.78125 66.40625 
z
M 31.78125 74.21875 
Q 44.046875 74.21875 50.515625 64.515625 
Q 56.984375 54.828125 56.984375 36.375 
Q 56.984375 17.96875 50.515625 8.265625 
Q 44.046875 -1.421875 31.78125 -1.421875 
Q 19.53125 -1.421875 13.0625 8.265625 
Q 6.59375 17.96875 6.59375 36.375 
Q 6.59375 54.828125 13.0625 64.515625 
Q 19.53125 74.21875 31.78125 74.21875 
z
" id="DejaVuSans-48"/>
       <path d="M 10.6875 12.40625 
L 21 12.40625 
L 21 0 
L 10.6875 0 
z
" id="DejaVuSans-46"/>
      </defs>
      <g transform="translate(5.646875 249.876903)scale(0.1 -0.1)">
       <use xlink:href="#DejaVuSans-48"/>
       <use x="63.623047" xlink:href="#DejaVuSans-46"/>
       <use x="95.410156" xlink:href="#DejaVuSans-48"/>
       <use x="159.033203" xlink:href="#DejaVuSans-48"/>
       <use x="222.65625" xlink:href="#DejaVuSans-48"/>
       <use x="286.279297" xlink:href="#DejaVuSans-48"/>
       <use x="349.902344" xlink:href="#DejaVuSans-48"/>
      </g>
     </g>
    </g>
    <g id="ytick_2">
     <g id="line2d_7">
      <g>
       <use style="stroke:#000000;stroke-width:0.8;" x="54" xlink:href="#mc427da1b54" y="217.674693"/>
      </g>
     </g>
     <g id="text_3">
      <!-- 0.00001 -->
      <defs>
       <path d="M 12.40625 8.296875 
L 28.515625 8.296875 
L 28.515625 63.921875 
L 10.984375 60.40625 
L 10.984375 69.390625 
L 28.421875 72.90625 
L 38.28125 72.90625 
L 38.28125 8.296875 
L 54.390625 8.296875 
L 54.390625 0 
L 12.40625 0 
z
" id="DejaVuSans-49"/>
      </defs>
      <g transform="translate(5.646875 221.473912)scale(0.1 -0.1)">
       <use xlink:href="#DejaVuSans-48"/>
       <use x="63.623047" xlink:href="#DejaVuSans-46"/>
       <use x="95.410156" xlink:href="#DejaVuSans-48"/>
       <use x="159.033203" xlink:href="#DejaVuSans-48"/>
       <use x="222.65625" xlink:href="#DejaVuSans-48"/>
       <use x="286.279297" xlink:href="#DejaVuSans-48"/>
       <use x="349.902344" xlink:href="#DejaVuSans-49"/>
      </g>
     </g>
    </g>
    <g id="ytick_3">
     <g id="line2d_8">
      <g>
       <use style="stroke:#000000;stroke-width:0.8;" x="54" xlink:href="#mc427da1b54" y="189.271702"/>
      </g>
     </g>
     <g id="text_4">
      <!-- 0.00002 -->
      <defs>
       <path d="M 19.1875 8.296875 
L 53.609375 8.296875 
L 53.609375 0 
L 7.328125 0 
L 7.328125 8.296875 
Q 12.9375 14.109375 22.625 23.890625 
Q 32.328125 33.6875 34.8125 36.53125 
Q 39.546875 41.84375 41.421875 45.53125 
Q 43.3125 49.21875 43.3125 52.78125 
Q 43.3125 58.59375 39.234375 62.25 
Q 35.15625 65.921875 28.609375 65.921875 
Q 23.96875 65.921875 18.8125 64.3125 
Q 13.671875 62.703125 7.8125 59.421875 
L 7.8125 69.390625 
Q 13.765625 71.78125 18.9375 73 
Q 24.125 74.21875 28.421875 74.21875 
Q 39.75 74.21875 46.484375 68.546875 
Q 53.21875 62.890625 53.21875 53.421875 
Q 53.21875 48.921875 51.53125 44.890625 
Q 49.859375 40.875 45.40625 35.40625 
Q 44.1875 33.984375 37.640625 27.21875 
Q 31.109375 20.453125 19.1875 8.296875 
z
" id="DejaVuSans-50"/>
      </defs>
      <g transform="translate(5.646875 193.070921)scale(0.1 -0.1)">
       <use xlink:href="#DejaVuSans-48"/>
       <use x="63.623047" xlink:href="#DejaVuSans-46"/>
       <use x="95.410156" xlink:href="#DejaVuSans-48"/>
       <use x="159.033203" xlink:href="#DejaVuSans-48"/>
       <use x="222.65625" xlink:href="#DejaVuSans-48"/>
       <use x="286.279297" xlink:href="#DejaVuSans-48"/>
       <use x="349.902344" xlink:href="#DejaVuSans-50"/>
      </g>
     </g>
    </g>
    <g id="ytick_4">
     <g id="line2d_9">
      <g>
       <use style="stroke:#000000;stroke-width:0.8;" x="54" xlink:href="#mc427da1b54" y="160.868711"/>
      </g>
     </g>
     <g id="text_5">
      <!-- 0.00003 -->
      <defs>
       <path d="M 40.578125 39.3125 
Q 47.65625 37.796875 51.625 33 
Q 55.609375 28.21875 55.609375 21.1875 
Q 55.609375 10.40625 48.1875 4.484375 
Q 40.765625 -1.421875 27.09375 -1.421875 
Q 22.515625 -1.421875 17.65625 -0.515625 
Q 12.796875 0.390625 7.625 2.203125 
L 7.625 11.71875 
Q 11.71875 9.328125 16.59375 8.109375 
Q 21.484375 6.890625 26.8125 6.890625 
Q 36.078125 6.890625 40.9375 10.546875 
Q 45.796875 14.203125 45.796875 21.1875 
Q 45.796875 27.640625 41.28125 31.265625 
Q 36.765625 34.90625 28.71875 34.90625 
L 20.21875 34.90625 
L 20.21875 43.015625 
L 29.109375 43.015625 
Q 36.375 43.015625 40.234375 45.921875 
Q 44.09375 48.828125 44.09375 54.296875 
Q 44.09375 59.90625 40.109375 62.90625 
Q 36.140625 65.921875 28.71875 65.921875 
Q 24.65625 65.921875 20.015625 65.03125 
Q 15.375 64.15625 9.8125 62.3125 
L 9.8125 71.09375 
Q 15.4375 72.65625 20.34375 73.4375 
Q 25.25 74.21875 29.59375 74.21875 
Q 40.828125 74.21875 47.359375 69.109375 
Q 53.90625 64.015625 53.90625 55.328125 
Q 53.90625 49.265625 50.4375 45.09375 
Q 46.96875 40.921875 40.578125 39.3125 
z
" id="DejaVuSans-51"/>
      </defs>
      <g transform="translate(5.646875 164.66793)scale(0.1 -0.1)">
       <use xlink:href="#DejaVuSans-48"/>
       <use x="63.623047" xlink:href="#DejaVuSans-46"/>
       <use x="95.410156" xlink:href="#DejaVuSans-48"/>
       <use x="159.033203" xlink:href="#DejaVuSans-48"/>
       <use x="222.65625" xlink:href="#DejaVuSans-48"/>
       <use x="286.279297" xlink:href="#DejaVuSans-48"/>
       <use x="349.902344" xlink:href="#DejaVuSans-51"/>
      </g>
     </g>
    </g>
    <g id="ytick_5">
     <g id="line2d_10">
      <g>
       <use style="stroke:#000000;stroke-width:0.8;" x="54" xlink:href="#mc427da1b54" y="132.465721"/>
      </g>
     </g>
     <g id="text_6">
      <!-- 0.00004 -->
      <defs>
       <path d="M 37.796875 64.3125 
L 12.890625 25.390625 
L 37.796875 25.390625 
z
M 35.203125 72.90625 
L 47.609375 72.90625 
L 47.609375 25.390625 
L 58.015625 25.390625 
L 58.015625 17.1875 
L 47.609375 17.1875 
L 47.609375 0 
L 37.796875 0 
L 37.796875 17.1875 
L 4.890625 17.1875 
L 4.890625 26.703125 
z
" id="DejaVuSans-52"/>
      </defs>
      <g transform="translate(5.646875 136.264939)scale(0.1 -0.1)">
       <use xlink:href="#DejaVuSans-48"/>
       <use x="63.623047" xlink:href="#DejaVuSans-46"/>
       <use x="95.410156" xlink:href="#DejaVuSans-48"/>
       <use x="159.033203" xlink:href="#DejaVuSans-48"/>
       <use x="222.65625" xlink:href="#DejaVuSans-48"/>
       <use x="286.279297" xlink:href="#DejaVuSans-48"/>
       <use x="349.902344" xlink:href="#DejaVuSans-52"/>
      </g>
     </g>
    </g>
    <g id="ytick_6">
     <g id="line2d_11">
      <g>
       <use style="stroke:#000000;stroke-width:0.8;" x="54" xlink:href="#mc427da1b54" y="104.06273"/>
      </g>
     </g>
     <g id="text_7">
      <!-- 0.00005 -->
      <defs>
       <path d="M 10.796875 72.90625 
L 49.515625 72.90625 
L 49.515625 64.59375 
L 19.828125 64.59375 
L 19.828125 46.734375 
Q 21.96875 47.46875 24.109375 47.828125 
Q 26.265625 48.1875 28.421875 48.1875 
Q 40.625 48.1875 47.75 41.5 
Q 54.890625 34.8125 54.890625 23.390625 
Q 54.890625 11.625 47.5625 5.09375 
Q 40.234375 -1.421875 26.90625 -1.421875 
Q 22.3125 -1.421875 17.546875 -0.640625 
Q 12.796875 0.140625 7.71875 1.703125 
L 7.71875 11.625 
Q 12.109375 9.234375 16.796875 8.0625 
Q 21.484375 6.890625 26.703125 6.890625 
Q 35.15625 6.890625 40.078125 11.328125 
Q 45.015625 15.765625 45.015625 23.390625 
Q 45.015625 31 40.078125 35.4375 
Q 35.15625 39.890625 26.703125 39.890625 
Q 22.75 39.890625 18.8125 39.015625 
Q 14.890625 38.140625 10.796875 36.28125 
z
" id="DejaVuSans-53"/>
      </defs>
      <g transform="translate(5.646875 107.861948)scale(0.1 -0.1)">
       <use xlink:href="#DejaVuSans-48"/>
       <use x="63.623047" xlink:href="#DejaVuSans-46"/>
       <use x="95.410156" xlink:href="#DejaVuSans-48"/>
       <use x="159.033203" xlink:href="#DejaVuSans-48"/>
       <use x="222.65625" xlink:href="#DejaVuSans-48"/>
       <use x="286.279297" xlink:href="#DejaVuSans-48"/>
       <use x="349.902344" xlink:href="#DejaVuSans-53"/>
      </g>
     </g>
    </g>
    <g id="ytick_7">
     <g id="line2d_12">
      <g>
       <use style="stroke:#000000;stroke-width:0.8;" x="54" xlink:href="#mc427da1b54" y="75.659739"/>
      </g>
     </g>
     <g id="text_8">
      <!-- 0.00006 -->
      <defs>
       <path d="M 33.015625 40.375 
Q 26.375 40.375 22.484375 35.828125 
Q 18.609375 31.296875 18.609375 23.390625 
Q 18.609375 15.53125 22.484375 10.953125 
Q 26.375 6.390625 33.015625 6.390625 
Q 39.65625 6.390625 43.53125 10.953125 
Q 47.40625 15.53125 47.40625 23.390625 
Q 47.40625 31.296875 43.53125 35.828125 
Q 39.65625 40.375 33.015625 40.375 
z
M 52.59375 71.296875 
L 52.59375 62.3125 
Q 48.875 64.0625 45.09375 64.984375 
Q 41.3125 65.921875 37.59375 65.921875 
Q 27.828125 65.921875 22.671875 59.328125 
Q 17.53125 52.734375 16.796875 39.40625 
Q 19.671875 43.65625 24.015625 45.921875 
Q 28.375 48.1875 33.59375 48.1875 
Q 44.578125 48.1875 50.953125 41.515625 
Q 57.328125 34.859375 57.328125 23.390625 
Q 57.328125 12.15625 50.6875 5.359375 
Q 44.046875 -1.421875 33.015625 -1.421875 
Q 20.359375 -1.421875 13.671875 8.265625 
Q 6.984375 17.96875 6.984375 36.375 
Q 6.984375 53.65625 15.1875 63.9375 
Q 23.390625 74.21875 37.203125 74.21875 
Q 40.921875 74.21875 44.703125 73.484375 
Q 48.484375 72.75 52.59375 71.296875 
z
" id="DejaVuSans-54"/>
      </defs>
      <g transform="translate(5.646875 79.458958)scale(0.1 -0.1)">
       <use xlink:href="#DejaVuSans-48"/>
       <use x="63.623047" xlink:href="#DejaVuSans-46"/>
       <use x="95.410156" xlink:href="#DejaVuSans-48"/>
       <use x="159.033203" xlink:href="#DejaVuSans-48"/>
       <use x="222.65625" xlink:href="#DejaVuSans-48"/>
       <use x="286.279297" xlink:href="#DejaVuSans-48"/>
       <use x="349.902344" xlink:href="#DejaVuSans-54"/>
      </g>
     </g>
    </g>
    <g id="ytick_8">
     <g id="line2d_13">
      <g>
       <use style="stroke:#000000;stroke-width:0.8;" x="54" xlink:href="#mc427da1b54" y="47.256748"/>
      </g>
     </g>
     <g id="text_9">
      <!-- 0.00007 -->
      <defs>
       <path d="M 8.203125 72.90625 
L 55.078125 72.90625 
L 55.078125 68.703125 
L 28.609375 0 
L 18.3125 0 
L 43.21875 64.59375 
L 8.203125 64.59375 
z
" id="DejaVuSans-55"/>
      </defs>
      <g transform="translate(5.646875 51.055967)scale(0.1 -0.1)">
       <use xlink:href="#DejaVuSans-48"/>
       <use x="63.623047" xlink:href="#DejaVuSans-46"/>
       <use x="95.410156" xlink:href="#DejaVuSans-48"/>
       <use x="159.033203" xlink:href="#DejaVuSans-48"/>
       <use x="222.65625" xlink:href="#DejaVuSans-48"/>
       <use x="286.279297" xlink:href="#DejaVuSans-48"/>
       <use x="349.902344" xlink:href="#DejaVuSans-55"/>
      </g>
     </g>
    </g>
   </g>
   <g id="line2d_14">
    <path clip-path="url(#p47fce66655)" d="M 69.218182 235.348382 
L 69.554124 46.188688 
L 70.561951 46.253427 
L 71.233835 46.265225 
L 71.569777 46.755499 
L 74.593257 46.997424 
L 74.929199 47.155682 
L 75.265141 46.99812 
L 75.601084 47.166661 
L 75.937026 46.998815 
L 76.272968 47.178966 
L 76.60891 46.999414 
L 76.944852 47.198965 
L 77.280795 47.000108 
L 77.616737 47.23528 
L 77.952679 47.000823 
L 78.288621 47.235543 
L 78.624564 47.697415 
L 78.960506 47.00148 
L 79.296448 47.234726 
L 79.63239 47.236063 
L 79.968332 47.820218 
L 80.304275 47.00313 
L 80.640217 47.232045 
L 80.976159 47.236069 
L 81.312101 47.834687 
L 81.648043 48.166637 
L 81.983986 47.004567 
L 82.319928 47.236061 
L 82.65587 47.835412 
L 82.991812 47.835581 
L 83.327754 48.394331 
L 83.663697 48.166814 
L 83.999639 47.004898 
L 84.335581 47.236029 
L 84.671523 47.8357 
L 85.007465 47.836787 
L 85.343408 48.566032 
L 85.67935 48.166896 
L 86.015292 47.005332 
L 86.351234 47.235898 
L 87.023119 48.590378 
L 87.359061 48.56641 
L 87.695003 48.166983 
L 88.030945 47.006057 
L 88.366887 47.235741 
L 88.70283 47.836175 
L 89.038772 48.700427 
L 89.374714 48.566443 
L 89.710656 48.167056 
L 90.046598 47.006644 
L 90.382541 47.234774 
L 90.718483 47.836277 
L 91.054425 48.723932 
L 91.726309 48.566474 
L 92.062252 48.167122 
L 92.398194 47.007208 
L 92.734136 47.230592 
L 93.070078 47.836432 
L 93.40602 49.001084 
L 93.741963 48.672043 
L 94.413847 48.566535 
L 94.749789 48.167278 
L 95.085731 47.009549 
L 95.421674 47.836982 
L 95.757616 49.097497 
L 96.4295 48.167747 
L 96.765443 47.012238 
L 97.101385 47.838162 
L 97.437327 49.118495 
L 98.109211 48.168606 
L 98.445154 47.013639 
L 98.781096 49.160989 
L 99.45298 48.168799 
L 99.788922 47.014061 
L 100.124865 49.200983 
L 100.796749 47.014166 
L 101.132691 49.224181 
L 101.804576 47.014249 
L 102.140518 49.239471 
L 102.812402 47.014383 
L 103.148344 49.260539 
L 103.820229 47.014598 
L 104.156171 49.26073 
L 104.492113 49.273015 
L 104.828055 48.17122 
L 105.163998 49.260956 
L 105.49994 49.280073 
L 105.835882 48.17139 
L 106.171824 49.261211 
L 106.507766 49.557932 
L 106.843709 48.175529 
L 107.179651 49.261588 
L 107.515593 49.585704 
L 107.851535 48.178878 
L 108.187477 49.262061 
L 108.52342 49.587446 
L 108.859362 49.642848 
L 109.195304 48.179159 
L 109.531246 49.262391 
L 109.867188 49.589496 
L 110.203131 49.588158 
L 110.539073 49.745558 
L 110.875015 48.179342 
L 111.210957 49.262843 
L 111.546899 49.591144 
L 111.882842 49.591462 
L 112.218784 49.791592 
L 112.554726 48.179479 
L 112.890668 49.263317 
L 113.22661 49.592218 
L 113.898495 49.601867 
L 114.234437 49.805242 
L 114.570379 48.179841 
L 114.906321 49.263751 
L 115.242264 49.593742 
L 115.914148 49.609517 
L 116.25009 49.820599 
L 116.586033 48.180063 
L 116.921975 49.264442 
L 117.257917 49.595379 
L 117.929801 49.614581 
L 118.265744 49.834994 
L 118.601686 48.180093 
L 118.937628 49.267617 
L 119.27357 49.596691 
L 120.281397 49.640989 
L 120.617339 49.851733 
L 120.953281 48.180101 
L 121.289223 49.268285 
L 121.625166 49.598008 
L 122.632992 49.642528 
L 122.968934 49.856533 
L 123.304877 48.180109 
L 123.640819 49.276781 
L 123.976761 49.26892 
L 124.312703 49.599078 
L 125.32053 49.643873 
L 125.656472 49.883712 
L 125.992414 48.180116 
L 126.328356 49.277903 
L 126.664299 49.269645 
L 127.000241 49.599857 
L 128.34401 49.644405 
L 128.679952 49.89901 
L 129.015894 49.279222 
L 129.687778 49.275872 
L 130.023721 49.600532 
L 131.367489 49.645498 
L 131.703432 49.910328 
L 132.039374 49.270787 
L 132.375316 49.29946 
L 132.711258 49.600995 
L 134.390969 49.648138 
L 134.726911 49.920468 
L 135.062854 49.272244 
L 135.734738 49.301483 
L 136.07068 49.601427 
L 137.750391 49.649605 
L 138.086334 49.933021 
L 138.422276 49.265849 
L 139.430102 49.301734 
L 139.766045 49.602101 
L 141.109813 49.650573 
L 141.445756 49.956106 
L 141.781698 49.242605 
L 142.453582 49.301908 
L 142.789524 49.602606 
L 144.133293 49.652325 
L 144.469235 49.976163 
L 144.805178 49.231587 
L 145.477062 49.302025 
L 145.813004 49.603685 
L 146.820831 49.653141 
L 147.156773 49.989759 
L 147.492715 49.289611 
L 148.1646 49.302169 
L 148.500542 49.603647 
L 149.508368 49.653681 
L 149.844311 49.99866 
L 150.180253 49.291021 
L 150.516195 49.302298 
L 150.852137 49.603589 
L 151.859964 49.659404 
L 152.195906 50.017748 
L 152.531848 49.292642 
L 153.203733 49.302434 
L 153.539675 49.603519 
L 154.547502 49.660958 
L 154.883444 50.027756 
L 155.219386 50.0304 
L 155.555328 49.302705 
L 155.89127 49.603424 
L 156.899097 49.661276 
L 157.235039 50.029002 
L 157.570981 50.077677 
L 157.906924 49.302928 
L 158.242866 49.603193 
L 159.586635 49.661465 
L 159.922577 50.029512 
L 160.594461 50.093308 
L 160.930403 49.602916 
L 162.274172 49.661656 
L 162.610114 50.030043 
L 163.281999 50.149767 
L 163.617941 49.601723 
L 164.625768 49.661801 
L 164.96171 50.030746 
L 165.969536 50.161114 
L 166.305479 49.594653 
L 167.649247 49.661921 
L 167.98519 50.031269 
L 168.993016 50.208472 
L 169.328958 49.6664 
L 170.000843 49.662019 
L 170.336785 50.031596 
L 171.344612 50.218882 
L 171.680554 49.666728 
L 172.352438 49.662419 
L 172.68838 50.031903 
L 173.696207 50.222326 
L 174.032149 49.667072 
L 174.704034 49.663376 
L 175.039976 50.032118 
L 176.383745 50.224117 
L 176.719687 49.667247 
L 177.055629 49.665904 
L 177.391571 50.032249 
L 178.73534 50.225643 
L 179.071282 49.666165 
L 179.407225 50.032255 
L 181.086936 50.227371 
L 181.422878 50.031968 
L 183.102589 50.322162 
L 184.110415 50.092948 
L 185.454184 50.327129 
L 186.462011 50.149713 
L 186.797953 50.161814 
L 187.133895 50.345712 
L 187.80578 50.230875 
L 188.141722 50.031485 
L 189.149548 50.334809 
L 189.821433 50.031371 
L 190.829259 50.337421 
L 191.501144 50.031301 
L 192.50897 50.341353 
L 193.180855 50.03118 
L 194.188682 50.345195 
L 194.860566 50.030949 
L 195.868393 50.349417 
L 197.212161 50.15621 
L 197.548104 50.346871 
L 198.55593 50.270061 
L 198.891872 50.25449 
L 199.227815 50.025038 
L 200.235641 50.355898 
L 201.243468 50.283467 
L 201.915352 50.360852 
L 203.595063 50.347374 
L 204.60289 50.357983 
L 205.274774 50.286256 
L 205.946659 50.367827 
L 207.62637 50.286765 
L 207.962312 50.371062 
L 208.298254 50.339179 
L 208.634196 50.444246 
L 209.642023 50.287556 
L 209.977965 50.37486 
L 210.313907 50.340092 
L 210.649849 50.45476 
L 211.321734 50.280185 
L 215.35304 50.458821 
L 216.024925 50.280559 
L 218.040578 50.358764 
L 218.712462 50.300774 
L 219.048405 50.443685 
L 221.064058 50.301807 
L 221.4 50.448677 
L 222.743769 50.358865 
L 223.415653 50.302828 
L 223.751595 50.464109 
L 225.767249 50.303656 
L 226.103191 50.479662 
L 228.454786 50.307139 
L 228.790728 50.484972 
L 229.462613 50.456283 
L 229.798555 50.353968 
L 230.134497 50.466061 
L 230.806382 50.307304 
L 231.142324 50.514123 
L 233.493919 50.307416 
L 233.829862 50.554723 
L 235.509573 50.354477 
L 235.845515 50.470485 
L 236.517399 50.307517 
L 236.853341 50.57878 
L 239.540879 50.307584 
L 239.876821 50.582799 
L 240.212763 50.578842 
L 240.548706 50.441696 
L 240.884648 50.4572 
L 241.22059 50.354715 
L 241.556532 50.541317 
L 241.892474 50.548233 
L 242.228417 50.359153 
L 242.564359 50.601069 
L 243.908128 50.457248 
L 244.24407 50.354797 
L 244.580012 50.542529 
L 244.915954 50.553321 
L 245.251896 50.359174 
L 245.587839 50.614271 
L 246.259723 50.552299 
L 246.595665 50.44114 
L 246.931607 50.457247 
L 247.26755 50.355264 
L 247.603492 50.554075 
L 247.939434 50.35919 
L 248.275376 50.631912 
L 248.947261 50.542538 
L 249.283203 50.440827 
L 249.619145 50.457123 
L 250.29103 50.355645 
L 250.626972 50.554647 
L 250.962914 50.359203 
L 251.298856 50.644158 
L 251.970741 50.538306 
L 252.978567 50.357111 
L 253.314509 50.555177 
L 253.650452 50.359217 
L 253.986394 50.677743 
L 255.666105 50.454984 
L 256.002047 50.35789 
L 256.337989 50.555739 
L 256.673931 50.359223 
L 257.009874 50.701582 
L 257.345816 50.677983 
L 258.0177 50.51701 
L 258.353642 50.427534 
L 259.025527 50.556232 
L 259.361469 50.359229 
L 259.697411 50.703838 
L 260.369296 50.719786 
L 261.04118 50.454607 
L 262.049007 50.70385 
L 262.384949 50.721982 
L 263.056833 50.454372 
L 264.06466 50.704688 
L 264.736544 50.723524 
L 265.408429 50.454056 
L 265.744371 50.590304 
L 266.080313 50.563084 
L 266.416255 50.717453 
L 267.424082 50.724948 
L 268.095966 50.453686 
L 268.431908 50.592031 
L 268.767851 50.580983 
L 269.103793 50.729219 
L 270.11162 50.737616 
L 270.783504 50.453186 
L 271.119446 50.592869 
L 271.791331 50.603216 
L 272.127273 50.738428 
L 274.142926 50.743179 
L 274.478868 50.518628 
L 274.81481 50.452837 
L 275.150753 50.593547 
L 275.822637 50.624282 
L 276.158579 50.742194 
L 277.83829 50.745635 
L 278.174232 50.451189 
L 278.846117 50.628627 
L 279.182059 50.628224 
L 279.518001 50.746052 
L 280.189886 50.747168 
L 280.525828 50.443612 
L 281.197712 50.629606 
L 281.533654 50.629116 
L 281.869597 50.746811 
L 283.549308 50.629552 
L 283.88525 50.748085 
L 285.564961 50.630022 
L 286.236845 50.754321 
L 286.572787 50.599425 
L 287.916556 50.754589 
L 288.252498 50.600286 
L 289.93221 50.755095 
L 290.268152 50.601026 
L 291.947863 50.755612 
L 292.283805 50.602213 
L 293.963516 50.757131 
L 294.299458 50.603318 
L 296.315111 50.757509 
L 296.651054 50.603812 
L 298.330765 50.75668 
L 298.666707 50.604323 
L 299.674533 50.688095 
L 300.010476 50.604783 
L 301.354244 50.747075 
L 301.690187 50.605302 
L 303.369898 50.757328 
L 303.70584 50.60607 
L 305.385551 50.777783 
L 305.721493 50.608011 
L 306.393377 50.716379 
L 306.72932 50.821636 
L 307.065262 50.777951 
L 307.401204 50.610382 
L 308.073089 50.716562 
L 308.409031 50.889174 
L 309.7528 50.593972 
L 310.088742 50.716727 
L 310.424684 50.958193 
L 311.432511 50.610734 
L 311.768453 50.589239 
L 312.104395 50.716856 
L 312.440337 50.972625 
L 312.776279 50.988472 
L 313.784106 50.610861 
L 314.120048 50.584728 
L 314.45599 50.716981 
L 314.791933 50.991842 
L 315.127875 50.992261 
L 315.463817 50.822134 
L 315.799759 50.778469 
L 316.135701 50.61098 
L 316.471644 50.582161 
L 316.807586 50.717065 
L 317.143528 51.013884 
L 317.47947 50.994108 
L 317.815412 50.822034 
L 318.151355 50.778615 
L 318.487297 50.611074 
L 318.823239 50.580022 
L 319.159181 50.717145 
L 319.495123 51.031214 
L 320.50295 50.821879 
L 320.838892 50.778775 
L 321.174834 50.611149 
L 321.510777 50.578124 
L 321.846719 50.717211 
L 322.182661 51.037486 
L 323.190488 50.994521 
L 323.52643 50.821692 
L 323.862372 50.778886 
L 324.198314 50.611232 
L 324.534256 50.575809 
L 324.870199 50.717293 
L 325.206141 51.045946 
L 325.878025 50.994642 
L 326.213967 50.821387 
L 326.54991 50.778983 
L 326.885852 50.611309 
L 327.221794 50.573612 
L 327.557736 50.717614 
L 327.893679 51.066293 
L 328.901505 50.994818 
L 329.237447 50.820899 
L 329.57339 50.779039 
L 329.909332 50.611559 
L 330.245274 50.57008 
L 330.581216 50.717712 
L 330.917158 51.082408 
L 331.924985 50.995027 
L 332.260927 50.820313 
L 332.596869 50.779099 
L 333.268754 50.562698 
L 333.604696 51.094707 
L 334.27658 50.995154 
L 334.612523 50.819875 
L 334.948465 50.779148 
L 335.284407 50.561451 
L 335.620349 50.556535 
L 335.956291 51.105556 
L 336.628176 50.995316 
L 336.964118 50.819382 
L 337.30006 50.779189 
L 337.636002 50.560298 
L 337.971945 50.545957 
L 338.307887 51.105283 
L 338.979771 51.057437 
L 339.315713 50.996116 
L 339.651656 50.819124 
L 339.987598 50.779233 
L 340.32354 50.55929 
L 340.659482 50.536306 
L 340.995424 51.104964 
L 341.667309 51.116242 
L 342.339193 50.997162 
L 342.675135 50.818675 
L 343.011078 50.779344 
L 343.34702 50.558464 
L 343.682962 50.530497 
L 344.018904 51.1046 
L 344.690789 51.135694 
L 345.026731 51.057557 
L 345.362673 50.81822 
L 345.698615 50.779431 
L 346.034557 50.557581 
L 346.3705 51.104193 
L 347.042384 51.151601 
L 347.378326 51.057823 
L 347.714269 50.817521 
L 348.050211 50.779475 
L 348.386153 50.556777 
L 348.722095 51.103739 
L 349.39398 51.168146 
L 349.729922 51.057933 
L 350.401806 50.556173 
L 350.737748 51.103242 
L 351.409633 51.181378 
L 352.081517 50.555441 
L 352.417459 51.102699 
L 352.753402 51.211433 
L 353.425286 51.195239 
L 354.09717 50.554291 
L 354.433113 51.102412 
L 354.769055 51.213682 
L 355.440939 51.199478 
L 356.112824 50.552336 
L 356.448766 51.095474 
L 356.784708 51.219546 
L 357.456592 51.203956 
L 358.128477 50.544903 
L 358.464419 50.528725 
L 358.800361 51.090642 
L 359.136303 51.225879 
L 359.808188 51.20907 
L 360.14413 50.803263 
L 360.816014 51.226628 
L 361.487899 51.210707 
L 361.823841 50.802929 
L 362.495725 51.227189 
L 363.503552 51.21143 
L 363.839494 50.802589 
L 364.511379 51.227624 
L 365.519205 51.211732 
L 365.855148 50.802235 
L 366.527032 51.228159 
L 366.862974 51.229698 
L 367.198916 50.801871 
L 367.534859 51.068682 
L 367.870801 51.063333 
L 368.206743 51.228674 
L 368.542685 50.795077 
L 368.878627 51.066788 
L 369.21457 51.057493 
L 369.550512 51.230056 
L 369.886454 50.779965 
L 370.222396 50.784926 
L 370.558338 51.06637 
L 370.894281 51.046939 
L 371.230223 51.231431 
L 371.566165 50.769088 
L 371.902107 51.065979 
L 373.581818 51.046011 
L 373.581818 51.046011 
" style="fill:none;stroke:#ff0000;stroke-linecap:square;stroke-width:1.5;"/>
   </g>
   <g id="line2d_15">
    <path clip-path="url(#p47fce66655)" d="M 69.218182 239.309703 
L 69.554124 44.443636 
L 70.561951 44.511214 
L 71.233835 44.523533 
L 71.569777 45.035477 
L 74.593257 45.288136 
L 74.929199 45.453858 
L 75.265141 45.288832 
L 75.601084 45.46535 
L 75.937026 45.289527 
L 76.272968 45.478232 
L 76.60891 45.290127 
L 76.944852 45.499169 
L 77.280795 45.290821 
L 77.616737 45.537192 
L 77.952679 45.291535 
L 78.288621 45.551654 
L 78.624564 46.016978 
L 78.960506 45.292192 
L 79.296448 45.552396 
L 79.63239 45.554468 
L 79.968332 46.144479 
L 80.304275 45.293843 
L 80.640217 45.553282 
L 80.976159 45.554551 
L 81.648043 46.53767 
L 81.983986 45.29528 
L 82.319928 45.554655 
L 82.65587 46.142602 
L 82.991812 46.141019 
L 83.327754 46.797816 
L 83.663697 46.537847 
L 83.999639 45.295611 
L 84.335581 45.554766 
L 84.671523 46.142609 
L 85.007465 46.13651 
L 85.343408 46.99404 
L 85.67935 46.537929 
L 86.015292 45.296045 
L 86.351234 45.554984 
L 86.687176 46.142575 
L 87.023119 47.021922 
L 87.359061 46.994418 
L 87.695003 46.538017 
L 88.030945 45.29677 
L 88.366887 45.555125 
L 88.70283 46.142503 
L 89.038772 47.147985 
L 89.374714 46.994451 
L 89.710656 46.538089 
L 90.046598 45.297357 
L 90.382541 45.555588 
L 90.718483 46.142436 
L 91.054425 47.174023 
L 91.390367 47.154401 
L 91.726309 46.994483 
L 92.062252 46.538156 
L 92.398194 45.297921 
L 92.734136 45.556464 
L 93.070078 46.142258 
L 93.40602 47.48109 
L 93.741963 47.155569 
L 94.077905 47.155489 
L 94.413847 46.994543 
L 94.749789 46.538311 
L 95.085731 45.300262 
L 95.421674 46.141119 
L 95.757616 47.587931 
L 96.4295 46.538781 
L 96.765443 45.302952 
L 97.101385 46.135939 
L 97.437327 47.611204 
L 98.109211 46.53964 
L 98.445154 45.304353 
L 98.781096 47.658314 
L 99.45298 46.539833 
L 99.788922 45.304774 
L 100.124865 47.702659 
L 100.796749 45.304879 
L 101.132691 47.728387 
L 101.804576 45.304962 
L 102.140518 47.745347 
L 102.812402 45.305097 
L 103.148344 47.768721 
L 103.820229 45.305312 
L 104.156171 47.768626 
L 104.492113 47.783769 
L 104.828055 46.542255 
L 105.163998 47.768506 
L 105.49994 47.792285 
L 105.835882 46.542425 
L 106.171824 47.768359 
L 106.507766 48.127691 
L 106.843709 46.546566 
L 107.179651 47.768125 
L 107.515593 48.161227 
L 107.851535 46.549916 
L 108.187477 47.76781 
L 108.52342 48.162611 
L 108.859362 48.238253 
L 109.195304 46.550198 
L 109.531246 47.767575 
L 109.867188 48.164661 
L 110.203131 48.163149 
L 110.539073 48.376816 
L 110.875015 46.55038 
L 111.210957 47.767229 
L 111.546899 48.16631 
L 111.882842 48.165633 
L 112.218784 48.438974 
L 112.554726 46.550517 
L 112.890668 47.76684 
L 113.22661 48.167385 
L 113.898495 48.170858 
L 114.234437 48.457422 
L 114.570379 46.550879 
L 114.906321 47.766459 
L 115.242264 48.168909 
L 115.914148 48.174656 
L 116.25009 48.478194 
L 116.586033 46.551101 
L 116.921975 47.765811 
L 117.257917 48.170546 
L 117.929801 48.177139 
L 118.265744 48.497681 
L 118.601686 46.551132 
L 118.937628 47.762619 
L 119.27357 48.171859 
L 120.281397 48.179059 
L 120.617339 48.520363 
L 120.953281 46.55114 
L 121.289223 47.7619 
L 121.625166 48.173176 
L 122.632992 48.179108 
L 122.968934 48.526873 
L 123.304877 46.551147 
L 123.640819 47.743802 
L 123.976761 47.761493 
L 124.312703 48.174246 
L 125.32053 48.179091 
L 125.656472 48.563765 
L 125.992414 46.551155 
L 126.328356 47.7399 
L 126.664299 47.760835 
L 127.000241 48.175025 
L 128.34401 48.179057 
L 128.679952 48.584549 
L 129.015894 47.730853 
L 129.687778 47.767552 
L 130.023721 48.1757 
L 131.367489 48.178931 
L 131.703432 48.59994 
L 132.039374 47.755511 
L 132.375316 47.793171 
L 132.711258 48.176164 
L 134.390969 48.178466 
L 134.726911 48.613741 
L 135.062854 47.747764 
L 135.734738 47.79535 
L 136.07068 48.176596 
L 137.750391 48.17811 
L 138.086334 48.630843 
L 138.422276 47.7502 
L 139.430102 47.795623 
L 139.766045 48.17727 
L 141.109813 48.177802 
L 141.445756 48.662322 
L 141.781698 47.75586 
L 142.453582 47.795815 
L 142.789524 48.177775 
L 144.133293 48.177099 
L 144.469235 48.689696 
L 144.805178 47.757302 
L 145.477062 47.795946 
L 145.813004 48.201108 
L 146.820831 48.176693 
L 147.156773 48.70827 
L 147.492715 47.700237 
L 148.1646 47.796112 
L 148.500542 48.201233 
L 149.508368 48.176365 
L 149.844311 48.720441 
L 150.180253 47.69389 
L 150.516195 47.796266 
L 150.852137 48.201352 
L 151.859964 48.172163 
L 152.195906 48.746566 
L 152.531848 47.682701 
L 153.203733 47.796441 
L 153.539675 48.20145 
L 154.547502 48.17079 
L 154.883444 48.767975 
L 155.219386 48.763158 
L 155.555328 47.796855 
L 155.89127 48.201542 
L 156.899097 48.170453 
L 157.235039 48.770797 
L 157.570981 48.825209 
L 157.906924 47.797773 
L 158.242866 48.201698 
L 159.586635 48.170367 
L 159.922577 48.772032 
L 160.594461 48.844647 
L 160.930403 48.201823 
L 162.274172 48.170236 
L 162.610114 48.773423 
L 163.281999 48.914907 
L 163.617941 48.20216 
L 164.625768 48.17009 
L 164.96171 48.775453 
L 165.969536 48.927225 
L 166.305479 48.203213 
L 167.649247 48.169914 
L 167.98519 48.77716 
L 168.993016 48.978651 
L 169.328958 48.246119 
L 170.000843 48.169695 
L 170.336785 48.778406 
L 171.344612 48.989959 
L 171.680554 48.246535 
L 172.352438 48.168254 
L 172.68838 48.779858 
L 173.696207 48.993702 
L 174.032149 48.24705 
L 174.704034 48.161426 
L 175.039976 48.781257 
L 176.383745 48.995648 
L 176.719687 48.247726 
L 177.055629 48.245534 
L 177.391571 48.782785 
L 178.063456 48.997384 
L 178.399398 49.06773 
L 178.73534 48.997307 
L 179.071282 48.245956 
L 179.407225 48.783586 
L 180.079109 49.001103 
L 180.750993 49.111387 
L 181.75882 48.840987 
L 182.430704 49.07116 
L 183.102589 49.120216 
L 184.110415 48.841663 
L 184.446358 49.009912 
L 185.118242 49.112184 
L 185.454184 49.127687 
L 186.126069 48.788421 
L 186.462011 49.011127 
L 187.133895 49.112093 
L 187.469837 49.132878 
L 188.141722 48.788662 
L 188.813606 49.112027 
L 189.149548 49.139354 
L 189.821433 48.788815 
L 190.493317 49.11196 
L 190.829259 49.143361 
L 191.501144 48.788881 
L 192.173028 49.111871 
L 192.50897 49.149435 
L 193.180855 48.788961 
L 193.852739 49.111742 
L 194.188682 49.155411 
L 194.860566 48.789064 
L 195.53245 49.111548 
L 195.868393 49.162028 
L 196.876219 48.789398 
L 197.548104 49.111347 
L 197.884046 49.166753 
L 199.227815 48.790144 
L 199.899699 49.111166 
L 200.235641 49.172308 
L 200.907526 49.05113 
L 201.57941 49.110818 
L 201.915352 49.180259 
L 202.923179 49.051807 
L 203.595063 49.109472 
L 203.931005 49.186071 
L 204.938832 49.052231 
L 205.610716 49.100446 
L 205.946659 49.191599 
L 206.282601 49.111804 
L 206.954485 49.124066 
L 207.62637 49.059802 
L 207.962312 49.196931 
L 208.298254 49.112413 
L 208.634196 49.193263 
L 209.642023 49.060593 
L 209.977965 49.203252 
L 210.313907 49.113355 
L 210.649849 49.201729 
L 211.657676 49.068937 
L 211.993618 49.213526 
L 216.360867 49.072486 
L 216.696809 49.293176 
L 218.712462 49.073816 
L 219.048405 49.32515 
L 219.384347 49.293709 
L 219.720289 49.122503 
L 220.056231 49.206649 
L 220.728116 49.055213 
L 221.064058 49.07485 
L 221.4 49.334527 
L 221.735942 49.325311 
L 222.071884 49.123784 
L 222.407827 49.207769 
L 223.079711 49.055833 
L 223.415653 49.075872 
L 223.751595 49.353324 
L 224.42348 49.352193 
L 224.759422 49.125731 
L 225.095364 49.20877 
L 225.767249 49.0767 
L 226.103191 49.372613 
L 227.111017 49.354655 
L 227.44696 49.126978 
L 227.782902 49.209715 
L 228.454786 49.080184 
L 228.790728 49.379292 
L 229.462613 49.355934 
L 229.798555 49.127778 
L 230.134497 49.210772 
L 230.806382 49.080349 
L 231.142324 49.391413 
L 232.150151 49.356757 
L 232.486093 49.128124 
L 232.822035 49.211879 
L 233.493919 49.080461 
L 233.829862 49.407604 
L 235.17363 49.357942 
L 235.509573 49.12832 
L 235.845515 49.214279 
L 236.517399 49.080563 
L 236.853341 49.416764 
L 238.19711 49.35964 
L 238.533052 49.128436 
L 238.868995 49.268264 
L 239.540879 49.080629 
L 239.876821 49.418217 
L 240.884648 49.360773 
L 241.22059 49.128578 
L 241.892474 49.277435 
L 242.228417 49.124825 
L 242.564359 49.420998 
L 243.908128 49.3615 
L 244.24407 49.128669 
L 244.915954 49.282345 
L 245.251896 49.124845 
L 245.587839 49.422798 
L 246.931607 49.362035 
L 247.26755 49.1292 
L 247.603492 49.283073 
L 247.939434 49.124861 
L 248.275376 49.424914 
L 249.619145 49.36363 
L 249.955087 49.130378 
L 250.29103 49.130005 
L 250.626972 49.283624 
L 250.962914 49.124875 
L 251.298856 49.426174 
L 252.642625 49.375541 
L 252.978567 49.131216 
L 253.314509 49.284136 
L 253.650452 49.124888 
L 253.986394 49.429034 
L 255.666105 49.376085 
L 256.002047 49.132237 
L 256.337989 49.284677 
L 256.673931 49.124895 
L 257.009874 49.430624 
L 258.689585 49.376475 
L 259.361469 49.124901 
L 259.697411 49.432175 
L 261.04118 49.376872 
L 261.377122 49.285634 
L 261.713064 49.432517 
L 263.056833 49.377186 
L 263.392775 49.288103 
L 263.728718 49.435971 
L 265.744371 49.312115 
L 266.080313 49.292673 
L 266.416255 49.437912 
L 268.095966 49.377781 
L 268.767851 49.314305 
L 269.439735 49.438854 
L 276.494521 49.428344 
L 278.174232 49.378652 
L 278.846117 49.355697 
L 282.541481 49.41236 
L 282.877423 49.316883 
L 284.557134 49.408314 
L 284.893076 49.317744 
L 286.236845 49.407109 
L 286.572787 49.318772 
L 287.916556 49.406735 
L 288.252498 49.319356 
L 289.93221 49.405613 
L 290.268152 49.319846 
L 291.947863 49.403981 
L 292.283805 49.32061 
L 293.963516 49.396572 
L 294.6354 49.351338 
L 296.315111 49.393158 
L 296.986996 49.349951 
L 298.330765 49.393622 
L 299.002649 49.344986 
L 299.674533 49.406475 
L 300.346418 49.332256 
L 301.354244 49.423232 
L 301.690187 49.322416 
L 302.698013 49.433813 
L 304.041782 49.383018 
L 304.713666 49.434319 
L 306.057435 49.386552 
L 307.065262 49.441129 
L 307.401204 49.324558 
L 308.409031 49.475711 
L 309.080915 49.441278 
L 309.416857 49.324625 
L 310.088742 49.43648 
L 310.760626 49.493175 
L 311.768453 49.438718 
L 316.807586 49.436838 
L 317.143528 49.546194 
L 317.47947 49.455621 
L 318.151355 49.441794 
L 318.487297 49.324677 
L 318.823239 49.449235 
L 319.159181 49.436926 
L 319.495123 49.564311 
L 319.831066 49.44636 
L 320.838892 49.441954 
L 321.174834 49.324653 
L 321.510777 49.451034 
L 321.846719 49.437 
L 322.518603 49.579579 
L 322.854545 49.438171 
L 323.862372 49.442065 
L 324.198314 49.324598 
L 324.534256 49.453058 
L 324.870199 49.437096 
L 325.542083 49.591263 
L 325.878025 49.455282 
L 326.54991 49.442162 
L 326.885852 49.324507 
L 327.221794 49.454826 
L 327.557736 49.437525 
L 328.229621 49.592356 
L 328.565563 49.591503 
L 328.901505 49.455074 
L 329.57339 49.442218 
L 329.909332 49.323956 
L 330.245274 49.457444 
L 330.581216 49.437955 
L 330.917158 49.576065 
L 331.589043 49.591705 
L 331.924985 49.454743 
L 332.596869 49.442278 
L 332.932812 49.318237 
L 333.604696 49.578419 
L 333.940638 49.591894 
L 334.27658 49.454469 
L 334.948465 49.442327 
L 336.964118 49.504498 
L 337.636002 49.464362 
L 338.643829 49.579387 
L 338.979771 49.592164 
L 339.315713 49.450165 
L 339.651656 49.504953 
L 340.32354 49.465004 
L 347.714269 49.507075 
L 348.386153 49.466213 
L 348.722095 49.58609 
L 350.401806 49.466423 
L 350.737748 49.587117 
L 352.081517 49.466635 
L 352.417459 49.588101 
L 354.09717 49.466908 
L 354.433113 49.588559 
L 356.112824 49.467278 
L 356.448766 49.598365 
L 357.12065 49.575524 
L 361.823841 49.520642 
L 362.159783 49.614408 
L 362.831668 49.527685 
L 363.503552 49.578133 
L 363.839494 49.520776 
L 364.175436 49.622393 
L 364.847321 49.522226 
L 365.519205 49.578436 
L 365.855148 49.520894 
L 366.19109 49.624229 
L 366.862974 49.50816 
L 369.886454 49.526162 
L 371.566165 49.527719 
L 372.238049 49.628387 
L 373.581818 49.631363 
L 373.581818 49.631363 
" style="fill:none;stroke:#ffff00;stroke-linecap:square;stroke-width:1.5;"/>
   </g>
   <g id="line2d_16">
    <path clip-path="url(#p47fce66655)" d="M 69.218182 242.116364 
L 69.554124 47.932635 
L 70.226008 48.019816 
L 71.233835 48.044879 
L 71.569777 48.765559 
L 74.593257 49.121646 
L 74.929199 49.359306 
L 75.265141 49.122342 
L 75.601084 49.375748 
L 75.937026 49.123036 
L 76.272968 49.394188 
L 76.60891 49.123636 
L 76.944852 49.424175 
L 77.280795 49.12433 
L 77.616737 49.478662 
L 77.952679 49.125045 
L 78.288621 49.494082 
L 78.624564 50.13068 
L 78.960506 49.125702 
L 79.296448 49.494929 
L 79.63239 49.49705 
L 79.968332 50.304033 
L 80.304275 49.127353 
L 80.640217 49.496057 
L 80.976159 49.497139 
L 81.312101 50.317573 
L 81.648043 50.830888 
L 81.983986 49.12879 
L 82.319928 49.49725 
L 82.65587 50.318264 
L 82.991812 50.318333 
L 83.327754 51.183786 
L 83.663697 50.831065 
L 83.999639 49.129121 
L 84.335581 49.49737 
L 84.671523 50.318536 
L 85.007465 50.319215 
L 85.343408 51.4501 
L 85.67935 50.831147 
L 86.015292 49.129555 
L 86.351234 49.497612 
L 86.687176 50.318782 
L 87.023119 51.488087 
L 87.359061 51.450478 
L 87.695003 50.831235 
L 88.030945 49.13028 
L 88.366887 49.497773 
L 88.70283 50.318977 
L 89.038772 51.659926 
L 89.374714 51.450511 
L 89.710656 50.831308 
L 90.046598 49.130867 
L 90.382541 49.498333 
L 90.718483 50.31907 
L 91.054425 51.693474 
L 91.390367 51.667603 
L 91.726309 51.450543 
L 92.062252 50.831374 
L 92.398194 49.131431 
L 92.734136 49.499548 
L 93.070078 50.319207 
L 93.40602 52.089272 
L 93.741963 51.669127 
L 94.077905 51.668951 
L 94.413847 51.450603 
L 94.749789 50.83153 
L 95.085731 49.133772 
L 95.421674 50.31966 
L 95.757616 52.227043 
L 96.4295 50.831999 
L 96.765443 49.136463 
L 97.101385 50.320481 
L 97.437327 52.257066 
L 98.109211 50.832859 
L 98.445154 49.137864 
L 98.781096 52.317863 
L 99.45298 50.833053 
L 99.788922 49.138285 
L 100.124865 52.375117 
L 100.796749 49.13839 
L 101.132691 52.408347 
L 101.804576 49.138473 
L 102.140518 52.430262 
L 102.812402 49.138608 
L 103.148344 52.460478 
L 103.820229 49.138823 
L 104.156171 52.460343 
L 104.492113 52.480504 
L 104.828055 50.835476 
L 105.163998 52.460173 
L 105.49994 52.491843 
L 105.835882 50.835646 
L 106.171824 52.45997 
L 106.507766 52.938633 
L 106.843709 50.839788 
L 107.179651 52.459649 
L 107.515593 52.983328 
L 107.851535 50.84314 
L 108.187477 52.459223 
L 108.52342 52.984075 
L 108.859362 53.102305 
L 109.195304 50.843421 
L 109.531246 52.458908 
L 109.867188 52.986125 
L 110.203131 52.984302 
L 110.539073 53.316523 
L 110.875015 50.843604 
L 111.210957 52.45845 
L 111.546899 52.987774 
L 111.882842 52.985329 
L 112.218784 53.412703 
L 112.554726 50.843741 
L 112.890668 52.457939 
L 113.22661 52.988849 
L 113.898495 52.983458 
L 114.234437 53.441274 
L 114.570379 50.844103 
L 114.906321 52.457443 
L 115.242264 52.990373 
L 115.914148 52.981977 
L 116.25009 53.473473 
L 116.586033 50.844326 
L 116.921975 52.456605 
L 117.257917 52.992011 
L 117.929801 52.980924 
L 118.265744 53.503706 
L 118.601686 50.844356 
L 118.937628 52.452513 
L 119.27357 52.993324 
L 120.281397 53.006344 
L 120.617339 53.538927 
L 120.953281 50.844364 
L 121.289223 52.451598 
L 121.625166 52.994641 
L 122.632992 53.007823 
L 122.968934 53.549045 
L 123.304877 50.844371 
L 123.640819 52.458953 
L 123.976761 52.448572 
L 124.312703 52.995712 
L 125.32053 53.009112 
L 125.656472 53.606435 
L 125.992414 50.844379 
L 126.328356 52.459859 
L 126.664299 52.444436 
L 127.000241 52.996491 
L 128.34401 53.009622 
L 128.679952 53.638797 
L 129.015894 52.460733 
L 129.687778 52.439108 
L 130.023721 52.997166 
L 131.367489 53.010665 
L 131.703432 53.662781 
L 132.039374 52.446114 
L 132.375316 52.414872 
L 132.711258 52.99763 
L 134.390969 53.01318 
L 134.726911 53.684309 
L 135.062854 52.448335 
L 135.734738 52.413197 
L 136.07068 52.998061 
L 137.750391 53.014573 
L 138.086334 53.71101 
L 138.422276 52.451127 
L 139.430102 52.412925 
L 139.766045 52.998736 
L 141.109813 53.01549 
L 141.445756 53.760201 
L 141.781698 52.457952 
L 142.453582 52.412678 
L 142.789524 52.999241 
L 144.133293 53.017142 
L 144.469235 53.803019 
L 144.805178 52.459896 
L 145.477062 52.412458 
L 145.813004 53.021697 
L 146.484889 52.972875 
L 146.820831 53.017908 
L 147.156773 53.832097 
L 147.492715 52.457191 
L 148.1646 52.412088 
L 148.500542 53.021829 
L 149.172426 52.972426 
L 149.508368 53.018413 
L 149.844311 53.851168 
L 150.180253 52.458276 
L 150.516195 52.411614 
L 150.852137 53.021954 
L 151.524022 52.971907 
L 151.859964 53.023733 
L 152.195906 53.892146 
L 152.531848 52.45936 
L 153.203733 52.410824 
L 153.539675 53.022059 
L 154.211559 52.971046 
L 154.547502 53.025169 
L 154.883444 53.913948 
L 155.219386 53.917572 
L 155.555328 52.407707 
L 155.89127 53.022158 
L 156.563155 52.96742 
L 156.899097 53.02546 
L 157.235039 53.916825 
L 157.570981 54.012751 
L 157.906924 52.391439 
L 158.242866 53.022328 
L 158.91475 52.966483 
L 159.586635 53.025637 
L 159.922577 53.918084 
L 160.594461 54.045171 
L 160.930403 53.022469 
L 161.602288 52.966013 
L 162.274172 53.025815 
L 162.610114 53.919505 
L 163.281999 54.16249 
L 163.617941 53.022865 
L 164.289825 52.965676 
L 164.625768 53.025949 
L 164.96171 53.921581 
L 165.969536 54.177416 
L 166.305479 53.024228 
L 167.313305 52.965615 
L 167.649247 53.026056 
L 167.98519 53.923328 
L 168.321132 54.013272 
L 168.657074 54.22164 
L 168.993016 54.239771 
L 169.328958 52.96259 
L 170.000843 53.026142 
L 170.336785 53.924607 
L 170.672727 54.01215 
L 171.008669 54.342646 
L 171.344612 54.253492 
L 171.680554 52.960696 
L 172.352438 53.026466 
L 172.68838 53.926098 
L 173.024323 54.011866 
L 173.360265 54.351649 
L 173.696207 54.258036 
L 174.032149 52.956776 
L 174.704034 53.027105 
L 175.039976 53.927537 
L 175.375918 54.011605 
L 175.71186 54.354131 
L 176.047803 54.482399 
L 176.383745 54.2604 
L 176.719687 52.944397 
L 177.055629 52.964316 
L 177.391571 53.929113 
L 177.727514 54.011246 
L 178.063456 54.366185 
L 178.399398 54.544838 
L 178.73534 54.262418 
L 179.071282 52.96062 
L 179.407225 53.929942 
L 179.743167 54.010832 
L 180.079109 54.37014 
L 180.750993 54.673396 
L 181.422878 53.933373 
L 181.75882 54.006693 
L 182.094762 54.378193 
L 183.102589 54.696197 
L 183.774473 53.934586 
L 184.110415 53.997195 
L 184.446358 54.379661 
L 184.7823 54.380395 
L 185.118242 54.701026 
L 185.454184 54.715638 
L 186.126069 53.934965 
L 186.462011 54.38118 
L 186.797953 54.380672 
L 187.133895 54.701771 
L 187.469837 54.729248 
L 188.141722 53.935219 
L 188.813606 54.70205 
L 189.149548 54.746363 
L 189.821433 53.935381 
L 190.493317 54.702226 
L 190.829259 54.757036 
L 191.501144 53.935451 
L 192.173028 54.702386 
L 192.50897 54.773346 
L 193.180855 53.935538 
L 193.852739 54.702551 
L 194.188682 54.789527 
L 194.860566 53.935653 
L 195.53245 54.702727 
L 195.868393 54.807594 
L 196.204335 54.336487 
L 196.540277 54.287055 
L 196.876219 53.936038 
L 197.548104 54.702858 
L 197.884046 54.820603 
L 198.219988 54.389614 
L 198.891872 54.292761 
L 199.227815 53.936972 
L 199.899699 54.702939 
L 200.235641 54.836034 
L 200.571583 54.391971 
L 200.907526 54.289628 
L 201.243468 54.321756 
L 201.57941 54.703042 
L 201.915352 54.858313 
L 202.251294 54.398245 
L 202.587237 54.436237 
L 202.923179 54.289577 
L 203.259121 54.323738 
L 203.595063 54.703269 
L 203.931005 54.874748 
L 204.266948 54.398739 
L 204.60289 54.457521 
L 204.938832 54.289492 
L 205.274774 54.324548 
L 205.610716 54.70386 
L 205.946659 54.890523 
L 206.282601 54.398973 
L 206.618543 54.516948 
L 207.62637 54.325057 
L 207.962312 54.905885 
L 208.298254 54.399101 
L 208.634196 54.601278 
L 209.306081 54.288557 
L 209.642023 54.325848 
L 209.977965 54.924267 
L 210.313907 54.399259 
L 210.649849 54.61886 
L 211.321734 54.288311 
L 211.657676 54.334194 
L 211.993618 54.954742 
L 212.329561 54.924423 
L 212.665503 54.399614 
L 213.001445 54.623337 
L 213.673329 54.288026 
L 214.009272 54.336908 
L 214.345214 55.056481 
L 214.681156 54.955268 
L 215.017098 54.399821 
L 215.35304 54.625674 
L 216.024925 54.287694 
L 216.360867 54.337744 
L 216.696809 55.198894 
L 217.032751 55.057224 
L 217.368694 54.399832 
L 217.704636 54.627604 
L 218.37652 54.287256 
L 218.712462 54.339074 
L 219.048405 55.300017 
L 219.384347 55.199427 
L 219.720289 54.399742 
L 220.056231 54.629163 
L 220.728116 54.285548 
L 221.064058 54.340108 
L 221.4 55.330374 
L 221.735942 55.300179 
L 222.071884 54.399561 
L 222.407827 54.631536 
L 223.079711 54.276271 
L 223.415653 54.34113 
L 223.751595 55.401146 
L 224.42348 55.348361 
L 224.759422 54.399108 
L 225.095364 54.633667 
L 225.767249 54.341958 
L 226.103191 55.47818 
L 227.111017 55.35087 
L 227.44696 54.398684 
L 227.782902 54.635688 
L 228.454786 54.345443 
L 228.790728 55.50602 
L 229.462613 55.352175 
L 229.798555 54.39831 
L 230.134497 54.637956 
L 230.806382 54.345608 
L 231.142324 55.543011 
L 232.150151 55.353015 
L 232.486093 54.398094 
L 232.822035 54.640343 
L 233.493919 54.34572 
L 233.829862 55.594847 
L 235.17363 55.354226 
L 235.509573 54.397935 
L 235.845515 54.645541 
L 236.517399 54.345822 
L 236.853341 55.625758 
L 237.861168 55.545364 
L 238.19711 55.355963 
L 238.533052 54.397811 
L 238.868995 54.762993 
L 239.204937 54.458661 
L 239.540879 54.345888 
L 239.876821 55.630957 
L 240.548706 55.542737 
L 240.884648 55.357125 
L 241.22059 54.397617 
L 241.556532 54.765221 
L 241.892474 54.781231 
L 242.228417 54.458693 
L 242.564359 55.635475 
L 243.572185 55.542961 
L 243.908128 55.357871 
L 244.24407 54.397452 
L 244.580012 54.766118 
L 244.915954 54.791033 
L 245.251896 54.458713 
L 245.587839 55.638554 
L 246.595665 55.543134 
L 246.931607 55.358421 
L 247.26755 54.396158 
L 247.603492 54.792491 
L 247.939434 54.458729 
L 248.275376 55.64241 
L 249.283203 55.543288 
L 249.619145 55.360065 
L 249.955087 54.395054 
L 250.29103 54.384892 
L 250.626972 54.7936 
L 250.962914 54.458743 
L 251.298856 55.644901 
L 252.306683 55.543671 
L 252.642625 55.372368 
L 252.978567 54.393374 
L 253.314509 54.794633 
L 253.650452 54.458756 
L 253.986394 55.651204 
L 255.330163 55.543976 
L 255.666105 55.372931 
L 256.002047 54.387566 
L 256.337989 54.795731 
L 256.673931 54.458762 
L 257.009874 55.655286 
L 258.353642 55.546072 
L 258.689585 55.373337 
L 259.025527 54.796698 
L 259.361469 54.458769 
L 259.697411 55.655793 
L 260.705238 55.670725 
L 261.04118 55.373751 
L 261.377122 54.797684 
L 261.713064 55.655888 
L 262.720891 55.670865 
L 263.056833 55.374081 
L 263.392775 54.80275 
L 263.728718 55.652634 
L 265.072486 55.67101 
L 265.408429 55.374415 
L 265.744371 54.833519 
L 266.080313 54.812555 
L 266.416255 55.649873 
L 267.760024 55.671114 
L 268.095966 55.374712 
L 268.431908 54.835233 
L 268.767851 54.859206 
L 269.103793 55.651452 
L 270.447562 55.671657 
L 270.783504 55.375013 
L 271.119446 54.836064 
L 271.791331 54.918799 
L 272.127273 55.651573 
L 274.478868 55.674601 
L 274.81481 55.375166 
L 275.150753 54.836735 
L 275.486695 54.828735 
L 275.822637 54.975648 
L 276.158579 55.655343 
L 277.83829 55.697282 
L 278.174232 55.375677 
L 278.510175 54.837263 
L 278.846117 54.979834 
L 279.182059 54.991354 
L 279.518001 55.659205 
L 280.189886 55.698722 
L 280.525828 55.3772 
L 280.86177 54.838059 
L 281.197712 54.980774 
L 281.533654 54.994952 
L 281.869597 55.659964 
L 282.541481 55.700764 
L 282.877423 54.83988 
L 283.213365 54.981359 
L 283.549308 54.996731 
L 283.88525 55.661239 
L 284.557134 55.704442 
L 284.893076 54.841087 
L 285.229019 54.982087 
L 285.564961 54.998677 
L 285.900903 55.656955 
L 286.236845 55.705373 
L 286.572787 54.842555 
L 286.90873 54.983618 
L 287.244672 55.000913 
L 287.580614 55.657005 
L 287.916556 55.705619 
L 288.252498 54.843406 
L 288.588441 54.984631 
L 288.924383 55.003164 
L 289.260325 55.65706 
L 289.93221 55.706068 
L 290.268152 54.844138 
L 290.604094 54.985238 
L 290.940036 55.005649 
L 291.275978 55.657189 
L 291.947863 55.706509 
L 292.283805 54.845309 
L 292.955689 55.009247 
L 293.291632 55.657259 
L 293.963516 55.707712 
L 294.299458 54.8464 
L 294.971343 55.013262 
L 295.307285 55.014997 
L 295.643227 55.657295 
L 296.315111 55.707956 
L 296.651054 54.846887 
L 297.322938 55.01561 
L 297.65888 55.051137 
L 297.994822 55.65733 
L 298.330765 55.707172 
L 298.666707 54.847391 
L 299.338591 55.01773 
L 299.674533 55.076815 
L 300.010476 54.847843 
L 300.68236 55.019742 
L 301.354244 55.164087 
L 301.690187 54.848353 
L 302.026129 55.021208 
L 303.369898 55.182706 
L 303.70584 54.849106 
L 304.041782 55.02347 
L 305.385551 55.217666 
L 305.721493 54.851009 
L 306.057435 55.027169 
L 306.393377 55.066839 
L 306.72932 55.299765 
L 307.065262 55.217834 
L 307.401204 54.853327 
L 307.737146 55.05403 
L 308.073089 55.066808 
L 308.409031 55.351494 
L 309.080915 55.217983 
L 309.416857 54.853528 
L 309.7528 55.075365 
L 310.088742 55.066757 
L 310.424684 55.404196 
L 311.096568 55.218112 
L 311.432511 54.85367 
L 311.768453 55.081902 
L 312.104395 55.066692 
L 312.440337 55.426442 
L 313.112222 55.331801 
L 313.448164 55.218249 
L 313.784106 54.853793 
L 314.120048 55.087651 
L 314.45599 55.0666 
L 314.791933 55.456279 
L 315.463817 55.332902 
L 315.799759 55.218353 
L 316.135701 54.853908 
L 316.471644 55.090672 
L 316.807586 55.066509 
L 317.143528 55.490751 
L 317.815412 55.333786 
L 318.151355 55.218499 
L 318.487297 54.853999 
L 318.823239 55.092997 
L 319.159181 55.066381 
L 319.495123 55.518062 
L 320.838892 55.21866 
L 321.174834 54.85407 
L 321.510777 55.094904 
L 321.846719 55.066221 
L 322.182661 55.531336 
L 323.52643 55.335744 
L 323.862372 55.21877 
L 324.198314 54.854148 
L 324.534256 55.097054 
L 324.870199 55.065891 
L 325.206141 55.549448 
L 326.213967 55.336999 
L 326.54991 55.218868 
L 326.885852 54.854219 
L 327.221794 55.098938 
L 327.557736 55.063134 
L 327.893679 55.593538 
L 328.565563 55.498102 
L 329.57339 55.218924 
L 329.909332 54.854439 
L 330.245274 55.101736 
L 330.581216 55.053797 
L 330.917158 55.628897 
L 331.253101 55.483324 
L 331.924985 55.438692 
L 332.596869 55.218984 
L 332.932812 54.855311 
L 333.268754 55.107133 
L 333.604696 55.65623 
L 334.27658 55.438805 
L 335.620349 55.109688 
L 335.956291 55.680669 
L 336.628176 55.438945 
L 337.971945 55.113059 
L 338.307887 55.681961 
L 338.643829 55.685948 
L 338.979771 55.49772 
L 339.987598 55.219118 
L 340.659482 55.115325 
L 340.995424 55.683211 
L 341.667309 55.686222 
L 342.003251 55.49761 
L 343.011078 55.21923 
L 343.682962 55.11626 
L 344.018904 55.684419 
L 344.690789 55.69245 
L 345.698615 55.219316 
L 346.034557 55.110788 
L 346.3705 55.685575 
L 347.042384 55.697268 
L 348.050211 55.21936 
L 348.386153 55.111151 
L 348.722095 55.686691 
L 349.39398 55.701893 
L 350.401806 55.111384 
L 350.737748 55.687761 
L 351.409633 55.705337 
L 352.081517 55.111624 
L 352.417459 55.688787 
L 353.425286 55.70869 
L 354.09717 55.111939 
L 354.433113 55.689266 
L 355.440939 55.712937 
L 356.112824 55.112376 
L 356.448766 55.699536 
L 357.456592 55.717423 
L 358.128477 55.113753 
L 358.464419 55.116423 
L 358.800361 55.705894 
L 359.808188 55.722547 
L 360.14413 55.359377 
L 360.480072 55.711176 
L 361.487899 55.724188 
L 361.823841 55.359545 
L 362.159783 55.716422 
L 363.503552 55.724912 
L 363.839494 55.359693 
L 364.175436 55.724878 
L 365.519205 55.725215 
L 365.855148 55.359825 
L 366.19109 55.72683 
L 366.862974 55.743177 
L 367.198916 55.35994 
L 367.534859 55.728251 
L 368.206743 55.742152 
L 368.542685 55.361734 
L 368.878627 55.730361 
L 369.550512 55.743535 
L 369.886454 55.365884 
L 370.222396 55.363428 
L 370.558338 55.730735 
L 371.230223 55.744911 
L 371.566165 55.367797 
L 371.902107 55.731013 
L 373.581818 55.734813 
L 373.581818 55.734813 
" style="fill:none;stroke:#0000ff;stroke-linecap:square;stroke-width:1.5;"/>
   </g>
   <g id="patch_3">
    <path d="M 54 252 
L 54 34.56 
" style="fill:none;stroke:#000000;stroke-linecap:square;stroke-linejoin:miter;stroke-width:0.8;"/>
   </g>
   <g id="patch_4">
    <path d="M 388.8 252 
L 388.8 34.56 
" style="fill:none;stroke:#000000;stroke-linecap:square;stroke-linejoin:miter;stroke-width:0.8;"/>
   </g>
   <g id="patch_5">
    <path d="M 54 252 
L 388.8 252 
" style="fill:none;stroke:#000000;stroke-linecap:square;stroke-linejoin:miter;stroke-width:0.8;"/>
   </g>
   <g id="patch_6">
    <path d="M 54 34.56 
L 388.8 34.56 
" style="fill:none;stroke:#000000;stroke-linecap:square;stroke-linejoin:miter;stroke-width:0.8;"/>
   </g>
   <g id="legend_1">
    <g id="patch_7">
     <path d="M 128.185937 247 
L 381.8 247 
Q 383.8 247 383.8 245 
L 383.8 201.13125 
Q 383.8 199.13125 381.8 199.13125 
L 128.185937 199.13125 
Q 126.185937 199.13125 126.185937 201.13125 
L 126.185937 245 
Q 126.185937 247 128.185937 247 
z
" style="fill:#ffffff;opacity:0.8;stroke:#cccccc;stroke-linejoin:miter;"/>
    </g>
    <g id="line2d_17">
     <path d="M 130.185937 207.229688 
L 150.185937 207.229688 
" style="fill:none;stroke:#ff0000;stroke-linecap:square;stroke-width:1.5;"/>
    </g>
    <g id="line2d_18"/>
    <g id="text_10">
     <!-- off_startpowerfactory_pandapower_Phase_A -->
     <defs>
      <path d="M 30.609375 48.390625 
Q 23.390625 48.390625 19.1875 42.75 
Q 14.984375 37.109375 14.984375 27.296875 
Q 14.984375 17.484375 19.15625 11.84375 
Q 23.34375 6.203125 30.609375 6.203125 
Q 37.796875 6.203125 41.984375 11.859375 
Q 46.1875 17.53125 46.1875 27.296875 
Q 46.1875 37.015625 41.984375 42.703125 
Q 37.796875 48.390625 30.609375 48.390625 
z
M 30.609375 56 
Q 42.328125 56 49.015625 48.375 
Q 55.71875 40.765625 55.71875 27.296875 
Q 55.71875 13.875 49.015625 6.21875 
Q 42.328125 -1.421875 30.609375 -1.421875 
Q 18.84375 -1.421875 12.171875 6.21875 
Q 5.515625 13.875 5.515625 27.296875 
Q 5.515625 40.765625 12.171875 48.375 
Q 18.84375 56 30.609375 56 
z
" id="DejaVuSans-111"/>
      <path d="M 37.109375 75.984375 
L 37.109375 68.5 
L 28.515625 68.5 
Q 23.6875 68.5 21.796875 66.546875 
Q 19.921875 64.59375 19.921875 59.515625 
L 19.921875 54.6875 
L 34.71875 54.6875 
L 34.71875 47.703125 
L 19.921875 47.703125 
L 19.921875 0 
L 10.890625 0 
L 10.890625 47.703125 
L 2.296875 47.703125 
L 2.296875 54.6875 
L 10.890625 54.6875 
L 10.890625 58.5 
Q 10.890625 67.625 15.140625 71.796875 
Q 19.390625 75.984375 28.609375 75.984375 
z
" id="DejaVuSans-102"/>
      <path d="M 50.984375 -16.609375 
L 50.984375 -23.578125 
L -0.984375 -23.578125 
L -0.984375 -16.609375 
z
" id="DejaVuSans-95"/>
      <path d="M 18.3125 70.21875 
L 18.3125 54.6875 
L 36.8125 54.6875 
L 36.8125 47.703125 
L 18.3125 47.703125 
L 18.3125 18.015625 
Q 18.3125 11.328125 20.140625 9.421875 
Q 21.96875 7.515625 27.59375 7.515625 
L 36.8125 7.515625 
L 36.8125 0 
L 27.59375 0 
Q 17.1875 0 13.234375 3.875 
Q 9.28125 7.765625 9.28125 18.015625 
L 9.28125 47.703125 
L 2.6875 47.703125 
L 2.6875 54.6875 
L 9.28125 54.6875 
L 9.28125 70.21875 
z
" id="DejaVuSans-116"/>
      <path d="M 34.28125 27.484375 
Q 23.390625 27.484375 19.1875 25 
Q 14.984375 22.515625 14.984375 16.5 
Q 14.984375 11.71875 18.140625 8.90625 
Q 21.296875 6.109375 26.703125 6.109375 
Q 34.1875 6.109375 38.703125 11.40625 
Q 43.21875 16.703125 43.21875 25.484375 
L 43.21875 27.484375 
z
M 52.203125 31.203125 
L 52.203125 0 
L 43.21875 0 
L 43.21875 8.296875 
Q 40.140625 3.328125 35.546875 0.953125 
Q 30.953125 -1.421875 24.3125 -1.421875 
Q 15.921875 -1.421875 10.953125 3.296875 
Q 6 8.015625 6 15.921875 
Q 6 25.140625 12.171875 29.828125 
Q 18.359375 34.515625 30.609375 34.515625 
L 43.21875 34.515625 
L 43.21875 35.40625 
Q 43.21875 41.609375 39.140625 45 
Q 35.0625 48.390625 27.6875 48.390625 
Q 23 48.390625 18.546875 47.265625 
Q 14.109375 46.140625 10.015625 43.890625 
L 10.015625 52.203125 
Q 14.9375 54.109375 19.578125 55.046875 
Q 24.21875 56 28.609375 56 
Q 40.484375 56 46.34375 49.84375 
Q 52.203125 43.703125 52.203125 31.203125 
z
" id="DejaVuSans-97"/>
      <path d="M 41.109375 46.296875 
Q 39.59375 47.171875 37.8125 47.578125 
Q 36.03125 48 33.890625 48 
Q 26.265625 48 22.1875 43.046875 
Q 18.109375 38.09375 18.109375 28.8125 
L 18.109375 0 
L 9.078125 0 
L 9.078125 54.6875 
L 18.109375 54.6875 
L 18.109375 46.1875 
Q 20.953125 51.171875 25.484375 53.578125 
Q 30.03125 56 36.53125 56 
Q 37.453125 56 38.578125 55.875 
Q 39.703125 55.765625 41.0625 55.515625 
z
" id="DejaVuSans-114"/>
      <path d="M 18.109375 8.203125 
L 18.109375 -20.796875 
L 9.078125 -20.796875 
L 9.078125 54.6875 
L 18.109375 54.6875 
L 18.109375 46.390625 
Q 20.953125 51.265625 25.265625 53.625 
Q 29.59375 56 35.59375 56 
Q 45.5625 56 51.78125 48.09375 
Q 58.015625 40.1875 58.015625 27.296875 
Q 58.015625 14.40625 51.78125 6.484375 
Q 45.5625 -1.421875 35.59375 -1.421875 
Q 29.59375 -1.421875 25.265625 0.953125 
Q 20.953125 3.328125 18.109375 8.203125 
z
M 48.6875 27.296875 
Q 48.6875 37.203125 44.609375 42.84375 
Q 40.53125 48.484375 33.40625 48.484375 
Q 26.265625 48.484375 22.1875 42.84375 
Q 18.109375 37.203125 18.109375 27.296875 
Q 18.109375 17.390625 22.1875 11.75 
Q 26.265625 6.109375 33.40625 6.109375 
Q 40.53125 6.109375 44.609375 11.75 
Q 48.6875 17.390625 48.6875 27.296875 
z
" id="DejaVuSans-112"/>
      <path d="M 4.203125 54.6875 
L 13.1875 54.6875 
L 24.421875 12.015625 
L 35.59375 54.6875 
L 46.1875 54.6875 
L 57.421875 12.015625 
L 68.609375 54.6875 
L 77.59375 54.6875 
L 63.28125 0 
L 52.6875 0 
L 40.921875 44.828125 
L 29.109375 0 
L 18.5 0 
z
" id="DejaVuSans-119"/>
      <path d="M 56.203125 29.59375 
L 56.203125 25.203125 
L 14.890625 25.203125 
Q 15.484375 15.921875 20.484375 11.0625 
Q 25.484375 6.203125 34.421875 6.203125 
Q 39.59375 6.203125 44.453125 7.46875 
Q 49.3125 8.734375 54.109375 11.28125 
L 54.109375 2.78125 
Q 49.265625 0.734375 44.1875 -0.34375 
Q 39.109375 -1.421875 33.890625 -1.421875 
Q 20.796875 -1.421875 13.15625 6.1875 
Q 5.515625 13.8125 5.515625 26.8125 
Q 5.515625 40.234375 12.765625 48.109375 
Q 20.015625 56 32.328125 56 
Q 43.359375 56 49.78125 48.890625 
Q 56.203125 41.796875 56.203125 29.59375 
z
M 47.21875 32.234375 
Q 47.125 39.59375 43.09375 43.984375 
Q 39.0625 48.390625 32.421875 48.390625 
Q 24.90625 48.390625 20.390625 44.140625 
Q 15.875 39.890625 15.1875 32.171875 
z
" id="DejaVuSans-101"/>
      <path d="M 48.78125 52.59375 
L 48.78125 44.1875 
Q 44.96875 46.296875 41.140625 47.34375 
Q 37.3125 48.390625 33.40625 48.390625 
Q 24.65625 48.390625 19.8125 42.84375 
Q 14.984375 37.3125 14.984375 27.296875 
Q 14.984375 17.28125 19.8125 11.734375 
Q 24.65625 6.203125 33.40625 6.203125 
Q 37.3125 6.203125 41.140625 7.25 
Q 44.96875 8.296875 48.78125 10.40625 
L 48.78125 2.09375 
Q 45.015625 0.34375 40.984375 -0.53125 
Q 36.96875 -1.421875 32.421875 -1.421875 
Q 20.0625 -1.421875 12.78125 6.34375 
Q 5.515625 14.109375 5.515625 27.296875 
Q 5.515625 40.671875 12.859375 48.328125 
Q 20.21875 56 33.015625 56 
Q 37.15625 56 41.109375 55.140625 
Q 45.0625 54.296875 48.78125 52.59375 
z
" id="DejaVuSans-99"/>
      <path d="M 32.171875 -5.078125 
Q 28.375 -14.84375 24.75 -17.8125 
Q 21.140625 -20.796875 15.09375 -20.796875 
L 7.90625 -20.796875 
L 7.90625 -13.28125 
L 13.1875 -13.28125 
Q 16.890625 -13.28125 18.9375 -11.515625 
Q 21 -9.765625 23.484375 -3.21875 
L 25.09375 0.875 
L 2.984375 54.6875 
L 12.5 54.6875 
L 29.59375 11.921875 
L 46.6875 54.6875 
L 56.203125 54.6875 
z
" id="DejaVuSans-121"/>
      <path d="M 54.890625 33.015625 
L 54.890625 0 
L 45.90625 0 
L 45.90625 32.71875 
Q 45.90625 40.484375 42.875 44.328125 
Q 39.84375 48.1875 33.796875 48.1875 
Q 26.515625 48.1875 22.3125 43.546875 
Q 18.109375 38.921875 18.109375 30.90625 
L 18.109375 0 
L 9.078125 0 
L 9.078125 54.6875 
L 18.109375 54.6875 
L 18.109375 46.1875 
Q 21.34375 51.125 25.703125 53.5625 
Q 30.078125 56 35.796875 56 
Q 45.21875 56 50.046875 50.171875 
Q 54.890625 44.34375 54.890625 33.015625 
z
" id="DejaVuSans-110"/>
      <path d="M 45.40625 46.390625 
L 45.40625 75.984375 
L 54.390625 75.984375 
L 54.390625 0 
L 45.40625 0 
L 45.40625 8.203125 
Q 42.578125 3.328125 38.25 0.953125 
Q 33.9375 -1.421875 27.875 -1.421875 
Q 17.96875 -1.421875 11.734375 6.484375 
Q 5.515625 14.40625 5.515625 27.296875 
Q 5.515625 40.1875 11.734375 48.09375 
Q 17.96875 56 27.875 56 
Q 33.9375 56 38.25 53.625 
Q 42.578125 51.265625 45.40625 46.390625 
z
M 14.796875 27.296875 
Q 14.796875 17.390625 18.875 11.75 
Q 22.953125 6.109375 30.078125 6.109375 
Q 37.203125 6.109375 41.296875 11.75 
Q 45.40625 17.390625 45.40625 27.296875 
Q 45.40625 37.203125 41.296875 42.84375 
Q 37.203125 48.484375 30.078125 48.484375 
Q 22.953125 48.484375 18.875 42.84375 
Q 14.796875 37.203125 14.796875 27.296875 
z
" id="DejaVuSans-100"/>
      <path d="M 19.671875 64.796875 
L 19.671875 37.40625 
L 32.078125 37.40625 
Q 38.96875 37.40625 42.71875 40.96875 
Q 46.484375 44.53125 46.484375 51.125 
Q 46.484375 57.671875 42.71875 61.234375 
Q 38.96875 64.796875 32.078125 64.796875 
z
M 9.8125 72.90625 
L 32.078125 72.90625 
Q 44.34375 72.90625 50.609375 67.359375 
Q 56.890625 61.8125 56.890625 51.125 
Q 56.890625 40.328125 50.609375 34.8125 
Q 44.34375 29.296875 32.078125 29.296875 
L 19.671875 29.296875 
L 19.671875 0 
L 9.8125 0 
z
" id="DejaVuSans-80"/>
      <path d="M 54.890625 33.015625 
L 54.890625 0 
L 45.90625 0 
L 45.90625 32.71875 
Q 45.90625 40.484375 42.875 44.328125 
Q 39.84375 48.1875 33.796875 48.1875 
Q 26.515625 48.1875 22.3125 43.546875 
Q 18.109375 38.921875 18.109375 30.90625 
L 18.109375 0 
L 9.078125 0 
L 9.078125 75.984375 
L 18.109375 75.984375 
L 18.109375 46.1875 
Q 21.34375 51.125 25.703125 53.5625 
Q 30.078125 56 35.796875 56 
Q 45.21875 56 50.046875 50.171875 
Q 54.890625 44.34375 54.890625 33.015625 
z
" id="DejaVuSans-104"/>
      <path d="M 34.1875 63.1875 
L 20.796875 26.90625 
L 47.609375 26.90625 
z
M 28.609375 72.90625 
L 39.796875 72.90625 
L 67.578125 0 
L 57.328125 0 
L 50.6875 18.703125 
L 17.828125 18.703125 
L 11.1875 0 
L 0.78125 0 
z
" id="DejaVuSans-65"/>
     </defs>
     <g transform="translate(158.185937 210.729688)scale(0.1 -0.1)">
      <use xlink:href="#DejaVuSans-111"/>
      <use x="61.181641" xlink:href="#DejaVuSans-102"/>
      <use x="96.386719" xlink:href="#DejaVuSans-102"/>
      <use x="131.591797" xlink:href="#DejaVuSans-95"/>
      <use x="181.591797" xlink:href="#DejaVuSans-115"/>
      <use x="233.691406" xlink:href="#DejaVuSans-116"/>
      <use x="272.900391" xlink:href="#DejaVuSans-97"/>
      <use x="334.179688" xlink:href="#DejaVuSans-114"/>
      <use x="375.292969" xlink:href="#DejaVuSans-116"/>
      <use x="414.501953" xlink:href="#DejaVuSans-112"/>
      <use x="477.978516" xlink:href="#DejaVuSans-111"/>
      <use x="539.160156" xlink:href="#DejaVuSans-119"/>
      <use x="620.947266" xlink:href="#DejaVuSans-101"/>
      <use x="682.470703" xlink:href="#DejaVuSans-114"/>
      <use x="723.583984" xlink:href="#DejaVuSans-102"/>
      <use x="758.789062" xlink:href="#DejaVuSans-97"/>
      <use x="820.068359" xlink:href="#DejaVuSans-99"/>
      <use x="875.048828" xlink:href="#DejaVuSans-116"/>
      <use x="914.257812" xlink:href="#DejaVuSans-111"/>
      <use x="975.439453" xlink:href="#DejaVuSans-114"/>
      <use x="1016.552734" xlink:href="#DejaVuSans-121"/>
      <use x="1075.732422" xlink:href="#DejaVuSans-95"/>
      <use x="1125.732422" xlink:href="#DejaVuSans-112"/>
      <use x="1189.208984" xlink:href="#DejaVuSans-97"/>
      <use x="1250.488281" xlink:href="#DejaVuSans-110"/>
      <use x="1313.867188" xlink:href="#DejaVuSans-100"/>
      <use x="1377.34375" xlink:href="#DejaVuSans-97"/>
      <use x="1438.623047" xlink:href="#DejaVuSans-112"/>
      <use x="1502.099609" xlink:href="#DejaVuSans-111"/>
      <use x="1563.28125" xlink:href="#DejaVuSans-119"/>
      <use x="1645.068359" xlink:href="#DejaVuSans-101"/>
      <use x="1706.591797" xlink:href="#DejaVuSans-114"/>
      <use x="1747.705078" xlink:href="#DejaVuSans-95"/>
      <use x="1797.705078" xlink:href="#DejaVuSans-80"/>
      <use x="1858.007812" xlink:href="#DejaVuSans-104"/>
      <use x="1921.386719" xlink:href="#DejaVuSans-97"/>
      <use x="1982.666016" xlink:href="#DejaVuSans-115"/>
      <use x="2034.765625" xlink:href="#DejaVuSans-101"/>
      <use x="2096.289062" xlink:href="#DejaVuSans-95"/>
      <use x="2146.289062" xlink:href="#DejaVuSans-65"/>
     </g>
    </g>
    <g id="line2d_19">
     <path d="M 130.185937 222.185937 
L 150.185937 222.185937 
" style="fill:none;stroke:#ffff00;stroke-linecap:square;stroke-width:1.5;"/>
    </g>
    <g id="line2d_20"/>
    <g id="text_11">
     <!-- off_startpowerfactory_pandapower_Phase_B -->
     <g transform="translate(158.185937 225.685937)scale(0.1 -0.1)">
      <use xlink:href="#DejaVuSans-111"/>
      <use x="61.181641" xlink:href="#DejaVuSans-102"/>
      <use x="96.386719" xlink:href="#DejaVuSans-102"/>
      <use x="131.591797" xlink:href="#DejaVuSans-95"/>
      <use x="181.591797" xlink:href="#DejaVuSans-115"/>
      <use x="233.691406" xlink:href="#DejaVuSans-116"/>
      <use x="272.900391" xlink:href="#DejaVuSans-97"/>
      <use x="334.179688" xlink:href="#DejaVuSans-114"/>
      <use x="375.292969" xlink:href="#DejaVuSans-116"/>
      <use x="414.501953" xlink:href="#DejaVuSans-112"/>
      <use x="477.978516" xlink:href="#DejaVuSans-111"/>
      <use x="539.160156" xlink:href="#DejaVuSans-119"/>
      <use x="620.947266" xlink:href="#DejaVuSans-101"/>
      <use x="682.470703" xlink:href="#DejaVuSans-114"/>
      <use x="723.583984" xlink:href="#DejaVuSans-102"/>
      <use x="758.789062" xlink:href="#DejaVuSans-97"/>
      <use x="820.068359" xlink:href="#DejaVuSans-99"/>
      <use x="875.048828" xlink:href="#DejaVuSans-116"/>
      <use x="914.257812" xlink:href="#DejaVuSans-111"/>
      <use x="975.439453" xlink:href="#DejaVuSans-114"/>
      <use x="1016.552734" xlink:href="#DejaVuSans-121"/>
      <use x="1075.732422" xlink:href="#DejaVuSans-95"/>
      <use x="1125.732422" xlink:href="#DejaVuSans-112"/>
      <use x="1189.208984" xlink:href="#DejaVuSans-97"/>
      <use x="1250.488281" xlink:href="#DejaVuSans-110"/>
      <use x="1313.867188" xlink:href="#DejaVuSans-100"/>
      <use x="1377.34375" xlink:href="#DejaVuSans-97"/>
      <use x="1438.623047" xlink:href="#DejaVuSans-112"/>
      <use x="1502.099609" xlink:href="#DejaVuSans-111"/>
      <use x="1563.28125" xlink:href="#DejaVuSans-119"/>
      <use x="1645.068359" xlink:href="#DejaVuSans-101"/>
      <use x="1706.591797" xlink:href="#DejaVuSans-114"/>
      <use x="1747.705078" xlink:href="#DejaVuSans-95"/>
      <use x="1797.705078" xlink:href="#DejaVuSans-80"/>
      <use x="1858.007812" xlink:href="#DejaVuSans-104"/>
      <use x="1921.386719" xlink:href="#DejaVuSans-97"/>
      <use x="1982.666016" xlink:href="#DejaVuSans-115"/>
      <use x="2034.765625" xlink:href="#DejaVuSans-101"/>
      <use x="2096.289062" xlink:href="#DejaVuSans-95"/>
      <use x="2146.289062" xlink:href="#DejaVuSans-66"/>
     </g>
    </g>
    <g id="line2d_21">
     <path d="M 130.185937 237.142188 
L 150.185937 237.142188 
" style="fill:none;stroke:#0000ff;stroke-linecap:square;stroke-width:1.5;"/>
    </g>
    <g id="line2d_22"/>
    <g id="text_12">
     <!-- off_startpowerfactory_pandapower_Phase_C -->
     <defs>
      <path d="M 64.40625 67.28125 
L 64.40625 56.890625 
Q 59.421875 61.53125 53.78125 63.8125 
Q 48.140625 66.109375 41.796875 66.109375 
Q 29.296875 66.109375 22.65625 58.46875 
Q 16.015625 50.828125 16.015625 36.375 
Q 16.015625 21.96875 22.65625 14.328125 
Q 29.296875 6.6875 41.796875 6.6875 
Q 48.140625 6.6875 53.78125 8.984375 
Q 59.421875 11.28125 64.40625 15.921875 
L 64.40625 5.609375 
Q 59.234375 2.09375 53.4375 0.328125 
Q 47.65625 -1.421875 41.21875 -1.421875 
Q 24.65625 -1.421875 15.125 8.703125 
Q 5.609375 18.84375 5.609375 36.375 
Q 5.609375 53.953125 15.125 64.078125 
Q 24.65625 74.21875 41.21875 74.21875 
Q 47.75 74.21875 53.53125 72.484375 
Q 59.328125 70.75 64.40625 67.28125 
z
" id="DejaVuSans-67"/>
     </defs>
     <g transform="translate(158.185937 240.642188)scale(0.1 -0.1)">
      <use xlink:href="#DejaVuSans-111"/>
      <use x="61.181641" xlink:href="#DejaVuSans-102"/>
      <use x="96.386719" xlink:href="#DejaVuSans-102"/>
      <use x="131.591797" xlink:href="#DejaVuSans-95"/>
      <use x="181.591797" xlink:href="#DejaVuSans-115"/>
      <use x="233.691406" xlink:href="#DejaVuSans-116"/>
      <use x="272.900391" xlink:href="#DejaVuSans-97"/>
      <use x="334.179688" xlink:href="#DejaVuSans-114"/>
      <use x="375.292969" xlink:href="#DejaVuSans-116"/>
      <use x="414.501953" xlink:href="#DejaVuSans-112"/>
      <use x="477.978516" xlink:href="#DejaVuSans-111"/>
      <use x="539.160156" xlink:href="#DejaVuSans-119"/>
      <use x="620.947266" xlink:href="#DejaVuSans-101"/>
      <use x="682.470703" xlink:href="#DejaVuSans-114"/>
      <use x="723.583984" xlink:href="#DejaVuSans-102"/>
      <use x="758.789062" xlink:href="#DejaVuSans-97"/>
      <use x="820.068359" xlink:href="#DejaVuSans-99"/>
      <use x="875.048828" xlink:href="#DejaVuSans-116"/>
      <use x="914.257812" xlink:href="#DejaVuSans-111"/>
      <use x="975.439453" xlink:href="#DejaVuSans-114"/>
      <use x="1016.552734" xlink:href="#DejaVuSans-121"/>
      <use x="1075.732422" xlink:href="#DejaVuSans-95"/>
      <use x="1125.732422" xlink:href="#DejaVuSans-112"/>
      <use x="1189.208984" xlink:href="#DejaVuSans-97"/>
      <use x="1250.488281" xlink:href="#DejaVuSans-110"/>
      <use x="1313.867188" xlink:href="#DejaVuSans-100"/>
      <use x="1377.34375" xlink:href="#DejaVuSans-97"/>
      <use x="1438.623047" xlink:href="#DejaVuSans-112"/>
      <use x="1502.099609" xlink:href="#DejaVuSans-111"/>
      <use x="1563.28125" xlink:href="#DejaVuSans-119"/>
      <use x="1645.068359" xlink:href="#DejaVuSans-101"/>
      <use x="1706.591797" xlink:href="#DejaVuSans-114"/>
      <use x="1747.705078" xlink:href="#DejaVuSans-95"/>
      <use x="1797.705078" xlink:href="#DejaVuSans-80"/>
      <use x="1858.007812" xlink:href="#DejaVuSans-104"/>
      <use x="1921.386719" xlink:href="#DejaVuSans-97"/>
      <use x="1982.666016" xlink:href="#DejaVuSans-115"/>
      <use x="2034.765625" xlink:href="#DejaVuSans-101"/>
      <use x="2096.289062" xlink:href="#DejaVuSans-95"/>
      <use x="2146.289062" xlink:href="#DejaVuSans-67"/>
     </g>
    </g>
   </g>
  </g>
 </g>
 <defs>
  <clipPath id="p47fce66655">
   <rect height="217.44" width="334.8" x="54" y="34.56"/>
  </clipPath>
 </defs>
</svg>
