<?xml version="1.0" encoding="utf-8" standalone="no"?>
<!DOCTYPE svg PUBLIC "-//W3C//DTD SVG 1.1//EN"
  "http://www.w3.org/Graphics/SVG/1.1/DTD/svg11.dtd">
<!-- Created with matplotlib (https://matplotlib.org/) -->
<svg height="288pt" version="1.1" viewBox="0 0 432 288" width="432pt" xmlns="http://www.w3.org/2000/svg" xmlns:xlink="http://www.w3.org/1999/xlink">
 <defs>
  <style type="text/css">
*{stroke-linecap:butt;stroke-linejoin:round;}
  </style>
 </defs>
 <g id="figure_1">
  <g id="patch_1">
   <path d="M 0 288 
L 432 288 
L 432 0 
L 0 0 
z
" style="fill:#ffffff;"/>
  </g>
  <g id="axes_1">
   <g id="patch_2">
    <path d="M 54 252 
L 388.8 252 
L 388.8 34.56 
L 54 34.56 
z
" style="fill:#ffffff;"/>
   </g>
   <g id="matplotlib.axis_1">
    <g id="xtick_1">
     <g id="line2d_1">
      <path clip-path="url(#pff2850d4c1)" d="M 54 252 
L 54 34.56 
" style="fill:none;stroke:#b0b0b0;stroke-linecap:square;stroke-width:0.8;"/>
     </g>
     <g id="line2d_2">
      <defs>
       <path d="M 0 0 
L 0 3.5 
" id="m90ffa76489" style="stroke:#000000;stroke-width:0.8;"/>
      </defs>
      <g>
       <use style="stroke:#000000;stroke-width:0.8;" x="54" xlink:href="#m90ffa76489" y="252"/>
      </g>
     </g>
     <g id="text_1">
      <!-- 0 -->
      <defs>
       <path d="M 31.78125 66.40625 
Q 24.171875 66.40625 20.328125 58.90625 
Q 16.5 51.421875 16.5 36.375 
Q 16.5 21.390625 20.328125 13.890625 
Q 24.171875 6.390625 31.78125 6.390625 
Q 39.453125 6.390625 43.28125 13.890625 
Q 47.125 21.390625 47.125 36.375 
Q 47.125 51.421875 43.28125 58.90625 
Q 39.453125 66.40625 31.78125 66.40625 
z
M 31.78125 74.21875 
Q 44.046875 74.21875 50.515625 64.515625 
Q 56.984375 54.828125 56.984375 36.375 
Q 56.984375 17.96875 50.515625 8.265625 
Q 44.046875 -1.421875 31.78125 -1.421875 
Q 19.53125 -1.421875 13.0625 8.265625 
Q 6.59375 17.96875 6.59375 36.375 
Q 6.59375 54.828125 13.0625 64.515625 
Q 19.53125 74.21875 31.78125 74.21875 
z
" id="DejaVuSans-48"/>
      </defs>
      <g transform="translate(50.81875 266.598437)scale(0.1 -0.1)">
       <use xlink:href="#DejaVuSans-48"/>
      </g>
     </g>
    </g>
    <g id="xtick_2">
     <g id="line2d_3">
      <path clip-path="url(#pff2850d4c1)" d="M 100.532314 252 
L 100.532314 34.56 
" style="fill:none;stroke:#b0b0b0;stroke-linecap:square;stroke-width:0.8;"/>
     </g>
     <g id="line2d_4">
      <g>
       <use style="stroke:#000000;stroke-width:0.8;" x="100.532314" xlink:href="#m90ffa76489" y="252"/>
      </g>
     </g>
     <g id="text_2">
      <!-- 200 -->
      <defs>
       <path d="M 19.1875 8.296875 
L 53.609375 8.296875 
L 53.609375 0 
L 7.328125 0 
L 7.328125 8.296875 
Q 12.9375 14.109375 22.625 23.890625 
Q 32.328125 33.6875 34.8125 36.53125 
Q 39.546875 41.84375 41.421875 45.53125 
Q 43.3125 49.21875 43.3125 52.78125 
Q 43.3125 58.59375 39.234375 62.25 
Q 35.15625 65.921875 28.609375 65.921875 
Q 23.96875 65.921875 18.8125 64.3125 
Q 13.671875 62.703125 7.8125 59.421875 
L 7.8125 69.390625 
Q 13.765625 71.78125 18.9375 73 
Q 24.125 74.21875 28.421875 74.21875 
Q 39.75 74.21875 46.484375 68.546875 
Q 53.21875 62.890625 53.21875 53.421875 
Q 53.21875 48.921875 51.53125 44.890625 
Q 49.859375 40.875 45.40625 35.40625 
Q 44.1875 33.984375 37.640625 27.21875 
Q 31.109375 20.453125 19.1875 8.296875 
z
" id="DejaVuSans-50"/>
      </defs>
      <g transform="translate(90.988564 266.598437)scale(0.1 -0.1)">
       <use xlink:href="#DejaVuSans-50"/>
       <use x="63.623047" xlink:href="#DejaVuSans-48"/>
       <use x="127.246094" xlink:href="#DejaVuSans-48"/>
      </g>
     </g>
    </g>
    <g id="xtick_3">
     <g id="line2d_5">
      <path clip-path="url(#pff2850d4c1)" d="M 147.064628 252 
L 147.064628 34.56 
" style="fill:none;stroke:#b0b0b0;stroke-linecap:square;stroke-width:0.8;"/>
     </g>
     <g id="line2d_6">
      <g>
       <use style="stroke:#000000;stroke-width:0.8;" x="147.064628" xlink:href="#m90ffa76489" y="252"/>
      </g>
     </g>
     <g id="text_3">
      <!-- 400 -->
      <defs>
       <path d="M 37.796875 64.3125 
L 12.890625 25.390625 
L 37.796875 25.390625 
z
M 35.203125 72.90625 
L 47.609375 72.90625 
L 47.609375 25.390625 
L 58.015625 25.390625 
L 58.015625 17.1875 
L 47.609375 17.1875 
L 47.609375 0 
L 37.796875 0 
L 37.796875 17.1875 
L 4.890625 17.1875 
L 4.890625 26.703125 
z
" id="DejaVuSans-52"/>
      </defs>
      <g transform="translate(137.520878 266.598437)scale(0.1 -0.1)">
       <use xlink:href="#DejaVuSans-52"/>
       <use x="63.623047" xlink:href="#DejaVuSans-48"/>
       <use x="127.246094" xlink:href="#DejaVuSans-48"/>
      </g>
     </g>
    </g>
    <g id="xtick_4">
     <g id="line2d_7">
      <path clip-path="url(#pff2850d4c1)" d="M 193.596942 252 
L 193.596942 34.56 
" style="fill:none;stroke:#b0b0b0;stroke-linecap:square;stroke-width:0.8;"/>
     </g>
     <g id="line2d_8">
      <g>
       <use style="stroke:#000000;stroke-width:0.8;" x="193.596942" xlink:href="#m90ffa76489" y="252"/>
      </g>
     </g>
     <g id="text_4">
      <!-- 600 -->
      <defs>
       <path d="M 33.015625 40.375 
Q 26.375 40.375 22.484375 35.828125 
Q 18.609375 31.296875 18.609375 23.390625 
Q 18.609375 15.53125 22.484375 10.953125 
Q 26.375 6.390625 33.015625 6.390625 
Q 39.65625 6.390625 43.53125 10.953125 
Q 47.40625 15.53125 47.40625 23.390625 
Q 47.40625 31.296875 43.53125 35.828125 
Q 39.65625 40.375 33.015625 40.375 
z
M 52.59375 71.296875 
L 52.59375 62.3125 
Q 48.875 64.0625 45.09375 64.984375 
Q 41.3125 65.921875 37.59375 65.921875 
Q 27.828125 65.921875 22.671875 59.328125 
Q 17.53125 52.734375 16.796875 39.40625 
Q 19.671875 43.65625 24.015625 45.921875 
Q 28.375 48.1875 33.59375 48.1875 
Q 44.578125 48.1875 50.953125 41.515625 
Q 57.328125 34.859375 57.328125 23.390625 
Q 57.328125 12.15625 50.6875 5.359375 
Q 44.046875 -1.421875 33.015625 -1.421875 
Q 20.359375 -1.421875 13.671875 8.265625 
Q 6.984375 17.96875 6.984375 36.375 
Q 6.984375 53.65625 15.1875 63.9375 
Q 23.390625 74.21875 37.203125 74.21875 
Q 40.921875 74.21875 44.703125 73.484375 
Q 48.484375 72.75 52.59375 71.296875 
z
" id="DejaVuSans-54"/>
      </defs>
      <g transform="translate(184.053192 266.598437)scale(0.1 -0.1)">
       <use xlink:href="#DejaVuSans-54"/>
       <use x="63.623047" xlink:href="#DejaVuSans-48"/>
       <use x="127.246094" xlink:href="#DejaVuSans-48"/>
      </g>
     </g>
    </g>
    <g id="xtick_5">
     <g id="line2d_9">
      <path clip-path="url(#pff2850d4c1)" d="M 240.129256 252 
L 240.129256 34.56 
" style="fill:none;stroke:#b0b0b0;stroke-linecap:square;stroke-width:0.8;"/>
     </g>
     <g id="line2d_10">
      <g>
       <use style="stroke:#000000;stroke-width:0.8;" x="240.129256" xlink:href="#m90ffa76489" y="252"/>
      </g>
     </g>
     <g id="text_5">
      <!-- 800 -->
      <defs>
       <path d="M 31.78125 34.625 
Q 24.75 34.625 20.71875 30.859375 
Q 16.703125 27.09375 16.703125 20.515625 
Q 16.703125 13.921875 20.71875 10.15625 
Q 24.75 6.390625 31.78125 6.390625 
Q 38.8125 6.390625 42.859375 10.171875 
Q 46.921875 13.96875 46.921875 20.515625 
Q 46.921875 27.09375 42.890625 30.859375 
Q 38.875 34.625 31.78125 34.625 
z
M 21.921875 38.8125 
Q 15.578125 40.375 12.03125 44.71875 
Q 8.5 49.078125 8.5 55.328125 
Q 8.5 64.0625 14.71875 69.140625 
Q 20.953125 74.21875 31.78125 74.21875 
Q 42.671875 74.21875 48.875 69.140625 
Q 55.078125 64.0625 55.078125 55.328125 
Q 55.078125 49.078125 51.53125 44.71875 
Q 48 40.375 41.703125 38.8125 
Q 48.828125 37.15625 52.796875 32.3125 
Q 56.78125 27.484375 56.78125 20.515625 
Q 56.78125 9.90625 50.3125 4.234375 
Q 43.84375 -1.421875 31.78125 -1.421875 
Q 19.734375 -1.421875 13.25 4.234375 
Q 6.78125 9.90625 6.78125 20.515625 
Q 6.78125 27.484375 10.78125 32.3125 
Q 14.796875 37.15625 21.921875 38.8125 
z
M 18.3125 54.390625 
Q 18.3125 48.734375 21.84375 45.5625 
Q 25.390625 42.390625 31.78125 42.390625 
Q 38.140625 42.390625 41.71875 45.5625 
Q 45.3125 48.734375 45.3125 54.390625 
Q 45.3125 60.0625 41.71875 63.234375 
Q 38.140625 66.40625 31.78125 66.40625 
Q 25.390625 66.40625 21.84375 63.234375 
Q 18.3125 60.0625 18.3125 54.390625 
z
" id="DejaVuSans-56"/>
      </defs>
      <g transform="translate(230.585506 266.598437)scale(0.1 -0.1)">
       <use xlink:href="#DejaVuSans-56"/>
       <use x="63.623047" xlink:href="#DejaVuSans-48"/>
       <use x="127.246094" xlink:href="#DejaVuSans-48"/>
      </g>
     </g>
    </g>
    <g id="xtick_6">
     <g id="line2d_11">
      <path clip-path="url(#pff2850d4c1)" d="M 286.661571 252 
L 286.661571 34.56 
" style="fill:none;stroke:#b0b0b0;stroke-linecap:square;stroke-width:0.8;"/>
     </g>
     <g id="line2d_12">
      <g>
       <use style="stroke:#000000;stroke-width:0.8;" x="286.661571" xlink:href="#m90ffa76489" y="252"/>
      </g>
     </g>
     <g id="text_6">
      <!-- 1000 -->
      <defs>
       <path d="M 12.40625 8.296875 
L 28.515625 8.296875 
L 28.515625 63.921875 
L 10.984375 60.40625 
L 10.984375 69.390625 
L 28.421875 72.90625 
L 38.28125 72.90625 
L 38.28125 8.296875 
L 54.390625 8.296875 
L 54.390625 0 
L 12.40625 0 
z
" id="DejaVuSans-49"/>
      </defs>
      <g transform="translate(273.936571 266.598437)scale(0.1 -0.1)">
       <use xlink:href="#DejaVuSans-49"/>
       <use x="63.623047" xlink:href="#DejaVuSans-48"/>
       <use x="127.246094" xlink:href="#DejaVuSans-48"/>
       <use x="190.869141" xlink:href="#DejaVuSans-48"/>
      </g>
     </g>
    </g>
    <g id="xtick_7">
     <g id="line2d_13">
      <path clip-path="url(#pff2850d4c1)" d="M 333.193885 252 
L 333.193885 34.56 
" style="fill:none;stroke:#b0b0b0;stroke-linecap:square;stroke-width:0.8;"/>
     </g>
     <g id="line2d_14">
      <g>
       <use style="stroke:#000000;stroke-width:0.8;" x="333.193885" xlink:href="#m90ffa76489" y="252"/>
      </g>
     </g>
     <g id="text_7">
      <!-- 1200 -->
      <g transform="translate(320.468885 266.598437)scale(0.1 -0.1)">
       <use xlink:href="#DejaVuSans-49"/>
       <use x="63.623047" xlink:href="#DejaVuSans-50"/>
       <use x="127.246094" xlink:href="#DejaVuSans-48"/>
       <use x="190.869141" xlink:href="#DejaVuSans-48"/>
      </g>
     </g>
    </g>
    <g id="xtick_8">
     <g id="line2d_15">
      <path clip-path="url(#pff2850d4c1)" d="M 379.726199 252 
L 379.726199 34.56 
" style="fill:none;stroke:#b0b0b0;stroke-linecap:square;stroke-width:0.8;"/>
     </g>
     <g id="line2d_16">
      <g>
       <use style="stroke:#000000;stroke-width:0.8;" x="379.726199" xlink:href="#m90ffa76489" y="252"/>
      </g>
     </g>
     <g id="text_8">
      <!-- 1400 -->
      <g transform="translate(367.001199 266.598437)scale(0.1 -0.1)">
       <use xlink:href="#DejaVuSans-49"/>
       <use x="63.623047" xlink:href="#DejaVuSans-52"/>
       <use x="127.246094" xlink:href="#DejaVuSans-48"/>
       <use x="190.869141" xlink:href="#DejaVuSans-48"/>
      </g>
     </g>
    </g>
    <g id="text_9">
     <!-- time step -->
     <defs>
      <path d="M 18.3125 70.21875 
L 18.3125 54.6875 
L 36.8125 54.6875 
L 36.8125 47.703125 
L 18.3125 47.703125 
L 18.3125 18.015625 
Q 18.3125 11.328125 20.140625 9.421875 
Q 21.96875 7.515625 27.59375 7.515625 
L 36.8125 7.515625 
L 36.8125 0 
L 27.59375 0 
Q 17.1875 0 13.234375 3.875 
Q 9.28125 7.765625 9.28125 18.015625 
L 9.28125 47.703125 
L 2.6875 47.703125 
L 2.6875 54.6875 
L 9.28125 54.6875 
L 9.28125 70.21875 
z
" id="DejaVuSans-116"/>
      <path d="M 9.421875 54.6875 
L 18.40625 54.6875 
L 18.40625 0 
L 9.421875 0 
z
M 9.421875 75.984375 
L 18.40625 75.984375 
L 18.40625 64.59375 
L 9.421875 64.59375 
z
" id="DejaVuSans-105"/>
      <path d="M 52 44.1875 
Q 55.375 50.25 60.0625 53.125 
Q 64.75 56 71.09375 56 
Q 79.640625 56 84.28125 50.015625 
Q 88.921875 44.046875 88.921875 33.015625 
L 88.921875 0 
L 79.890625 0 
L 79.890625 32.71875 
Q 79.890625 40.578125 77.09375 44.375 
Q 74.3125 48.1875 68.609375 48.1875 
Q 61.625 48.1875 57.5625 43.546875 
Q 53.515625 38.921875 53.515625 30.90625 
L 53.515625 0 
L 44.484375 0 
L 44.484375 32.71875 
Q 44.484375 40.625 41.703125 44.40625 
Q 38.921875 48.1875 33.109375 48.1875 
Q 26.21875 48.1875 22.15625 43.53125 
Q 18.109375 38.875 18.109375 30.90625 
L 18.109375 0 
L 9.078125 0 
L 9.078125 54.6875 
L 18.109375 54.6875 
L 18.109375 46.1875 
Q 21.1875 51.21875 25.484375 53.609375 
Q 29.78125 56 35.6875 56 
Q 41.65625 56 45.828125 52.96875 
Q 50 49.953125 52 44.1875 
z
" id="DejaVuSans-109"/>
      <path d="M 56.203125 29.59375 
L 56.203125 25.203125 
L 14.890625 25.203125 
Q 15.484375 15.921875 20.484375 11.0625 
Q 25.484375 6.203125 34.421875 6.203125 
Q 39.59375 6.203125 44.453125 7.46875 
Q 49.3125 8.734375 54.109375 11.28125 
L 54.109375 2.78125 
Q 49.265625 0.734375 44.1875 -0.34375 
Q 39.109375 -1.421875 33.890625 -1.421875 
Q 20.796875 -1.421875 13.15625 6.1875 
Q 5.515625 13.8125 5.515625 26.8125 
Q 5.515625 40.234375 12.765625 48.109375 
Q 20.015625 56 32.328125 56 
Q 43.359375 56 49.78125 48.890625 
Q 56.203125 41.796875 56.203125 29.59375 
z
M 47.21875 32.234375 
Q 47.125 39.59375 43.09375 43.984375 
Q 39.0625 48.390625 32.421875 48.390625 
Q 24.90625 48.390625 20.390625 44.140625 
Q 15.875 39.890625 15.1875 32.171875 
z
" id="DejaVuSans-101"/>
      <path id="DejaVuSans-32"/>
      <path d="M 44.28125 53.078125 
L 44.28125 44.578125 
Q 40.484375 46.53125 36.375 47.5 
Q 32.28125 48.484375 27.875 48.484375 
Q 21.1875 48.484375 17.84375 46.4375 
Q 14.5 44.390625 14.5 40.28125 
Q 14.5 37.15625 16.890625 35.375 
Q 19.28125 33.59375 26.515625 31.984375 
L 29.59375 31.296875 
Q 39.15625 29.25 43.1875 25.515625 
Q 47.21875 21.78125 47.21875 15.09375 
Q 47.21875 7.46875 41.1875 3.015625 
Q 35.15625 -1.421875 24.609375 -1.421875 
Q 20.21875 -1.421875 15.453125 -0.5625 
Q 10.6875 0.296875 5.421875 2 
L 5.421875 11.28125 
Q 10.40625 8.6875 15.234375 7.390625 
Q 20.0625 6.109375 24.8125 6.109375 
Q 31.15625 6.109375 34.5625 8.28125 
Q 37.984375 10.453125 37.984375 14.40625 
Q 37.984375 18.0625 35.515625 20.015625 
Q 33.0625 21.96875 24.703125 23.78125 
L 21.578125 24.515625 
Q 13.234375 26.265625 9.515625 29.90625 
Q 5.8125 33.546875 5.8125 39.890625 
Q 5.8125 47.609375 11.28125 51.796875 
Q 16.75 56 26.8125 56 
Q 31.78125 56 36.171875 55.265625 
Q 40.578125 54.546875 44.28125 53.078125 
z
" id="DejaVuSans-115"/>
      <path d="M 18.109375 8.203125 
L 18.109375 -20.796875 
L 9.078125 -20.796875 
L 9.078125 54.6875 
L 18.109375 54.6875 
L 18.109375 46.390625 
Q 20.953125 51.265625 25.265625 53.625 
Q 29.59375 56 35.59375 56 
Q 45.5625 56 51.78125 48.09375 
Q 58.015625 40.1875 58.015625 27.296875 
Q 58.015625 14.40625 51.78125 6.484375 
Q 45.5625 -1.421875 35.59375 -1.421875 
Q 29.59375 -1.421875 25.265625 0.953125 
Q 20.953125 3.328125 18.109375 8.203125 
z
M 48.6875 27.296875 
Q 48.6875 37.203125 44.609375 42.84375 
Q 40.53125 48.484375 33.40625 48.484375 
Q 26.265625 48.484375 22.1875 42.84375 
Q 18.109375 37.203125 18.109375 27.296875 
Q 18.109375 17.390625 22.1875 11.75 
Q 26.265625 6.109375 33.40625 6.109375 
Q 40.53125 6.109375 44.609375 11.75 
Q 48.6875 17.390625 48.6875 27.296875 
z
" id="DejaVuSans-112"/>
     </defs>
     <g transform="translate(197.699219 280.276563)scale(0.1 -0.1)">
      <use xlink:href="#DejaVuSans-116"/>
      <use x="39.208984" xlink:href="#DejaVuSans-105"/>
      <use x="66.992188" xlink:href="#DejaVuSans-109"/>
      <use x="164.404297" xlink:href="#DejaVuSans-101"/>
      <use x="225.927734" xlink:href="#DejaVuSans-32"/>
      <use x="257.714844" xlink:href="#DejaVuSans-115"/>
      <use x="309.814453" xlink:href="#DejaVuSans-116"/>
      <use x="349.023438" xlink:href="#DejaVuSans-101"/>
      <use x="410.546875" xlink:href="#DejaVuSans-112"/>
     </g>
    </g>
   </g>
   <g id="matplotlib.axis_2">
    <g id="ytick_1">
     <g id="line2d_17">
      <path clip-path="url(#pff2850d4c1)" d="M 54 226.796777 
L 388.8 226.796777 
" style="fill:none;stroke:#b0b0b0;stroke-linecap:square;stroke-width:0.8;"/>
     </g>
     <g id="line2d_18">
      <defs>
       <path d="M 0 0 
L -3.5 0 
" id="md8f085b1fa" style="stroke:#000000;stroke-width:0.8;"/>
      </defs>
      <g>
       <use style="stroke:#000000;stroke-width:0.8;" x="54" xlink:href="#md8f085b1fa" y="226.796777"/>
      </g>
     </g>
     <g id="text_10">
      <!-- 235.0 -->
      <defs>
       <path d="M 40.578125 39.3125 
Q 47.65625 37.796875 51.625 33 
Q 55.609375 28.21875 55.609375 21.1875 
Q 55.609375 10.40625 48.1875 4.484375 
Q 40.765625 -1.421875 27.09375 -1.421875 
Q 22.515625 -1.421875 17.65625 -0.515625 
Q 12.796875 0.390625 7.625 2.203125 
L 7.625 11.71875 
Q 11.71875 9.328125 16.59375 8.109375 
Q 21.484375 6.890625 26.8125 6.890625 
Q 36.078125 6.890625 40.9375 10.546875 
Q 45.796875 14.203125 45.796875 21.1875 
Q 45.796875 27.640625 41.28125 31.265625 
Q 36.765625 34.90625 28.71875 34.90625 
L 20.21875 34.90625 
L 20.21875 43.015625 
L 29.109375 43.015625 
Q 36.375 43.015625 40.234375 45.921875 
Q 44.09375 48.828125 44.09375 54.296875 
Q 44.09375 59.90625 40.109375 62.90625 
Q 36.140625 65.921875 28.71875 65.921875 
Q 24.65625 65.921875 20.015625 65.03125 
Q 15.375 64.15625 9.8125 62.3125 
L 9.8125 71.09375 
Q 15.4375 72.65625 20.34375 73.4375 
Q 25.25 74.21875 29.59375 74.21875 
Q 40.828125 74.21875 47.359375 69.109375 
Q 53.90625 64.015625 53.90625 55.328125 
Q 53.90625 49.265625 50.4375 45.09375 
Q 46.96875 40.921875 40.578125 39.3125 
z
" id="DejaVuSans-51"/>
       <path d="M 10.796875 72.90625 
L 49.515625 72.90625 
L 49.515625 64.59375 
L 19.828125 64.59375 
L 19.828125 46.734375 
Q 21.96875 47.46875 24.109375 47.828125 
Q 26.265625 48.1875 28.421875 48.1875 
Q 40.625 48.1875 47.75 41.5 
Q 54.890625 34.8125 54.890625 23.390625 
Q 54.890625 11.625 47.5625 5.09375 
Q 40.234375 -1.421875 26.90625 -1.421875 
Q 22.3125 -1.421875 17.546875 -0.640625 
Q 12.796875 0.140625 7.71875 1.703125 
L 7.71875 11.625 
Q 12.109375 9.234375 16.796875 8.0625 
Q 21.484375 6.890625 26.703125 6.890625 
Q 35.15625 6.890625 40.078125 11.328125 
Q 45.015625 15.765625 45.015625 23.390625 
Q 45.015625 31 40.078125 35.4375 
Q 35.15625 39.890625 26.703125 39.890625 
Q 22.75 39.890625 18.8125 39.015625 
Q 14.890625 38.140625 10.796875 36.28125 
z
" id="DejaVuSans-53"/>
       <path d="M 10.6875 12.40625 
L 21 12.40625 
L 21 0 
L 10.6875 0 
z
" id="DejaVuSans-46"/>
      </defs>
      <g transform="translate(18.371875 230.595995)scale(0.1 -0.1)">
       <use xlink:href="#DejaVuSans-50"/>
       <use x="63.623047" xlink:href="#DejaVuSans-51"/>
       <use x="127.246094" xlink:href="#DejaVuSans-53"/>
       <use x="190.869141" xlink:href="#DejaVuSans-46"/>
       <use x="222.65625" xlink:href="#DejaVuSans-48"/>
      </g>
     </g>
    </g>
    <g id="ytick_2">
     <g id="line2d_19">
      <path clip-path="url(#pff2850d4c1)" d="M 54 201.127697 
L 388.8 201.127697 
" style="fill:none;stroke:#b0b0b0;stroke-linecap:square;stroke-width:0.8;"/>
     </g>
     <g id="line2d_20">
      <g>
       <use style="stroke:#000000;stroke-width:0.8;" x="54" xlink:href="#md8f085b1fa" y="201.127697"/>
      </g>
     </g>
     <g id="text_11">
      <!-- 237.5 -->
      <defs>
       <path d="M 8.203125 72.90625 
L 55.078125 72.90625 
L 55.078125 68.703125 
L 28.609375 0 
L 18.3125 0 
L 43.21875 64.59375 
L 8.203125 64.59375 
z
" id="DejaVuSans-55"/>
      </defs>
      <g transform="translate(18.371875 204.926916)scale(0.1 -0.1)">
       <use xlink:href="#DejaVuSans-50"/>
       <use x="63.623047" xlink:href="#DejaVuSans-51"/>
       <use x="127.246094" xlink:href="#DejaVuSans-55"/>
       <use x="190.869141" xlink:href="#DejaVuSans-46"/>
       <use x="222.65625" xlink:href="#DejaVuSans-53"/>
      </g>
     </g>
    </g>
    <g id="ytick_3">
     <g id="line2d_21">
      <path clip-path="url(#pff2850d4c1)" d="M 54 175.458618 
L 388.8 175.458618 
" style="fill:none;stroke:#b0b0b0;stroke-linecap:square;stroke-width:0.8;"/>
     </g>
     <g id="line2d_22">
      <g>
       <use style="stroke:#000000;stroke-width:0.8;" x="54" xlink:href="#md8f085b1fa" y="175.458618"/>
      </g>
     </g>
     <g id="text_12">
      <!-- 240.0 -->
      <g transform="translate(18.371875 179.257837)scale(0.1 -0.1)">
       <use xlink:href="#DejaVuSans-50"/>
       <use x="63.623047" xlink:href="#DejaVuSans-52"/>
       <use x="127.246094" xlink:href="#DejaVuSans-48"/>
       <use x="190.869141" xlink:href="#DejaVuSans-46"/>
       <use x="222.65625" xlink:href="#DejaVuSans-48"/>
      </g>
     </g>
    </g>
    <g id="ytick_4">
     <g id="line2d_23">
      <path clip-path="url(#pff2850d4c1)" d="M 54 149.789538 
L 388.8 149.789538 
" style="fill:none;stroke:#b0b0b0;stroke-linecap:square;stroke-width:0.8;"/>
     </g>
     <g id="line2d_24">
      <g>
       <use style="stroke:#000000;stroke-width:0.8;" x="54" xlink:href="#md8f085b1fa" y="149.789538"/>
      </g>
     </g>
     <g id="text_13">
      <!-- 242.5 -->
      <g transform="translate(18.371875 153.588757)scale(0.1 -0.1)">
       <use xlink:href="#DejaVuSans-50"/>
       <use x="63.623047" xlink:href="#DejaVuSans-52"/>
       <use x="127.246094" xlink:href="#DejaVuSans-50"/>
       <use x="190.869141" xlink:href="#DejaVuSans-46"/>
       <use x="222.65625" xlink:href="#DejaVuSans-53"/>
      </g>
     </g>
    </g>
    <g id="ytick_5">
     <g id="line2d_25">
      <path clip-path="url(#pff2850d4c1)" d="M 54 124.120459 
L 388.8 124.120459 
" style="fill:none;stroke:#b0b0b0;stroke-linecap:square;stroke-width:0.8;"/>
     </g>
     <g id="line2d_26">
      <g>
       <use style="stroke:#000000;stroke-width:0.8;" x="54" xlink:href="#md8f085b1fa" y="124.120459"/>
      </g>
     </g>
     <g id="text_14">
      <!-- 245.0 -->
      <g transform="translate(18.371875 127.919678)scale(0.1 -0.1)">
       <use xlink:href="#DejaVuSans-50"/>
       <use x="63.623047" xlink:href="#DejaVuSans-52"/>
       <use x="127.246094" xlink:href="#DejaVuSans-53"/>
       <use x="190.869141" xlink:href="#DejaVuSans-46"/>
       <use x="222.65625" xlink:href="#DejaVuSans-48"/>
      </g>
     </g>
    </g>
    <g id="ytick_6">
     <g id="line2d_27">
      <path clip-path="url(#pff2850d4c1)" d="M 54 98.451379 
L 388.8 98.451379 
" style="fill:none;stroke:#b0b0b0;stroke-linecap:square;stroke-width:0.8;"/>
     </g>
     <g id="line2d_28">
      <g>
       <use style="stroke:#000000;stroke-width:0.8;" x="54" xlink:href="#md8f085b1fa" y="98.451379"/>
      </g>
     </g>
     <g id="text_15">
      <!-- 247.5 -->
      <g transform="translate(18.371875 102.250598)scale(0.1 -0.1)">
       <use xlink:href="#DejaVuSans-50"/>
       <use x="63.623047" xlink:href="#DejaVuSans-52"/>
       <use x="127.246094" xlink:href="#DejaVuSans-55"/>
       <use x="190.869141" xlink:href="#DejaVuSans-46"/>
       <use x="222.65625" xlink:href="#DejaVuSans-53"/>
      </g>
     </g>
    </g>
    <g id="ytick_7">
     <g id="line2d_29">
      <path clip-path="url(#pff2850d4c1)" d="M 54 72.7823 
L 388.8 72.7823 
" style="fill:none;stroke:#b0b0b0;stroke-linecap:square;stroke-width:0.8;"/>
     </g>
     <g id="line2d_30">
      <g>
       <use style="stroke:#000000;stroke-width:0.8;" x="54" xlink:href="#md8f085b1fa" y="72.7823"/>
      </g>
     </g>
     <g id="text_16">
      <!-- 250.0 -->
      <g transform="translate(18.371875 76.581519)scale(0.1 -0.1)">
       <use xlink:href="#DejaVuSans-50"/>
       <use x="63.623047" xlink:href="#DejaVuSans-53"/>
       <use x="127.246094" xlink:href="#DejaVuSans-48"/>
       <use x="190.869141" xlink:href="#DejaVuSans-46"/>
       <use x="222.65625" xlink:href="#DejaVuSans-48"/>
      </g>
     </g>
    </g>
    <g id="ytick_8">
     <g id="line2d_31">
      <path clip-path="url(#pff2850d4c1)" d="M 54 47.113221 
L 388.8 47.113221 
" style="fill:none;stroke:#b0b0b0;stroke-linecap:square;stroke-width:0.8;"/>
     </g>
     <g id="line2d_32">
      <g>
       <use style="stroke:#000000;stroke-width:0.8;" x="54" xlink:href="#md8f085b1fa" y="47.113221"/>
      </g>
     </g>
     <g id="text_17">
      <!-- 252.5 -->
      <g transform="translate(18.371875 50.912439)scale(0.1 -0.1)">
       <use xlink:href="#DejaVuSans-50"/>
       <use x="63.623047" xlink:href="#DejaVuSans-53"/>
       <use x="127.246094" xlink:href="#DejaVuSans-50"/>
       <use x="190.869141" xlink:href="#DejaVuSans-46"/>
       <use x="222.65625" xlink:href="#DejaVuSans-53"/>
      </g>
     </g>
    </g>
    <g id="text_18">
     <!-- voltage mag. [Volts] -->
     <defs>
      <path d="M 2.984375 54.6875 
L 12.5 54.6875 
L 29.59375 8.796875 
L 46.6875 54.6875 
L 56.203125 54.6875 
L 35.6875 0 
L 23.484375 0 
z
" id="DejaVuSans-118"/>
      <path d="M 30.609375 48.390625 
Q 23.390625 48.390625 19.1875 42.75 
Q 14.984375 37.109375 14.984375 27.296875 
Q 14.984375 17.484375 19.15625 11.84375 
Q 23.34375 6.203125 30.609375 6.203125 
Q 37.796875 6.203125 41.984375 11.859375 
Q 46.1875 17.53125 46.1875 27.296875 
Q 46.1875 37.015625 41.984375 42.703125 
Q 37.796875 48.390625 30.609375 48.390625 
z
M 30.609375 56 
Q 42.328125 56 49.015625 48.375 
Q 55.71875 40.765625 55.71875 27.296875 
Q 55.71875 13.875 49.015625 6.21875 
Q 42.328125 -1.421875 30.609375 -1.421875 
Q 18.84375 -1.421875 12.171875 6.21875 
Q 5.515625 13.875 5.515625 27.296875 
Q 5.515625 40.765625 12.171875 48.375 
Q 18.84375 56 30.609375 56 
z
" id="DejaVuSans-111"/>
      <path d="M 9.421875 75.984375 
L 18.40625 75.984375 
L 18.40625 0 
L 9.421875 0 
z
" id="DejaVuSans-108"/>
      <path d="M 34.28125 27.484375 
Q 23.390625 27.484375 19.1875 25 
Q 14.984375 22.515625 14.984375 16.5 
Q 14.984375 11.71875 18.140625 8.90625 
Q 21.296875 6.109375 26.703125 6.109375 
Q 34.1875 6.109375 38.703125 11.40625 
Q 43.21875 16.703125 43.21875 25.484375 
L 43.21875 27.484375 
z
M 52.203125 31.203125 
L 52.203125 0 
L 43.21875 0 
L 43.21875 8.296875 
Q 40.140625 3.328125 35.546875 0.953125 
Q 30.953125 -1.421875 24.3125 -1.421875 
Q 15.921875 -1.421875 10.953125 3.296875 
Q 6 8.015625 6 15.921875 
Q 6 25.140625 12.171875 29.828125 
Q 18.359375 34.515625 30.609375 34.515625 
L 43.21875 34.515625 
L 43.21875 35.40625 
Q 43.21875 41.609375 39.140625 45 
Q 35.0625 48.390625 27.6875 48.390625 
Q 23 48.390625 18.546875 47.265625 
Q 14.109375 46.140625 10.015625 43.890625 
L 10.015625 52.203125 
Q 14.9375 54.109375 19.578125 55.046875 
Q 24.21875 56 28.609375 56 
Q 40.484375 56 46.34375 49.84375 
Q 52.203125 43.703125 52.203125 31.203125 
z
" id="DejaVuSans-97"/>
      <path d="M 45.40625 27.984375 
Q 45.40625 37.75 41.375 43.109375 
Q 37.359375 48.484375 30.078125 48.484375 
Q 22.859375 48.484375 18.828125 43.109375 
Q 14.796875 37.75 14.796875 27.984375 
Q 14.796875 18.265625 18.828125 12.890625 
Q 22.859375 7.515625 30.078125 7.515625 
Q 37.359375 7.515625 41.375 12.890625 
Q 45.40625 18.265625 45.40625 27.984375 
z
M 54.390625 6.78125 
Q 54.390625 -7.171875 48.1875 -13.984375 
Q 42 -20.796875 29.203125 -20.796875 
Q 24.46875 -20.796875 20.265625 -20.09375 
Q 16.0625 -19.390625 12.109375 -17.921875 
L 12.109375 -9.1875 
Q 16.0625 -11.328125 19.921875 -12.34375 
Q 23.78125 -13.375 27.78125 -13.375 
Q 36.625 -13.375 41.015625 -8.765625 
Q 45.40625 -4.15625 45.40625 5.171875 
L 45.40625 9.625 
Q 42.625 4.78125 38.28125 2.390625 
Q 33.9375 0 27.875 0 
Q 17.828125 0 11.671875 7.65625 
Q 5.515625 15.328125 5.515625 27.984375 
Q 5.515625 40.671875 11.671875 48.328125 
Q 17.828125 56 27.875 56 
Q 33.9375 56 38.28125 53.609375 
Q 42.625 51.21875 45.40625 46.390625 
L 45.40625 54.6875 
L 54.390625 54.6875 
z
" id="DejaVuSans-103"/>
      <path d="M 8.59375 75.984375 
L 29.296875 75.984375 
L 29.296875 69 
L 17.578125 69 
L 17.578125 -6.203125 
L 29.296875 -6.203125 
L 29.296875 -13.1875 
L 8.59375 -13.1875 
z
" id="DejaVuSans-91"/>
      <path d="M 28.609375 0 
L 0.78125 72.90625 
L 11.078125 72.90625 
L 34.1875 11.53125 
L 57.328125 72.90625 
L 67.578125 72.90625 
L 39.796875 0 
z
" id="DejaVuSans-86"/>
      <path d="M 30.421875 75.984375 
L 30.421875 -13.1875 
L 9.71875 -13.1875 
L 9.71875 -6.203125 
L 21.390625 -6.203125 
L 21.390625 69 
L 9.71875 69 
L 9.71875 75.984375 
z
" id="DejaVuSans-93"/>
     </defs>
     <g transform="translate(12.292187 194.168281)rotate(-90)scale(0.1 -0.1)">
      <use xlink:href="#DejaVuSans-118"/>
      <use x="59.179688" xlink:href="#DejaVuSans-111"/>
      <use x="120.361328" xlink:href="#DejaVuSans-108"/>
      <use x="148.144531" xlink:href="#DejaVuSans-116"/>
      <use x="187.353516" xlink:href="#DejaVuSans-97"/>
      <use x="248.632812" xlink:href="#DejaVuSans-103"/>
      <use x="312.109375" xlink:href="#DejaVuSans-101"/>
      <use x="373.632812" xlink:href="#DejaVuSans-32"/>
      <use x="405.419922" xlink:href="#DejaVuSans-109"/>
      <use x="502.832031" xlink:href="#DejaVuSans-97"/>
      <use x="564.111328" xlink:href="#DejaVuSans-103"/>
      <use x="627.587891" xlink:href="#DejaVuSans-46"/>
      <use x="659.375" xlink:href="#DejaVuSans-32"/>
      <use x="691.162109" xlink:href="#DejaVuSans-91"/>
      <use x="730.175781" xlink:href="#DejaVuSans-86"/>
      <use x="798.474609" xlink:href="#DejaVuSans-111"/>
      <use x="859.65625" xlink:href="#DejaVuSans-108"/>
      <use x="887.439453" xlink:href="#DejaVuSans-116"/>
      <use x="926.648438" xlink:href="#DejaVuSans-115"/>
      <use x="978.748047" xlink:href="#DejaVuSans-93"/>
     </g>
    </g>
   </g>
   <g id="line2d_33">
    <path clip-path="url(#pff2850d4c1)" d="M 54 52.801489 
L 54.232662 52.9247 
L 54.930646 52.575601 
L 55.163308 52.955503 
L 55.628631 52.698812 
L 55.861293 52.503727 
L 56.093954 51.476964 
L 56.326616 51.897937 
L 56.559277 51.692584 
L 56.791939 51.71312 
L 57.0246 51.53857 
L 57.257262 51.610443 
L 57.489924 51.528302 
L 57.722585 50.357792 
L 58.187908 50.429666 
L 58.42057 51.826064 
L 59.118555 51.764458 
L 59.351216 51.014921 
L 59.583878 51.446161 
L 59.816539 51.281879 
L 60.281862 51.292147 
L 60.514524 51.035456 
L 60.747186 51.158668 
L 60.979847 51.682317 
L 61.44517 51.559105 
L 61.910493 51.569373 
L 62.143155 51.990346 
L 62.375817 51.918472 
L 63.771786 52.175163 
L 64.237109 51.867134 
L 64.469771 51.92874 
L 65.167755 51.71312 
L 65.86574 53.540758 
L 66.098402 53.592096 
L 66.331063 54.136281 
L 66.563725 53.70504 
L 67.029048 53.674237 
L 67.26171 54.074675 
L 67.494371 56.261681 
L 67.727033 56.189807 
L 67.959694 56.703189 
L 68.192356 57.883966 
L 68.425017 58.037981 
L 68.657679 59.773211 
L 68.890341 59.033941 
L 69.355664 59.567858 
L 69.588325 60.070972 
L 69.820987 59.793746 
L 70.053648 59.198223 
L 70.28631 59.311167 
L 70.518972 58.284404 
L 70.751633 58.674574 
L 71.216956 58.705377 
L 71.449618 57.134429 
L 71.682279 56.39516 
L 71.914941 58.500024 
L 72.147603 57.144697 
L 72.612926 57.093359 
L 72.845587 55.994722 
L 73.078249 56.00499 
L 73.31091 55.080903 
L 73.543572 55.604552 
L 73.776233 55.44027 
L 74.008895 55.933116 
L 74.241557 55.840708 
L 74.474218 56.025525 
L 75.637526 56.015257 
L 75.870188 55.317058 
L 76.102849 55.337594 
L 76.335511 57.493796 
L 76.568172 56.323286 
L 76.800834 56.343822 
L 77.033495 55.471073 
L 77.266157 55.563482 
L 77.498819 55.142509 
L 77.964142 55.132241 
L 78.662126 55.204114 
L 78.894788 54.156816 
L 79.360111 54.362169 
L 79.592773 54.05414 
L 80.290757 54.09521 
L 80.523419 54.567521 
L 80.756081 54.557254 
L 80.988742 53.859055 
L 81.221404 54.064407 
L 81.454065 53.355941 
L 81.686727 54.023337 
L 81.919388 54.033604 
L 82.15205 54.618859 
L 82.384712 54.546986 
L 82.617373 54.331366 
L 82.850035 54.331366 
L 83.082696 54.05414 
L 83.548019 54.05414 
L 83.780681 53.633167 
L 84.013343 55.584017 
L 84.246004 55.450538 
L 84.478666 55.809905 
L 84.711327 55.214382 
L 84.943989 55.532679 
L 85.409312 55.430002 
L 85.641974 55.481341 
L 85.874635 54.772874 
L 86.339958 55.501876 
L 86.57262 54.505916 
L 87.037943 54.043872 
L 87.735928 56.364357 
L 87.968589 57.95584 
L 88.201251 57.668346 
L 88.433912 58.500024 
L 88.666574 57.247373 
L 88.899236 57.658078 
L 89.131897 57.011218 
L 89.364559 57.637543 
L 89.59722 57.021485 
L 90.295205 57.042021 
L 90.527867 57.1755 
L 90.760528 57.1755 
L 90.99319 56.713456 
L 91.225851 56.898274 
L 91.458513 56.518371 
L 91.691174 56.795597 
L 91.923836 58.253601 
L 92.156498 57.575937 
L 92.389159 56.00499 
L 92.854482 57.072823 
L 93.087144 56.425963 
L 93.319805 57.411655 
L 93.552467 56.148737 
L 93.785129 57.914769 
L 94.250452 57.914769 
L 94.483113 57.462993 
L 95.181098 57.226838 
L 95.41376 57.288444 
L 95.646421 57.534867 
L 95.879083 57.278176 
L 96.344406 57.678614 
L 96.809729 57.237106 
L 97.042391 55.768834 
L 97.275052 55.789369 
L 97.507714 55.676426 
L 97.973037 53.14032 
L 98.671022 52.88363 
L 98.903683 51.097062 
L 99.136345 51.353753 
L 99.369006 52.555065 
L 99.601668 52.49346 
L 99.834329 53.859055 
L 100.066991 54.002802 
L 100.299653 53.92066 
L 100.532314 53.181391 
L 100.997637 53.592096 
L 101.230299 53.571561 
L 101.46296 54.855015 
L 101.695622 55.060368 
L 101.928284 50.40913 
L 102.393607 50.142172 
L 102.626268 50.285919 
L 102.85893 50.860906 
L 103.324253 50.501539 
L 103.556915 50.501539 
L 103.789576 50.747962 
L 104.022238 50.070299 
L 104.254899 50.070299 
L 104.487561 50.850639 
L 104.720222 52.195698 
L 104.952884 51.353753 
L 105.185546 52.257304 
L 105.418207 52.123825 
L 105.650869 51.497499 
L 105.88353 52.401051 
L 106.116192 52.021149 
L 106.348853 52.257304 
L 106.581515 57.011218 
L 106.814177 57.493796 
L 107.046838 57.504064 
L 107.2795 57.627276 
L 107.512161 57.99691 
L 107.744823 58.13039 
L 107.977484 57.750487 
L 108.210146 58.38708 
L 108.442808 58.684842 
L 108.675469 57.144697 
L 109.140792 56.898274 
L 109.373454 57.432191 
L 109.606115 57.668346 
L 110.3041 55.214382 
L 110.536762 57.257641 
L 110.769423 57.308979 
L 111.002085 56.056328 
L 111.234746 56.015257 
L 111.467408 55.625087 
L 111.700069 56.949612 
L 111.932731 56.949612 
L 112.165393 57.278176 
L 112.398054 56.959879 
L 112.863377 55.850975 
L 113.096039 55.902313 
L 113.3287 56.384892 
L 113.794024 56.200075 
L 114.259347 56.128201 
L 114.492008 55.789369 
L 114.957331 55.676426 
L 115.189993 54.916621 
L 115.422655 54.567521 
L 115.655316 53.592096 
L 115.887978 53.551026 
L 116.120639 53.807717 
L 116.353301 53.366208 
L 116.585962 53.212194 
L 116.818624 51.559105 
L 117.051286 53.468885 
L 117.516609 53.869322 
L 118.447255 53.715308 
L 118.679917 55.111706 
L 118.912578 55.738031 
L 119.14524 55.738031 
L 119.377901 55.604552 
L 120.308548 56.22061 
L 120.773871 56.456766 
L 121.006532 57.575937 
L 121.239194 56.682653 
L 121.471855 57.493796 
L 121.704517 57.339782 
L 122.16984 56.631315 
L 122.402502 56.518371 
L 122.635163 56.590245 
L 123.100486 57.873699 
L 123.333148 57.99691 
L 123.56581 58.500024 
L 123.798471 58.725912 
L 124.031133 58.263869 
L 124.263794 58.253601 
L 124.729117 60.676762 
L 125.427102 59.773211 
L 125.892425 59.331702 
L 126.125087 58.407616 
L 126.357748 58.541095 
L 126.823072 57.627276 
L 127.055733 57.894234 
L 127.288395 57.534867 
L 127.521056 58.212531 
L 127.753718 58.099587 
L 127.986379 56.898274 
L 128.219041 56.682653 
L 128.451703 55.666158 
L 128.684364 55.666158 
L 129.149687 55.306791 
L 129.61501 53.088982 
L 129.847672 49.854678 
L 130.080334 49.80334 
L 130.312995 50.162707 
L 130.545657 52.976038 
L 130.778318 53.479152 
L 131.01098 53.150588 
L 131.243641 53.047912 
L 131.708965 50.881441 
L 131.941626 50.953315 
L 132.174288 51.71312 
L 132.639611 51.035456 
L 132.872272 50.891709 
L 133.104934 50.347525 
L 133.337596 50.614483 
L 133.802919 48.776577 
L 134.03558 48.602027 
L 134.268242 48.714971 
L 134.500903 49.310494 
L 134.733565 49.433705 
L 134.966227 49.351564 
L 135.198888 49.823875 
L 135.664211 49.731467 
L 135.896873 51.415358 
L 136.129534 51.271611 
L 136.362196 62.216907 
L 136.827519 63.099923 
L 137.060181 48.961394 
L 137.990827 54.074675 
L 138.223489 54.372436 
L 138.45615 55.132241 
L 138.688812 56.631315 
L 138.921473 56.713456 
L 139.154135 56.949612 
L 139.386796 56.805865 
L 139.619458 56.374624 
L 140.084781 58.56163 
L 140.317443 59.044209 
L 140.550104 57.904502 
L 140.782766 57.976375 
L 141.015427 57.914769 
L 141.248089 59.003138 
L 141.480751 61.580314 
L 141.713412 60.748636 
L 141.946074 60.409804 
L 142.411397 60.050437 
L 142.87672 62.114231 
L 143.574705 62.63788 
L 143.807366 60.758903 
L 144.040028 60.923185 
L 144.272689 61.867807 
L 144.505351 61.036129 
L 144.738013 61.672722 
L 145.435997 59.537055 
L 145.668659 59.280364 
L 145.90132 59.229026 
L 146.133982 56.097398 
L 146.366644 55.152776 
L 146.599305 53.355941 
L 146.831967 53.14032 
L 147.064628 53.171123 
L 147.529951 53.633167 
L 147.762613 51.959543 
L 147.995274 51.877402 
L 148.227936 52.021149 
L 148.460598 52.000613 
L 148.693259 51.702852 
L 148.925921 51.723387 
L 149.158582 48.714971 
L 149.391244 48.02704 
L 149.623905 49.023 
L 149.856567 51.18947 
L 150.089229 50.963583 
L 150.32189 45.994049 
L 150.554552 56.929077 
L 150.787213 53.222462 
L 151.019875 65.492281 
L 151.252536 66.549848 
L 151.485198 73.254611 
L 151.71786 61.570046 
L 151.950521 61.631652 
L 152.183183 60.923185 
L 152.415844 60.645959 
L 152.648506 59.773211 
L 152.881167 59.927225 
L 153.113829 46.877065 
L 153.346491 47.154291 
L 153.579152 47.236432 
L 153.811814 55.419735 
L 154.044475 56.025525 
L 154.277137 58.007178 
L 154.509798 61.128538 
L 154.74246 60.964256 
L 154.975122 65.307464 
L 155.207783 55.820172 
L 155.673106 54.772874 
L 155.905768 53.2738 
L 156.138429 53.612632 
L 156.371091 55.584017 
L 156.603753 105.104805 
L 156.836414 105.844074 
L 157.069076 105.597651 
L 157.301737 45.059694 
L 157.534399 44.833806 
L 157.76706 83.347693 
L 157.999722 96.449191 
L 158.232384 97.363011 
L 158.465045 60.317395 
L 158.697707 63.274473 
L 158.930368 62.617345 
L 159.16303 64.23963 
L 159.395691 60.481677 
L 159.628353 60.101775 
L 159.861015 60.389269 
L 160.093676 60.871847 
L 160.326338 60.461142 
L 160.558999 69.465855 
L 160.791661 73.613978 
L 161.024322 73.162202 
L 161.256984 61.908878 
L 161.489646 60.892382 
L 161.722307 97.434884 
L 161.954969 95.453231 
L 162.18763 96.089824 
L 162.420292 58.859391 
L 162.652953 62.186104 
L 162.885615 56.980415 
L 163.118277 56.78533 
L 163.5836 52.503727 
L 163.816261 51.353753 
L 164.048923 61.436567 
L 164.281584 64.332039 
L 164.514246 68.798459 
L 164.746908 48.766309 
L 164.979569 48.345336 
L 165.212231 44.443636 
L 165.444892 54.351901 
L 165.677554 51.168935 
L 166.142877 52.565333 
L 166.375539 66.252086 
L 166.840862 60.204451 
L 167.073523 58.684842 
L 167.771508 71.355099 
L 168.00417 72.114904 
L 168.236831 72.238116 
L 168.469493 73.459964 
L 168.702154 72.710427 
L 168.934816 70.297533 
L 169.167477 72.99792 
L 169.400139 66.693594 
L 169.632801 68.603374 
L 169.865462 66.262354 
L 170.098124 70.071645 
L 170.330785 71.098408 
L 170.796108 67.843569 
L 171.02877 57.627276 
L 171.261432 58.479489 
L 171.494093 59.804013 
L 171.726755 63.479826 
L 171.959416 63.941869 
L 172.192078 63.017782 
L 172.424739 100.525441 
L 172.657401 98.892888 
L 172.890063 99.437072 
L 173.122724 64.136954 
L 173.355386 87.670366 
L 173.588047 88.276156 
L 173.820709 88.481509 
L 174.05337 63.828925 
L 174.286032 64.126686 
L 174.518694 63.993207 
L 174.751355 75.133588 
L 174.984017 73.182738 
L 175.216678 82.074507 
L 175.44934 82.762438 
L 175.682001 83.912413 
L 175.914663 94.169777 
L 176.147325 94.960385 
L 176.379986 90.360486 
L 176.612648 80.329009 
L 176.845309 78.439765 
L 177.077971 78.532174 
L 177.310632 75.143855 
L 177.543294 77.156311 
L 177.775956 75.636702 
L 178.008617 76.745606 
L 178.241279 77.156311 
L 178.706602 85.206135 
L 179.171925 85.031585 
L 179.404587 74.281374 
L 179.637248 79.497331 
L 179.86991 79.558937 
L 180.102571 83.080735 
L 180.335233 84.4874 
L 180.800556 101.203105 
L 181.033218 102.312009 
L 181.265879 99.303593 
L 181.498541 102.363347 
L 181.731202 111.994386 
L 182.196525 104.026704 
L 182.429187 118.1755 
L 182.661849 118.74022 
L 182.89451 127.67306 
L 183.127172 132.324297 
L 183.359833 132.39617 
L 183.825156 125.229363 
L 184.057818 125.516857 
L 184.290479 126.379338 
L 184.523141 134.100597 
L 184.755803 133.433201 
L 184.988464 129.377486 
L 185.221126 131.564492 
L 185.453787 192.205125 
L 185.686449 196.271107 
L 185.91911 205.306623 
L 186.151772 152.808222 
L 186.617095 133.854174 
L 186.849757 134.757725 
L 187.082418 131.523421 
L 187.31508 114.571561 
L 187.547741 114.427815 
L 187.780403 108.85249 
L 188.013065 108.831955 
L 188.245726 100.638385 
L 188.478388 101.059358 
L 188.711049 111.481004 
L 188.943711 115.382704 
L 189.176372 114.910393 
L 189.409034 98.923691 
L 189.641696 93.276493 
L 189.874357 93.707734 
L 190.107019 94.385397 
L 190.33968 98.246027 
L 190.572342 107.969474 
L 190.805003 108.85249 
L 191.270327 98.810747 
L 191.502988 96.613473 
L 191.73565 96.449191 
L 191.968311 154.286761 
L 192.200973 164.903492 
L 192.433634 164.010208 
L 192.666296 102.507094 
L 192.898958 91.695278 
L 193.131619 92.876055 
L 193.596942 93.800142 
L 194.062265 97.065249 
L 194.294927 97.065249 
L 194.527589 104.601691 
L 194.76025 82.444142 
L 194.992912 80.719179 
L 195.225573 80.862926 
L 195.690896 81.97183 
L 195.923558 80.390615 
L 196.15622 93.522916 
L 196.388881 94.067101 
L 196.621543 95.504569 
L 196.854204 85.278008 
L 197.086866 84.887838 
L 197.319527 81.612463 
L 197.784851 92.804182 
L 198.017512 193.006 
L 198.250174 186.270434 
L 198.482835 185.715982 
L 198.715497 85.26774 
L 198.948158 85.031585 
L 199.18082 85.021317 
L 199.413482 69.435052 
L 199.878805 69.743081 
L 200.111466 68.654712 
L 200.344128 68.66498 
L 200.576789 70.184589 
L 200.809451 68.839529 
L 201.042113 70.092181 
L 201.274774 70.6569 
L 201.507436 70.728774 
L 201.740097 70.646633 
L 201.972759 78.408962 
L 202.20542 75.308137 
L 202.438082 76.304098 
L 202.670744 99.139311 
L 202.903405 101.78836 
L 203.136067 102.332544 
L 203.60139 83.532511 
L 203.834051 83.111538 
L 204.066713 79.671881 
L 204.299375 89.30292 
L 204.532036 88.430171 
L 204.764698 88.255621 
L 204.997359 89.498005 
L 205.230021 81.951295 
L 205.462682 81.561125 
L 205.695344 80.082586 
L 205.928006 80.082586 
L 206.393329 75.400546 
L 206.62599 75.29787 
L 206.858652 74.712615 
L 207.091313 73.73719 
L 207.323975 56.672386 
L 208.02196 60.070972 
L 208.254621 58.571898 
L 208.487283 58.233066 
L 208.719944 58.828588 
L 208.952606 68.377486 
L 209.185268 62.24771 
L 209.650591 61.405764 
L 209.883252 66.241819 
L 210.115914 65.656564 
L 210.581237 66.673059 
L 210.813899 67.525273 
L 211.04656 66.560115 
L 211.279222 66.416368 
L 211.511883 68.757388 
L 211.744545 68.962741 
L 211.977206 70.636365 
L 212.209868 70.800647 
L 212.44253 70.759577 
L 212.675191 67.638217 
L 212.907853 73.490767 
L 213.140514 69.886828 
L 213.373176 69.732813 
L 213.605837 53.53049 
L 213.838499 53.787181 
L 214.071161 54.331366 
L 214.303822 63.490093 
L 214.536484 61.703525 
L 214.769145 61.991019 
L 215.234468 60.656227 
L 215.46713 62.822697 
L 215.699792 62.709753 
L 215.932453 63.859728 
L 216.165115 63.366882 
L 216.630438 64.475786 
L 216.863099 64.434715 
L 217.095761 60.430339 
L 217.328423 78.131736 
L 217.561084 76.016604 
L 217.793746 76.221957 
L 218.026407 78.922344 
L 218.259069 79.19957 
L 218.49173 79.127696 
L 218.724392 76.632662 
L 218.957054 77.002297 
L 219.189715 79.066091 
L 219.422377 78.337089 
L 219.655038 77.094705 
L 219.8877 72.125172 
L 220.120361 72.874709 
L 220.353023 73.244343 
L 220.585685 72.186777 
L 220.818346 75.883125 
L 221.051008 74.702347 
L 221.283669 75.154123 
L 221.516331 80.606235 
L 221.748992 95.453231 
L 221.981654 78.213877 
L 222.214315 77.28979 
L 222.446977 92.906858 
L 222.679639 91.746616 
L 222.9123 93.20462 
L 223.144962 93.255958 
L 223.377623 92.711773 
L 223.610285 84.600344 
L 223.842946 65.184253 
L 224.075608 67.268582 
L 224.30827 67.53554 
L 224.540931 67.556075 
L 224.773593 66.046734 
L 225.006254 66.313692 
L 225.238916 58.510292 
L 225.471577 58.325475 
L 225.704239 73.675584 
L 225.936901 81.222293 
L 226.169562 81.19149 
L 226.402224 73.839866 
L 226.867547 75.256799 
L 227.100208 74.147895 
L 227.33287 74.147895 
L 227.798193 75.061714 
L 228.030855 63.366882 
L 228.263516 63.24367 
L 228.728839 60.697297 
L 229.194163 58.027713 
L 229.426824 54.167084 
L 229.659486 54.126013 
L 229.892147 54.475113 
L 230.590132 54.742071 
L 230.822794 54.937156 
L 231.055455 51.53857 
L 231.288117 51.353753 
L 231.75344 50.665821 
L 231.986101 51.004653 
L 232.218763 51.035456 
L 232.451425 49.218085 
L 232.684086 49.135944 
L 232.916748 49.269423 
L 233.149409 52.616671 
L 233.382071 50.912244 
L 233.614732 50.439933 
L 233.847394 50.963583 
L 234.080056 53.181391 
L 234.312717 53.633167 
L 234.545379 52.524263 
L 235.010702 52.216234 
L 235.243363 52.606404 
L 235.476025 63.900799 
L 235.708687 63.777587 
L 235.941348 64.013743 
L 236.17401 56.097398 
L 236.406671 56.857203 
L 236.639333 56.579977 
L 237.104656 56.621048 
L 237.337318 52.585868 
L 237.569979 53.191659 
L 237.802641 48.191322 
L 238.267964 48.170787 
L 238.733287 47.277503 
L 238.965949 48.992197 
L 239.431272 50.296186 
L 239.663933 50.491271 
L 239.896595 48.324801 
L 240.129256 47.944899 
L 240.361918 49.166747 
L 240.59458 52.10329 
L 240.827241 51.856867 
L 241.292564 51.856867 
L 241.525226 51.004653 
L 241.757887 50.655554 
L 241.990549 54.701001 
L 242.223211 54.567521 
L 242.455872 77.916116 
L 242.688534 86.797617 
L 242.921195 82.721368 
L 243.153857 83.399031 
L 243.386518 79.466528 
L 243.851842 77.823707 
L 244.084503 81.212026 
L 244.317165 81.294167 
L 244.782488 81.160688 
L 245.015149 84.374456 
L 245.247811 84.374456 
L 245.480473 85.123993 
L 245.713134 66.519045 
L 245.945796 63.510629 
L 246.178457 63.253938 
L 246.411119 53.561293 
L 246.64378 53.694773 
L 246.876442 53.325138 
L 247.109104 54.362169 
L 247.341765 53.766646 
L 247.574427 57.493796 
L 247.807088 57.812093 
L 248.03975 57.144697 
L 248.272411 58.34601 
L 248.505073 73.449696 
L 248.737735 74.240304 
L 248.970396 73.993881 
L 249.203058 58.376813 
L 249.435719 55.163044 
L 249.668381 75.913928 
L 249.901042 77.628622 
L 250.133704 77.618355 
L 250.366366 78.624583 
L 250.599027 79.014753 
L 250.831689 78.871006 
L 251.06435 82.238789 
L 251.297012 77.474608 
L 251.529673 77.556749 
L 251.762335 79.548669 
L 251.994997 77.567016 
L 252.227658 77.618355 
L 252.46032 74.897432 
L 252.692981 75.041179 
L 252.925643 74.712615 
L 253.158304 76.129548 
L 253.390966 83.676257 
L 253.623628 84.035624 
L 253.856289 78.491103 
L 254.088951 129.634177 
L 254.321612 111.809568 
L 254.554274 116.22465 
L 254.786935 57.647811 
L 255.019597 56.415695 
L 255.252259 67.484202 
L 255.48492 66.744933 
L 255.717582 65.41014 
L 255.950243 69.558264 
L 256.182905 67.124835 
L 256.415566 67.36099 
L 256.648228 71.858213 
L 256.88089 73.470231 
L 257.113551 72.967117 
L 257.346213 57.144697 
L 257.578874 57.247373 
L 257.811536 58.859391 
L 258.044197 71.406437 
L 258.276859 70.923859 
L 258.509521 79.363852 
L 258.742182 68.151598 
L 258.974844 67.124835 
L 259.207505 58.9518 
L 259.440167 67.176173 
L 259.672828 67.237779 
L 259.90549 68.685515 
L 260.138151 60.707565 
L 260.370813 72.648821 
L 260.603475 73.624246 
L 260.836136 73.685852 
L 261.068798 60.769171 
L 261.301459 60.33793 
L 261.534121 61.262017 
L 261.999444 57.894234 
L 262.232106 57.74022 
L 262.464767 57.966107 
L 262.697429 57.586205 
L 262.93009 58.037981 
L 263.162752 56.61078 
L 263.395413 61.097735 
L 263.628075 60.656227 
L 263.860737 60.522748 
L 264.093398 48.170787 
L 264.32606 65.235591 
L 264.791383 65.091844 
L 265.024044 63.98294 
L 265.256706 64.424448 
L 265.489368 66.878412 
L 265.722029 70.759577 
L 265.954691 70.564492 
L 266.187352 71.077873 
L 266.420014 75.605899 
L 266.652675 75.133588 
L 266.885337 75.287602 
L 267.35066 81.910225 
L 267.583322 80.462489 
L 267.815983 99.385734 
L 268.048645 99.334396 
L 268.281306 96.551868 
L 268.513968 98.862085 
L 268.74663 99.118776 
L 268.979291 84.025357 
L 269.211953 85.462825 
L 269.677276 86.325306 
L 269.909937 85.996742 
L 270.142599 86.427983 
L 270.375261 82.084774 
L 270.607922 82.351733 
L 270.840584 83.861075 
L 271.305907 84.312851 
L 271.538568 84.158836 
L 271.77123 85.770854 
L 272.003892 85.781122 
L 272.236553 88.235086 
L 272.701876 83.563313 
L 272.934538 82.526283 
L 273.167199 100.874541 
L 273.399861 110.187283 
L 273.632523 124.295009 
L 273.865184 124.428488 
L 274.097846 112.661782 
L 274.330507 94.334059 
L 274.563169 94.334059 
L 274.79583 95.668851 
L 275.028492 99.950454 
L 275.261154 99.899116 
L 275.493815 96.993376 
L 275.726477 95.905007 
L 275.959138 96.120627 
L 276.1918 105.587384 
L 276.657123 106.829767 
L 276.889785 108.626603 
L 277.122446 108.821688 
L 277.355108 107.569037 
L 277.587769 108.554729 
L 277.820431 90.206471 
L 278.285754 93.42024 
L 278.518416 93.24569 
L 278.751077 94.847441 
L 278.983739 106.347188 
L 279.2164 106.100765 
L 279.449062 106.388259 
L 279.681723 98.872352 
L 279.914385 95.15547 
L 280.147047 95.237611 
L 280.379708 115.413507 
L 280.61237 117.95988 
L 280.845031 118.688882 
L 281.310354 122.200412 
L 281.543016 123.98698 
L 281.775678 98.328168 
L 282.008339 98.759408 
L 282.241001 93.913086 
L 282.706324 100.258483 
L 282.938985 108.041348 
L 283.171647 109.263196 
L 283.404309 108.575264 
L 283.63697 106.100765 
L 283.869632 91.68501 
L 284.102293 94.847441 
L 284.334955 100.884808 
L 284.567616 125.280701 
L 284.800278 124.048585 
L 285.03294 125.167757 
L 285.265601 97.794251 
L 285.498263 103.95483 
L 285.730924 106.480668 
L 286.196247 92.023842 
L 286.428909 100.525441 
L 286.894232 95.227343 
L 287.126894 94.785835 
L 287.592217 80.226333 
L 287.824878 86.232898 
L 288.05754 81.037476 
L 288.290202 81.119617 
L 288.522863 77.104973 
L 288.755525 79.887501 
L 288.988186 102.045051 
L 289.220848 101.213372 
L 289.453509 101.151767 
L 289.918833 103.400378 
L 290.151494 102.804855 
L 290.384156 103.153955 
L 290.616817 103.236096 
L 290.849479 90.986811 
L 291.08214 89.888175 
L 291.314802 92.496153 
L 291.547464 92.629632 
L 291.780125 94.344327 
L 292.012787 98.810747 
L 292.245448 108.513659 
L 292.47811 103.585195 
L 292.710771 77.81344 
L 292.943433 64.598998 
L 293.176095 66.837341 
L 293.641418 73.511302 
L 293.874079 72.535877 
L 294.106741 66.744933 
L 294.339402 67.206976 
L 294.804726 68.818994 
L 295.037387 68.161866 
L 295.270049 67.935978 
L 295.50271 68.233739 
L 295.735372 69.814954 
L 295.968033 75.698307 
L 296.200695 76.201421 
L 296.433356 76.037139 
L 296.666018 76.447845 
L 296.89868 77.146044 
L 297.131341 79.620543 
L 297.364003 79.476796 
L 297.596664 88.34803 
L 297.829326 88.77927 
L 298.061987 90.945741 
L 298.294649 85.308811 
L 298.527311 84.507936 
L 298.759972 79.497331 
L 298.992634 77.187114 
L 299.225295 76.807212 
L 299.457957 77.217917 
L 299.690618 77.361664 
L 300.155942 78.039328 
L 300.388603 77.053635 
L 301.086588 75.883125 
L 301.319249 76.365704 
L 301.551911 78.080398 
L 301.784573 71.930087 
L 302.017234 72.268918 
L 302.249896 66.652524 
L 302.482557 69.784152 
L 302.715219 70.328336 
L 302.94788 70.133251 
L 303.180542 71.04707 
L 303.413204 69.476123 
L 303.878527 71.324296 
L 304.111188 71.642593 
L 304.34385 78.193342 
L 304.576511 78.20361 
L 304.809173 77.823707 
L 305.041835 67.463667 
L 305.274496 63.223135 
L 305.507158 83.984286 
L 305.739819 90.678782 
L 305.972481 92.958196 
L 306.205142 93.789875 
L 306.437804 90.596641 
L 306.670466 91.068952 
L 306.903127 109.386407 
L 307.135789 107.651178 
L 307.36845 107.117261 
L 308.066435 111.522075 
L 308.531758 110.752002 
L 308.997081 105.104805 
L 309.229743 81.314702 
L 309.462404 89.826569 
L 309.927728 95.596978 
L 310.160389 88.214551 
L 310.393051 87.39314 
L 310.625712 87.280196 
L 310.858374 87.680634 
L 311.091035 88.881947 
L 311.323697 93.779607 
L 311.556359 74.51753 
L 311.78902 85.668178 
L 312.021682 89.528807 
L 312.254343 89.744428 
L 312.487005 90.381021 
L 312.719666 88.255621 
L 312.952328 88.512312 
L 313.18499 85.534699 
L 313.417651 88.789538 
L 313.650313 88.430171 
L 313.882974 89.385061 
L 314.115636 91.192164 
L 314.348297 88.645791 
L 314.813621 81.304434 
L 315.046282 80.852659 
L 315.278944 77.833975 
L 315.511605 67.36099 
L 315.744267 71.591255 
L 315.976928 71.519381 
L 316.20959 71.776072 
L 316.442252 68.613642 
L 316.674913 67.71009 
L 316.907575 67.381526 
L 317.140236 67.720358 
L 317.372898 68.346683 
L 317.605559 58.920997 
L 317.838221 58.664306 
L 318.070883 59.352238 
L 318.303544 73.56264 
L 318.536206 73.531837 
L 318.768867 74.065754 
L 319.001529 65.502549 
L 319.466852 69.219432 
L 319.699514 67.196708 
L 319.932175 66.796271 
L 320.164837 68.49043 
L 320.397498 71.868481 
L 320.63016 71.991692 
L 321.095483 66.406101 
L 321.328145 66.354763 
L 321.560806 68.716318 
L 321.793468 64.342307 
L 322.026129 65.050773 
L 322.258791 62.268245 
L 322.724114 71.170282 
L 323.189437 70.287266 
L 323.422099 62.750824 
L 323.65476 69.907363 
L 323.887422 82.290127 
L 324.120083 81.684337 
L 324.585407 72.135439 
L 324.818068 77.310326 
L 325.05073 67.206976 
L 325.283391 80.811588 
L 325.516053 86.119954 
L 325.981376 86.941364 
L 326.214038 102.620038 
L 326.446699 102.086121 
L 326.679361 100.782132 
L 326.912022 83.604384 
L 327.144684 85.370417 
L 327.377345 102.168262 
L 327.610007 99.970989 
L 327.842669 100.977217 
L 328.07533 99.539748 
L 328.307992 99.642425 
L 328.540653 104.858382 
L 328.773315 106.778429 
L 329.005976 105.577116 
L 329.238638 105.186946 
L 329.4713 103.811083 
L 329.703961 103.277166 
L 329.936623 91.941701 
L 330.169284 91.027882 
L 330.401946 91.880095 
L 330.634607 93.728269 
L 330.867269 87.660098 
L 331.099931 85.031585 
L 331.332592 96.048754 
L 331.565254 97.989336 
L 331.797915 97.71211 
L 332.030577 81.078547 
L 332.263238 81.263364 
L 332.4959 76.622394 
L 332.728562 75.883125 
L 332.961223 75.68804 
L 333.193885 74.188966 
L 333.426546 74.630474 
L 333.659208 75.400546 
L 333.891869 75.256799 
L 334.124531 74.979573 
L 334.357192 75.246532 
L 334.589854 83.583849 
L 334.822516 83.152608 
L 335.055177 78.429498 
L 335.287839 70.780112 
L 335.5205 76.591591 
L 335.753162 76.673732 
L 335.985823 73.716655 
L 336.218485 77.608087 
L 336.451147 76.85855 
L 336.683808 75.718843 
L 336.91647 75.985801 
L 337.149131 75.400546 
L 337.614454 78.696456 
L 337.847116 93.091676 
L 338.079778 92.804182 
L 338.312439 99.775904 
L 338.545101 84.918641 
L 338.777762 85.021317 
L 339.010424 76.992029 
L 339.243085 75.236264 
L 339.475747 74.753685 
L 339.708409 75.246532 
L 339.94107 76.242492 
L 340.173732 75.12332 
L 340.406393 72.412665 
L 340.639055 74.271107 
L 340.871716 74.250571 
L 341.104378 76.365704 
L 341.33704 76.324633 
L 341.569701 74.209501 
L 341.802363 109.293999 
L 342.035024 108.441785 
L 342.267686 109.797113 
L 342.500347 92.24973 
L 342.733009 91.818489 
L 342.965671 91.68501 
L 343.198332 91.274305 
L 343.430994 90.627444 
L 343.663655 91.212699 
L 343.896317 91.459122 
L 344.128978 92.537224 
L 344.36164 92.157321 
L 344.594302 92.876055 
L 345.059625 108.123489 
L 345.292286 108.349377 
L 345.757609 93.214887 
L 345.990271 93.286761 
L 346.222933 91.058685 
L 346.455594 81.253096 
L 346.688256 81.797281 
L 346.920917 83.737863 
L 347.153579 76.622394 
L 347.38624 74.763953 
L 347.618902 70.256463 
L 347.851564 74.086289 
L 348.084225 74.240304 
L 348.316887 75.51349 
L 348.549548 75.246532 
L 348.78221 71.468043 
L 349.014871 70.44128 
L 349.247533 70.472083 
L 349.480195 70.379674 
L 349.712856 69.66094 
L 349.945518 69.671208 
L 350.178179 70.800647 
L 350.410841 69.938166 
L 350.643502 72.843906 
L 350.876164 71.108676 
L 351.108826 71.82741 
L 351.341487 78.059863 
L 351.574149 76.694268 
L 351.80681 76.447845 
L 352.272133 85.996742 
L 352.504795 88.337762 
L 352.737457 82.115577 
L 352.970118 81.160688 
L 353.20278 81.119617 
L 353.668103 79.815628 
L 353.900764 81.170955 
L 354.133426 76.560789 
L 354.366088 75.985801 
L 354.831411 76.920156 
L 355.064072 75.08225 
L 355.296734 75.954998 
L 355.529395 75.431349 
L 355.762057 78.63485 
L 355.994719 78.624583 
L 356.22738 78.727259 
L 356.460042 89.005158 
L 356.692703 89.148905 
L 356.925365 95.997415 
L 357.158026 95.58671 
L 357.62335 88.635524 
L 357.856011 89.34399 
L 358.088673 88.142677 
L 358.321334 94.056833 
L 358.553996 92.619365 
L 358.786657 92.352406 
L 359.019319 102.845926 
L 359.251981 103.95483 
L 359.484642 103.328505 
L 359.717304 103.195025 
L 359.949965 110.844411 
L 360.182627 112.014921 
L 360.415288 111.357793 
L 360.880612 108.493123 
L 361.113273 99.929918 
L 361.345935 109.550689 
L 361.578596 109.406943 
L 361.811258 107.733319 
L 362.043919 97.794251 
L 362.276581 101.00802 
L 362.509243 100.545976 
L 362.741904 100.587047 
L 362.974566 95.41216 
L 363.207227 95.874204 
L 363.439889 91.181896 
L 363.67255 68.038654 
L 363.905212 68.377486 
L 364.137874 66.642256 
L 364.370535 66.590918 
L 364.603197 66.334227 
L 364.835858 68.531501 
L 365.06852 68.870332 
L 365.533843 72.546145 
L 365.766505 64.999435 
L 365.999166 65.738705 
L 366.464489 65.820846 
L 366.697151 65.58469 
L 366.929812 66.847609 
L 367.395136 65.399873 
L 367.627797 65.553887 
L 367.860459 66.406101 
L 368.09312 68.10026 
L 368.325782 67.638217 
L 368.558443 66.888679 
L 368.791105 61.138806 
L 369.023767 61.878075 
L 369.256428 61.908878 
L 369.48909 72.884976 
L 369.721751 71.889016 
L 369.954413 90.565838 
L 370.187074 95.001455 
L 370.419736 94.559947 
L 370.652397 107.219937 
L 370.885059 100.956682 
L 371.117721 100.545976 
L 371.350382 84.857035 
L 371.583044 85.83246 
L 371.815705 116.388932 
L 372.281028 118.380853 
L 372.51369 87.382872 
L 372.746352 89.395328 
L 372.979013 89.539075 
L 373.211675 85.565502 
L 373.444336 86.356109 
L 373.676998 87.968127 
L 373.909659 88.009198 
L 374.142321 86.243165 
L 374.374983 86.027545 
L 374.607644 66.477974 
L 375.072967 69.034614 
L 375.305629 69.127023 
L 375.770952 70.174322 
L 376.236275 72.556412 
L 376.468937 72.032763 
L 376.701598 96.449191 
L 377.166921 97.907195 
L 377.399583 66.241819 
L 377.632245 66.344495 
L 377.864906 67.237779 
L 378.097568 66.447171 
L 378.562891 62.730289 
L 378.795552 62.134766 
L 379.028214 64.188292 
L 379.260876 63.839193 
L 379.493537 63.757052 
L 379.726199 64.773547 
L 379.95886 64.958365 
L 380.424183 66.046734 
L 380.889507 66.498509 
L 381.35483 63.757052 
L 381.587491 63.869996 
L 381.820153 63.284741 
L 382.052814 60.90265 
L 382.518138 60.286592 
L 382.750799 60.245522 
L 382.983461 52.462657 
L 383.216122 51.990346 
L 383.448784 52.31891 
L 383.681445 59.064744 
L 383.914107 59.34197 
L 384.146769 57.144697 
L 384.37943 56.066596 
L 384.612092 56.692921 
L 384.844753 56.405427 
L 385.077415 55.635355 
L 385.310076 55.26572 
L 385.542738 56.43623 
L 385.7754 56.980415 
L 386.008061 57.237106 
L 386.240723 61.11827 
L 386.473384 61.046397 
L 386.706046 61.878075 
L 386.938707 59.075012 
L 387.171369 59.033941 
L 387.404031 67.114567 
L 387.636692 66.816806 
L 387.869354 67.022159 
L 388.102015 58.869659 
L 388.567338 59.136617 
L 388.8 61.29282 
L 388.8 61.29282 
" style="fill:none;stroke:#008000;stroke-linecap:square;stroke-width:1.5;"/>
   </g>
   <g id="line2d_34">
    <path clip-path="url(#pff2850d4c1)" d="M 54 53.830355 
L 54.232662 53.986292 
L 54.930646 53.664684 
L 55.163308 54.152397 
L 55.628631 53.888773 
L 55.861293 53.690863 
L 56.093954 52.658471 
L 56.326616 53.031872 
L 56.559277 52.81688 
L 56.791939 52.842007 
L 57.0246 52.654713 
L 57.257262 52.733013 
L 57.489924 52.642319 
L 57.722585 51.483438 
L 58.187908 51.568845 
L 58.42057 52.992608 
L 59.118555 52.920082 
L 59.351216 52.055542 
L 59.583878 52.632246 
L 59.816539 52.463823 
L 60.281862 52.473689 
L 60.514524 52.217999 
L 60.747186 52.389678 
L 60.979847 52.875224 
L 61.212509 52.712115 
L 61.910493 52.723962 
L 62.143155 53.233753 
L 62.375817 53.161645 
L 63.306463 53.253503 
L 63.539124 53.560437 
L 63.771786 53.554 
L 64.237109 53.235039 
L 64.469771 53.302415 
L 64.702432 53.116556 
L 65.167755 53.010818 
L 65.86574 55.190142 
L 66.098402 55.239894 
L 66.331063 55.877601 
L 66.563725 55.42909 
L 67.029048 55.529908 
L 67.26171 56.026886 
L 67.494371 58.444579 
L 67.727033 58.361724 
L 67.959694 58.803037 
L 68.192356 60.144978 
L 68.425017 60.305735 
L 68.657679 62.305037 
L 68.890341 61.469672 
L 69.355664 62.013506 
L 69.588325 62.625018 
L 69.820987 62.263042 
L 70.053648 61.545864 
L 70.28631 61.66868 
L 70.518972 60.494706 
L 70.751633 61.034716 
L 71.216956 61.065839 
L 71.449618 59.293084 
L 71.682279 58.469815 
L 71.914941 60.848673 
L 72.147603 59.352489 
L 72.612926 59.3011 
L 72.845587 57.98319 
L 73.078249 57.998755 
L 73.31091 56.8966 
L 73.543572 57.650288 
L 73.776233 57.391817 
L 74.008895 58.095927 
L 74.241557 58.004141 
L 74.474218 58.368278 
L 75.637526 58.366946 
L 75.870188 57.507219 
L 76.102849 57.528256 
L 76.335511 59.970979 
L 76.568172 58.550609 
L 76.800834 58.448852 
L 77.033495 57.425975 
L 77.266157 57.516369 
L 77.498819 57.071461 
L 77.73148 56.930587 
L 78.662126 57.11995 
L 78.894788 55.911144 
L 79.12745 55.767191 
L 79.360111 55.919406 
L 79.592773 55.437492 
L 80.290757 55.46977 
L 80.523419 56.035843 
L 80.756081 56.025407 
L 80.988742 55.201794 
L 81.221404 55.408431 
L 81.454065 54.68402 
L 81.686727 55.470878 
L 81.919388 55.475295 
L 82.15205 56.187556 
L 82.384712 56.115306 
L 82.617373 55.8131 
L 82.850035 55.8131 
L 83.082696 55.534874 
L 83.548019 55.534874 
L 83.780681 55.106687 
L 84.013343 57.345741 
L 84.246004 57.204236 
L 84.478666 57.717405 
L 84.711327 57.015368 
L 84.943989 57.477473 
L 85.409312 57.368843 
L 85.641974 57.421015 
L 85.874635 56.596978 
L 86.339958 57.43726 
L 86.57262 56.297218 
L 87.037943 55.840715 
L 87.735928 58.607194 
L 87.968589 60.456691 
L 88.201251 60.159486 
L 88.433912 61.163342 
L 88.666574 59.774375 
L 88.899236 60.198119 
L 89.131897 59.393254 
L 89.364559 60.119002 
L 89.59722 59.346841 
L 89.829882 59.346841 
L 90.062543 59.159241 
L 90.760528 59.377435 
L 90.99319 58.907596 
L 91.225851 59.091853 
L 91.458513 58.57899 
L 91.691174 58.85757 
L 91.923836 60.713503 
L 92.156498 59.937761 
L 92.389159 58.076066 
L 92.854482 59.465796 
L 93.087144 58.669988 
L 93.319805 59.78637 
L 93.552467 58.250096 
L 93.785129 60.186209 
L 94.250452 60.192639 
L 94.483113 59.625417 
L 95.181098 59.389453 
L 95.41376 59.454168 
L 95.646421 59.697378 
L 95.879083 59.435911 
L 96.344406 59.796128 
L 96.809729 59.335421 
L 97.042391 57.479484 
L 97.275052 57.501037 
L 97.507714 57.378963 
L 97.740375 55.371816 
L 97.973037 54.36933 
L 98.671022 54.105823 
L 98.903683 52.15365 
L 99.136345 52.418654 
L 99.369006 53.761881 
L 99.601668 53.695876 
L 99.834329 55.218762 
L 100.066991 55.361396 
L 100.299653 55.276285 
L 100.532314 54.447911 
L 100.997637 54.964349 
L 101.230299 54.938975 
L 101.46296 56.433325 
L 101.695622 56.646342 
L 101.928284 51.858936 
L 102.393607 51.584175 
L 102.626268 51.730984 
L 102.85893 52.473287 
L 103.324253 52.093851 
L 103.556915 52.18301 
L 103.789576 52.438823 
L 104.022238 51.740689 
L 104.254899 51.742666 
L 104.487561 52.647268 
L 104.720222 54.301881 
L 104.952884 53.365637 
L 105.185546 54.450109 
L 105.418207 54.312739 
L 105.650869 53.604929 
L 105.88353 54.661544 
L 106.116192 54.164049 
L 106.348853 54.535275 
L 106.581515 59.418155 
L 106.814177 60.011078 
L 107.046838 60.01326 
L 107.2795 60.150551 
L 107.512161 60.602431 
L 107.744823 60.664175 
L 107.977484 60.127912 
L 108.210146 60.984345 
L 108.442808 61.36723 
L 108.675469 59.578854 
L 109.140792 59.328731 
L 109.373454 60.067482 
L 109.606115 60.309642 
L 110.3041 57.528476 
L 110.536762 59.893109 
L 110.769423 59.935052 
L 111.002085 58.281378 
L 111.234746 58.251273 
L 111.467408 57.848386 
L 111.700069 59.253843 
L 111.932731 59.253843 
L 112.165393 59.655031 
L 112.630716 58.607839 
L 112.863377 57.905693 
L 113.096039 57.966115 
L 113.3287 58.533858 
L 113.561362 58.276197 
L 114.259347 58.14591 
L 114.492008 57.604865 
L 114.72467 57.547025 
L 114.957331 57.316939 
L 115.189993 56.434231 
L 115.422655 56.07883 
L 115.655316 54.921132 
L 115.887978 54.879981 
L 116.120639 55.144213 
L 116.353301 54.625601 
L 116.585962 54.463054 
L 116.818624 52.645176 
L 117.051286 54.797687 
L 117.516609 55.338982 
L 118.447255 55.18469 
L 118.679917 56.719443 
L 118.912578 57.505764 
L 119.14524 57.505764 
L 119.377901 57.365063 
L 119.843224 57.63834 
L 120.075886 58.117114 
L 120.308548 58.117114 
L 120.773871 58.493575 
L 121.006532 59.772847 
L 121.239194 58.789507 
L 121.471855 59.807047 
L 121.704517 59.632085 
L 122.16984 58.78003 
L 122.402502 58.666859 
L 122.635163 58.754305 
L 123.100486 60.307979 
L 123.333148 60.557668 
L 123.56581 61.147911 
L 123.798471 61.388844 
L 124.031133 60.763344 
L 124.263794 60.75976 
L 124.729117 63.628153 
L 124.961779 63.189373 
L 125.194441 62.508025 
L 125.427102 62.427789 
L 125.892425 61.898384 
L 126.125087 60.813542 
L 126.357748 60.948659 
L 126.823072 59.853071 
L 127.055733 60.129174 
L 127.288395 59.672148 
L 127.521056 60.444115 
L 127.753718 60.358763 
L 127.986379 58.949768 
L 128.219041 58.726217 
L 128.451703 57.530079 
L 128.684364 57.530079 
L 129.149687 57.171248 
L 129.61501 54.65078 
L 129.847672 51.192715 
L 130.080334 51.306236 
L 130.312995 51.811611 
L 130.545657 54.691601 
L 130.778318 55.210097 
L 131.01098 54.781702 
L 131.243641 54.678597 
L 131.708965 52.319391 
L 131.941626 52.400884 
L 132.174288 53.152122 
L 132.639611 52.344546 
L 132.872272 52.193332 
L 133.104934 51.629829 
L 133.337596 51.907774 
L 133.802919 49.896713 
L 134.03558 49.706996 
L 134.268242 49.829159 
L 134.500903 50.443145 
L 134.733565 50.569949 
L 134.966227 50.486646 
L 135.198888 50.951848 
L 135.664211 50.851632 
L 135.896873 52.757589 
L 136.129534 52.609208 
L 136.362196 65.435082 
L 136.827519 66.509945 
L 137.060181 50.390895 
L 137.990827 56.033294 
L 138.223489 56.33594 
L 138.45615 57.099989 
L 138.688812 58.890006 
L 138.921473 58.962498 
L 139.154135 59.250153 
L 139.386796 59.099304 
L 139.619458 58.565796 
L 140.084781 61.065982 
L 140.317443 61.453428 
L 140.550104 60.316927 
L 141.015427 60.296921 
L 141.248089 61.606925 
L 141.480751 64.483143 
L 141.713412 63.470672 
L 141.946074 63.010603 
L 142.411397 62.637785 
L 142.87672 65.044325 
L 143.574705 65.620207 
L 143.807366 63.586078 
L 144.040028 63.880991 
L 144.272689 65.047357 
L 144.505351 64.126978 
L 144.738013 64.775206 
L 145.435997 62.130139 
L 145.668659 61.872732 
L 145.90132 61.820037 
L 146.133982 58.448835 
L 146.366644 57.335323 
L 146.599305 55.364102 
L 146.831967 55.143296 
L 147.064628 55.234545 
L 147.29729 55.746244 
L 147.529951 55.900264 
L 147.762613 54.103499 
L 147.995274 53.999226 
L 148.227936 54.157705 
L 148.460598 54.136956 
L 148.693259 53.716502 
L 148.925921 53.789983 
L 149.158582 50.696046 
L 149.391244 49.783528 
L 149.623905 50.960107 
L 149.856567 53.132024 
L 150.089229 52.917842 
L 150.32189 47.801683 
L 150.554552 61.449257 
L 150.787213 57.621962 
L 151.019875 71.974317 
L 151.252536 73.103751 
L 151.485198 80.291149 
L 151.71786 66.636658 
L 151.950521 66.68849 
L 152.648506 64.526149 
L 152.881167 64.738385 
L 153.113829 51.100798 
L 153.579152 51.474526 
L 153.811814 60.51678 
L 154.044475 61.232298 
L 154.509798 66.342241 
L 154.74246 66.09752 
L 154.975122 70.62217 
L 155.207783 58.592606 
L 155.673106 57.454568 
L 155.905768 56.013549 
L 156.138429 56.383593 
L 156.371091 58.685037 
L 156.603753 117.375703 
L 156.836414 118.208217 
L 157.069076 117.972221 
L 157.301737 47.667028 
L 157.534399 47.392716 
L 157.76706 95.136138 
L 157.999722 109.082279 
L 158.232384 110.182815 
L 158.465045 64.007085 
L 158.697707 68.256475 
L 158.930368 67.547454 
L 159.16303 69.343173 
L 159.395691 64.319795 
L 159.628353 63.820902 
L 160.093676 64.753995 
L 160.326338 64.42761 
L 160.791661 81.612979 
L 161.024322 80.865667 
L 161.256984 67.088633 
L 161.489646 65.953482 
L 161.722307 111.798364 
L 161.954969 109.871615 
L 162.18763 110.535411 
L 162.420292 63.929422 
L 162.652953 67.431092 
L 162.885615 61.999582 
L 163.118277 61.736896 
L 163.5836 57.378523 
L 163.816261 56.066437 
L 164.048923 68.006129 
L 164.281584 71.21803 
L 164.514246 77.095117 
L 164.746908 54.714635 
L 164.979569 54.18964 
L 165.212231 49.031154 
L 165.444892 59.434296 
L 165.677554 56.234003 
L 166.142877 57.64697 
L 166.375539 74.538355 
L 167.073523 65.442431 
L 168.00417 79.822961 
L 168.236831 79.960643 
L 168.469493 82.325075 
L 168.702154 81.3392 
L 168.934816 78.534293 
L 169.167477 81.061176 
L 169.400139 74.883373 
L 169.632801 76.806818 
L 169.865462 73.687918 
L 170.098124 77.146825 
L 170.330785 78.103936 
L 170.796108 74.544408 
L 171.02877 61.771803 
L 171.261432 62.679569 
L 171.494093 64.155007 
L 171.726755 68.411632 
L 171.959416 68.921705 
L 172.192078 67.852683 
L 172.424739 114.806925 
L 172.657401 112.679329 
L 172.890063 113.38705 
L 173.122724 69.200231 
L 173.355386 100.469369 
L 173.820709 101.220317 
L 174.05337 68.625012 
L 174.286032 68.830983 
L 174.518694 68.692117 
L 174.751355 82.601582 
L 174.984017 80.477058 
L 175.216678 91.655099 
L 175.44934 92.406215 
L 175.682001 93.594399 
L 175.914663 105.809968 
L 176.147325 106.664971 
L 176.379986 101.910809 
L 176.612648 89.959553 
L 176.845309 88.041525 
L 177.077971 88.147396 
L 177.310632 84.495591 
L 177.543294 86.627782 
L 177.775956 84.61321 
L 178.008617 85.616176 
L 178.241279 85.990257 
L 178.47394 89.999451 
L 178.706602 96.112772 
L 179.171925 95.898693 
L 179.404587 82.962431 
L 179.637248 89.296134 
L 179.86991 89.36969 
L 180.102571 93.021458 
L 180.335233 94.363376 
L 180.800556 114.335097 
L 181.033218 115.644363 
L 181.265879 112.509725 
L 181.498541 113.887746 
L 181.731202 126.315761 
L 182.196525 116.645117 
L 182.429187 134.653855 
L 182.661849 135.242206 
L 183.127172 152.718093 
L 183.359833 152.755119 
L 183.825156 142.126008 
L 184.057818 142.52768 
L 184.290479 143.479266 
L 184.523141 153.860576 
L 184.755803 153.094601 
L 184.988464 149.252153 
L 185.221126 151.518205 
L 185.453787 226.627217 
L 185.686449 230.41262 
L 185.91911 242.116364 
L 186.151772 177.330693 
L 186.617095 153.669635 
L 186.849757 154.748265 
L 187.082418 149.787365 
L 187.31508 128.753403 
L 187.547741 128.60074 
L 187.780403 121.180965 
L 188.013065 121.161512 
L 188.245726 110.364329 
L 188.478388 110.895205 
L 188.711049 123.336621 
L 188.943711 128.65998 
L 189.176372 128.088685 
L 189.409034 109.854318 
L 189.641696 102.743493 
L 190.107019 104.132934 
L 190.33968 108.847639 
L 190.572342 120.391376 
L 190.805003 121.264027 
L 191.270327 110.444253 
L 191.502988 107.649479 
L 191.73565 107.500028 
L 191.968311 177.414433 
L 192.200973 190.114616 
L 192.433634 189.016435 
L 192.666296 115.260671 
L 192.898958 102.338138 
L 193.131619 104.069287 
L 193.364281 103.693103 
L 193.596942 104.0833 
L 194.062265 107.169538 
L 194.294927 107.169538 
L 194.527589 116.628024 
L 194.76025 92.043894 
L 194.992912 90.122899 
L 195.225573 90.35162 
L 195.690896 91.685209 
L 195.923558 89.958406 
L 196.15622 105.496529 
L 196.388881 106.245558 
L 196.621543 107.715528 
L 196.854204 95.327027 
L 197.086866 94.860403 
L 197.319527 91.435235 
L 197.784851 106.100864 
L 198.017512 217.620002 
L 198.250174 208.81975 
L 198.482835 208.18546 
L 198.715497 96.708593 
L 198.948158 96.418778 
L 199.18082 96.415864 
L 199.413482 76.827735 
L 199.878805 77.285249 
L 200.111466 76.039233 
L 200.344128 76.026481 
L 200.576789 77.660974 
L 200.809451 75.991577 
L 201.274774 78.212533 
L 201.507436 78.195555 
L 201.740097 77.965663 
L 201.972759 86.483101 
L 202.20542 83.211773 
L 202.438082 84.282406 
L 202.670744 110.000583 
L 202.903405 112.604422 
L 203.136067 113.157248 
L 203.60139 93.405522 
L 203.834051 92.930615 
L 204.066713 87.862894 
L 204.299375 98.426549 
L 204.532036 97.449289 
L 204.764698 97.112743 
L 204.997359 98.53703 
L 205.230021 88.6465 
L 205.462682 88.291066 
L 205.695344 86.59845 
L 205.928006 86.602294 
L 206.393329 81.559578 
L 206.62599 81.45106 
L 206.858652 80.769855 
L 207.091313 79.479468 
L 207.323975 60.033513 
L 208.02196 64.177508 
L 208.254621 62.613621 
L 208.487283 62.260094 
L 208.719944 62.950542 
L 208.952606 74.146061 
L 209.185268 67.965421 
L 209.417929 67.08087 
L 209.650591 66.740807 
L 209.883252 71.519944 
L 210.115914 70.934382 
L 210.813899 73.0582 
L 211.04656 72.260238 
L 211.279222 72.054267 
L 211.511883 74.98551 
L 211.744545 75.196165 
L 211.977206 77.326963 
L 212.209868 77.519405 
L 212.44253 77.477988 
L 212.675191 73.800851 
L 212.907853 81.594398 
L 213.140514 77.105823 
L 213.373176 77.010283 
L 213.605837 58.409448 
L 213.838499 58.753522 
L 214.071161 59.377628 
L 214.303822 68.789188 
L 214.536484 66.693854 
L 214.769145 67.045519 
L 215.234468 65.591132 
L 215.46713 68.421324 
L 215.699792 68.303963 
L 215.932453 69.457432 
L 216.165115 68.992206 
L 216.630438 70.323897 
L 216.863099 70.247675 
L 217.095761 66.115636 
L 217.328423 86.526851 
L 217.561084 84.445697 
L 217.793746 84.653899 
L 218.026407 87.841134 
L 218.259069 88.135911 
L 218.49173 88.054222 
L 218.724392 85.025712 
L 218.957054 85.584912 
L 219.189715 87.809068 
L 219.422377 87.041119 
L 219.655038 85.620159 
L 219.8877 80.436234 
L 220.353023 81.902049 
L 220.585685 80.556846 
L 220.818346 85.05658 
L 221.051008 83.863644 
L 221.283669 84.425054 
L 221.516331 89.44765 
L 221.748992 106.858619 
L 221.981654 87.027528 
L 222.214315 86.138083 
L 222.446977 103.521582 
L 222.679639 102.144551 
L 222.9123 103.279613 
L 223.144962 103.549062 
L 223.377623 103.24925 
L 223.610285 93.257246 
L 223.842946 70.950976 
L 224.075608 73.123007 
L 224.30827 73.401046 
L 224.540931 73.423773 
L 224.773593 71.496873 
L 225.006254 71.825997 
L 225.238916 63.596055 
L 225.471577 63.304572 
L 225.704239 82.714342 
L 225.936901 90.62856 
L 226.169562 90.565677 
L 226.402224 81.485072 
L 226.867547 83.03943 
L 227.100208 81.678767 
L 227.33287 81.686575 
L 227.798193 82.594524 
L 228.030855 68.290727 
L 228.263516 68.156157 
L 228.728839 65.477726 
L 229.194163 62.346316 
L 229.426824 56.555034 
L 229.659486 56.520532 
L 229.892147 56.984835 
L 230.590132 57.273571 
L 230.822794 57.40167 
L 231.055455 53.870844 
L 231.288117 53.691006 
L 231.520778 53.140526 
L 231.75344 52.937561 
L 231.986101 53.404028 
L 232.218763 53.366224 
L 232.451425 51.560363 
L 232.684086 51.482221 
L 232.916748 51.609718 
L 233.149409 54.9857 
L 233.382071 53.266389 
L 233.614732 52.708273 
L 233.847394 53.246605 
L 234.080056 55.445157 
L 234.312717 56.043998 
L 234.545379 54.73689 
L 234.77804 54.606543 
L 235.010702 54.339022 
L 235.243363 54.659029 
L 235.476025 67.946831 
L 235.708687 67.825149 
L 235.941348 68.066697 
L 236.17401 58.281964 
L 236.406671 59.069543 
L 236.639333 58.76607 
L 237.104656 58.82176 
L 237.337318 54.654329 
L 237.569979 55.415347 
L 237.802641 50.184665 
L 238.267964 50.158969 
L 238.733287 49.064125 
L 238.965949 50.954188 
L 239.431272 52.438707 
L 239.663933 52.647094 
L 239.896595 50.51512 
L 240.129256 50.12664 
L 240.361918 51.686869 
L 240.59458 54.689407 
L 240.827241 54.336635 
L 241.059903 54.373147 
L 241.292564 54.16578 
L 241.525226 53.157331 
L 241.757887 52.731631 
L 241.990549 56.935774 
L 242.223211 56.793174 
L 242.455872 83.100659 
L 242.688534 94.291617 
L 242.921195 90.073885 
L 243.153857 90.995319 
L 243.386518 87.081089 
L 243.851842 85.194281 
L 244.084503 88.552543 
L 244.317165 88.671142 
L 244.782488 88.533923 
L 245.015149 92.075532 
L 245.247811 92.075532 
L 245.480473 92.984748 
L 245.713134 71.572398 
L 245.945796 68.262276 
L 246.178457 68.001915 
L 246.411119 55.87178 
L 246.64378 56.031681 
L 246.876442 55.650709 
L 247.109104 56.88857 
L 247.341765 56.214529 
L 247.574427 60.091192 
L 247.807088 60.73331 
L 248.03975 60.043466 
L 248.272411 61.362607 
L 248.505073 78.111252 
L 248.737735 79.105453 
L 248.970396 78.86729 
L 249.203058 61.60071 
L 249.435719 58.373382 
L 249.668381 81.753868 
L 249.901042 83.64805 
L 250.133704 83.635288 
L 250.366366 84.79268 
L 250.599027 85.261865 
L 250.831689 85.115587 
L 251.06435 88.752847 
L 251.297012 83.689863 
L 251.529673 83.776394 
L 251.762335 86.01087 
L 251.994997 83.894512 
L 252.227658 83.95079 
L 252.46032 81.010511 
L 252.692981 81.089637 
L 252.925643 80.49317 
L 253.158304 81.881569 
L 253.390966 91.363816 
L 253.623628 91.724516 
L 253.856289 85.875695 
L 254.088951 143.889321 
L 254.321612 123.365019 
L 254.554274 127.793935 
L 254.786935 60.55768 
L 255.019597 59.354881 
L 255.252259 73.114114 
L 255.48492 72.30736 
L 255.717582 70.83141 
L 255.950243 75.127078 
L 256.182905 72.602984 
L 256.415566 72.848475 
L 256.648228 78.947705 
L 256.88089 80.486169 
L 257.113551 79.843618 
L 257.346213 61.948111 
L 257.578874 62.161342 
L 257.811536 63.978319 
L 258.044197 77.158359 
L 258.276859 76.563215 
L 258.509521 87.101404 
L 258.742182 73.074859 
L 258.974844 71.911365 
L 259.207505 61.895526 
L 259.440167 72.129673 
L 259.672828 72.186303 
L 259.90549 73.907751 
L 260.138151 63.959117 
L 260.370813 77.826058 
L 260.603475 78.917997 
L 260.836136 79.017209 
L 261.068798 64.258004 
L 261.301459 63.779144 
L 261.534121 65.034775 
L 261.999444 61.461531 
L 262.232106 61.349106 
L 262.464767 61.437758 
L 262.697429 61.003729 
L 262.93009 61.592182 
L 263.162752 59.865307 
L 263.395413 65.89648 
L 263.628075 65.297055 
L 263.860737 65.156336 
L 264.093398 51.005287 
L 264.32606 70.563948 
L 264.791383 70.412135 
L 265.024044 68.870798 
L 265.256706 69.620689 
L 265.489368 72.199478 
L 265.722029 76.336003 
L 265.954691 76.098442 
L 266.187352 76.925601 
L 266.420014 81.582914 
L 266.652675 81.097209 
L 266.885337 81.217561 
L 267.35066 90.253067 
L 267.583322 88.57818 
L 267.815983 107.741341 
L 268.048645 107.682553 
L 268.281306 104.434383 
L 268.513968 107.002018 
L 268.74663 107.316417 
L 268.979291 89.80633 
L 269.211953 91.614529 
L 269.444614 92.443514 
L 269.677276 92.745023 
L 269.909937 92.276181 
L 270.142599 92.766459 
L 270.375261 87.976211 
L 270.607922 88.318667 
L 270.840584 90.259619 
L 271.305907 90.776896 
L 271.538568 90.595788 
L 271.77123 93.624583 
L 272.003892 93.628491 
L 272.236553 98.213522 
L 272.469215 93.839414 
L 272.934538 90.161848 
L 273.399861 122.406709 
L 273.632523 136.773578 
L 273.865184 136.925727 
L 274.330507 102.322877 
L 274.563169 102.326218 
L 274.79583 103.894887 
L 275.028492 108.320467 
L 275.261154 108.264779 
L 275.493815 104.983203 
L 275.726477 103.725541 
L 275.959138 103.927963 
L 276.1918 115.675722 
L 276.424461 116.307337 
L 276.889785 118.572773 
L 277.122446 118.90796 
L 277.355108 117.337863 
L 277.587769 118.438756 
L 277.820431 97.450753 
L 278.285754 101.549054 
L 278.518416 101.32176 
L 278.751077 102.812986 
L 278.983739 117.196534 
L 279.2164 116.931313 
L 279.449062 117.305 
L 279.681723 108.704236 
L 279.914385 104.710648 
L 280.147047 104.836091 
L 280.379708 127.181298 
L 280.61237 129.748155 
L 280.845031 130.678001 
L 281.077693 133.289805 
L 281.310354 134.411731 
L 281.543016 138.469729 
L 281.775678 110.188211 
L 282.008339 110.609099 
L 282.241001 103.37042 
L 282.706324 110.496554 
L 282.938985 120.338051 
L 283.171647 121.794409 
L 283.404309 121.006813 
L 283.63697 118.192896 
L 283.869632 100.534519 
L 284.102293 106.01173 
L 284.334955 114.272409 
L 284.567616 145.559928 
L 284.800278 142.465498 
L 285.03294 143.930562 
L 285.265601 109.55613 
L 285.498263 117.854151 
L 285.730924 120.865993 
L 286.196247 104.51343 
L 286.428909 115.210809 
L 286.661571 110.919716 
L 286.894232 108.754739 
L 287.126894 108.059143 
L 287.592217 90.67094 
L 287.824878 98.195078 
L 288.05754 90.93471 
L 288.290202 91.048063 
L 288.522863 85.419641 
L 288.755525 88.397325 
L 288.988186 112.979012 
L 289.220848 112.162168 
L 289.453509 112.11524 
L 289.918833 114.837632 
L 290.151494 113.639836 
L 290.384156 113.966241 
L 290.616817 114.055467 
L 290.849479 99.319697 
L 291.08214 98.419306 
L 291.314802 101.542092 
L 291.547464 101.711402 
L 291.780125 104.364292 
L 292.012787 110.455804 
L 292.245448 121.963079 
L 292.47811 116.232117 
L 292.710771 86.337684 
L 292.943433 71.283113 
L 293.176095 73.596296 
L 293.408756 79.152994 
L 293.641418 81.833204 
L 293.874079 80.629022 
L 294.106741 73.478779 
L 294.339402 73.972019 
L 294.572064 75.111943 
L 294.804726 75.52627 
L 295.037387 74.847293 
L 295.270049 74.5949 
L 295.50271 74.746949 
L 295.735372 76.173771 
L 295.968033 84.270206 
L 296.200695 84.923827 
L 296.433356 84.908099 
L 296.666018 85.380242 
L 296.89868 86.179538 
L 297.131341 88.642548 
L 297.364003 88.495066 
L 297.596664 99.347116 
L 297.829326 99.924824 
L 298.061987 103.191588 
L 298.294649 95.709205 
L 298.527311 94.808868 
L 298.759972 88.389038 
L 298.992634 85.68386 
L 299.225295 85.259776 
L 299.457957 85.797631 
L 299.690618 85.760524 
L 300.155942 86.579117 
L 300.388603 85.426741 
L 301.086588 84.169715 
L 301.319249 84.74764 
L 301.551911 86.589151 
L 301.784573 80.166541 
L 302.017234 80.535746 
L 302.249896 72.928993 
L 302.482557 77.927087 
L 302.715219 78.675592 
L 302.94788 78.52459 
L 303.180542 79.571773 
L 303.413204 77.865692 
L 303.878527 80.15042 
L 304.111188 80.513947 
L 304.34385 88.754331 
L 304.576511 88.879062 
L 304.809173 88.457115 
L 305.041835 75.913821 
L 305.274496 71.900227 
L 305.507158 95.271508 
L 305.739819 103.79193 
L 305.972481 106.019227 
L 306.205142 106.869389 
L 306.437804 102.177652 
L 306.670466 102.793981 
L 306.903127 123.857644 
L 307.135789 122.056266 
L 307.36845 121.454856 
L 307.833773 124.879529 
L 308.066435 126.49285 
L 308.531758 125.813812 
L 308.997081 119.414604 
L 309.229743 92.726919 
L 309.462404 103.425434 
L 309.927728 109.458012 
L 310.160389 100.14094 
L 310.393051 98.985534 
L 310.625712 99.076467 
L 310.858374 99.546493 
L 311.091035 100.859721 
L 311.323697 107.503612 
L 311.556359 84.976386 
L 311.78902 98.688449 
L 312.021682 102.789119 
L 312.254343 103.044635 
L 312.487005 103.574604 
L 312.719666 101.071581 
L 312.952328 101.137756 
L 313.18499 97.839378 
L 313.417651 101.741101 
L 313.650313 101.242289 
L 313.882974 102.342098 
L 314.115636 104.422809 
L 314.348297 101.752282 
L 314.813621 93.278656 
L 315.046282 92.642495 
L 315.278944 89.504397 
L 315.511605 76.981094 
L 315.744267 81.797325 
L 315.976928 81.586958 
L 316.20959 81.98643 
L 316.442252 76.379048 
L 316.674913 74.972214 
L 316.907575 74.585076 
L 317.140236 74.949388 
L 317.372898 75.753735 
L 317.605559 64.472608 
L 317.838221 64.181697 
L 318.070883 64.951206 
L 318.303544 81.435233 
L 318.536206 81.380773 
L 318.768867 82.064331 
L 319.001529 71.782618 
L 319.466852 75.781673 
L 319.699514 73.952888 
L 319.932175 73.427882 
L 320.164837 75.395345 
L 320.397498 78.887213 
L 320.63016 79.285597 
L 321.095483 73.414019 
L 321.328145 73.55483 
L 321.560806 75.979055 
L 321.793468 71.401465 
L 322.026129 72.163177 
L 322.258791 68.803398 
L 322.724114 79.216604 
L 323.189437 78.334162 
L 323.422099 69.007289 
L 323.65476 77.689907 
L 323.887422 93.410779 
L 324.120083 92.546481 
L 324.352745 84.999093 
L 324.585407 81.407184 
L 324.818068 86.978777 
L 325.05073 74.187887 
L 325.283391 90.92536 
L 325.516053 97.433435 
L 325.748714 97.771942 
L 325.981376 98.612029 
L 326.214038 115.827806 
L 326.446699 115.238284 
L 326.679361 113.704134 
L 326.912022 94.493518 
L 327.144684 96.34469 
L 327.377345 115.68025 
L 327.610007 112.7536 
L 327.842669 114.016178 
L 328.07533 112.440315 
L 328.307992 112.5948 
L 328.540653 118.357126 
L 328.773315 120.628681 
L 329.005976 119.102063 
L 329.238638 118.588336 
L 329.4713 116.846716 
L 329.703961 116.331272 
L 329.936623 102.125751 
L 330.169284 101.043568 
L 330.401946 101.918557 
L 330.634607 104.059168 
L 330.867269 97.728134 
L 331.099931 94.632968 
L 331.332592 107.772335 
L 331.565254 109.918694 
L 331.797915 109.603505 
L 332.030577 90.484063 
L 332.263238 90.483656 
L 332.4959 84.813935 
L 332.728562 84.035309 
L 332.961223 84.059297 
L 333.193885 82.883565 
L 333.426546 83.205987 
L 333.659208 84.127094 
L 334.124531 84.047089 
L 334.357192 84.333198 
L 334.589854 94.748364 
L 334.822516 94.148305 
L 335.055177 88.1123 
L 335.287839 78.450129 
L 335.5205 84.814818 
L 335.753162 84.895468 
L 335.985823 81.636412 
L 336.218485 85.764354 
L 336.451147 84.937828 
L 336.683808 83.687038 
L 336.91647 84.093513 
L 337.149131 83.399092 
L 337.614454 87.034678 
L 337.847116 102.922391 
L 338.079778 102.698602 
L 338.312439 111.328454 
L 338.545101 94.892945 
L 338.777762 95.02939 
L 339.010424 84.817948 
L 339.243085 83.049689 
L 339.475747 82.747834 
L 339.708409 83.22129 
L 339.94107 83.969611 
L 340.173732 82.838289 
L 340.406393 79.823109 
L 340.639055 81.917248 
L 340.871716 81.842223 
L 341.104378 84.162476 
L 341.33704 84.229169 
L 341.569701 81.975207 
L 341.802363 123.20439 
L 342.035024 122.13958 
L 342.267686 123.530788 
L 342.500347 102.783526 
L 343.430994 100.659784 
L 344.128978 102.914297 
L 344.36164 102.562537 
L 344.594302 103.262479 
L 345.059625 122.616013 
L 345.292286 122.84157 
L 345.757609 103.476236 
L 345.990271 103.675464 
L 346.222933 101.358382 
L 346.455594 90.849575 
L 346.688256 91.544813 
L 346.920917 93.664673 
L 347.153579 84.458174 
L 347.38624 82.728321 
L 347.618902 77.976617 
L 347.851564 82.191394 
L 348.084225 82.544854 
L 348.316887 83.70293 
L 348.549548 83.380689 
L 348.78221 79.147923 
L 349.014871 77.963447 
L 349.480195 78.187381 
L 349.712856 77.441072 
L 349.945518 77.352407 
L 350.178179 78.727479 
L 350.410841 77.71441 
L 350.643502 81.31153 
L 350.876164 79.390813 
L 351.108826 80.254548 
L 351.341487 88.514897 
L 351.574149 86.781763 
L 351.80681 86.379088 
L 352.272133 96.159079 
L 352.504795 99.177844 
L 352.737457 92.627523 
L 352.970118 91.412434 
L 353.20278 91.350709 
L 353.435441 90.256145 
L 353.668103 89.788863 
L 353.900764 91.307589 
L 354.133426 85.078496 
L 354.366088 84.368307 
L 354.831411 85.459059 
L 355.064072 83.536284 
L 355.296734 84.52281 
L 355.529395 84.050866 
L 355.762057 87.338015 
L 355.994719 87.229622 
L 356.22738 87.450674 
L 356.460042 100.528841 
L 356.692703 100.710831 
L 356.925365 109.562284 
L 357.158026 108.783729 
L 357.62335 100.612902 
L 357.856011 101.77789 
L 358.088673 100.411644 
L 358.321334 108.361234 
L 358.553996 106.618895 
L 358.786657 106.124562 
L 359.019319 117.282109 
L 359.251981 118.573447 
L 359.484642 117.475505 
L 359.717304 117.523076 
L 359.949965 128.015224 
L 360.182627 129.413731 
L 360.415288 128.763291 
L 360.880612 125.435986 
L 361.113273 113.068315 
L 361.345935 125.501963 
L 361.578596 125.365914 
L 361.811258 123.690406 
L 362.043919 111.276556 
L 362.276581 115.730039 
L 362.509243 115.295346 
L 362.741904 115.38296 
L 362.974566 108.260596 
L 363.207227 108.730338 
L 363.439889 103.098872 
L 363.67255 75.070029 
L 363.905212 75.480723 
L 364.137874 73.75221 
L 364.370535 73.777989 
L 364.603197 73.303752 
L 364.835858 75.596921 
L 365.06852 76.09039 
L 365.533843 79.903792 
L 365.766505 71.177453 
L 365.999166 72.032263 
L 366.464489 72.272657 
L 366.697151 71.861368 
L 366.929812 73.451711 
L 367.395136 72.09449 
L 367.627797 72.214502 
L 368.09312 75.402745 
L 368.558443 74.074813 
L 368.791105 67.780396 
L 369.023767 68.737396 
L 369.256428 68.773024 
L 369.48909 81.916495 
L 369.721751 80.753314 
L 369.954413 102.17379 
L 370.187074 108.077216 
L 370.419736 107.507043 
L 370.652397 121.922613 
L 370.885059 113.730968 
L 371.117721 113.155149 
L 371.350382 95.8375 
L 371.583044 96.989099 
L 371.815705 139.245974 
L 372.281028 140.938944 
L 372.51369 98.548619 
L 372.746352 100.792467 
L 372.979013 100.892916 
L 373.211675 95.259809 
L 373.444336 95.908275 
L 373.676998 97.551853 
L 373.909659 97.749613 
L 374.142321 95.6999 
L 374.374983 95.549535 
L 374.607644 73.069584 
L 374.840306 74.697911 
L 375.072967 75.537069 
L 375.305629 75.661669 
L 375.770952 76.790211 
L 376.236275 79.641258 
L 376.468937 79.018528 
L 376.701598 109.690724 
L 377.166921 111.657454 
L 377.399583 72.136151 
L 377.632245 72.259926 
L 377.864906 73.348403 
L 378.097568 72.400291 
L 378.562891 68.19205 
L 378.795552 67.476067 
L 379.028214 69.731738 
L 379.260876 69.311822 
L 379.493537 69.127706 
L 379.726199 69.6757 
L 379.95886 69.847837 
L 380.424183 71.052436 
L 380.889507 71.562739 
L 381.35483 68.378596 
L 381.587491 68.518153 
L 381.820153 67.802927 
L 382.052814 64.791232 
L 382.518138 63.951355 
L 382.750799 63.906532 
L 382.983461 55.574997 
L 383.216122 55.046942 
L 383.448784 55.496789 
L 383.681445 62.74696 
L 383.914107 63.044122 
L 384.37943 59.265263 
L 384.612092 60.007807 
L 384.844753 59.675279 
L 385.077415 58.715612 
L 385.310076 58.303291 
L 385.542738 59.56337 
L 385.7754 60.054924 
L 386.008061 60.250557 
L 386.240723 66.339748 
L 386.473384 66.258828 
L 386.706046 67.226629 
L 386.938707 62.349449 
L 387.171369 62.35973 
L 387.404031 72.544977 
L 387.636692 72.249944 
L 387.869354 72.459738 
L 388.102015 62.292111 
L 388.567338 62.477821 
L 388.8 64.686861 
L 388.8 64.686861 
" style="fill:none;stroke:#ffa500;stroke-linecap:square;stroke-width:1.5;"/>
   </g>
   <g id="patch_3">
    <path d="M 54 252 
L 54 34.56 
" style="fill:none;stroke:#000000;stroke-linecap:square;stroke-linejoin:miter;stroke-width:0.8;"/>
   </g>
   <g id="patch_4">
    <path d="M 388.8 252 
L 388.8 34.56 
" style="fill:none;stroke:#000000;stroke-linecap:square;stroke-linejoin:miter;stroke-width:0.8;"/>
   </g>
   <g id="patch_5">
    <path d="M 54 252 
L 388.8 252 
" style="fill:none;stroke:#000000;stroke-linecap:square;stroke-linejoin:miter;stroke-width:0.8;"/>
   </g>
   <g id="patch_6">
    <path d="M 54 34.56 
L 388.8 34.56 
" style="fill:none;stroke:#000000;stroke-linecap:square;stroke-linejoin:miter;stroke-width:0.8;"/>
   </g>
   <g id="text_19">
    <!-- pp-DSS Voltage Phase B -->
    <defs>
     <path d="M 4.890625 31.390625 
L 31.203125 31.390625 
L 31.203125 23.390625 
L 4.890625 23.390625 
z
" id="DejaVuSans-45"/>
     <path d="M 19.671875 64.796875 
L 19.671875 8.109375 
L 31.59375 8.109375 
Q 46.6875 8.109375 53.6875 14.9375 
Q 60.6875 21.78125 60.6875 36.53125 
Q 60.6875 51.171875 53.6875 57.984375 
Q 46.6875 64.796875 31.59375 64.796875 
z
M 9.8125 72.90625 
L 30.078125 72.90625 
Q 51.265625 72.90625 61.171875 64.09375 
Q 71.09375 55.28125 71.09375 36.53125 
Q 71.09375 17.671875 61.125 8.828125 
Q 51.171875 0 30.078125 0 
L 9.8125 0 
z
" id="DejaVuSans-68"/>
     <path d="M 53.515625 70.515625 
L 53.515625 60.890625 
Q 47.90625 63.578125 42.921875 64.890625 
Q 37.9375 66.21875 33.296875 66.21875 
Q 25.25 66.21875 20.875 63.09375 
Q 16.5 59.96875 16.5 54.203125 
Q 16.5 49.359375 19.40625 46.890625 
Q 22.3125 44.4375 30.421875 42.921875 
L 36.375 41.703125 
Q 47.40625 39.59375 52.65625 34.296875 
Q 57.90625 29 57.90625 20.125 
Q 57.90625 9.515625 50.796875 4.046875 
Q 43.703125 -1.421875 29.984375 -1.421875 
Q 24.8125 -1.421875 18.96875 -0.25 
Q 13.140625 0.921875 6.890625 3.21875 
L 6.890625 13.375 
Q 12.890625 10.015625 18.65625 8.296875 
Q 24.421875 6.59375 29.984375 6.59375 
Q 38.421875 6.59375 43.015625 9.90625 
Q 47.609375 13.234375 47.609375 19.390625 
Q 47.609375 24.75 44.3125 27.78125 
Q 41.015625 30.8125 33.5 32.328125 
L 27.484375 33.5 
Q 16.453125 35.6875 11.515625 40.375 
Q 6.59375 45.0625 6.59375 53.421875 
Q 6.59375 63.09375 13.40625 68.65625 
Q 20.21875 74.21875 32.171875 74.21875 
Q 37.3125 74.21875 42.625 73.28125 
Q 47.953125 72.359375 53.515625 70.515625 
z
" id="DejaVuSans-83"/>
     <path d="M 19.671875 64.796875 
L 19.671875 37.40625 
L 32.078125 37.40625 
Q 38.96875 37.40625 42.71875 40.96875 
Q 46.484375 44.53125 46.484375 51.125 
Q 46.484375 57.671875 42.71875 61.234375 
Q 38.96875 64.796875 32.078125 64.796875 
z
M 9.8125 72.90625 
L 32.078125 72.90625 
Q 44.34375 72.90625 50.609375 67.359375 
Q 56.890625 61.8125 56.890625 51.125 
Q 56.890625 40.328125 50.609375 34.8125 
Q 44.34375 29.296875 32.078125 29.296875 
L 19.671875 29.296875 
L 19.671875 0 
L 9.8125 0 
z
" id="DejaVuSans-80"/>
     <path d="M 54.890625 33.015625 
L 54.890625 0 
L 45.90625 0 
L 45.90625 32.71875 
Q 45.90625 40.484375 42.875 44.328125 
Q 39.84375 48.1875 33.796875 48.1875 
Q 26.515625 48.1875 22.3125 43.546875 
Q 18.109375 38.921875 18.109375 30.90625 
L 18.109375 0 
L 9.078125 0 
L 9.078125 75.984375 
L 18.109375 75.984375 
L 18.109375 46.1875 
Q 21.34375 51.125 25.703125 53.5625 
Q 30.078125 56 35.796875 56 
Q 45.21875 56 50.046875 50.171875 
Q 54.890625 44.34375 54.890625 33.015625 
z
" id="DejaVuSans-104"/>
     <path d="M 19.671875 34.8125 
L 19.671875 8.109375 
L 35.5 8.109375 
Q 43.453125 8.109375 47.28125 11.40625 
Q 51.125 14.703125 51.125 21.484375 
Q 51.125 28.328125 47.28125 31.5625 
Q 43.453125 34.8125 35.5 34.8125 
z
M 19.671875 64.796875 
L 19.671875 42.828125 
L 34.28125 42.828125 
Q 41.5 42.828125 45.03125 45.53125 
Q 48.578125 48.25 48.578125 53.8125 
Q 48.578125 59.328125 45.03125 62.0625 
Q 41.5 64.796875 34.28125 64.796875 
z
M 9.8125 72.90625 
L 35.015625 72.90625 
Q 46.296875 72.90625 52.390625 68.21875 
Q 58.5 63.53125 58.5 54.890625 
Q 58.5 48.1875 55.375 44.234375 
Q 52.25 40.28125 46.1875 39.3125 
Q 53.46875 37.75 57.5 32.78125 
Q 61.53125 27.828125 61.53125 20.40625 
Q 61.53125 10.640625 54.890625 5.3125 
Q 48.25 0 35.984375 0 
L 9.8125 0 
z
" id="DejaVuSans-66"/>
    </defs>
    <g transform="translate(148.66125 28.56)scale(0.12 -0.12)">
     <use xlink:href="#DejaVuSans-112"/>
     <use x="63.476562" xlink:href="#DejaVuSans-112"/>
     <use x="126.953125" xlink:href="#DejaVuSans-45"/>
     <use x="163.037109" xlink:href="#DejaVuSans-68"/>
     <use x="240.039062" xlink:href="#DejaVuSans-83"/>
     <use x="303.515625" xlink:href="#DejaVuSans-83"/>
     <use x="366.992188" xlink:href="#DejaVuSans-32"/>
     <use x="398.779297" xlink:href="#DejaVuSans-86"/>
     <use x="467.078125" xlink:href="#DejaVuSans-111"/>
     <use x="528.259766" xlink:href="#DejaVuSans-108"/>
     <use x="556.042969" xlink:href="#DejaVuSans-116"/>
     <use x="595.251953" xlink:href="#DejaVuSans-97"/>
     <use x="656.53125" xlink:href="#DejaVuSans-103"/>
     <use x="720.007812" xlink:href="#DejaVuSans-101"/>
     <use x="781.53125" xlink:href="#DejaVuSans-32"/>
     <use x="813.318359" xlink:href="#DejaVuSans-80"/>
     <use x="873.621094" xlink:href="#DejaVuSans-104"/>
     <use x="937" xlink:href="#DejaVuSans-97"/>
     <use x="998.279297" xlink:href="#DejaVuSans-115"/>
     <use x="1050.378906" xlink:href="#DejaVuSans-101"/>
     <use x="1111.902344" xlink:href="#DejaVuSans-32"/>
     <use x="1143.689453" xlink:href="#DejaVuSans-66"/>
    </g>
   </g>
   <g id="legend_1">
    <g id="patch_7">
     <path d="M 61 247 
L 106.701562 247 
Q 108.701562 247 108.701562 245 
L 108.701562 216.64375 
Q 108.701562 214.64375 106.701562 214.64375 
L 61 214.64375 
Q 59 214.64375 59 216.64375 
L 59 245 
Q 59 247 61 247 
z
" style="fill:#ffffff;opacity:0.8;stroke:#cccccc;stroke-linejoin:miter;"/>
    </g>
    <g id="line2d_35">
     <path d="M 63 222.742188 
L 83 222.742188 
" style="fill:none;stroke:#008000;stroke-linecap:square;stroke-width:1.5;"/>
    </g>
    <g id="line2d_36"/>
    <g id="text_20">
     <!-- V2 -->
     <g transform="translate(91 226.242188)scale(0.1 -0.1)">
      <use xlink:href="#DejaVuSans-86"/>
      <use x="68.408203" xlink:href="#DejaVuSans-50"/>
     </g>
    </g>
    <g id="line2d_37">
     <path d="M 63 237.420312 
L 83 237.420312 
" style="fill:none;stroke:#ffa500;stroke-linecap:square;stroke-width:1.5;"/>
    </g>
    <g id="line2d_38"/>
    <g id="text_21">
     <!-- VB -->
     <g transform="translate(91 240.920312)scale(0.1 -0.1)">
      <use xlink:href="#DejaVuSans-86"/>
      <use x="68.408203" xlink:href="#DejaVuSans-66"/>
     </g>
    </g>
   </g>
  </g>
 </g>
 <defs>
  <clipPath id="pff2850d4c1">
   <rect height="217.44" width="334.8" x="54" y="34.56"/>
  </clipPath>
 </defs>
</svg>
