<?xml version="1.0" encoding="utf-8" standalone="no"?>
<!DOCTYPE svg PUBLIC "-//W3C//DTD SVG 1.1//EN"
  "http://www.w3.org/Graphics/SVG/1.1/DTD/svg11.dtd">
<!-- Created with matplotlib (https://matplotlib.org/) -->
<svg height="288pt" version="1.1" viewBox="0 0 432 288" width="432pt" xmlns="http://www.w3.org/2000/svg" xmlns:xlink="http://www.w3.org/1999/xlink">
 <defs>
  <style type="text/css">
*{stroke-linecap:butt;stroke-linejoin:round;}
  </style>
 </defs>
 <g id="figure_1">
  <g id="patch_1">
   <path d="M 0 288 
L 432 288 
L 432 0 
L 0 0 
z
" style="fill:#ffffff;"/>
  </g>
  <g id="axes_1">
   <g id="patch_2">
    <path d="M 54 252 
L 388.8 252 
L 388.8 34.56 
L 54 34.56 
z
" style="fill:#ffffff;"/>
   </g>
   <g id="matplotlib.axis_1">
    <g id="xtick_1">
     <g id="line2d_1">
      <path clip-path="url(#pe5b8851600)" d="M 54 252 
L 54 34.56 
" style="fill:none;stroke:#b0b0b0;stroke-linecap:square;stroke-width:0.8;"/>
     </g>
     <g id="line2d_2">
      <defs>
       <path d="M 0 0 
L 0 3.5 
" id="m20818829d6" style="stroke:#000000;stroke-width:0.8;"/>
      </defs>
      <g>
       <use style="stroke:#000000;stroke-width:0.8;" x="54" xlink:href="#m20818829d6" y="252"/>
      </g>
     </g>
     <g id="text_1">
      <!-- 0 -->
      <defs>
       <path d="M 31.78125 66.40625 
Q 24.171875 66.40625 20.328125 58.90625 
Q 16.5 51.421875 16.5 36.375 
Q 16.5 21.390625 20.328125 13.890625 
Q 24.171875 6.390625 31.78125 6.390625 
Q 39.453125 6.390625 43.28125 13.890625 
Q 47.125 21.390625 47.125 36.375 
Q 47.125 51.421875 43.28125 58.90625 
Q 39.453125 66.40625 31.78125 66.40625 
z
M 31.78125 74.21875 
Q 44.046875 74.21875 50.515625 64.515625 
Q 56.984375 54.828125 56.984375 36.375 
Q 56.984375 17.96875 50.515625 8.265625 
Q 44.046875 -1.421875 31.78125 -1.421875 
Q 19.53125 -1.421875 13.0625 8.265625 
Q 6.59375 17.96875 6.59375 36.375 
Q 6.59375 54.828125 13.0625 64.515625 
Q 19.53125 74.21875 31.78125 74.21875 
z
" id="DejaVuSans-48"/>
      </defs>
      <g transform="translate(50.81875 266.598437)scale(0.1 -0.1)">
       <use xlink:href="#DejaVuSans-48"/>
      </g>
     </g>
    </g>
    <g id="xtick_2">
     <g id="line2d_3">
      <path clip-path="url(#pe5b8851600)" d="M 100.532314 252 
L 100.532314 34.56 
" style="fill:none;stroke:#b0b0b0;stroke-linecap:square;stroke-width:0.8;"/>
     </g>
     <g id="line2d_4">
      <g>
       <use style="stroke:#000000;stroke-width:0.8;" x="100.532314" xlink:href="#m20818829d6" y="252"/>
      </g>
     </g>
     <g id="text_2">
      <!-- 200 -->
      <defs>
       <path d="M 19.1875 8.296875 
L 53.609375 8.296875 
L 53.609375 0 
L 7.328125 0 
L 7.328125 8.296875 
Q 12.9375 14.109375 22.625 23.890625 
Q 32.328125 33.6875 34.8125 36.53125 
Q 39.546875 41.84375 41.421875 45.53125 
Q 43.3125 49.21875 43.3125 52.78125 
Q 43.3125 58.59375 39.234375 62.25 
Q 35.15625 65.921875 28.609375 65.921875 
Q 23.96875 65.921875 18.8125 64.3125 
Q 13.671875 62.703125 7.8125 59.421875 
L 7.8125 69.390625 
Q 13.765625 71.78125 18.9375 73 
Q 24.125 74.21875 28.421875 74.21875 
Q 39.75 74.21875 46.484375 68.546875 
Q 53.21875 62.890625 53.21875 53.421875 
Q 53.21875 48.921875 51.53125 44.890625 
Q 49.859375 40.875 45.40625 35.40625 
Q 44.1875 33.984375 37.640625 27.21875 
Q 31.109375 20.453125 19.1875 8.296875 
z
" id="DejaVuSans-50"/>
      </defs>
      <g transform="translate(90.988564 266.598437)scale(0.1 -0.1)">
       <use xlink:href="#DejaVuSans-50"/>
       <use x="63.623047" xlink:href="#DejaVuSans-48"/>
       <use x="127.246094" xlink:href="#DejaVuSans-48"/>
      </g>
     </g>
    </g>
    <g id="xtick_3">
     <g id="line2d_5">
      <path clip-path="url(#pe5b8851600)" d="M 147.064628 252 
L 147.064628 34.56 
" style="fill:none;stroke:#b0b0b0;stroke-linecap:square;stroke-width:0.8;"/>
     </g>
     <g id="line2d_6">
      <g>
       <use style="stroke:#000000;stroke-width:0.8;" x="147.064628" xlink:href="#m20818829d6" y="252"/>
      </g>
     </g>
     <g id="text_3">
      <!-- 400 -->
      <defs>
       <path d="M 37.796875 64.3125 
L 12.890625 25.390625 
L 37.796875 25.390625 
z
M 35.203125 72.90625 
L 47.609375 72.90625 
L 47.609375 25.390625 
L 58.015625 25.390625 
L 58.015625 17.1875 
L 47.609375 17.1875 
L 47.609375 0 
L 37.796875 0 
L 37.796875 17.1875 
L 4.890625 17.1875 
L 4.890625 26.703125 
z
" id="DejaVuSans-52"/>
      </defs>
      <g transform="translate(137.520878 266.598437)scale(0.1 -0.1)">
       <use xlink:href="#DejaVuSans-52"/>
       <use x="63.623047" xlink:href="#DejaVuSans-48"/>
       <use x="127.246094" xlink:href="#DejaVuSans-48"/>
      </g>
     </g>
    </g>
    <g id="xtick_4">
     <g id="line2d_7">
      <path clip-path="url(#pe5b8851600)" d="M 193.596942 252 
L 193.596942 34.56 
" style="fill:none;stroke:#b0b0b0;stroke-linecap:square;stroke-width:0.8;"/>
     </g>
     <g id="line2d_8">
      <g>
       <use style="stroke:#000000;stroke-width:0.8;" x="193.596942" xlink:href="#m20818829d6" y="252"/>
      </g>
     </g>
     <g id="text_4">
      <!-- 600 -->
      <defs>
       <path d="M 33.015625 40.375 
Q 26.375 40.375 22.484375 35.828125 
Q 18.609375 31.296875 18.609375 23.390625 
Q 18.609375 15.53125 22.484375 10.953125 
Q 26.375 6.390625 33.015625 6.390625 
Q 39.65625 6.390625 43.53125 10.953125 
Q 47.40625 15.53125 47.40625 23.390625 
Q 47.40625 31.296875 43.53125 35.828125 
Q 39.65625 40.375 33.015625 40.375 
z
M 52.59375 71.296875 
L 52.59375 62.3125 
Q 48.875 64.0625 45.09375 64.984375 
Q 41.3125 65.921875 37.59375 65.921875 
Q 27.828125 65.921875 22.671875 59.328125 
Q 17.53125 52.734375 16.796875 39.40625 
Q 19.671875 43.65625 24.015625 45.921875 
Q 28.375 48.1875 33.59375 48.1875 
Q 44.578125 48.1875 50.953125 41.515625 
Q 57.328125 34.859375 57.328125 23.390625 
Q 57.328125 12.15625 50.6875 5.359375 
Q 44.046875 -1.421875 33.015625 -1.421875 
Q 20.359375 -1.421875 13.671875 8.265625 
Q 6.984375 17.96875 6.984375 36.375 
Q 6.984375 53.65625 15.1875 63.9375 
Q 23.390625 74.21875 37.203125 74.21875 
Q 40.921875 74.21875 44.703125 73.484375 
Q 48.484375 72.75 52.59375 71.296875 
z
" id="DejaVuSans-54"/>
      </defs>
      <g transform="translate(184.053192 266.598437)scale(0.1 -0.1)">
       <use xlink:href="#DejaVuSans-54"/>
       <use x="63.623047" xlink:href="#DejaVuSans-48"/>
       <use x="127.246094" xlink:href="#DejaVuSans-48"/>
      </g>
     </g>
    </g>
    <g id="xtick_5">
     <g id="line2d_9">
      <path clip-path="url(#pe5b8851600)" d="M 240.129256 252 
L 240.129256 34.56 
" style="fill:none;stroke:#b0b0b0;stroke-linecap:square;stroke-width:0.8;"/>
     </g>
     <g id="line2d_10">
      <g>
       <use style="stroke:#000000;stroke-width:0.8;" x="240.129256" xlink:href="#m20818829d6" y="252"/>
      </g>
     </g>
     <g id="text_5">
      <!-- 800 -->
      <defs>
       <path d="M 31.78125 34.625 
Q 24.75 34.625 20.71875 30.859375 
Q 16.703125 27.09375 16.703125 20.515625 
Q 16.703125 13.921875 20.71875 10.15625 
Q 24.75 6.390625 31.78125 6.390625 
Q 38.8125 6.390625 42.859375 10.171875 
Q 46.921875 13.96875 46.921875 20.515625 
Q 46.921875 27.09375 42.890625 30.859375 
Q 38.875 34.625 31.78125 34.625 
z
M 21.921875 38.8125 
Q 15.578125 40.375 12.03125 44.71875 
Q 8.5 49.078125 8.5 55.328125 
Q 8.5 64.0625 14.71875 69.140625 
Q 20.953125 74.21875 31.78125 74.21875 
Q 42.671875 74.21875 48.875 69.140625 
Q 55.078125 64.0625 55.078125 55.328125 
Q 55.078125 49.078125 51.53125 44.71875 
Q 48 40.375 41.703125 38.8125 
Q 48.828125 37.15625 52.796875 32.3125 
Q 56.78125 27.484375 56.78125 20.515625 
Q 56.78125 9.90625 50.3125 4.234375 
Q 43.84375 -1.421875 31.78125 -1.421875 
Q 19.734375 -1.421875 13.25 4.234375 
Q 6.78125 9.90625 6.78125 20.515625 
Q 6.78125 27.484375 10.78125 32.3125 
Q 14.796875 37.15625 21.921875 38.8125 
z
M 18.3125 54.390625 
Q 18.3125 48.734375 21.84375 45.5625 
Q 25.390625 42.390625 31.78125 42.390625 
Q 38.140625 42.390625 41.71875 45.5625 
Q 45.3125 48.734375 45.3125 54.390625 
Q 45.3125 60.0625 41.71875 63.234375 
Q 38.140625 66.40625 31.78125 66.40625 
Q 25.390625 66.40625 21.84375 63.234375 
Q 18.3125 60.0625 18.3125 54.390625 
z
" id="DejaVuSans-56"/>
      </defs>
      <g transform="translate(230.585506 266.598437)scale(0.1 -0.1)">
       <use xlink:href="#DejaVuSans-56"/>
       <use x="63.623047" xlink:href="#DejaVuSans-48"/>
       <use x="127.246094" xlink:href="#DejaVuSans-48"/>
      </g>
     </g>
    </g>
    <g id="xtick_6">
     <g id="line2d_11">
      <path clip-path="url(#pe5b8851600)" d="M 286.661571 252 
L 286.661571 34.56 
" style="fill:none;stroke:#b0b0b0;stroke-linecap:square;stroke-width:0.8;"/>
     </g>
     <g id="line2d_12">
      <g>
       <use style="stroke:#000000;stroke-width:0.8;" x="286.661571" xlink:href="#m20818829d6" y="252"/>
      </g>
     </g>
     <g id="text_6">
      <!-- 1000 -->
      <defs>
       <path d="M 12.40625 8.296875 
L 28.515625 8.296875 
L 28.515625 63.921875 
L 10.984375 60.40625 
L 10.984375 69.390625 
L 28.421875 72.90625 
L 38.28125 72.90625 
L 38.28125 8.296875 
L 54.390625 8.296875 
L 54.390625 0 
L 12.40625 0 
z
" id="DejaVuSans-49"/>
      </defs>
      <g transform="translate(273.936571 266.598437)scale(0.1 -0.1)">
       <use xlink:href="#DejaVuSans-49"/>
       <use x="63.623047" xlink:href="#DejaVuSans-48"/>
       <use x="127.246094" xlink:href="#DejaVuSans-48"/>
       <use x="190.869141" xlink:href="#DejaVuSans-48"/>
      </g>
     </g>
    </g>
    <g id="xtick_7">
     <g id="line2d_13">
      <path clip-path="url(#pe5b8851600)" d="M 333.193885 252 
L 333.193885 34.56 
" style="fill:none;stroke:#b0b0b0;stroke-linecap:square;stroke-width:0.8;"/>
     </g>
     <g id="line2d_14">
      <g>
       <use style="stroke:#000000;stroke-width:0.8;" x="333.193885" xlink:href="#m20818829d6" y="252"/>
      </g>
     </g>
     <g id="text_7">
      <!-- 1200 -->
      <g transform="translate(320.468885 266.598437)scale(0.1 -0.1)">
       <use xlink:href="#DejaVuSans-49"/>
       <use x="63.623047" xlink:href="#DejaVuSans-50"/>
       <use x="127.246094" xlink:href="#DejaVuSans-48"/>
       <use x="190.869141" xlink:href="#DejaVuSans-48"/>
      </g>
     </g>
    </g>
    <g id="xtick_8">
     <g id="line2d_15">
      <path clip-path="url(#pe5b8851600)" d="M 379.726199 252 
L 379.726199 34.56 
" style="fill:none;stroke:#b0b0b0;stroke-linecap:square;stroke-width:0.8;"/>
     </g>
     <g id="line2d_16">
      <g>
       <use style="stroke:#000000;stroke-width:0.8;" x="379.726199" xlink:href="#m20818829d6" y="252"/>
      </g>
     </g>
     <g id="text_8">
      <!-- 1400 -->
      <g transform="translate(367.001199 266.598437)scale(0.1 -0.1)">
       <use xlink:href="#DejaVuSans-49"/>
       <use x="63.623047" xlink:href="#DejaVuSans-52"/>
       <use x="127.246094" xlink:href="#DejaVuSans-48"/>
       <use x="190.869141" xlink:href="#DejaVuSans-48"/>
      </g>
     </g>
    </g>
    <g id="text_9">
     <!-- time step -->
     <defs>
      <path d="M 18.3125 70.21875 
L 18.3125 54.6875 
L 36.8125 54.6875 
L 36.8125 47.703125 
L 18.3125 47.703125 
L 18.3125 18.015625 
Q 18.3125 11.328125 20.140625 9.421875 
Q 21.96875 7.515625 27.59375 7.515625 
L 36.8125 7.515625 
L 36.8125 0 
L 27.59375 0 
Q 17.1875 0 13.234375 3.875 
Q 9.28125 7.765625 9.28125 18.015625 
L 9.28125 47.703125 
L 2.6875 47.703125 
L 2.6875 54.6875 
L 9.28125 54.6875 
L 9.28125 70.21875 
z
" id="DejaVuSans-116"/>
      <path d="M 9.421875 54.6875 
L 18.40625 54.6875 
L 18.40625 0 
L 9.421875 0 
z
M 9.421875 75.984375 
L 18.40625 75.984375 
L 18.40625 64.59375 
L 9.421875 64.59375 
z
" id="DejaVuSans-105"/>
      <path d="M 52 44.1875 
Q 55.375 50.25 60.0625 53.125 
Q 64.75 56 71.09375 56 
Q 79.640625 56 84.28125 50.015625 
Q 88.921875 44.046875 88.921875 33.015625 
L 88.921875 0 
L 79.890625 0 
L 79.890625 32.71875 
Q 79.890625 40.578125 77.09375 44.375 
Q 74.3125 48.1875 68.609375 48.1875 
Q 61.625 48.1875 57.5625 43.546875 
Q 53.515625 38.921875 53.515625 30.90625 
L 53.515625 0 
L 44.484375 0 
L 44.484375 32.71875 
Q 44.484375 40.625 41.703125 44.40625 
Q 38.921875 48.1875 33.109375 48.1875 
Q 26.21875 48.1875 22.15625 43.53125 
Q 18.109375 38.875 18.109375 30.90625 
L 18.109375 0 
L 9.078125 0 
L 9.078125 54.6875 
L 18.109375 54.6875 
L 18.109375 46.1875 
Q 21.1875 51.21875 25.484375 53.609375 
Q 29.78125 56 35.6875 56 
Q 41.65625 56 45.828125 52.96875 
Q 50 49.953125 52 44.1875 
z
" id="DejaVuSans-109"/>
      <path d="M 56.203125 29.59375 
L 56.203125 25.203125 
L 14.890625 25.203125 
Q 15.484375 15.921875 20.484375 11.0625 
Q 25.484375 6.203125 34.421875 6.203125 
Q 39.59375 6.203125 44.453125 7.46875 
Q 49.3125 8.734375 54.109375 11.28125 
L 54.109375 2.78125 
Q 49.265625 0.734375 44.1875 -0.34375 
Q 39.109375 -1.421875 33.890625 -1.421875 
Q 20.796875 -1.421875 13.15625 6.1875 
Q 5.515625 13.8125 5.515625 26.8125 
Q 5.515625 40.234375 12.765625 48.109375 
Q 20.015625 56 32.328125 56 
Q 43.359375 56 49.78125 48.890625 
Q 56.203125 41.796875 56.203125 29.59375 
z
M 47.21875 32.234375 
Q 47.125 39.59375 43.09375 43.984375 
Q 39.0625 48.390625 32.421875 48.390625 
Q 24.90625 48.390625 20.390625 44.140625 
Q 15.875 39.890625 15.1875 32.171875 
z
" id="DejaVuSans-101"/>
      <path id="DejaVuSans-32"/>
      <path d="M 44.28125 53.078125 
L 44.28125 44.578125 
Q 40.484375 46.53125 36.375 47.5 
Q 32.28125 48.484375 27.875 48.484375 
Q 21.1875 48.484375 17.84375 46.4375 
Q 14.5 44.390625 14.5 40.28125 
Q 14.5 37.15625 16.890625 35.375 
Q 19.28125 33.59375 26.515625 31.984375 
L 29.59375 31.296875 
Q 39.15625 29.25 43.1875 25.515625 
Q 47.21875 21.78125 47.21875 15.09375 
Q 47.21875 7.46875 41.1875 3.015625 
Q 35.15625 -1.421875 24.609375 -1.421875 
Q 20.21875 -1.421875 15.453125 -0.5625 
Q 10.6875 0.296875 5.421875 2 
L 5.421875 11.28125 
Q 10.40625 8.6875 15.234375 7.390625 
Q 20.0625 6.109375 24.8125 6.109375 
Q 31.15625 6.109375 34.5625 8.28125 
Q 37.984375 10.453125 37.984375 14.40625 
Q 37.984375 18.0625 35.515625 20.015625 
Q 33.0625 21.96875 24.703125 23.78125 
L 21.578125 24.515625 
Q 13.234375 26.265625 9.515625 29.90625 
Q 5.8125 33.546875 5.8125 39.890625 
Q 5.8125 47.609375 11.28125 51.796875 
Q 16.75 56 26.8125 56 
Q 31.78125 56 36.171875 55.265625 
Q 40.578125 54.546875 44.28125 53.078125 
z
" id="DejaVuSans-115"/>
      <path d="M 18.109375 8.203125 
L 18.109375 -20.796875 
L 9.078125 -20.796875 
L 9.078125 54.6875 
L 18.109375 54.6875 
L 18.109375 46.390625 
Q 20.953125 51.265625 25.265625 53.625 
Q 29.59375 56 35.59375 56 
Q 45.5625 56 51.78125 48.09375 
Q 58.015625 40.1875 58.015625 27.296875 
Q 58.015625 14.40625 51.78125 6.484375 
Q 45.5625 -1.421875 35.59375 -1.421875 
Q 29.59375 -1.421875 25.265625 0.953125 
Q 20.953125 3.328125 18.109375 8.203125 
z
M 48.6875 27.296875 
Q 48.6875 37.203125 44.609375 42.84375 
Q 40.53125 48.484375 33.40625 48.484375 
Q 26.265625 48.484375 22.1875 42.84375 
Q 18.109375 37.203125 18.109375 27.296875 
Q 18.109375 17.390625 22.1875 11.75 
Q 26.265625 6.109375 33.40625 6.109375 
Q 40.53125 6.109375 44.609375 11.75 
Q 48.6875 17.390625 48.6875 27.296875 
z
" id="DejaVuSans-112"/>
     </defs>
     <g transform="translate(197.699219 280.276563)scale(0.1 -0.1)">
      <use xlink:href="#DejaVuSans-116"/>
      <use x="39.208984" xlink:href="#DejaVuSans-105"/>
      <use x="66.992188" xlink:href="#DejaVuSans-109"/>
      <use x="164.404297" xlink:href="#DejaVuSans-101"/>
      <use x="225.927734" xlink:href="#DejaVuSans-32"/>
      <use x="257.714844" xlink:href="#DejaVuSans-115"/>
      <use x="309.814453" xlink:href="#DejaVuSans-116"/>
      <use x="349.023438" xlink:href="#DejaVuSans-101"/>
      <use x="410.546875" xlink:href="#DejaVuSans-112"/>
     </g>
    </g>
   </g>
   <g id="matplotlib.axis_2">
    <g id="ytick_1">
     <g id="line2d_17">
      <path clip-path="url(#pe5b8851600)" d="M 54 208.289569 
L 388.8 208.289569 
" style="fill:none;stroke:#b0b0b0;stroke-linecap:square;stroke-width:0.8;"/>
     </g>
     <g id="line2d_18">
      <defs>
       <path d="M 0 0 
L -3.5 0 
" id="m5ef41bc8de" style="stroke:#000000;stroke-width:0.8;"/>
      </defs>
      <g>
       <use style="stroke:#000000;stroke-width:0.8;" x="54" xlink:href="#m5ef41bc8de" y="208.289569"/>
      </g>
     </g>
     <g id="text_10">
      <!-- 246 -->
      <g transform="translate(27.9125 212.088788)scale(0.1 -0.1)">
       <use xlink:href="#DejaVuSans-50"/>
       <use x="63.623047" xlink:href="#DejaVuSans-52"/>
       <use x="127.246094" xlink:href="#DejaVuSans-54"/>
      </g>
     </g>
    </g>
    <g id="ytick_2">
     <g id="line2d_19">
      <path clip-path="url(#pe5b8851600)" d="M 54 164.286365 
L 388.8 164.286365 
" style="fill:none;stroke:#b0b0b0;stroke-linecap:square;stroke-width:0.8;"/>
     </g>
     <g id="line2d_20">
      <g>
       <use style="stroke:#000000;stroke-width:0.8;" x="54" xlink:href="#m5ef41bc8de" y="164.286365"/>
      </g>
     </g>
     <g id="text_11">
      <!-- 248 -->
      <g transform="translate(27.9125 168.085583)scale(0.1 -0.1)">
       <use xlink:href="#DejaVuSans-50"/>
       <use x="63.623047" xlink:href="#DejaVuSans-52"/>
       <use x="127.246094" xlink:href="#DejaVuSans-56"/>
      </g>
     </g>
    </g>
    <g id="ytick_3">
     <g id="line2d_21">
      <path clip-path="url(#pe5b8851600)" d="M 54 120.28316 
L 388.8 120.28316 
" style="fill:none;stroke:#b0b0b0;stroke-linecap:square;stroke-width:0.8;"/>
     </g>
     <g id="line2d_22">
      <g>
       <use style="stroke:#000000;stroke-width:0.8;" x="54" xlink:href="#m5ef41bc8de" y="120.28316"/>
      </g>
     </g>
     <g id="text_12">
      <!-- 250 -->
      <defs>
       <path d="M 10.796875 72.90625 
L 49.515625 72.90625 
L 49.515625 64.59375 
L 19.828125 64.59375 
L 19.828125 46.734375 
Q 21.96875 47.46875 24.109375 47.828125 
Q 26.265625 48.1875 28.421875 48.1875 
Q 40.625 48.1875 47.75 41.5 
Q 54.890625 34.8125 54.890625 23.390625 
Q 54.890625 11.625 47.5625 5.09375 
Q 40.234375 -1.421875 26.90625 -1.421875 
Q 22.3125 -1.421875 17.546875 -0.640625 
Q 12.796875 0.140625 7.71875 1.703125 
L 7.71875 11.625 
Q 12.109375 9.234375 16.796875 8.0625 
Q 21.484375 6.890625 26.703125 6.890625 
Q 35.15625 6.890625 40.078125 11.328125 
Q 45.015625 15.765625 45.015625 23.390625 
Q 45.015625 31 40.078125 35.4375 
Q 35.15625 39.890625 26.703125 39.890625 
Q 22.75 39.890625 18.8125 39.015625 
Q 14.890625 38.140625 10.796875 36.28125 
z
" id="DejaVuSans-53"/>
      </defs>
      <g transform="translate(27.9125 124.082379)scale(0.1 -0.1)">
       <use xlink:href="#DejaVuSans-50"/>
       <use x="63.623047" xlink:href="#DejaVuSans-53"/>
       <use x="127.246094" xlink:href="#DejaVuSans-48"/>
      </g>
     </g>
    </g>
    <g id="ytick_4">
     <g id="line2d_23">
      <path clip-path="url(#pe5b8851600)" d="M 54 76.279955 
L 388.8 76.279955 
" style="fill:none;stroke:#b0b0b0;stroke-linecap:square;stroke-width:0.8;"/>
     </g>
     <g id="line2d_24">
      <g>
       <use style="stroke:#000000;stroke-width:0.8;" x="54" xlink:href="#m5ef41bc8de" y="76.279955"/>
      </g>
     </g>
     <g id="text_13">
      <!-- 252 -->
      <g transform="translate(27.9125 80.079174)scale(0.1 -0.1)">
       <use xlink:href="#DejaVuSans-50"/>
       <use x="63.623047" xlink:href="#DejaVuSans-53"/>
       <use x="127.246094" xlink:href="#DejaVuSans-50"/>
      </g>
     </g>
    </g>
    <g id="text_14">
     <!-- voltage mag. [Volts] -->
     <defs>
      <path d="M 2.984375 54.6875 
L 12.5 54.6875 
L 29.59375 8.796875 
L 46.6875 54.6875 
L 56.203125 54.6875 
L 35.6875 0 
L 23.484375 0 
z
" id="DejaVuSans-118"/>
      <path d="M 30.609375 48.390625 
Q 23.390625 48.390625 19.1875 42.75 
Q 14.984375 37.109375 14.984375 27.296875 
Q 14.984375 17.484375 19.15625 11.84375 
Q 23.34375 6.203125 30.609375 6.203125 
Q 37.796875 6.203125 41.984375 11.859375 
Q 46.1875 17.53125 46.1875 27.296875 
Q 46.1875 37.015625 41.984375 42.703125 
Q 37.796875 48.390625 30.609375 48.390625 
z
M 30.609375 56 
Q 42.328125 56 49.015625 48.375 
Q 55.71875 40.765625 55.71875 27.296875 
Q 55.71875 13.875 49.015625 6.21875 
Q 42.328125 -1.421875 30.609375 -1.421875 
Q 18.84375 -1.421875 12.171875 6.21875 
Q 5.515625 13.875 5.515625 27.296875 
Q 5.515625 40.765625 12.171875 48.375 
Q 18.84375 56 30.609375 56 
z
" id="DejaVuSans-111"/>
      <path d="M 9.421875 75.984375 
L 18.40625 75.984375 
L 18.40625 0 
L 9.421875 0 
z
" id="DejaVuSans-108"/>
      <path d="M 34.28125 27.484375 
Q 23.390625 27.484375 19.1875 25 
Q 14.984375 22.515625 14.984375 16.5 
Q 14.984375 11.71875 18.140625 8.90625 
Q 21.296875 6.109375 26.703125 6.109375 
Q 34.1875 6.109375 38.703125 11.40625 
Q 43.21875 16.703125 43.21875 25.484375 
L 43.21875 27.484375 
z
M 52.203125 31.203125 
L 52.203125 0 
L 43.21875 0 
L 43.21875 8.296875 
Q 40.140625 3.328125 35.546875 0.953125 
Q 30.953125 -1.421875 24.3125 -1.421875 
Q 15.921875 -1.421875 10.953125 3.296875 
Q 6 8.015625 6 15.921875 
Q 6 25.140625 12.171875 29.828125 
Q 18.359375 34.515625 30.609375 34.515625 
L 43.21875 34.515625 
L 43.21875 35.40625 
Q 43.21875 41.609375 39.140625 45 
Q 35.0625 48.390625 27.6875 48.390625 
Q 23 48.390625 18.546875 47.265625 
Q 14.109375 46.140625 10.015625 43.890625 
L 10.015625 52.203125 
Q 14.9375 54.109375 19.578125 55.046875 
Q 24.21875 56 28.609375 56 
Q 40.484375 56 46.34375 49.84375 
Q 52.203125 43.703125 52.203125 31.203125 
z
" id="DejaVuSans-97"/>
      <path d="M 45.40625 27.984375 
Q 45.40625 37.75 41.375 43.109375 
Q 37.359375 48.484375 30.078125 48.484375 
Q 22.859375 48.484375 18.828125 43.109375 
Q 14.796875 37.75 14.796875 27.984375 
Q 14.796875 18.265625 18.828125 12.890625 
Q 22.859375 7.515625 30.078125 7.515625 
Q 37.359375 7.515625 41.375 12.890625 
Q 45.40625 18.265625 45.40625 27.984375 
z
M 54.390625 6.78125 
Q 54.390625 -7.171875 48.1875 -13.984375 
Q 42 -20.796875 29.203125 -20.796875 
Q 24.46875 -20.796875 20.265625 -20.09375 
Q 16.0625 -19.390625 12.109375 -17.921875 
L 12.109375 -9.1875 
Q 16.0625 -11.328125 19.921875 -12.34375 
Q 23.78125 -13.375 27.78125 -13.375 
Q 36.625 -13.375 41.015625 -8.765625 
Q 45.40625 -4.15625 45.40625 5.171875 
L 45.40625 9.625 
Q 42.625 4.78125 38.28125 2.390625 
Q 33.9375 0 27.875 0 
Q 17.828125 0 11.671875 7.65625 
Q 5.515625 15.328125 5.515625 27.984375 
Q 5.515625 40.671875 11.671875 48.328125 
Q 17.828125 56 27.875 56 
Q 33.9375 56 38.28125 53.609375 
Q 42.625 51.21875 45.40625 46.390625 
L 45.40625 54.6875 
L 54.390625 54.6875 
z
" id="DejaVuSans-103"/>
      <path d="M 10.6875 12.40625 
L 21 12.40625 
L 21 0 
L 10.6875 0 
z
" id="DejaVuSans-46"/>
      <path d="M 8.59375 75.984375 
L 29.296875 75.984375 
L 29.296875 69 
L 17.578125 69 
L 17.578125 -6.203125 
L 29.296875 -6.203125 
L 29.296875 -13.1875 
L 8.59375 -13.1875 
z
" id="DejaVuSans-91"/>
      <path d="M 28.609375 0 
L 0.78125 72.90625 
L 11.078125 72.90625 
L 34.1875 11.53125 
L 57.328125 72.90625 
L 67.578125 72.90625 
L 39.796875 0 
z
" id="DejaVuSans-86"/>
      <path d="M 30.421875 75.984375 
L 30.421875 -13.1875 
L 9.71875 -13.1875 
L 9.71875 -6.203125 
L 21.390625 -6.203125 
L 21.390625 69 
L 9.71875 69 
L 9.71875 75.984375 
z
" id="DejaVuSans-93"/>
     </defs>
     <g transform="translate(21.832812 194.168281)rotate(-90)scale(0.1 -0.1)">
      <use xlink:href="#DejaVuSans-118"/>
      <use x="59.179688" xlink:href="#DejaVuSans-111"/>
      <use x="120.361328" xlink:href="#DejaVuSans-108"/>
      <use x="148.144531" xlink:href="#DejaVuSans-116"/>
      <use x="187.353516" xlink:href="#DejaVuSans-97"/>
      <use x="248.632812" xlink:href="#DejaVuSans-103"/>
      <use x="312.109375" xlink:href="#DejaVuSans-101"/>
      <use x="373.632812" xlink:href="#DejaVuSans-32"/>
      <use x="405.419922" xlink:href="#DejaVuSans-109"/>
      <use x="502.832031" xlink:href="#DejaVuSans-97"/>
      <use x="564.111328" xlink:href="#DejaVuSans-103"/>
      <use x="627.587891" xlink:href="#DejaVuSans-46"/>
      <use x="659.375" xlink:href="#DejaVuSans-32"/>
      <use x="691.162109" xlink:href="#DejaVuSans-91"/>
      <use x="730.175781" xlink:href="#DejaVuSans-86"/>
      <use x="798.474609" xlink:href="#DejaVuSans-111"/>
      <use x="859.65625" xlink:href="#DejaVuSans-108"/>
      <use x="887.439453" xlink:href="#DejaVuSans-116"/>
      <use x="926.648438" xlink:href="#DejaVuSans-115"/>
      <use x="978.748047" xlink:href="#DejaVuSans-93"/>
     </g>
    </g>
   </g>
   <g id="line2d_25">
    <path clip-path="url(#pe5b8851600)" d="M 54 75.531901 
L 54.232662 75.377889 
L 54.465323 75.751917 
L 54.697985 76.565976 
L 54.930646 78.67813 
L 55.628631 79.998226 
L 55.861293 81.274319 
L 56.093954 72.825703 
L 56.326616 81.186312 
L 56.559277 82.572413 
L 56.791939 82.770428 
L 57.0246 83.936513 
L 57.257262 83.430476 
L 57.489924 84.244535 
L 57.722585 94.717298 
L 57.955247 94.739299 
L 58.187908 94.189259 
L 58.42057 82.968442 
L 58.653231 82.946441 
L 58.885893 83.056449 
L 59.118555 82.770428 
L 59.351216 84.200532 
L 59.583878 84.596561 
L 59.816539 85.916657 
L 60.049201 85.718642 
L 60.281862 85.718642 
L 60.747186 87.082742 
L 60.979847 82.726424 
L 61.44517 82.66042 
L 61.677832 82.858434 
L 61.910493 82.616416 
L 62.143155 82.902437 
L 62.375817 82.836433 
L 62.608478 82.550412 
L 62.84114 82.550412 
L 63.073801 81.318322 
L 63.539124 81.780356 
L 63.771786 81.230316 
L 64.004448 81.868362 
L 64.237109 83.518482 
L 64.702432 84.354543 
L 64.935094 84.354543 
L 65.400417 86.686713 
L 65.633079 86.180676 
L 65.86574 86.070668 
L 66.098402 85.740644 
L 66.331063 86.488699 
L 66.563725 88.820868 
L 67.029048 89.52492 
L 67.26171 89.172894 
L 67.494371 87.962806 
L 67.727033 88.512846 
L 67.959694 81.890364 
L 68.192356 82.572413 
L 68.425017 81.802357 
L 68.657679 79.77821 
L 68.890341 82.880436 
L 69.355664 79.030155 
L 70.053648 80.548266 
L 70.28631 79.624199 
L 70.518972 79.77821 
L 70.751633 81.692349 
L 70.984295 81.120308 
L 71.216956 81.120308 
L 71.449618 83.21046 
L 71.682279 83.122453 
L 71.914941 81.912365 
L 72.147603 81.758354 
L 72.845587 80.856288 
L 73.31091 81.0103 
L 73.776233 79.404183 
L 74.474218 77.248026 
L 74.70688 77.248026 
L 75.172203 74.69584 
L 75.404864 74.69584 
L 75.637526 74.893854 
L 76.102849 75.487897 
L 76.335511 74.827849 
L 77.033495 70.867561 
L 77.266157 71.615615 
L 77.498819 75.377889 
L 77.73148 74.321812 
L 77.964142 74.629835 
L 78.196803 74.585832 
L 78.894788 76.962005 
L 79.12745 76.323958 
L 79.360111 77.490043 
L 79.592773 77.226024 
L 79.825434 77.292029 
L 80.058096 77.138017 
L 80.290757 77.490043 
L 80.523419 77.402037 
L 80.756081 77.468042 
L 80.988742 78.106088 
L 81.221404 77.292029 
L 81.454065 77.050011 
L 81.686727 77.160019 
L 81.919388 80.064231 
L 82.15205 78.458114 
L 82.617373 77.270027 
L 82.850035 77.270027 
L 83.082696 79.074159 
L 83.548019 79.074159 
L 83.780681 80.944295 
L 84.013343 80.724279 
L 84.246004 83.848506 
L 84.478666 83.914511 
L 84.711327 84.86058 
L 85.17665 83.848506 
L 85.409312 83.848506 
L 85.641974 84.244535 
L 85.874635 84.376545 
L 86.107297 83.254463 
L 86.339958 81.186312 
L 86.57262 81.582341 
L 86.805281 81.186312 
L 87.037943 83.254463 
L 87.270605 82.880436 
L 87.735928 83.540484 
L 87.968589 82.374399 
L 88.201251 82.308394 
L 88.433912 83.892509 
L 88.666574 83.540484 
L 88.899236 81.582341 
L 89.131897 81.494335 
L 89.364559 79.404183 
L 89.59722 78.568122 
L 89.829882 78.568122 
L 90.062543 77.292029 
L 90.295205 76.741989 
L 90.527867 75.861925 
L 90.760528 75.861925 
L 90.99319 78.150091 
L 91.225851 76.918001 
L 91.458513 78.634126 
L 91.691174 76.587977 
L 91.923836 76.34596 
L 92.389159 76.653982 
L 92.621821 77.358034 
L 92.854482 77.028009 
L 93.087144 75.597905 
L 94.01779 76.279955 
L 94.250452 76.301957 
L 94.483113 76.059939 
L 94.715775 75.355888 
L 94.948436 76.147945 
L 95.181098 75.839923 
L 95.41376 76.323958 
L 95.646421 75.24588 
L 95.879083 76.477969 
L 96.111744 74.255808 
L 96.809729 77.44604 
L 97.042391 77.666056 
L 97.275052 77.57805 
L 97.740375 80.702277 
L 97.973037 81.032301 
L 98.205698 80.438258 
L 98.43836 80.988298 
L 98.671022 80.988298 
L 98.903683 80.438258 
L 99.136345 79.250171 
L 99.601668 80.284247 
L 100.066991 78.304102 
L 100.299653 78.920147 
L 100.764976 82.594415 
L 100.997637 81.450332 
L 101.230299 81.208314 
L 101.46296 83.562485 
L 101.695622 82.792429 
L 101.928284 117.862983 
L 102.393607 119.645113 
L 102.626268 118.699044 
L 102.85893 119.05107 
L 103.091591 121.295233 
L 103.324253 122.461318 
L 103.556915 122.769341 
L 103.789576 120.899205 
L 104.022238 122.61533 
L 104.254899 122.659333 
L 104.487561 123.187371 
L 104.720222 122.417315 
L 104.952884 122.505322 
L 105.185546 122.329309 
L 105.418207 121.845274 
L 105.650869 120.613184 
L 105.88353 120.591182 
L 106.116192 119.799125 
L 106.348853 120.019141 
L 106.581515 83.7605 
L 107.046838 83.914511 
L 107.2795 83.034447 
L 107.512161 82.968442 
L 107.977484 79.206168 
L 108.210146 79.09616 
L 108.442808 80.240243 
L 108.675469 79.954223 
L 108.908131 81.186312 
L 109.140792 80.614271 
L 109.838777 75.201876 
L 110.071438 75.311884 
L 110.3041 75.79592 
L 110.536762 75.487897 
L 110.769423 75.817921 
L 111.002085 76.389963 
L 111.234746 76.059939 
L 111.467408 77.116016 
L 111.932731 77.006008 
L 112.165393 76.962005 
L 112.398054 76.741989 
L 112.630716 76.301957 
L 112.863377 78.370107 
L 113.096039 78.876144 
L 113.3287 80.174239 
L 113.561362 79.690203 
L 113.794024 80.834287 
L 114.026685 80.856288 
L 114.259347 82.308394 
L 114.492008 82.440404 
L 115.422655 80.240243 
L 115.655316 79.272173 
L 115.887978 78.898146 
L 116.120639 77.182021 
L 116.353301 77.99608 
L 116.585962 79.712205 
L 117.051286 79.052157 
L 117.283947 81.032301 
L 117.516609 80.086232 
L 117.981932 82.572413 
L 118.214593 82.418402 
L 118.447255 80.152237 
L 118.679917 80.592269 
L 118.912578 80.218242 
L 119.14524 80.218242 
L 119.377901 81.868362 
L 119.610563 81.340324 
L 119.843224 82.088378 
L 120.075886 81.692349 
L 120.308548 81.692349 
L 120.541209 82.506408 
L 120.773871 81.890364 
L 121.006532 80.306248 
L 121.239194 80.614271 
L 121.471855 81.186312 
L 121.937179 78.304102 
L 122.16984 78.084086 
L 122.635163 78.12809 
L 123.333148 77.31403 
L 123.56581 78.348106 
L 123.798471 77.99608 
L 124.031133 76.873998 
L 124.496456 76.653982 
L 124.729117 77.31403 
L 124.961779 77.358034 
L 125.194441 78.612125 
L 125.427102 79.052157 
L 125.659764 80.372253 
L 125.892425 80.19624 
L 126.125087 82.506408 
L 126.357748 81.494335 
L 126.59041 79.866216 
L 126.823072 79.954223 
L 127.055733 77.798066 
L 127.288395 78.436112 
L 127.521056 78.282101 
L 127.986379 79.954223 
L 128.451703 82.264391 
L 128.684364 82.264391 
L 128.917026 82.638418 
L 129.382349 84.420548 
L 129.61501 85.014591 
L 129.847672 106.158131 
L 130.080334 107.346218 
L 130.312995 105.938115 
L 130.545657 83.7605 
L 130.778318 80.416256 
L 131.01098 80.19624 
L 131.243641 81.42833 
L 131.476303 74.035792 
L 131.708965 74.189803 
L 131.941626 73.243734 
L 132.174288 81.692349 
L 132.406949 81.692349 
L 132.639611 83.254463 
L 132.872272 83.408474 
L 133.104934 85.256609 
L 133.337596 83.650492 
L 133.802919 92.539139 
L 134.03558 95.333343 
L 134.268242 94.541285 
L 134.500903 89.656929 
L 134.966227 88.16082 
L 135.664211 90.096961 
L 135.896873 89.898947 
L 136.362196 93.683222 
L 136.594858 93.595216 
L 136.827519 90.779011 
L 137.060181 113.242647 
L 137.292842 106.708171 
L 137.525504 104.794032 
L 137.758165 78.260099 
L 137.990827 79.074159 
L 138.223489 78.018082 
L 138.45615 85.872654 
L 138.688812 83.122453 
L 139.386796 84.244535 
L 139.619458 84.156529 
L 139.85212 84.508554 
L 140.084781 83.848506 
L 140.317443 82.814431 
L 140.550104 82.770428 
L 140.782766 81.97837 
L 141.248089 79.492189 
L 141.480751 79.09616 
L 141.713412 80.636272 
L 141.946074 81.142309 
L 142.411397 83.100452 
L 142.644058 82.770428 
L 142.87672 82.66042 
L 143.109382 81.626344 
L 143.574705 78.084086 
L 143.807366 86.532702 
L 144.040028 82.352397 
L 144.272689 82.308394 
L 144.505351 82.902437 
L 144.738013 85.586633 
L 144.970674 85.212606 
L 145.203336 85.454623 
L 145.435997 85.212606 
L 145.668659 87.764791 
L 145.90132 88.248827 
L 146.133982 103.473936 
L 146.366644 103.495937 
L 146.599305 104.001974 
L 146.831967 104.177987 
L 147.064628 103.583944 
L 147.29729 103.979972 
L 147.529951 102.791886 
L 147.762613 104.816033 
L 147.995274 104.331998 
L 148.227936 104.354 
L 148.460598 104.133984 
L 148.693259 103.209916 
L 148.925921 103.099908 
L 149.158582 83.232461 
L 149.391244 83.276465 
L 149.623905 84.112525 
L 149.856567 107.78625 
L 150.089229 108.600309 
L 150.32189 148.357204 
L 150.554552 145.849022 
L 150.787213 176.629263 
L 151.252536 169.610752 
L 151.485198 123.011358 
L 151.950521 128.11573 
L 152.183183 129.127804 
L 152.415844 128.533761 
L 152.648506 124.81549 
L 152.881167 124.68348 
L 153.113829 201.535077 
L 153.346491 206.287423 
L 153.579152 204.219273 
L 153.811814 92.429131 
L 154.044475 92.715152 
L 154.277137 92.583142 
L 154.509798 111.944552 
L 154.74246 112.582599 
L 154.975122 79.690203 
L 155.207783 90.360981 
L 155.673106 92.121109 
L 155.905768 82.902437 
L 156.138429 80.130235 
L 156.836414 76.037937 
L 157.069076 76.962005 
L 157.301737 167.850624 
L 157.534399 168.862698 
L 157.76706 164.08835 
L 157.999722 81.472333 
L 158.232384 81.956368 
L 158.465045 90.580997 
L 158.697707 91.747081 
L 159.16303 88.182822 
L 159.395691 88.534848 
L 159.628353 87.104743 
L 160.093676 89.2609 
L 160.326338 91.945096 
L 160.791661 86.400692 
L 161.024322 88.886873 
L 161.256984 83.452477 
L 161.489646 84.200532 
L 161.722307 80.856288 
L 161.954969 111.240501 
L 162.18763 107.918259 
L 162.420292 115.442807 
L 162.652953 92.121109 
L 162.885615 129.457828 
L 163.118277 131.966011 
L 163.350938 121.911278 
L 163.5836 134.716211 
L 163.816261 135.222248 
L 164.048923 131.811999 
L 164.281584 118.325017 
L 164.514246 116.102855 
L 164.746908 187.652066 
L 164.979569 200.699016 
L 165.212231 200.324989 
L 165.444892 128.005722 
L 165.677554 134.276179 
L 165.910215 132.736067 
L 166.142877 140.986668 
L 166.375539 130.469902 
L 166.6082 106.730173 
L 166.840862 114.716754 
L 167.073523 114.144713 
L 167.306185 139.490559 
L 167.538846 126.861639 
L 167.771508 106.312142 
L 168.00417 118.149004 
L 168.236831 116.498884 
L 168.469493 91.813086 
L 168.702154 91.923094 
L 168.934816 105.498083 
L 169.167477 132.890078 
L 169.400139 105.542086 
L 169.632801 93.749227 
L 169.865462 95.047322 
L 170.098124 120.943208 
L 170.330785 121.999285 
L 170.563447 124.375458 
L 170.796108 130.31589 
L 171.02877 129.413825 
L 171.261432 129.259814 
L 171.494093 123.45139 
L 171.726755 106.42215 
L 171.959416 104.22199 
L 172.192078 103.341926 
L 172.424739 95.15733 
L 172.657401 93.727226 
L 172.890063 94.541285 
L 173.122724 100.151694 
L 173.355386 94.365272 
L 173.588047 73.837777 
L 173.820709 74.673838 
L 174.05337 78.392109 
L 174.286032 84.024519 
L 174.518694 85.190604 
L 174.751355 80.350251 
L 174.984017 84.17853 
L 175.216678 82.902437 
L 175.44934 82.638418 
L 175.682001 85.674639 
L 176.147325 82.836433 
L 176.379986 108.028267 
L 176.612648 111.020485 
L 176.845309 124.111439 
L 177.077971 122.989357 
L 177.310632 138.588493 
L 177.543294 127.323673 
L 177.775956 128.24774 
L 178.008617 113.000629 
L 178.706602 111.020485 
L 178.939263 105.080053 
L 179.171925 105.036049 
L 179.404587 107.52223 
L 179.637248 123.121366 
L 179.86991 124.243448 
L 180.102571 96.059396 
L 180.567894 76.918001 
L 180.800556 162.658246 
L 181.033218 161.646172 
L 181.265879 162.834259 
L 181.498541 73.639763 
L 181.731202 80.240243 
L 181.963864 81.450332 
L 182.196525 102.087835 
L 182.429187 106.158131 
L 182.661849 104.90404 
L 182.89451 81.692349 
L 183.127172 82.638418 
L 183.359833 81.450332 
L 183.592495 84.354543 
L 183.825156 82.550412 
L 184.057818 82.550412 
L 184.290479 82.11038 
L 184.755803 79.22817 
L 184.988464 49.504005 
L 185.221126 55.092412 
L 185.453787 47.23784 
L 185.686449 76.059939 
L 185.91911 71.615615 
L 186.384434 87.808795 
L 186.617095 88.732862 
L 186.849757 84.926585 
L 187.082418 73.199731 
L 187.31508 75.817921 
L 187.547741 75.11387 
L 187.780403 73.661764 
L 188.013065 73.485751 
L 188.245726 73.793774 
L 188.478388 75.201876 
L 188.711049 74.519827 
L 188.943711 71.901636 
L 189.176372 73.287737 
L 189.409034 112.758612 
L 189.641696 121.823272 
L 189.874357 119.337091 
L 190.107019 101.911822 
L 190.33968 103.473936 
L 190.805003 119.381094 
L 191.037665 117.664969 
L 191.270327 119.007067 
L 191.502988 123.231374 
L 191.73565 125.277523 
L 191.968311 118.677043 
L 192.200973 115.992847 
L 192.433634 115.288796 
L 192.666296 141.624714 
L 192.898958 141.910735 
L 193.131619 137.136387 
L 193.364281 127.543689 
L 193.596942 135.046235 
L 193.829604 127.081655 
L 194.062265 105.850109 
L 194.294927 105.850109 
L 194.527589 103.913968 
L 194.76025 106.928187 
L 194.992912 99.777666 
L 195.225573 103.033903 
L 195.458235 104.287995 
L 195.690896 122.945354 
L 195.923558 125.959573 
L 196.15622 107.390221 
L 196.388881 107.082198 
L 196.621543 95.179331 
L 196.854204 96.301413 
L 197.086866 92.759155 
L 197.319527 115.552815 
L 197.552189 114.276722 
L 197.784851 115.244793 
L 198.017512 105.718099 
L 198.482835 108.07227 
L 198.715497 111.020485 
L 198.948158 110.624456 
L 199.18082 110.558452 
L 199.413482 111.08649 
L 199.646143 111.08649 
L 199.878805 111.812543 
L 200.111466 113.132639 
L 200.576789 105.938115 
L 200.809451 106.576161 
L 201.042113 111.328508 
L 201.274774 111.240501 
L 201.507436 111.878548 
L 201.740097 110.140421 
L 201.972759 73.46375 
L 202.438082 91.04303 
L 202.670744 87.214751 
L 202.903405 69.987497 
L 203.136067 74.387817 
L 203.368728 85.388618 
L 203.60139 167.168574 
L 203.834051 166.904555 
L 204.066713 158.147917 
L 204.299375 103.099908 
L 204.532036 103.275921 
L 204.997359 99.183623 
L 205.462682 102.197843 
L 205.928006 102.263847 
L 206.160667 100.327706 
L 206.393329 88.600852 
L 206.62599 89.52492 
L 206.858652 89.590924 
L 207.091313 103.473936 
L 207.323975 106.664168 
L 207.556637 106.444152 
L 208.02196 104.948043 
L 208.254621 114.760758 
L 208.487283 113.902695 
L 208.719944 112.31858 
L 208.952606 75.091868 
L 209.185268 63.58503 
L 209.417929 62.330939 
L 209.650591 67.765335 
L 209.883252 78.41411 
L 210.115914 74.98186 
L 210.348575 73.903782 
L 210.581237 69.415455 
L 210.813899 73.771772 
L 211.04656 58.238641 
L 211.977206 60.900835 
L 212.209868 56.060482 
L 212.44253 55.708457 
L 212.907853 56.918545 
L 213.373176 62.792973 
L 213.605837 130.31589 
L 213.838499 131.67999 
L 214.071161 131.591983 
L 214.303822 63.695038 
L 214.536484 68.051356 
L 214.769145 66.841268 
L 215.234468 71.967641 
L 215.46713 66.247224 
L 215.699792 67.237296 
L 215.932453 73.155727 
L 216.165115 69.305447 
L 216.397776 69.525463 
L 216.630438 67.369306 
L 216.863099 72.935711 
L 217.095761 98.325561 
L 217.328423 94.629291 
L 217.561084 119.513104 
L 217.793746 119.139076 
L 218.026407 129.875858 
L 218.259069 128.049725 
L 218.49173 131.041943 
L 218.724392 121.009213 
L 218.957054 133.066091 
L 219.189715 119.029068 
L 219.422377 116.124857 
L 219.655038 116.784905 
L 219.8877 152.163482 
L 220.353023 150.557365 
L 220.585685 150.90939 
L 220.818346 146.553073 
L 221.051008 161.162137 
L 221.283669 160.392081 
L 221.748992 53.794317 
L 221.981654 55.730458 
L 222.214315 51.176127 
L 222.446977 56.038481 
L 222.679639 56.258497 
L 222.9123 57.996623 
L 223.144962 54.322356 
L 223.377623 67.501316 
L 223.610285 63.100995 
L 223.842946 61.780899 
L 224.075608 46.665798 
L 224.30827 44.443636 
L 224.540931 44.619649 
L 224.773593 44.575646 
L 225.006254 45.015678 
L 225.238916 96.587434 
L 225.471577 98.03954 
L 225.704239 107.148203 
L 225.936901 55.378433 
L 226.402224 56.016479 
L 226.634885 64.839122 
L 226.867547 63.541027 
L 227.100208 64.025062 
L 227.565532 60.878833 
L 228.030855 68.095359 
L 228.263516 68.975423 
L 228.496178 68.117361 
L 228.728839 66.445239 
L 229.194163 70.493534 
L 229.426824 81.076304 
L 229.659486 80.394255 
L 229.892147 81.142309 
L 230.124809 81.318322 
L 230.35747 81.032301 
L 230.590132 84.068522 
L 230.822794 83.430476 
L 231.055455 107.258211 
L 231.288117 107.65424 
L 231.520778 108.732319 
L 231.75344 111.856546 
L 231.986101 111.812543 
L 232.218763 107.632238 
L 232.451425 122.703336 
L 232.684086 123.03336 
L 232.916748 125.101511 
L 233.149409 109.612383 
L 233.382071 126.839637 
L 233.614732 125.849565 
L 233.847394 123.71541 
L 234.080056 106.290141 
L 234.312717 107.214208 
L 234.545379 109.106346 
L 234.77804 109.040341 
L 235.010702 108.644312 
L 235.243363 106.092126 
L 235.476025 81.076304 
L 235.708687 82.638418 
L 235.941348 81.648346 
L 236.17401 84.398546 
L 236.406671 84.838578 
L 236.639333 84.420548 
L 236.871994 81.692349 
L 237.104656 81.736352 
L 237.337318 108.534304 
L 237.569979 108.380293 
L 237.802641 126.245594 
L 238.035302 126.201591 
L 238.267964 125.739557 
L 238.500625 124.749485 
L 238.733287 124.793488 
L 238.965949 125.035506 
L 239.19861 126.531615 
L 239.431272 125.893568 
L 239.663933 123.627403 
L 239.896595 100.65773 
L 240.361918 97.951533 
L 240.59458 118.941062 
L 240.827241 118.215009 
L 241.059903 118.545033 
L 241.292564 120.437171 
L 241.525226 120.635185 
L 241.757887 120.415169 
L 241.990549 93.50721 
L 242.223211 94.431277 
L 242.455872 75.641909 
L 242.688534 73.375743 
L 242.921195 100.085689 
L 243.153857 102.065833 
L 243.386518 121.823272 
L 243.61918 121.625257 
L 243.851842 121.757267 
L 244.084503 100.459716 
L 244.317165 100.459716 
L 244.549826 99.953679 
L 244.782488 100.37171 
L 245.015149 97.90753 
L 245.247811 97.90753 
L 245.480473 96.037394 
L 245.713134 99.513647 
L 246.178457 101.88982 
L 246.411119 103.649948 
L 246.64378 104.420004 
L 246.876442 106.862182 
L 247.341765 108.776322 
L 247.574427 81.802357 
L 247.807088 84.816577 
L 248.03975 83.62849 
L 248.272411 84.31054 
L 248.505073 84.090524 
L 248.737735 84.376545 
L 248.970396 85.41062 
L 249.203058 87.522774 
L 249.435719 110.976482 
L 249.668381 86.334687 
L 249.901042 83.980516 
L 250.366366 83.122453 
L 250.599027 82.176384 
L 250.831689 83.100452 
L 251.06435 81.56034 
L 251.297012 108.534304 
L 251.529673 106.55416 
L 251.762335 106.268139 
L 251.994997 105.102054 
L 252.227658 104.618019 
L 252.46032 119.18308 
L 252.692981 118.787051 
L 252.925643 117.708972 
L 253.158304 102.967899 
L 253.390966 101.669804 
L 253.623628 99.513647 
L 253.856289 120.789197 
L 254.088951 115.442807 
L 254.321612 119.623112 
L 254.554274 98.787594 
L 254.786935 107.324216 
L 255.019597 97.335488 
L 255.252259 96.455424 
L 255.717582 96.785448 
L 255.950243 69.129434 
L 256.182905 85.388618 
L 256.415566 84.442549 
L 256.648228 82.440404 
L 256.88089 66.687256 
L 257.113551 66.775263 
L 257.346213 138.610495 
L 257.578874 139.402552 
L 257.811536 138.742504 
L 258.044197 65.103141 
L 258.276859 66.46724 
L 258.509521 64.377088 
L 258.742182 66.819266 
L 258.974844 68.029354 
L 259.207505 63.343013 
L 259.440167 61.51688 
L 259.672828 62.594958 
L 259.90549 69.723477 
L 260.138151 71.043574 
L 260.370813 63.827048 
L 260.603475 62.528954 
L 260.836136 64.201075 
L 261.301459 68.623397 
L 261.534121 68.425383 
L 261.766782 83.672493 
L 261.999444 84.288538 
L 262.232106 76.896 
L 262.464767 76.940003 
L 262.93009 74.717841 
L 263.162752 75.487897 
L 263.395413 135.508269 
L 263.628075 137.290398 
L 264.093398 138.918517 
L 264.32606 138.742504 
L 264.558721 139.116531 
L 264.791383 139.710575 
L 265.024044 147.47714 
L 265.256706 141.668717 
L 265.489368 125.321527 
L 265.722029 100.173695 
L 265.954691 98.215553 
L 266.187352 98.325561 
L 266.420014 64.729114 
L 266.652675 67.083285 
L 266.885337 67.039282 
L 267.117999 66.225223 
L 267.35066 66.775263 
L 267.815983 68.821412 
L 268.281306 69.371452 
L 268.513968 71.417601 
L 268.74663 70.317521 
L 268.979291 81.406328 
L 269.211953 83.452477 
L 269.677276 80.064231 
L 269.909937 86.488699 
L 270.142599 84.948586 
L 270.375261 117.290942 
L 270.607922 116.608892 
L 270.840584 117.774977 
L 271.073245 116.03685 
L 271.305907 116.16886 
L 271.538568 117.158932 
L 271.77123 113.550669 
L 272.003892 113.682679 
L 272.236553 105.674096 
L 272.469215 105.366073 
L 272.701876 119.667115 
L 272.934538 114.826762 
L 273.167199 112.956626 
L 273.399861 113.770685 
L 273.865184 107.984264 
L 274.097846 108.666314 
L 274.330507 112.274576 
L 274.563169 112.978628 
L 274.79583 110.448443 
L 275.028492 76.147945 
L 275.726477 74.519827 
L 276.1918 72.847705 
L 276.424461 70.71355 
L 276.657123 70.075503 
L 276.889785 80.856288 
L 277.122446 83.892509 
L 277.355108 85.256609 
L 277.587769 89.304904 
L 277.820431 89.040884 
L 278.053092 89.744936 
L 278.285754 89.590924 
L 278.518416 96.1254 
L 278.751077 83.936513 
L 278.983739 81.120308 
L 279.2164 81.42833 
L 279.449062 82.132381 
L 279.681723 83.540484 
L 279.914385 98.171549 
L 280.147047 97.159476 
L 280.379708 95.289339 
L 280.61237 86.202678 
L 281.077693 83.7605 
L 281.310354 83.100452 
L 281.543016 74.409819 
L 281.775678 99.227626 
L 282.008339 97.753519 
L 282.241001 103.12191 
L 282.473662 81.626344 
L 282.706324 77.424038 
L 283.171647 77.292029 
L 283.404309 78.084086 
L 283.63697 77.512045 
L 283.869632 79.668202 
L 284.102293 74.871852 
L 284.334955 74.43182 
L 284.567616 71.857633 
L 284.800278 71.857633 
L 285.03294 67.083285 
L 285.265601 88.006809 
L 285.730924 73.287737 
L 285.963586 132.054017 
L 286.196247 133.308108 
L 286.428909 132.450046 
L 286.661571 65.257152 
L 286.894232 65.433165 
L 287.126894 59.844758 
L 287.359555 60.944838 
L 287.592217 60.900835 
L 287.824878 69.327449 
L 288.290202 67.435311 
L 288.522863 69.151436 
L 288.988186 75.597905 
L 289.453509 68.337377 
L 289.686171 68.403381 
L 289.918833 68.93142 
L 290.151494 80.856288 
L 290.384156 78.920147 
L 290.616817 78.062085 
L 290.849479 83.892509 
L 291.08214 73.683766 
L 291.314802 73.969787 
L 291.547464 73.925784 
L 291.780125 76.059939 
L 292.012787 73.793774 
L 292.245448 66.973277 
L 292.47811 80.988298 
L 292.710771 79.272173 
L 292.943433 88.930876 
L 293.408756 69.635471 
L 293.641418 61.758897 
L 293.874079 60.878833 
L 294.106741 72.91371 
L 294.339402 74.849851 
L 294.572064 79.162165 
L 294.804726 70.691548 
L 295.037387 72.209659 
L 295.270049 71.26359 
L 295.50271 72.319667 
L 295.735372 79.22817 
L 295.968033 78.634126 
L 296.200695 78.54612 
L 296.433356 72.143654 
L 296.666018 71.439602 
L 296.89868 73.309739 
L 297.131341 86.664711 
L 297.364003 86.686713 
L 297.596664 79.316176 
L 297.829326 78.326104 
L 298.061987 80.570267 
L 298.294649 88.468843 
L 298.759972 90.250973 
L 298.992634 85.696641 
L 299.225295 83.650492 
L 299.457957 84.618562 
L 299.690618 88.886873 
L 299.92328 90.470989 
L 300.155942 90.823014 
L 300.388603 94.827306 
L 300.621265 87.434767 
L 300.853926 91.813086 
L 301.086588 90.360981 
L 301.319249 90.162966 
L 301.551911 86.136673 
L 301.784573 99.469644 
L 302.017234 97.35749 
L 302.249896 99.579652 
L 302.482557 113.814689 
L 302.715219 112.692607 
L 302.94788 113.176642 
L 303.180542 111.130493 
L 303.413204 112.362583 
L 303.645865 111.152495 
L 303.878527 111.350509 
L 304.111188 112.912623 
L 304.34385 112.05456 
L 304.576511 113.242647 
L 304.809173 115.640822 
L 305.041835 108.842327 
L 305.274496 117.642967 
L 305.507158 109.062343 
L 305.739819 106.532158 
L 305.972481 97.049468 
L 306.205142 100.173695 
L 306.437804 76.411965 
L 306.670466 76.059939 
L 306.903127 70.0315 
L 307.135789 80.284247 
L 307.36845 81.758354 
L 307.601112 79.668202 
L 307.833773 68.843413 
L 308.066435 67.941348 
L 308.299097 62.308937 
L 308.531758 62.770971 
L 308.997081 98.45757 
L 309.229743 92.737154 
L 309.462404 90.602998 
L 309.695066 71.989643 
L 309.927728 74.761844 
L 310.160389 76.103942 
L 310.393051 78.96415 
L 310.625712 78.480115 
L 310.858374 78.876144 
L 311.091035 79.580195 
L 311.323697 91.439059 
L 311.556359 93.859235 
L 312.021682 65.49917 
L 312.254343 65.939202 
L 312.487005 69.987497 
L 312.719666 70.44953 
L 313.18499 89.678931 
L 313.417651 89.898947 
L 313.650313 91.351053 
L 313.882974 86.620708 
L 314.115636 87.390764 
L 314.580959 126.751631 
L 314.813621 127.763705 
L 315.046282 118.413024 
L 315.278944 140.040599 
L 315.511605 140.502632 
L 315.744267 117.928988 
L 315.976928 120.569181 
L 316.20959 116.652895 
L 316.442252 126.619621 
L 316.674913 126.003576 
L 316.907575 130.733921 
L 317.140236 132.054017 
L 317.372898 131.415971 
L 317.605559 147.125115 
L 317.838221 147.279126 
L 318.070883 145.14497 
L 318.303544 116.234865 
L 318.536206 111.988556 
L 318.768867 111.526522 
L 319.001529 113.000629 
L 319.23419 88.094815 
L 319.466852 87.74279 
L 319.932175 119.05107 
L 320.164837 116.344873 
L 320.397498 96.323415 
L 320.63016 96.191405 
L 320.862821 108.006266 
L 321.095483 129.721847 
L 321.328145 129.633841 
L 321.560806 116.058852 
L 321.793468 139.930591 
L 322.026129 143.428845 
L 322.258791 145.232977 
L 322.491452 124.727483 
L 322.724114 116.542887 
L 323.189437 126.795634 
L 323.422099 136.498341 
L 323.65476 137.114386 
L 323.887422 133.242104 
L 324.120083 133.858148 
L 324.352745 135.66228 
L 324.585407 146.135043 
L 324.818068 123.473392 
L 325.05073 126.839637 
L 325.283391 111.988556 
L 325.748714 106.950189 
L 326.214038 91.747081 
L 326.446699 87.280756 
L 326.679361 90.118963 
L 326.912022 87.984807 
L 327.144684 91.813086 
L 327.377345 87.302758 
L 327.610007 88.050812 
L 327.842669 87.566777 
L 328.07533 86.796721 
L 328.307992 86.774719 
L 328.540653 66.335231 
L 329.005976 68.271372 
L 329.4713 66.929274 
L 329.703961 63.078994 
L 329.936623 65.191147 
L 330.169284 66.203221 
L 330.401946 70.471532 
L 330.634607 68.403381 
L 330.867269 90.801013 
L 331.099931 93.353198 
L 331.332592 92.869163 
L 331.565254 98.45757 
L 331.797915 98.325561 
L 332.030577 98.633583 
L 332.263238 105.146057 
L 332.4959 106.840181 
L 332.728562 111.2185 
L 332.961223 103.187915 
L 333.193885 124.529469 
L 333.426546 124.793488 
L 333.659208 123.561399 
L 333.891869 125.36553 
L 334.124531 121.427243 
L 334.589854 118.237011 
L 334.822516 133.594129 
L 335.055177 134.232176 
L 335.287839 132.934081 
L 335.5205 97.22548 
L 335.753162 97.731517 
L 335.985823 96.279412 
L 336.218485 72.561684 
L 336.683808 57.446583 
L 336.91647 57.644598 
L 337.149131 59.206712 
L 337.381793 57.600595 
L 337.614454 66.357232 
L 337.847116 62.352941 
L 338.079778 65.147144 
L 338.312439 65.983205 
L 338.545101 66.247224 
L 338.777762 65.631179 
L 339.010424 64.443093 
L 339.243085 77.842069 
L 339.475747 78.238098 
L 339.708409 78.172093 
L 339.94107 67.14929 
L 340.173732 66.027208 
L 340.406393 66.357232 
L 340.639055 67.875343 
L 340.871716 66.995279 
L 341.104378 77.622053 
L 341.33704 77.710059 
L 341.569701 86.774719 
L 341.802363 81.758354 
L 342.035024 82.792429 
L 342.267686 75.443894 
L 342.500347 86.09267 
L 342.965671 83.892509 
L 343.198332 83.848506 
L 343.430994 86.114671 
L 343.663655 87.104743 
L 343.896317 88.732862 
L 344.128978 87.456769 
L 344.36164 88.116817 
L 344.594302 88.248827 
L 344.826963 84.17853 
L 345.059625 75.24588 
L 345.292286 75.157873 
L 345.524948 76.807993 
L 345.757609 85.872654 
L 345.990271 87.434767 
L 346.222933 104.045977 
L 346.455594 108.226282 
L 346.688256 108.07227 
L 346.920917 93.881237 
L 347.153579 97.533503 
L 347.38624 113.616674 
L 347.618902 137.972448 
L 347.851564 133.814145 
L 348.084225 134.914225 
L 348.316887 141.756724 
L 348.549548 141.778725 
L 348.78221 142.746796 
L 349.014871 144.220903 
L 349.247533 144.30891 
L 349.712856 147.499142 
L 349.945518 143.956884 
L 350.178179 143.318837 
L 350.410841 144.814946 
L 350.643502 142.39477 
L 350.876164 150.90939 
L 351.108826 150.711376 
L 351.341487 164.176356 
L 351.574149 154.781672 
L 351.80681 159.115988 
L 352.272133 92.539139 
L 352.737457 94.123255 
L 352.970118 102.901894 
L 353.20278 104.948043 
L 353.435441 104.486009 
L 353.668103 105.036049 
L 354.133426 99.249628 
L 354.598749 87.214751 
L 354.831411 91.59307 
L 355.064072 106.774176 
L 355.296734 105.542086 
L 355.529395 107.148203 
L 355.762057 99.733663 
L 355.994719 100.283703 
L 356.22738 101.779812 
L 356.460042 92.671149 
L 356.692703 96.367418 
L 356.925365 96.477426 
L 357.158026 102.153839 
L 357.390688 136.76236 
L 357.62335 135.244249 
L 357.856011 134.892224 
L 358.088673 135.838293 
L 358.321334 133.74814 
L 358.553996 133.990158 
L 358.786657 132.802072 
L 359.019319 132.362039 
L 359.251981 134.5622 
L 359.484642 131.173953 
L 359.717304 130.425898 
L 360.182627 130.931935 
L 360.64795 118.479028 
L 360.880612 118.611038 
L 361.113273 89.040884 
L 361.578596 88.116817 
L 361.811258 79.624199 
L 362.043919 81.164311 
L 362.276581 83.804503 
L 362.509243 81.42833 
L 362.741904 82.088378 
L 362.974566 82.220388 
L 363.439889 88.42484 
L 363.67255 90.536993 
L 363.905212 88.226825 
L 364.137874 102.857891 
L 364.370535 102.659876 
L 364.603197 103.099908 
L 364.835858 90.49299 
L 365.06852 90.558995 
L 365.533843 101.581798 
L 365.766505 97.555504 
L 365.999166 97.467498 
L 366.231828 93.969243 
L 366.697151 98.545577 
L 366.929812 98.58958 
L 367.162474 98.369564 
L 367.395136 88.226825 
L 367.627797 86.026665 
L 367.860459 85.520628 
L 368.09312 85.740644 
L 368.558443 90.118963 
L 368.791105 126.377604 
L 369.023767 126.641623 
L 369.256428 130.007868 
L 369.48909 96.609436 
L 369.721751 99.161621 
L 369.954413 98.435569 
L 370.187074 94.827306 
L 370.419736 94.827306 
L 370.652397 91.703078 
L 370.885059 93.133182 
L 371.117721 92.627146 
L 371.350382 69.833486 
L 371.583044 67.215295 
L 371.815705 67.56732 
L 372.281028 89.964952 
L 372.51369 89.678931 
L 372.746352 85.564631 
L 372.979013 85.806649 
L 373.211675 89.238899 
L 373.444336 88.644856 
L 373.676998 95.465352 
L 374.374983 98.897602 
L 374.607644 101.88982 
L 374.840306 101.735809 
L 375.072967 82.682421 
L 375.305629 83.386473 
L 375.53829 82.968442 
L 375.770952 84.684567 
L 376.003614 84.156529 
L 376.236275 83.07845 
L 376.468937 82.682421 
L 376.701598 79.250171 
L 376.93426 78.920147 
L 377.166921 78.062085 
L 377.399583 81.890364 
L 377.632245 82.330396 
L 377.864906 85.014591 
L 378.097568 84.134527 
L 378.330229 94.805304 
L 378.562891 94.277266 
L 378.795552 96.851453 
L 379.028214 90.867017 
L 379.260876 91.17504 
L 379.493537 87.522774 
L 379.726199 77.490043 
L 379.95886 77.028009 
L 380.191522 77.512045 
L 380.424183 75.773918 
L 380.656845 75.751917 
L 381.122168 77.512045 
L 381.35483 77.666056 
L 381.820153 75.751917 
L 382.052814 76.609979 
L 382.285476 80.020227 
L 382.518138 81.340324 
L 382.750799 81.252317 
L 382.983461 125.475538 
L 383.216122 127.741703 
L 383.448784 125.78356 
L 383.681445 80.680275 
L 383.914107 79.162165 
L 384.146769 96.67544 
L 384.37943 98.501573 
L 384.612092 99.381637 
L 384.844753 99.799668 
L 385.310076 101.075761 
L 385.542738 100.78974 
L 385.7754 100.723735 
L 386.008061 98.369564 
L 386.240723 99.425641 
L 386.473384 99.777666 
L 387.171369 97.687514 
L 387.404031 96.741445 
L 387.636692 96.80745 
L 387.869354 95.641365 
L 388.102015 95.619363 
L 388.334677 95.949388 
L 388.567338 96.477426 
L 388.8 79.162165 
L 388.8 79.162165 
" style="fill:none;stroke:#008000;stroke-linecap:square;stroke-width:1.5;"/>
   </g>
   <g id="line2d_26">
    <path clip-path="url(#pe5b8851600)" d="M 54 77.519555 
L 54.232662 77.318685 
L 54.465323 77.8808 
L 54.697985 79.007222 
L 54.930646 81.65635 
L 55.628631 83.329284 
L 55.861293 84.898811 
L 56.093954 75.995041 
L 56.326616 84.859177 
L 56.559277 86.625397 
L 56.791939 86.825002 
L 57.0246 88.212134 
L 57.257262 87.591514 
L 57.489924 88.645521 
L 57.722585 102.943285 
L 57.955247 102.943285 
L 58.187908 102.267529 
L 58.42057 87.099798 
L 58.653231 87.099798 
L 58.885893 87.234216 
L 59.118555 86.96525 
L 59.351216 88.873802 
L 59.583878 89.497193 
L 59.816539 91.044035 
L 60.049201 90.732735 
L 60.281862 90.732735 
L 60.747186 92.711453 
L 60.979847 87.594763 
L 61.212509 87.474055 
L 61.44517 87.504017 
L 61.677832 87.759873 
L 61.910493 87.442076 
L 62.143155 87.832012 
L 62.375817 87.8414 
L 62.608478 87.565056 
L 62.84114 87.565056 
L 63.073801 86.181906 
L 63.539124 86.7427 
L 63.771786 86.087787 
L 64.004448 86.735024 
L 64.237109 88.829734 
L 64.702432 89.654613 
L 64.935094 89.654613 
L 65.400417 92.574303 
L 65.633079 91.895559 
L 65.86574 91.782657 
L 66.098402 91.343566 
L 66.331063 92.403586 
L 66.563725 95.182845 
L 67.029048 96.25234 
L 67.26171 95.790212 
L 67.494371 94.533235 
L 67.727033 95.24232 
L 67.959694 86.447007 
L 68.192356 87.151516 
L 68.425017 86.173181 
L 68.657679 83.72918 
L 68.890341 87.547989 
L 69.355664 82.823585 
L 70.053648 84.383842 
L 70.28631 83.161583 
L 70.518972 83.300612 
L 70.751633 85.839723 
L 70.984295 85.122823 
L 71.216956 85.122823 
L 71.449618 87.567108 
L 71.682279 87.550064 
L 71.914941 86.258115 
L 72.380264 85.774726 
L 72.612926 85.576977 
L 72.845587 85.15609 
L 73.31091 85.310768 
L 74.008895 82.434568 
L 74.474218 81.026273 
L 74.70688 81.026273 
L 75.172203 78.037433 
L 75.404864 78.037433 
L 75.637526 78.238764 
L 76.102849 78.824051 
L 76.335511 78.144387 
L 77.033495 73.26514 
L 77.266157 74.031948 
L 77.498819 78.741653 
L 77.73148 77.483975 
L 77.964142 77.789201 
L 78.196803 77.748984 
L 78.662126 79.632606 
L 78.894788 80.47791 
L 79.12745 79.49907 
L 79.360111 80.705576 
L 79.592773 80.418435 
L 79.825434 80.498361 
L 80.058096 80.327166 
L 80.290757 80.681026 
L 80.523419 80.594863 
L 80.756081 80.687504 
L 80.988742 81.634135 
L 81.221404 80.63956 
L 81.454065 80.385152 
L 81.686727 80.464332 
L 81.919388 83.644433 
L 82.15205 81.500829 
L 82.617373 80.290938 
L 82.850035 80.290938 
L 83.082696 82.499217 
L 83.548019 82.499217 
L 83.780681 84.736124 
L 84.013343 84.495434 
L 84.246004 87.99287 
L 84.478666 88.208887 
L 84.711327 89.48572 
L 85.17665 88.424173 
L 85.409312 88.424173 
L 85.641974 88.836745 
L 85.874635 88.949356 
L 86.107297 87.668464 
L 86.339958 85.099058 
L 86.57262 85.503252 
L 86.805281 85.107894 
L 87.037943 87.514959 
L 87.270605 87.122902 
L 87.735928 87.82078 
L 87.968589 86.323781 
L 88.201251 86.528797 
L 88.433912 88.451088 
L 88.666574 87.924982 
L 88.899236 85.587905 
L 89.131897 85.490783 
L 89.364559 83.063211 
L 89.59722 82.215237 
L 89.829882 82.215237 
L 90.062543 80.53728 
L 90.295205 79.975588 
L 90.527867 78.903258 
L 90.760528 78.903258 
L 90.99319 81.943057 
L 91.225851 80.325122 
L 91.458513 82.291811 
L 91.691174 79.889134 
L 91.923836 79.633975 
L 92.389159 79.957245 
L 92.621821 80.928888 
L 92.854482 80.309148 
L 93.087144 78.56868 
L 94.01779 79.292879 
L 94.250452 79.303749 
L 94.483113 79.058367 
L 94.715775 78.324785 
L 94.948436 79.361879 
L 95.181098 79.052906 
L 95.41376 79.52873 
L 95.646421 78.257827 
L 95.879083 79.845518 
L 96.111744 76.856693 
L 96.809729 81.045629 
L 97.042391 81.263864 
L 97.275052 81.13396 
L 97.740375 84.819995 
L 97.973037 85.170411 
L 98.205698 84.564819 
L 98.43836 85.319725 
L 98.671022 85.319725 
L 98.903683 84.734799 
L 99.136345 83.191492 
L 99.601668 84.331493 
L 100.066991 81.633786 
L 100.299653 82.368535 
L 100.764976 86.758059 
L 100.997637 85.324837 
L 101.230299 85.064605 
L 101.46296 87.808996 
L 101.695622 86.842738 
L 101.928284 127.831183 
L 102.393607 130.137072 
L 102.626268 128.970621 
L 102.85893 129.380231 
L 103.324253 133.50123 
L 103.556915 133.888872 
L 103.789576 131.698599 
L 104.022238 133.615412 
L 104.254899 133.653928 
L 104.487561 134.217805 
L 104.720222 133.323924 
L 104.952884 133.408286 
L 105.185546 133.239872 
L 105.418207 132.74615 
L 105.650869 131.199936 
L 105.88353 131.10573 
L 106.116192 130.105195 
L 106.348853 130.341308 
L 106.581515 87.815589 
L 107.046838 87.984817 
L 107.2795 86.774293 
L 107.512161 86.711301 
L 107.977484 82.206709 
L 108.210146 82.10633 
L 108.442808 83.61197 
L 108.675469 83.335675 
L 108.908131 84.90819 
L 109.140792 84.315256 
L 109.838777 78.209018 
L 110.071438 78.313428 
L 110.3041 78.81659 
L 110.536762 78.515465 
L 110.769423 78.845178 
L 111.002085 79.595264 
L 111.234746 79.256042 
L 111.467408 80.702817 
L 111.932731 80.608709 
L 112.165393 80.553122 
L 112.398054 80.324765 
L 112.630716 79.875958 
L 112.863377 82.358076 
L 113.096039 82.889887 
L 113.3287 84.512867 
L 113.561362 83.766794 
L 113.794024 85.169152 
L 114.026685 85.169152 
L 114.259347 86.979592 
L 114.492008 87.120359 
L 114.957331 85.845836 
L 115.189993 84.876414 
L 115.422655 84.536329 
L 115.655316 83.284988 
L 115.887978 82.890035 
L 116.120639 80.77257 
L 116.353301 81.879172 
L 116.585962 83.748554 
L 116.818624 83.13212 
L 117.051286 82.904245 
L 117.283947 85.221143 
L 117.516609 83.96104 
L 117.981932 86.932252 
L 118.214593 86.777735 
L 118.447255 84.129221 
L 118.679917 84.591761 
L 118.912578 84.208641 
L 119.14524 84.208641 
L 119.377901 86.177195 
L 119.610563 85.435937 
L 119.843224 86.232489 
L 120.075886 85.810814 
L 120.308548 85.810814 
L 120.541209 86.942587 
L 120.773871 86.124806 
L 121.006532 84.081233 
L 121.239194 84.324677 
L 121.471855 85.081877 
L 121.704517 82.917757 
L 121.937179 81.812581 
L 122.16984 81.568355 
L 122.635163 81.531501 
L 123.333148 80.696792 
L 123.56581 81.780642 
L 123.798471 81.132463 
L 124.031133 79.694994 
L 124.496456 79.468385 
L 124.729117 80.341956 
L 124.961779 80.400834 
L 125.194441 82.026637 
L 125.427102 82.63094 
L 125.659764 84.16747 
L 125.892425 84.019802 
L 126.125087 86.608345 
L 126.357748 85.445593 
L 126.59041 83.575839 
L 126.823072 83.65467 
L 127.055733 80.984439 
L 127.288395 81.64638 
L 127.521056 81.485602 
L 127.986379 83.482279 
L 128.451703 86.294031 
L 128.684364 86.294031 
L 128.917026 86.70121 
L 129.382349 88.821153 
L 129.61501 89.526441 
L 129.847672 114.200103 
L 130.080334 115.769682 
L 130.312995 113.962385 
L 130.545657 88.234545 
L 130.778318 84.119271 
L 131.01098 83.886915 
L 131.243641 85.45448 
L 131.476303 77.849926 
L 131.708965 78.021688 
L 131.941626 76.823494 
L 132.174288 85.862689 
L 132.406949 85.878882 
L 132.639611 87.886171 
L 132.872272 88.143797 
L 133.104934 90.595785 
L 133.337596 88.577955 
L 134.03558 102.881293 
L 134.268242 101.83557 
L 134.500903 96.001545 
L 134.733565 94.839767 
L 134.966227 94.26527 
L 135.198888 95.054265 
L 135.43155 96.334918 
L 135.664211 96.451361 
L 135.896873 96.255481 
L 136.362196 100.790692 
L 136.594858 100.736739 
L 136.827519 97.54611 
L 137.060181 123.371719 
L 137.292842 115.344414 
L 137.525504 113.109561 
L 137.758165 83.079616 
L 137.990827 84.200584 
L 138.223489 82.765785 
L 138.45615 90.856818 
L 138.688812 87.447673 
L 138.921473 88.098561 
L 139.154135 88.382981 
L 139.386796 89.060963 
L 139.619458 89.006948 
L 139.85212 89.373954 
L 140.317443 87.145831 
L 140.550104 87.098079 
L 140.782766 86.174188 
L 141.248089 83.158524 
L 141.480751 82.747572 
L 141.713412 84.517202 
L 141.946074 84.968788 
L 142.411397 87.359714 
L 142.644058 87.036866 
L 142.87672 86.917079 
L 143.342043 83.702672 
L 143.574705 81.728229 
L 143.807366 92.263651 
L 144.040028 87.768926 
L 144.272689 87.740501 
L 144.505351 88.380381 
L 144.738013 91.020173 
L 144.970674 90.50416 
L 145.203336 90.698416 
L 145.435997 90.509215 
L 145.668659 93.672203 
L 145.90132 94.204259 
L 146.133982 114.79925 
L 146.366644 114.832417 
L 146.831967 115.956487 
L 147.064628 115.319298 
L 147.29729 115.779193 
L 147.529951 114.402575 
L 147.762613 116.77905 
L 147.995274 116.137425 
L 148.227936 116.094232 
L 148.460598 115.865938 
L 148.693259 114.737549 
L 148.925921 114.628373 
L 149.158582 94.080427 
L 149.391244 94.246665 
L 149.623905 95.341113 
L 149.856567 120.543271 
L 150.089229 121.532299 
L 150.32189 168.314814 
L 150.554552 165.724495 
L 150.787213 207.703149 
L 151.252536 199.581119 
L 151.485198 136.203442 
L 152.183183 143.260499 
L 152.415844 142.498179 
L 152.648506 138.907587 
L 152.881167 138.776735 
L 153.113829 237.118346 
L 153.346491 242.116364 
L 153.579152 239.832733 
L 153.811814 105.395918 
L 154.044475 105.734928 
L 154.277137 105.66586 
L 154.509798 125.539573 
L 154.74246 126.185043 
L 154.975122 87.87128 
L 155.207783 99.25081 
L 155.673106 101.485246 
L 155.905768 91.755589 
L 156.138429 88.551116 
L 156.836414 84.627169 
L 157.069076 85.751815 
L 157.301737 197.383564 
L 157.534399 198.848158 
L 157.76706 192.806618 
L 157.999722 89.270579 
L 158.232384 89.959831 
L 158.465045 98.925481 
L 158.697707 100.204033 
L 159.16303 95.859182 
L 159.395691 96.301124 
L 159.628353 94.497313 
L 160.093676 96.982333 
L 160.326338 100.295598 
L 160.791661 93.591679 
L 161.024322 96.32574 
L 161.256984 90.737985 
L 161.489646 91.653632 
L 161.722307 88.987523 
L 161.954969 123.666948 
L 162.18763 119.716345 
L 162.420292 127.458656 
L 162.652953 100.294043 
L 162.885615 146.773882 
L 163.118277 149.763215 
L 163.350938 139.430475 
L 163.5836 155.562677 
L 163.816261 156.158111 
L 164.048923 152.368657 
L 164.281584 135.587651 
L 164.514246 133.094143 
L 164.746908 223.275345 
L 164.979569 240.731501 
L 165.212231 239.983023 
L 165.444892 148.333301 
L 165.677554 158.639291 
L 165.910215 156.824454 
L 166.142877 165.526684 
L 166.375539 151.595956 
L 166.6082 127.111257 
L 166.840862 137.651702 
L 167.073523 136.85372 
L 167.306185 163.643302 
L 167.771508 121.60581 
L 168.00417 134.362997 
L 168.236831 132.553094 
L 168.469493 106.648404 
L 168.702154 106.997726 
L 168.934816 125.984072 
L 169.167477 155.221123 
L 169.632801 110.768565 
L 169.865462 112.191236 
L 170.098124 138.910021 
L 170.330785 140.065989 
L 170.563447 142.757846 
L 170.796108 151.986421 
L 171.02877 150.848798 
L 171.261432 150.678503 
L 171.494093 142.173619 
L 171.726755 121.0009 
L 171.959416 118.52118 
L 172.192078 117.518209 
L 172.424739 109.269881 
L 172.657401 107.470155 
L 172.890063 108.570947 
L 173.122724 113.870421 
L 173.355386 107.917948 
L 173.588047 81.667451 
L 173.820709 82.832326 
L 174.05337 86.3697 
L 174.286032 92.327979 
L 174.518694 93.797921 
L 174.751355 88.541882 
L 174.984017 93.174861 
L 175.216678 91.95048 
L 175.44934 91.523142 
L 175.682001 94.540131 
L 176.147325 91.079689 
L 176.379986 121.280712 
L 176.612648 124.308987 
L 176.845309 140.716359 
L 177.077971 139.151698 
L 177.310632 158.555935 
L 177.543294 144.308142 
L 177.775956 145.388601 
L 178.008617 126.080958 
L 178.47394 124.510068 
L 178.706602 123.858021 
L 178.939263 117.379086 
L 179.171925 117.316565 
L 179.404587 120.047008 
L 179.637248 139.515115 
L 179.86991 140.803 
L 180.102571 107.924898 
L 180.335233 91.913013 
L 180.567894 84.944165 
L 180.800556 191.892784 
L 181.033218 190.663983 
L 181.265879 191.886428 
L 181.498541 81.105637 
L 181.731202 89.866095 
L 181.963864 90.767768 
L 182.196525 115.325774 
L 182.429187 122.769823 
L 182.661849 120.845462 
L 182.89451 93.411276 
L 183.127172 94.954833 
L 183.359833 93.366403 
L 183.592495 96.691165 
L 183.825156 94.241797 
L 184.057818 94.249128 
L 184.290479 93.719756 
L 184.523141 92.692329 
L 184.755803 90.700147 
L 184.988464 59.493178 
L 185.221126 65.411189 
L 185.453787 59.955048 
L 185.686449 90.110642 
L 185.91911 85.614008 
L 186.384434 100.030653 
L 186.617095 100.771344 
L 186.849757 96.197897 
L 187.082418 79.722455 
L 187.31508 81.941383 
L 187.547741 81.188941 
L 187.780403 79.125465 
L 188.245726 78.847257 
L 188.478388 80.600563 
L 188.711049 80.355588 
L 188.943711 77.658562 
L 189.176372 79.401471 
L 189.409034 128.171779 
L 189.641696 139.649222 
L 189.874357 136.653513 
L 190.107019 116.524723 
L 190.33968 118.608734 
L 190.805003 138.463444 
L 191.037665 135.956834 
L 191.270327 136.859633 
L 191.502988 141.952891 
L 191.73565 144.399468 
L 192.200973 136.754498 
L 192.433634 135.860027 
L 192.666296 164.472502 
L 192.898958 164.283109 
L 193.131619 160.289374 
L 193.364281 147.925694 
L 193.596942 156.003594 
L 193.829604 145.315587 
L 194.062265 118.354271 
L 194.294927 118.354271 
L 194.527589 116.354175 
L 194.76025 119.30966 
L 194.992912 111.766417 
L 195.225573 115.611601 
L 195.458235 117.21826 
L 195.690896 140.293622 
L 195.923558 144.11617 
L 196.15622 121.36415 
L 196.388881 121.063049 
L 196.621543 106.035998 
L 196.854204 106.959826 
L 197.086866 102.584928 
L 197.319527 131.092525 
L 197.552189 129.87678 
L 197.784851 131.34722 
L 198.017512 122.678951 
L 198.482835 125.168782 
L 198.715497 126.949227 
L 198.948158 126.54479 
L 199.18082 126.479345 
L 199.646143 126.565849 
L 199.878805 127.486634 
L 200.111466 128.965363 
L 200.576789 120.232564 
L 200.809451 120.898974 
L 201.042113 126.656999 
L 201.274774 126.556638 
L 201.507436 127.207956 
L 201.740097 124.842491 
L 201.972759 77.837139 
L 202.20542 92.979673 
L 202.438082 99.432463 
L 202.670744 95.700763 
L 202.903405 74.137727 
L 203.136067 78.700047 
L 203.368728 93.118992 
L 203.60139 196.14438 
L 203.834051 195.843959 
L 204.066713 183.32449 
L 204.299375 113.677143 
L 204.532036 113.85659 
L 204.997359 109.019896 
L 205.695344 112.731984 
L 205.928006 112.731499 
L 206.160667 110.403542 
L 206.393329 98.543931 
L 206.62599 99.683552 
L 206.858652 99.752822 
L 207.091313 114.438476 
L 207.323975 117.840734 
L 207.556637 117.39509 
L 208.02196 115.85086 
L 208.254621 127.952605 
L 208.487283 126.832114 
L 208.719944 124.874355 
L 208.952606 79.067684 
L 209.185268 70.224567 
L 209.417929 68.733062 
L 209.883252 83.174936 
L 210.115914 79.589337 
L 210.348575 78.040492 
L 210.581237 72.857169 
L 210.813899 77.829132 
L 211.04656 61.497399 
L 211.511883 62.843214 
L 211.977206 64.709941 
L 212.209868 59.270305 
L 212.44253 58.903778 
L 212.675191 59.479539 
L 212.907853 60.425546 
L 213.373176 67.504274 
L 213.605837 150.313053 
L 213.838499 152.04483 
L 214.071161 151.946043 
L 214.303822 68.413726 
L 214.536484 73.636228 
L 214.769145 72.21482 
L 215.001807 74.528767 
L 215.234468 78.368118 
L 215.46713 72.046476 
L 215.699792 73.118184 
L 215.932453 79.099496 
L 216.165115 75.068216 
L 216.397776 75.322664 
L 216.630438 72.723435 
L 216.863099 79.241109 
L 217.095761 110.602779 
L 217.328423 106.613371 
L 217.561084 135.864397 
L 217.793746 135.372044 
L 218.026407 148.988659 
L 218.259069 146.697228 
L 218.49173 150.205242 
L 218.724392 137.257813 
L 218.957054 153.846156 
L 219.189715 135.051959 
L 219.422377 131.928945 
L 219.655038 132.687519 
L 219.8877 174.415307 
L 220.353023 172.734338 
L 220.585685 173.100669 
L 220.818346 167.981616 
L 221.051008 186.233111 
L 221.283669 185.337638 
L 221.748992 57.369373 
L 221.981654 59.190754 
L 222.214315 54.608963 
L 222.446977 60.133023 
L 222.679639 60.35628 
L 222.9123 62.681126 
L 223.144962 59.167435 
L 223.377623 75.939508 
L 223.610285 70.657454 
L 223.842946 68.605015 
L 224.075608 49.610761 
L 224.30827 46.75717 
L 224.540931 46.963618 
L 224.773593 46.880215 
L 225.006254 47.350304 
L 225.238916 115.472035 
L 225.471577 117.032567 
L 225.704239 126.790407 
L 225.936901 58.458514 
L 226.169562 58.808646 
L 226.402224 58.732527 
L 226.634885 68.140241 
L 226.867547 66.532607 
L 227.100208 67.191031 
L 227.565532 63.451857 
L 228.030855 71.130518 
L 228.263516 72.316583 
L 228.728839 70.479484 
L 229.194163 75.391098 
L 229.426824 86.659615 
L 229.659486 85.879832 
L 229.892147 86.972732 
L 230.124809 87.147648 
L 230.35747 86.848732 
L 230.590132 90.059915 
L 230.822794 89.213699 
L 231.055455 118.841516 
L 231.288117 119.444419 
L 231.520778 120.636014 
L 231.75344 124.338118 
L 231.986101 124.282839 
L 232.218763 119.411662 
L 232.451425 138.021978 
L 232.684086 138.388035 
L 232.916748 140.571009 
L 233.149409 121.492671 
L 233.382071 142.877924 
L 233.614732 141.722162 
L 233.847394 138.844273 
L 234.080056 117.254196 
L 234.312717 118.120473 
L 234.545379 120.447427 
L 234.77804 120.290073 
L 235.010702 119.530098 
L 235.243363 116.470481 
L 235.476025 85.605913 
L 235.708687 87.68784 
L 235.941348 86.48254 
L 236.17401 89.596394 
L 236.406671 90.064309 
L 236.639333 89.643828 
L 236.871994 86.643585 
L 237.104656 86.70226 
L 237.337318 119.846105 
L 237.569979 119.676274 
L 237.802641 140.860602 
L 238.035302 140.778257 
L 238.267964 140.320121 
L 238.500625 139.122498 
L 238.733287 139.165496 
L 238.965949 139.436476 
L 239.19861 141.157713 
L 239.431272 140.481951 
L 239.663933 137.760698 
L 239.896595 113.456983 
L 240.361918 110.18471 
L 240.59458 132.260394 
L 240.827241 131.396076 
L 241.059903 131.74094 
L 241.292564 133.694215 
L 241.525226 133.882284 
L 241.757887 133.651993 
L 241.990549 100.348794 
L 242.223211 101.596466 
L 242.455872 79.542331 
L 242.688534 77.081235 
L 242.921195 110.099451 
L 243.153857 112.364232 
L 243.386518 135.958899 
L 243.61918 135.74644 
L 243.851842 135.888225 
L 244.084503 110.648 
L 244.317165 110.634501 
L 244.549826 110.123496 
L 244.782488 110.717921 
L 245.015149 107.495447 
L 245.247811 107.495447 
L 245.480473 105.106976 
L 245.713134 108.742474 
L 246.178457 111.816354 
L 247.341765 120.037189 
L 247.574427 86.653156 
L 247.807088 90.209681 
L 248.03975 89.339364 
L 248.272411 90.215104 
L 248.505073 90.355819 
L 248.737735 90.639316 
L 248.970396 92.073821 
L 249.203058 94.215175 
L 249.435719 123.524058 
L 249.668381 93.264928 
L 249.901042 90.299789 
L 250.366366 89.385581 
L 250.599027 88.338765 
L 250.831689 89.490843 
L 251.06435 87.603884 
L 251.297012 120.963661 
L 251.529673 118.583152 
L 251.762335 118.098895 
L 251.994997 116.619267 
L 252.227658 115.956621 
L 252.46032 133.733962 
L 252.692981 133.305459 
L 252.925643 132.191387 
L 253.158304 114.143132 
L 253.390966 112.857312 
L 253.623628 110.316652 
L 253.856289 135.949546 
L 254.088951 131.205042 
L 254.321612 135.753087 
L 254.554274 110.822703 
L 254.786935 119.233632 
L 255.019597 108.725238 
L 255.252259 107.883306 
L 255.717582 108.195909 
L 255.950243 73.916779 
L 256.182905 94.320421 
L 256.415566 93.147221 
L 256.648228 90.898709 
L 256.88089 70.985967 
L 257.113551 71.071335 
L 257.346213 160.54497 
L 257.578874 161.518893 
L 257.811536 160.60973 
L 258.044197 68.974752 
L 258.276859 70.38159 
L 258.509521 68.038278 
L 258.974844 72.010292 
L 259.207505 66.913663 
L 259.440167 64.96804 
L 259.672828 66.073348 
L 259.90549 73.63984 
L 260.138151 74.978698 
L 260.370813 67.409427 
L 260.603475 65.823815 
L 261.068798 70.761401 
L 261.301459 73.175096 
L 261.534121 72.954768 
L 261.766782 92.112927 
L 261.999444 92.765877 
L 262.232106 84.533493 
L 262.464767 84.579612 
L 262.93009 81.946799 
L 263.162752 83.004636 
L 263.395413 153.567764 
L 263.628075 155.748536 
L 264.093398 157.462974 
L 264.32606 157.656248 
L 264.558721 158.088164 
L 264.791383 158.811658 
L 265.024044 167.406858 
L 265.256706 161.193126 
L 265.954691 108.750962 
L 266.187352 108.879685 
L 266.420014 69.464424 
L 266.652675 72.313758 
L 266.885337 72.205485 
L 267.117999 71.393126 
L 267.35066 72.326803 
L 267.815983 75.419058 
L 268.281306 76.21521 
L 268.513968 77.977301 
L 268.74663 76.433776 
L 268.979291 87.779802 
L 269.211953 90.201035 
L 269.677276 86.098299 
L 269.909937 92.997701 
L 270.142599 91.163531 
L 270.375261 129.093246 
L 270.607922 128.220777 
L 270.840584 129.626944 
L 271.073245 127.474162 
L 271.305907 127.677587 
L 271.538568 128.975209 
L 271.77123 124.546022 
L 272.003892 124.691959 
L 272.236553 116.255623 
L 272.469215 115.564213 
L 272.701876 134.682678 
L 272.934538 129.641423 
L 273.167199 128.027553 
L 273.399861 129.451561 
L 273.865184 122.945868 
L 274.097846 123.292562 
L 274.330507 127.305302 
L 274.563169 128.113235 
L 274.79583 125.048408 
L 275.028492 85.053845 
L 275.261154 84.564061 
L 275.493815 84.436018 
L 275.959138 82.221219 
L 276.1918 81.84754 
L 276.424461 79.323284 
L 276.657123 78.666815 
L 276.889785 90.354523 
L 277.122446 94.033117 
L 277.355108 95.632315 
L 277.587769 99.743725 
L 277.820431 99.671502 
L 278.053092 100.601367 
L 278.285754 100.458102 
L 278.518416 107.628251 
L 278.751077 91.074504 
L 278.983739 88.058613 
L 279.2164 88.48591 
L 279.449062 89.40817 
L 279.681723 91.08344 
L 279.914385 109.752311 
L 280.147047 108.647349 
L 280.379708 106.750608 
L 280.61237 94.444606 
L 281.077693 91.875173 
L 281.310354 91.094759 
L 281.543016 82.018951 
L 281.775678 110.602173 
L 282.008339 108.842285 
L 282.241001 114.135345 
L 282.473662 89.156402 
L 282.706324 84.778171 
L 282.938985 85.018652 
L 283.171647 84.876322 
L 283.404309 85.7628 
L 283.63697 85.035671 
L 283.869632 87.384376 
L 284.102293 82.479828 
L 284.334955 82.302096 
L 284.567616 81.122879 
L 284.800278 81.148012 
L 285.03294 75.774464 
L 285.265601 100.544076 
L 285.730924 85.091247 
L 285.963586 158.55912 
L 286.196247 159.603614 
L 286.428909 159.206274 
L 286.661571 74.066753 
L 286.894232 74.323004 
L 287.126894 68.846296 
L 287.359555 69.842615 
L 287.592217 69.555504 
L 287.824878 78.711794 
L 288.290202 76.272543 
L 288.522863 78.066625 
L 288.988186 84.778179 
L 289.453509 77.451834 
L 289.686171 77.63397 
L 289.918833 78.264231 
L 290.151494 90.676483 
L 290.384156 88.360001 
L 290.616817 87.21895 
L 290.849479 93.251219 
L 291.08214 82.481853 
L 291.314802 82.800879 
L 291.547464 82.747127 
L 291.780125 85.626751 
L 292.012787 82.797479 
L 292.245448 76.088395 
L 292.47811 93.325342 
L 292.710771 91.292183 
L 292.943433 103.981617 
L 293.176095 89.104376 
L 293.408756 81.54001 
L 293.641418 69.459791 
L 293.874079 68.527423 
L 294.106741 82.707401 
L 294.339402 84.778147 
L 294.572064 89.315761 
L 294.804726 79.111879 
L 295.037387 81.131705 
L 295.270049 80.181991 
L 295.50271 81.464157 
L 295.735372 88.095163 
L 295.968033 87.746145 
L 296.200695 87.76785 
L 296.433356 80.949371 
L 296.666018 80.329721 
L 296.89868 82.626376 
L 297.131341 96.59269 
L 297.364003 96.8149 
L 297.596664 89.924826 
L 297.829326 88.485482 
L 298.061987 91.514732 
L 298.294649 98.948812 
L 298.759972 100.945666 
L 299.225295 93.951125 
L 299.457957 95.252263 
L 299.690618 99.710297 
L 299.92328 101.591317 
L 300.155942 101.960884 
L 300.388603 106.754791 
L 300.621265 97.757347 
L 300.853926 103.608094 
L 301.086588 102.075189 
L 301.319249 101.75244 
L 301.551911 96.086669 
L 301.784573 115.061302 
L 302.017234 112.820854 
L 302.249896 115.336996 
L 302.482557 130.338886 
L 302.715219 129.12369 
L 302.94788 130.001759 
L 303.180542 127.380931 
L 303.413204 128.852531 
L 303.645865 127.449791 
L 303.878527 127.757216 
L 304.111188 129.4979 
L 304.34385 128.621026 
L 304.576511 130.147116 
L 304.809173 132.936644 
L 305.041835 125.715602 
L 305.274496 139.495011 
L 305.507158 130.578162 
L 305.739819 127.878957 
L 305.972481 114.526109 
L 306.205142 117.312558 
L 306.437804 87.805235 
L 306.670466 87.368886 
L 306.903127 80.693543 
L 307.135789 94.541321 
L 307.36845 96.578272 
L 307.601112 94.261818 
L 307.833773 79.518839 
L 308.066435 78.468288 
L 308.299097 72.710791 
L 308.531758 73.217308 
L 308.997081 115.564703 
L 309.229743 109.384792 
L 309.462404 107.353096 
L 309.695066 84.190863 
L 310.393051 90.868891 
L 310.625712 90.40893 
L 311.091035 91.752932 
L 311.323697 106.169042 
L 311.556359 108.327129 
L 312.021682 76.269566 
L 312.254343 76.643359 
L 312.487005 80.660388 
L 312.719666 81.266495 
L 313.18499 103.755432 
L 313.417651 103.961795 
L 313.650313 105.789542 
L 313.882974 99.756483 
L 314.115636 100.599468 
L 314.580959 150.321532 
L 314.813621 151.488025 
L 315.046282 139.444281 
L 315.278944 166.080215 
L 315.511605 166.041693 
L 315.744267 139.159246 
L 315.976928 141.625685 
L 316.20959 137.228203 
L 316.442252 148.173355 
L 316.674913 147.398973 
L 316.907575 154.281424 
L 317.140236 155.63539 
L 317.372898 154.915179 
L 317.605559 174.164081 
L 317.838221 174.472527 
L 318.070883 172.03752 
L 318.303544 135.404017 
L 318.536206 130.727312 
L 318.768867 130.434323 
L 319.001529 131.88672 
L 319.23419 101.810473 
L 319.466852 101.180399 
L 319.699514 125.250332 
L 319.932175 137.104337 
L 320.164837 133.711345 
L 320.397498 109.741975 
L 320.63016 109.59407 
L 320.862821 125.139386 
L 321.095483 151.169572 
L 321.328145 151.030332 
L 321.560806 133.21703 
L 321.793468 161.747982 
L 322.258791 167.520661 
L 322.491452 143.263542 
L 322.724114 134.776669 
L 323.422099 157.493138 
L 323.65476 158.828178 
L 323.887422 154.919238 
L 324.120083 155.624176 
L 324.352745 157.216611 
L 324.585407 170.368816 
L 324.818068 143.266309 
L 325.05073 146.679422 
L 325.283391 128.623484 
L 325.748714 123.025129 
L 326.214038 106.174239 
L 326.446699 101.418416 
L 326.679361 104.577235 
L 326.912022 101.944188 
L 327.144684 105.904221 
L 327.377345 101.232159 
L 327.610007 101.916909 
L 328.07533 100.118519 
L 328.307992 100.111074 
L 328.540653 74.736669 
L 329.005976 76.815355 
L 329.4713 74.994343 
L 329.703961 71.099026 
L 329.936623 73.106726 
L 330.169284 74.067084 
L 330.401946 78.676483 
L 330.634607 76.134998 
L 330.867269 104.771317 
L 331.099931 107.627815 
L 331.332592 107.406841 
L 331.565254 113.425744 
L 331.797915 113.355197 
L 332.030577 113.132067 
L 332.263238 119.674099 
L 332.4959 121.619438 
L 332.728562 127.099351 
L 332.961223 118.655426 
L 333.193885 145.102929 
L 333.426546 145.550508 
L 333.659208 144.221689 
L 333.891869 146.776311 
L 334.124531 143.01595 
L 334.589854 139.820193 
L 334.822516 158.977159 
L 335.055177 159.588042 
L 335.287839 157.711507 
L 335.5205 111.582638 
L 335.753162 112.175265 
L 335.985823 110.268747 
L 336.218485 82.08611 
L 336.451147 70.947196 
L 336.683808 65.192403 
L 336.91647 65.459387 
L 337.149131 67.349919 
L 337.381793 65.542098 
L 337.614454 74.807305 
L 337.847116 69.852673 
L 338.079778 73.418832 
L 338.312439 74.550055 
L 338.545101 74.516408 
L 338.777762 73.695995 
L 339.010424 71.614044 
L 339.243085 89.106617 
L 339.475747 89.519446 
L 339.708409 89.511353 
L 339.94107 74.543197 
L 340.173732 73.163789 
L 340.406393 73.683973 
L 340.639055 75.310839 
L 340.871716 74.430267 
L 341.104378 85.941324 
L 341.33704 86.360388 
L 341.569701 99.181197 
L 341.802363 94.17333 
L 342.035024 95.35909 
L 342.267686 84.947517 
L 342.500347 96.989334 
L 342.965671 94.228922 
L 343.198332 94.25638 
L 343.430994 96.970486 
L 343.663655 98.022716 
L 343.896317 100.016711 
L 344.128978 98.538947 
L 344.36164 99.431883 
L 344.594302 99.375664 
L 344.826963 94.600988 
L 345.059625 85.428099 
L 345.292286 85.325189 
L 345.524948 86.812129 
L 345.757609 95.906553 
L 345.990271 97.784328 
L 346.222933 118.151884 
L 346.455594 122.743321 
L 346.688256 122.456675 
L 346.920917 105.454158 
L 347.153579 109.050176 
L 347.618902 160.259313 
L 347.851564 155.066504 
L 348.084225 156.61507 
L 348.316887 163.815682 
L 348.549548 163.933494 
L 348.78221 165.011423 
L 349.014871 166.713448 
L 349.247533 166.807294 
L 349.712856 171.289624 
L 349.945518 166.898723 
L 350.178179 166.606084 
L 350.410841 168.667212 
L 350.643502 165.801712 
L 350.876164 176.454109 
L 351.108826 176.259302 
L 351.341487 194.362113 
L 351.574149 182.747322 
L 351.80681 187.761784 
L 352.272133 105.044768 
L 352.737457 106.637185 
L 352.970118 116.686234 
L 353.20278 119.276409 
L 353.435441 118.67915 
L 353.668103 119.416882 
L 354.133426 112.689269 
L 354.598749 99.337848 
L 354.831411 104.024181 
L 355.064072 122.608082 
L 355.296734 120.869661 
L 355.529395 122.904276 
L 355.762057 112.596589 
L 355.994719 113.118214 
L 356.22738 115.193684 
L 356.460042 105.450346 
L 356.692703 109.751823 
L 356.925365 110.128437 
L 357.158026 116.10192 
L 357.390688 156.733226 
L 357.62335 154.640049 
L 357.856011 154.362937 
L 358.088673 155.502359 
L 358.321334 153.361446 
L 358.553996 153.683149 
L 358.786657 151.672435 
L 359.019319 151.335632 
L 359.251981 154.104772 
L 359.484642 149.815473 
L 359.717304 149.159664 
L 359.949965 149.895942 
L 360.182627 150.247878 
L 360.64795 137.868697 
L 360.880612 138.254745 
L 361.113273 101.403692 
L 361.578596 100.56856 
L 361.811258 91.594299 
L 362.043919 93.095673 
L 362.276581 96.454289 
L 362.509243 94.069922 
L 362.741904 94.941793 
L 362.974566 94.688885 
L 363.439889 101.364381 
L 363.67255 103.087582 
L 363.905212 100.261589 
L 364.137874 118.458829 
L 364.370535 118.167161 
L 364.603197 118.429856 
L 364.835858 102.370781 
L 365.06852 102.545204 
L 365.533843 113.541569 
L 365.766505 108.364445 
L 365.999166 108.274637 
L 366.231828 104.375184 
L 366.464489 107.85395 
L 366.697151 109.651322 
L 366.929812 109.704535 
L 367.162474 109.494151 
L 367.395136 98.725958 
L 367.627797 96.041451 
L 367.860459 95.295098 
L 368.09312 95.341575 
L 368.558443 100.788092 
L 368.791105 145.603253 
L 369.023767 145.916638 
L 369.256428 149.761183 
L 369.48909 108.524588 
L 369.721751 111.624203 
L 369.954413 111.459837 
L 370.187074 107.450212 
L 370.419736 107.410113 
L 370.652397 104.044162 
L 370.885059 105.436959 
L 371.117721 104.836806 
L 371.350382 80.963785 
L 371.583044 77.592875 
L 371.815705 80.084253 
L 372.281028 103.548676 
L 372.51369 102.477961 
L 372.746352 96.948647 
L 372.979013 97.228119 
L 373.211675 100.407911 
L 373.444336 99.654941 
L 373.676998 106.550306 
L 374.374983 110.461087 
L 374.607644 113.606305 
L 374.840306 113.691277 
L 375.072967 89.646079 
L 375.305629 90.330757 
L 375.53829 89.877722 
L 375.770952 91.986244 
L 376.003614 91.358769 
L 376.236275 90.084861 
L 376.468937 89.658619 
L 376.701598 86.510899 
L 376.93426 86.061196 
L 377.166921 85.183346 
L 377.399583 88.787562 
L 377.632245 89.351428 
L 377.864906 92.623271 
L 378.097568 91.569389 
L 378.330229 105.930403 
L 378.562891 105.450718 
L 378.795552 108.452644 
L 379.028214 99.215638 
L 379.260876 99.688453 
L 379.493537 95.414093 
L 379.726199 83.252563 
L 379.95886 82.760648 
L 380.191522 83.269339 
L 380.424183 81.06213 
L 380.656845 81.022495 
L 381.122168 83.288515 
L 381.35483 83.461803 
L 381.820153 80.97006 
L 382.052814 81.8579 
L 382.285476 85.876966 
L 382.518138 87.339493 
L 382.750799 87.252634 
L 382.983461 147.582138 
L 383.216122 150.230234 
L 383.448784 147.974809 
L 383.681445 86.551764 
L 383.914107 84.715944 
L 384.146769 107.840351 
L 384.612092 110.458982 
L 385.310076 112.484211 
L 385.542738 112.001882 
L 385.7754 111.940762 
L 386.008061 109.218431 
L 386.240723 110.622268 
L 386.473384 111.043014 
L 386.938707 109.524825 
L 387.404031 107.432971 
L 387.636692 107.517512 
L 387.869354 106.045863 
L 388.102015 105.87227 
L 388.567338 106.777581 
L 388.8 83.805781 
L 388.8 83.805781 
" style="fill:none;stroke:#ffa500;stroke-linecap:square;stroke-width:1.5;"/>
   </g>
   <g id="patch_3">
    <path d="M 54 252 
L 54 34.56 
" style="fill:none;stroke:#000000;stroke-linecap:square;stroke-linejoin:miter;stroke-width:0.8;"/>
   </g>
   <g id="patch_4">
    <path d="M 388.8 252 
L 388.8 34.56 
" style="fill:none;stroke:#000000;stroke-linecap:square;stroke-linejoin:miter;stroke-width:0.8;"/>
   </g>
   <g id="patch_5">
    <path d="M 54 252 
L 388.8 252 
" style="fill:none;stroke:#000000;stroke-linecap:square;stroke-linejoin:miter;stroke-width:0.8;"/>
   </g>
   <g id="patch_6">
    <path d="M 54 34.56 
L 388.8 34.56 
" style="fill:none;stroke:#000000;stroke-linecap:square;stroke-linejoin:miter;stroke-width:0.8;"/>
   </g>
   <g id="text_15">
    <!-- pp-DSS Voltage Phase C -->
    <defs>
     <path d="M 4.890625 31.390625 
L 31.203125 31.390625 
L 31.203125 23.390625 
L 4.890625 23.390625 
z
" id="DejaVuSans-45"/>
     <path d="M 19.671875 64.796875 
L 19.671875 8.109375 
L 31.59375 8.109375 
Q 46.6875 8.109375 53.6875 14.9375 
Q 60.6875 21.78125 60.6875 36.53125 
Q 60.6875 51.171875 53.6875 57.984375 
Q 46.6875 64.796875 31.59375 64.796875 
z
M 9.8125 72.90625 
L 30.078125 72.90625 
Q 51.265625 72.90625 61.171875 64.09375 
Q 71.09375 55.28125 71.09375 36.53125 
Q 71.09375 17.671875 61.125 8.828125 
Q 51.171875 0 30.078125 0 
L 9.8125 0 
z
" id="DejaVuSans-68"/>
     <path d="M 53.515625 70.515625 
L 53.515625 60.890625 
Q 47.90625 63.578125 42.921875 64.890625 
Q 37.9375 66.21875 33.296875 66.21875 
Q 25.25 66.21875 20.875 63.09375 
Q 16.5 59.96875 16.5 54.203125 
Q 16.5 49.359375 19.40625 46.890625 
Q 22.3125 44.4375 30.421875 42.921875 
L 36.375 41.703125 
Q 47.40625 39.59375 52.65625 34.296875 
Q 57.90625 29 57.90625 20.125 
Q 57.90625 9.515625 50.796875 4.046875 
Q 43.703125 -1.421875 29.984375 -1.421875 
Q 24.8125 -1.421875 18.96875 -0.25 
Q 13.140625 0.921875 6.890625 3.21875 
L 6.890625 13.375 
Q 12.890625 10.015625 18.65625 8.296875 
Q 24.421875 6.59375 29.984375 6.59375 
Q 38.421875 6.59375 43.015625 9.90625 
Q 47.609375 13.234375 47.609375 19.390625 
Q 47.609375 24.75 44.3125 27.78125 
Q 41.015625 30.8125 33.5 32.328125 
L 27.484375 33.5 
Q 16.453125 35.6875 11.515625 40.375 
Q 6.59375 45.0625 6.59375 53.421875 
Q 6.59375 63.09375 13.40625 68.65625 
Q 20.21875 74.21875 32.171875 74.21875 
Q 37.3125 74.21875 42.625 73.28125 
Q 47.953125 72.359375 53.515625 70.515625 
z
" id="DejaVuSans-83"/>
     <path d="M 19.671875 64.796875 
L 19.671875 37.40625 
L 32.078125 37.40625 
Q 38.96875 37.40625 42.71875 40.96875 
Q 46.484375 44.53125 46.484375 51.125 
Q 46.484375 57.671875 42.71875 61.234375 
Q 38.96875 64.796875 32.078125 64.796875 
z
M 9.8125 72.90625 
L 32.078125 72.90625 
Q 44.34375 72.90625 50.609375 67.359375 
Q 56.890625 61.8125 56.890625 51.125 
Q 56.890625 40.328125 50.609375 34.8125 
Q 44.34375 29.296875 32.078125 29.296875 
L 19.671875 29.296875 
L 19.671875 0 
L 9.8125 0 
z
" id="DejaVuSans-80"/>
     <path d="M 54.890625 33.015625 
L 54.890625 0 
L 45.90625 0 
L 45.90625 32.71875 
Q 45.90625 40.484375 42.875 44.328125 
Q 39.84375 48.1875 33.796875 48.1875 
Q 26.515625 48.1875 22.3125 43.546875 
Q 18.109375 38.921875 18.109375 30.90625 
L 18.109375 0 
L 9.078125 0 
L 9.078125 75.984375 
L 18.109375 75.984375 
L 18.109375 46.1875 
Q 21.34375 51.125 25.703125 53.5625 
Q 30.078125 56 35.796875 56 
Q 45.21875 56 50.046875 50.171875 
Q 54.890625 44.34375 54.890625 33.015625 
z
" id="DejaVuSans-104"/>
     <path d="M 64.40625 67.28125 
L 64.40625 56.890625 
Q 59.421875 61.53125 53.78125 63.8125 
Q 48.140625 66.109375 41.796875 66.109375 
Q 29.296875 66.109375 22.65625 58.46875 
Q 16.015625 50.828125 16.015625 36.375 
Q 16.015625 21.96875 22.65625 14.328125 
Q 29.296875 6.6875 41.796875 6.6875 
Q 48.140625 6.6875 53.78125 8.984375 
Q 59.421875 11.28125 64.40625 15.921875 
L 64.40625 5.609375 
Q 59.234375 2.09375 53.4375 0.328125 
Q 47.65625 -1.421875 41.21875 -1.421875 
Q 24.65625 -1.421875 15.125 8.703125 
Q 5.609375 18.84375 5.609375 36.375 
Q 5.609375 53.953125 15.125 64.078125 
Q 24.65625 74.21875 41.21875 74.21875 
Q 47.75 74.21875 53.53125 72.484375 
Q 59.328125 70.75 64.40625 67.28125 
z
" id="DejaVuSans-67"/>
    </defs>
    <g transform="translate(148.588125 28.56)scale(0.12 -0.12)">
     <use xlink:href="#DejaVuSans-112"/>
     <use x="63.476562" xlink:href="#DejaVuSans-112"/>
     <use x="126.953125" xlink:href="#DejaVuSans-45"/>
     <use x="163.037109" xlink:href="#DejaVuSans-68"/>
     <use x="240.039062" xlink:href="#DejaVuSans-83"/>
     <use x="303.515625" xlink:href="#DejaVuSans-83"/>
     <use x="366.992188" xlink:href="#DejaVuSans-32"/>
     <use x="398.779297" xlink:href="#DejaVuSans-86"/>
     <use x="467.078125" xlink:href="#DejaVuSans-111"/>
     <use x="528.259766" xlink:href="#DejaVuSans-108"/>
     <use x="556.042969" xlink:href="#DejaVuSans-116"/>
     <use x="595.251953" xlink:href="#DejaVuSans-97"/>
     <use x="656.53125" xlink:href="#DejaVuSans-103"/>
     <use x="720.007812" xlink:href="#DejaVuSans-101"/>
     <use x="781.53125" xlink:href="#DejaVuSans-32"/>
     <use x="813.318359" xlink:href="#DejaVuSans-80"/>
     <use x="873.621094" xlink:href="#DejaVuSans-104"/>
     <use x="937" xlink:href="#DejaVuSans-97"/>
     <use x="998.279297" xlink:href="#DejaVuSans-115"/>
     <use x="1050.378906" xlink:href="#DejaVuSans-101"/>
     <use x="1111.902344" xlink:href="#DejaVuSans-32"/>
     <use x="1143.689453" xlink:href="#DejaVuSans-67"/>
    </g>
   </g>
   <g id="legend_1">
    <g id="patch_7">
     <path d="M 61 247 
L 106.823437 247 
Q 108.823437 247 108.823437 245 
L 108.823437 216.64375 
Q 108.823437 214.64375 106.823437 214.64375 
L 61 214.64375 
Q 59 214.64375 59 216.64375 
L 59 245 
Q 59 247 61 247 
z
" style="fill:#ffffff;opacity:0.8;stroke:#cccccc;stroke-linejoin:miter;"/>
    </g>
    <g id="line2d_27">
     <path d="M 63 222.742188 
L 83 222.742188 
" style="fill:none;stroke:#008000;stroke-linecap:square;stroke-width:1.5;"/>
    </g>
    <g id="line2d_28"/>
    <g id="text_16">
     <!-- V3 -->
     <defs>
      <path d="M 40.578125 39.3125 
Q 47.65625 37.796875 51.625 33 
Q 55.609375 28.21875 55.609375 21.1875 
Q 55.609375 10.40625 48.1875 4.484375 
Q 40.765625 -1.421875 27.09375 -1.421875 
Q 22.515625 -1.421875 17.65625 -0.515625 
Q 12.796875 0.390625 7.625 2.203125 
L 7.625 11.71875 
Q 11.71875 9.328125 16.59375 8.109375 
Q 21.484375 6.890625 26.8125 6.890625 
Q 36.078125 6.890625 40.9375 10.546875 
Q 45.796875 14.203125 45.796875 21.1875 
Q 45.796875 27.640625 41.28125 31.265625 
Q 36.765625 34.90625 28.71875 34.90625 
L 20.21875 34.90625 
L 20.21875 43.015625 
L 29.109375 43.015625 
Q 36.375 43.015625 40.234375 45.921875 
Q 44.09375 48.828125 44.09375 54.296875 
Q 44.09375 59.90625 40.109375 62.90625 
Q 36.140625 65.921875 28.71875 65.921875 
Q 24.65625 65.921875 20.015625 65.03125 
Q 15.375 64.15625 9.8125 62.3125 
L 9.8125 71.09375 
Q 15.4375 72.65625 20.34375 73.4375 
Q 25.25 74.21875 29.59375 74.21875 
Q 40.828125 74.21875 47.359375 69.109375 
Q 53.90625 64.015625 53.90625 55.328125 
Q 53.90625 49.265625 50.4375 45.09375 
Q 46.96875 40.921875 40.578125 39.3125 
z
" id="DejaVuSans-51"/>
     </defs>
     <g transform="translate(91 226.242188)scale(0.1 -0.1)">
      <use xlink:href="#DejaVuSans-86"/>
      <use x="68.408203" xlink:href="#DejaVuSans-51"/>
     </g>
    </g>
    <g id="line2d_29">
     <path d="M 63 237.420312 
L 83 237.420312 
" style="fill:none;stroke:#ffa500;stroke-linecap:square;stroke-width:1.5;"/>
    </g>
    <g id="line2d_30"/>
    <g id="text_17">
     <!-- VC -->
     <g transform="translate(91 240.920312)scale(0.1 -0.1)">
      <use xlink:href="#DejaVuSans-86"/>
      <use x="68.408203" xlink:href="#DejaVuSans-67"/>
     </g>
    </g>
   </g>
  </g>
 </g>
 <defs>
  <clipPath id="pe5b8851600">
   <rect height="217.44" width="334.8" x="54" y="34.56"/>
  </clipPath>
 </defs>
</svg>
