<?xml version="1.0" encoding="utf-8" standalone="no"?>
<!DOCTYPE svg PUBLIC "-//W3C//DTD SVG 1.1//EN"
  "http://www.w3.org/Graphics/SVG/1.1/DTD/svg11.dtd">
<!-- Created with matplotlib (https://matplotlib.org/) -->
<svg height="288pt" version="1.1" viewBox="0 0 432 288" width="432pt" xmlns="http://www.w3.org/2000/svg" xmlns:xlink="http://www.w3.org/1999/xlink">
 <defs>
  <style type="text/css">
*{stroke-linecap:butt;stroke-linejoin:round;}
  </style>
 </defs>
 <g id="figure_1">
  <g id="patch_1">
   <path d="M 0 288 
L 432 288 
L 432 0 
L 0 0 
z
" style="fill:#ffffff;"/>
  </g>
  <g id="axes_1">
   <g id="patch_2">
    <path d="M 54 252 
L 388.8 252 
L 388.8 34.56 
L 54 34.56 
z
" style="fill:#ffffff;"/>
   </g>
   <g id="matplotlib.axis_1">
    <g id="xtick_1">
     <g id="line2d_1">
      <path clip-path="url(#p8af53c6a81)" d="M 54 252 
L 54 34.56 
" style="fill:none;stroke:#b0b0b0;stroke-linecap:square;stroke-width:0.8;"/>
     </g>
     <g id="line2d_2">
      <defs>
       <path d="M 0 0 
L 0 3.5 
" id="m0e71624070" style="stroke:#000000;stroke-width:0.8;"/>
      </defs>
      <g>
       <use style="stroke:#000000;stroke-width:0.8;" x="54" xlink:href="#m0e71624070" y="252"/>
      </g>
     </g>
     <g id="text_1">
      <!-- 0 -->
      <defs>
       <path d="M 31.78125 66.40625 
Q 24.171875 66.40625 20.328125 58.90625 
Q 16.5 51.421875 16.5 36.375 
Q 16.5 21.390625 20.328125 13.890625 
Q 24.171875 6.390625 31.78125 6.390625 
Q 39.453125 6.390625 43.28125 13.890625 
Q 47.125 21.390625 47.125 36.375 
Q 47.125 51.421875 43.28125 58.90625 
Q 39.453125 66.40625 31.78125 66.40625 
z
M 31.78125 74.21875 
Q 44.046875 74.21875 50.515625 64.515625 
Q 56.984375 54.828125 56.984375 36.375 
Q 56.984375 17.96875 50.515625 8.265625 
Q 44.046875 -1.421875 31.78125 -1.421875 
Q 19.53125 -1.421875 13.0625 8.265625 
Q 6.59375 17.96875 6.59375 36.375 
Q 6.59375 54.828125 13.0625 64.515625 
Q 19.53125 74.21875 31.78125 74.21875 
z
" id="DejaVuSans-48"/>
      </defs>
      <g transform="translate(50.81875 266.598437)scale(0.1 -0.1)">
       <use xlink:href="#DejaVuSans-48"/>
      </g>
     </g>
    </g>
    <g id="xtick_2">
     <g id="line2d_3">
      <path clip-path="url(#p8af53c6a81)" d="M 100.532314 252 
L 100.532314 34.56 
" style="fill:none;stroke:#b0b0b0;stroke-linecap:square;stroke-width:0.8;"/>
     </g>
     <g id="line2d_4">
      <g>
       <use style="stroke:#000000;stroke-width:0.8;" x="100.532314" xlink:href="#m0e71624070" y="252"/>
      </g>
     </g>
     <g id="text_2">
      <!-- 200 -->
      <defs>
       <path d="M 19.1875 8.296875 
L 53.609375 8.296875 
L 53.609375 0 
L 7.328125 0 
L 7.328125 8.296875 
Q 12.9375 14.109375 22.625 23.890625 
Q 32.328125 33.6875 34.8125 36.53125 
Q 39.546875 41.84375 41.421875 45.53125 
Q 43.3125 49.21875 43.3125 52.78125 
Q 43.3125 58.59375 39.234375 62.25 
Q 35.15625 65.921875 28.609375 65.921875 
Q 23.96875 65.921875 18.8125 64.3125 
Q 13.671875 62.703125 7.8125 59.421875 
L 7.8125 69.390625 
Q 13.765625 71.78125 18.9375 73 
Q 24.125 74.21875 28.421875 74.21875 
Q 39.75 74.21875 46.484375 68.546875 
Q 53.21875 62.890625 53.21875 53.421875 
Q 53.21875 48.921875 51.53125 44.890625 
Q 49.859375 40.875 45.40625 35.40625 
Q 44.1875 33.984375 37.640625 27.21875 
Q 31.109375 20.453125 19.1875 8.296875 
z
" id="DejaVuSans-50"/>
      </defs>
      <g transform="translate(90.988564 266.598437)scale(0.1 -0.1)">
       <use xlink:href="#DejaVuSans-50"/>
       <use x="63.623047" xlink:href="#DejaVuSans-48"/>
       <use x="127.246094" xlink:href="#DejaVuSans-48"/>
      </g>
     </g>
    </g>
    <g id="xtick_3">
     <g id="line2d_5">
      <path clip-path="url(#p8af53c6a81)" d="M 147.064628 252 
L 147.064628 34.56 
" style="fill:none;stroke:#b0b0b0;stroke-linecap:square;stroke-width:0.8;"/>
     </g>
     <g id="line2d_6">
      <g>
       <use style="stroke:#000000;stroke-width:0.8;" x="147.064628" xlink:href="#m0e71624070" y="252"/>
      </g>
     </g>
     <g id="text_3">
      <!-- 400 -->
      <defs>
       <path d="M 37.796875 64.3125 
L 12.890625 25.390625 
L 37.796875 25.390625 
z
M 35.203125 72.90625 
L 47.609375 72.90625 
L 47.609375 25.390625 
L 58.015625 25.390625 
L 58.015625 17.1875 
L 47.609375 17.1875 
L 47.609375 0 
L 37.796875 0 
L 37.796875 17.1875 
L 4.890625 17.1875 
L 4.890625 26.703125 
z
" id="DejaVuSans-52"/>
      </defs>
      <g transform="translate(137.520878 266.598437)scale(0.1 -0.1)">
       <use xlink:href="#DejaVuSans-52"/>
       <use x="63.623047" xlink:href="#DejaVuSans-48"/>
       <use x="127.246094" xlink:href="#DejaVuSans-48"/>
      </g>
     </g>
    </g>
    <g id="xtick_4">
     <g id="line2d_7">
      <path clip-path="url(#p8af53c6a81)" d="M 193.596942 252 
L 193.596942 34.56 
" style="fill:none;stroke:#b0b0b0;stroke-linecap:square;stroke-width:0.8;"/>
     </g>
     <g id="line2d_8">
      <g>
       <use style="stroke:#000000;stroke-width:0.8;" x="193.596942" xlink:href="#m0e71624070" y="252"/>
      </g>
     </g>
     <g id="text_4">
      <!-- 600 -->
      <defs>
       <path d="M 33.015625 40.375 
Q 26.375 40.375 22.484375 35.828125 
Q 18.609375 31.296875 18.609375 23.390625 
Q 18.609375 15.53125 22.484375 10.953125 
Q 26.375 6.390625 33.015625 6.390625 
Q 39.65625 6.390625 43.53125 10.953125 
Q 47.40625 15.53125 47.40625 23.390625 
Q 47.40625 31.296875 43.53125 35.828125 
Q 39.65625 40.375 33.015625 40.375 
z
M 52.59375 71.296875 
L 52.59375 62.3125 
Q 48.875 64.0625 45.09375 64.984375 
Q 41.3125 65.921875 37.59375 65.921875 
Q 27.828125 65.921875 22.671875 59.328125 
Q 17.53125 52.734375 16.796875 39.40625 
Q 19.671875 43.65625 24.015625 45.921875 
Q 28.375 48.1875 33.59375 48.1875 
Q 44.578125 48.1875 50.953125 41.515625 
Q 57.328125 34.859375 57.328125 23.390625 
Q 57.328125 12.15625 50.6875 5.359375 
Q 44.046875 -1.421875 33.015625 -1.421875 
Q 20.359375 -1.421875 13.671875 8.265625 
Q 6.984375 17.96875 6.984375 36.375 
Q 6.984375 53.65625 15.1875 63.9375 
Q 23.390625 74.21875 37.203125 74.21875 
Q 40.921875 74.21875 44.703125 73.484375 
Q 48.484375 72.75 52.59375 71.296875 
z
" id="DejaVuSans-54"/>
      </defs>
      <g transform="translate(184.053192 266.598437)scale(0.1 -0.1)">
       <use xlink:href="#DejaVuSans-54"/>
       <use x="63.623047" xlink:href="#DejaVuSans-48"/>
       <use x="127.246094" xlink:href="#DejaVuSans-48"/>
      </g>
     </g>
    </g>
    <g id="xtick_5">
     <g id="line2d_9">
      <path clip-path="url(#p8af53c6a81)" d="M 240.129256 252 
L 240.129256 34.56 
" style="fill:none;stroke:#b0b0b0;stroke-linecap:square;stroke-width:0.8;"/>
     </g>
     <g id="line2d_10">
      <g>
       <use style="stroke:#000000;stroke-width:0.8;" x="240.129256" xlink:href="#m0e71624070" y="252"/>
      </g>
     </g>
     <g id="text_5">
      <!-- 800 -->
      <defs>
       <path d="M 31.78125 34.625 
Q 24.75 34.625 20.71875 30.859375 
Q 16.703125 27.09375 16.703125 20.515625 
Q 16.703125 13.921875 20.71875 10.15625 
Q 24.75 6.390625 31.78125 6.390625 
Q 38.8125 6.390625 42.859375 10.171875 
Q 46.921875 13.96875 46.921875 20.515625 
Q 46.921875 27.09375 42.890625 30.859375 
Q 38.875 34.625 31.78125 34.625 
z
M 21.921875 38.8125 
Q 15.578125 40.375 12.03125 44.71875 
Q 8.5 49.078125 8.5 55.328125 
Q 8.5 64.0625 14.71875 69.140625 
Q 20.953125 74.21875 31.78125 74.21875 
Q 42.671875 74.21875 48.875 69.140625 
Q 55.078125 64.0625 55.078125 55.328125 
Q 55.078125 49.078125 51.53125 44.71875 
Q 48 40.375 41.703125 38.8125 
Q 48.828125 37.15625 52.796875 32.3125 
Q 56.78125 27.484375 56.78125 20.515625 
Q 56.78125 9.90625 50.3125 4.234375 
Q 43.84375 -1.421875 31.78125 -1.421875 
Q 19.734375 -1.421875 13.25 4.234375 
Q 6.78125 9.90625 6.78125 20.515625 
Q 6.78125 27.484375 10.78125 32.3125 
Q 14.796875 37.15625 21.921875 38.8125 
z
M 18.3125 54.390625 
Q 18.3125 48.734375 21.84375 45.5625 
Q 25.390625 42.390625 31.78125 42.390625 
Q 38.140625 42.390625 41.71875 45.5625 
Q 45.3125 48.734375 45.3125 54.390625 
Q 45.3125 60.0625 41.71875 63.234375 
Q 38.140625 66.40625 31.78125 66.40625 
Q 25.390625 66.40625 21.84375 63.234375 
Q 18.3125 60.0625 18.3125 54.390625 
z
" id="DejaVuSans-56"/>
      </defs>
      <g transform="translate(230.585506 266.598437)scale(0.1 -0.1)">
       <use xlink:href="#DejaVuSans-56"/>
       <use x="63.623047" xlink:href="#DejaVuSans-48"/>
       <use x="127.246094" xlink:href="#DejaVuSans-48"/>
      </g>
     </g>
    </g>
    <g id="xtick_6">
     <g id="line2d_11">
      <path clip-path="url(#p8af53c6a81)" d="M 286.661571 252 
L 286.661571 34.56 
" style="fill:none;stroke:#b0b0b0;stroke-linecap:square;stroke-width:0.8;"/>
     </g>
     <g id="line2d_12">
      <g>
       <use style="stroke:#000000;stroke-width:0.8;" x="286.661571" xlink:href="#m0e71624070" y="252"/>
      </g>
     </g>
     <g id="text_6">
      <!-- 1000 -->
      <defs>
       <path d="M 12.40625 8.296875 
L 28.515625 8.296875 
L 28.515625 63.921875 
L 10.984375 60.40625 
L 10.984375 69.390625 
L 28.421875 72.90625 
L 38.28125 72.90625 
L 38.28125 8.296875 
L 54.390625 8.296875 
L 54.390625 0 
L 12.40625 0 
z
" id="DejaVuSans-49"/>
      </defs>
      <g transform="translate(273.936571 266.598437)scale(0.1 -0.1)">
       <use xlink:href="#DejaVuSans-49"/>
       <use x="63.623047" xlink:href="#DejaVuSans-48"/>
       <use x="127.246094" xlink:href="#DejaVuSans-48"/>
       <use x="190.869141" xlink:href="#DejaVuSans-48"/>
      </g>
     </g>
    </g>
    <g id="xtick_7">
     <g id="line2d_13">
      <path clip-path="url(#p8af53c6a81)" d="M 333.193885 252 
L 333.193885 34.56 
" style="fill:none;stroke:#b0b0b0;stroke-linecap:square;stroke-width:0.8;"/>
     </g>
     <g id="line2d_14">
      <g>
       <use style="stroke:#000000;stroke-width:0.8;" x="333.193885" xlink:href="#m0e71624070" y="252"/>
      </g>
     </g>
     <g id="text_7">
      <!-- 1200 -->
      <g transform="translate(320.468885 266.598437)scale(0.1 -0.1)">
       <use xlink:href="#DejaVuSans-49"/>
       <use x="63.623047" xlink:href="#DejaVuSans-50"/>
       <use x="127.246094" xlink:href="#DejaVuSans-48"/>
       <use x="190.869141" xlink:href="#DejaVuSans-48"/>
      </g>
     </g>
    </g>
    <g id="xtick_8">
     <g id="line2d_15">
      <path clip-path="url(#p8af53c6a81)" d="M 379.726199 252 
L 379.726199 34.56 
" style="fill:none;stroke:#b0b0b0;stroke-linecap:square;stroke-width:0.8;"/>
     </g>
     <g id="line2d_16">
      <g>
       <use style="stroke:#000000;stroke-width:0.8;" x="379.726199" xlink:href="#m0e71624070" y="252"/>
      </g>
     </g>
     <g id="text_8">
      <!-- 1400 -->
      <g transform="translate(367.001199 266.598437)scale(0.1 -0.1)">
       <use xlink:href="#DejaVuSans-49"/>
       <use x="63.623047" xlink:href="#DejaVuSans-52"/>
       <use x="127.246094" xlink:href="#DejaVuSans-48"/>
       <use x="190.869141" xlink:href="#DejaVuSans-48"/>
      </g>
     </g>
    </g>
    <g id="text_9">
     <!-- time step -->
     <defs>
      <path d="M 18.3125 70.21875 
L 18.3125 54.6875 
L 36.8125 54.6875 
L 36.8125 47.703125 
L 18.3125 47.703125 
L 18.3125 18.015625 
Q 18.3125 11.328125 20.140625 9.421875 
Q 21.96875 7.515625 27.59375 7.515625 
L 36.8125 7.515625 
L 36.8125 0 
L 27.59375 0 
Q 17.1875 0 13.234375 3.875 
Q 9.28125 7.765625 9.28125 18.015625 
L 9.28125 47.703125 
L 2.6875 47.703125 
L 2.6875 54.6875 
L 9.28125 54.6875 
L 9.28125 70.21875 
z
" id="DejaVuSans-116"/>
      <path d="M 9.421875 54.6875 
L 18.40625 54.6875 
L 18.40625 0 
L 9.421875 0 
z
M 9.421875 75.984375 
L 18.40625 75.984375 
L 18.40625 64.59375 
L 9.421875 64.59375 
z
" id="DejaVuSans-105"/>
      <path d="M 52 44.1875 
Q 55.375 50.25 60.0625 53.125 
Q 64.75 56 71.09375 56 
Q 79.640625 56 84.28125 50.015625 
Q 88.921875 44.046875 88.921875 33.015625 
L 88.921875 0 
L 79.890625 0 
L 79.890625 32.71875 
Q 79.890625 40.578125 77.09375 44.375 
Q 74.3125 48.1875 68.609375 48.1875 
Q 61.625 48.1875 57.5625 43.546875 
Q 53.515625 38.921875 53.515625 30.90625 
L 53.515625 0 
L 44.484375 0 
L 44.484375 32.71875 
Q 44.484375 40.625 41.703125 44.40625 
Q 38.921875 48.1875 33.109375 48.1875 
Q 26.21875 48.1875 22.15625 43.53125 
Q 18.109375 38.875 18.109375 30.90625 
L 18.109375 0 
L 9.078125 0 
L 9.078125 54.6875 
L 18.109375 54.6875 
L 18.109375 46.1875 
Q 21.1875 51.21875 25.484375 53.609375 
Q 29.78125 56 35.6875 56 
Q 41.65625 56 45.828125 52.96875 
Q 50 49.953125 52 44.1875 
z
" id="DejaVuSans-109"/>
      <path d="M 56.203125 29.59375 
L 56.203125 25.203125 
L 14.890625 25.203125 
Q 15.484375 15.921875 20.484375 11.0625 
Q 25.484375 6.203125 34.421875 6.203125 
Q 39.59375 6.203125 44.453125 7.46875 
Q 49.3125 8.734375 54.109375 11.28125 
L 54.109375 2.78125 
Q 49.265625 0.734375 44.1875 -0.34375 
Q 39.109375 -1.421875 33.890625 -1.421875 
Q 20.796875 -1.421875 13.15625 6.1875 
Q 5.515625 13.8125 5.515625 26.8125 
Q 5.515625 40.234375 12.765625 48.109375 
Q 20.015625 56 32.328125 56 
Q 43.359375 56 49.78125 48.890625 
Q 56.203125 41.796875 56.203125 29.59375 
z
M 47.21875 32.234375 
Q 47.125 39.59375 43.09375 43.984375 
Q 39.0625 48.390625 32.421875 48.390625 
Q 24.90625 48.390625 20.390625 44.140625 
Q 15.875 39.890625 15.1875 32.171875 
z
" id="DejaVuSans-101"/>
      <path id="DejaVuSans-32"/>
      <path d="M 44.28125 53.078125 
L 44.28125 44.578125 
Q 40.484375 46.53125 36.375 47.5 
Q 32.28125 48.484375 27.875 48.484375 
Q 21.1875 48.484375 17.84375 46.4375 
Q 14.5 44.390625 14.5 40.28125 
Q 14.5 37.15625 16.890625 35.375 
Q 19.28125 33.59375 26.515625 31.984375 
L 29.59375 31.296875 
Q 39.15625 29.25 43.1875 25.515625 
Q 47.21875 21.78125 47.21875 15.09375 
Q 47.21875 7.46875 41.1875 3.015625 
Q 35.15625 -1.421875 24.609375 -1.421875 
Q 20.21875 -1.421875 15.453125 -0.5625 
Q 10.6875 0.296875 5.421875 2 
L 5.421875 11.28125 
Q 10.40625 8.6875 15.234375 7.390625 
Q 20.0625 6.109375 24.8125 6.109375 
Q 31.15625 6.109375 34.5625 8.28125 
Q 37.984375 10.453125 37.984375 14.40625 
Q 37.984375 18.0625 35.515625 20.015625 
Q 33.0625 21.96875 24.703125 23.78125 
L 21.578125 24.515625 
Q 13.234375 26.265625 9.515625 29.90625 
Q 5.8125 33.546875 5.8125 39.890625 
Q 5.8125 47.609375 11.28125 51.796875 
Q 16.75 56 26.8125 56 
Q 31.78125 56 36.171875 55.265625 
Q 40.578125 54.546875 44.28125 53.078125 
z
" id="DejaVuSans-115"/>
      <path d="M 18.109375 8.203125 
L 18.109375 -20.796875 
L 9.078125 -20.796875 
L 9.078125 54.6875 
L 18.109375 54.6875 
L 18.109375 46.390625 
Q 20.953125 51.265625 25.265625 53.625 
Q 29.59375 56 35.59375 56 
Q 45.5625 56 51.78125 48.09375 
Q 58.015625 40.1875 58.015625 27.296875 
Q 58.015625 14.40625 51.78125 6.484375 
Q 45.5625 -1.421875 35.59375 -1.421875 
Q 29.59375 -1.421875 25.265625 0.953125 
Q 20.953125 3.328125 18.109375 8.203125 
z
M 48.6875 27.296875 
Q 48.6875 37.203125 44.609375 42.84375 
Q 40.53125 48.484375 33.40625 48.484375 
Q 26.265625 48.484375 22.1875 42.84375 
Q 18.109375 37.203125 18.109375 27.296875 
Q 18.109375 17.390625 22.1875 11.75 
Q 26.265625 6.109375 33.40625 6.109375 
Q 40.53125 6.109375 44.609375 11.75 
Q 48.6875 17.390625 48.6875 27.296875 
z
" id="DejaVuSans-112"/>
     </defs>
     <g transform="translate(197.699219 280.276563)scale(0.1 -0.1)">
      <use xlink:href="#DejaVuSans-116"/>
      <use x="39.208984" xlink:href="#DejaVuSans-105"/>
      <use x="66.992188" xlink:href="#DejaVuSans-109"/>
      <use x="164.404297" xlink:href="#DejaVuSans-101"/>
      <use x="225.927734" xlink:href="#DejaVuSans-32"/>
      <use x="257.714844" xlink:href="#DejaVuSans-115"/>
      <use x="309.814453" xlink:href="#DejaVuSans-116"/>
      <use x="349.023438" xlink:href="#DejaVuSans-101"/>
      <use x="410.546875" xlink:href="#DejaVuSans-112"/>
     </g>
    </g>
   </g>
   <g id="matplotlib.axis_2">
    <g id="ytick_1">
     <g id="line2d_17">
      <path clip-path="url(#p8af53c6a81)" d="M 54 237.907853 
L 388.8 237.907853 
" style="fill:none;stroke:#b0b0b0;stroke-linecap:square;stroke-width:0.8;"/>
     </g>
     <g id="line2d_18">
      <defs>
       <path d="M 0 0 
L -3.5 0 
" id="m9a60efd0a1" style="stroke:#000000;stroke-width:0.8;"/>
      </defs>
      <g>
       <use style="stroke:#000000;stroke-width:0.8;" x="54" xlink:href="#m9a60efd0a1" y="237.907853"/>
      </g>
     </g>
     <g id="text_10">
      <!-- 248 -->
      <g transform="translate(27.9125 241.707072)scale(0.1 -0.1)">
       <use xlink:href="#DejaVuSans-50"/>
       <use x="63.623047" xlink:href="#DejaVuSans-52"/>
       <use x="127.246094" xlink:href="#DejaVuSans-56"/>
      </g>
     </g>
    </g>
    <g id="ytick_2">
     <g id="line2d_19">
      <path clip-path="url(#p8af53c6a81)" d="M 54 195.914318 
L 388.8 195.914318 
" style="fill:none;stroke:#b0b0b0;stroke-linecap:square;stroke-width:0.8;"/>
     </g>
     <g id="line2d_20">
      <g>
       <use style="stroke:#000000;stroke-width:0.8;" x="54" xlink:href="#m9a60efd0a1" y="195.914318"/>
      </g>
     </g>
     <g id="text_11">
      <!-- 249 -->
      <defs>
       <path d="M 10.984375 1.515625 
L 10.984375 10.5 
Q 14.703125 8.734375 18.5 7.8125 
Q 22.3125 6.890625 25.984375 6.890625 
Q 35.75 6.890625 40.890625 13.453125 
Q 46.046875 20.015625 46.78125 33.40625 
Q 43.953125 29.203125 39.59375 26.953125 
Q 35.25 24.703125 29.984375 24.703125 
Q 19.046875 24.703125 12.671875 31.3125 
Q 6.296875 37.9375 6.296875 49.421875 
Q 6.296875 60.640625 12.9375 67.421875 
Q 19.578125 74.21875 30.609375 74.21875 
Q 43.265625 74.21875 49.921875 64.515625 
Q 56.59375 54.828125 56.59375 36.375 
Q 56.59375 19.140625 48.40625 8.859375 
Q 40.234375 -1.421875 26.421875 -1.421875 
Q 22.703125 -1.421875 18.890625 -0.6875 
Q 15.09375 0.046875 10.984375 1.515625 
z
M 30.609375 32.421875 
Q 37.25 32.421875 41.125 36.953125 
Q 45.015625 41.5 45.015625 49.421875 
Q 45.015625 57.28125 41.125 61.84375 
Q 37.25 66.40625 30.609375 66.40625 
Q 23.96875 66.40625 20.09375 61.84375 
Q 16.21875 57.28125 16.21875 49.421875 
Q 16.21875 41.5 20.09375 36.953125 
Q 23.96875 32.421875 30.609375 32.421875 
z
" id="DejaVuSans-57"/>
      </defs>
      <g transform="translate(27.9125 199.713537)scale(0.1 -0.1)">
       <use xlink:href="#DejaVuSans-50"/>
       <use x="63.623047" xlink:href="#DejaVuSans-52"/>
       <use x="127.246094" xlink:href="#DejaVuSans-57"/>
      </g>
     </g>
    </g>
    <g id="ytick_3">
     <g id="line2d_21">
      <path clip-path="url(#p8af53c6a81)" d="M 54 153.920783 
L 388.8 153.920783 
" style="fill:none;stroke:#b0b0b0;stroke-linecap:square;stroke-width:0.8;"/>
     </g>
     <g id="line2d_22">
      <g>
       <use style="stroke:#000000;stroke-width:0.8;" x="54" xlink:href="#m9a60efd0a1" y="153.920783"/>
      </g>
     </g>
     <g id="text_12">
      <!-- 250 -->
      <defs>
       <path d="M 10.796875 72.90625 
L 49.515625 72.90625 
L 49.515625 64.59375 
L 19.828125 64.59375 
L 19.828125 46.734375 
Q 21.96875 47.46875 24.109375 47.828125 
Q 26.265625 48.1875 28.421875 48.1875 
Q 40.625 48.1875 47.75 41.5 
Q 54.890625 34.8125 54.890625 23.390625 
Q 54.890625 11.625 47.5625 5.09375 
Q 40.234375 -1.421875 26.90625 -1.421875 
Q 22.3125 -1.421875 17.546875 -0.640625 
Q 12.796875 0.140625 7.71875 1.703125 
L 7.71875 11.625 
Q 12.109375 9.234375 16.796875 8.0625 
Q 21.484375 6.890625 26.703125 6.890625 
Q 35.15625 6.890625 40.078125 11.328125 
Q 45.015625 15.765625 45.015625 23.390625 
Q 45.015625 31 40.078125 35.4375 
Q 35.15625 39.890625 26.703125 39.890625 
Q 22.75 39.890625 18.8125 39.015625 
Q 14.890625 38.140625 10.796875 36.28125 
z
" id="DejaVuSans-53"/>
      </defs>
      <g transform="translate(27.9125 157.720001)scale(0.1 -0.1)">
       <use xlink:href="#DejaVuSans-50"/>
       <use x="63.623047" xlink:href="#DejaVuSans-53"/>
       <use x="127.246094" xlink:href="#DejaVuSans-48"/>
      </g>
     </g>
    </g>
    <g id="ytick_4">
     <g id="line2d_23">
      <path clip-path="url(#p8af53c6a81)" d="M 54 111.927247 
L 388.8 111.927247 
" style="fill:none;stroke:#b0b0b0;stroke-linecap:square;stroke-width:0.8;"/>
     </g>
     <g id="line2d_24">
      <g>
       <use style="stroke:#000000;stroke-width:0.8;" x="54" xlink:href="#m9a60efd0a1" y="111.927247"/>
      </g>
     </g>
     <g id="text_13">
      <!-- 251 -->
      <g transform="translate(27.9125 115.726466)scale(0.1 -0.1)">
       <use xlink:href="#DejaVuSans-50"/>
       <use x="63.623047" xlink:href="#DejaVuSans-53"/>
       <use x="127.246094" xlink:href="#DejaVuSans-49"/>
      </g>
     </g>
    </g>
    <g id="ytick_5">
     <g id="line2d_25">
      <path clip-path="url(#p8af53c6a81)" d="M 54 69.933712 
L 388.8 69.933712 
" style="fill:none;stroke:#b0b0b0;stroke-linecap:square;stroke-width:0.8;"/>
     </g>
     <g id="line2d_26">
      <g>
       <use style="stroke:#000000;stroke-width:0.8;" x="54" xlink:href="#m9a60efd0a1" y="69.933712"/>
      </g>
     </g>
     <g id="text_14">
      <!-- 252 -->
      <g transform="translate(27.9125 73.732931)scale(0.1 -0.1)">
       <use xlink:href="#DejaVuSans-50"/>
       <use x="63.623047" xlink:href="#DejaVuSans-53"/>
       <use x="127.246094" xlink:href="#DejaVuSans-50"/>
      </g>
     </g>
    </g>
    <g id="text_15">
     <!-- voltage mag. [Volts] -->
     <defs>
      <path d="M 2.984375 54.6875 
L 12.5 54.6875 
L 29.59375 8.796875 
L 46.6875 54.6875 
L 56.203125 54.6875 
L 35.6875 0 
L 23.484375 0 
z
" id="DejaVuSans-118"/>
      <path d="M 30.609375 48.390625 
Q 23.390625 48.390625 19.1875 42.75 
Q 14.984375 37.109375 14.984375 27.296875 
Q 14.984375 17.484375 19.15625 11.84375 
Q 23.34375 6.203125 30.609375 6.203125 
Q 37.796875 6.203125 41.984375 11.859375 
Q 46.1875 17.53125 46.1875 27.296875 
Q 46.1875 37.015625 41.984375 42.703125 
Q 37.796875 48.390625 30.609375 48.390625 
z
M 30.609375 56 
Q 42.328125 56 49.015625 48.375 
Q 55.71875 40.765625 55.71875 27.296875 
Q 55.71875 13.875 49.015625 6.21875 
Q 42.328125 -1.421875 30.609375 -1.421875 
Q 18.84375 -1.421875 12.171875 6.21875 
Q 5.515625 13.875 5.515625 27.296875 
Q 5.515625 40.765625 12.171875 48.375 
Q 18.84375 56 30.609375 56 
z
" id="DejaVuSans-111"/>
      <path d="M 9.421875 75.984375 
L 18.40625 75.984375 
L 18.40625 0 
L 9.421875 0 
z
" id="DejaVuSans-108"/>
      <path d="M 34.28125 27.484375 
Q 23.390625 27.484375 19.1875 25 
Q 14.984375 22.515625 14.984375 16.5 
Q 14.984375 11.71875 18.140625 8.90625 
Q 21.296875 6.109375 26.703125 6.109375 
Q 34.1875 6.109375 38.703125 11.40625 
Q 43.21875 16.703125 43.21875 25.484375 
L 43.21875 27.484375 
z
M 52.203125 31.203125 
L 52.203125 0 
L 43.21875 0 
L 43.21875 8.296875 
Q 40.140625 3.328125 35.546875 0.953125 
Q 30.953125 -1.421875 24.3125 -1.421875 
Q 15.921875 -1.421875 10.953125 3.296875 
Q 6 8.015625 6 15.921875 
Q 6 25.140625 12.171875 29.828125 
Q 18.359375 34.515625 30.609375 34.515625 
L 43.21875 34.515625 
L 43.21875 35.40625 
Q 43.21875 41.609375 39.140625 45 
Q 35.0625 48.390625 27.6875 48.390625 
Q 23 48.390625 18.546875 47.265625 
Q 14.109375 46.140625 10.015625 43.890625 
L 10.015625 52.203125 
Q 14.9375 54.109375 19.578125 55.046875 
Q 24.21875 56 28.609375 56 
Q 40.484375 56 46.34375 49.84375 
Q 52.203125 43.703125 52.203125 31.203125 
z
" id="DejaVuSans-97"/>
      <path d="M 45.40625 27.984375 
Q 45.40625 37.75 41.375 43.109375 
Q 37.359375 48.484375 30.078125 48.484375 
Q 22.859375 48.484375 18.828125 43.109375 
Q 14.796875 37.75 14.796875 27.984375 
Q 14.796875 18.265625 18.828125 12.890625 
Q 22.859375 7.515625 30.078125 7.515625 
Q 37.359375 7.515625 41.375 12.890625 
Q 45.40625 18.265625 45.40625 27.984375 
z
M 54.390625 6.78125 
Q 54.390625 -7.171875 48.1875 -13.984375 
Q 42 -20.796875 29.203125 -20.796875 
Q 24.46875 -20.796875 20.265625 -20.09375 
Q 16.0625 -19.390625 12.109375 -17.921875 
L 12.109375 -9.1875 
Q 16.0625 -11.328125 19.921875 -12.34375 
Q 23.78125 -13.375 27.78125 -13.375 
Q 36.625 -13.375 41.015625 -8.765625 
Q 45.40625 -4.15625 45.40625 5.171875 
L 45.40625 9.625 
Q 42.625 4.78125 38.28125 2.390625 
Q 33.9375 0 27.875 0 
Q 17.828125 0 11.671875 7.65625 
Q 5.515625 15.328125 5.515625 27.984375 
Q 5.515625 40.671875 11.671875 48.328125 
Q 17.828125 56 27.875 56 
Q 33.9375 56 38.28125 53.609375 
Q 42.625 51.21875 45.40625 46.390625 
L 45.40625 54.6875 
L 54.390625 54.6875 
z
" id="DejaVuSans-103"/>
      <path d="M 10.6875 12.40625 
L 21 12.40625 
L 21 0 
L 10.6875 0 
z
" id="DejaVuSans-46"/>
      <path d="M 8.59375 75.984375 
L 29.296875 75.984375 
L 29.296875 69 
L 17.578125 69 
L 17.578125 -6.203125 
L 29.296875 -6.203125 
L 29.296875 -13.1875 
L 8.59375 -13.1875 
z
" id="DejaVuSans-91"/>
      <path d="M 28.609375 0 
L 0.78125 72.90625 
L 11.078125 72.90625 
L 34.1875 11.53125 
L 57.328125 72.90625 
L 67.578125 72.90625 
L 39.796875 0 
z
" id="DejaVuSans-86"/>
      <path d="M 30.421875 75.984375 
L 30.421875 -13.1875 
L 9.71875 -13.1875 
L 9.71875 -6.203125 
L 21.390625 -6.203125 
L 21.390625 69 
L 9.71875 69 
L 9.71875 75.984375 
z
" id="DejaVuSans-93"/>
     </defs>
     <g transform="translate(21.832812 194.168281)rotate(-90)scale(0.1 -0.1)">
      <use xlink:href="#DejaVuSans-118"/>
      <use x="59.179688" xlink:href="#DejaVuSans-111"/>
      <use x="120.361328" xlink:href="#DejaVuSans-108"/>
      <use x="148.144531" xlink:href="#DejaVuSans-116"/>
      <use x="187.353516" xlink:href="#DejaVuSans-97"/>
      <use x="248.632812" xlink:href="#DejaVuSans-103"/>
      <use x="312.109375" xlink:href="#DejaVuSans-101"/>
      <use x="373.632812" xlink:href="#DejaVuSans-32"/>
      <use x="405.419922" xlink:href="#DejaVuSans-109"/>
      <use x="502.832031" xlink:href="#DejaVuSans-97"/>
      <use x="564.111328" xlink:href="#DejaVuSans-103"/>
      <use x="627.587891" xlink:href="#DejaVuSans-46"/>
      <use x="659.375" xlink:href="#DejaVuSans-32"/>
      <use x="691.162109" xlink:href="#DejaVuSans-91"/>
      <use x="730.175781" xlink:href="#DejaVuSans-86"/>
      <use x="798.474609" xlink:href="#DejaVuSans-111"/>
      <use x="859.65625" xlink:href="#DejaVuSans-108"/>
      <use x="887.439453" xlink:href="#DejaVuSans-116"/>
      <use x="926.648438" xlink:href="#DejaVuSans-115"/>
      <use x="978.748047" xlink:href="#DejaVuSans-93"/>
     </g>
    </g>
   </g>
   <g id="line2d_27">
    <path clip-path="url(#p8af53c6a81)" d="M 54 65.188443 
L 54.232662 65.146449 
L 54.465323 65.39841 
L 54.697985 66.154294 
L 54.930646 66.322268 
L 55.163308 65.944326 
L 55.628631 66.742204 
L 55.861293 66.70021 
L 56.093954 75.980781 
L 56.326616 67.666061 
L 56.559277 67.624068 
L 56.791939 67.4141 
L 57.489924 67.204132 
L 57.722585 66.868184 
L 58.187908 66.868184 
L 58.42057 67.330113 
L 58.885893 67.330113 
L 59.351216 68.967861 
L 59.816539 68.631913 
L 60.281862 68.631913 
L 60.514524 69.093842 
L 60.747186 69.009854 
L 60.979847 69.345803 
L 61.44517 69.345803 
L 61.910493 69.345803 
L 62.143155 69.219822 
L 62.375817 69.681751 
L 63.306463 69.639757 
L 63.539124 69.471783 
L 64.004448 70.395641 
L 64.469771 68.505932 
L 64.702432 68.085997 
L 64.935094 68.085997 
L 65.167755 68.7159 
L 65.400417 68.967861 
L 66.331063 68.589919 
L 66.563725 68.253971 
L 66.796386 69.471783 
L 67.26171 69.135835 
L 67.494371 69.807732 
L 67.727033 69.807732 
L 67.959694 70.101686 
L 68.192356 68.84188 
L 68.657679 68.12799 
L 69.123002 68.211977 
L 69.355664 68.925867 
L 69.588325 68.12799 
L 69.820987 67.960016 
L 70.28631 66.70021 
L 70.518972 66.868184 
L 70.751633 66.490242 
L 70.984295 66.826191 
L 71.216956 66.826191 
L 71.449618 67.078152 
L 71.682279 67.162139 
L 71.914941 67.540081 
L 72.380264 68.883874 
L 72.612926 69.471783 
L 72.845587 70.605609 
L 73.078249 70.437635 
L 73.31091 70.815576 
L 73.543572 69.849725 
L 73.776233 70.731589 
L 74.008895 70.101686 
L 74.474218 71.403486 
L 74.70688 71.403486 
L 75.172203 73.209208 
L 75.404864 73.209208 
L 75.637526 72.957247 
L 75.870188 73.167214 
L 76.102849 72.747279 
L 77.033495 74.217053 
L 77.498819 72.369337 
L 77.73148 72.579305 
L 77.964142 72.453324 
L 78.196803 72.495318 
L 78.429465 72.411331 
L 78.894788 70.899564 
L 79.12745 70.227667 
L 79.360111 68.84188 
L 79.592773 69.639757 
L 79.825434 69.55577 
L 80.058096 70.017699 
L 80.290757 69.471783 
L 80.756081 69.345803 
L 80.988742 69.42979 
L 81.221404 68.757893 
L 81.454065 68.883874 
L 81.686727 68.757893 
L 81.919388 66.742204 
L 82.15205 66.616223 
L 82.617373 68.631913 
L 83.780681 68.589919 
L 84.013343 68.253971 
L 84.246004 66.406255 
L 84.478666 66.742204 
L 84.711327 66.868184 
L 85.17665 68.00201 
L 85.409312 68.00201 
L 85.641974 67.540081 
L 85.874635 67.708055 
L 86.107297 67.582074 
L 86.339958 67.624068 
L 86.57262 67.372107 
L 86.805281 68.00201 
L 87.037943 68.00201 
L 87.270605 68.253971 
L 87.735928 66.658216 
L 87.968589 67.078152 
L 88.201251 68.12799 
L 88.433912 67.28812 
L 88.666574 67.456094 
L 89.131897 68.925867 
L 89.364559 68.84188 
L 89.59722 70.269661 
L 89.829882 70.269661 
L 90.062543 69.723745 
L 90.295205 70.353648 
L 90.760528 70.353648 
L 91.225851 71.025544 
L 91.458513 70.059693 
L 91.691174 70.101686 
L 91.923836 69.975706 
L 92.156498 69.387796 
L 92.389159 70.059693 
L 92.621821 69.849725 
L 92.854482 68.673906 
L 93.087144 69.261816 
L 93.319805 68.505932 
L 93.552467 68.84188 
L 93.785129 68.547926 
L 94.01779 67.582074 
L 94.250452 67.582074 
L 94.715775 69.387796 
L 94.948436 69.387796 
L 95.181098 70.059693 
L 95.41376 69.975706 
L 95.646421 70.017699 
L 95.879083 70.395641 
L 96.111744 69.891719 
L 96.344406 70.185673 
L 96.809729 71.403486 
L 97.042391 71.865415 
L 97.275052 71.991395 
L 97.507714 71.193518 
L 97.740375 71.57146 
L 97.973037 71.403486 
L 98.205698 71.781428 
L 98.43836 72.621298 
L 98.671022 72.621298 
L 98.903683 73.923098 
L 99.136345 73.335189 
L 99.369006 73.083227 
L 99.601668 73.041234 
L 99.834329 71.487473 
L 100.066991 71.823421 
L 100.532314 71.907408 
L 100.997637 72.033389 
L 101.230299 72.705286 
L 101.46296 71.193518 
L 101.928284 70.14368 
L 102.626268 70.14368 
L 102.85893 69.933712 
L 103.091591 69.471783 
L 103.324253 68.673906 
L 103.556915 68.337958 
L 103.789576 68.337958 
L 104.254899 67.582074 
L 104.487561 66.658216 
L 104.720222 66.280275 
L 104.952884 66.406255 
L 105.185546 66.196288 
L 105.650869 67.498087 
L 105.88353 66.952171 
L 106.116192 67.120145 
L 106.348853 66.280275 
L 106.581515 66.994165 
L 107.046838 66.280275 
L 107.2795 66.280275 
L 107.512161 66.154294 
L 107.977484 66.532236 
L 108.442808 66.112301 
L 108.675469 67.624068 
L 108.908131 67.582074 
L 109.373454 69.387796 
L 109.606115 69.639757 
L 109.838777 70.395641 
L 110.071438 70.647602 
L 110.769423 69.387796 
L 111.002085 69.513777 
L 111.467408 71.655447 
L 112.165393 71.445479 
L 112.630716 72.705286 
L 112.863377 72.369337 
L 113.096039 71.613454 
L 113.3287 71.445479 
L 113.561362 71.613454 
L 113.794024 70.85757 
L 114.026685 70.85757 
L 114.259347 70.017699 
L 114.492008 68.589919 
L 114.72467 69.345803 
L 114.957331 68.757893 
L 115.189993 68.7159 
L 115.422655 69.891719 
L 115.655316 70.14368 
L 115.887978 70.983551 
L 116.353301 71.067538 
L 116.585962 70.647602 
L 116.818624 71.319499 
L 117.283947 70.85757 
L 117.516609 70.85757 
L 117.74927 70.227667 
L 117.981932 70.185673 
L 118.214593 70.437635 
L 118.447255 71.613454 
L 118.679917 70.773583 
L 118.912578 71.109531 
L 119.14524 71.109531 
L 119.610563 70.227667 
L 119.843224 68.7159 
L 120.075886 68.967861 
L 120.308548 68.967861 
L 120.541209 68.84188 
L 120.773871 68.505932 
L 121.006532 67.246126 
L 121.937179 67.708055 
L 122.402502 69.135835 
L 122.867825 69.177829 
L 123.100486 69.387796 
L 123.333148 69.261816 
L 123.56581 67.540081 
L 123.798471 66.826191 
L 124.263794 67.246126 
L 124.496456 67.036158 
L 124.729117 67.372107 
L 124.961779 67.456094 
L 125.194441 67.708055 
L 125.427102 67.792042 
L 125.659764 67.372107 
L 125.892425 68.211977 
L 126.125087 67.498087 
L 126.357748 67.498087 
L 126.59041 68.253971 
L 126.823072 68.295964 
L 127.055733 68.7159 
L 127.288395 67.792042 
L 128.219041 67.582074 
L 128.451703 67.750048 
L 128.684364 67.750048 
L 128.917026 67.204132 
L 129.149687 67.666061 
L 129.61501 68.00201 
L 130.080334 69.009854 
L 130.312995 69.345803 
L 130.545657 70.017699 
L 131.01098 70.101686 
L 131.243641 69.597764 
L 131.476303 78.290426 
L 131.708965 78.542387 
L 131.941626 79.256277 
L 132.174288 70.773583 
L 132.406949 70.941557 
L 132.872272 72.411331 
L 133.104934 73.503163 
L 133.337596 73.335189 
L 133.802919 74.511008 
L 134.03558 73.671137 
L 134.268242 73.71313 
L 134.500903 73.419176 
L 134.733565 73.71313 
L 134.966227 74.385027 
L 135.198888 72.99924 
L 135.43155 72.537311 
L 135.664211 72.537311 
L 135.896873 72.243357 
L 136.129534 70.773583 
L 136.362196 68.421945 
L 136.594858 68.295964 
L 137.060181 71.865415 
L 137.292842 71.823421 
L 137.525504 71.109531 
L 137.758165 77.576536 
L 138.223489 77.366568 
L 138.45615 69.303809 
L 138.688812 69.009854 
L 138.921473 68.967861 
L 139.154135 69.135835 
L 139.386796 69.639757 
L 139.619458 69.765738 
L 140.084781 67.666061 
L 140.782766 68.044003 
L 141.015427 69.009854 
L 141.713412 68.211977 
L 141.946074 67.372107 
L 142.178735 67.372107 
L 142.411397 67.120145 
L 142.644058 67.120145 
L 143.109382 66.742204 
L 143.342043 68.799887 
L 143.574705 68.169984 
L 143.807366 69.135835 
L 144.040028 75.224898 
L 144.505351 74.30104 
L 144.738013 67.708055 
L 144.970674 68.211977 
L 145.203336 68.169984 
L 145.435997 69.471783 
L 145.668659 68.967861 
L 146.133982 69.093842 
L 146.599305 69.975706 
L 147.064628 71.025544 
L 147.29729 70.563615 
L 147.995274 70.773583 
L 148.227936 70.353648 
L 148.460598 70.983551 
L 148.693259 71.991395 
L 148.925921 72.117376 
L 149.158582 102.604683 
L 149.623905 103.570534 
L 149.856567 72.117376 
L 150.089229 71.697441 
L 150.32189 71.907408 
L 150.554552 68.547926 
L 150.787213 68.00201 
L 151.252536 65.860339 
L 151.71786 72.411331 
L 151.950521 70.941557 
L 152.183183 71.697441 
L 152.415844 70.773583 
L 152.648506 78.374413 
L 152.881167 78.332419 
L 153.113829 89.040771 
L 153.346491 81.229973 
L 153.579152 82.74174 
L 153.811814 118.394252 
L 154.044475 118.394252 
L 154.277137 118.058304 
L 154.509798 93.114144 
L 154.74246 92.526234 
L 154.975122 94.038001 
L 155.207783 88.2009 
L 155.440445 88.536848 
L 155.673106 88.578842 
L 155.905768 100.169058 
L 156.138429 122.971547 
L 156.371091 122.551612 
L 156.836414 91.308422 
L 157.069076 90.846493 
L 157.301737 101.344877 
L 157.534399 101.134909 
L 157.76706 77.072613 
L 157.999722 78.668368 
L 158.232384 77.618529 
L 158.465045 88.410868 
L 158.697707 84.967398 
L 158.930368 85.051385 
L 159.16303 84.169521 
L 159.395691 85.891256 
L 159.628353 86.143217 
L 159.861015 86.05923 
L 160.093676 84.589456 
L 160.326338 85.34534 
L 160.558999 83.749585 
L 160.791661 80.726051 
L 161.024322 80.222128 
L 161.256984 91.64437 
L 161.489646 92.442247 
L 161.954969 71.361492 
L 162.18763 72.243357 
L 162.420292 82.699747 
L 162.652953 83.875566 
L 162.885615 82.867721 
L 163.118277 71.865415 
L 163.350938 84.421482 
L 163.5836 84.547462 
L 163.816261 85.219359 
L 164.048923 83.161676 
L 164.281584 83.707592 
L 164.514246 82.531773 
L 164.746908 83.077689 
L 164.979569 82.699747 
L 165.444892 86.227204 
L 165.677554 93.030157 
L 165.910215 93.450092 
L 166.375539 81.061999 
L 167.073523 153.668821 
L 167.538846 82.867721 
L 167.771508 82.405792 
L 168.00417 71.361492 
L 168.236831 73.377182 
L 168.469493 109.533616 
L 168.934816 113.439015 
L 169.167477 73.629143 
L 169.400139 104.872334 
L 169.632801 103.612527 
L 169.865462 103.234586 
L 170.098124 72.579305 
L 170.563447 71.109531 
L 171.02877 83.539618 
L 171.261432 83.665598 
L 171.494093 83.32965 
L 171.726755 83.497624 
L 171.959416 84.841417 
L 172.192078 85.303346 
L 172.424739 74.720975 
L 172.657401 73.881105 
L 172.890063 73.671137 
L 173.122724 84.673443 
L 173.355386 77.408561 
L 173.588047 86.269197 
L 173.820709 87.403023 
L 174.05337 98.027387 
L 174.286032 90.006622 
L 174.518694 90.720512 
L 174.751355 89.250738 
L 174.984017 88.91479 
L 175.216678 85.597301 
L 175.44934 84.883411 
L 175.682001 77.702516 
L 176.147325 72.621298 
L 176.379986 72.327344 
L 176.612648 75.098917 
L 176.845309 75.518852 
L 177.077971 75.140911 
L 177.310632 74.385027 
L 177.543294 72.411331 
L 177.775956 72.957247 
L 178.008617 73.041234 
L 178.241279 71.151525 
L 178.47394 70.773583 
L 178.706602 68.757893 
L 178.939263 75.098917 
L 179.171925 75.182904 
L 179.404587 77.74451 
L 179.637248 68.673906 
L 179.86991 67.918023 
L 180.102571 76.190749 
L 180.335233 76.400717 
L 180.567894 81.481934 
L 180.800556 68.967861 
L 181.033218 68.337958 
L 181.265879 68.044003 
L 181.498541 79.550232 
L 181.731202 76.106762 
L 181.963864 75.686827 
L 182.196525 75.518852 
L 182.429187 71.151525 
L 182.89451 67.708055 
L 183.127172 64.978475 
L 183.359833 65.020469 
L 183.825156 69.513777 
L 184.290479 69.051848 
L 184.523141 66.070307 
L 184.755803 66.238281 
L 184.988464 113.774963 
L 185.221126 107.139984 
L 185.453787 92.022312 
L 185.686449 44.443636 
L 185.91911 48.349035 
L 186.151772 62.290889 
L 186.384434 66.238281 
L 186.617095 61.82896 
L 186.849757 61.702979 
L 187.082418 62.836805 
L 187.31508 67.456094 
L 188.245726 74.930943 
L 188.478388 74.888949 
L 188.711049 72.201363 
L 188.943711 71.445479 
L 189.176372 71.781428 
L 189.409034 73.797117 
L 189.641696 76.946633 
L 189.874357 77.366568 
L 190.107019 85.597301 
L 190.33968 85.261353 
L 190.572342 82.825728 
L 190.805003 74.720975 
L 191.037665 76.31673 
L 191.270327 77.03062 
L 191.502988 78.500393 
L 191.73565 77.618529 
L 191.968311 64.138604 
L 192.200973 61.576999 
L 192.433634 62.54285 
L 192.666296 74.846956 
L 192.898958 77.618529 
L 193.131619 83.707592 
L 193.364281 77.576536 
L 193.596942 67.036158 
L 194.062265 65.188443 
L 194.294927 65.188443 
L 194.527589 63.172753 
L 194.76025 64.642527 
L 194.992912 72.621298 
L 195.458235 72.117376 
L 195.690896 63.046772 
L 195.923558 63.928637 
L 196.15622 61.744973 
L 196.388881 61.24105 
L 196.621543 61.493012 
L 196.854204 63.298734 
L 197.086866 64.180598 
L 197.319527 64.180598 
L 197.784851 60.107225 
L 198.017512 46.921255 
L 198.250174 49.104919 
L 198.482835 49.146912 
L 198.715497 70.563615 
L 198.948158 70.941557 
L 199.18082 71.57146 
L 199.413482 77.996471 
L 199.646143 77.87049 
L 199.878805 78.374413 
L 200.111466 78.542387 
L 200.344128 92.022312 
L 200.809451 91.05646 
L 201.042113 75.854801 
L 201.274774 75.560846 
L 201.507436 74.930943 
L 201.740097 74.846956 
L 201.972759 74.091072 
L 202.20542 80.096148 
L 202.438082 70.185673 
L 202.670744 67.4141 
L 202.903405 68.044003 
L 203.136067 61.157063 
L 203.368728 61.744973 
L 203.60139 59.897257 
L 203.834051 60.863109 
L 204.066713 62.374876 
L 204.299375 61.786966 
L 204.532036 62.080921 
L 204.764698 63.004779 
L 204.997359 62.836805 
L 205.230021 65.062462 
L 205.462682 64.978475 
L 205.695344 66.322268 
L 205.928006 66.364262 
L 206.160667 67.792042 
L 206.393329 85.177365 
L 206.62599 85.009391 
L 206.858652 85.135372 
L 207.091313 70.059693 
L 207.323975 72.28535 
L 207.556637 71.487473 
L 207.789298 72.621298 
L 208.02196 72.537311 
L 208.254621 72.747279 
L 208.487283 73.377182 
L 208.719944 73.293195 
L 208.952606 71.319499 
L 209.185268 112.55715 
L 209.417929 113.816956 
L 209.650591 112.263196 
L 209.883252 72.747279 
L 210.115914 78.206439 
L 210.348575 77.576536 
L 210.581237 78.920329 
L 210.813899 75.476859 
L 211.04656 91.64437 
L 211.279222 90.174596 
L 211.977206 87.864952 
L 212.209868 96.431633 
L 212.675191 97.523465 
L 212.907853 94.331956 
L 213.140514 95.08784 
L 213.373176 95.21382 
L 213.605837 96.389639 
L 214.071161 96.137678 
L 214.303822 97.733433 
L 214.769145 98.783271 
L 215.001807 98.195361 
L 215.234468 98.153368 
L 215.46713 110.877409 
L 215.699792 110.919403 
L 215.932453 102.10076 
L 216.165115 106.468088 
L 216.397776 105.670211 
L 216.630438 106.13214 
L 216.863099 95.465782 
L 217.095761 95.045846 
L 217.328423 91.854338 
L 217.561084 91.392409 
L 217.793746 91.560383 
L 218.026407 90.972473 
L 218.259069 91.014467 
L 218.49173 88.91479 
L 218.724392 89.712667 
L 218.957054 88.998777 
L 219.189715 89.838648 
L 219.422377 97.313497 
L 219.655038 97.523465 
L 219.8877 98.279348 
L 220.120361 98.111374 
L 220.353023 99.581148 
L 220.585685 99.455167 
L 221.051008 97.775426 
L 221.283669 97.649445 
L 221.516331 100.08507 
L 221.748992 96.641601 
L 221.981654 100.169058 
L 222.214315 109.113681 
L 222.446977 98.741277 
L 222.679639 98.867258 
L 222.9123 101.344877 
L 223.144962 113.061073 
L 223.377623 112.473163 
L 223.842946 123.307495 
L 224.075608 123.265502 
L 224.30827 124.021386 
L 224.540931 123.727431 
L 224.773593 124.945243 
L 225.238916 123.643444 
L 225.471577 121.837722 
L 225.704239 100.253045 
L 225.936901 101.218896 
L 226.169562 101.554844 
L 226.402224 103.780502 
L 226.634885 91.770351 
L 226.867547 91.686363 
L 227.33287 93.618066 
L 227.565532 92.988163 
L 227.798193 81.607915 
L 228.030855 85.387333 
L 228.263516 85.34534 
L 228.496178 86.689133 
L 228.728839 95.549769 
L 228.961501 94.751892 
L 229.194163 94.919866 
L 229.426824 78.4584 
L 229.892147 79.214284 
L 230.124809 78.752355 
L 230.35747 79.298271 
L 230.590132 74.888949 
L 231.055455 73.209208 
L 231.288117 72.15937 
L 231.75344 72.495318 
L 231.986101 72.327344 
L 232.218763 76.190749 
L 232.451425 75.854801 
L 232.684086 75.854801 
L 232.916748 72.033389 
L 233.149409 72.117376 
L 233.382071 71.739434 
L 233.614732 72.201363 
L 233.847394 71.781428 
L 234.080056 72.537311 
L 234.312717 72.15937 
L 234.77804 72.369337 
L 235.010702 71.907408 
L 235.243363 72.033389 
L 235.476025 70.101686 
L 235.708687 70.059693 
L 235.941348 69.597764 
L 236.17401 73.083227 
L 236.406671 72.369337 
L 236.639333 73.083227 
L 236.871994 75.056924 
L 237.104656 75.182904 
L 237.337318 74.804962 
L 237.569979 74.720975 
L 237.802641 73.335189 
L 238.035302 73.461169 
L 238.267964 74.007085 
L 238.733287 74.42702 
L 239.19861 72.327344 
L 239.663933 73.923098 
L 239.896595 106.006159 
L 240.129256 108.231816 
L 240.361918 107.055997 
L 240.59458 75.224898 
L 241.059903 74.007085 
L 241.292564 72.033389 
L 241.525226 72.15937 
L 241.757887 73.419176 
L 241.990549 73.797117 
L 242.223211 73.755124 
L 242.688534 66.448249 
L 242.921195 66.070307 
L 243.153857 64.600533 
L 243.386518 64.138604 
L 243.61918 64.68452 
L 243.851842 64.810501 
L 244.084503 65.944326 
L 244.317165 65.902333 
L 244.549826 66.280275 
L 244.782488 66.364262 
L 245.015149 65.818346 
L 245.247811 65.818346 
L 245.480473 65.692365 
L 245.713134 69.009854 
L 245.945796 70.521622 
L 246.178457 70.647602 
L 246.411119 73.545156 
L 246.876442 73.419176 
L 247.109104 71.487473 
L 247.341765 71.529467 
L 247.574427 71.865415 
L 247.807088 71.403486 
L 248.03975 79.676212 
L 248.272411 79.592225 
L 248.737735 77.534542 
L 248.970396 78.290426 
L 249.203058 79.508238 
L 249.435719 79.550232 
L 249.668381 76.148755 
L 249.901042 76.022775 
L 250.599027 77.324574 
L 250.831689 77.282581 
L 251.06435 76.190749 
L 251.297012 76.064768 
L 251.529673 76.44271 
L 251.762335 69.219822 
L 251.994997 70.185673 
L 252.46032 70.059693 
L 252.925643 70.521622 
L 253.158304 71.277505 
L 253.390966 68.967861 
L 253.623628 69.513777 
L 253.856289 71.445479 
L 254.088951 63.382721 
L 254.321612 67.204132 
L 254.554274 67.750048 
L 255.019597 87.948939 
L 255.252259 83.371643 
L 255.48492 82.993702 
L 255.717582 83.161676 
L 255.950243 83.581611 
L 256.182905 83.32965 
L 256.415566 82.825728 
L 256.648228 80.306115 
L 257.113551 80.558077 
L 257.346213 86.647139 
L 257.578874 86.983088 
L 257.811536 86.353184 
L 258.044197 83.707592 
L 258.276859 82.699747 
L 258.509521 79.046309 
L 258.742182 81.733896 
L 258.974844 81.439941 
L 259.207505 92.35826 
L 259.672828 88.242894 
L 259.90549 78.080458 
L 260.138151 80.516083 
L 260.370813 90.34257 
L 260.836136 90.174596 
L 261.068798 93.07215 
L 261.534121 94.079995 
L 261.766782 95.339801 
L 261.999444 94.835879 
L 262.232106 102.898637 
L 262.464767 102.352721 
L 262.93009 102.940631 
L 263.162752 104.032463 
L 263.395413 101.134909 
L 263.628075 100.505006 
L 263.860737 100.463012 
L 264.093398 102.68867 
L 264.32606 99.497161 
L 264.791383 99.329187 
L 265.024044 87.235049 
L 265.256706 99.119219 
L 265.489368 99.37118 
L 265.722029 98.993239 
L 265.954691 99.833109 
L 266.187352 98.783271 
L 266.420014 98.279348 
L 266.885337 96.431633 
L 267.117999 94.49993 
L 267.35066 94.079995 
L 267.583322 95.129833 
L 267.815983 94.835879 
L 268.048645 94.877872 
L 268.281306 96.179672 
L 268.513968 88.074919 
L 268.74663 88.536848 
L 268.979291 80.810038 
L 269.211953 79.592225 
L 269.677276 78.878335 
L 269.909937 67.666061 
L 270.142599 67.750048 
L 270.375261 70.815576 
L 270.607922 70.521622 
L 270.840584 69.975706 
L 271.305907 70.059693 
L 271.538568 70.563615 
L 271.77123 68.967861 
L 272.003892 68.589919 
L 272.236553 77.240587 
L 272.469215 78.626374 
L 272.701876 78.038465 
L 272.934538 91.266428 
L 273.399861 86.05923 
L 273.632523 86.143217 
L 273.865184 87.361029 
L 274.330507 92.568228 
L 274.563169 92.106299 
L 274.79583 92.526234 
L 275.261154 93.912021 
L 275.959138 96.557614 
L 276.1918 92.820189 
L 276.657123 93.702053 
L 276.889785 82.111837 
L 277.355108 80.138141 
L 277.587769 68.379951 
L 277.820431 78.878335 
L 278.053092 78.920329 
L 278.285754 78.206439 
L 278.518416 70.941557 
L 278.751077 72.075383 
L 278.983739 68.7159 
L 279.449062 68.589919 
L 279.681723 70.731589 
L 279.914385 80.348109 
L 280.147047 81.985857 
L 280.379708 78.710361 
L 280.61237 70.815576 
L 280.845031 72.243357 
L 281.077693 72.705286 
L 281.310354 72.705286 
L 281.543016 78.920329 
L 281.775678 81.691902 
L 282.008339 82.447786 
L 282.241001 78.626374 
L 282.473662 79.130296 
L 282.706324 84.589456 
L 283.171647 81.607915 
L 283.404309 81.397947 
L 283.63697 82.195824 
L 283.869632 87.738971 
L 284.102293 97.061536 
L 284.334955 96.053691 
L 284.567616 95.633756 
L 285.03294 102.310728 
L 285.265601 101.134909 
L 285.498263 108.819726 
L 285.730924 108.063842 
L 285.963586 112.977086 
L 286.196247 114.404866 
L 286.428909 112.263196 
L 286.661571 108.651752 
L 286.894232 109.239661 
L 287.126894 118.01631 
L 287.359555 118.520232 
L 287.592217 122.047689 
L 287.824878 109.911558 
L 288.05754 112.179209 
L 288.522863 113.271041 
L 288.988186 89.62868 
L 289.453509 109.617603 
L 289.686171 109.953551 
L 289.918833 108.777732 
L 290.151494 96.725588 
L 290.384156 97.145523 
L 290.616817 97.9434 
L 290.849479 93.324111 
L 291.08214 104.24243 
L 291.314802 105.082301 
L 291.547464 104.998314 
L 291.780125 107.181978 
L 292.012787 101.890793 
L 292.245448 109.827571 
L 292.710771 133.553918 
L 292.943433 135.149672 
L 293.176095 120.87187 
L 293.408756 127.464855 
L 293.641418 115.832646 
L 293.874079 116.210588 
L 294.106741 117.260426 
L 294.339402 114.236892 
L 294.572064 105.250275 
L 294.804726 104.410405 
L 295.270049 107.853875 
L 295.50271 107.601913 
L 295.735372 97.187517 
L 295.968033 95.08784 
L 296.200695 97.523465 
L 296.433356 106.678056 
L 296.666018 108.063842 
L 296.89868 106.594068 
L 297.131341 87.319036 
L 297.364003 88.494855 
L 297.596664 96.51562 
L 297.829326 96.725588 
L 298.061987 98.65729 
L 298.294649 87.529003 
L 298.527311 86.101223 
L 298.759972 87.612991 
L 298.992634 97.061536 
L 299.225295 98.363336 
L 299.457957 97.775426 
L 299.690618 91.350415 
L 299.92328 91.770351 
L 300.155942 91.434402 
L 300.388603 89.376719 
L 300.621265 89.964629 
L 300.853926 91.014467 
L 301.086588 93.66006 
L 301.319249 92.610221 
L 301.551911 89.082764 
L 301.784573 105.460243 
L 302.249896 111.759273 
L 302.482557 91.140447 
L 302.715219 91.980318 
L 302.94788 95.045846 
L 303.180542 94.331956 
L 303.413204 94.163982 
L 303.645865 94.49993 
L 303.878527 95.633756 
L 304.34385 91.224435 
L 304.576511 91.224435 
L 304.809173 90.678519 
L 305.507158 126.750965 
L 305.972481 125.74312 
L 306.205142 117.890329 
L 306.437804 122.005696 
L 306.903127 113.271041 
L 307.36845 113.732969 
L 307.601112 112.641138 
L 307.833773 110.835415 
L 308.066435 110.667441 
L 308.299097 121.627754 
L 308.531758 121.081838 
L 308.76442 111.507312 
L 308.997081 111.927247 
L 309.229743 124.483314 
L 309.462404 122.803573 
L 309.695066 122.845567 
L 309.927728 113.85895 
L 310.160389 116.00062 
L 310.393051 115.664672 
L 310.625712 117.218433 
L 310.858374 116.756504 
L 311.091035 116.00062 
L 311.323697 114.278885 
L 311.556359 117.806342 
L 311.78902 127.254888 
L 312.021682 127.842797 
L 312.254343 126.708972 
L 312.487005 120.241967 
L 312.719666 121.879715 
L 312.952328 109.407635 
L 313.18499 109.113681 
L 313.650313 106.426094 
L 313.882974 106.384101 
L 314.115636 104.368411 
L 314.348297 104.410405 
L 314.580959 106.006159 
L 314.813621 106.594068 
L 315.046282 107.727894 
L 315.278944 106.888023 
L 315.511605 109.869564 
L 315.744267 118.856181 
L 315.976928 114.362872 
L 316.20959 119.654058 
L 316.442252 114.950782 
L 316.674913 116.378562 
L 316.907575 116.210588 
L 317.140236 113.732969 
L 317.372898 114.404866 
L 317.605559 116.756504 
L 318.070883 118.940168 
L 318.303544 118.352258 
L 318.536206 122.089683 
L 319.001529 124.441321 
L 319.23419 128.682668 
L 319.466852 127.590836 
L 319.699514 125.491159 
L 319.932175 106.090146 
L 320.164837 106.300114 
L 320.862821 104.704359 
L 321.095483 104.914327 
L 321.328145 104.410405 
L 321.560806 105.376256 
L 321.793468 103.990469 
L 322.026129 94.079995 
L 322.258791 93.618066 
L 322.491452 95.465782 
L 322.724114 102.10076 
L 322.956776 114.866795 
L 323.189437 113.523002 
L 323.422099 105.922172 
L 323.65476 93.492085 
L 323.887422 96.347646 
L 324.120083 96.221665 
L 324.352745 93.912021 
L 324.585407 87.864952 
L 324.818068 87.738971 
L 325.05073 89.880641 
L 325.283391 86.941094 
L 325.516053 85.681288 
L 325.748714 88.032926 
L 325.981376 97.523465 
L 326.214038 94.37395 
L 326.446699 102.226741 
L 326.679361 101.260889 
L 326.912022 106.804036 
L 327.144684 98.699284 
L 327.377345 97.439478 
L 327.610007 97.691439 
L 327.842669 97.187517 
L 328.307992 99.875103 
L 328.540653 100.043077 
L 329.238638 94.793885 
L 329.4713 95.171827 
L 329.936623 103.486547 
L 330.169284 102.772657 
L 330.401946 95.969704 
L 330.634607 96.473626 
L 330.867269 103.780502 
L 331.099931 104.032463 
L 331.332592 100.08507 
L 331.565254 91.014467 
L 331.797915 90.972473 
L 332.030577 94.541924 
L 332.263238 85.891256 
L 332.4959 86.437172 
L 332.728562 84.715437 
L 332.961223 96.473626 
L 333.426546 97.565458 
L 333.891869 100.295038 
L 334.124531 108.9877 
L 334.357192 109.827571 
L 334.589854 109.071687 
L 334.822516 99.37118 
L 335.287839 103.612527 
L 335.5205 106.174133 
L 335.753162 105.754198 
L 335.985823 106.426094 
L 336.218485 108.27381 
L 336.683808 130.110448 
L 336.91647 130.48839 
L 337.149131 130.110448 
L 337.381793 131.370254 
L 337.614454 120.15798 
L 337.847116 116.798497 
L 338.079778 116.798497 
L 338.312439 114.152905 
L 338.545101 116.00062 
L 339.010424 114.152905 
L 339.243085 113.523002 
L 339.475747 112.347183 
L 339.94107 111.297344 
L 340.173732 111.591299 
L 340.406393 112.389176 
L 340.639055 109.70159 
L 340.871716 111.12937 
L 341.104378 90.132603 
L 341.569701 94.331956 
L 341.802363 86.8991 
L 342.267686 85.009391 
L 342.500347 88.536848 
L 342.733009 101.092915 
L 342.965671 101.008928 
L 343.198332 101.764812 
L 343.663655 101.260889 
L 344.128978 101.554844 
L 344.36164 102.898637 
L 344.594302 101.596838 
L 344.826963 99.161213 
L 345.059625 105.712204 
L 345.292286 106.552075 
L 345.524948 108.819726 
L 345.757609 100.798961 
L 345.990271 100.211051 
L 346.222933 99.161213 
L 346.455594 86.437172 
L 346.688256 86.227204 
L 346.920917 88.158906 
L 347.153579 86.521159 
L 347.38624 85.765275 
L 347.618902 94.163982 
L 347.851564 93.870027 
L 348.084225 94.079995 
L 348.316887 87.696978 
L 348.78221 88.872797 
L 349.014871 88.746816 
L 349.247533 88.242894 
L 349.480195 87.319036 
L 349.712856 91.308422 
L 349.945518 90.846493 
L 350.178179 90.090609 
L 350.410841 90.888486 
L 350.643502 90.384564 
L 350.876164 90.384564 
L 351.108826 90.93048 
L 351.341487 87.570997 
L 351.574149 90.678519 
L 351.80681 86.311191 
L 352.039472 86.941094 
L 352.272133 93.702053 
L 352.737457 89.964629 
L 352.970118 83.32965 
L 353.20278 83.455631 
L 353.668103 85.219359 
L 353.900764 85.135372 
L 354.598749 113.816956 
L 354.831411 107.223971 
L 355.064072 108.231816 
L 355.296734 97.733433 
L 355.529395 97.355491 
L 355.762057 88.074919 
L 355.994719 87.067075 
L 356.22738 88.410868 
L 356.460042 92.862182 
L 356.925365 85.177365 
L 357.158026 77.576536 
L 357.390688 76.568691 
L 357.62335 78.332419 
L 358.088673 78.416406 
L 358.321334 76.988626 
L 358.553996 78.248432 
L 359.019319 73.797117 
L 359.251981 73.293195 
L 359.484642 74.30104 
L 359.717304 76.106762 
L 359.949965 73.419176 
L 360.182627 72.915253 
L 360.880612 96.221665 
L 361.345935 88.410868 
L 361.578596 88.578842 
L 361.811258 98.153368 
L 362.043919 101.806805 
L 362.276581 99.497161 
L 362.509243 107.391946 
L 362.741904 107.601913 
L 362.974566 109.70159 
L 363.207227 101.638831 
L 363.439889 101.38687 
L 363.67255 106.97201 
L 363.905212 109.407635 
L 364.137874 108.315803 
L 364.370535 109.197668 
L 364.835858 105.502237 
L 365.06852 114.656827 
L 365.533843 94.877872 
L 365.766505 95.507775 
L 365.999166 95.171827 
L 366.231828 97.523465 
L 366.464489 97.691439 
L 366.697151 95.717743 
L 366.929812 95.08784 
L 367.162474 96.725588 
L 367.395136 108.189823 
L 367.627797 108.39979 
L 367.860459 107.139984 
L 368.09312 105.250275 
L 368.325782 105.922172 
L 368.558443 105.586224 
L 368.791105 92.064305 
L 369.023767 92.106299 
L 369.48909 87.361029 
L 369.721751 86.647139 
L 369.954413 82.867721 
L 370.187074 82.909715 
L 370.419736 82.489779 
L 370.652397 78.920329 
L 370.885059 80.768044 
L 371.117721 81.061999 
L 371.350382 112.851105 
L 371.583044 111.255351 
L 372.281028 73.503163 
L 372.51369 93.954014 
L 372.746352 91.812344 
L 372.979013 91.476396 
L 373.211675 86.479165 
L 373.444336 86.647139 
L 373.676998 78.080458 
L 373.909659 78.248432 
L 374.142321 77.74451 
L 374.374983 78.206439 
L 374.607644 82.405792 
L 374.840306 81.859876 
L 375.072967 81.859876 
L 375.305629 80.432096 
L 375.53829 81.397947 
L 376.003614 79.760199 
L 376.236275 79.382258 
L 376.468937 80.264122 
L 376.701598 72.453324 
L 376.93426 71.655447 
L 377.166921 72.453324 
L 377.399583 83.539618 
L 377.632245 83.287656 
L 377.864906 81.90187 
L 378.097568 92.274273 
L 378.330229 92.022312 
L 378.562891 93.156137 
L 379.028214 77.450555 
L 379.260876 77.828497 
L 379.493537 91.728357 
L 379.726199 78.206439 
L 379.95886 79.592225 
L 380.191522 79.004316 
L 380.424183 79.214284 
L 380.656845 79.17229 
L 381.35483 81.90187 
L 381.587491 90.552538 
L 381.820153 91.812344 
L 382.052814 91.854338 
L 382.285476 81.229973 
L 382.518138 80.222128 
L 382.750799 80.726051 
L 382.983461 80.180135 
L 383.216122 78.164445 
L 383.448784 89.040771 
L 383.681445 89.880641 
L 383.914107 89.5027 
L 384.146769 79.046309 
L 384.612092 75.770814 
L 384.844753 76.022775 
L 385.077415 76.862646 
L 385.310076 76.232743 
L 385.542738 74.846956 
L 385.7754 75.098917 
L 386.008061 75.72882 
L 386.240723 72.201363 
L 386.473384 72.201363 
L 386.938707 72.957247 
L 387.171369 73.755124 
L 387.404031 70.269661 
L 387.636692 70.185673 
L 387.869354 69.849725 
L 388.102015 73.083227 
L 388.334677 72.705286 
L 388.567338 71.487473 
L 388.8 72.705286 
L 388.8 72.705286 
" style="fill:none;stroke:#008000;stroke-linecap:square;stroke-width:1.5;"/>
   </g>
   <g id="line2d_28">
    <path clip-path="url(#p8af53c6a81)" d="M 54 69.853801 
L 54.232662 69.821115 
L 54.465323 70.3177 
L 54.697985 71.847957 
L 54.930646 72.178265 
L 55.163308 71.583916 
L 55.628631 73.133345 
L 55.861293 73.110477 
L 56.093954 91.161041 
L 56.326616 74.875718 
L 56.559277 74.846401 
L 56.791939 74.399813 
L 57.257262 74.390068 
L 57.722585 73.660169 
L 58.187908 73.669544 
L 58.42057 74.343001 
L 58.885893 74.341053 
L 59.351216 77.456367 
L 59.816539 76.946204 
L 60.281862 76.955743 
L 60.514524 77.813164 
L 60.747186 77.721071 
L 60.979847 78.287897 
L 61.212509 78.339385 
L 61.677832 78.267093 
L 61.910493 78.273068 
L 62.143155 78.137905 
L 62.375817 79.026089 
L 63.306463 78.950709 
L 63.539124 78.759574 
L 64.004448 80.580978 
L 64.469771 76.923168 
L 64.702432 76.013797 
L 64.935094 76.013797 
L 65.400417 77.572348 
L 66.331063 77.153717 
L 66.563725 76.487013 
L 66.796386 79.043742 
L 67.029048 78.59076 
L 67.26171 78.476288 
L 67.494371 80.027361 
L 67.727033 80.014326 
L 67.959694 80.342423 
L 68.192356 78.100263 
L 68.425017 77.240394 
L 68.657679 76.925338 
L 69.123002 77.006245 
L 69.355664 78.167772 
L 69.588325 76.652242 
L 69.820987 76.24494 
L 70.28631 74.031572 
L 70.518972 74.232085 
L 70.751633 73.666598 
L 70.984295 74.346474 
L 71.216956 74.346474 
L 71.682279 74.701667 
L 71.914941 75.677023 
L 72.380264 78.179062 
L 72.612926 79.331015 
L 72.845587 81.284746 
L 73.078249 81.008535 
L 73.31091 81.55035 
L 73.543572 80.12377 
L 73.776233 81.781532 
L 74.008895 80.737871 
L 74.474218 83.451171 
L 74.70688 83.451171 
L 75.172203 86.941497 
L 75.404864 86.941497 
L 75.637526 86.490718 
L 75.870188 86.714319 
L 76.102849 85.892015 
L 76.335511 86.858337 
L 76.568172 86.944884 
L 76.800834 87.485542 
L 77.033495 88.466281 
L 77.498819 84.915474 
L 77.73148 85.224582 
L 77.964142 84.932577 
L 78.196803 85.02261 
L 78.429465 84.969867 
L 79.360111 77.590654 
L 79.592773 79.029641 
L 79.825434 78.850643 
L 80.058096 79.728596 
L 80.290757 78.624896 
L 80.756081 78.496548 
L 80.988742 78.594892 
L 81.221404 77.250327 
L 81.454065 77.496093 
L 81.686727 77.338026 
L 81.919388 73.448603 
L 82.15205 73.3222 
L 82.617373 77.127539 
L 83.780681 77.066958 
L 84.013343 76.668433 
L 84.246004 73.133611 
L 84.478666 73.962881 
L 84.711327 74.065067 
L 85.17665 76.486697 
L 85.409312 76.486697 
L 85.641974 75.563199 
L 85.874635 75.724129 
L 86.107297 75.601267 
L 86.339958 75.640404 
L 86.57262 75.072917 
L 86.805281 76.293041 
L 87.037943 76.266092 
L 87.270605 76.959037 
L 87.735928 74.0239 
L 87.968589 74.823232 
L 88.201251 76.921604 
L 88.433912 75.462387 
L 88.666574 75.664534 
L 89.131897 78.008954 
L 89.364559 77.913135 
L 89.59722 80.546165 
L 89.829882 80.546165 
L 90.062543 79.345881 
L 90.295205 80.530552 
L 90.760528 80.546212 
L 90.99319 81.465536 
L 91.225851 81.882764 
L 91.458513 79.902481 
L 91.923836 79.967611 
L 92.156498 78.979672 
L 92.389159 80.021221 
L 92.621821 79.747982 
L 92.854482 77.667607 
L 93.087144 78.642838 
L 93.319805 77.45987 
L 93.552467 77.825038 
L 93.785129 77.29029 
L 94.01779 75.782885 
L 94.250452 75.751381 
L 94.483113 77.093062 
L 94.715775 79.34299 
L 94.948436 79.323168 
L 95.181098 80.619395 
L 95.41376 80.295495 
L 95.646421 80.311595 
L 95.879083 81.073784 
L 96.111744 79.948693 
L 96.344406 80.445503 
L 96.577067 81.919305 
L 97.042391 83.112271 
L 97.275052 83.355708 
L 97.507714 81.758214 
L 97.740375 82.202054 
L 97.973037 81.595666 
L 98.205698 82.456517 
L 98.43836 84.094631 
L 98.671022 84.094631 
L 98.903683 86.480998 
L 99.136345 85.307791 
L 99.369006 85.000139 
L 99.601668 84.904831 
L 99.834329 81.967308 
L 100.066991 82.690972 
L 100.532314 82.76276 
L 100.764976 83.094657 
L 100.997637 83.117537 
L 101.230299 84.451292 
L 101.46296 81.70365 
L 101.695622 80.467276 
L 101.928284 80.026394 
L 102.626268 80.003527 
L 102.85893 79.779649 
L 103.091591 78.876019 
L 103.324253 77.365537 
L 103.556915 76.784896 
L 103.789576 76.807867 
L 104.254899 75.336166 
L 104.487561 73.673031 
L 104.720222 73.26555 
L 104.952884 73.383137 
L 105.185546 73.142626 
L 105.650869 75.574213 
L 105.88353 74.536548 
L 106.116192 74.722638 
L 106.348853 73.208544 
L 106.581515 74.408022 
L 107.046838 73.182463 
L 107.2795 73.207214 
L 107.512161 73.085262 
L 107.977484 73.481943 
L 108.442808 73.020563 
L 108.675469 75.697463 
L 108.908131 75.671884 
L 109.373454 78.961048 
L 109.606115 79.363884 
L 109.838777 81.295755 
L 110.071438 81.637793 
L 110.3041 80.646349 
L 110.536762 80.207666 
L 110.769423 79.468826 
L 111.002085 79.260136 
L 111.467408 83.242434 
L 112.165393 83.027102 
L 112.630716 85.280139 
L 112.863377 84.519247 
L 113.096039 82.977004 
L 113.3287 82.816077 
L 113.561362 83.016598 
L 113.794024 81.5439 
L 114.026685 81.5439 
L 114.259347 79.868299 
L 114.492008 77.259784 
L 114.72467 78.728121 
L 114.957331 77.379393 
L 115.189993 77.133325 
L 115.422655 79.66688 
L 115.655316 79.95143 
L 115.887978 81.605626 
L 116.353301 81.724415 
L 116.585962 80.87651 
L 116.818624 81.9956 
L 117.283947 81.469184 
L 117.516609 81.466827 
L 117.74927 80.247336 
L 117.981932 80.232799 
L 118.214593 80.680591 
L 118.447255 82.965615 
L 118.679917 81.482766 
L 118.912578 82.313187 
L 119.14524 82.313187 
L 119.610563 80.618822 
L 119.843224 77.662367 
L 120.075886 78.280914 
L 120.541209 78.205295 
L 120.773871 77.474925 
L 121.006532 75.219856 
L 121.239194 75.352803 
L 121.471855 75.807921 
L 121.937179 76.055623 
L 122.402502 78.832469 
L 122.635163 78.815327 
L 122.867825 79.048207 
L 123.100486 79.627321 
L 123.333148 79.449855 
L 123.56581 76.174557 
L 123.798471 74.76855 
L 124.031133 75.014094 
L 124.263794 75.447533 
L 124.496456 75.215898 
L 124.729117 75.935663 
L 124.961779 76.021573 
L 125.427102 76.426741 
L 125.659764 75.643046 
L 125.892425 77.206706 
L 126.125087 75.647885 
L 126.357748 75.660785 
L 126.59041 76.941418 
L 126.823072 76.983989 
L 127.055733 77.813158 
L 127.288395 75.890802 
L 127.521056 75.956262 
L 127.753718 75.89211 
L 127.986379 75.437684 
L 128.219041 75.418134 
L 128.451703 75.639265 
L 128.684364 75.639265 
L 128.917026 74.805888 
L 129.149687 75.69454 
L 129.61501 76.083685 
L 130.080334 78.238374 
L 130.312995 78.965551 
L 130.545657 80.160252 
L 131.01098 80.226533 
L 131.243641 79.252619 
L 131.476303 96.189809 
L 131.708965 96.450506 
L 131.941626 97.838338 
L 132.174288 81.304909 
L 132.406949 81.562911 
L 132.872272 84.460868 
L 133.104934 86.533999 
L 133.337596 86.186821 
L 133.802919 88.459424 
L 134.03558 86.871594 
L 134.268242 86.890888 
L 134.500903 86.321292 
L 134.733565 86.88351 
L 134.966227 88.1679 
L 135.198888 85.470158 
L 135.43155 84.556673 
L 135.664211 84.55489 
L 135.896873 84.243749 
L 136.362196 78.715827 
L 136.594858 78.589671 
L 137.060181 83.861203 
L 137.292842 83.796119 
L 137.525504 82.606576 
L 137.758165 95.103316 
L 137.990827 94.974645 
L 138.223489 94.469439 
L 138.45615 78.780347 
L 138.688812 78.453234 
L 138.921473 78.43563 
L 139.154135 78.803748 
L 139.386796 79.757359 
L 139.619458 79.894161 
L 140.084781 76.083603 
L 140.317443 76.227694 
L 140.550104 76.677569 
L 140.782766 76.736638 
L 141.015427 78.608881 
L 141.480751 78.224916 
L 141.713412 77.401692 
L 141.946074 75.637211 
L 142.178735 75.620856 
L 142.411397 75.375248 
L 142.644058 75.572798 
L 142.87672 75.365601 
L 143.109382 74.941031 
L 143.342043 79.048956 
L 143.574705 77.741911 
L 143.807366 79.574276 
L 144.040028 91.222421 
L 144.272689 90.580699 
L 144.505351 89.558004 
L 144.738013 76.742742 
L 144.970674 77.63324 
L 145.203336 77.236027 
L 145.435997 79.629501 
L 145.668659 78.666643 
L 146.133982 78.910642 
L 146.366644 79.451378 
L 147.064628 82.458772 
L 147.29729 81.725023 
L 147.995274 81.990228 
L 148.227936 81.178767 
L 148.925921 84.516674 
L 149.158582 144.490106 
L 149.623905 146.087263 
L 149.856567 84.592097 
L 150.089229 83.796015 
L 150.32189 84.499838 
L 150.554552 80.611438 
L 150.787213 80.173252 
L 151.019875 79.454476 
L 151.252536 77.958842 
L 151.71786 87.521684 
L 151.950521 84.434948 
L 152.183183 85.864459 
L 152.415844 84.398656 
L 152.648506 99.240792 
L 152.881167 99.261688 
L 153.113829 121.616319 
L 153.346491 106.569162 
L 153.579152 109.542443 
L 153.811814 178.437367 
L 154.044475 178.286078 
L 154.277137 177.994427 
L 154.509798 128.436558 
L 154.74246 127.168403 
L 154.975122 129.853775 
L 155.207783 115.951541 
L 155.440445 116.611656 
L 155.673106 116.576154 
L 155.905768 138.914718 
L 156.138429 177.649825 
L 156.371091 177.175906 
L 156.836414 127.207564 
L 157.069076 126.477847 
L 157.301737 139.311708 
L 157.534399 139.098413 
L 157.76706 100.601067 
L 157.999722 102.846205 
L 158.232384 101.010113 
L 158.465045 113.276463 
L 158.697707 107.836478 
L 158.930368 107.946979 
L 159.16303 106.475407 
L 159.395691 108.642906 
L 159.628353 108.924288 
L 159.861015 108.869242 
L 160.093676 106.034944 
L 160.326338 107.369096 
L 160.558999 106.201526 
L 160.791661 102.172701 
L 161.024322 101.01022 
L 161.256984 120.912691 
L 161.489646 122.261409 
L 161.954969 90.281485 
L 162.18763 91.964038 
L 162.420292 105.390493 
L 162.652953 107.452136 
L 162.885615 105.969006 
L 163.118277 86.718794 
L 163.350938 111.1987 
L 163.5836 111.811693 
L 163.816261 112.92877 
L 164.048923 110.72038 
L 164.281584 111.769786 
L 164.514246 110.855116 
L 164.746908 111.488265 
L 164.979569 111.026327 
L 165.444892 115.636518 
L 165.677554 129.32201 
L 165.910215 130.290299 
L 166.142877 114.42058 
L 166.375539 108.6846 
L 166.840862 240.436244 
L 167.073523 242.116364 
L 167.538846 110.957695 
L 167.771508 110.241332 
L 168.00417 88.630807 
L 168.236831 92.410986 
L 168.469493 164.135366 
L 168.934816 171.740738 
L 169.167477 93.674107 
L 169.400139 154.912242 
L 169.865462 150.769785 
L 170.098124 90.360684 
L 170.563447 87.226506 
L 170.796108 102.550862 
L 171.02877 109.009542 
L 171.261432 109.320067 
L 171.494093 108.60728 
L 171.726755 109.039665 
L 171.959416 111.683992 
L 172.192078 112.437843 
L 172.424739 100.711587 
L 172.657401 98.577724 
L 172.890063 98.340718 
L 173.122724 111.4046 
L 173.355386 104.673123 
L 173.588047 121.434241 
L 173.820709 123.862304 
L 174.05337 136.778713 
L 174.286032 120.94588 
L 174.518694 122.025823 
L 174.751355 121.85701 
L 174.984017 121.173001 
L 175.216678 116.993112 
L 175.44934 115.673623 
L 175.682001 101.259902 
L 176.147325 93.369957 
L 176.379986 93.046027 
L 176.612648 95.999498 
L 176.845309 97.055673 
L 177.077971 96.335668 
L 177.310632 94.910115 
L 177.543294 91.519741 
L 177.775956 92.141004 
L 178.008617 91.924521 
L 178.241279 88.357909 
L 178.47394 88.01647 
L 178.706602 85.720339 
L 178.939263 98.055014 
L 179.171925 98.10733 
L 179.404587 101.090126 
L 179.637248 84.714483 
L 179.86991 83.269796 
L 180.102571 99.185371 
L 180.335233 99.280351 
L 180.567894 110.914135 
L 180.800556 89.682 
L 181.265879 87.985724 
L 181.498541 107.265401 
L 181.963864 100.902432 
L 182.196525 100.80014 
L 182.661849 92.577589 
L 182.89451 90.509155 
L 183.127172 87.017581 
L 183.359833 87.0927 
L 183.825156 92.737352 
L 184.290479 92.022038 
L 184.523141 88.519428 
L 184.755803 88.759155 
L 184.988464 181.819296 
L 185.453787 150.523437 
L 185.686449 57.985135 
L 185.91911 65.293482 
L 186.151772 82.907389 
L 186.384434 88.131465 
L 186.617095 80.681693 
L 186.849757 80.538843 
L 187.082418 80.986963 
L 187.547741 89.470881 
L 187.780403 91.972489 
L 188.013065 92.960337 
L 188.245726 96.475111 
L 188.478388 96.508494 
L 188.711049 93.143726 
L 188.943711 92.994784 
L 189.176372 93.529962 
L 189.409034 95.985338 
L 189.641696 100.94546 
L 189.874357 101.938522 
L 190.107019 118.002559 
L 190.33968 118.137507 
L 190.572342 115.302834 
L 190.805003 99.413428 
L 191.502988 105.047622 
L 191.73565 103.64226 
L 191.968311 87.869112 
L 192.200973 84.512754 
L 192.433634 86.262166 
L 192.666296 100.025643 
L 192.898958 103.529402 
L 193.131619 116.010365 
L 193.364281 102.938 
L 193.596942 82.579694 
L 194.062265 78.232273 
L 194.294927 78.232273 
L 194.527589 76.060354 
L 194.76025 76.778049 
L 194.992912 92.14066 
L 195.225573 91.607719 
L 195.458235 91.385926 
L 195.690896 74.033707 
L 195.923558 75.752463 
L 196.15622 73.425775 
L 196.388881 72.958729 
L 196.621543 73.228289 
L 197.086866 76.382238 
L 197.319527 76.62436 
L 197.784851 71.968907 
L 198.017512 55.601148 
L 198.250174 58.184622 
L 198.482835 58.248217 
L 198.715497 90.682604 
L 199.18082 92.33344 
L 199.413482 101.140181 
L 199.646143 100.972782 
L 199.878805 102.24499 
L 200.111466 102.434877 
L 200.344128 124.149168 
L 200.809451 121.932682 
L 201.042113 97.047285 
L 201.274774 96.702015 
L 201.507436 95.388054 
L 201.740097 95.010583 
L 201.972759 93.568475 
L 202.20542 105.492169 
L 202.438082 86.180271 
L 202.670744 83.515541 
L 202.903405 84.400113 
L 203.136067 71.061491 
L 203.368728 71.793971 
L 203.60139 69.365761 
L 204.066713 72.347845 
L 204.299375 71.073245 
L 204.532036 71.537456 
L 204.764698 72.902506 
L 204.997359 72.702548 
L 205.230021 74.753167 
L 205.462682 74.667971 
L 205.695344 77.168364 
L 205.928006 77.167107 
L 206.160667 79.770584 
L 206.393329 113.61968 
L 206.62599 113.303408 
L 206.858652 113.432825 
L 207.091313 83.698088 
L 207.323975 85.723695 
L 207.556637 84.235383 
L 207.789298 86.794914 
L 208.02196 86.963139 
L 208.254621 87.455723 
L 208.487283 88.611948 
L 208.719944 88.513878 
L 208.952606 86.005586 
L 209.185268 166.881004 
L 209.417929 169.006038 
L 209.650591 165.952159 
L 209.883252 88.388618 
L 210.115914 99.01902 
L 210.348575 97.996227 
L 210.581237 100.49689 
L 210.813899 93.528414 
L 211.04656 125.304171 
L 211.279222 122.405023 
L 211.511883 121.565549 
L 211.744545 119.602848 
L 211.977206 118.936753 
L 212.209868 135.778438 
L 212.44253 136.835326 
L 212.675191 137.354794 
L 212.907853 133.027826 
L 213.605837 135.252678 
L 214.071161 134.980528 
L 214.303822 137.049823 
L 214.769145 138.88699 
L 215.001807 137.651855 
L 215.234468 137.602467 
L 215.46713 163.422485 
L 215.699792 163.487977 
L 215.932453 146.4351 
L 216.165115 155.043507 
L 216.397776 153.560427 
L 216.630438 154.615474 
L 216.863099 134.263331 
L 217.095761 133.8134 
L 217.328423 130.061547 
L 217.561084 129.610191 
L 217.793746 129.921299 
L 218.026407 129.452194 
L 218.259069 129.474766 
L 218.49173 125.356831 
L 218.724392 126.260557 
L 218.957054 125.319916 
L 219.189715 126.784891 
L 219.422377 141.532992 
L 219.655038 141.760418 
L 219.8877 143.653685 
L 220.120361 143.419587 
L 220.353023 146.531856 
L 220.585685 145.980498 
L 221.051008 143.698703 
L 221.283669 143.573071 
L 221.516331 146.854376 
L 221.748992 141.689062 
L 221.981654 146.237718 
L 222.214315 163.891534 
L 222.446977 145.18073 
L 222.679639 145.223447 
L 222.9123 149.745838 
L 223.144962 173.128377 
L 223.377623 172.483162 
L 223.610285 184.092115 
L 223.842946 189.228296 
L 224.075608 188.958934 
L 224.30827 190.421589 
L 224.540931 189.827746 
L 224.773593 191.817991 
L 225.006254 190.289174 
L 225.238916 190.344228 
L 225.471577 186.646971 
L 225.704239 147.838929 
L 225.936901 148.839204 
L 226.169562 149.131858 
L 226.402224 151.843111 
L 226.634885 128.311477 
L 226.867547 128.217591 
L 227.33287 131.840661 
L 227.565532 130.57789 
L 227.798193 108.189166 
L 228.030855 113.024195 
L 228.263516 113.002026 
L 228.496178 115.468983 
L 228.728839 132.87383 
L 228.961501 131.097677 
L 229.194163 131.299008 
L 229.426824 97.071617 
L 229.892147 98.693054 
L 230.124809 97.757294 
L 230.35747 98.868848 
L 230.590132 90.263964 
L 231.055455 87.13908 
L 231.288117 85.448063 
L 231.520778 85.620102 
L 231.75344 86.077364 
L 231.986101 85.910827 
L 232.218763 93.372629 
L 232.451425 92.989004 
L 232.684086 92.985461 
L 232.916748 85.506651 
L 233.149409 85.394368 
L 233.382071 84.981208 
L 233.614732 85.812995 
L 233.847394 84.881449 
L 234.080056 86.104654 
L 234.312717 85.456419 
L 234.545379 85.678346 
L 234.77804 85.686041 
L 235.010702 84.656841 
L 235.243363 84.814054 
L 235.476025 82.647986 
L 235.708687 82.59434 
L 235.941348 81.685264 
L 236.17401 86.673756 
L 236.406671 85.316436 
L 236.639333 86.666079 
L 236.871994 90.547567 
L 237.104656 90.769182 
L 237.337318 90.289858 
L 237.569979 90.284796 
L 237.802641 87.622353 
L 238.035302 87.829749 
L 238.267964 88.947186 
L 238.500625 89.121335 
L 238.733287 89.515216 
L 239.19861 85.708161 
L 239.663933 88.866769 
L 239.896595 151.674664 
L 240.129256 156.087099 
L 240.361918 154.036506 
L 240.59458 91.843936 
L 241.059903 89.304432 
L 241.292564 85.275404 
L 241.525226 85.385434 
L 241.757887 87.493703 
L 241.990549 87.947521 
L 242.223211 87.923432 
L 242.455872 81.71494 
L 242.688534 78.589362 
L 242.921195 78.159446 
L 243.153857 75.478237 
L 243.386518 74.852555 
L 243.61918 75.881554 
L 243.851842 75.988317 
L 244.084503 77.889293 
L 244.317165 77.847044 
L 244.549826 78.560227 
L 244.782488 78.718623 
L 245.015149 77.975826 
L 245.247811 77.975826 
L 245.480473 77.811702 
L 245.945796 84.179993 
L 246.178457 84.475231 
L 246.411119 87.630433 
L 246.876442 87.516707 
L 247.109104 83.906334 
L 247.341765 83.973402 
L 247.574427 84.384429 
L 247.807088 83.783467 
L 248.03975 99.98047 
L 248.272411 99.933496 
L 248.737735 97.800934 
L 249.203058 100.048994 
L 249.435719 100.571506 
L 249.668381 96.095991 
L 249.901042 95.923936 
L 250.366366 97.571827 
L 250.599027 98.712753 
L 250.831689 98.697871 
L 251.06435 97.055586 
L 251.297012 97.001473 
L 251.529673 97.6901 
L 251.762335 83.792854 
L 251.994997 85.514451 
L 252.227658 85.334117 
L 252.46032 85.305281 
L 252.692981 85.499451 
L 252.925643 85.857742 
L 253.158304 87.030083 
L 253.390966 84.384932 
L 253.623628 85.485241 
L 253.856289 89.304725 
L 254.088951 79.767832 
L 254.321612 84.881252 
L 254.554274 85.725245 
L 254.786935 96.179506 
L 255.019597 116.925862 
L 255.252259 110.638709 
L 255.48492 109.843591 
L 255.717582 110.041926 
L 255.950243 110.528328 
L 256.182905 110.261367 
L 256.415566 109.251372 
L 256.648228 105.859908 
L 256.88089 105.661448 
L 257.113551 105.84208 
L 257.346213 117.200553 
L 257.578874 117.929534 
L 257.811536 116.911621 
L 258.044197 110.868538 
L 258.276859 108.539712 
L 258.509521 103.403943 
L 258.742182 105.95027 
L 258.974844 105.224465 
L 259.207505 124.731187 
L 259.672828 118.638625 
L 259.90549 99.14816 
L 260.138151 101.8936 
L 260.370813 123.106492 
L 260.836136 122.871666 
L 261.068798 126.815039 
L 261.534121 128.734085 
L 261.766782 131.512143 
L 261.999444 130.361109 
L 262.232106 146.219789 
L 262.464767 145.263367 
L 262.93009 146.455492 
L 263.162752 148.316965 
L 263.395413 145.126003 
L 263.628075 143.696851 
L 263.860737 143.685522 
L 264.093398 146.275665 
L 264.32606 142.434956 
L 264.558721 142.355115 
L 264.791383 142.108251 
L 265.024044 117.864388 
L 265.256706 141.59886 
L 265.489368 141.857244 
L 265.722029 140.924184 
L 265.954691 142.563667 
L 267.117999 134.261226 
L 267.35066 133.927547 
L 267.583322 135.849178 
L 267.815983 135.410731 
L 268.048645 135.514792 
L 268.281306 137.635378 
L 268.513968 121.921078 
L 268.74663 122.808052 
L 268.979291 105.416532 
L 269.211953 103.384705 
L 269.444614 103.073654 
L 269.677276 102.277325 
L 269.909937 80.21814 
L 270.142599 80.402399 
L 270.375261 85.828916 
L 270.840584 84.698762 
L 271.073245 84.711164 
L 271.305907 84.892486 
L 271.538568 85.843567 
L 271.77123 84.041995 
L 272.003892 83.324708 
L 272.236553 102.33092 
L 272.469215 103.36242 
L 272.701876 102.441473 
L 272.934538 127.760139 
L 273.399861 121.858297 
L 273.632523 122.128011 
L 274.097846 127.782244 
L 274.330507 130.623615 
L 274.563169 129.672734 
L 275.261154 133.092683 
L 275.959138 137.71793 
L 276.1918 132.559067 
L 276.657123 134.780468 
L 276.889785 111.294297 
L 277.355108 107.471848 
L 277.587769 84.569173 
L 277.820431 102.592326 
L 278.053092 102.721932 
L 278.285754 101.848476 
L 278.518416 87.613957 
L 278.751077 89.172083 
L 278.983739 85.599458 
L 279.2164 85.418788 
L 279.449062 85.398844 
L 279.681723 88.649131 
L 279.914385 107.508418 
L 280.147047 110.743807 
L 280.379708 106.28364 
L 280.61237 90.391475 
L 280.845031 93.375899 
L 281.077693 94.798915 
L 281.310354 94.699992 
L 281.543016 108.877062 
L 281.775678 112.30097 
L 282.008339 113.670709 
L 282.241001 103.837367 
L 282.473662 104.771898 
L 282.706324 116.046643 
L 282.938985 114.878724 
L 283.171647 112.592661 
L 283.404309 112.024072 
L 283.63697 113.322557 
L 283.869632 121.132573 
L 284.102293 141.607824 
L 284.334955 141.748367 
L 285.03294 158.807116 
L 285.265601 150.509776 
L 285.498263 167.732052 
L 285.730924 166.85082 
L 285.963586 178.112425 
L 286.196247 179.337573 
L 286.428909 177.203674 
L 286.661571 167.308366 
L 286.894232 168.458057 
L 287.126894 185.536117 
L 287.359555 185.802186 
L 287.592217 191.00132 
L 287.824878 168.439688 
L 288.05754 170.963143 
L 288.290202 172.14162 
L 288.522863 171.44099 
L 288.988186 127.219829 
L 289.453509 166.703647 
L 289.686171 167.47456 
L 289.918833 165.385284 
L 290.151494 141.175015 
L 290.384156 141.995009 
L 290.616817 143.410137 
L 290.849479 131.966093 
L 291.08214 153.773603 
L 291.314802 155.629243 
L 291.547464 155.491236 
L 291.780125 160.79491 
L 292.012787 151.561331 
L 292.710771 206.878801 
L 292.943433 208.554363 
L 293.176095 184.523892 
L 293.408756 199.309464 
L 293.641418 175.570771 
L 293.874079 176.100047 
L 294.106741 176.986226 
L 294.339402 171.038579 
L 294.572064 153.549633 
L 294.804726 151.482396 
L 295.270049 158.269522 
L 295.50271 157.539277 
L 295.735372 136.623986 
L 295.968033 134.72625 
L 296.200695 139.000052 
L 296.433356 157.215497 
L 296.666018 159.955084 
L 296.89868 157.228132 
L 297.131341 119.982457 
L 297.364003 122.279803 
L 297.596664 139.944289 
L 297.829326 140.200091 
L 298.061987 144.117309 
L 298.294649 120.464193 
L 298.527311 117.530927 
L 298.759972 119.737977 
L 298.992634 137.750537 
L 299.225295 140.352337 
L 299.457957 139.367972 
L 299.690618 126.53808 
L 299.92328 127.376286 
L 300.155942 126.956635 
L 300.388603 122.874354 
L 300.621265 123.76711 
L 300.853926 126.157632 
L 301.086588 131.201113 
L 301.319249 129.20829 
L 301.551911 122.231309 
L 301.784573 154.97474 
L 302.249896 165.489454 
L 302.482557 126.733514 
L 302.715219 128.364801 
L 302.94788 134.291241 
L 303.180542 133.027855 
L 303.413204 132.535993 
L 303.645865 133.3161 
L 303.878527 135.758794 
L 304.34385 128.450292 
L 304.576511 128.538711 
L 304.809173 127.475122 
L 305.041835 150.373106 
L 305.274496 184.208128 
L 305.507158 199.630053 
L 305.739819 200.096602 
L 305.972481 196.371161 
L 306.205142 180.745055 
L 306.437804 187.01925 
L 306.670466 178.318171 
L 306.903127 174.685326 
L 307.36845 175.752904 
L 307.601112 173.820778 
L 307.833773 169.865933 
L 308.066435 169.849379 
L 308.299097 191.726081 
L 308.531758 190.595201 
L 308.76442 171.360984 
L 308.997081 172.657942 
L 309.229743 195.312282 
L 309.462404 194.003119 
L 309.695066 193.841685 
L 309.927728 175.924789 
L 310.160389 178.517306 
L 310.393051 177.400808 
L 310.625712 180.362176 
L 310.858374 179.654969 
L 311.323697 176.540457 
L 311.556359 180.680301 
L 311.78902 201.740271 
L 312.021682 203.011113 
L 312.254343 200.452845 
L 312.487005 187.513093 
L 312.719666 190.389275 
L 312.952328 165.491981 
L 313.18499 164.91777 
L 313.417651 163.159295 
L 313.650313 160.271543 
L 313.882974 160.182347 
L 314.115636 156.462956 
L 314.348297 156.832303 
L 314.580959 160.231945 
L 314.813621 160.764055 
L 315.046282 162.470306 
L 315.278944 161.266915 
L 315.511605 165.055881 
L 315.744267 183.564393 
L 315.976928 174.457797 
L 316.20959 186.244147 
L 316.442252 174.282138 
L 316.674913 176.654836 
L 316.907575 176.278623 
L 317.140236 171.384453 
L 317.372898 172.776223 
L 317.838221 178.188776 
L 318.070883 180.246292 
L 318.303544 180.433979 
L 318.536206 188.084047 
L 318.768867 190.210741 
L 319.001529 191.181915 
L 319.23419 199.230553 
L 319.466852 197.243465 
L 319.699514 193.572314 
L 319.932175 155.281148 
L 320.164837 155.71973 
L 320.63016 153.267089 
L 320.862821 152.738932 
L 321.095483 153.518459 
L 321.328145 152.762809 
L 321.560806 154.314735 
L 321.793468 151.834188 
L 322.026129 132.339039 
L 322.258791 130.961929 
L 322.491452 134.598761 
L 322.956776 169.341939 
L 323.189437 166.732583 
L 323.65476 131.957817 
L 323.887422 138.539656 
L 324.120083 138.175157 
L 324.352745 132.287663 
L 324.585407 122.794126 
L 324.818068 122.486804 
L 325.05073 124.312857 
L 325.283391 121.208202 
L 325.516053 119.806947 
L 325.748714 124.416372 
L 325.981376 143.299186 
L 326.214038 138.312817 
L 326.446699 153.75806 
L 326.679361 151.713818 
L 326.912022 160.754088 
L 327.144684 144.805573 
L 327.610007 144.359427 
L 327.842669 143.486188 
L 328.307992 148.396248 
L 328.540653 148.779701 
L 329.238638 138.722605 
L 329.4713 139.171205 
L 329.936623 152.799162 
L 330.169284 151.225761 
L 330.401946 137.909837 
L 330.634607 138.747814 
L 330.867269 153.465493 
L 331.099931 153.612797 
L 331.332592 147.827477 
L 331.565254 130.168963 
L 331.797915 130.007984 
L 332.030577 134.4931 
L 332.263238 117.456972 
L 332.4959 117.644018 
L 332.728562 114.52652 
L 332.961223 137.888437 
L 333.426546 140.630319 
L 333.891869 145.890547 
L 334.124531 163.620834 
L 334.357192 165.298067 
L 334.589854 165.763958 
L 334.822516 146.994991 
L 335.287839 152.492381 
L 335.5205 156.853134 
L 335.753162 156.026888 
L 335.985823 157.096832 
L 336.218485 160.554193 
L 336.683808 203.446582 
L 336.91647 204.488086 
L 337.149131 203.725362 
L 337.381793 206.677008 
L 337.614454 183.434526 
L 337.847116 178.080567 
L 338.079778 178.192035 
L 338.312439 174.27289 
L 338.545101 176.428392 
L 338.777762 174.638537 
L 339.010424 171.938812 
L 339.243085 170.842982 
L 339.475747 168.660362 
L 339.708409 167.950666 
L 339.94107 166.074457 
L 340.173732 166.650038 
L 340.406393 168.008272 
L 340.639055 162.972028 
L 340.871716 165.787784 
L 341.104378 124.577841 
L 341.569701 133.230854 
L 341.802363 124.133471 
L 342.267686 120.268866 
L 342.500347 124.345219 
L 342.733009 146.268587 
L 342.965671 145.554722 
L 343.198332 147.112148 
L 343.430994 146.337736 
L 343.663655 146.098865 
L 343.896317 146.728046 
L 344.128978 146.916617 
L 344.36164 149.633424 
L 344.826963 144.075554 
L 345.059625 158.884996 
L 345.292286 160.228569 
L 345.524948 162.781068 
L 345.757609 145.101823 
L 345.990271 144.133007 
L 346.222933 142.190687 
L 346.455594 119.180663 
L 346.688256 119.045593 
L 346.920917 122.649604 
L 347.153579 117.475355 
L 347.38624 116.530255 
L 347.618902 132.956184 
L 347.851564 132.546093 
L 348.084225 133.246914 
L 348.316887 120.439629 
L 348.78221 122.342763 
L 349.247533 120.994299 
L 349.480195 119.737643 
L 349.712856 127.540135 
L 350.178179 125.396709 
L 350.410841 126.911027 
L 350.643502 126.494114 
L 350.876164 126.530914 
L 351.108826 127.519359 
L 351.341487 123.214465 
L 351.574149 128.920865 
L 351.80681 120.153209 
L 352.039472 120.932779 
L 352.272133 133.614142 
L 352.737457 127.27293 
L 352.970118 113.974831 
L 353.20278 114.166345 
L 353.435441 115.30165 
L 353.668103 117.252085 
L 353.900764 117.159858 
L 354.366088 148.196286 
L 354.598749 169.921732 
L 354.831411 156.894788 
L 355.064072 159.163573 
L 355.296734 140.76924 
L 355.529395 140.135258 
L 355.762057 121.660579 
L 355.994719 119.596529 
L 356.22738 122.382632 
L 356.460042 133.642603 
L 356.692703 125.02483 
L 356.925365 120.607557 
L 357.158026 105.406676 
L 357.390688 104.084638 
L 357.62335 106.166573 
L 357.856011 106.630796 
L 358.088673 106.794865 
L 358.321334 105.821251 
L 358.553996 108.11667 
L 358.786657 102.336687 
L 359.019319 99.600537 
L 359.251981 98.773577 
L 359.484642 100.315378 
L 359.717304 103.900496 
L 359.949965 101.227518 
L 360.182627 100.41427 
L 360.880612 146.06947 
L 361.113273 132.129111 
L 361.345935 129.34498 
L 361.578596 129.647266 
L 361.811258 148.52335 
L 362.043919 153.484109 
L 362.276581 150.102129 
L 362.509243 165.787066 
L 362.741904 166.223187 
L 362.974566 168.543195 
L 363.207227 152.598663 
L 363.439889 151.204041 
L 363.905212 161.091239 
L 364.137874 159.160434 
L 364.370535 160.916181 
L 364.835858 153.294625 
L 365.06852 169.920287 
L 365.533843 130.918793 
L 365.766505 130.917723 
L 365.999166 130.421807 
L 366.231828 135.212585 
L 366.464489 135.321611 
L 366.697151 131.275704 
L 366.929812 130.451987 
L 367.162474 133.431692 
L 367.395136 156.090911 
L 367.627797 156.379147 
L 367.860459 154.357059 
L 368.09312 150.827953 
L 368.325782 152.1419 
L 368.558443 151.535488 
L 368.791105 127.732332 
L 369.023767 128.102099 
L 369.256428 122.86268 
L 369.954413 113.852922 
L 370.187074 115.340231 
L 370.419736 114.349617 
L 370.652397 109.018432 
L 370.885059 110.81978 
L 371.117721 111.379327 
L 371.350382 172.156994 
L 371.583044 169.441676 
L 371.815705 153.660011 
L 372.281028 105.904578 
L 372.51369 135.577903 
L 372.746352 131.834327 
L 372.979013 131.117955 
L 373.211675 119.848952 
L 373.444336 119.877415 
L 373.676998 102.859039 
L 373.909659 103.371102 
L 374.142321 102.069032 
L 374.374983 103.048069 
L 374.607644 108.346639 
L 375.072967 107.199308 
L 375.305629 104.48362 
L 375.53829 106.118537 
L 376.003614 103.299565 
L 376.236275 102.762603 
L 376.468937 104.363135 
L 376.701598 95.02661 
L 376.93426 93.673156 
L 377.166921 95.48497 
L 377.399583 109.695681 
L 377.632245 109.206358 
L 377.864906 106.992899 
L 378.097568 124.950681 
L 378.330229 124.522747 
L 378.562891 126.522087 
L 379.028214 97.856646 
L 379.260876 98.621285 
L 379.493537 120.925936 
L 379.726199 98.871803 
L 379.95886 101.44345 
L 380.191522 100.277712 
L 380.424183 100.70695 
L 380.656845 100.566705 
L 381.122168 103.817384 
L 381.35483 105.548296 
L 381.587491 120.31262 
L 381.820153 122.296894 
L 382.052814 121.800932 
L 382.285476 103.133319 
L 382.518138 101.101669 
L 382.750799 102.015516 
L 382.983461 101.606487 
L 383.216122 97.680027 
L 383.448784 116.821256 
L 383.681445 117.839888 
L 383.914107 117.209057 
L 384.146769 99.494002 
L 384.612092 92.634638 
L 384.844753 93.135202 
L 385.077415 94.463854 
L 385.310076 93.179629 
L 385.542738 90.52814 
L 385.7754 90.940745 
L 386.008061 92.043634 
L 386.240723 87.396397 
L 386.473384 87.391764 
L 386.706046 88.269613 
L 386.938707 87.220556 
L 387.171369 88.884307 
L 387.404031 84.133391 
L 387.636692 83.992485 
L 387.869354 83.333408 
L 388.102015 87.697293 
L 388.334677 86.797153 
L 388.567338 84.598321 
L 388.8 86.597476 
L 388.8 86.597476 
" style="fill:none;stroke:#ffa500;stroke-linecap:square;stroke-width:1.5;"/>
   </g>
   <g id="patch_3">
    <path d="M 54 252 
L 54 34.56 
" style="fill:none;stroke:#000000;stroke-linecap:square;stroke-linejoin:miter;stroke-width:0.8;"/>
   </g>
   <g id="patch_4">
    <path d="M 388.8 252 
L 388.8 34.56 
" style="fill:none;stroke:#000000;stroke-linecap:square;stroke-linejoin:miter;stroke-width:0.8;"/>
   </g>
   <g id="patch_5">
    <path d="M 54 252 
L 388.8 252 
" style="fill:none;stroke:#000000;stroke-linecap:square;stroke-linejoin:miter;stroke-width:0.8;"/>
   </g>
   <g id="patch_6">
    <path d="M 54 34.56 
L 388.8 34.56 
" style="fill:none;stroke:#000000;stroke-linecap:square;stroke-linejoin:miter;stroke-width:0.8;"/>
   </g>
   <g id="text_16">
    <!-- pp-DSS Voltage  Phase A -->
    <defs>
     <path d="M 4.890625 31.390625 
L 31.203125 31.390625 
L 31.203125 23.390625 
L 4.890625 23.390625 
z
" id="DejaVuSans-45"/>
     <path d="M 19.671875 64.796875 
L 19.671875 8.109375 
L 31.59375 8.109375 
Q 46.6875 8.109375 53.6875 14.9375 
Q 60.6875 21.78125 60.6875 36.53125 
Q 60.6875 51.171875 53.6875 57.984375 
Q 46.6875 64.796875 31.59375 64.796875 
z
M 9.8125 72.90625 
L 30.078125 72.90625 
Q 51.265625 72.90625 61.171875 64.09375 
Q 71.09375 55.28125 71.09375 36.53125 
Q 71.09375 17.671875 61.125 8.828125 
Q 51.171875 0 30.078125 0 
L 9.8125 0 
z
" id="DejaVuSans-68"/>
     <path d="M 53.515625 70.515625 
L 53.515625 60.890625 
Q 47.90625 63.578125 42.921875 64.890625 
Q 37.9375 66.21875 33.296875 66.21875 
Q 25.25 66.21875 20.875 63.09375 
Q 16.5 59.96875 16.5 54.203125 
Q 16.5 49.359375 19.40625 46.890625 
Q 22.3125 44.4375 30.421875 42.921875 
L 36.375 41.703125 
Q 47.40625 39.59375 52.65625 34.296875 
Q 57.90625 29 57.90625 20.125 
Q 57.90625 9.515625 50.796875 4.046875 
Q 43.703125 -1.421875 29.984375 -1.421875 
Q 24.8125 -1.421875 18.96875 -0.25 
Q 13.140625 0.921875 6.890625 3.21875 
L 6.890625 13.375 
Q 12.890625 10.015625 18.65625 8.296875 
Q 24.421875 6.59375 29.984375 6.59375 
Q 38.421875 6.59375 43.015625 9.90625 
Q 47.609375 13.234375 47.609375 19.390625 
Q 47.609375 24.75 44.3125 27.78125 
Q 41.015625 30.8125 33.5 32.328125 
L 27.484375 33.5 
Q 16.453125 35.6875 11.515625 40.375 
Q 6.59375 45.0625 6.59375 53.421875 
Q 6.59375 63.09375 13.40625 68.65625 
Q 20.21875 74.21875 32.171875 74.21875 
Q 37.3125 74.21875 42.625 73.28125 
Q 47.953125 72.359375 53.515625 70.515625 
z
" id="DejaVuSans-83"/>
     <path d="M 19.671875 64.796875 
L 19.671875 37.40625 
L 32.078125 37.40625 
Q 38.96875 37.40625 42.71875 40.96875 
Q 46.484375 44.53125 46.484375 51.125 
Q 46.484375 57.671875 42.71875 61.234375 
Q 38.96875 64.796875 32.078125 64.796875 
z
M 9.8125 72.90625 
L 32.078125 72.90625 
Q 44.34375 72.90625 50.609375 67.359375 
Q 56.890625 61.8125 56.890625 51.125 
Q 56.890625 40.328125 50.609375 34.8125 
Q 44.34375 29.296875 32.078125 29.296875 
L 19.671875 29.296875 
L 19.671875 0 
L 9.8125 0 
z
" id="DejaVuSans-80"/>
     <path d="M 54.890625 33.015625 
L 54.890625 0 
L 45.90625 0 
L 45.90625 32.71875 
Q 45.90625 40.484375 42.875 44.328125 
Q 39.84375 48.1875 33.796875 48.1875 
Q 26.515625 48.1875 22.3125 43.546875 
Q 18.109375 38.921875 18.109375 30.90625 
L 18.109375 0 
L 9.078125 0 
L 9.078125 75.984375 
L 18.109375 75.984375 
L 18.109375 46.1875 
Q 21.34375 51.125 25.703125 53.5625 
Q 30.078125 56 35.796875 56 
Q 45.21875 56 50.046875 50.171875 
Q 54.890625 44.34375 54.890625 33.015625 
z
" id="DejaVuSans-104"/>
     <path d="M 34.1875 63.1875 
L 20.796875 26.90625 
L 47.609375 26.90625 
z
M 28.609375 72.90625 
L 39.796875 72.90625 
L 67.578125 0 
L 57.328125 0 
L 50.6875 18.703125 
L 17.828125 18.703125 
L 11.1875 0 
L 0.78125 0 
z
" id="DejaVuSans-65"/>
    </defs>
    <g transform="translate(146.766563 28.56)scale(0.12 -0.12)">
     <use xlink:href="#DejaVuSans-112"/>
     <use x="63.476562" xlink:href="#DejaVuSans-112"/>
     <use x="126.953125" xlink:href="#DejaVuSans-45"/>
     <use x="163.037109" xlink:href="#DejaVuSans-68"/>
     <use x="240.039062" xlink:href="#DejaVuSans-83"/>
     <use x="303.515625" xlink:href="#DejaVuSans-83"/>
     <use x="366.992188" xlink:href="#DejaVuSans-32"/>
     <use x="398.779297" xlink:href="#DejaVuSans-86"/>
     <use x="467.078125" xlink:href="#DejaVuSans-111"/>
     <use x="528.259766" xlink:href="#DejaVuSans-108"/>
     <use x="556.042969" xlink:href="#DejaVuSans-116"/>
     <use x="595.251953" xlink:href="#DejaVuSans-97"/>
     <use x="656.53125" xlink:href="#DejaVuSans-103"/>
     <use x="720.007812" xlink:href="#DejaVuSans-101"/>
     <use x="781.53125" xlink:href="#DejaVuSans-32"/>
     <use x="813.318359" xlink:href="#DejaVuSans-32"/>
     <use x="845.105469" xlink:href="#DejaVuSans-80"/>
     <use x="905.408203" xlink:href="#DejaVuSans-104"/>
     <use x="968.787109" xlink:href="#DejaVuSans-97"/>
     <use x="1030.066406" xlink:href="#DejaVuSans-115"/>
     <use x="1082.166016" xlink:href="#DejaVuSans-101"/>
     <use x="1143.689453" xlink:href="#DejaVuSans-32"/>
     <use x="1175.476562" xlink:href="#DejaVuSans-65"/>
    </g>
   </g>
   <g id="legend_1">
    <g id="patch_7">
     <path d="M 61 247 
L 106.671875 247 
Q 108.671875 247 108.671875 245 
L 108.671875 216.64375 
Q 108.671875 214.64375 106.671875 214.64375 
L 61 214.64375 
Q 59 214.64375 59 216.64375 
L 59 245 
Q 59 247 61 247 
z
" style="fill:#ffffff;opacity:0.8;stroke:#cccccc;stroke-linejoin:miter;"/>
    </g>
    <g id="line2d_29">
     <path d="M 63 222.742188 
L 83 222.742188 
" style="fill:none;stroke:#008000;stroke-linecap:square;stroke-width:1.5;"/>
    </g>
    <g id="line2d_30"/>
    <g id="text_17">
     <!-- V1 -->
     <g transform="translate(91 226.242188)scale(0.1 -0.1)">
      <use xlink:href="#DejaVuSans-86"/>
      <use x="68.408203" xlink:href="#DejaVuSans-49"/>
     </g>
    </g>
    <g id="line2d_31">
     <path d="M 63 237.420312 
L 83 237.420312 
" style="fill:none;stroke:#ffa500;stroke-linecap:square;stroke-width:1.5;"/>
    </g>
    <g id="line2d_32"/>
    <g id="text_18">
     <!-- VA -->
     <g transform="translate(91 240.920312)scale(0.1 -0.1)">
      <use xlink:href="#DejaVuSans-86"/>
      <use x="68.314453" xlink:href="#DejaVuSans-65"/>
     </g>
    </g>
   </g>
  </g>
 </g>
 <defs>
  <clipPath id="p8af53c6a81">
   <rect height="217.44" width="334.8" x="54" y="34.56"/>
  </clipPath>
 </defs>
</svg>
