<svg
    xmlns="http://www.w3.org/2000/svg"
    version="1.1"
    xmlns:xlink="http://www.w3.org/1999/xlink"
    style="font-size: 10pt; overflow: visible;"
    viewBox="186.14305114746094 -335.3541259765625 243.03269958496094 141.5743865966797"
>
    <defs>
        <symbol id="path_amp">
            <g
                fill="none"
                stroke="currentStroke"
                stroke-miterlimit="10"
                stroke-width=".4"
            >
                <path
                    stroke-width="1.06267"
                    d="m.53135.53135 37.03905 20.37158-37.03905 20.37157Z"
                />
            </g>
        </symbol>
        <symbol id="node_fourport">
            <g
                fill="none"
                stroke="currentStroke"
                stroke-miterlimit="10"
                stroke-width=".4"
            >
                <path
                    stroke-width="1.06267"
                    d="M.53135.53135h68.7872v68.7872h-68.78721Z"
                />
            </g>
        </symbol>
        <symbol id="node_circ">
            <g
                stroke="currentStroke"
                stroke-miterlimit="10"
                stroke-width=".53134"
            >
                <path
                    d="M4.49803 2.38186c0-1.16874-.94744-2.11617-2.11617-2.11617s-2.11617.94743-2.11617 2.11617.94743 2.11617 2.11617 2.11617 2.11617-.94744 2.11617-2.11617Zm-2.11617 0"
                    fill="currentColor"
                />
            </g>
        </symbol>
    </defs>
    <g style="" class="">
        <use
            xlink:href="#path_amp"
            fill="#fff"
            stroke="#000"
            style="color: #000;"
            transform="matrix(1,0,0,1,283.31133472440945,-323.26513472440945)"
        />
        <line
            x1="264.56692913385825"
            y1="-302.3622047244094"
            x2="283.8426847244094"
            y2="-302.3622047244094"
            fill="none"
            stroke-width="0.5"
            stroke="#000"
        />
        <line
            x1="340.1574803149606"
            y1="-302.3622047244094"
            x2="320.88173472440945"
            y2="-302.3622047244094"
            fill="none"
            stroke-width="0.5"
            stroke="#000"
        />
    </g>
    <g style="" class="">
        <use
            xlink:href="#path_amp"
            fill="#fff"
            stroke="#000"
            style="color: #000;"
            transform="matrix(1,0,0,1,283.31133472440945,-247.67458354330708)"
        />
        <line
            x1="264.56692913385825"
            y1="-226.77165354330708"
            x2="283.8426847244094"
            y2="-226.77165354330708"
            fill="none"
            stroke-width="0.5"
            stroke="#000"
        />
        <line
            x1="340.1574803149606"
            y1="-226.77165354330708"
            x2="320.88173472440945"
            y2="-226.77165354330708"
            fill="none"
            stroke-width="0.5"
            stroke="#000"
        />
    </g>
    <g class="">
        <use
            xlink:href="#node_fourport"
            fill="#fff"
            stroke="#000"
            style="color: #000;"
            transform="matrix(2,0,0,2,232.51230472440943,-334.41682913385824)"
            class=""
        />
    </g>
    <g class="">
        <polyline
            points="340.1574803149606,-302.3622047244094 371.14940472440946,-302.3622047244094 371.14940472440946,-298.96052913385824"
            fill="none"
            stroke-dasharray="0.4pt 0pt"
            stroke-opacity="1"
            stroke-width="0.5333333333333333"
            stroke="#000"
        />
    </g>
    <g class="">
        <polyline
            points="340.1574803149606,-226.77165354330708 371.14940472440946,-226.77165354330708 371.14940472440946,-230.17332913385823"
            fill="none"
            stroke-dasharray="0.4pt 0pt"
            stroke-opacity="1"
            stroke-width="0.5333333333333333"
            stroke="#000"
        />
    </g>
    <g class="">
        <polyline
            points="264.56692913385825,-302.3622047244094 264.56692913385825,-226.77165354330708"
            fill="none"
            stroke-dasharray="0.4pt 0pt"
            stroke-opacity="1"
            stroke-width="0.5333333333333333"
            stroke="#000"
        />
    </g>
    <g class="">
        <use
            xlink:href="#node_circ"
            fill="#fff"
            stroke="#000"
            style="color: #000;"
            transform="matrix(1,0,0,1,262.18506913385824,-266.94878913385827)"
        />
    </g>
    <g class="">
        <polyline
            points="264.56692913385825,-264.56692913385825 188.97637795275588,-264.56692913385825"
            fill="none"
            stroke-dasharray="0.4pt 0pt"
            stroke-opacity="1"
            stroke-width="0.5333333333333333"
            stroke="#000"
        />
    </g>
    <g class="">
        <polyline
            points="371.14940472440946,-302.3622047244094 415.74803149606294,-302.3622047244094"
            fill="none"
            stroke-dasharray="0.4pt 0pt"
            stroke-opacity="1"
            stroke-width="0.5333333333333333"
            stroke="#000"
        />
    </g>
    <g class="">
        <polyline
            points="371.14940472440946,-226.77165354330708 415.74803149606294,-226.77165354330708"
            fill="none"
            stroke-dasharray="0.4pt 0pt"
            stroke-opacity="1"
            stroke-width="0.5333333333333333"
            stroke="#000"
        />
    </g>
    <g class="">
        <rect
            width="55.35958005249339"
            height="8.115485564304473"
            style=""
            stroke-dasharray="1pt 4pt"
            stroke-opacity="0"
            stroke-width="0"
            stroke="#000"
            fill-opacity="1"
            fill="none"
            x="0.6666666666666679"
            y="0.666666666666667"
            transform="matrix(1,0,0,1,311.81102362204723,-316.53543307086613)"
        />
        <g
            transform="matrix(1,0,0,1,0,0)"
            style="pointer-events: none;"
            class=""
        >
            <g
                fill="#000"
                transform="matrix(1,0,0,1,319.81102362204723,-311.81102362204723)"
            />
            <g
                fill="#000"
                transform="matrix(1,0,0,1,319.81102362204723,-311.81102362204723)"
            >
                <path
                    d="M0.43 0.66L0.43 0.66L0.43 0.25L2.39 0.10L2.39 4.53Q2.39 4.85 2.42 5.04Q2.44 5.22 2.55 5.44Q2.66 5.65 2.91 5.75Q3.16 5.85 3.56 5.85L3.56 5.85Q4.28 5.85 4.73 5.25Q5.18 4.66 5.18 3.78L5.18 3.78L5.18 1.41Q5.18 0.91 5 0.79Q4.82 0.66 4.13 0.66L4.13 0.66L4.13 0.25L6.09 0.10L6.09 4.84Q6.09 5.33 6.27 5.46Q6.44 5.59 7.14 5.59L7.14 5.59L7.14 6.00L5.21 6.15L5.21 4.94Q4.65 6.14 3.50 6.15L3.50 6.15Q2.91 6.15 2.51 6.00Q2.11 5.85 1.91 5.66Q1.71 5.47 1.60 5.12Q1.49 4.76 1.48 4.54Q1.46 4.32 1.46 3.89L1.46 3.89L1.46 1.89Q1.46 0.98 1.33 0.82Q1.20 0.66 0.43 0.66ZM7.77 8.58L7.77 8.17Q8.48 8.17 8.64 8.08Q8.81 7.99 8.81 7.57L8.81 7.57L8.81 1.33Q8.81 0.89 8.64 0.77Q8.48 0.66 7.77 0.66L7.77 0.66L7.77 0.25L9.69 0.10L9.69 0.98Q10.49 0.10 11.56 0.10L11.56 0.10Q12.69 0.10 13.52 0.98Q14.34 1.86 14.34 3.12L14.34 3.12Q14.34 4.39 13.46 5.27Q12.58 6.15 11.37 6.15L11.37 6.15Q10.70 6.15 10.26 5.80Q9.81 5.46 9.73 5.21L9.73 5.21L9.73 5.33L9.73 7.57Q9.73 8.00 9.90 8.09Q10.07 8.17 10.77 8.17L10.77 8.17L10.77 8.58Q9.37 8.54 9.26 8.54L9.26 8.54Q9.13 8.54 7.77 8.58L7.77 8.58ZM9.73 1.50L9.73 4.48Q9.73 4.68 9.76 4.75Q9.79 4.82 9.92 5.04L9.92 5.04Q10.44 5.85 11.30 5.85L11.30 5.85Q11.31 5.85 11.32 5.85L11.32 5.85Q12.08 5.85 12.66 5.07Q13.24 4.29 13.24 3.12L13.24 3.12Q13.24 2.00 12.71 1.22Q12.18 0.44 11.45 0.44L11.45 0.44Q10.93 0.44 10.48 0.72Q10.02 1.00 9.73 1.50L9.73 1.50ZM15.16 8.58L15.16 8.17Q15.87 8.17 16.04 8.08Q16.20 7.99 16.20 7.57L16.20 7.57L16.20 1.33Q16.20 0.89 16.04 0.77Q15.87 0.66 15.16 0.66L15.16 0.66L15.16 0.25L17.08 0.10L17.08 0.98Q17.88 0.10 18.95 0.10L18.95 0.10Q20.08 0.10 20.91 0.98Q21.74 1.86 21.74 3.12L21.74 3.12Q21.74 4.39 20.86 5.27Q19.98 6.15 18.76 6.15L18.76 6.15Q18.10 6.15 17.65 5.80Q17.21 5.46 17.12 5.21L17.12 5.21L17.12 5.33L17.12 7.57Q17.12 8.00 17.29 8.09Q17.46 8.17 18.16 8.17L18.16 8.17L18.16 8.58Q16.76 8.54 16.66 8.54L16.66 8.54Q16.53 8.54 15.16 8.58L15.16 8.58ZM17.12 1.50L17.12 4.48Q17.12 4.68 17.15 4.75Q17.18 4.82 17.31 5.04L17.31 5.04Q17.84 5.85 18.70 5.85L18.70 5.85Q18.70 5.85 18.71 5.85L18.71 5.85Q19.47 5.85 20.05 5.07Q20.63 4.29 20.63 3.12L20.63 3.12Q20.63 2.00 20.10 1.22Q19.58 0.44 18.85 0.44L18.85 0.44Q18.33 0.44 17.87 0.72Q17.42 1.00 17.12 1.50L17.12 1.50ZM22.56 3.06L22.56 3.06Q22.56 1.80 23.37 0.91Q24.17 0.02 25.33 0.02L25.33 0.02Q26.50 0.02 27.11 0.78Q27.72 1.54 27.72 2.64L27.72 2.64Q27.72 2.84 27.67 2.88Q27.62 2.92 27.39 2.92L27.39 2.92L23.67 2.92Q23.67 4.28 24.07 4.92L24.07 4.92Q24.63 5.81 25.57 5.81L25.57 5.81Q25.70 5.81 25.86 5.78Q26.02 5.75 26.33 5.64Q26.65 5.53 26.93 5.22Q27.21 4.92 27.38 4.43L27.38 4.43Q27.42 4.24 27.55 4.25L27.55 4.25Q27.72 4.25 27.72 4.41L27.72 4.41Q27.72 4.52 27.59 4.79Q27.47 5.05 27.23 5.36Q26.99 5.68 26.52 5.91Q26.05 6.15 25.49 6.15L25.49 6.15Q24.32 6.15 23.44 5.26Q22.56 4.37 22.56 3.06ZM23.68 2.64L23.68 2.64L26.84 2.64Q26.84 2.36 26.79 2.04Q26.74 1.73 26.60 1.30Q26.46 0.87 26.14 0.59Q25.81 0.32 25.33 0.32L25.33 0.32Q25.12 0.32 24.89 0.41Q24.65 0.50 24.38 0.72Q24.10 0.94 23.90 1.44Q23.70 1.95 23.68 2.64ZM28.48 6.00L28.48 6.00L28.48 5.59Q29.19 5.59 29.35 5.50Q29.52 5.41 29.52 4.98L29.52 4.98L29.52 1.41Q29.52 0.91 29.35 0.79Q29.17 0.66 28.48 0.66L28.48 0.66L28.48 0.25L30.33 0.10L30.33 1.57Q30.52 1.00 30.92 0.55Q31.32 0.10 31.97 0.10L31.97 0.10Q32.40 0.10 32.68 0.34Q32.96 0.59 32.96 0.92L32.96 0.92Q32.96 1.21 32.78 1.36Q32.60 1.50 32.38 1.50L32.38 1.50Q32.14 1.50 31.98 1.35Q31.81 1.20 31.81 0.93L31.81 0.93Q31.81 0.77 31.88 0.64Q31.96 0.51 32.02 0.47Q32.08 0.42 32.12 0.41L32.12 0.41Q32.09 0.40 31.97 0.40L31.97 0.40Q31.24 0.40 30.82 1.13Q30.40 1.86 30.40 2.90L30.40 2.90L30.40 4.95Q30.40 5.34 30.56 5.46Q30.72 5.59 31.41 5.59L31.41 5.59L31.69 5.59L31.69 6.00Q31.16 5.96 30 5.96L30 5.96Q29.84 5.96 29.58 5.96Q29.33 5.97 29.00 5.98Q28.67 6.00 28.48 6.00Z"
                />
                <path
                    d="M0.25 14.86L0.25 14.86L0.25 14.44Q1.69 14.48 1.95 14.48L1.95 14.48Q3.37 14.48 3.85 14.44L3.85 14.44L3.85 14.86Q2.76 14.86 2.76 15.24L2.76 15.24Q2.76 15.29 2.84 15.48L2.84 15.48L5.38 22.21L7.83 15.79Q7.89 15.59 7.89 15.52L7.89 15.52Q7.89 15.25 7.65 15.06Q7.40 14.87 6.92 14.86L6.92 14.86L6.92 14.44Q7.96 14.48 8.44 14.48L8.44 14.48Q9.11 14.48 9.73 14.44L9.73 14.44L9.73 14.86Q8.61 14.87 8.28 15.75L8.28 15.75L5.31 23.59Q5.25 23.75 5.20 23.79Q5.15 23.84 4.99 23.84L4.99 23.84Q4.86 23.84 4.79 23.79Q4.72 23.74 4.65 23.55L4.65 23.55L1.56 15.36Q1.43 15.01 1.20 14.93Q0.96 14.86 0.25 14.86ZM10.75 23.52L10.75 23.52L10.75 20.85Q10.75 20.70 10.76 20.65Q10.76 20.60 10.80 20.56Q10.84 20.52 10.92 20.52L10.92 20.52Q11.07 20.52 11.08 20.66L11.08 20.66Q11.12 21.98 11.91 22.71L11.91 22.71Q12.68 23.43 14.01 23.43L14.01 23.43Q14.81 23.43 15.31 22.85Q15.80 22.28 15.80 21.52L15.80 21.52Q15.80 20.80 15.38 20.29L15.38 20.29Q15.21 20.06 14.99 19.92Q14.77 19.77 14.64 19.73Q14.51 19.68 14.25 19.62L14.25 19.62Q12.60 19.22 12.49 19.17L12.49 19.17Q11.71 18.91 11.23 18.23Q10.75 17.56 10.75 16.73L10.75 16.73Q10.75 15.66 11.50 14.90Q12.25 14.15 13.35 14.15L13.35 14.15Q13.89 14.15 14.35 14.32Q14.81 14.49 15 14.65Q15.19 14.80 15.48 15.08L15.48 15.08L15.94 14.32Q16.05 14.15 16.15 14.15L16.15 14.15Q16.25 14.15 16.27 14.21Q16.30 14.27 16.30 14.47L16.30 14.47L16.30 17.15Q16.30 17.30 16.29 17.35Q16.28 17.40 16.24 17.43Q16.20 17.47 16.12 17.47L16.12 17.47Q15.99 17.47 15.96 17.31L15.96 17.31Q15.59 14.52 13.36 14.52L13.36 14.52Q12.60 14.52 12.10 15.03Q11.60 15.55 11.60 16.27L11.60 16.27Q11.60 16.85 11.97 17.33Q12.33 17.81 12.95 17.96L12.95 17.96L14.65 18.37Q15.51 18.57 16.08 19.33Q16.65 20.08 16.65 21.07L16.65 21.07Q16.65 22.20 15.91 23.02Q15.18 23.84 14.02 23.84L14.02 23.84Q13.20 23.84 12.56 23.57Q11.92 23.29 11.58 22.91L11.58 22.91Q11.31 23.35 11.13 23.60L11.13 23.60L11.09 23.66Q10.99 23.84 10.89 23.84L10.89 23.84Q10.79 23.84 10.77 23.78Q10.75 23.71 10.75 23.52ZM18.14 18.99L18.14 18.99Q18.14 16.98 19.52 15.56Q20.89 14.15 22.78 14.15L22.78 14.15Q23.37 14.15 23.89 14.36Q24.41 14.58 24.65 14.76Q24.89 14.95 25.23 15.29L25.23 15.29L25.90 14.31Q26.01 14.15 26.12 14.15Q26.22 14.15 26.24 14.21Q26.26 14.27 26.26 14.47L26.26 14.47L26.26 17.63Q26.26 17.84 26.24 17.90Q26.21 17.95 26.05 17.95L26.05 17.95Q25.92 17.95 25.89 17.91Q25.86 17.87 25.83 17.72L25.83 17.72Q25.63 16.28 24.83 15.42Q24.04 14.56 22.93 14.56L22.93 14.56Q22.61 14.56 22.26 14.63Q21.90 14.71 21.39 14.98Q20.88 15.25 20.49 15.71Q20.09 16.16 19.80 17.01Q19.52 17.87 19.52 19.00L19.52 19.00Q19.52 20.12 19.80 20.98Q20.09 21.84 20.49 22.29Q20.88 22.73 21.39 23.01Q21.90 23.28 22.26 23.36Q22.62 23.43 22.94 23.43L22.94 23.43Q24.09 23.43 24.97 22.62Q25.85 21.80 25.93 20.43L25.93 20.43Q25.94 20.36 25.94 20.33Q25.94 20.31 25.96 20.27Q25.97 20.24 26.00 20.23Q26.04 20.21 26.09 20.21L26.09 20.21Q26.26 20.21 26.26 20.44L26.26 20.44Q26.26 21.71 25.29 22.78Q24.32 23.84 22.78 23.84L22.78 23.84Q20.89 23.84 19.51 22.43Q18.14 21.03 18.14 18.99Z"
                />
            </g>
        </g>
    </g>
    <g class="">
        <rect
            width="55.35966666666666"
            height="8.115666666666666"
            style=""
            x="0.6666666666666679"
            y="0.666666666666667"
            transform="matrix(1,0,0,1,311.8109803149606,-243.44497244094487)"
            stroke-dasharray="1pt 0pt"
            stroke-opacity="0"
            stroke-width="0"
            stroke="#000"
            fill-opacity="1"
            fill="none"
        />
        <g
            transform="matrix(1,0,0,1,0,0)"
            style="pointer-events: none;"
            class=""
        >
            <g
                fill="#000"
                transform="matrix(1,0,0,1,319.8109803149606,-238.72047244094486)"
            />
            <g
                fill="#000"
                transform="matrix(1,0,0,1,319.8109803149606,-238.72047244094486)"
            >
                <path
                    d="M0.44 9.29L0.44 9.29L0.44 8.88Q1.15 8.88 1.32 8.79Q1.48 8.70 1.48 8.27L1.48 8.27L1.48 1.34Q1.48 0.84 1.31 0.72Q1.13 0.60 0.44 0.60L0.44 0.60L0.44 0.18L2.36 0.04L2.36 8.27Q2.36 8.70 2.53 8.79Q2.70 8.88 3.40 8.88L3.40 8.88L3.40 9.29Q3.24 9.29 2.90 9.28Q2.56 9.26 2.31 9.26Q2.06 9.25 1.92 9.25L1.92 9.25Q1.76 9.25 0.44 9.29ZM4.94 8.57Q4.06 7.70 4.06 6.43Q4.06 5.17 4.93 4.24Q5.79 3.31 7.02 3.31L7.02 3.31Q8.24 3.31 9.10 4.23Q9.97 5.15 9.97 6.44L9.97 6.44Q9.97 7.69 9.10 8.57Q8.22 9.44 7.01 9.44L7.01 9.44Q5.83 9.44 4.94 8.57ZM5.17 6.33L5.17 6.33Q5.17 7.62 5.51 8.21L5.51 8.21Q6.03 9.10 7.02 9.10L7.02 9.10Q7.52 9.10 7.93 8.83Q8.35 8.57 8.57 8.12L8.57 8.12Q8.87 7.53 8.87 6.33L8.87 6.33Q8.87 5.04 8.52 4.48L8.52 4.48Q7.99 3.61 7.01 3.61L7.01 3.61Q6.58 3.61 6.16 3.84Q5.74 4.06 5.49 4.50L5.49 4.50Q5.17 5.09 5.17 6.33ZM10.60 3.96L10.60 3.96L10.60 3.54Q11.32 3.58 11.84 3.58L11.84 3.58Q12.09 3.58 13.29 3.54L13.29 3.54L13.29 3.96Q12.51 3.96 12.51 4.31L12.51 4.31Q12.51 4.39 12.57 4.55L12.57 4.55L13.84 8.12L14.99 4.89Q14.75 4.24 14.68 4.16L14.68 4.16Q14.52 3.96 13.84 3.96L13.84 3.96L13.84 3.54Q14.44 3.58 15.03 3.58L15.03 3.58Q15.25 3.58 16.41 3.54L16.41 3.54L16.41 3.96Q15.63 3.96 15.63 4.31L15.63 4.31Q15.63 4.37 15.69 4.57L15.69 4.57L17.01 8.29L18.22 4.87Q18.29 4.70 18.29 4.59L18.29 4.59Q18.29 4.30 18.09 4.14Q17.88 3.97 17.52 3.96L17.52 3.96L17.52 3.54Q18.28 3.58 18.76 3.58L18.76 3.58Q19.29 3.58 19.73 3.54L19.73 3.54L19.73 3.96Q18.91 3.98 18.61 4.81L18.61 4.81L17.05 9.18Q16.90 9.42 16.78 9.44L16.78 9.44Q16.61 9.44 16.52 9.18L16.52 9.18L15.16 5.39L13.81 9.17Q13.76 9.33 13.71 9.39Q13.67 9.44 13.54 9.44Q13.42 9.44 13.37 9.37Q13.32 9.30 13.26 9.14L13.26 9.14L11.58 4.42Q11.46 4.11 11.29 4.03Q11.12 3.96 10.60 3.96ZM20.35 6.35L20.35 6.35Q20.35 5.10 21.16 4.20Q21.97 3.31 23.13 3.31L23.13 3.31Q24.30 3.31 24.91 4.07Q25.51 4.83 25.51 5.93L25.51 5.93Q25.51 6.13 25.46 6.17Q25.41 6.21 25.18 6.21L25.18 6.21L21.46 6.21Q21.46 7.57 21.86 8.21L21.86 8.21Q22.42 9.10 23.37 9.10L23.37 9.10Q23.50 9.10 23.65 9.07Q23.81 9.05 24.13 8.93Q24.45 8.82 24.73 8.51Q25.01 8.21 25.17 7.73L25.17 7.73Q25.21 7.54 25.34 7.54L25.34 7.54Q25.51 7.54 25.51 7.70L25.51 7.70Q25.51 7.82 25.39 8.08Q25.26 8.34 25.02 8.66Q24.78 8.97 24.31 9.20Q23.85 9.44 23.29 9.44L23.29 9.44Q22.12 9.44 21.23 8.55Q20.35 7.66 20.35 6.35ZM21.47 5.93L21.47 5.93L24.64 5.93Q24.64 5.65 24.59 5.34Q24.54 5.02 24.40 4.59Q24.26 4.16 23.93 3.88Q23.61 3.61 23.13 3.61L23.13 3.61Q22.91 3.61 22.68 3.70Q22.45 3.79 22.17 4.01Q21.89 4.24 21.69 4.74Q21.50 5.24 21.47 5.93ZM26.27 9.29L26.27 9.29L26.27 8.88Q26.98 8.88 27.15 8.79Q27.31 8.70 27.31 8.27L27.31 8.27L27.31 4.70Q27.31 4.20 27.14 4.08Q26.97 3.96 26.27 3.96L26.27 3.96L26.27 3.54L28.13 3.40L28.13 4.86Q28.31 4.29 28.71 3.84Q29.11 3.40 29.77 3.40L29.77 3.40Q30.20 3.40 30.47 3.64Q30.75 3.88 30.75 4.21L30.75 4.21Q30.75 4.50 30.57 4.65Q30.39 4.80 30.18 4.80L30.18 4.80Q29.93 4.80 29.77 4.64Q29.60 4.49 29.60 4.22L29.60 4.22Q29.60 4.06 29.68 3.93Q29.75 3.81 29.81 3.76Q29.87 3.72 29.91 3.70L29.91 3.70Q29.88 3.69 29.77 3.69L29.77 3.69Q29.03 3.69 28.61 4.42Q28.19 5.15 28.19 6.20L28.19 6.20L28.19 8.25Q28.19 8.63 28.35 8.75Q28.51 8.88 29.21 8.88L29.21 8.88L29.49 8.88L29.49 9.29Q28.95 9.25 27.79 9.25L27.79 9.25Q27.63 9.25 27.38 9.26Q27.12 9.26 26.79 9.28Q26.46 9.29 26.27 9.29Z"
                />
                <path
                    d="M0.25 18.15L0.25 18.15L0.25 17.73Q1.69 17.77 1.95 17.77L1.95 17.77Q3.37 17.77 3.85 17.73L3.85 17.73L3.85 18.15Q2.76 18.15 2.76 18.53L2.76 18.53Q2.76 18.58 2.84 18.77L2.84 18.77L5.38 25.51L7.83 19.08Q7.89 18.88 7.89 18.81L7.89 18.81Q7.89 18.55 7.65 18.35Q7.40 18.16 6.92 18.15L6.92 18.15L6.92 17.73Q7.96 17.77 8.44 17.77L8.44 17.77Q9.11 17.77 9.73 17.73L9.73 17.73L9.73 18.15Q8.61 18.16 8.28 19.04L8.28 19.04L5.31 26.88Q5.25 27.04 5.20 27.09Q5.15 27.13 4.99 27.13L4.99 27.13Q4.86 27.13 4.79 27.08Q4.72 27.03 4.65 26.84L4.65 26.84L1.56 18.66Q1.43 18.30 1.20 18.22Q0.96 18.15 0.25 18.15ZM10.75 26.81L10.75 26.81L10.75 24.14Q10.75 23.99 10.76 23.94Q10.76 23.89 10.80 23.85Q10.84 23.81 10.92 23.81L10.92 23.81Q11.07 23.81 11.08 23.95L11.08 23.95Q11.12 25.27 11.91 26.00L11.91 26.00Q12.68 26.72 14.01 26.72L14.01 26.72Q14.81 26.72 15.31 26.15Q15.80 25.57 15.80 24.81L15.80 24.81Q15.80 24.09 15.38 23.58L15.38 23.58Q15.21 23.36 14.99 23.21Q14.77 23.06 14.64 23.02Q14.51 22.97 14.25 22.91L14.25 22.91Q12.60 22.51 12.49 22.46L12.49 22.46Q11.71 22.20 11.23 21.52Q10.75 20.85 10.75 20.02L10.75 20.02Q10.75 18.96 11.50 18.20Q12.25 17.44 13.35 17.44L13.35 17.44Q13.89 17.44 14.35 17.61Q14.81 17.78 15 17.94Q15.19 18.10 15.48 18.38L15.48 18.38L15.94 17.61Q16.05 17.44 16.15 17.44L16.15 17.44Q16.25 17.44 16.27 17.50Q16.30 17.56 16.30 17.76L16.30 17.76L16.30 20.44Q16.30 20.59 16.29 20.64Q16.28 20.69 16.24 20.73Q16.20 20.76 16.12 20.76L16.12 20.76Q15.99 20.76 15.96 20.60L15.96 20.60Q15.59 17.82 13.36 17.82L13.36 17.82Q12.60 17.82 12.10 18.33Q11.60 18.84 11.60 19.56L11.60 19.56Q11.60 20.15 11.97 20.63Q12.33 21.10 12.95 21.25L12.95 21.25L14.65 21.66Q15.51 21.87 16.08 22.62Q16.65 23.38 16.65 24.36L16.65 24.36Q16.65 25.49 15.91 26.31Q15.18 27.13 14.02 27.13L14.02 27.13Q13.20 27.13 12.56 26.86Q11.92 26.59 11.58 26.20L11.58 26.20Q11.31 26.64 11.13 26.89L11.13 26.89L11.09 26.96Q10.99 27.13 10.89 27.13L10.89 27.13Q10.79 27.13 10.77 27.07Q10.75 27.00 10.75 26.81ZM18.14 22.28L18.14 22.28Q18.14 20.27 19.52 18.85Q20.89 17.44 22.78 17.44L22.78 17.44Q23.37 17.44 23.89 17.65Q24.41 17.87 24.65 18.05Q24.89 18.24 25.23 18.58L25.23 18.58L25.90 17.60Q26.01 17.44 26.12 17.44Q26.22 17.44 26.24 17.50Q26.26 17.56 26.26 17.76L26.26 17.76L26.26 20.92Q26.26 21.14 26.24 21.19Q26.21 21.24 26.05 21.24L26.05 21.24Q25.92 21.24 25.89 21.20Q25.86 21.16 25.83 21.01L25.83 21.01Q25.63 19.57 24.83 18.71Q24.04 17.86 22.93 17.86L22.93 17.86Q22.61 17.86 22.26 17.93Q21.90 18.00 21.39 18.27Q20.88 18.55 20.49 19.00Q20.09 19.45 19.80 20.31Q19.52 21.16 19.52 22.30L19.52 22.30Q19.52 23.42 19.80 24.27Q20.09 25.13 20.49 25.58Q20.88 26.03 21.39 26.30Q21.90 26.57 22.26 26.65Q22.62 26.72 22.94 26.72L22.94 26.72Q24.09 26.72 24.97 25.91Q25.85 25.09 25.93 23.72L25.93 23.72Q25.94 23.66 25.94 23.63Q25.94 23.60 25.96 23.56Q25.97 23.53 26.00 23.52Q26.04 23.51 26.09 23.51L26.09 23.51Q26.26 23.51 26.26 23.73L26.26 23.73Q26.26 25.00 25.29 26.07Q24.32 27.13 22.78 27.13L22.78 27.13Q20.89 27.13 19.51 25.73Q18.14 24.32 18.14 22.28Z"
                />
            </g>
        </g>
    </g>
    <g class="">
        <rect
            width="55.35958005249345"
            height="17.56430446194228"
            style=""
            stroke-dasharray="1pt 4pt"
            stroke-opacity="0"
            stroke-width="0"
            stroke="#000"
            fill-opacity="1"
            fill="none"
            x="0.6666666666666679"
            y="0.6666666666666661"
            transform="matrix(1,0,0,1,371.14940472440946,-324.25984251968504)"
        />
        <g
            transform="matrix(1,0,0,1,0,0)"
            style="pointer-events: none;"
            class=""
        >
            <g
                fill="#000"
                transform="matrix(1,0,0,1,379.14940472440946,-316.25984251968504)"
            />
            <g
                fill="#000"
                transform="matrix(1,0,0,1,379.14940472440946,-316.25984251968504)"
            >
                <path
                    d="M5.35 9.44L0.47 9.44L0.47 9.03L0.79 9.03Q1.51 9.03 1.68 8.90Q1.84 8.78 1.84 8.39L1.84 8.39L1.84 1.37Q1.84 0.98 1.67 0.86Q1.50 0.74 0.79 0.74L0.79 0.74L0.47 0.74L0.47 0.33L5.35 0.33Q7.05 0.33 8.24 1.69Q9.43 3.05 9.43 4.96L9.43 4.96Q9.43 6.82 8.23 8.13Q7.04 9.44 5.35 9.44L5.35 9.44ZM2.99 1.28L2.99 8.49Q2.99 8.84 3.09 8.93Q3.18 9.03 3.64 9.03L3.64 9.03L4.99 9.03Q5.87 9.03 6.46 8.66Q7.05 8.30 7.36 7.89L7.36 7.89Q8.09 6.88 8.09 4.96L8.09 4.96Q8.09 2.93 7.40 1.98L7.40 1.98Q6.51 0.74 4.97 0.74L4.97 0.74L3.64 0.74Q3.18 0.74 3.09 0.83Q2.99 0.93 2.99 1.28L2.99 1.28ZM10.92 4.88L10.92 4.88Q10.92 2.87 12.29 1.45Q13.67 0.03 15.55 0.03L15.55 0.03Q16.14 0.03 16.66 0.25Q17.18 0.46 17.42 0.65Q17.66 0.83 18.01 1.18L18.01 1.18L18.68 0.20Q18.78 0.03 18.89 0.03Q19.00 0.03 19.02 0.10Q19.04 0.16 19.04 0.35L19.04 0.35L19.04 3.52Q19.04 3.73 19.01 3.78Q18.98 3.84 18.82 3.84L18.82 3.84Q18.69 3.84 18.66 3.80Q18.63 3.76 18.61 3.61L18.61 3.61Q18.40 2.17 17.61 1.31Q16.81 0.45 15.70 0.45L15.70 0.45Q15.38 0.45 15.03 0.52Q14.67 0.59 14.16 0.87Q13.65 1.14 13.26 1.59Q12.86 2.05 12.58 2.90Q12.29 3.76 12.29 4.89L12.29 4.89Q12.29 6.01 12.58 6.87Q12.86 7.73 13.26 8.18Q13.65 8.62 14.16 8.89Q14.67 9.17 15.04 9.24Q15.40 9.32 15.72 9.32L15.72 9.32Q16.86 9.32 17.74 8.50Q18.62 7.69 18.70 6.32L18.70 6.32Q18.72 6.25 18.72 6.22Q18.72 6.19 18.73 6.16Q18.74 6.13 18.78 6.11Q18.81 6.10 18.86 6.10L18.86 6.10Q19.04 6.10 19.04 6.33L19.04 6.33Q19.04 7.60 18.06 8.66Q17.09 9.73 15.55 9.73L15.55 9.73Q13.66 9.73 12.29 8.32Q10.92 6.92 10.92 4.88Z"
                />
                <path
                    d="M0.37 29.42L0.37 29.01Q1.08 29.01 1.25 28.93Q1.41 28.84 1.41 28.42L1.41 28.42L1.41 22.17Q1.41 21.73 1.25 21.62Q1.08 21.51 0.37 21.51L0.37 21.51L0.37 21.09L2.29 20.95L2.29 21.83Q3.09 20.95 4.16 20.95L4.16 20.95Q5.29 20.95 6.12 21.83Q6.95 22.71 6.95 23.96L6.95 23.96Q6.95 25.23 6.07 26.11Q5.19 26.99 3.97 26.99L3.97 26.99Q3.31 26.99 2.86 26.65Q2.42 26.31 2.33 26.05L2.33 26.05L2.33 26.18L2.33 28.42Q2.33 28.84 2.50 28.93Q2.67 29.01 3.37 29.01L3.37 29.01L3.37 29.42Q1.97 29.39 1.87 29.39L1.87 29.39Q1.74 29.39 0.37 29.42L0.37 29.42ZM2.33 22.35L2.33 25.32Q2.33 25.52 2.36 25.60Q2.39 25.67 2.52 25.88L2.52 25.88Q3.05 26.69 3.91 26.69L3.91 26.69Q3.91 26.69 3.92 26.69L3.92 26.69Q4.68 26.69 5.26 25.91Q5.84 25.13 5.84 23.96L5.84 23.96Q5.84 22.84 5.31 22.06Q4.79 21.28 4.06 21.28L4.06 21.28Q3.54 21.28 3.08 21.56Q2.62 21.84 2.33 22.35L2.33 22.35ZM7.84 26.84L7.84 26.84L7.84 26.43Q8.55 26.43 8.71 26.34Q8.87 26.25 8.87 25.82L8.87 25.82L8.87 18.89Q8.87 18.40 8.70 18.27Q8.53 18.15 7.84 18.15L7.84 18.15L7.84 17.73L9.75 17.59L9.75 25.82Q9.75 26.25 9.92 26.34Q10.09 26.43 10.79 26.43L10.79 26.43L10.79 26.84Q10.63 26.84 10.29 26.83Q9.95 26.81 9.71 26.81Q9.46 26.80 9.32 26.80L9.32 26.80Q9.16 26.80 7.84 26.84ZM11.52 21.51L11.52 21.51L11.52 21.09L13.48 20.95L13.48 25.37Q13.48 25.69 13.50 25.88Q13.53 26.06 13.64 26.28Q13.74 26.49 13.99 26.59Q14.24 26.69 14.65 26.69L14.65 26.69Q15.37 26.69 15.82 26.10Q16.26 25.51 16.26 24.63L16.26 24.63L16.26 22.25Q16.26 21.76 16.09 21.63Q15.91 21.51 15.22 21.51L15.22 21.51L15.22 21.09L17.18 20.95L17.18 25.68Q17.18 26.18 17.35 26.30Q17.53 26.43 18.22 26.43L18.22 26.43L18.22 26.84L16.30 26.99L16.30 25.78Q15.74 26.98 14.58 26.99L14.58 26.99Q14.00 26.99 13.60 26.84Q13.20 26.69 12.99 26.50Q12.79 26.32 12.69 25.96Q12.58 25.60 12.57 25.38Q12.55 25.16 12.55 24.73L12.55 24.73L12.55 22.73Q12.55 21.83 12.42 21.67Q12.29 21.51 11.52 21.51ZM18.93 26.66L18.93 26.66L18.93 24.91Q18.93 24.76 18.93 24.70Q18.94 24.65 18.98 24.61Q19.02 24.57 19.10 24.57L19.10 24.57Q19.19 24.57 19.22 24.61Q19.26 24.65 19.28 24.80L19.28 24.80Q19.49 25.72 19.92 26.20Q20.35 26.69 21.14 26.69L21.14 26.69Q21.89 26.69 22.27 26.36Q22.64 26.03 22.64 25.48L22.64 25.48Q22.64 24.50 21.26 24.26L21.26 24.26Q20.46 24.09 20.12 23.98Q19.79 23.88 19.50 23.64L19.50 23.64Q18.93 23.17 18.93 22.50Q18.93 21.84 19.43 21.35Q19.93 20.86 21.05 20.86L21.05 20.86Q21.80 20.86 22.31 21.24L22.31 21.24Q22.46 21.12 22.54 21.03L22.54 21.03Q22.71 20.86 22.81 20.86L22.81 20.86Q22.91 20.86 22.93 20.93Q22.95 21.00 22.95 21.19L22.95 21.19L22.95 22.53Q22.95 22.68 22.94 22.73Q22.94 22.78 22.90 22.82Q22.86 22.86 22.77 22.86L22.77 22.86Q22.62 22.86 22.62 22.73L22.62 22.73Q22.51 21.12 21.05 21.12L21.05 21.12Q20.27 21.12 19.92 21.42Q19.56 21.72 19.56 22.13L19.56 22.13Q19.56 22.36 19.67 22.53Q19.78 22.71 19.92 22.81Q20.06 22.91 20.32 23.00Q20.58 23.10 20.74 23.13Q20.90 23.16 21.20 23.23L21.20 23.23Q22.27 23.43 22.72 23.86L22.72 23.86Q23.28 24.42 23.28 25.13L23.28 25.13Q23.28 25.92 22.75 26.46Q22.21 26.99 21.14 26.99L21.14 26.99Q20.27 26.99 19.67 26.41L19.67 26.41Q19.59 26.49 19.53 26.56Q19.47 26.62 19.45 26.65Q19.43 26.68 19.42 26.69Q19.41 26.71 19.40 26.72L19.40 26.72Q19.13 26.99 19.07 26.99L19.07 26.99Q18.96 26.99 18.95 26.92Q18.93 26.85 18.93 26.66Z"
                />
            </g>
        </g>
    </g>
    <g class="">
        <rect
            width="55.35966666666666"
            height="17.564666666666668"
            style=""
            x="0.6666666666666679"
            y="0.6666666666666661"
            transform="matrix(1,0,0,1,371.14940472440946,-249.07132913385823)"
            stroke-dasharray="1pt 0pt"
            stroke-opacity="0"
            stroke-width="0"
            stroke="#000"
            fill-opacity="1"
            fill="none"
        />
        <g
            transform="matrix(1,0,0,1,0,0)"
            style="pointer-events: none;"
            class=""
        >
            <g
                fill="#000"
                transform="matrix(1,0,0,1,379.14940472440946,-241.07132913385823)"
            />
            <g
                fill="#000"
                transform="matrix(1,0,0,1,379.14940472440946,-241.07132913385823)"
            >
                <path
                    d="M5.35 9.44L0.47 9.44L0.47 9.03L0.79 9.03Q1.51 9.03 1.68 8.90Q1.84 8.78 1.84 8.39L1.84 8.39L1.84 1.37Q1.84 0.98 1.67 0.86Q1.50 0.74 0.79 0.74L0.79 0.74L0.47 0.74L0.47 0.33L5.35 0.33Q7.05 0.33 8.24 1.69Q9.43 3.05 9.43 4.96L9.43 4.96Q9.43 6.82 8.23 8.13Q7.04 9.44 5.35 9.44L5.35 9.44ZM2.99 1.28L2.99 8.49Q2.99 8.84 3.09 8.93Q3.18 9.03 3.64 9.03L3.64 9.03L4.99 9.03Q5.87 9.03 6.46 8.66Q7.05 8.30 7.36 7.89L7.36 7.89Q8.09 6.88 8.09 4.96L8.09 4.96Q8.09 2.93 7.40 1.98L7.40 1.98Q6.51 0.74 4.97 0.74L4.97 0.74L3.64 0.74Q3.18 0.74 3.09 0.83Q2.99 0.93 2.99 1.28L2.99 1.28ZM10.92 4.88L10.92 4.88Q10.92 2.87 12.29 1.45Q13.67 0.03 15.55 0.03L15.55 0.03Q16.14 0.03 16.66 0.25Q17.18 0.46 17.42 0.65Q17.66 0.83 18.01 1.18L18.01 1.18L18.68 0.20Q18.78 0.03 18.89 0.03Q19.00 0.03 19.02 0.10Q19.04 0.16 19.04 0.35L19.04 0.35L19.04 3.52Q19.04 3.73 19.01 3.78Q18.98 3.84 18.82 3.84L18.82 3.84Q18.69 3.84 18.66 3.80Q18.63 3.76 18.61 3.61L18.61 3.61Q18.40 2.17 17.61 1.31Q16.81 0.45 15.70 0.45L15.70 0.45Q15.38 0.45 15.03 0.52Q14.67 0.59 14.16 0.87Q13.65 1.14 13.26 1.59Q12.86 2.05 12.58 2.90Q12.29 3.76 12.29 4.89L12.29 4.89Q12.29 6.01 12.58 6.87Q12.86 7.73 13.26 8.18Q13.65 8.62 14.16 8.89Q14.67 9.17 15.04 9.24Q15.40 9.32 15.72 9.32L15.72 9.32Q16.86 9.32 17.74 8.50Q18.62 7.69 18.70 6.32L18.70 6.32Q18.72 6.25 18.72 6.22Q18.72 6.19 18.73 6.16Q18.74 6.13 18.78 6.11Q18.81 6.10 18.86 6.10L18.86 6.10Q19.04 6.10 19.04 6.33L19.04 6.33Q19.04 7.60 18.06 8.66Q17.09 9.73 15.55 9.73L15.55 9.73Q13.66 9.73 12.29 8.32Q10.92 6.92 10.92 4.88Z"
                />
                <path
                    d="M0.43 26.69L0.43 26.69L0.43 26.28Q1.14 26.28 1.30 26.19Q1.46 26.11 1.46 25.68L1.46 25.68L1.46 22.10Q1.46 21.61 1.29 21.48Q1.12 21.36 0.43 21.36L0.43 21.36L0.43 20.94L2.30 20.80L2.30 22.20Q2.93 20.80 4.28 20.80L4.28 20.80Q5.84 20.80 6.05 22.10L6.05 22.10Q6.28 21.59 6.76 21.20Q7.24 20.80 7.99 20.80L7.99 20.80Q8.99 20.80 9.39 21.30L9.39 21.30Q9.68 21.63 9.74 22.00Q9.80 22.37 9.80 23.33L9.80 23.33L9.80 25.88Q9.81 26.16 10.03 26.22Q10.24 26.28 10.84 26.28L10.84 26.28L10.84 26.69Q9.48 26.65 9.35 26.65L9.35 26.65Q9.24 26.65 7.84 26.69L7.84 26.69L7.84 26.28Q8.55 26.28 8.71 26.19Q8.88 26.11 8.88 25.68L8.88 25.68L8.88 22.57Q8.88 21.89 8.67 21.49Q8.46 21.09 7.89 21.09L7.89 21.09Q7.20 21.09 6.65 21.67Q6.09 22.25 6.09 23.23L6.09 23.23L6.09 25.68Q6.09 26.11 6.26 26.19Q6.43 26.28 7.14 26.28L7.14 26.28L7.14 26.69Q5.77 26.65 5.64 26.65L5.64 26.65Q5.53 26.65 4.13 26.69L4.13 26.69L4.13 26.28Q4.84 26.28 5.01 26.19Q5.18 26.11 5.18 25.68L5.18 25.68L5.18 22.57Q5.18 21.89 4.97 21.49Q4.76 21.09 4.19 21.09L4.19 21.09Q3.50 21.09 2.94 21.67Q2.39 22.25 2.39 23.23L2.39 23.23L2.39 25.68Q2.39 26.11 2.56 26.19Q2.72 26.28 3.42 26.28L3.42 26.28L3.42 26.69Q2.06 26.65 1.93 26.65L1.93 26.65Q1.83 26.65 0.43 26.69ZM11.54 26.69L11.54 26.69L11.54 26.28Q12.25 26.28 12.42 26.19Q12.58 26.11 12.58 25.68L12.58 25.68L12.58 22.09Q12.58 21.59 12.41 21.48Q12.25 21.36 11.60 21.36L11.60 21.36L11.60 20.94L13.46 20.80L13.46 25.69Q13.46 26.09 13.60 26.18Q13.74 26.28 14.39 26.28L14.39 26.28L14.39 26.69Q13.03 26.65 13.01 26.65L13.01 26.65Q12.83 26.65 11.54 26.69ZM12.10 18.48L12.10 18.48Q12.10 18.21 12.31 17.99Q12.51 17.77 12.81 17.77Q13.10 17.77 13.31 17.97Q13.52 18.17 13.52 18.48Q13.52 18.79 13.31 18.99Q13.10 19.19 12.81 19.19L12.81 19.19Q12.50 19.19 12.30 18.97Q12.10 18.76 12.10 18.48ZM15.22 26.69L15.22 26.69L15.22 26.28Q15.93 26.28 16.09 26.19Q16.26 26.11 16.26 25.68L16.26 25.68L16.26 22.10Q16.26 21.61 16.08 21.48Q15.91 21.36 15.22 21.36L15.22 21.36L15.22 20.94L17.10 20.80L17.10 22.20Q17.72 20.80 19.07 20.80L19.07 20.80Q20.07 20.80 20.47 21.30L20.47 21.30Q20.76 21.63 20.82 22.00Q20.89 22.37 20.89 23.33L20.89 23.33L20.89 25.88Q20.90 26.16 21.11 26.22Q21.33 26.28 21.93 26.28L21.93 26.28L21.93 26.69Q20.57 26.65 20.43 26.65L20.43 26.65Q20.33 26.65 18.93 26.69L18.93 26.69L18.93 26.28Q19.64 26.28 19.80 26.19Q19.97 26.11 19.97 25.68L19.97 25.68L19.97 22.57Q19.97 21.89 19.76 21.49Q19.55 21.09 18.98 21.09L18.98 21.09Q18.29 21.09 17.73 21.67Q17.18 22.25 17.18 23.23L17.18 23.23L17.18 25.68Q17.18 26.11 17.35 26.19Q17.51 26.28 18.22 26.28L18.22 26.28L18.22 26.69Q16.86 26.65 16.73 26.65L16.73 26.65Q16.62 26.65 15.22 26.69ZM22.62 21.36L22.62 21.36L22.62 20.94L24.58 20.80L24.58 25.23Q24.58 25.55 24.60 25.73Q24.63 25.92 24.74 26.13Q24.84 26.35 25.09 26.45Q25.35 26.54 25.75 26.54L25.75 26.54Q26.47 26.54 26.92 25.95Q27.36 25.36 27.36 24.48L27.36 24.48L27.36 22.10Q27.36 21.61 27.19 21.48Q27.01 21.36 26.32 21.36L26.32 21.36L26.32 20.94L28.28 20.80L28.28 25.53Q28.28 26.03 28.45 26.16Q28.63 26.28 29.32 26.28L29.32 26.28L29.32 26.69L27.40 26.84L27.40 25.64Q26.84 26.84 25.68 26.84L25.68 26.84Q25.10 26.84 24.70 26.69Q24.30 26.54 24.10 26.36Q23.89 26.17 23.79 25.81Q23.68 25.46 23.67 25.23Q23.65 25.01 23.65 24.58L23.65 24.58L23.65 22.58Q23.65 21.68 23.52 21.52Q23.39 21.36 22.62 21.36ZM30.03 26.52L30.03 26.52L30.03 24.76Q30.03 24.61 30.03 24.56Q30.04 24.50 30.08 24.47Q30.12 24.43 30.20 24.43L30.20 24.43Q30.29 24.43 30.32 24.47Q30.36 24.50 30.38 24.65L30.38 24.65Q30.59 25.57 31.02 26.06Q31.45 26.54 32.24 26.54L32.24 26.54Q32.99 26.54 33.37 26.21Q33.74 25.88 33.74 25.33L33.74 25.33Q33.74 24.36 32.36 24.11L32.36 24.11Q31.56 23.95 31.22 23.84Q30.89 23.73 30.60 23.49L30.60 23.49Q30.03 23.02 30.03 22.36Q30.03 21.69 30.53 21.20Q31.04 20.72 32.15 20.72L32.15 20.72Q32.90 20.72 33.41 21.09L33.41 21.09Q33.56 20.98 33.64 20.88L33.64 20.88Q33.82 20.72 33.91 20.72L33.91 20.72Q34.01 20.72 34.03 20.78Q34.05 20.85 34.05 21.04L34.05 21.04L34.05 22.38Q34.05 22.53 34.04 22.58Q34.04 22.64 34.00 22.67Q33.96 22.71 33.87 22.71L33.87 22.71Q33.72 22.71 33.72 22.58L33.72 22.58Q33.61 20.97 32.15 20.97L32.15 20.97Q31.37 20.97 31.02 21.27Q30.66 21.58 30.66 21.99L30.66 21.99Q30.66 22.21 30.77 22.39Q30.88 22.56 31.02 22.66Q31.16 22.76 31.42 22.85Q31.68 22.95 31.84 22.98Q32.00 23.01 32.30 23.08L32.30 23.08Q33.37 23.28 33.82 23.72L33.82 23.72Q34.38 24.28 34.38 24.99L34.38 24.99Q34.38 25.77 33.85 26.31Q33.31 26.84 32.24 26.84L32.24 26.84Q31.37 26.84 30.77 26.26L30.77 26.26Q30.69 26.34 30.63 26.41Q30.57 26.48 30.55 26.50Q30.53 26.53 30.52 26.55Q30.51 26.56 30.50 26.58L30.50 26.58Q30.23 26.84 30.17 26.84L30.17 26.84Q30.07 26.84 30.05 26.77Q30.03 26.71 30.03 26.52Z"
                />
            </g>
        </g>
    </g>
    <g class="">
        <rect
            width="45.91076115485564"
            height="17.564304461942225"
            style=""
            stroke-dasharray="1pt 4pt"
            stroke-opacity="0"
            stroke-width="0"
            stroke="#000"
            fill-opacity="1"
            fill="none"
            x="0.6666666666666679"
            y="0.6666666666666661"
            transform="matrix(1,0,0,1,187.47637795275588,-284.46456692913387)"
        />
        <g
            transform="matrix(1,0,0,1,0,0)"
            style="pointer-events: none;"
            class=""
        >
            <g
                fill="#000"
                transform="matrix(1,0,0,1,195.47637795275588,-276.46456692913387)"
            />
            <g
                fill="#000"
                transform="matrix(1,0,0,1,195.47637795275588,-276.46456692913387)"
            >
                <path
                    d="M0.43 9.58L0.43 9.58L0.43 9.17Q1.61 9.15 1.92 8.27L1.92 8.27L4.68 0.31Q4.73 0.14 4.79 0.09Q4.85 0.04 5 0.04L5 0.04Q5.08 0.04 5.13 0.05Q5.18 0.06 5.21 0.11Q5.24 0.16 5.25 0.18Q5.27 0.21 5.31 0.31L5.31 0.31L8.18 8.64Q8.29 8.97 8.50 9.07Q8.72 9.17 9.32 9.17L9.32 9.17L9.56 9.17L9.56 9.58Q8.72 9.54 7.81 9.54L7.81 9.54Q6.37 9.54 5.89 9.58L5.89 9.58L5.89 9.17Q7.00 9.17 7.00 8.77L7.00 8.77Q7.00 8.74 6.96 8.58L6.96 8.58L6.26 6.54L2.96 6.54L2.34 8.29Q2.32 8.34 2.32 8.49L2.32 8.49Q2.32 8.77 2.58 8.97Q2.84 9.17 3.32 9.17L3.32 9.17L3.32 9.58Q2.04 9.54 1.78 9.54L1.78 9.54Q1.35 9.54 0.43 9.58ZM4.60 1.80L3.11 6.13L6.11 6.13L4.60 1.80ZM10.75 5.03L10.75 5.03Q10.75 3.01 12.12 1.60Q13.50 0.18 15.38 0.18L15.38 0.18Q15.97 0.18 16.49 0.40Q17.01 0.61 17.25 0.80Q17.49 0.98 17.84 1.33L17.84 1.33L18.51 0.34Q18.61 0.18 18.72 0.18Q18.83 0.18 18.85 0.24Q18.87 0.31 18.87 0.50L18.87 0.50L18.87 3.66Q18.87 3.88 18.84 3.93Q18.82 3.98 18.65 3.98L18.65 3.98Q18.52 3.98 18.49 3.94Q18.46 3.91 18.44 3.76L18.44 3.76Q18.24 2.32 17.44 1.46Q16.64 0.60 15.53 0.60L15.53 0.60Q15.21 0.60 14.86 0.67Q14.51 0.74 13.99 1.01Q13.48 1.29 13.09 1.74Q12.70 2.19 12.41 3.05Q12.12 3.91 12.12 5.04L12.12 5.04Q12.12 6.16 12.41 7.02Q12.70 7.88 13.09 8.32Q13.48 8.77 13.99 9.04Q14.51 9.32 14.87 9.39Q15.23 9.47 15.55 9.47L15.55 9.47Q16.69 9.47 17.57 8.65Q18.45 7.84 18.54 6.46L18.54 6.46Q18.55 6.40 18.55 6.37Q18.55 6.34 18.56 6.31Q18.57 6.28 18.61 6.26Q18.64 6.25 18.69 6.25L18.69 6.25Q18.87 6.25 18.87 6.48L18.87 6.48Q18.87 7.75 17.89 8.81Q16.92 9.88 15.38 9.88L15.38 9.88Q13.49 9.88 12.12 8.47Q10.75 7.06 10.75 5.03Z"
                />
            </g>
        </g>
    </g>
</svg>
